<?xml version="1.0" encoding="UTF-8"?>
<!DOCTYPE svg PUBLIC "-//W3C//DTD SVG 1.1//EN" "http://www.w3.org/Graphics/SVG/1.1/DTD/svg11.dtd">
<!-- Creator: CorelDRAW X6 -->
<svg xmlns="http://www.w3.org/2000/svg" xml:space="preserve" width="2.3808mm" height="4.7628mm" version="1.1" style="shape-rendering:geometricPrecision; text-rendering:geometricPrecision; image-rendering:optimizeQuality; fill-rule:evenodd; clip-rule:evenodd"
viewBox="0 0 14 29"
 xmlns:xlink="http://www.w3.org/1999/xlink">
 <defs>
  <style type="text/css">
   <![CDATA[
    .str0 {stroke:#599d8b;stroke-width:1.02569}
    .fil0 {fill:none;fill-rule:nonzero}
   ]]>
  </style>
 </defs>
 <g id="图层_x0020_1">
  <metadata id="CorelCorpID_0Corel-Layer"/>
  <g id="_1329833840">
   <path class="fil0 str0" d="M12 16c0,3 -2,5 -5,5l0 0c-3,0 -5,-2 -5,-5l0 -10c0,-3 2,-5 5,-5l0 0c3,0 5,2 5,5l0 10z"/>
   <line class="fil0 str0" x1="14" y1="11" x2="14" y2= "16" />
   <path class="fil0 str0" d="M14 16c0,4 -3,7 -7,7"/>
   <line class="fil0 str0" x1="7" y1="23" x2="7" y2= "23" />
   <path class="fil0 str0" d="M7 23c-4,0 -7,-3 -7,-7"/>
   <line class="fil0 str0" x1="1" y1="16" x2="1" y2= "11" />
   <polygon class="fil0 str0" points="9,25 6,25 6,22 9,22 "/>
   <path class="fil0 str0" d="M13 27c0,1 -1,2 -2,2l-8 0c-1,0 -2,-1 -2,-2 0,-1 1,-2 2,-2l8 0c1,0 2,1 2,2z"/>
   <line class="fil0 str0" x1="2" y1="11" x2="13" y2= "11" />
   <line class="fil0 str0" x1="2" y1="9" x2="13" y2= "9" />
   <line class="fil0 str0" x1="2" y1="8" x2="13" y2= "8" />
   <line class="fil0 str0" x1="2" y1="6" x2="13" y2= "6" />
  </g>
 </g>
</svg>
