<?xml version="1.0" encoding="utf-8"?>
<!-- Generator: Adobe Illustrator 17.0.0, SVG Export Plug-In . SVG Version: 6.00 Build 0)  -->
<!DOCTYPE svg PUBLIC "-//W3C//DTD SVG 1.1//EN" "http://www.w3.org/Graphics/SVG/1.1/DTD/svg11.dtd">
<svg version="1.1" id="图层_1" xmlns="http://www.w3.org/2000/svg" xmlns:xlink="http://www.w3.org/1999/xlink" x="0px" y="0px"
	 width="32px" height="32px" viewBox="0 0 32 32" enable-background="new 0 0 32 32" xml:space="preserve">
<g>
	<g transform="scale(0.1953125, 0.1953125)">
		<path fill="#599d8b" d="M149.863,126.318v8.884c0,5.061-4.162,9.18-9.275,9.18H24.302c-5.113,0-9.273-4.118-9.273-9.18V72.116
			l48.475,0.069l0.006,35.452c0,1.567,1.354,2.94,2.9,2.94c0.293,0,0.59-0.051,0.879-0.15l0.788-0.271l16.522-9.053l16.356,9.805
			c0.416,0.24,0.913,0.365,1.434,0.365c1.119,0,2.174-0.55,2.686-1.402c0.255-0.426,0.374-0.946,0.332-1.464l-0.046-0.584
			l0.142-0.329L105.5,72.113l44.364,0.069v20.944h5.554v-56.65c0-7.608-6.291-13.799-14.024-13.799H23.5
			c-7.734,0-14.027,6.191-14.027,13.799v99.517c0,7.609,6.294,13.799,14.027,13.799h117.893c7.733,0,14.024-6.187,14.024-13.795
			v-9.678H149.863z M140.591,28.095c5.113,0,9.275,4.116,9.275,9.176V66.34l-44.36-0.072l-0.008-38.173H140.591z M99.497,28.095
			l0.01,75.021l-13.382-7.954l-0.696-0.232c-0.324-0.108-0.665-0.164-1.004-0.164c-0.169,0-0.336,0.014-0.498,0.042l-0.13,0.021
			l-14.291,7.834l-0.012-74.567H99.497z M15.029,37.272c0-5.06,4.16-9.176,9.273-9.176h39.19l0.005,38.247l-48.468-0.075V37.272z"/>
	</g>
</g>
</svg>
