<?xml version="1.0" encoding="UTF-8"?>
<!DOCTYPE svg PUBLIC "-//W3C//DTD SVG 1.1//EN" "http://www.w3.org/Graphics/SVG/1.1/DTD/svg11.dtd">
<!-- Creator: CorelDRAW X6 -->
<svg xmlns="http://www.w3.org/2000/svg" xml:space="preserve" width="6.0112mm" height="4.5452mm" version="1.1" style="shape-rendering:geometricPrecision; text-rendering:geometricPrecision; image-rendering:optimizeQuality; fill-rule:evenodd; clip-rule:evenodd"
viewBox="0 0 86 65"
 xmlns:xlink="http://www.w3.org/1999/xlink">
 <defs>
  <style type="text/css">
   <![CDATA[
    .str1 {stroke:#599d8b;stroke-width:2.41007;stroke-linejoin:round}
    .str2 {stroke:#599d8b;stroke-width:2.41007;stroke-linecap:round;stroke-linejoin:round}
    .str0 {stroke:#599d8b;stroke-width:2.41007;stroke-linecap:round;stroke-linejoin:round}
    .fil1 {fill:none}
    .fil0 {fill:none;fill-rule:nonzero}
   ]]>
  </style>
 </defs>
 <g id="图层_x0020_1">
  <metadata id="CorelCorpID_0Corel-Layer"/>
  <g id="_1329866736">
   <g>
    <polyline class="fil0 str0" points="73,43 23,43 13,11 1,14 "/>
   </g>
   <g id="_1329850384">
    <g>
     <path class="fil0 str1" d="M24 1c-3,0 -5,3 -4,6l7 23c1,3 4,6 8,6l36 0c3,0 7,-3 8,-6l6 -23c1,-3 -1,-6 -4,-6l-56 0z"/>
    </g>
   </g>
   <g>
    <g>
     <line class="fil0 str2" x1="39" y1="28" x2="35" y2= "12" />
    </g>
    <g>
     <line class="fil0 str2" x1="52" y1="28" x2="52" y2= "12" />
    </g>
    <g>
     <line class="fil0 str2" x1="65" y1="28" x2="69" y2= "11" />
    </g>
   </g>
   <g>
    <g>
     <path class="fil1 str1" d="M36 51c3,0 6,3 6,6 0,3 -3,6 -6,6 -3,0 -6,-3 -6,-6 0,-3 3,-6 6,-6z"/>
    </g>
    <g>
     <path class="fil1 str1" d="M67 51c3,0 6,3 6,6 0,3 -3,6 -6,6 -3,0 -6,-3 -6,-6 0,-3 3,-6 6,-6z"/>
    </g>
   </g>
  </g>
 </g>
</svg>
