<?xml version="1.0" encoding="utf-8"?>
<!-- Generator: Adobe Illustrator 17.0.0, SVG Export Plug-In . SVG Version: 6.00 Build 0)  -->
<!DOCTYPE svg PUBLIC "-//W3C//DTD SVG 1.1//EN" "http://www.w3.org/Graphics/SVG/1.1/DTD/svg11.dtd">
<svg version="1.1" id="图层_1" xmlns="http://www.w3.org/2000/svg" xmlns:xlink="http://www.w3.org/1999/xlink" x="0px" y="0px"
	 width="32px" height="32px" viewBox="0 0 32 32" enable-background="new 0 0 32 32" xml:space="preserve">
<g>
	<g transform="scale(0.1953125, 0.1953125)">
		<path fill="#9E2E46" stroke="#FFFFFF" stroke-width="0.25" stroke-miterlimit="10" d="M6.274,73.361v44.557
			c0,2.229,1.78,4.037,3.979,4.037s3.984-1.809,3.984-4.037V73.361H6.274z"/>
		<path fill="#9E2E46" stroke="#FFFFFF" stroke-width="0.25" stroke-miterlimit="10" d="M156.212,75.899l0.041-0.066l-32.317-18.956
			V31.506c0-8.466-6.765-15.338-15.119-15.338H21.402c-8.354,0-15.126,6.872-15.128,15.338v6.745h7.963v-5.937
			c0-4.455,3.562-8.068,7.958-8.068h85.824c4.397,0,7.961,3.612,7.961,8.068v25.972h0.005c0,0.005-0.005,0.007-0.005,0.016
			c0,1.759,1.123,3.212,2.666,3.765l31.961,18.754v49.451c0,2.227,1.587,4.045,3.549,4.045c1.963,0,3.547-1.819,3.547-4.045V78.756
			C157.701,77.562,157.095,76.553,156.212,75.899z"/>
		<path fill="#9E2E46" stroke="#FFFFFF" stroke-width="0.25" stroke-miterlimit="10" d="M109.496,76.343
			c0-2.134-1.704-3.861-3.813-3.861c-2.099,0-3.804,1.731-3.804,3.861v16.075c0,0-0.459,7.764,7.617,7.72h20.033
			c0.01,0,0.027,0.009,0.039,0.009c2.104,0,3.813-1.733,3.813-3.861c0-2.129-1.706-3.857-3.806-3.869l-20.079,0.001V76.368
			C109.496,76.358,109.496,76.353,109.496,76.343z"/>
		<path fill="#9E2E46" stroke="#FFFFFF" stroke-width="0.25" stroke-miterlimit="10" d="M118.817,113.295
			c-10.087,0-18.346,7.712-19.576,17.613l-39.956,0.017c-1.223-9.909-9.484-17.631-19.579-17.631
			c-10.929,0-19.82,9.02-19.828,20.109c0,11.078,8.896,20.099,19.828,20.099c9.448,0,17.355-6.757,19.325-15.753l40.451-0.015
			c1.958,9.002,9.875,15.768,19.335,15.768c10.93,0,19.823-9.019,19.823-20.099C138.64,122.313,129.749,113.295,118.817,113.295z
			 M39.706,144.985c-6.294,0-11.42-5.2-11.42-11.581c0-6.391,5.122-11.58,11.42-11.58c6.299,0,11.42,5.189,11.42,11.58
			C51.126,139.785,46.007,144.985,39.706,144.985z M118.819,144.985c-6.296,0-11.423-5.2-11.423-11.581
			c0-6.391,5.122-11.58,11.423-11.58s11.422,5.189,11.422,11.58C130.242,139.785,125.12,144.985,118.819,144.985z"/>
	</g>
</g>
</svg>
