<?xml version="1.0" encoding="utf-8"?>
<!-- Generator: Adobe Illustrator 16.0.0, SVG Export Plug-In . SVG Version: 6.00 Build 0)  -->
<!DOCTYPE svg PUBLIC "-//W3C//DTD SVG 1.1//EN" "http://www.w3.org/Graphics/SVG/1.1/DTD/svg11.dtd">
<svg version="1.1" id="图层_1" xmlns="http://www.w3.org/2000/svg" xmlns:xlink="http://www.w3.org/1999/xlink" x="0px" y="0px"
	 width="24px" height="24px" viewBox="0 0 200 200" enable-background="new 0 0 200 200" xml:space="preserve">
<circle fill="none" stroke="#ADADAD" stroke-width="8" stroke-miterlimit="10" cx="100.928" cy="102.157" r="90"/>
<g>
	<g transform="scale(0.1953125, 0.1953125)">
		<path fill="#ADADAD" d="M776.923,499.194l-234.579,0.075V263.745c0-13.055-10.595-23.652-23.655-23.652
			c-13.06,0-23.655,10.597-23.655,23.652v235.364l-238.289-0.135c-0.025,0-0.05,0-0.075,0c-13.03,0-23.605,10.525-23.655,23.585
			c-0.07,13.055,10.505,23.68,23.56,23.725l238.459,0.13v235.929c0,13.08,10.595,23.65,23.655,23.65
			c13.055,0,23.65-10.57,23.65-23.65V546.579l234.389-0.075c0.05,0,0.075,0,0.095,0c13.035,0,23.605-10.53,23.655-23.58
			C800.528,509.864,789.958,499.244,776.923,499.194z"/>
	</g>
</g>
</svg>
