<?xml version="1.0" encoding="utf-8"?>
<!-- Generator: Adobe Illustrator 17.0.0, SVG Export Plug-In . SVG Version: 6.00 Build 0)  -->
<!DOCTYPE svg PUBLIC "-//W3C//DTD SVG 1.1//EN" "http://www.w3.org/Graphics/SVG/1.1/DTD/svg11.dtd">
<svg version="1.1" id="图层_1" xmlns="http://www.w3.org/2000/svg" xmlns:xlink="http://www.w3.org/1999/xlink" x="0px" y="0px"
	 width="36px" height="36px" viewBox="0 0 36 36" enable-background="new 0 0 36 36" xml:space="preserve">
<path fill="#ADADAD" d="M18.07,2.426c-8.685,0-15.75,7.065-15.75,15.75c0,8.685,7.065,15.75,15.75,15.75s15.75-7.065,15.75-15.75
	C33.82,9.491,26.755,2.426,18.07,2.426z"/>
<path fill="#FFFFFF" d="M25.992,23.835c0,1.229-1.257,2.264-2.486,2.264H12.373c-1.229,0-2.226-0.997-2.226-2.227V12.739
	c0-1.23,1.034-2.486,2.263-2.486h6.225v1.132H12.41c-0.615,0-1.132,0.517-1.132,1.132L11.26,23.872c0,0.615,0.499,1.113,1.113,1.113
	l11.356-0.019c0.615,0,1.132-0.517,1.132-1.131V17.61h1.132L25.992,23.835L25.992,23.835z"/>
<path fill="#FFFFFF" d="M25.992,14.78c0,0.306-0.245,0.566-0.566,0.566c-0.321,0.001-0.566-0.26-0.566-0.566l-0.017-2.704
	l-8.612,8.214c-0.226,0.215-0.592,0.215-0.818,0c-0.226-0.216-0.226-0.565,0-0.78l8.538-8.144l-2.487,0.018
	c-0.321,0.001-0.566-0.26-0.566-0.566c0-0.307,0.245-0.566,0.566-0.566h3.949c0.321-0.001,0.579,0.246,0.579,0.551
	C25.992,10.804,25.992,14.78,25.992,14.78z"/>
</svg>
