<?xml version="1.0" encoding="utf-8"?>
<!-- Generator: Adobe Illustrator 16.0.0, SVG Export Plug-In . SVG Version: 6.00 Build 0)  -->
<!DOCTYPE svg PUBLIC "-//W3C//DTD SVG 1.1//EN" "http://www.w3.org/Graphics/SVG/1.1/DTD/svg11.dtd">
<svg version="1.1" id="图层_1" xmlns="http://www.w3.org/2000/svg" xmlns:xlink="http://www.w3.org/1999/xlink" x="0px" y="0px"
	 width="106px" height="60px" viewBox="0 0 106 60" enable-background="new 0 0 106 60" xml:space="preserve">
<path fill="#C9C9C9" d="M104.324,31.144c0,3.692-0.017,7.116-0.864,9.761c-1.093,3.409-3.24,5.546-5.093,5.546
	c-1.831,0-3.469-1.335-4.563-4.677c-0.869-2.662-1.394-6.882-1.394-10.63c0-5.284,1.15-9.878,2.626-12.693
	c2.466-4.701,2.131,0.25,4.163,1.235c1.651,0.799,2.562-0.984,3.491,1.049C103.52,22.548,104.324,25.16,104.324,31.144z"/>
<g>
	<path fill="#FFFFFF" d="M97.553,21.729c-0.226,0.046-0.439,0.088-0.642,0.124v1.229h0.345l0.297-0.353l0.436,0.401
		c0.018,0.014,0.027,0.033,0.027,0.056c0,0.055-0.027,0.082-0.083,0.082h-1.021v0.56c0.326,0.161,0.552,0.297,0.677,0.408
		c0.138,0.129,0.206,0.246,0.206,0.352c0,0.079-0.026,0.152-0.082,0.221c-0.061,0.07-0.112,0.104-0.159,0.104
		c-0.031,0-0.067-0.042-0.104-0.124c-0.124-0.305-0.304-0.562-0.538-0.773v3.217c0,0.079-0.034,0.134-0.104,0.166
		c-0.087,0.05-0.188,0.075-0.304,0.075v-3.41c-0.119,0.326-0.231,0.59-0.338,0.787c-0.258,0.489-0.55,0.915-0.877,1.277
		l-0.056-0.055c0.323-0.51,0.553-0.95,0.691-1.318c0.124-0.286,0.271-0.781,0.441-1.485h-0.483c-0.092,0-0.243,0.019-0.455,0.055
		l-0.111-0.241h1.188V21.93c-0.396,0.072-0.764,0.133-1.104,0.179l-0.056-0.132c0.948-0.193,1.651-0.437,2.106-0.731l0.4,0.462
		c0,0.032-0.009,0.048-0.027,0.048C97.702,21.738,97.612,21.729,97.553,21.729z M97.96,22.191c0.521,0.378,0.78,0.666,0.78,0.863
		c0,0.06-0.029,0.127-0.09,0.201c-0.073,0.082-0.143,0.124-0.207,0.124c-0.051,0-0.075-0.037-0.075-0.111
		c-0.051-0.382-0.214-0.722-0.491-1.021L97.96,22.191z M100.818,21.625c-1.063,0.115-2.007,0.205-2.83,0.27l-0.056-0.139
		c1.261-0.17,2.196-0.384,2.803-0.642l0.408,0.483c0,0.037-0.01,0.056-0.028,0.056C100.982,21.634,100.884,21.625,100.818,21.625z
		 M99.231,23.807c-0.313,0.107-0.595,0.191-0.844,0.256v1.015h0.38l0.297-0.352l0.442,0.429c0.01,0.018,0.014,0.037,0.014,0.054
		c0,0.038-0.016,0.056-0.048,0.056h-1.085v1.298h2.189v-1.325h-0.463c-0.11,0-0.226,0.009-0.345,0.027l-0.139-0.214h0.946V24h-0.407
		c-0.125,0-0.249,0.006-0.373,0.02l-0.166-0.214h0.919l0.214-0.27l0.38,0.339c0.056,0.032,0.083,0.064,0.083,0.097
		c0,0.013-0.083,0.076-0.249,0.187v3.044c0,0.078-0.032,0.134-0.097,0.166c-0.087,0.055-0.189,0.083-0.304,0.083v-0.704h-2.189
		v0.455c0,0.065-0.022,0.109-0.068,0.132c-0.106,0.059-0.217,0.089-0.331,0.089v-3.749l0.407,0.235
		c0.331-0.148,0.582-0.315,0.752-0.504l0.325,0.374c0,0.036-0.01,0.055-0.027,0.055C99.349,23.816,99.276,23.807,99.231,23.807z
		 M99.203,21.977c0.428,0.396,0.642,0.7,0.642,0.911c0,0.065-0.029,0.133-0.09,0.208c-0.068,0.078-0.138,0.117-0.207,0.117
		c-0.046,0-0.07-0.035-0.075-0.104c-0.037-0.405-0.154-0.766-0.353-1.084L99.203,21.977z M100.847,21.977l0.455,0.317
		c0.056,0.039,0.083,0.065,0.083,0.084c0,0.032-0.027,0.052-0.083,0.061c-0.063,0.014-0.138,0.058-0.221,0.132
		c-0.358,0.355-0.697,0.642-1.015,0.863l-0.056-0.083C100.43,22.854,100.708,22.396,100.847,21.977z"/>
	<path fill="#FFFFFF" d="M97.125,31.078l0.489,0.275c0.033,0.019,0.049,0.034,0.049,0.05c0,0.017-0.037,0.038-0.11,0.061
		c-0.115,0.038-0.204,0.109-0.27,0.214c-0.119,0.176-0.234,0.34-0.345,0.491l0.193,0.103c0.064,0.029,0.096,0.054,0.096,0.077
		c0,0.019-0.07,0.07-0.214,0.158v2.541c0,0.073-0.039,0.128-0.117,0.167c-0.078,0.032-0.172,0.047-0.282,0.047v-2.671
		c-0.465,0.584-0.907,1.035-1.326,1.352l-0.083-0.055C95.896,33.293,96.536,32.357,97.125,31.078z M95.315,30.083h1.94v-1.049
		l0.553,0.228c0.027,0.01,0.041,0.023,0.041,0.042c0,0.014-0.063,0.066-0.187,0.159v0.621h1.188v-1.049l0.553,0.228
		c0.027,0.01,0.042,0.023,0.042,0.042c0,0.014-0.065,0.066-0.194,0.159v0.621h1.085l0.345-0.456l0.56,0.49
		c0.022,0.02,0.034,0.044,0.034,0.077c0,0.051-0.034,0.076-0.104,0.076h-1.92v0.595c-0.009,0.063-0.055,0.114-0.138,0.151
		c-0.088,0.028-0.175,0.042-0.263,0.042V30.27h-1.188v0.539c-0.013,0.069-0.06,0.119-0.139,0.151
		c-0.091,0.029-0.181,0.042-0.269,0.042V30.27h-1.374c-0.092,0-0.243,0.018-0.455,0.056L95.315,30.083z M100.438,31.43l0.408,0.422
		c0.037,0.046,0.055,0.074,0.055,0.09c0,0.036-0.076,0.076-0.228,0.116c-0.221,0.056-0.442,0.159-0.663,0.312
		c-0.326,0.226-0.67,0.445-1.029,0.655v1.348c0,0.193,0.049,0.3,0.146,0.325c0.156,0.036,0.362,0.053,0.615,0.053
		c0.358,0,0.623-0.028,0.794-0.09c0.138-0.045,0.216-0.126,0.234-0.24l0.234-1.098l0.083,0.026l0.056,0.85
		c0,0.17,0.071,0.317,0.214,0.443c-0.143,0.258-0.302,0.404-0.477,0.441c-0.152,0.046-0.532,0.068-1.139,0.068
		c-0.452,0-0.767-0.024-0.946-0.076c-0.143-0.04-0.214-0.159-0.214-0.352v-1.465c-0.392,0.222-0.806,0.441-1.243,0.657l-0.056-0.111
		c0.479-0.276,0.912-0.548,1.299-0.814v-1.885l0.531,0.214c0.041,0.019,0.063,0.038,0.063,0.055c0,0.014-0.065,0.079-0.194,0.193
		v1.14C99.585,32.27,100.071,31.844,100.438,31.43z"/>
	<path fill="#FFFFFF" d="M100.011,37.464c-0.497,0.07-0.974,0.132-1.429,0.188v0.918h1.829l0.324-0.436l0.511,0.478
		c0.02,0.018,0.028,0.04,0.028,0.068c0,0.05-0.034,0.077-0.104,0.077h-2.326c0.45,0.446,0.814,0.734,1.09,0.868
		c0.373,0.218,0.91,0.394,1.608,0.533v0.082c-0.271,0.022-0.484,0.122-0.642,0.298c-0.607-0.258-1.07-0.531-1.388-0.815
		c-0.276-0.244-0.55-0.567-0.821-0.966h-0.11v1.38c0,0.073-0.033,0.126-0.097,0.159c-0.088,0.055-0.191,0.082-0.312,0.082v-1.621
		h-0.048c-0.346,0.482-0.733,0.878-1.167,1.188c-0.451,0.34-1.018,0.638-1.699,0.89l-0.055-0.11c1.105-0.556,1.91-1.213,2.417-1.967
		h-1.602c-0.093,0-0.247,0.017-0.464,0.055l-0.103-0.242h2.72v-0.871c-0.852,0.102-1.643,0.186-2.375,0.251l-0.048-0.132
		c1.878-0.231,3.27-0.518,4.177-0.863l0.408,0.483c0,0.036-0.01,0.055-0.028,0.055C100.174,37.474,100.075,37.464,100.011,37.464z
		 M96.828,40.158l0.38,0.22h2.153l0.298-0.296l0.421,0.346c0.022,0.022,0.034,0.04,0.034,0.055c0,0.033-0.07,0.105-0.214,0.22v2.341
		c0,0.052-0.014,0.096-0.041,0.132c-0.032,0.042-0.152,0.071-0.359,0.09v-0.462h-2.272v0.27c0,0.059-0.022,0.103-0.068,0.13
		c-0.106,0.061-0.217,0.09-0.331,0.09V40.158z M97.228,41.483H99.5v-0.919h-2.272V41.483z M97.228,42.615H99.5V41.67h-2.272V42.615z
		"/>
</g>
<path fill="#C9C9C9" d="M60.773,22.354c-3.827,13.343-13.901,16.564-13.901,16.564c11.029-1.06,15.468-13.229,16.293-14.944
	C64.099,22.036,61.311,20.917,60.773,22.354z"/>
<path fill="#C9C9C9" d="M72.32,24.363c-1.629-3.309-1.521-2.142-1.521-2.142c3.196,11.772,11.409,16.38,11.933,16.56
	c0.524,0.18,0.812,0.235,1.729-0.162c0.918-0.399,2.764-0.707,2.764-0.707C81.869,35.121,76.677,31.993,72.32,24.363z"/>
<path fill="#C9C9C9" d="M79.565,4.276c-2.062,6.636-7.209,8.678-7.209,8.678c5.111-0.626,9.04-5.822,9.683-6.92
	C83.539,3.471,80.592,0.972,79.565,4.276z"/>
<path fill="#C9C9C9" d="M50.797,4.157c3.275,1.504,5.797,4.793,7.25,7.655c1.217,2.399,3.601,1.115,2.353-1.3
	C57.106,4.14,50.797,4.157,50.797,4.157z"/>
<path fill="#C9C9C9" d="M86.473,17.884c0.521,0,0.298-1.488-1.152-1.823s-2.193,0.967-2.193,0.967H67.966V1.796
	c0-0.601-0.363-0.926-1.033-1.117c-0.653-0.187-1.408,0.013-1.408,0.356v15.993H48.792c-0.096,0.051-0.145,0.285-0.086,0.489
	c0.067,0.237,0.183,0.367,0.396,0.367h16.423v24.854c0,0,0,0.486,0,0.986c0,0.344,0.755,0.545,1.408,0.357
	c0.67-0.19,1.033-0.516,1.033-1.117V17.884H86.473z"/>
<path fill="#C9C9C9" d="M36.945,35.27c-1.407-0.324-2.128,0.938-2.128,0.938h-7.608c-0.093,0.05-0.141,0.276-0.083,0.474
	c0.065,0.23,0.177,0.356,0.384,0.356h10.553C38.568,37.038,38.352,35.595,36.945,35.27z"/>
<path fill="#C9C9C9" d="M29.914,44.206c4.952,0,9.069,0.091,10.738-2.425c0.226-0.326,0.406-0.71,0.507-1.149
	c-0.484-1.625-1.331-3.598-1.207-5.448c-0.112,1.309-1.274,4.06-1.736,4.827c-0.88,1.479-1.568,2.864-7.625,2.864
	c-5.177,0-5.177-3.676-5.177-3.676V18.963h10.882c0,0.179,0,0.408,0,0.643c0,0.339,0.748,0.538,1.393,0.354
	c0.661-0.189,1.021-0.51,1.021-1.104V11.25c0-0.595-0.359-0.917-1.021-1.104c-0.645-0.185-1.393,0.012-1.393,0.352v0.724H25.415
	V1.743c0-0.595-0.359-0.916-1.021-1.104c-0.646-0.185-1.393,0.012-1.393,0.352v11.383c0,0,0,0.481,0,0.975
	c0,0.34,0.748,0.538,1.393,0.353c0.661-0.189,1.021-0.509,1.021-1.104v-0.546h10.881v6.081c-1.304,0-1.944,0-1.944,0h-8.938v-0.161
	c0-0.598-0.361-0.914-1.015-1.105C23.745,16.686,23,16.878,23,17.216V39.47c0,0,0,0.248,0,0.575c0,0.169,0.011,0.339,0.034,0.508
	C23.373,43.226,26.474,44.206,29.914,44.206z"/>
<path fill="#C9C9C9" d="M2.485,7.427h19.092c0.506,0,0.289-1.443-1.118-1.768s-2.128,0.938-2.128,0.938H2.184
	c-0.093,0.05-0.141,0.276-0.083,0.474C2.166,7.302,2.278,7.427,2.485,7.427z"/>
<path fill="#C9C9C9" d="M36.945,23.532c-1.407-0.325-2.128,0.938-2.128,0.938h-7.608c-0.093,0.049-0.141,0.276-0.083,0.474
	c0.065,0.23,0.177,0.355,0.384,0.355h10.553C38.568,25.3,38.352,23.856,36.945,23.532z"/>
<path fill="#C9C9C9" d="M36.945,29.401c-1.407-0.325-2.128,0.938-2.128,0.938h-7.608c-0.093,0.05-0.141,0.275-0.083,0.474
	c0.065,0.231,0.177,0.356,0.384,0.356h10.553C38.568,31.169,38.352,29.726,36.945,29.401z"/>
<path fill="#C9C9C9" d="M2.227,16.445h19.342c0.521,0,0.298-1.488-1.153-1.823c-1.45-0.334-2.193,0.967-2.193,0.967H1.917
	c-0.096,0.051-0.145,0.284-0.085,0.488C1.898,16.315,2.014,16.445,2.227,16.445z"/>
<path fill="#C9C9C9" d="M15.895,9.128c-0.55,3.758-3.573,5.56-3.573,5.56c2.974-0.679,5.246-3.897,5.556-4.577
	C18.603,8.526,16.189,7.121,15.895,9.128z"/>
<path fill="#C9C9C9" d="M37.774,4.997c1.964-1.334,0.491-4.386-1.269-2.257c-3.295,3.987-8.434,3.663-8.434,3.663
	C32.015,7.712,36.933,5.568,37.774,4.997z"/>
<path fill="#C9C9C9" d="M11.347,4.878c0.674,1.53,2.745,1.109,2.188-0.485C12.321,0.92,8.362,0.567,8.362,0.567
	C10.274,2.142,10.452,2.848,11.347,4.878z"/>
<path fill="#C9C9C9" d="M4.466,8.869c1.778,1.066,3.013,3.106,3.663,4.834c0.545,1.45,2.611,1.01,2.05-0.449
	C8.697,9.402,4.466,8.869,4.466,8.869z"/>
<path fill="#C9C9C9" d="M6.263,38.997c0.034-0.066,0.045-0.112,0.045-0.112c0.112-0.396,0.236-0.801,0.361-1.219
	c0.303-0.96,0.51-2.19,0.654-3.466h8.916v8.633c0,0,0,0.481,0,0.976c0,0.34,0.748,0.537,1.393,0.354
	c0.662-0.188,1.021-0.51,1.021-1.105V19.848c0-0.595-0.359-0.917-1.021-1.104c-0.646-0.185-1.393,0.012-1.393,0.352v1.209H7.684
	c-0.015-0.553,0.021-0.839-0.489-1.221c-0.792-0.594-1.932-0.552-1.981-0.103c0,0,0,0.64,0,0.65
	c0.079,2.696,0.124,6.057,0.124,10.061c0,1.884-0.079,3.564-0.237,5.063c-0.113,0.971-0.26,1.929-0.474,2.854
	c-0.022,0.169-0.068,0.327-0.102,0.485c-0.191,0.959-0.428,1.793-0.71,2.526c-0.259,0.609-0.575,1.207-0.958,1.816
	c-0.384,0.608-0.835,1.195-1.342,1.77c-0.012,0.023-0.034,0.034-0.045,0.057C4.458,43.385,5.992,39.707,6.263,38.997z M7.408,33.371
	c0.21-2.315,0.23-4.62,0.226-5.659h8.605v5.659H7.408z M16.239,26.882H7.633c0.01-0.604,0.02-1.208,0.04-1.803
	c0.011-0.553,0.023-1.083,0.023-1.59c0.016-0.632,0.015-1.572,0.004-2.354h8.539V26.882z"/>
<rect x="36.975" y="52.835" fill="#C9C9C9" width="0.565" height="5.044"/>
<rect x="64.064" y="52.835" fill="#C9C9C9" width="0.567" height="5.044"/>
<rect x="0.806" y="55.066" fill="#C9C9C9" width="10.765" height="0.582"/>
<rect x="89.7" y="55.066" fill="#C9C9C9" width="10.766" height="0.582"/>
<path fill="#C9C9C9" d="M16.6,51.785l0.431,0.252h3.819l0.382-0.284l0.496,0.406c0.033,0.032,0.049,0.057,0.049,0.072
	c0,0.033-0.095,0.117-0.285,0.253v2.219c0,0.059-0.016,0.11-0.049,0.154c-0.038,0.048-0.181,0.084-0.43,0.105V54.58h-1.748v1.081
	h1.715l0.415-0.544l0.625,0.584c0.027,0.022,0.041,0.05,0.041,0.082c0,0.065-0.043,0.098-0.13,0.098h-2.666v0.854h2.381l0.382-0.504
	l0.602,0.552c0.021,0.021,0.032,0.05,0.032,0.082c0,0.065-0.043,0.098-0.13,0.098H16.25c-0.108,0-0.287,0.021-0.536,0.064
	l-0.13-0.292h3.209v-0.854h-1.909c-0.108,0-0.288,0.021-0.537,0.065l-0.13-0.285h2.576V54.58H17.08v0.317
	c0,0.07-0.03,0.122-0.089,0.154c-0.125,0.065-0.254,0.098-0.39,0.098V51.785z M16.82,57.182h0.097l0.033,0.723
	c0,0.309-0.092,0.561-0.276,0.755c-0.179,0.2-0.393,0.302-0.642,0.302c-0.152,0-0.228-0.064-0.228-0.195
	c0-0.055,0.07-0.139,0.211-0.252C16.459,58.172,16.728,57.728,16.82,57.182z M17.08,54.361h1.714v-2.097H17.08V54.361z
	 M17.453,52.613c0.661,0.445,0.992,0.783,0.992,1.017c0,0.097-0.049,0.203-0.146,0.316c-0.104,0.124-0.204,0.188-0.301,0.188
	c-0.082,0-0.125-0.052-0.13-0.154c-0.055-0.493-0.223-0.93-0.504-1.309L17.453,52.613z M17.868,57.246
	c0.509,0.487,0.764,0.815,0.764,0.983c0,0.141-0.054,0.266-0.163,0.373c-0.108,0.108-0.222,0.163-0.341,0.163
	c-0.086,0-0.13-0.041-0.13-0.122c0.021-0.33,0.032-0.52,0.032-0.568c0-0.142-0.095-0.407-0.285-0.797L17.868,57.246z M19.265,52.265
	v2.097h1.748v-2.097H19.265z M19.363,57.182c0.655,0.486,0.983,0.858,0.983,1.113c0,0.097-0.046,0.202-0.138,0.316
	c-0.108,0.124-0.211,0.187-0.309,0.187c-0.076,0-0.117-0.052-0.122-0.154c-0.054-0.525-0.225-0.991-0.512-1.397L19.363,57.182z
	 M20.184,52.581l0.544,0.366c0.049,0.032,0.071,0.057,0.065,0.073c0,0.006-0.03,0.021-0.09,0.049
	c-0.07,0.032-0.154,0.113-0.251,0.243c-0.298,0.357-0.566,0.642-0.805,0.854l-0.097-0.098
	C19.821,53.619,20.032,53.124,20.184,52.581z M20.76,57.182c0.585,0.292,0.973,0.535,1.163,0.731
	c0.195,0.194,0.292,0.373,0.292,0.535c0,0.119-0.041,0.233-0.122,0.341c-0.087,0.114-0.162,0.172-0.228,0.172
	c-0.043,0-0.089-0.064-0.138-0.195c-0.217-0.592-0.561-1.075-1.032-1.454L20.76,57.182z"/>
<path fill="#C9C9C9" d="M26.281,54.723h2.414v-2.697l0.748,0.236c0.049,0.01,0.073,0.026,0.073,0.048
	c0,0.011-0.019,0.032-0.057,0.065l-0.228,0.187v2.161h1.625l0.374-0.512l0.633,0.562c0.022,0.021,0.032,0.046,0.032,0.072
	c0,0.065-0.041,0.098-0.122,0.098h-2.543v3.462h2.259l0.439-0.569l0.658,0.609c0.027,0.022,0.041,0.052,0.041,0.09
	c0,0.06-0.041,0.09-0.122,0.09h-6.354c-0.108,0-0.287,0.021-0.537,0.064l-0.13-0.284h3.21v-3.462h-1.747
	c-0.108,0-0.288,0.021-0.536,0.064L26.281,54.723z"/>
<path fill="#C9C9C9" d="M42.443,52.599h1.999l0.292-0.35l0.447,0.414c0.016,0.018,0.024,0.036,0.024,0.058
	c0,0.064-0.033,0.098-0.098,0.098h-0.983v1.869h0.317l0.317-0.342l0.455,0.414c0.017,0.016,0.024,0.034,0.024,0.058
	c0,0.064-0.032,0.098-0.098,0.098h-1.016v2.177l1.178-0.397l0.065,0.122l-2.097,1.049c-0.114,0.059-0.295,0.176-0.544,0.349
	l-0.35-0.536l1.275-0.432v-2.331h-0.479c-0.108,0-0.288,0.021-0.536,0.064l-0.13-0.292h1.146v-1.869H43.11
	c-0.108,0-0.288,0.021-0.537,0.064L42.443,52.599z M45.718,51.989l0.577,0.324c0.038,0.021,0.057,0.041,0.057,0.058
	c0,0.016-0.019,0.032-0.057,0.048c-0.055,0.032-0.101,0.09-0.139,0.172c-0.119,0.28-0.238,0.536-0.357,0.764h1.024v-1.739
	l0.642,0.21c0.038,0.012,0.057,0.024,0.057,0.042c0,0.016-0.016,0.032-0.048,0.05l-0.171,0.138v1.3h0.951l0.35-0.439l0.577,0.529
	c0.017,0.026,0.025,0.052,0.025,0.072c0,0.044-0.019,0.065-0.058,0.065h-1.844v1.487h1.203l0.35-0.439l0.568,0.495
	c0.027,0.022,0.041,0.048,0.041,0.074c0,0.064-0.032,0.098-0.097,0.098h-1.78c0.185,0.731,0.461,1.313,0.829,1.747
	c0.374,0.422,0.807,0.718,1.3,0.886v0.13c-0.168,0-0.333,0.006-0.496,0.016c-0.206,0.032-0.357,0.09-0.456,0.172
	c-0.357-0.342-0.661-0.797-0.91-1.365c-0.223-0.499-0.369-1.027-0.439-1.585h-0.114v3.616c0,0.065-0.063,0.116-0.187,0.153
	c-0.103,0.022-0.2,0.032-0.292,0.032v-3.388c-0.325,0.634-0.683,1.161-1.073,1.585c-0.482,0.558-1.086,1.043-1.812,1.453
	l-0.065-0.088c1.197-0.943,2.066-2.064,2.608-3.364H45.75c-0.108,0-0.29,0.021-0.544,0.064l-0.123-0.292h1.739v-1.487h-1.146
	c-0.173,0.313-0.341,0.569-0.504,0.764l-0.09-0.065C45.306,53.794,45.518,53.03,45.718,51.989z"/>
<path fill="#C9C9C9" d="M52.033,53.33c0.461,0.223,0.767,0.408,0.918,0.562c0.151,0.15,0.228,0.292,0.228,0.422
	c0,0.108-0.039,0.214-0.114,0.316c-0.075,0.104-0.144,0.155-0.203,0.155c-0.039,0-0.076-0.052-0.114-0.155
	c-0.163-0.492-0.422-0.896-0.78-1.21L52.033,53.33z M54.162,53.005l0.098,0.033l-1.016,3.16c-0.086,0.314-0.13,0.606-0.13,0.878
	l0.13,1.455c0,0.168-0.077,0.252-0.228,0.252c-0.076,0-0.179-0.038-0.309-0.114c-0.13-0.113-0.195-0.233-0.195-0.357
	c0-0.076,0.035-0.298,0.106-0.666c0.054-0.212,0.081-0.409,0.081-0.594c0-0.243-0.116-0.403-0.35-0.479L52,56.5v-0.123h0.52
	c0.163,0,0.293-0.124,0.391-0.374L54.162,53.005z M52.61,51.835c0.444,0.194,0.74,0.356,0.886,0.488
	c0.146,0.13,0.22,0.25,0.22,0.365c0,0.108-0.036,0.214-0.106,0.316c-0.082,0.109-0.152,0.163-0.211,0.163
	c-0.032,0-0.067-0.048-0.105-0.146c-0.158-0.445-0.407-0.808-0.748-1.091L52.61,51.835z M54.674,52.631l0.594,0.277
	c0.048,0.015,0.072,0.03,0.072,0.04c0,0.026-0.016,0.051-0.049,0.074L55.146,53.2v5.615c0,0.075-0.046,0.136-0.139,0.178
	c-0.119,0.056-0.23,0.082-0.333,0.082V52.631z M55.243,51.64c0.677,0.375,1.016,0.661,1.016,0.861c0,0.092-0.04,0.193-0.122,0.302
	c-0.092,0.118-0.179,0.178-0.26,0.178c-0.082,0-0.125-0.054-0.13-0.162c-0.061-0.417-0.26-0.789-0.602-1.113L55.243,51.64z
	 M55.657,53.769h1.869l0.284-0.349l0.447,0.414c0.021,0.018,0.032,0.038,0.032,0.064c0,0.065-0.032,0.098-0.097,0.098H57.08v1.301
	h0.382l0.284-0.35l0.454,0.414c0.017,0.018,0.025,0.036,0.025,0.058c0,0.064-0.032,0.098-0.098,0.098H57.08v1.552h0.479l0.285-0.35
	l0.446,0.423c0.021,0.017,0.032,0.036,0.032,0.057c0,0.065-0.032,0.098-0.097,0.098h-2.064c-0.108,0-0.287,0.021-0.536,0.064
	l-0.13-0.292h1.113v-1.552h-0.252c-0.109,0-0.291,0.021-0.545,0.064l-0.122-0.284h0.919v-1.301h-0.285
	c-0.108,0-0.29,0.02-0.544,0.058L55.657,53.769z M58.827,51.965l0.503,0.366c0.049,0.032,0.073,0.067,0.073,0.105
	c0,0.026-0.041,0.063-0.122,0.104c-0.113,0.056-0.171,0.136-0.171,0.244v5.559c0,0.212-0.049,0.357-0.146,0.439
	c-0.091,0.098-0.328,0.184-0.706,0.26c-0.061-0.189-0.145-0.32-0.252-0.39c-0.087-0.07-0.33-0.174-0.731-0.31v-0.097
	c0.487,0.108,0.826,0.162,1.016,0.162c0.233-0.012,0.35-0.065,0.35-0.162v-5.746h-1.463c-0.103,0-0.252,0.023-0.446,0.065
	l-0.188-0.285h1.999L58.827,51.965z"/>
<path fill="#C9C9C9" d="M69.88,52.306h4.762l0.35-0.438l0.568,0.494c0.022,0.018,0.033,0.04,0.033,0.073
	c0,0.064-0.033,0.099-0.098,0.099h-2.608c-0.027,0.779-0.076,1.457-0.146,2.03h2.251l0.382-0.512l0.594,0.554
	c0.026,0.021,0.04,0.048,0.04,0.08c0,0.064-0.043,0.098-0.13,0.098h-2.819c0.2,0.792,0.431,1.407,0.69,1.845
	c0.227,0.4,0.544,0.724,0.95,0.968c0.521,0.33,1.073,0.558,1.658,0.682V58.4c-0.179,0.006-0.333,0.034-0.463,0.09
	c-0.087,0.048-0.198,0.156-0.334,0.324c-0.59-0.26-1.091-0.59-1.503-0.99c-0.292-0.26-0.548-0.655-0.764-1.187
	c-0.146-0.33-0.314-0.948-0.504-1.854h-0.072c-0.136,1.1-0.336,1.831-0.602,2.193c-0.596,0.891-1.564,1.513-2.901,1.87l-0.065-0.13
	c1.104-0.493,1.877-1.035,2.316-1.625c0.367-0.369,0.628-1.139,0.78-2.309h-2.234c-0.108,0-0.29,0.022-0.545,0.064l-0.121-0.284
	h2.925c0.065-0.596,0.105-1.271,0.121-2.03h-1.844c-0.108,0-0.288,0.018-0.536,0.056L69.88,52.306z"/>
<path fill="#C9C9C9" d="M84.861,52.754l0.674,0.617c0.017,0.026,0.024,0.054,0.024,0.082c0,0.042-0.022,0.064-0.064,0.064h-2.788
	c0.054,1.029,0.176,1.885,0.366,2.566c0.075,0.245,0.162,0.47,0.26,0.676c0.341-0.634,0.605-1.546,0.797-2.739l0.616,0.398
	c0.055,0.027,0.082,0.054,0.082,0.082c0,0.021-0.027,0.036-0.082,0.048c-0.097,0.06-0.181,0.195-0.252,0.407
	c-0.275,0.996-0.582,1.743-0.918,2.241c0.152,0.245,0.316,0.451,0.496,0.619c0.39,0.374,0.664,0.56,0.821,0.56
	c0.141,0,0.237-0.124,0.292-0.373l0.211-1.058l0.099,0.032l-0.066,1.301c0,0.152,0.036,0.308,0.106,0.464
	c0.081,0.114,0.122,0.202,0.122,0.268c0,0.082-0.056,0.122-0.162,0.122c-0.331,0-0.773-0.206-1.325-0.617
	c-0.357-0.282-0.655-0.594-0.894-0.936c-0.022,0.029-0.044,0.052-0.065,0.075c-0.65,0.616-1.411,1.069-2.283,1.355l-0.065-0.098
	c1.062-0.596,1.787-1.165,2.178-1.705c-0.184-0.33-0.321-0.684-0.414-1.058c-0.174-0.573-0.304-1.451-0.391-2.632h-2.291v1.398
	h1.235l0.22-0.285l0.431,0.325c0.054,0.032,0.081,0.07,0.081,0.112c0,0.018-0.038,0.044-0.115,0.082
	c-0.075,0.044-0.112,0.082-0.112,0.114l-0.073,2.063c-0.005,0.336-0.079,0.583-0.22,0.741c-0.13,0.168-0.391,0.3-0.78,0.397
	c-0.038-0.174-0.113-0.308-0.228-0.407c-0.108-0.086-0.309-0.172-0.601-0.26l0.032-0.09c0.46,0.104,0.744,0.155,0.854,0.155
	c0.168,0,0.275-0.042,0.324-0.13c0.092-0.092,0.139-0.233,0.139-0.422l0.113-2.179h-1.3c-0.006,1.544-0.233,2.579-0.682,3.104
	c-0.186,0.266-0.457,0.532-0.813,0.804l-0.065-0.098c0.445-0.519,0.748-1.094,0.911-1.722c0.112-0.375,0.17-1.081,0.17-2.122v-2.062
	l0.521,0.259h2.234c-0.038-0.524-0.068-1.098-0.089-1.714l0.706,0.202c0.06,0.012,0.09,0.026,0.09,0.05
	c0,0.038-0.052,0.074-0.154,0.112c-0.065,0.038-0.098,0.107-0.098,0.204c0,0.405,0.008,0.787,0.024,1.146h1.747L84.861,52.754z
	 M83.244,51.9c0.509,0.124,0.83,0.235,0.966,0.332c0.146,0.088,0.226,0.209,0.236,0.367c0,0.313-0.063,0.472-0.187,0.472
	c-0.038,0-0.078-0.042-0.122-0.122c-0.163-0.315-0.472-0.623-0.927-0.927L83.244,51.9z"/>
</svg>
