<?xml version="1.0" encoding="utf-8"?>
<!-- Generator: Adobe Illustrator 16.0.0, SVG Export Plug-In . SVG Version: 6.00 Build 0)  -->
<!DOCTYPE svg PUBLIC "-//W3C//DTD SVG 1.1//EN" "http://www.w3.org/Graphics/SVG/1.1/DTD/svg11.dtd">
<svg version="1.1" id="图层_1" xmlns="http://www.w3.org/2000/svg" xmlns:xlink="http://www.w3.org/1999/xlink" x="0px" y="0px"
	 width="36px" height="36px" viewBox="0 0 36 36" enable-background="new 0 0 36 36" xml:space="preserve">
<g>
	<g transform="scale(0.1953125, 0.1953125)">
		<path fill="#515151" d="M154.505,81.932c3.57-2.367,3.67-4.182,3.67-7.337c0-4.277,0-22.005,0-22.005
			c0-6.077-4.93-10.997-11.005-10.997H37.142c-6.075,0-11.002,4.92-11.002,10.997c0,0,0,20.257,0,22.005
			c0,3.287,0.23,5.485,3.667,7.337C34.82,84.267,40.81,88.982,40.81,96.6c0,9.895-6.215,13.115-10.785,14.65
			c-3.212,2.025-3.885,5.33-3.885,7.36c0,1.745,0,21.995,0,21.995c0,6.09,4.927,11.015,11.002,11.015H147.17
			c6.075,0,11.005-4.925,11.005-11.015c0,0,0-14.66,0-21.995c0-4.005-0.92-5.275-3.67-7.335c-8.01-4.125-11.005-7.805-11.005-14.675
			C143.5,89.74,146.305,86.32,154.505,81.932z M150.835,117.255v19.695c0,4.045-3.285,7.335-7.335,7.335H40.81
			c-4.047,0-7.335-3.29-7.335-7.335v-19.695c8.527-3.025,14.672-11.085,14.672-20.655c0-9.567-6.145-17.622-14.672-20.655V56.257
			c0-4.05,3.287-7.335,7.335-7.335H143.5c4.05,0,7.335,3.285,7.335,7.335v19.687c-8.525,3.032-14.67,11.087-14.67,20.655
			C136.165,106.17,142.31,114.23,150.835,117.255z M112.33,89.267H98.485L113.51,73.12c0.65-0.71,0.65-1.865,0-2.572l-2.35-2.58
			c-0.65-0.707-1.705-0.707-2.35,0l-16.67,17.91l-16.672-17.91c-0.647-0.707-1.695-0.707-2.337,0l-2.33,2.55
			c-0.647,0.707-0.647,1.852,0,2.552l15.07,16.197H71.987c-1.012,0-1.835,0.822-1.835,1.832v3.67c0,1.01,0.823,1.83,1.835,1.83
			H88.49v7.34H71.987c-1.012,0-1.835,0.825-1.835,1.83v3.665c0,1.02,0.823,1.84,1.835,1.84H88.49v12.835
			c0,1.015,0.82,1.835,1.835,1.835h3.67c1.01,0,1.83-0.82,1.83-1.835v-12.835h16.505c1.015,0,1.83-0.82,1.83-1.84v-3.665
			c0-1.005-0.815-1.83-1.83-1.83H95.825V96.6h16.505c1.015,0,1.83-0.82,1.83-1.83V91.1C114.16,90.09,113.345,89.267,112.33,89.267z"
			/>
	</g>
</g>
</svg>
