<?xml version="1.0" encoding="utf-8"?>
<!-- Generator: Adobe Illustrator 16.0.0, SVG Export Plug-In . SVG Version: 6.00 Build 0)  -->
<!DOCTYPE svg PUBLIC "-//W3C//DTD SVG 1.1//EN" "http://www.w3.org/Graphics/SVG/1.1/DTD/svg11.dtd">
<svg version="1.1" id="图层_1" xmlns="http://www.w3.org/2000/svg" xmlns:xlink="http://www.w3.org/1999/xlink" x="0px" y="0px"
	 width="36px" height="36px" viewBox="0 0 36 36" enable-background="new 0 0 36 36" xml:space="preserve">
<g>
	<g transform="scale(0.1953125, 0.1953125)">
		<path fill="#515151" d="M151.345,64.877h-31.47c1.89-2.518,3.145-5.972,3.145-9.44c0-8.81-6.92-15.732-15.73-15.732
			c-5.03,0-9.76,2.517-12.587,6.29c-2.84-3.772-7.557-6.29-12.592-6.29c-8.817,0-15.737,6.922-15.737,15.732
			c0,3.467,1.26,6.922,3.15,9.44H38.05c-3.462,0-6.295,2.837-6.295,6.295V96.35h6.295V153c0,3.455,2.83,6.29,6.29,6.29h47.207h6.297
			h47.21c3.46,0,6.29-2.835,6.29-6.29V96.35h6.29V71.172C157.635,67.715,154.815,64.877,151.345,64.877z M91.547,153H44.34V96.35
			h47.207V153z M91.547,90.057H38.05V71.172h44.06h9.437V90.057z M91.547,64.877H82.11c-5.35,0-9.442-4.085-9.442-9.44
			c0-5.342,4.092-9.442,9.442-9.442c5.35,0,9.437,4.1,9.437,9.442V64.877z M97.845,55.437c0-5.342,4.09-9.442,9.445-9.442
			c5.35,0,9.43,4.1,9.43,9.442c0,5.355-4.08,9.44-9.43,9.44h-9.445V55.437z M145.055,153h-47.21V96.35h47.21V153z M151.345,90.057
			h-53.5V71.172h9.445h44.055V90.057z"/>
	</g>
</g>
</svg>
