<?xml version="1.0" encoding="utf-8"?>
<!-- Generator: Adobe Illustrator 16.0.0, SVG Export Plug-In . SVG Version: 6.00 Build 0)  -->
<!DOCTYPE svg PUBLIC "-//W3C//DTD SVG 1.1//EN" "http://www.w3.org/Graphics/SVG/1.1/DTD/svg11.dtd">
<svg version="1.1" id="图层_1" xmlns="http://www.w3.org/2000/svg" xmlns:xlink="http://www.w3.org/1999/xlink" x="0px" y="0px"
	 width="36px" height="36px" viewBox="0 0 36 36" enable-background="new 0 0 36 36" xml:space="preserve">
<g>
	<g transform="scale(0.1953125, 0.1953125)">
		<path fill="#515151" d="M90.182,151.945c-7.292,0-11.735-1.825-12-1.935c-0.85-0.355-1.42-1.17-1.465-2.095
			c-0.048-0.94-0.088-1.89-0.132-2.835c-0.08-1.82-0.163-3.715-0.278-5.56c-0.07-1.095-0.135-1.12-0.377-1.25
			c-0.89-0.46-1.923-0.8-3.02-1.165c-0.942-0.315-1.922-0.64-2.885-1.07c-0.595-0.26-1.147-0.555-1.677-0.845
			c-0.613-0.33-1.19-0.64-1.72-0.84c-0.595-0.22-1.392,0.425-2.842,1.855c-0.357,0.355-0.725,0.72-1.1,1.05l-3.765,3.31
			c-0.783,0.7-1.923,0.8-2.817,0.26c-12.392-7.435-16.257-16.67-16.417-17.05c-0.35-0.86-0.175-1.835,0.445-2.52l3.615-3.99
			c0.295-0.32,0.595-0.645,0.887-0.955c0.563-0.605,1.095-1.18,1.587-1.77c0.017-0.09,0.065-0.565-0.412-1.655
			c-0.185-0.42-0.382-0.845-0.592-1.285c-0.303-0.65-0.62-1.32-0.905-2.02c-0.3-0.735-0.515-1.505-0.72-2.25
			c-0.465-1.68-0.825-2.795-1.5-3.005c-2.037-0.62-4.232-0.68-6.557-0.74c-0.905-0.03-1.847-0.05-2.79-0.11
			c-1.042-0.07-1.922-0.8-2.175-1.81c-3.505-14.022,0.288-23.28,0.45-23.665c0.36-0.855,1.172-1.423,2.092-1.467l9.84-0.485
			c1.065-3.36,2.492-6.597,4.252-9.662l-6.74-7.65c-0.692-0.783-0.797-1.925-0.257-2.82C47.64,43.522,56.87,39.66,57.26,39.497
			c0.852-0.345,1.832-0.173,2.512,0.445l7.765,7.042c2.73-1.385,5.627-2.527,8.657-3.4l0.522-10.655
			c0.045-0.925,0.615-1.738,1.465-2.095c0.387-0.162,9.645-3.96,23.667-0.45c1.01,0.247,1.745,1.13,1.81,2.17l0.71,11.215
			c3.065,0.93,6.02,2.152,8.825,3.652l8.25-7.48c0.68-0.618,1.66-0.79,2.515-0.445c0.38,0.163,9.62,4.025,17.05,16.417
			c0.54,0.895,0.435,2.037-0.255,2.82l-7.51,8.532c1.52,2.787,2.775,5.707,3.73,8.717l11.125,0.548
			c0.925,0.045,1.735,0.613,2.105,1.467c0.16,0.385,3.95,9.642,0.45,23.665c-0.255,1.01-1.135,1.74-2.185,1.81l-10.985,0.695
			c-0.885,3.215-2.075,6.29-3.55,9.19l7.145,7.895c0.625,0.685,0.8,1.66,0.455,2.52c-0.06,0.14-0.6,1.43-1.865,3.395
			c-0.725,1.115-2.2,1.44-3.32,0.72c-1.11-0.72-1.435-2.205-0.715-3.32c0.325-0.49,0.585-0.935,0.795-1.31l-7.18-7.925
			c-0.69-0.76-0.82-1.88-0.325-2.78c1.925-3.455,3.385-7.23,4.34-11.225c0.245-1.02,1.135-1.765,2.185-1.84l10.935-0.69
			c1.82-8.622,0.595-14.907-0.155-17.557l-11.185-0.548c-1.025-0.053-1.91-0.755-2.195-1.75c-1.045-3.757-2.595-7.37-4.605-10.747
			c-0.53-0.895-0.425-2.033,0.26-2.813l7.47-8.477c-4.81-7.39-10.13-10.962-12.525-12.307l-8.31,7.532
			c-0.77,0.698-1.91,0.823-2.815,0.295c-3.38-1.967-7.035-3.48-10.855-4.503c-1-0.265-1.715-1.137-1.78-2.162l-0.705-11.12
			c-8.557-1.798-14.89-0.57-17.555,0.17l-0.527,10.752c-0.053,1.05-0.79,1.95-1.813,2.205c-3.835,0.963-7.45,2.383-10.745,4.217
			c-0.9,0.505-2.015,0.378-2.775-0.318l-7.795-7.062c-2.407,1.363-7.755,4.967-12.535,12.3l6.72,7.625
			c0.702,0.795,0.797,1.957,0.232,2.855c-2.257,3.615-3.977,7.522-5.115,11.615c-0.278,1-1.16,1.702-2.192,1.755l-9.887,0.485
			c-0.74,2.662-1.967,8.98-0.175,17.522c0.272,0.005,0.552,0.015,0.835,0.015c2.545,0.07,5.177,0.14,7.845,0.96
			c3.235,0.995,4.087,4.065,4.707,6.31c0.18,0.635,0.347,1.245,0.54,1.715c0.24,0.59,0.515,1.175,0.805,1.79
			c0.215,0.455,0.435,0.92,0.645,1.4c1.497,3.41,0.68,5.485-0.265,6.63c-0.588,0.7-1.202,1.365-1.795,2
			c-0.292,0.31-0.567,0.6-0.84,0.91l-2.507,2.765c1.362,2.4,4.97,7.75,12.3,12.53l2.42-2.14c0.272-0.23,0.577-0.54,0.9-0.86
			c1.615-1.59,4.315-4.255,7.877-2.94c0.85,0.315,1.605,0.72,2.337,1.12c0.47,0.255,0.917,0.495,1.338,0.68
			c0.755,0.335,1.582,0.61,2.457,0.9c1.225,0.405,2.485,0.825,3.707,1.455c2.722,1.41,2.88,3.885,2.965,5.22
			c0.118,1.885,0.202,3.795,0.285,5.645c0.018,0.395,0.035,0.775,0.053,1.165c2.662,0.74,8.995,1.965,17.552,0.165l0.64-10.07
			c0.065-1.035,0.78-1.905,1.78-2.17c4.29-1.135,8.36-2.9,12.11-5.235c0.9-0.57,2.06-0.47,2.85,0.23l7.755,6.835
			c0.155-0.1,0.31-0.2,0.455-0.305c0.725-0.53,5.065-3.26,12.94-3.4c0.02,0,0.035,0,0.045,0c1.305,0,2.38,1.045,2.4,2.355
			c0.025,1.325-1.03,2.415-2.35,2.44c-6.7,0.13-10.15,2.45-10.195,2.48c-0.04,0.03-0.085,0.06-0.12,0.085
			c-0.7,0.47-1.43,0.93-2.18,1.38c-0.895,0.54-2.03,0.44-2.815-0.26l-7.785-6.85c-3.225,1.85-6.645,3.33-10.21,4.41l-0.645,10.165
			c-0.065,1.04-0.8,1.925-1.81,2.18C97.45,151.565,93.517,151.945,90.182,151.945z M90.605,120.365
			c-7.995,0-15.512-3.115-21.165-8.775c-5.66-5.65-8.772-13.17-8.772-21.17c0-7.995,3.112-15.515,8.772-21.165
			c5.652-5.657,13.17-8.775,21.165-8.775c8,0,15.52,3.117,21.18,8.775c5.65,5.65,8.765,13.17,8.765,21.165
			c0,8-3.115,15.52-8.765,21.17C106.125,117.25,98.605,120.365,90.605,120.365z M90.605,65.282
			c-13.86,0-25.142,11.277-25.142,25.137c0,13.865,11.282,25.145,25.142,25.145c13.865,0,25.15-11.28,25.15-25.145
			C115.755,76.56,104.47,65.282,90.605,65.282z"/>
	</g>
</g>
</svg>
