<?xml version="1.0" encoding="utf-8"?>
<!-- Generator: Adobe Illustrator 17.0.0, SVG Export Plug-In . SVG Version: 6.00 Build 0)  -->
<!DOCTYPE svg PUBLIC "-//W3C//DTD SVG 1.1//EN" "http://www.w3.org/Graphics/SVG/1.1/DTD/svg11.dtd">
<svg version="1.1" id="图层_1" xmlns="http://www.w3.org/2000/svg" xmlns:xlink="http://www.w3.org/1999/xlink" x="0px" y="0px"
	 width="36px" height="36px" viewBox="0 0 36 36" enable-background="new 0 0 36 36" xml:space="preserve">
<g>
	<path fill-rule="evenodd" clip-rule="evenodd" fill="#666666" stroke="#FFFFFF" stroke-width="0.25" stroke-miterlimit="10" d="
		M7.101,7.926h9.223c0.938,0.091,0.712,1.719,0.712,2.777v5.035c0,1.094,0.209,2.436-0.526,2.746
		c-0.479,0.202-1.764,0.061-2.383,0.061h-4.89c-1.13,0-2.674,0.266-2.847-0.702V8.628C6.515,8.285,6.738,8.036,7.101,7.926
		L7.101,7.926L7.101,7.926 M8.37,10.001v6.56h6.654V9.909H8.401C8.364,9.914,8.367,9.958,8.37,10.001L8.37,10.001L8.37,10.001
		 M19.48,7.926h9.223c0.376,0.138,0.635,0.391,0.712,0.824v8.971c-0.084,0.373-0.282,0.691-0.65,0.793
		c-0.601,0.167-1.601,0.031-2.321,0.031h-4.735c-0.714,0-1.772,0.148-2.352-0.031c-0.818-0.252-0.588-1.827-0.588-2.929v-4.699
		C18.768,9.614,18.485,8.104,19.48,7.926L19.48,7.926L19.48,7.926 M20.749,10.001v6.56h6.654V9.909H20.78
		C20.744,9.914,20.746,9.958,20.749,10.001L20.749,10.001L20.749,10.001 M11.402,11.923c0.927-0.172,1.655,0.445,1.671,1.281
		c0.021,1.103-1.122,1.71-2.012,1.251C10.044,13.932,10.111,12.164,11.402,11.923L11.402,11.923L11.402,11.923 M23.782,11.923
		c2.183-0.402,2.141,3.006,0,2.655C22.419,14.354,22.375,12.182,23.782,11.923L23.782,11.923L23.782,11.923 M16.262,30.933h-9.13
		c-0.379-0.115-0.635-0.35-0.743-0.732v-9.185c0.09-0.269,0.298-0.582,0.619-0.671c0.606-0.168,1.595-0.031,2.321-0.031h4.735
		c0.7,0,1.718-0.154,2.352,0.031c0.858,0.249,0.619,1.799,0.619,2.899v4.852C17.035,29.282,17.294,30.827,16.262,30.933
		L16.262,30.933L16.262,30.933 M8.37,22.389v6.561h6.654v-6.652H8.401C8.364,22.303,8.367,22.346,8.37,22.389L8.37,22.389
		L8.37,22.389 M29.414,21.138v2.563c-0.072,0.865-0.01,1.861-0.031,2.777h-6.592v-1.495c-0.619-0.071-1.372-0.01-2.042-0.031
		c-0.072,1.933-0.01,3.997-0.031,5.981h-1.207c-1.038-0.205-0.743-1.74-0.743-2.96v-4.73c0-0.711-0.146-1.777,0.031-2.35
		c0.211-0.683,1.127-0.58,2.043-0.58h4.487v4.058h2.074c0.02-1.343-0.041-2.767,0.031-4.058
		C28.431,20.256,29.356,20.271,29.414,21.138L29.414,21.138L29.414,21.138 M11.557,24.281c0.99-0.108,1.807,0.83,1.424,1.862
		c-0.532,1.43-3.076,0.892-2.6-0.915C10.513,24.728,10.893,24.354,11.557,24.281L11.557,24.281L11.557,24.281 M25.02,30.933h-2.228
		c0.021-0.783-0.041-1.648,0.031-2.38h2.197V30.933L25.02,30.933L25.02,30.933 M29.414,28.553v1.556
		c-0.086,0.434-0.343,0.699-0.743,0.824h-1.578c0.021-0.783-0.041-1.648,0.031-2.38L29.414,28.553L29.414,28.553L29.414,28.553
		 M29.414,28.553L29.414,28.553z"/>
</g>
</svg>
