<?xml version="1.0" encoding="utf-8"?>
<!-- Generator: Adobe Illustrator 16.0.0, SVG Export Plug-In . SVG Version: 6.00 Build 0)  -->
<!DOCTYPE svg PUBLIC "-//W3C//DTD SVG 1.1//EN" "http://www.w3.org/Graphics/SVG/1.1/DTD/svg11.dtd">
<svg version="1.1" id="图层_1" xmlns="http://www.w3.org/2000/svg" xmlns:xlink="http://www.w3.org/1999/xlink" x="0px" y="0px"
	 width="30px" height="53px" viewBox="0 0 30 53" enable-background="new 0 0 30 53" xml:space="preserve">
<path fill="#A83049" d="M10.249,15.061l2.805-0.057c0.368-0.008,0.697-0.248,0.818-0.6l0.936-2.692
	c0.029-0.081,0.105-0.137,0.191-0.137s0.162,0.055,0.19,0.137l0.936,2.692c0.123,0.352,0.452,0.592,0.819,0.6l2.807,0.057
	c0.086,0.002,0.162,0.059,0.188,0.142s-0.003,0.174-0.072,0.227l-2.228,1.692c-0.299,0.226-0.426,0.621-0.317,0.981l0.816,2.7
	c0.026,0.083-0.004,0.172-0.073,0.225c-0.035,0.026-0.077,0.039-0.119,0.039c-0.041,0-0.08-0.012-0.115-0.037l-2.328-1.622
	c-0.148-0.104-0.322-0.158-0.503-0.158s-0.354,0.055-0.503,0.158l-2.327,1.622c-0.035,0.023-0.075,0.036-0.115,0.036
	c-0.042,0-0.084-0.014-0.119-0.04c-0.069-0.051-0.099-0.142-0.073-0.225l0.816-2.697c0.109-0.36-0.019-0.755-0.315-0.981
	l-2.23-1.694c-0.069-0.052-0.098-0.143-0.071-0.226S10.164,15.063,10.249,15.061z"/>
<path fill="#A83049" d="M2.333,2.295h18.575c4.284,0,7.769,3.494,7.769,7.79v39.597c0,0.563-0.453,1.022-1.009,1.022H27.48
	c-0.226,0-0.447-0.078-0.624-0.221l-11.732-9.377c-0.036-0.029-0.082-0.044-0.125-0.044c-0.044,0-0.089,0.015-0.125,0.044
	L3.149,50.483c-0.178,0.143-0.4,0.221-0.626,0.221H2.333c-0.556,0-1.009-0.458-1.009-1.021V3.316
	C1.324,2.753,1.777,2.295,2.333,2.295z"/>
<path fill="#A83049" d="M6.541,14.945l4.146,3.149c0.067,0.051,0.097,0.141,0.071,0.223l-1.481,4.896
	c-0.003,0.005-0.003,0.01-0.006,0.016c-0.042,0.106-0.063,0.219-0.063,0.334c0,0.495,0.398,0.897,0.892,0.897
	c0.181,0,0.354-0.055,0.502-0.158l4.286-2.985c0.033-0.022,0.073-0.035,0.113-0.035s0.08,0.013,0.114,0.035l4.285,2.985
	c0.147,0.104,0.322,0.158,0.503,0.158c0.189,0,0.37-0.06,0.524-0.174c0.304-0.225,0.434-0.622,0.323-0.986l-1.507-4.983
	c-0.025-0.083,0.004-0.172,0.071-0.224l4.146-3.148c0.303-0.229,0.428-0.629,0.312-0.993c-0.115-0.364-0.448-0.615-0.826-0.622
	l-5.212-0.105c-0.085-0.002-0.159-0.056-0.188-0.137L15.836,8.16c-0.125-0.359-0.462-0.601-0.838-0.601
	c-0.375,0-0.712,0.241-0.837,0.6l-1.713,4.928c-0.027,0.08-0.102,0.134-0.186,0.136l-5.208,0.106
	c-0.378,0.008-0.71,0.258-0.827,0.622C6.112,14.317,6.237,14.717,6.541,14.945z"/>
<g>
	<path fill="#FFFFFF" d="M7.423,12.646c0.392,0.529,0.763,1.089,1.113,1.679l-0.599,0.299h2.03c0.356-0.556,0.679-1.239,0.968-2.05
		l1.051,0.288c-0.233,0.66-0.505,1.247-0.814,1.762h1.906v1.051H9.751v0.247c-0.021,0.46-0.069,0.906-0.145,1.34h4.068v1.051h-3.554
		c0.495,1.18,1.766,2.121,3.812,2.821l-0.638,1.021c-2.115-0.866-3.479-2.006-4.09-3.42c-0.192,0.452-0.408,0.848-0.649,1.184
		c-0.7,0.928-1.844,1.639-3.43,2.133l-0.588-0.937c1.573-0.51,2.641-1.154,3.204-1.938c0.186-0.281,0.337-0.569,0.453-0.864H4.734
		v-1.051h3.771c0.082-0.412,0.134-0.858,0.154-1.34v-0.247H5.322v-1.051h2.142c-0.343-0.584-0.687-1.085-1.029-1.504L7.423,12.646z"
		/>
	<path fill="#FFFFFF" d="M15.571,15.098c0.673,0.516,1.238,1.03,1.698,1.546l-0.761,0.762c-0.412-0.48-0.979-1.002-1.7-1.565
		L15.571,15.098z M17.569,18.415c-0.447,1.277-0.958,2.489-1.535,3.636l-1.081-0.475c0.604-1.111,1.153-2.3,1.648-3.563
		L17.569,18.415z M15.817,12.677c0.688,0.509,1.284,1.021,1.793,1.535l-0.763,0.772c-0.419-0.479-1.02-0.999-1.802-1.555
		L15.817,12.677z M17.847,14.222h2.597c-0.166-0.459-0.368-0.923-0.608-1.39l0.999-0.288c0.302,0.646,0.525,1.205,0.67,1.678h2.503
		v1.052h-2.514v2.091h2.235v1.03h-2.235v2.348h2.73v1.051H17.6v-1.051h2.813v-2.348h-2.276v-1.03h2.276v-2.091h-2.565V14.222z"/>
	<path fill="#FFFFFF" d="M4.662,27.088h2.771c0.049-0.729,0.076-1.438,0.083-2.132h1.081c0,0.638-0.023,1.349-0.071,2.132h5.295
		v1.051h-3.307v2.853c0.638-0.638,1.178-1.384,1.616-2.234l0.959,0.505c-0.674,1.291-1.532,2.352-2.575,3.182v0.495
		c0,0.268,0.112,0.402,0.339,0.402h1.484c0.144,0,0.247-0.076,0.309-0.227c0.075-0.138,0.13-0.618,0.164-1.442l1.021,0.35
		c-0.083,1.133-0.227,1.803-0.433,2.009c-0.186,0.206-0.475,0.31-0.865,0.31h-1.999c-0.734,0-1.102-0.392-1.102-1.175
		c-0.481,0.269-0.965,0.491-1.452,0.67l-0.608-0.927c0.763-0.261,1.449-0.602,2.061-1.021v-3.749h-1.01
		c-0.075,0.659-0.185,1.302-0.329,1.926c-0.405,1.786-1.377,3.27-2.916,4.45l-0.751-0.928c1.332-1.029,2.197-2.282,2.595-3.759
		c0.124-0.501,0.228-1.064,0.31-1.689H4.662V27.088z M10.822,24.925c0.756,0.46,1.377,0.91,1.864,1.35l-0.763,0.772
		c-0.433-0.446-1.04-0.921-1.822-1.422L10.822,24.925z"/>
	<path fill="#FFFFFF" d="M15.015,28.653h3.944v-3.708h1.093v3.708h3.944v1.04h-3.172c0.707,1.161,1.882,2.205,3.522,3.132
		l-0.772,0.968c-1.628-1.174-2.802-2.482-3.522-3.924v4.646h-1.093v-4.636c-0.776,1.587-1.988,2.902-3.636,3.945l-0.629-1.009
		c1.573-0.824,2.734-1.864,3.482-3.122h-3.162V28.653z M16.858,25.729c0.446,0.652,0.838,1.359,1.174,2.122l-0.958,0.432
		c-0.378-0.844-0.79-1.582-1.236-2.214L16.858,25.729z M23.245,26.017c-0.351,0.811-0.814,1.601-1.392,2.369l-0.968-0.505
		c0.569-0.783,1.023-1.565,1.359-2.349L23.245,26.017z"/>
</g>
</svg>
