<?xml version="1.0" encoding="utf-8"?>
<!-- Generator: Adobe Illustrator 17.0.0, SVG Export Plug-In . SVG Version: 6.00 Build 0)  -->
<!DOCTYPE svg PUBLIC "-//W3C//DTD SVG 1.1//EN" "http://www.w3.org/Graphics/SVG/1.1/DTD/svg11.dtd">
<svg version="1.1" id="图层_1" xmlns="http://www.w3.org/2000/svg" xmlns:xlink="http://www.w3.org/1999/xlink" x="0px" y="0px"
	 width="33.708px" height="34.003px" viewBox="0 0 33.708 34.003" enable-background="new 0 0 33.708 34.003" xml:space="preserve">
<path opacity="0.7" d="M16.75,1.335C8.065,1.335,1,8.4,1,17.085c0,8.685,7.065,15.75,15.75,15.75S32.5,25.77,32.5,17.085
	C32.5,8.4,25.435,1.335,16.75,1.335z"/>
<g>
	<g transform="scale(0.1953125, 0.1953125)">
		<path fill="#FFFFFF" d="M136.525,94.196c1.511,0,2.737-1.229,2.737-2.74V55.951c0-2.194-0.686-4.225-1.844-5.904
			c-0.048-0.076-0.059-0.164-0.113-0.237c-0.091-0.118-0.215-0.183-0.319-0.285c-1.907-2.409-4.822-3.982-8.132-3.982H42.665
			c-5.751,0-10.408,4.657-10.408,10.408v63.054c0,5.751,4.657,10.405,10.408,10.405h86.19c5.751,0,10.408-4.654,10.408-10.405
			v-8.672c-0.009-1.506-1.228-2.725-2.737-2.725c-1.508,0-2.734,1.22-2.74,2.725v8.125c0,3.027-2.457,5.48-5.48,5.48H43.212
			c-3.023,0-5.48-2.452-5.48-5.48V56.499c0-0.3,0.043-0.585,0.088-0.874l47.885,39.059c0.003,0,0.008,0.003,0.011,0.006
			c0.428,0.318,0.912,0.454,1.403,0.508c0.141,0.026,0.28,0.017,0.424,0.02c0.141-0.003,0.28,0.005,0.42-0.02
			c0.494-0.053,0.979-0.189,1.403-0.508c0.003-0.004,0.009-0.006,0.012-0.006l44.365-38.584c0.009,0.133,0.04,0.262,0.04,0.398
			v34.957C133.786,92.967,135.011,94.196,136.525,94.196L136.525,94.196L136.525,94.196z M43.212,51.019h85.094
			c0.721,0,1.407,0.148,2.04,0.402L87.544,88.824L41.653,51.273C42.15,51.124,42.667,51.019,43.212,51.019L43.212,51.019
			L43.212,51.019z"/>
	</g>
</g>
</svg>
