<?xml version="1.0" encoding="utf-8"?>
<!-- Generator: Adobe Illustrator 17.0.0, SVG Export Plug-In . SVG Version: 6.00 Build 0)  -->
<!DOCTYPE svg PUBLIC "-//W3C//DTD SVG 1.1//EN" "http://www.w3.org/Graphics/SVG/1.1/DTD/svg11.dtd">
<svg version="1.1" id="图层_1" xmlns="http://www.w3.org/2000/svg" xmlns:xlink="http://www.w3.org/1999/xlink" x="0px" y="0px"
	 width="200px" height="200px" viewBox="0 0 200 200" enable-background="new 0 0 200 200" xml:space="preserve">
<g>
	<g transform="scale(0.1953125, 0.1953125)">
		<path fill="#FF4800" d="M511.999,1023.997C229.759,1023.997,0,794.238,0,511.999S229.695,0,511.999,0
			s511.999,229.759,511.999,511.999S794.238,1023.997,511.999,1023.997z M511.999,48.768
			c-255.487,0-463.231,207.807-463.231,463.231s207.743,463.231,463.231,463.231s463.231-207.807,463.231-463.231
			S767.422,48.768,511.999,48.768z M438.975,695.486l-178.24-178.24l34.56-34.432l143.68,143.744L731.07,334.655l34.432,34.432
			L438.975,695.486z"/>
	</g>
</g>
</svg>
