<?xml version="1.0" encoding="utf-8"?>
<!-- Generator: Adobe Illustrator 16.0.0, SVG Export Plug-In . SVG Version: 6.00 Build 0)  -->
<!DOCTYPE svg PUBLIC "-//W3C//DTD SVG 1.1//EN" "http://www.w3.org/Graphics/SVG/1.1/DTD/svg11.dtd">
<svg version="1.1" id="图层_1" xmlns="http://www.w3.org/2000/svg" xmlns:xlink="http://www.w3.org/1999/xlink" x="0px" y="0px"
	 width="92px" height="131px" viewBox="0 0 92 131" enable-background="new 0 0 92 131" xml:space="preserve">
<g>
	<path fill="#CF000E" d="M16.461,111.136c0,4.792-0.022,9.235-1.123,12.667C13.921,128.228,11.135,131,8.731,131
		c-2.377,0-4.502-1.732-5.92-6.068C1.681,121.477,1,116,1,111.136c0-6.858,1.494-12.82,3.409-16.473
		c3.2-6.103,2.764,0.323,5.402,1.601c2.142,1.038,3.326-1.277,4.531,1.363C15.417,99.98,16.461,103.371,16.461,111.136z"/>
	<g>
		<path fill="#FFFFFF" d="M7.673,98.918c-0.292,0.059-0.57,0.113-0.833,0.161v1.593h0.448l0.385-0.456l0.565,0.521
			c0.024,0.018,0.036,0.042,0.036,0.071c0,0.073-0.036,0.107-0.107,0.107H6.84v0.726c0.424,0.208,0.717,0.384,0.878,0.528
			c0.179,0.168,0.269,0.319,0.269,0.458c0,0.103-0.036,0.196-0.107,0.285c-0.078,0.092-0.146,0.137-0.207,0.137
			c-0.042,0-0.086-0.055-0.134-0.162c-0.162-0.396-0.395-0.728-0.699-1.003v4.176c0,0.102-0.044,0.174-0.134,0.213
			c-0.114,0.067-0.245,0.1-0.394,0.1v-4.426c-0.156,0.424-0.302,0.766-0.439,1.021c-0.334,0.635-0.714,1.188-1.138,1.658
			l-0.072-0.072c0.418-0.661,0.717-1.233,0.896-1.71c0.161-0.371,0.353-1.014,0.573-1.928H5.505c-0.12,0-0.316,0.024-0.592,0.071
			l-0.143-0.314h1.542v-1.494c-0.514,0.095-0.992,0.174-1.435,0.232l-0.071-0.17c1.23-0.251,2.142-0.568,2.733-0.95l0.52,0.601
			c0,0.042-0.012,0.063-0.036,0.063C7.867,98.93,7.751,98.918,7.673,98.918z M8.203,99.518c0.674,0.49,1.012,0.862,1.012,1.12
			c0,0.076-0.039,0.163-0.117,0.26c-0.095,0.107-0.185,0.162-0.269,0.162c-0.065,0-0.098-0.048-0.098-0.145
			c-0.066-0.495-0.278-0.937-0.636-1.326L8.203,99.518z M11.912,98.781c-1.38,0.151-2.605,0.268-3.674,0.353l-0.072-0.181
			c1.637-0.222,2.85-0.499,3.639-0.833l0.529,0.626c0,0.048-0.013,0.072-0.036,0.072C12.124,98.794,11.996,98.781,11.912,98.781z
			 M9.851,101.613c-0.407,0.139-0.771,0.248-1.094,0.333v1.315H9.25l0.385-0.456l0.574,0.556c0.012,0.024,0.018,0.05,0.018,0.071
			c0,0.05-0.021,0.072-0.063,0.072H8.757v1.686h2.841v-1.721h-0.6c-0.144,0-0.292,0.013-0.448,0.035l-0.179-0.278h1.228v-1.362
			h-0.529c-0.161,0-0.323,0.01-0.484,0.027l-0.215-0.278h1.192l0.278-0.349l0.493,0.438c0.071,0.042,0.107,0.084,0.107,0.126
			c0,0.018-0.107,0.1-0.323,0.243v3.95c0,0.102-0.042,0.173-0.125,0.216c-0.113,0.072-0.246,0.106-0.395,0.106v-0.911H8.757v0.589
			c0,0.084-0.029,0.142-0.089,0.171c-0.138,0.077-0.281,0.117-0.431,0.117v-4.867l0.529,0.305c0.43-0.191,0.756-0.409,0.977-0.655
			l0.421,0.486c0,0.047-0.012,0.072-0.036,0.072C10.003,101.626,9.911,101.613,9.851,101.613z M9.815,99.24
			c0.556,0.513,0.833,0.906,0.833,1.182c0,0.084-0.039,0.174-0.116,0.271c-0.09,0.101-0.18,0.15-0.27,0.15
			c-0.06,0-0.092-0.044-0.098-0.134c-0.048-0.524-0.201-0.994-0.457-1.407L9.815,99.24z M11.948,99.24l0.591,0.411
			c0.072,0.049,0.108,0.084,0.108,0.109c0,0.042-0.036,0.066-0.108,0.078c-0.083,0.019-0.179,0.075-0.287,0.172
			c-0.466,0.461-0.905,0.832-1.316,1.12l-0.072-0.109C11.407,100.377,11.768,99.782,11.948,99.24z"/>
		<path fill="#FFFFFF" d="M7.118,111.052l0.636,0.356c0.042,0.024,0.063,0.044,0.063,0.063c0,0.022-0.048,0.05-0.144,0.079
			c-0.149,0.051-0.266,0.143-0.349,0.278c-0.156,0.228-0.305,0.441-0.448,0.637l0.25,0.134c0.084,0.038,0.125,0.069,0.125,0.099
			c0,0.025-0.092,0.093-0.278,0.206v3.298c0,0.095-0.05,0.167-0.152,0.216c-0.102,0.042-0.224,0.063-0.368,0.063v-3.467
			c-0.604,0.759-1.177,1.343-1.721,1.755l-0.108-0.072C5.523,113.926,6.353,112.711,7.118,111.052z M4.77,109.76h2.518v-1.363
			l0.717,0.298c0.036,0.012,0.054,0.029,0.054,0.052c0,0.02-0.081,0.086-0.242,0.208v0.806h1.541v-1.363l0.717,0.298
			c0.035,0.012,0.054,0.029,0.054,0.052c0,0.02-0.084,0.086-0.251,0.208v0.806h1.407l0.448-0.592l0.726,0.636
			c0.03,0.025,0.045,0.058,0.045,0.101c0,0.063-0.045,0.099-0.135,0.099H9.877v0.77c-0.012,0.082-0.071,0.149-0.179,0.197
			c-0.114,0.036-0.227,0.055-0.341,0.055v-1.021H7.817v0.698c-0.018,0.09-0.078,0.153-0.18,0.195
			c-0.119,0.038-0.236,0.055-0.349,0.055v-0.948H5.505c-0.12,0-0.316,0.022-0.592,0.071L4.77,109.76z M11.419,111.507l0.529,0.548
			c0.048,0.059,0.071,0.097,0.071,0.117c0,0.046-0.098,0.099-0.295,0.15c-0.287,0.072-0.574,0.206-0.86,0.403
			c-0.424,0.294-0.869,0.577-1.335,0.851v1.749c0,0.251,0.063,0.39,0.188,0.422c0.204,0.048,0.469,0.069,0.797,0.069
			c0.466,0,0.81-0.038,1.031-0.116c0.179-0.061,0.281-0.163,0.304-0.313l0.305-1.425l0.108,0.034l0.072,1.104
			c0,0.221,0.092,0.411,0.278,0.575c-0.186,0.334-0.392,0.524-0.619,0.572c-0.197,0.059-0.69,0.089-1.479,0.089
			c-0.585,0-0.995-0.032-1.228-0.1c-0.185-0.052-0.278-0.205-0.278-0.455v-1.9c-0.508,0.287-1.045,0.571-1.612,0.852l-0.072-0.145
			c0.622-0.358,1.183-0.711,1.685-1.058v-2.446l0.69,0.277c0.053,0.025,0.08,0.05,0.08,0.073c0,0.017-0.083,0.101-0.25,0.25v1.479
			C10.311,112.598,10.941,112.044,11.419,111.507z"/>
		<path fill="#FFFFFF" d="M10.863,119.338c-0.645,0.093-1.263,0.171-1.855,0.243v1.192h2.375l0.422-0.566l0.663,0.62
			c0.024,0.022,0.036,0.053,0.036,0.089c0,0.065-0.045,0.101-0.135,0.101h-3.02c0.586,0.579,1.058,0.953,1.417,1.127
			c0.483,0.282,1.18,0.51,2.087,0.691v0.105c-0.353,0.031-0.63,0.159-0.833,0.388c-0.788-0.335-1.389-0.689-1.801-1.059
			c-0.359-0.317-0.714-0.736-1.066-1.253H9.008v1.791c0,0.095-0.041,0.164-0.125,0.206c-0.113,0.071-0.248,0.105-0.403,0.105v-2.103
			H8.417c-0.447,0.626-0.953,1.139-1.514,1.54c-0.586,0.442-1.321,0.828-2.205,1.155l-0.072-0.144
			c1.434-0.721,2.479-1.574,3.137-2.552H5.684c-0.119,0-0.32,0.021-0.601,0.071l-0.134-0.314h3.53v-1.131
			c-1.104,0.132-2.132,0.241-3.083,0.325l-0.063-0.172c2.438-0.3,4.245-0.671,5.421-1.12l0.529,0.627
			c0,0.048-0.012,0.073-0.036,0.073C11.076,119.351,10.947,119.338,10.863,119.338z M6.733,122.835l0.493,0.284h2.796l0.385-0.384
			l0.546,0.448c0.03,0.03,0.045,0.053,0.045,0.072c0,0.043-0.093,0.136-0.278,0.285v3.039c0,0.065-0.018,0.124-0.054,0.17
			c-0.042,0.055-0.197,0.092-0.466,0.117v-0.6H7.252v0.349c0,0.077-0.03,0.134-0.089,0.169c-0.138,0.079-0.282,0.116-0.43,0.116
			V122.835z M7.252,124.554H10.2v-1.191H7.252V124.554z M7.252,126.024H10.2v-1.228H7.252V126.024z"/>
	</g>
</g>
<g>
	<g>
		<path d="M37.095,102.545c-4.968,17.318-18.041,21.499-18.041,21.499c14.314-1.378,20.074-17.169,21.146-19.396
			C41.411,102.132,37.792,100.68,37.095,102.545z"/>
		<path d="M52.082,105.152c-2.115-4.294-1.975-2.78-1.975-2.78c4.148,15.281,14.807,21.261,15.488,21.493
			c0.68,0.233,1.053,0.305,2.242-0.213c1.189-0.515,3.586-0.914,3.586-0.914C64.475,119.112,57.734,115.056,52.082,105.152z"/>
		<path d="M61.484,79.082c-2.676,8.611-9.355,11.264-9.355,11.264c6.631-0.813,11.73-7.557,12.564-8.981
			C66.641,78.038,62.814,74.793,61.484,79.082z"/>
		<path d="M24.148,78.929c4.25,1.949,7.524,6.22,9.408,9.936c1.581,3.111,4.674,1.446,3.054-1.688
			C32.336,78.906,24.148,78.929,24.148,78.929z"/>
		<path d="M70.449,96.744c0.676,0,0.387-1.931-1.496-2.366c-1.881-0.435-2.848,1.256-2.848,1.256H46.429V75.865
			c0-0.782-0.471-1.203-1.339-1.451c-0.848-0.242-1.83,0.018-1.83,0.464v20.756H21.545c-0.124,0.067-0.188,0.369-0.112,0.635
			c0.087,0.308,0.237,0.476,0.514,0.476h21.313v32.257c0,0,0,0.632,0,1.278c0,0.446,0.982,0.706,1.83,0.466
			c0.868-0.25,1.339-0.67,1.339-1.45V96.744H70.449z"/>
		<path d="M65.73,46.713c-1.824-0.421-2.762,1.218-2.762,1.218h-9.875c-0.119,0.065-0.182,0.358-0.107,0.615
			c0.084,0.299,0.23,0.462,0.498,0.462h13.697C67.836,49.008,67.557,47.135,65.73,46.713z"/>
		<path d="M56.605,58.312c6.426,0,11.768,0.117,13.936-3.147c0.293-0.424,0.527-0.922,0.656-1.494
			c-0.629-2.107-1.727-4.669-1.564-7.069c-0.146,1.697-1.652,5.269-2.254,6.265c-1.143,1.917-2.033,3.717-9.895,3.717
			c-6.721,0-6.721-4.772-6.721-4.772V25.55h14.125c0,0.231,0,0.529,0,0.833c0,0.44,0.971,0.698,1.807,0.458
			c0.857-0.245,1.324-0.662,1.324-1.433v-9.87c0-0.772-0.467-1.189-1.324-1.433c-0.836-0.24-1.807,0.016-1.807,0.458v0.938H50.766
			V3.201c0-0.772-0.467-1.189-1.324-1.433c-0.838-0.24-1.809,0.017-1.809,0.458v14.773c0,0,0,0.625,0,1.265
			c0,0.441,0.971,0.698,1.809,0.458c0.857-0.246,1.324-0.662,1.324-1.434v-0.708h14.123v7.892c-1.693,0-2.523,0-2.523,0H50.764
			v-0.208c0-0.776-0.469-1.186-1.316-1.435c-0.85-0.234-1.816,0.014-1.816,0.454v28.881c0,0,0,0.322,0,0.746
			c0,0.219,0.016,0.439,0.045,0.659C48.115,57.039,52.141,58.312,56.605,58.312z"/>
		<path d="M21.006,10.579h24.778c0.655,0,0.374-1.873-1.451-2.294c-1.825-0.422-2.762,1.217-2.762,1.217H20.616
			c-0.121,0.064-0.183,0.358-0.108,0.615C20.592,10.416,20.738,10.579,21.006,10.579z"/>
		<path d="M65.73,31.479c-1.824-0.421-2.762,1.218-2.762,1.218h-9.875c-0.119,0.064-0.182,0.358-0.107,0.615
			c0.084,0.299,0.23,0.461,0.498,0.461h13.697C67.836,33.774,67.557,31.901,65.73,31.479z"/>
		<path d="M65.73,39.097c-1.824-0.421-2.762,1.217-2.762,1.217h-9.875c-0.119,0.065-0.182,0.358-0.107,0.615
			c0.084,0.299,0.23,0.462,0.498,0.462h13.697C67.836,41.392,67.557,39.518,65.73,39.097z"/>
		<path d="M20.672,22.283h25.103c0.676,0,0.386-1.932-1.496-2.366c-1.881-0.435-2.847,1.255-2.847,1.255H20.269
			c-0.124,0.066-0.188,0.369-0.111,0.634C20.245,22.114,20.396,22.283,20.672,22.283z"/>
		<path d="M38.41,12.786c-0.714,4.877-4.637,7.216-4.637,7.216c3.859-0.882,6.807-5.059,7.21-5.94
			C41.924,12.004,38.792,10.181,38.41,12.786z"/>
		<path d="M66.805,7.424c2.549-1.731,0.641-5.692-1.646-2.929c-4.275,5.174-10.943,4.754-10.943,4.754
			C59.33,10.948,65.715,8.165,66.805,7.424z"/>
		<path d="M32.507,7.27c0.875,1.986,3.563,1.439,2.84-0.63c-1.575-4.507-6.714-4.964-6.714-4.964
			C31.116,3.72,31.346,4.635,32.507,7.27z"/>
		<path d="M23.578,12.449c2.308,1.385,3.911,4.032,4.754,6.274c0.707,1.881,3.389,1.311,2.66-0.583
			C29.069,13.141,23.578,12.449,23.578,12.449z"/>
		<path d="M25.91,51.551c0.044-0.088,0.058-0.146,0.058-0.146c0.147-0.512,0.308-1.039,0.468-1.581
			c0.395-1.247,0.663-2.842,0.85-4.498h11.571v11.204c0,0,0,0.625,0,1.266c0,0.44,0.97,0.698,1.808,0.458
			c0.858-0.245,1.324-0.662,1.324-1.434V26.699c0-0.772-0.466-1.189-1.324-1.433c-0.837-0.24-1.808,0.017-1.808,0.457v1.569H27.753
			c-0.02-0.717,0.028-1.089-0.634-1.584c-1.028-0.771-2.506-0.716-2.572-0.134c0,0,0,0.831,0,0.845
			c0.103,3.499,0.162,7.861,0.162,13.058c0,2.444-0.103,4.625-0.308,6.572c-0.146,1.259-0.336,2.503-0.615,3.704
			c-0.029,0.219-0.088,0.424-0.132,0.629c-0.249,1.244-0.557,2.327-0.922,3.278c-0.337,0.791-0.747,1.567-1.244,2.357
			c-0.498,0.791-1.083,1.552-1.742,2.298c-0.015,0.03-0.044,0.044-0.059,0.073C23.568,57.246,25.559,52.473,25.91,51.551z
			 M27.396,44.249c0.272-3.004,0.298-5.995,0.293-7.345h11.168v7.345H27.396z M38.857,35.828H27.688
			c0.013-0.784,0.026-1.568,0.051-2.34c0.015-0.718,0.029-1.405,0.029-2.064c0.021-0.82,0.02-2.04,0.006-3.056h11.083V35.828z"/>
	</g>
	<g>
		<rect x="82.031" y="48.563" width="6.547" height="0.734"/>
		<rect x="82.031" y="83.721" width="6.547" height="0.736"/>
		<rect x="84.928" y="1.621" width="0.754" height="13.972"/>
		<rect x="84.928" y="116.991" width="0.754" height="13.972"/>
		<g>
			<path d="M82.008,20.351l0.559,0.327h4.959l0.496-0.369l0.641,0.527c0.043,0.042,0.064,0.074,0.064,0.095
				c0,0.042-0.125,0.152-0.369,0.327v2.879c0,0.078-0.021,0.145-0.064,0.201c-0.049,0.063-0.236,0.109-0.557,0.137v-0.496h-2.268
				v1.402h2.225l0.537-0.707l0.813,0.759c0.035,0.028,0.053,0.063,0.053,0.105c0,0.084-0.057,0.126-0.168,0.126h-3.459v1.108h3.09
				l0.494-0.655l0.781,0.718c0.027,0.028,0.043,0.063,0.043,0.105c0,0.084-0.059,0.126-0.17,0.126h-8.152
				c-0.143,0-0.371,0.029-0.695,0.085l-0.168-0.38h4.164v-1.108h-2.479c-0.141,0-0.371,0.028-0.695,0.084l-0.168-0.369h3.342v-1.402
				h-2.227v0.411c0,0.091-0.037,0.158-0.115,0.201c-0.16,0.084-0.33,0.126-0.506,0.126V20.351z M82.293,27.354h0.127l0.041,0.938
				c0,0.401-0.119,0.728-0.357,0.981c-0.232,0.26-0.51,0.391-0.834,0.391c-0.195,0-0.295-0.085-0.295-0.253
				c0-0.07,0.092-0.18,0.275-0.327C81.826,28.64,82.174,28.064,82.293,27.354z M82.629,23.694h2.227v-2.721h-2.227V23.694z
				 M83.115,21.427c0.859,0.576,1.287,1.016,1.287,1.318c0,0.126-0.064,0.264-0.189,0.411c-0.135,0.162-0.264,0.243-0.391,0.243
				c-0.105,0-0.16-0.067-0.168-0.201c-0.07-0.64-0.289-1.206-0.654-1.698L83.115,21.427z M83.654,27.438
				c0.66,0.633,0.99,1.058,0.99,1.276c0,0.183-0.07,0.344-0.211,0.485s-0.289,0.211-0.443,0.211c-0.111,0-0.168-0.053-0.168-0.158
				c0.027-0.429,0.043-0.675,0.043-0.739c0-0.183-0.125-0.527-0.369-1.033L83.654,27.438z M85.469,20.973v2.721h2.268v-2.721H85.469
				z M85.594,27.354c0.85,0.632,1.277,1.115,1.277,1.445c0,0.126-0.061,0.264-0.18,0.411c-0.141,0.162-0.275,0.243-0.4,0.243
				c-0.1,0-0.152-0.067-0.158-0.2c-0.072-0.682-0.293-1.287-0.664-1.814L85.594,27.354z M86.66,21.384l0.707,0.475
				c0.063,0.042,0.092,0.074,0.084,0.095c0,0.007-0.041,0.028-0.117,0.063c-0.092,0.042-0.201,0.147-0.326,0.315
				c-0.389,0.464-0.734,0.833-1.045,1.108l-0.125-0.126C86.189,22.731,86.463,22.087,86.66,21.384z M87.408,27.354
				c0.758,0.38,1.262,0.696,1.508,0.949c0.254,0.253,0.379,0.485,0.379,0.695c0,0.155-0.053,0.303-0.156,0.443
				c-0.115,0.148-0.211,0.222-0.297,0.222c-0.055,0-0.115-0.085-0.18-0.253c-0.279-0.767-0.725-1.395-1.338-1.888L87.408,27.354z"/>
			<path d="M81.555,34.683h3.133v-3.501l0.971,0.306c0.063,0.014,0.096,0.036,0.096,0.063c0,0.014-0.025,0.042-0.076,0.084
				l-0.293,0.243v2.805h2.107l0.486-0.664l0.822,0.728c0.027,0.029,0.041,0.06,0.041,0.095c0,0.084-0.053,0.127-0.158,0.127h-3.299
				v4.493h2.93l0.57-0.739l0.854,0.792c0.035,0.028,0.053,0.067,0.053,0.116c0,0.077-0.053,0.117-0.156,0.117h-8.248
				c-0.143,0-0.373,0.028-0.695,0.084l-0.17-0.369h4.166v-4.493H82.42c-0.141,0-0.373,0.028-0.697,0.084L81.555,34.683z"/>
			<path d="M80.691,57.05h2.594l0.379-0.453l0.578,0.538c0.023,0.021,0.033,0.046,0.033,0.074c0,0.084-0.041,0.126-0.125,0.126
				h-1.277v2.425h0.412l0.41-0.443l0.592,0.538c0.021,0.021,0.031,0.046,0.031,0.074c0,0.084-0.043,0.126-0.127,0.126h-1.318v2.827
				l1.529-0.517l0.084,0.158l-2.721,1.362c-0.148,0.077-0.383,0.228-0.705,0.453l-0.455-0.697l1.654-0.559v-3.027h-0.621
				c-0.141,0-0.373,0.028-0.695,0.085l-0.168-0.38h1.484v-2.425h-0.705c-0.143,0-0.373,0.028-0.695,0.084L80.691,57.05z
				 M84.939,56.259l0.748,0.422c0.051,0.028,0.076,0.052,0.076,0.073s-0.025,0.042-0.076,0.063
				c-0.068,0.042-0.129,0.116-0.178,0.221c-0.156,0.366-0.311,0.696-0.465,0.992h1.33v-2.257l0.832,0.274
				c0.051,0.014,0.076,0.032,0.076,0.053c0,0.021-0.023,0.042-0.066,0.063l-0.219,0.179v1.688h1.232l0.453-0.57l0.75,0.686
				c0.021,0.036,0.031,0.067,0.031,0.095c0,0.056-0.023,0.084-0.074,0.084h-2.393v1.93h1.561l0.453-0.57l0.736,0.643
				c0.037,0.029,0.055,0.06,0.055,0.096c0,0.084-0.043,0.126-0.127,0.126h-2.309c0.236,0.949,0.598,1.705,1.074,2.268
				c0.484,0.548,1.047,0.931,1.688,1.15v0.169c-0.217,0-0.434,0.007-0.645,0.019c-0.268,0.044-0.463,0.117-0.588,0.223
				c-0.465-0.443-0.859-1.034-1.184-1.772c-0.287-0.647-0.479-1.333-0.568-2.057h-0.146v4.694c0,0.084-0.082,0.151-0.244,0.199
				c-0.135,0.029-0.26,0.042-0.379,0.042V61.09c-0.424,0.822-0.889,1.507-1.393,2.056c-0.625,0.724-1.41,1.354-2.354,1.888
				l-0.084-0.115c1.555-1.224,2.682-2.68,3.387-4.367h-0.949c-0.143,0-0.377,0.028-0.707,0.084l-0.158-0.379h2.258v-1.93h-1.486
				c-0.227,0.408-0.445,0.738-0.654,0.991l-0.117-0.084C84.404,58.601,84.68,57.609,84.939,56.259z"/>
			<path d="M80.563,68.66c0.598,0.29,0.996,0.532,1.193,0.729c0.195,0.197,0.295,0.379,0.295,0.548c0,0.142-0.051,0.279-0.148,0.411
				c-0.098,0.135-0.186,0.201-0.264,0.201c-0.049,0-0.098-0.066-0.146-0.201c-0.211-0.639-0.549-1.162-1.014-1.571L80.563,68.66z
				 M83.326,68.239l0.127,0.042l-1.318,4.103c-0.111,0.408-0.168,0.787-0.168,1.139l0.168,1.888c0,0.22-0.1,0.329-0.295,0.329
				c-0.1,0-0.232-0.05-0.402-0.149c-0.168-0.146-0.252-0.303-0.252-0.465c0-0.099,0.045-0.386,0.139-0.864
				c0.07-0.272,0.105-0.53,0.105-0.77c0-0.315-0.152-0.523-0.455-0.623l-0.453-0.094v-0.159h0.674c0.213,0,0.381-0.161,0.508-0.484
				L83.326,68.239z M81.313,66.72c0.576,0.254,0.959,0.465,1.148,0.635c0.191,0.169,0.285,0.326,0.285,0.473
				c0,0.142-0.045,0.278-0.137,0.412c-0.105,0.141-0.197,0.21-0.273,0.21c-0.043,0-0.09-0.062-0.137-0.188
				c-0.205-0.578-0.527-1.049-0.971-1.414L81.313,66.72z M83.99,67.755l0.771,0.357c0.063,0.021,0.094,0.04,0.094,0.053
				c0,0.036-0.02,0.067-0.063,0.097l-0.189,0.23v7.289c0,0.097-0.061,0.176-0.18,0.23c-0.156,0.071-0.299,0.106-0.434,0.106V67.755z
				 M84.729,66.467c0.879,0.486,1.318,0.859,1.318,1.118c0,0.12-0.051,0.25-0.158,0.392c-0.119,0.153-0.23,0.231-0.336,0.231
				c-0.107,0-0.164-0.07-0.168-0.212c-0.08-0.54-0.338-1.022-0.781-1.444L84.729,66.467z M85.268,69.23h2.426l0.369-0.454
				l0.58,0.538c0.027,0.022,0.041,0.05,0.041,0.084c0,0.085-0.041,0.127-0.125,0.127h-1.445v1.688h0.496l0.369-0.454l0.59,0.538
				c0.02,0.022,0.031,0.048,0.031,0.075c0,0.084-0.041,0.126-0.125,0.126h-1.361v2.015h0.623l0.369-0.453l0.578,0.547
				c0.027,0.022,0.043,0.047,0.043,0.074c0,0.084-0.043,0.126-0.127,0.126h-2.678c-0.141,0-0.373,0.03-0.697,0.085l-0.168-0.379
				h1.445v-2.015h-0.328c-0.141,0-0.377,0.028-0.705,0.084l-0.16-0.369h1.193v-1.688h-0.369c-0.143,0-0.377,0.024-0.707,0.074
				L85.268,69.23z M89.381,66.89l0.652,0.476c0.064,0.041,0.096,0.087,0.096,0.136c0,0.036-0.053,0.081-0.158,0.138
				c-0.146,0.07-0.223,0.175-0.223,0.315v7.213c0,0.276-0.063,0.465-0.189,0.572c-0.117,0.126-0.426,0.237-0.916,0.337
				c-0.078-0.246-0.188-0.417-0.328-0.506c-0.111-0.093-0.428-0.227-0.947-0.403v-0.126c0.631,0.142,1.07,0.211,1.316,0.211
				c0.303-0.016,0.455-0.085,0.455-0.211v-7.456H87.24c-0.135,0-0.328,0.029-0.58,0.084l-0.244-0.368h2.596L89.381,66.89z"/>
			<path d="M81.598,92.209h6.18l0.453-0.567l0.738,0.643c0.027,0.021,0.043,0.051,0.043,0.094c0,0.084-0.043,0.129-0.127,0.129
				h-3.387c-0.033,1.011-0.098,1.89-0.189,2.634h2.922l0.496-0.664l0.77,0.719c0.035,0.027,0.055,0.062,0.055,0.104
				c0,0.084-0.059,0.127-0.17,0.127h-3.66c0.26,1.028,0.559,1.826,0.896,2.395c0.295,0.521,0.707,0.938,1.232,1.256
				c0.676,0.429,1.393,0.724,2.154,0.885v0.158c-0.234,0.007-0.436,0.045-0.604,0.116c-0.111,0.063-0.256,0.203-0.432,0.422
				c-0.766-0.337-1.416-0.766-1.951-1.286c-0.379-0.337-0.711-0.85-0.99-1.539c-0.189-0.429-0.408-1.232-0.654-2.406h-0.096
				c-0.176,1.428-0.438,2.376-0.781,2.848c-0.773,1.154-2.027,1.962-3.764,2.426l-0.086-0.168c1.436-0.64,2.438-1.344,3.008-2.109
				c0.477-0.478,0.814-1.477,1.012-2.996h-2.9c-0.141,0-0.377,0.03-0.705,0.085l-0.16-0.37h3.797
				c0.084-0.773,0.139-1.65,0.158-2.634h-2.395c-0.141,0-0.371,0.022-0.695,0.071L81.598,92.209z"/>
			<path d="M89.012,103.327l0.875,0.8c0.021,0.035,0.033,0.069,0.033,0.106c0,0.055-0.031,0.084-0.086,0.084h-3.617
				c0.068,1.336,0.227,2.446,0.475,3.331c0.098,0.317,0.211,0.609,0.338,0.877c0.443-0.822,0.785-2.007,1.033-3.556l0.801,0.518
				c0.07,0.034,0.105,0.069,0.105,0.106c0,0.027-0.035,0.047-0.105,0.063c-0.127,0.077-0.236,0.252-0.328,0.528
				c-0.357,1.293-0.756,2.262-1.191,2.908c0.199,0.318,0.412,0.585,0.645,0.803c0.506,0.486,0.861,0.727,1.064,0.727
				c0.184,0,0.311-0.161,0.381-0.483l0.273-1.373l0.127,0.043l-0.086,1.688c0,0.197,0.047,0.398,0.139,0.602
				c0.105,0.149,0.158,0.263,0.158,0.347c0,0.106-0.07,0.159-0.211,0.159c-0.43,0-1.004-0.269-1.719-0.801
				c-0.463-0.366-0.852-0.771-1.16-1.214c-0.029,0.036-0.057,0.067-0.084,0.097c-0.844,0.8-1.832,1.388-2.965,1.759l-0.084-0.126
				c1.377-0.772,2.318-1.511,2.826-2.213c-0.238-0.429-0.418-0.888-0.537-1.373c-0.225-0.744-0.395-1.884-0.508-3.415h-2.975v1.814
				h1.605l0.285-0.369l0.557,0.422c0.072,0.042,0.107,0.091,0.107,0.145c0,0.023-0.049,0.058-0.15,0.107
				c-0.098,0.057-0.145,0.106-0.145,0.148l-0.096,2.677c-0.006,0.437-0.104,0.756-0.285,0.961c-0.17,0.219-0.506,0.39-1.012,0.517
				c-0.051-0.227-0.148-0.399-0.297-0.528c-0.141-0.111-0.4-0.223-0.779-0.338l0.041-0.116c0.598,0.135,0.967,0.201,1.109,0.201
				c0.217,0,0.357-0.054,0.42-0.169c0.119-0.118,0.18-0.302,0.18-0.548l0.148-2.827h-1.689c-0.006,2.005-0.301,3.348-0.883,4.029
				c-0.24,0.345-0.594,0.692-1.055,1.043l-0.086-0.126c0.578-0.674,0.971-1.42,1.182-2.234c0.146-0.486,0.221-1.403,0.221-2.754
				v-2.676l0.676,0.336h2.9c-0.049-0.682-0.088-1.425-0.115-2.226l0.916,0.264c0.078,0.015,0.117,0.034,0.117,0.063
				c0,0.05-0.066,0.097-0.201,0.146c-0.084,0.05-0.127,0.139-0.127,0.265c0,0.526,0.01,1.021,0.033,1.487h2.268L89.012,103.327z
				 M86.912,102.218c0.66,0.161,1.078,0.306,1.254,0.432c0.191,0.114,0.293,0.271,0.309,0.477c0,0.406-0.082,0.612-0.244,0.612
				c-0.049,0-0.102-0.055-0.158-0.159c-0.211-0.409-0.611-0.808-1.201-1.202L86.912,102.218z"/>
		</g>
	</g>
</g>
</svg>
