<?xml version="1.0" encoding="UTF-8"?>
<!DOCTYPE svg PUBLIC "-//W3C//DTD SVG 1.1//EN" "http://www.w3.org/Graphics/SVG/1.1/DTD/svg11.dtd">
<!-- Creator: CorelDRAW X7 -->
<svg xmlns="http://www.w3.org/2000/svg" xml:space="preserve" width="5.3282mm" height="7.1263mm" version="1.1" style="shape-rendering:geometricPrecision; text-rendering:geometricPrecision; image-rendering:optimizeQuality; fill-rule:evenodd; clip-rule:evenodd"
viewBox="0 0 32 43"
 xmlns:xlink="http://www.w3.org/1999/xlink">
 <defs>
  <style type="text/css">
   <![CDATA[
    .str3 {stroke:#99C614;stroke-width:1.02784}
    .str2 {stroke:#B3D15A;stroke-width:1.02784}
    .str1 {stroke:#CCDBA0;stroke-width:1.02784}
    .str0 {stroke:#E6E6E6;stroke-width:1.02784}
    .fil0 {fill:none}
    .fil1 {fill:none;fill-rule:nonzero}
   ]]>
  </style>
 </defs>
 <g id="图层_x0020_1">
  <metadata id="CorelCorpID_0Corel-Layer"/>
  <g id="_958479984">
   <path class="fil0 str0" d="M5 7c0,-2 1,-4 3,-5 3,-3 7,-1 10,1 4,3 8,8 10,13 2,4 4,9 4,13 0,5 -2,10 -7,13 -5,2 -11,0 -15,-4 -3,-3 -5,-7 -6,-11 -2,-4 -4,-8 -3,-13 0,-3 1,-5 3,-6 0,-1 1,-1 1,-1z"/>
   <path class="fil0 str1" d="M7 8c0,-1 0,-3 2,-4 2,-2 5,-1 8,0 4,3 7,8 9,13 2,3 4,8 4,12 0,4 -1,9 -6,11 -4,2 -9,0 -12,-3 -3,-3 -5,-7 -6,-10 -2,-4 -4,-9 -3,-13 0,-2 0,-4 2,-5 1,0 1,0 2,-1z"/>
   <path class="fil0 str2" d="M7 26c-1,-4 -3,-8 -2,-12 0,-1 0,-2 1,-3 1,-1 2,-1 3,-1 0,0 0,0 0,0 0,0 0,-1 0,-1 0,-1 0,-3 1,-4 2,-1 4,0 5,1 4,3 8,7 10,12 1,3 3,7 3,11 0,4 -1,7 -5,9 -3,2 -7,0 -10,-3 -2,-2 -4,-6 -6,-9z"/>
  </g>
  <path class="fil1 str3" d="M9 25c2,3 3,7 5,9 3,2 6,3 9,2 2,-1 3,-3 3,-7 -1,-3 -2,-7 -3,-11 -3,-5 -6,-8 -9,-10 -4,-3 -2,1 -4,3 -1,2 -3,1 -3,3 0,2 0,5 2,11z"/>
 </g>
</svg>
