<?xml version="1.0" encoding="utf-8"?>
<!-- Generator: Adobe Illustrator 16.0.0, SVG Export Plug-In . SVG Version: 6.00 Build 0)  -->
<!DOCTYPE svg PUBLIC "-//W3C//DTD SVG 1.1//EN" "http://www.w3.org/Graphics/SVG/1.1/DTD/svg11.dtd">
<svg version="1.1" id="图层_1" xmlns="http://www.w3.org/2000/svg" xmlns:xlink="http://www.w3.org/1999/xlink" x="0px" y="0px"
	 width="32px" height="32px" viewBox="0 0 200 200" enable-background="new 0 0 200 200" xml:space="preserve">
<g>
	<path fill="#B02F4B" d="M129.193,96.294c-2.271,0-4.118,1.848-4.118,4.119s1.848,4.119,4.118,4.119
		c2.271,0,4.119-1.848,4.119-4.119S131.465,96.294,129.193,96.294z"/>
	<path fill="#B02F4B" d="M185.5,87.5c0-5.79-4.71-10.5-10.5-10.5h-62.5c-5.79,0-10.5,4.71-10.5,10.5v25c0,5.79,4.71,10.5,10.5,10.5
		H175c5.79,0,10.5-4.71,10.5-10.5V87.5z M176.428,113.914c-0.376,0.375-0.885,0.586-1.415,0.586H112.5c-1.104,0-2-0.896-2-2v-25
		c0-1.104,0.896-2,2-2H175c1.104,0,1.999,0.895,2,1.999l0.013,25C177.013,113.029,176.803,113.539,176.428,113.914z"/>
	<path fill="#B02F4B" d="M172.9,137.794c0-2.344-1.906-4.25-4.25-4.25s-4.25,1.906-4.25,4.25v19.325c0,4.549-3.701,8.25-8.25,8.25
		H31.237c-4.549,0-8.25-3.701-8.25-8.25V44.131c0-4.549,3.701-8.25,8.25-8.25h125.487c4.549,0,8.25,3.701,8.25,8.25V62.5
		c0,2.344,1.906,4.25,4.25,4.25s4.25-1.906,4.25-4.25V44.131c0-9.236-7.514-16.75-16.75-16.75H31.237
		c-9.236,0-16.75,7.514-16.75,16.75v112.988c0,9.236,7.514,16.75,16.75,16.75H156.15c9.236,0,16.75-7.514,16.75-16.75V137.794z"/>
</g>
</svg>
