<?xml version="1.0" encoding="utf-8"?>
<!-- Generator: Adobe Illustrator 16.0.0, SVG Export Plug-In . SVG Version: 6.00 Build 0)  -->
<!DOCTYPE svg PUBLIC "-//W3C//DTD SVG 1.1//EN" "http://www.w3.org/Graphics/SVG/1.1/DTD/svg11.dtd">
<svg version="1.1" id="图层_1" xmlns="http://www.w3.org/2000/svg" xmlns:xlink="http://www.w3.org/1999/xlink" x="0px" y="0px"
	 width="32px" height="32px" viewBox="0 0 200 200" enable-background="new 0 0 200 200" xml:space="preserve">
<g>
	<g transform="scale(0.1953125, 0.1953125)">
		<path fill="#B02F4B" stroke="#B02F4B" stroke-width="2" stroke-miterlimit="10" d="M727.608,959.908
			c-128.07,0-232.289-104.22-232.289-232.289c0-128.06,104.22-232.277,232.289-232.277c128.075,0,232.294,104.217,232.294,232.277
			C959.902,855.688,855.683,959.908,727.608,959.908z M727.608,528.639c-109.7,0-198.989,89.265-198.989,198.979
			c0,109.7,89.29,198.99,198.989,198.99c109.76,0,198.995-89.29,198.995-198.99C926.603,617.899,837.368,528.639,727.608,528.639z
			 M109.467,959.908c-25.02,0-45.375-20.35-45.375-45.43V109.49c0-25.02,20.355-45.402,45.375-45.402h718.746
			c25.08,0,45.435,20.383,45.435,45.402v246.64h-33.3V138.242c0-22.54-18.315-40.854-40.885-40.854H138.219
			c-22.512,0-40.825,18.315-40.825,40.854v747.546c0,22.51,18.312,40.82,40.825,40.82h275.392v33.305H109.467V959.908z
			 M698.858,758.648c-1.225,0-2.275-1.05-2.275-2.28V612.624c0-1.285,0.995-2.275,2.275-2.275h28.75c1.285,0,2.28,0.99,2.28,2.275
			v112.72h112.729c1.285,0,2.28,0.995,2.28,2.275v28.75c0,1.285-1.05,2.28-2.28,2.28H698.858L698.858,758.648z M267.574,729.893
			c-1.225,0-2.215-1.05-2.215-2.275v-28.75c0-1.29,0.99-2.28,2.215-2.28h115.01c1.282,0,2.275,0.99,2.275,2.28v28.75
			c0,1.225-1.05,2.275-2.275,2.275H267.574z M267.574,528.639c-1.225,0-2.215-1.045-2.215-2.27v-28.752
			c0-1.285,0.99-2.275,2.215-2.275h201.267c1.282,0,2.275,0.99,2.275,2.275v28.752c0,1.22-1.05,2.27-2.275,2.27H267.574z
			 M267.574,327.377c-1.225,0-2.215-0.993-2.215-2.245v-28.752c0-1.285,0.99-2.275,2.215-2.275h431.284
			c1.28,0,2.275,0.99,2.275,2.275v28.752c0,1.252-0.995,2.245-2.275,2.245H267.574z"/>
	</g>
</g>
</svg>
