<?xml version="1.0" encoding="utf-8"?>
<!-- Generator: Adobe Illustrator 16.0.0, SVG Export Plug-In . SVG Version: 6.00 Build 0)  -->
<!DOCTYPE svg PUBLIC "-//W3C//DTD SVG 1.1//EN" "http://www.w3.org/Graphics/SVG/1.1/DTD/svg11.dtd">
<svg version="1.1" id="图层_1" xmlns="http://www.w3.org/2000/svg" xmlns:xlink="http://www.w3.org/1999/xlink" x="0px" y="0px"
	 width="32px" height="32px" viewBox="0 0 200 200" enable-background="new 0 0 200 200" xml:space="preserve">
<g>
	<g transform="scale(0.1953125, 0.1953125)">
		<g>
			<path fill="#B02F4B" d="M323.712,923.968c-69.467,0-125.985-56.575-125.985-126.115c0-69.45,56.518-125.949,125.985-125.949
				c58.612,0,108.92,39.994,122.342,97.265l0.925,3.95h131.925l0.93-3.945c13.485-57.215,63.78-97.175,122.31-97.175
				c69.415,0,125.885,56.5,125.885,125.949c0,69.45-56.47,125.955-125.885,125.955c-56.41,0-106.2-38.33-121.075-93.215l-1.025-3.78
				H445.779l-1.025,3.78C429.834,885.607,380.059,923.968,323.712,923.968z M323.745,725.628c-39.825,0-72.225,32.385-72.225,72.194
				c0,39.896,32.4,72.351,72.225,72.351c39.805,0,72.189-32.455,72.189-72.351C395.934,758.013,363.549,725.628,323.745,725.628z
				 M702.144,725.728c-39.81,0-72.195,32.385-72.195,72.19c0,39.805,32.385,72.189,72.195,72.189
				c39.77,0,72.125-32.385,72.125-72.189C774.268,758.112,741.914,725.728,702.144,725.728z M97.345,828.862
				c-14.823,0-26.88-12.06-26.88-26.88V479.998c0-44.814,19.115-82.932,53.825-107.332c1.077-0.752,2.217-1.43,3.387-2.029
				l197.442-99.226v-95.667c0-41.147,33.477-74.625,74.625-74.625h464.284c50.095,0,90.85,40.998,90.85,91.393v607.486
				c0,14.819-12.06,26.88-26.88,26.88c-14.82,0-26.88-12.061-26.88-26.88V192.512c0-20.75-16.64-37.633-37.09-37.633H399.744
				c-11.505,0-20.865,9.36-20.865,20.865v112.255c0,0.272-0.16,0.84-0.313,1.388c-0.212,0.76-0.417,1.529-0.55,2.337l-0.145,1.048
				c-0.242,1.79-0.452,3.335-0.95,4.695c-0.393,1.034-1.07,2.09-1.857,3.31l-1.458,2.335c-0.713,1.183-1.328,2.202-2.053,2.995
				c-0.902,0.978-2.143,1.825-3.58,2.81l-0.88,0.605c-0.725,0.508-1.36,1.072-1.985,1.652c-0.34,0.313-0.803,0.74-0.988,0.83
				L153.685,417.738l-0.36,0.268c-19.31,14.385-29.1,35.242-29.1,61.992v321.984C124.225,816.803,112.167,828.862,97.345,828.862z
				 M224,570.878c-14.822,0-26.88-12.06-26.88-26.88c0-14.819,12.058-26.88,26.88-26.88h101.12V415.999
				c0-14.823,12.057-26.88,26.88-26.88c14.822,0,26.88,12.057,26.88,26.88v127.999c0,14.82-12.058,26.88-26.88,26.88H224z"/>
			<path fill="#FFFFFF" d="M864.028,106.239c47.27,0,85.73,38.7,85.73,86.272v607.486c0,12-9.76,21.76-21.76,21.76
				s-21.76-9.76-21.76-21.76V192.512c0-23.572-18.935-42.752-42.21-42.752H399.744c-14.327,0-25.985,11.654-25.985,25.984v111.827
				c-0.038,0.146-0.083,0.288-0.123,0.436c-0.265,0.942-0.51,1.897-0.705,3.107l-0.132,0.97c-0.203,1.492-0.377,2.78-0.655,3.54
				c-0.212,0.564-0.78,1.445-1.382,2.377l-0.672,1.053c-0.295,0.468-0.58,0.94-0.868,1.415c-0.547,0.905-1.063,1.766-1.422,2.155
				c-0.518,0.56-1.585,1.29-2.715,2.064l-0.95,0.653c-1.078,0.757-1.9,1.518-2.5,2.072c-0.087,0.08-0.172,0.16-0.26,0.24
				L151.787,412.961l-0.802,0.402l-0.717,0.535c-20.678,15.405-31.163,37.646-31.163,66.1v321.984c0,12-9.763,21.76-21.76,21.76
				c-12,0-21.76-9.76-21.76-21.76V479.998c0-43.1,18.342-79.729,51.627-103.129c0.868-0.605,1.808-1.168,2.73-1.641l194.654-97.824
				l5.643-2.835v-6.315v-92.51c0-38.325,31.18-69.505,69.505-69.505H864.028 M352,394.238c12,0,21.76,9.761,21.76,21.761v127.999
				c0,12-9.76,21.76-21.76,21.76H224c-11.998,0-21.76-9.76-21.76-21.76s9.762-21.76,21.76-21.76h96h10.24v-10.24v-95.999
				C330.239,403.999,340.002,394.238,352,394.238 M323.712,677.023c56.222,0,104.482,38.369,117.357,93.31l1.852,7.904h8.118h123.81
				h8.105l1.86-7.89c12.94-54.89,61.185-93.229,117.33-93.229c66.59,0,120.765,54.205,120.765,120.829
				c0,66.63-54.175,120.835-120.765,120.835c-54.105,0-101.86-36.774-116.13-89.435l-2.05-7.561h-7.835H449.694h-7.83l-2.053,7.556
				c-14.315,52.699-62.057,89.505-116.1,89.505c-66.645,0-120.865-54.28-120.865-120.995
				C202.847,731.228,257.067,677.023,323.712,677.023 M323.745,875.292c42.63,0,77.31-34.755,77.31-77.47
				c0-42.63-34.68-77.314-77.31-77.314c-42.647,0-77.345,34.685-77.345,77.314C246.399,840.537,281.097,875.292,323.745,875.292
				 M702.144,875.228c42.595,0,77.245-34.68,77.245-77.31s-34.65-77.311-77.245-77.311c-42.63,0-77.315,34.681-77.315,77.311
				S659.514,875.228,702.144,875.228 M864.028,95.999H399.744c-43.97,0-79.745,35.775-79.745,79.745v92.51l-194.655,97.825
				c-1.377,0.705-2.72,1.505-4,2.399c-36.097,25.375-56,64.96-56,111.52v321.984c0,17.695,14.335,32,32,32c17.662,0,32-14.305,32-32
				V479.998c0-25.024,9.088-44.512,27.04-57.887l209.982-105.505c1.44-0.702,2.368-1.982,3.647-2.88
				c1.89-1.313,3.778-2.495,5.313-4.16c1.408-1.535,2.337-3.327,3.425-5.053c1.087-1.729,2.24-3.33,2.975-5.282
				c0.8-2.178,1.025-4.418,1.345-6.688c0.255-1.57,0.927-2.945,0.927-4.545V175.744c0-8.673,7.073-15.745,15.745-15.745h464.284
				c17.635,0,31.97,14.593,31.97,32.513v607.486c0,17.694,14.305,32,32,32c17.695,0,32-14.306,32-32V192.512
				C959.998,139.294,916.928,95.999,864.028,95.999L864.028,95.999z M352,383.999c-17.665,0-32,14.335-32,32v95.999h-96
				c-17.665,0-32,14.335-32,32c0,17.695,14.335,32,32,32h128c17.665,0,32-14.305,32-32V415.999
				C383.999,398.334,369.664,383.999,352,383.999L352,383.999z M323.712,666.783c-72.287,0-131.104,58.784-131.104,131.069
				c0,72.354,58.817,131.234,131.104,131.234c60.382,0,110.847-41.345,125.982-97.06h126.435
				c15.1,55.715,65.564,96.995,126.015,96.995c72.225,0,131.004-58.785,131.004-131.075c0-72.284-58.78-131.069-131.004-131.069
				c-61.955,0-113.665,43.295-127.295,101.12h-123.81C437.472,710.107,385.694,666.783,323.712,666.783L323.712,666.783z
				 M323.745,865.053c-36.993,0-67.105-30.146-67.105-67.23c0-36.96,30.08-67.074,67.105-67.074c36.99,0,67.07,30.08,67.07,67.074
				C390.814,834.907,360.734,865.053,323.745,865.053L323.745,865.053z M702.144,864.987c-36.96,0-67.075-30.08-67.075-67.069
				c0-36.99,30.08-67.07,67.075-67.07c36.925,0,67.005,30.08,67.005,67.07C769.148,834.907,739.104,864.987,702.144,864.987
				L702.144,864.987z"/>
		</g>
	</g>
</g>
</svg>
