<?xml version="1.0" encoding="utf-8"?>
<!-- Generator: Adobe Illustrator 17.0.0, SVG Export Plug-In . SVG Version: 6.00 Build 0)  -->
<!DOCTYPE svg PUBLIC "-//W3C//DTD SVG 1.1//EN" "http://www.w3.org/Graphics/SVG/1.1/DTD/svg11.dtd">
<svg version="1.1" id="图层_1" xmlns="http://www.w3.org/2000/svg" xmlns:xlink="http://www.w3.org/1999/xlink" x="0px" y="0px"
	 width="32px" height="32px" viewBox="0 0 32 32" enable-background="new 0 0 32 32" xml:space="preserve">
<g>
	<g transform="scale(0.1953125, 0.1953125)">
		<path fill="#9E2E46" d="M134.127,12.223H32.748c-11.276,0-20.438,9.161-20.438,20.438v3.351h-0.067v94.949l0.067,0.685v2.802
			c0,11.143,9.093,20.234,20.234,20.234c0.343,0,0.683,0,1.026-0.069h62.951v-6.219H32.748c-0.066,0-0.066,0-0.136,0
			c-7.655,0-13.945-6.223-13.945-13.945v-0.204l-0.067-0.342V52.692h129.672l-0.064,81.005l-0.071,0.343
			c-0.064,0.205-0.064,0.339-0.064,0.408c0,7.383-5.812,13.536-13.198,13.945l-3.417,0.205v-0.205h-1.608v6.219h2.978
			c0.412,0.069,0.891,0.069,1.369,0.069c11.141,0,20.234-9.091,20.234-20.234l-0.069-3.555h0.138V34.099h0.064v-0.206
			c0-0.409,0.072-0.752,0.072-1.162C154.634,21.451,145.405,12.223,134.127,12.223z M18.601,46.404V33.552l0.133-0.342
			c0.069-0.136,0.069-0.275,0.069-0.412c0-7.721,6.288-14.011,14.015-14.011h101.03c0.071,0,0.138,0,0.138,0
			c7.731,0,14.081,6.29,14.081,14.08c0,0.068,0,0.205,0.069,0.342l0.071,0.48v12.716H18.601z"/>
		<path fill="#9E2E46" d="M113.072,78.054c-0.957,0-1.914,0.341-2.664,1.026c-0.207,0.205-0.417,0.408-0.55,0.682l-0.136,0.205
			l-35.41,35.409L58.316,99.379l-0.066,0.07l-1.779-1.78c-0.753-0.75-1.71-1.159-2.734-1.159c-2.188,0-3.895,1.776-3.895,3.897
			c0,1.228,0.545,2.393,1.566,3.144l0.141,0.137l19.207,19.209l0.136,0.272c0.686,1.164,1.981,1.916,3.353,1.916
			c1.433-0.067,2.733-0.819,3.417-2.119l0.205-0.341l0.271-0.274l37.322-37.325l0.071-0.068c0.891-0.75,1.436-1.847,1.436-3.005
			C116.967,79.762,115.188,78.054,113.072,78.054z"/>
	</g>
</g>
</svg>
