<?xml version="1.0" encoding="utf-8"?>
<!-- Generator: Adobe Illustrator 16.0.0, SVG Export Plug-In . SVG Version: 6.00 Build 0)  -->
<!DOCTYPE svg PUBLIC "-//W3C//DTD SVG 1.1//EN" "http://www.w3.org/Graphics/SVG/1.1/DTD/svg11.dtd">
<svg version="1.1" id="图层_1" xmlns="http://www.w3.org/2000/svg" xmlns:xlink="http://www.w3.org/1999/xlink" x="0px" y="0px"
	 width="32px" height="32px" viewBox="0 0 200 200" enable-background="new 0 0 200 200" xml:space="preserve">
<g>
	<g transform="scale(0.1953125, 0.1953125)">
		<path fill="#B02F4B" d="M586.239,371.199c-20.48,0-35.84-15.36-35.84-35.841V102.399h-38.4v255.999c0,28.16,23.04,51.2,51.2,51.2
			h256v-38.399H586.239z M550.399,102.399H115.2c-35.84,0-64,28.16-64,64v691.198c0,35.84,28.16,64,64,64h381.439
			c7.68,0,15.36-7.681,15.36-15.36v-7.68c0-7.681-7.68-15.36-15.36-15.36H130.56c-23.04,0-40.96-17.92-40.96-40.96V181.759
			c0-23.039,17.92-40.959,40.96-40.959h404.479l245.759,245.759v212.479c0,7.68,7.68,15.36,15.36,15.36h7.68
			c7.68,0,15.36-7.681,15.36-15.36V371.199L550.399,102.399z M967.678,591.358l-2.56-2.561c-7.68-7.68-17.92-7.68-25.6,0
			l-284.16,284.159L514.559,732.158c-7.68-7.681-17.92-7.681-25.6,0l-2.56,2.56c-7.68,7.68-7.68,17.92,0,25.6l153.6,156.16
			c5.12,5.12,10.24,5.12,15.36,5.12c5.12,0,10.24-2.561,12.8-5.12l299.519-299.52C975.358,609.278,975.358,599.038,967.678,591.358z
			 M599.039,583.678H220.16c-7.68,0-15.36-7.68-15.36-15.359v-7.68c0-7.681,7.68-15.36,15.36-15.36h378.879
			c7.68,0,15.36,7.68,15.36,15.36v7.68C614.398,575.998,606.719,583.678,599.039,583.678z M394.239,453.118H220.16
			c-7.68,0-15.36-7.68-15.36-15.359v-7.681c0-7.68,7.68-15.359,15.36-15.359h174.08c7.68,0,15.36,7.68,15.36,15.359v7.681
			C409.599,447.999,401.919,453.118,394.239,453.118z M394.239,709.118H220.16c-7.68,0-15.36-7.681-15.36-15.36v-7.68
			c0-7.68,7.68-15.36,15.36-15.36h174.08c7.68,0,15.36,7.681,15.36,15.36v7.68C409.599,703.998,401.919,709.118,394.239,709.118z
			 M394.239,327.679H220.16c-7.68,0-15.36-7.68-15.36-15.359v-7.681c0-7.68,7.68-15.359,15.36-15.359h174.08
			c7.68,0,15.36,7.68,15.36,15.359v7.681C409.599,319.999,401.919,327.679,394.239,327.679z"/>
	</g>
</g>
</svg>
