<?xml version="1.0" encoding="utf-8"?>
<!-- Generator: Adobe Illustrator 16.0.0, SVG Export Plug-In . SVG Version: 6.00 Build 0)  -->
<!DOCTYPE svg PUBLIC "-//W3C//DTD SVG 1.1//EN" "http://www.w3.org/Graphics/SVG/1.1/DTD/svg11.dtd">
<svg version="1.1" id="图层_1" xmlns="http://www.w3.org/2000/svg" xmlns:xlink="http://www.w3.org/1999/xlink" x="0px" y="0px"
	 width="36px" height="36px" viewBox="0 0 200 200" enable-background="new 0 0 200 200" xml:space="preserve">
<path fill="#ADADAD" d="M100.387,13.478c-48.25,0-87.5,39.25-87.5,87.5c0,48.251,39.25,87.501,87.5,87.501s87.5-39.25,87.5-87.501
	C187.887,52.728,148.637,13.478,100.387,13.478z M144.402,132.419c0,6.829-6.982,12.576-13.813,12.576H68.739
	c-6.83,0-12.368-5.54-12.368-12.372v-61.85c0-6.831,5.743-13.813,12.574-13.813h34.585v6.288H68.944
	c-3.416,0-6.288,2.873-6.288,6.288l-0.103,63.086c0,3.419,2.77,6.185,6.185,6.185l63.087-0.103c3.416,0,6.289-2.873,6.289-6.286
	V97.833h6.287V132.419z M144.402,82.113c-0.002,1.7-1.36,3.142-3.144,3.145c-1.785,0.003-3.147-1.444-3.144-3.145l-0.095-15.024
	l-47.845,45.635c-1.255,1.195-3.289,1.195-4.544,0c-1.254-1.199-1.254-3.138,0-4.334l47.435-45.242l-13.816,0.102
	c-1.785,0.004-3.146-1.442-3.145-3.144c0.002-1.703,1.359-3.142,3.145-3.145h21.937c1.786-0.003,3.216,1.364,3.216,3.063V82.113z"/>
</svg>
