<?xml version="1.0" encoding="utf-8"?>
<!-- Generator: Adobe Illustrator 16.0.0, SVG Export Plug-In . SVG Version: 6.00 Build 0)  -->
<!DOCTYPE svg PUBLIC "-//W3C//DTD SVG 1.1//EN" "http://www.w3.org/Graphics/SVG/1.1/DTD/svg11.dtd">
<svg version="1.1" id="图层_1" xmlns="http://www.w3.org/2000/svg" xmlns:xlink="http://www.w3.org/1999/xlink" x="0px" y="0px"
	 width="28px" height="28px" viewBox="0 0 200 200" enable-background="new 0 0 200 200" xml:space="preserve">
<g>
	<g transform="scale(0.1953125, 0.1953125)">
		<g>
			<path fill="#ADADAD" d="M702.108,150.305c112.215,0,203.51,101.555,203.51,226.382c0,76.032-34.26,129.787-64.5,177.227
				c-87.065,136.72-313.254,312.914-322.909,320.399c-1.985,1.55-4.018,2.3-6.21,2.3c-1.485,0-3.77-0.399-6.28-2.354
				c-9.585-7.431-235.777-183.625-322.849-320.354c-30.23-47.439-64.492-101.21-64.492-177.217
				c0-124.827,91.297-226.382,203.515-226.382c61.032,0,118.314,30.159,157.162,82.747l32.9,44.537l32.96-44.495
				C583.884,180.479,641.179,150.305,702.108,150.305 M702.108,109.345c-74.805,0-144.254,37.462-190.109,99.369
				c-45.732-61.907-115.305-99.369-190.107-99.369c-134.765,0-244.475,119.927-244.475,267.342
				c0,87.937,39.288,149.602,70.91,199.227c91.708,144.01,322.562,323.169,332.292,330.714c9.365,7.295,20.432,10.945,31.38,10.945
				c11.07,0,22.015-3.65,31.38-10.945c9.73-7.545,240.584-186.704,332.289-330.714c31.63-49.625,70.91-111.29,70.91-199.227
				C946.578,229.271,836.868,109.345,702.108,109.345L702.108,109.345z"/>
		</g>
	</g>
</g>
</svg>
