<?xml version="1.0" encoding="utf-8"?>
<!-- Generator: Adobe Illustrator 16.0.0, SVG Export Plug-In . SVG Version: 6.00 Build 0)  -->
<!DOCTYPE svg PUBLIC "-//W3C//DTD SVG 1.1//EN" "http://www.w3.org/Graphics/SVG/1.1/DTD/svg11.dtd">
<svg version="1.1" id="图层_1" xmlns="http://www.w3.org/2000/svg" xmlns:xlink="http://www.w3.org/1999/xlink" x="0px" y="0px"
	 width="28px" height="28px" viewBox="0 0 200 200" enable-background="new 0 0 200 200" xml:space="preserve">
<g>
	<g transform="scale(0.1953125, 0.1953125)">
		<g>
			<path fill="#599d8b" d="M511.999,897.093c-6.735,0-13.232-2.29-18.795-6.62c-9.735-7.55-238.649-185.88-327.602-325.56
				c-30.167-47.34-67.705-106.25-67.705-188.227c0-136.12,100.482-246.862,223.995-246.862c67.597,0,130.884,33.19,173.634,91.06
				l16.45,22.268l16.478-22.247c42.875-57.883,106.169-91.08,173.654-91.08c123.51,0,223.989,110.742,223.989,246.862
				c0,82.002-37.54,140.896-67.7,188.217c-88.959,139.699-317.869,318.02-327.569,325.539
				C525.234,894.803,518.734,897.093,511.999,897.093z"/>
			<path fill="#599d8b" d="M702.108,150.305c112.215,0,203.51,101.555,203.51,226.382c0,76.032-34.26,129.787-64.5,177.227
				c-87.065,136.72-313.254,312.914-322.909,320.399c-1.985,1.55-4.018,2.3-6.21,2.3c-1.485,0-3.77-0.399-6.28-2.354
				c-9.585-7.431-235.777-183.625-322.849-320.354c-30.23-47.439-64.492-101.21-64.492-177.217
				c0-124.827,91.297-226.382,203.515-226.382c61.032,0,118.314,30.159,157.162,82.747l32.9,44.537l32.96-44.495
				C583.884,180.479,641.179,150.305,702.108,150.305 M702.108,109.345c-74.805,0-144.254,37.462-190.109,99.369
				c-45.732-61.907-115.305-99.369-190.107-99.369c-134.765,0-244.475,119.927-244.475,267.342
				c0,87.937,39.288,149.602,70.91,199.227c91.708,144.01,322.562,323.169,332.292,330.714c9.365,7.295,20.432,10.945,31.38,10.945
				c11.07,0,22.015-3.65,31.38-10.945c9.73-7.545,240.584-186.704,332.289-330.714c31.63-49.625,70.91-111.29,70.91-199.227
				C946.578,229.271,836.868,109.345,702.108,109.345L702.108,109.345z"/>
		</g>
	</g>
</g>
</svg>
