<?xml version="1.0" encoding="utf-8"?>
<!-- Generator: Adobe Illustrator 17.0.0, SVG Export Plug-In . SVG Version: 6.00 Build 0)  -->
<!DOCTYPE svg PUBLIC "-//W3C//DTD SVG 1.1//EN" "http://www.w3.org/Graphics/SVG/1.1/DTD/svg11.dtd">
<svg version="1.1" id="图层_1" xmlns="http://www.w3.org/2000/svg" xmlns:xlink="http://www.w3.org/1999/xlink" x="0px" y="0px"
	 width="200px" height="200px" viewBox="0 0 200 200" enable-background="new 0 0 200 200" xml:space="preserve">
<path fill="#C6C6C6" stroke="#C6C6C6" stroke-width="0.25" stroke-miterlimit="10" d="M60.126,107.497H44.06
	c-11.933,0-22.352,6.52-27.948,16.171h8.201c4.684-5.716,11.795-9.374,19.747-9.374h16.066c14.071,0,25.516,11.444,25.516,25.518
	v16.066c0,14.072-11.445,25.523-25.516,25.523H44.06c-8.809,0-16.591-4.488-21.179-11.298h-7.79
	c5.276,10.694,16.262,18.086,28.968,18.086h16.066c17.814,0,32.314-14.496,32.314-32.312v-16.066
	C92.44,121.995,77.94,107.497,60.126,107.497z"/>
<path fill="#C6C6C6" stroke="#C6C6C6" stroke-width="0.25" stroke-miterlimit="10" d="M124.378,88.946
	c6.105,6.099,14.221,9.461,22.847,9.461c8.634,0,16.747-3.362,22.847-9.461l11.36-11.36c6.105-6.104,9.465-14.219,9.465-22.847
	c0-8.632-3.359-16.747-9.465-22.851l-11.36-11.36c-6.1-6.099-14.213-9.462-22.847-9.462c-8.627,0-16.742,3.363-22.847,9.462
	l-11.36,11.36c-6.103,6.104-9.465,14.219-9.465,22.851c0,8.628,3.362,16.743,9.465,22.847L124.378,88.946z M117.819,36.695
	l11.36-11.362c4.823-4.822,11.23-7.476,18.046-7.476c6.816,0,13.223,2.654,18.046,7.476l11.36,11.362
	c4.823,4.813,7.477,11.228,7.477,18.044c0,6.816-2.654,13.223-7.477,18.046l-11.36,11.36c-4.823,4.816-11.23,7.472-18.046,7.472
	c-6.816,0-13.223-2.656-18.046-7.472l-11.36-11.36c-4.819-4.823-7.472-11.23-7.472-18.046C110.347,47.923,113,41.508,117.819,36.695
	z"/>
<path fill="#C6C6C6" stroke="#C6C6C6" stroke-width="0.25" stroke-miterlimit="10" d="M60.126,14.393H44.06
	c-17.816,0-32.313,14.495-32.313,32.31V62.77c0,17.814,14.497,32.311,32.313,32.311h16.066c17.814,0,32.314-14.496,32.314-32.311
	V46.703C92.44,28.888,77.94,14.393,60.126,14.393z M85.641,62.77c0,14.071-11.445,25.522-25.516,25.522H44.06
	c-14.075,0-25.522-11.451-25.522-25.522V46.703c0-14.073,11.447-25.518,25.522-25.518h16.066c14.071,0,25.516,11.445,25.516,25.518
	V62.77z"/>
<path fill="#C6C6C6" stroke="#C6C6C6" stroke-width="0.25" stroke-miterlimit="10" d="M155.253,107.497h-16.059
	c-17.817,0-32.312,14.497-32.312,32.315v16.066c0,17.816,14.495,32.312,32.312,32.312h16.059c17.824,0,32.317-14.496,32.317-32.312
	v-16.066C187.57,121.995,173.077,107.497,155.253,107.497z M180.779,155.879c0,14.072-11.452,25.523-25.526,25.523h-16.059
	c-14.074,0-25.523-11.451-25.523-25.523v-16.066c0-14.075,11.45-25.518,25.523-25.518h16.059c14.073,0,25.526,11.444,25.526,25.518
	V155.879z"/>
</svg>
