<?xml version="1.0" encoding="utf-8"?>
<!-- Generator: Adobe Illustrator 16.0.0, SVG Export Plug-In . SVG Version: 6.00 Build 0)  -->
<!DOCTYPE svg PUBLIC "-//W3C//DTD SVG 1.1//EN" "http://www.w3.org/Graphics/SVG/1.1/DTD/svg11.dtd">
<svg version="1.1" id="图层_1" xmlns="http://www.w3.org/2000/svg" xmlns:xlink="http://www.w3.org/1999/xlink" x="0px" y="0px"
	 width="200px" height="200px" viewBox="0 0 200 200" enable-background="new 0 0 200 200" xml:space="preserve">
<g>
	<g transform="scale(0.1953125, 0.1953125)">
		<path fill="#B2B2B2" d="M954.397,813.948L816.733,633.664c48.835-46.655,79.455-112.225,79.455-184.927
			c0-141.152-114.845-255.999-255.999-255.999c-141.15,0-255.997,114.847-255.997,255.999s114.847,256.002,255.997,256.002
			c45.475,0,88.1-12.035,125.154-32.9l138.145,180.929c6.3,8.255,15.805,12.605,25.47,12.605c6.75,0,13.6-2.11,19.36-6.56
			C962.427,848.063,965.118,827.968,954.397,813.948z M448.224,448.704c0-105.89,86.11-192.002,191.999-192.002
			c105.885,0,192,86.112,192,192.002c0,105.885-86.115,192-192,192C534.333,640.704,448.224,554.589,448.224,448.704z M319.999,320
			H128c-17.665,0-32-14.335-32-32c0-17.663,14.335-32,32-32h192c17.665,0,32,14.337,32,32C351.999,305.665,337.664,320,319.999,320z
			 M255.999,575.999H128c-17.665,0-32-14.305-32-32c0-17.665,14.335-32,32-32h128c17.665,0,32,14.335,32,32
			C287.999,561.694,273.664,575.999,255.999,575.999z M479.999,799.998H128c-17.665,0-32-14.305-32-32s14.335-32,32-32h351.999
			c17.665,0,32,14.305,32,32S497.664,799.998,479.999,799.998z"/>
	</g>
</g>
</svg>
