<?xml version="1.0" encoding="utf-8"?>
<!-- Generator: Adobe Illustrator 16.0.0, SVG Export Plug-In . SVG Version: 6.00 Build 0)  -->
<!DOCTYPE svg PUBLIC "-//W3C//DTD SVG 1.1//EN" "http://www.w3.org/Graphics/SVG/1.1/DTD/svg11.dtd">
<svg version="1.1" id="图层_1" xmlns="http://www.w3.org/2000/svg" xmlns:xlink="http://www.w3.org/1999/xlink" x="0px" y="0px"
	 width="250px" height="250px" viewBox="0 0 250 250" enable-background="new 0 0 250 250" xml:space="preserve">
<path fill="#E5E5E5" d="M215.703,115.055c0-49.844-40.43-90.273-90.273-90.273c-0.09,0-0.179,0.003-0.269,0.003
	c-0.077,0-0.154-0.003-0.231-0.003c-49.876,0-90.309,40.432-90.309,90.308c0,42.332,29.129,77.856,68.435,87.636
	c-2.091,5.213-7.965,17.313-17.666,19.478c-12.148,2.734,32.969,0.664,65.156-20.43c24.727-7.148,45.078-24.57,56.133-47.305h-0.459
	c0.25-0.515,0.492-1.034,0.732-1.555v0.891C212.539,142.047,215.703,128.922,215.703,115.055z M103.439,166.481
	c-4.698,0-8.506-3.809-8.506-8.506c0-4.698,3.808-8.507,8.506-8.507c4.698,0,8.506,3.809,8.506,8.507
	C111.945,162.673,108.137,166.481,103.439,166.481z M148.806,166.481c-4.698,0-8.506-3.809-8.506-8.506
	c0-4.698,3.808-8.507,8.506-8.507c4.697,0,8.506,3.809,8.506,8.507C157.312,162.673,153.503,166.481,148.806,166.481z
	 M179.028,89.291l-14.769,48.216c-0.491,1.869-2.18,2.651-4.113,2.651H95.642c-2.207,0-4.047-1.3-4.238-3.499l-8.548-66.843
	c-0.088-0.694-0.419-1.625-0.985-2.124c-0.566-0.499-1.268-1.273-1.968-1.273h-4.817c-2.349,0-4.253-1.922-4.253-4.271
	s1.904-4.271,4.253-4.271h11.341c2.207,0,4.047,2.102,4.238,4.3l8.551,67.669c0.087,0.688,0.415,1.077,0.976,1.572
	c0.561,0.494,1.256,0.197,1.95,0.197h51.598c0.878,0,1.763,0.205,2.523-0.354c0.762-0.558,1.284-0.849,1.547-1.685l2.4-7.737
	c0.255-0.809,0.135-1.991-0.406-2.728c-0.54-0.737-1.377-1.66-2.226-1.66h-31.455c-2.35,0-4.254-1.922-4.254-4.272
	c0-2.349,1.904-4.271,4.254-4.271h35.756c0.602,0,1.21,0.101,1.732-0.282c0.524-0.384,0.883-0.623,1.064-1.198l4.722-15.493
	c-19.15,0-38.301,0-57.452,0c-2.349,0-4.253-1.922-4.253-4.272c0-2.349,1.904-4.271,4.253-4.271h62.97
	c1.319,0,2.563,1.162,3.368,2.206C179.089,86.644,179.363,88.016,179.028,89.291z M206.992,77.242v0.107
	c-0.01-0.021-0.02-0.042-0.029-0.063L206.992,77.242z"/>
</svg>
