<?xml version="1.0" encoding="utf-8"?>
<!-- Generator: Adobe Illustrator 17.0.0, SVG Export Plug-In . SVG Version: 6.00 Build 0)  -->
<!DOCTYPE svg PUBLIC "-//W3C//DTD SVG 1.1//EN" "http://www.w3.org/Graphics/SVG/1.1/DTD/svg11.dtd">
<svg version="1.1" id="图层_1" xmlns="http://www.w3.org/2000/svg" xmlns:xlink="http://www.w3.org/1999/xlink" x="0px" y="0px"
	 width="250px" height="213px" viewBox="0 0 250 213" enable-background="new 0 0 250 213" xml:space="preserve">
<path fill="#A5A0AE" d="M116.493,137.722c2.37,0.149,2.7,8.233,4.785,9.204c2.234,1.046,1.203-2.034,0.819-3.005
	c-0.944-2.387-1.426-4.961-2.445-7.328"/>
<path fill="#6F4B2D" d="M119.459,136.152c-0.243,0.105-0.357,0.391-0.251,0.635c0.533,1.238,0.925,2.57,1.309,3.863
	c0.332,1.141,0.682,2.321,1.129,3.448c0.557,1.403,0.63,2.399,0.471,2.551c-0.016,0.016-0.192,0.051-0.635-0.156
	c-0.78-0.364-1.376-2.397-1.901-4.194c-0.753-2.55-1.458-4.956-3.057-5.059c-0.266-0.015-0.497,0.184-0.513,0.451
	c-0.015,0.267,0.184,0.499,0.451,0.513c0.925,0.059,1.626,2.446,2.19,4.37c0.643,2.181,1.246,4.243,2.417,4.793
	c0.753,0.348,1.325,0.344,1.708-0.016c0.721-0.678,0.271-2.335-0.235-3.605c-0.431-1.09-0.772-2.25-1.101-3.37
	c-0.388-1.316-0.791-2.68-1.348-3.969C119.988,136.159,119.707,136.046,119.459,136.152z"/>
<path fill="#A5A0AE" d="M148.523,138.173c0.466,2.01,1.336,4.184,2.073,6.1c1.015,2.648,1.633,1.102,3.589,1.999
	c0.012-2.364-2.586-5.224-2.735-7.872"/>
<path fill="#6F4B2D" d="M148.413,137.706c-0.262,0.059-0.424,0.318-0.36,0.58c0.434,1.865,1.21,3.878,1.897,5.659l0.195,0.506
	c0.71,1.849,1.356,1.978,2.34,1.975c0.427,0,0.873,0,1.496,0.285c0.149,0.067,0.325,0.055,0.462-0.03
	c0.137-0.09,0.223-0.244,0.223-0.408c0.008-1.302-0.658-2.641-1.363-4.064c-0.639-1.285-1.301-2.618-1.368-3.835
	c-0.016-0.267-0.243-0.471-0.509-0.455c-0.259,0.016-0.459,0.228-0.459,0.483c0,0.007,0,0.015,0,0.026
	c0.083,1.419,0.788,2.838,1.47,4.214c0.521,1.05,1.003,2.048,1.179,2.954c-0.447-0.102-0.838-0.133-1.136-0.133
	c-0.666,0.005-0.913,0.005-1.434-1.359l-0.196-0.505c-0.674-1.748-1.438-3.727-1.858-5.533
	C148.93,137.805,148.672,137.644,148.413,137.706z"/>
<path fill="#A5A0AE" d="M119.067,155.767c-1.697-0.867-2.379-1.007-2.794-3.013c-0.591-2.88,0.334-5.411,3.256-6.254
	c3.331-0.964,5.557,1.223,6.211,4.315"/>
<path fill="#6F4B2D" d="M119.397,146.033c-2.955,0.853-4.299,3.401-3.593,6.819c0.419,2.036,1.187,2.416,2.578,3.11l0.467,0.231
	c0.238,0.121,0.529,0.028,0.65-0.211c0.118-0.238,0.028-0.527-0.211-0.647l-0.477-0.238c-1.332-0.663-1.736-0.863-2.061-2.442
	c-0.283-1.379-0.568-4.686,2.915-5.694c1.259-0.364,2.375-0.258,3.319,0.311c1.12,0.67,1.931,1.962,2.284,3.644
	c0.058,0.258,0.313,0.428,0.576,0.368c0.258-0.051,0.427-0.308,0.372-0.573c-0.412-1.94-1.383-3.455-2.735-4.27
	C122.312,145.744,120.897,145.601,119.397,146.033z"/>
<path fill="#848086" d="M124.565,154.905c4.451-5.165-5.149-9.052-7.042-3.159C116.16,156.006,122.033,157.84,124.565,154.905z"/>
<path fill="#6F4B2D" d="M121.089,148.321c-1.939,0.154-3.405,1.348-4.024,3.275c-0.607,1.893,0.062,3.653,1.739,4.593
	c1.728,0.967,4.463,0.959,6.125-0.969c0.983-1.143,1.281-2.167,1.281-2.99c0-0.642-0.181-1.164-0.361-1.516
	C125.067,149.171,123.064,148.162,121.089,148.321 M119.275,155.348c-0.611-0.342-1.959-1.364-1.289-3.457
	c0.674-2.104,2.284-2.54,3.182-2.609c1.599-0.126,3.209,0.658,3.821,1.868c0.524,1.04,0.255,2.229-0.791,3.441l0,0
	C122.919,156.073,120.689,156.14,119.275,155.348 M124.93,155.222L124.93,155.222L124.93,155.222L124.93,155.222z"/>
<path fill="#A5A0AE" d="M121.963,153.126c1.587-0.956-0.69-2.257-1.332-0.987C120.113,153.15,121.293,153.525,121.963,153.126z"/>
<path fill="#6F4B2D" d="M120.2,151.919c-0.286,0.564-0.223,1.118,0.168,1.486c0.455,0.423,1.262,0.481,1.842,0.136
	c0-0.003,0-0.003,0-0.003c0.842-0.506,0.814-1.118,0.764-1.356c-0.105-0.53-0.627-0.953-1.266-1.038
	C121.066,151.056,120.486,151.355,120.2,151.919 M121.027,152.698c-0.063-0.058-0.052-0.172,0.035-0.341
	c0.125-0.255,0.353-0.282,0.521-0.26c0.247,0.036,0.428,0.185,0.447,0.278c0.004,0.005,0.004,0.005,0.004,0.008
	c0,0.058-0.082,0.185-0.318,0.324C121.485,152.847,121.152,152.816,121.027,152.698z"/>
<path fill="#6B667B" d="M151.321,155.767c-1.701-0.867-2.382-1.007-2.794-3.013c-0.596-2.88,0.334-5.411,3.256-6.254
	c3.331-0.964,5.552,1.223,6.207,4.315"/>
<path fill="#6F4B2D" d="M151.646,146.033c-2.951,0.853-4.295,3.401-3.59,6.819c0.415,2.036,1.183,2.416,2.574,3.11l0.471,0.231
	c0.239,0.121,0.529,0.028,0.65-0.211c0.118-0.238,0.023-0.524-0.216-0.647l-0.474-0.238c-1.336-0.663-1.735-0.863-2.061-2.442
	c-0.285-1.379-0.568-4.686,2.916-5.694c1.254-0.364,2.37-0.258,3.315,0.311c1.12,0.67,1.931,1.962,2.288,3.644
	c0.055,0.258,0.31,0.428,0.573,0.368c0.262-0.051,0.427-0.308,0.371-0.573c-0.411-1.94-1.382-3.455-2.734-4.27
	C154.561,145.744,153.15,145.601,151.646,146.033z"/>
<path fill="#848086" d="M156.814,154.905c4.456-5.165-5.149-9.052-7.038-3.159C148.413,156.006,154.282,157.84,156.814,154.905z"/>
<path fill="#6F4B2D" d="M153.343,148.321c-1.94,0.154-3.405,1.348-4.024,3.275c-0.607,1.893,0.058,3.653,1.74,4.593
	c1.728,0.967,4.46,0.959,6.12-0.969c0.987-1.143,1.285-2.167,1.285-2.99c0-0.642-0.184-1.164-0.364-1.516
	C157.316,149.171,155.317,148.162,153.343,148.321 M151.528,155.348c-0.611-0.342-1.963-1.364-1.294-3.457
	c0.674-2.104,2.284-2.54,3.186-2.609c1.599-0.126,3.206,0.658,3.82,1.868c0.525,1.04,0.251,2.229-0.791,3.441l0,0
	C155.168,156.073,152.942,156.14,151.528,155.348 M157.179,155.222L157.179,155.222L157.179,155.222L157.179,155.222z"/>
<path fill="#A5A0AE" d="M154.212,153.126c1.591-0.956-0.686-2.257-1.332-0.987C152.367,153.15,153.546,153.525,154.212,153.126z"/>
<path fill="#6F4B2D" d="M152.449,151.919c-0.286,0.564-0.223,1.12,0.169,1.486c0.454,0.423,1.266,0.481,1.845,0.136
	c0-0.003,0-0.003,0-0.003c0.838-0.506,0.815-1.118,0.764-1.356c-0.109-0.53-0.627-0.953-1.266-1.038
	C153.319,151.056,152.738,151.355,152.449,151.919 M153.276,152.698c-0.063-0.058-0.051-0.172,0.035-0.341
	c0.129-0.255,0.357-0.282,0.521-0.26c0.251,0.036,0.431,0.185,0.45,0.278c0,0.005,0,0.005,0,0.008c0,0.058-0.082,0.185-0.318,0.324
	C153.738,152.847,153.401,152.816,153.276,152.698z"/>
<path fill="#6B667B" d="M114.275,169.282c-1.697-0.867-2.379-1.007-2.794-3.013c-0.591-2.88,0.334-5.412,3.256-6.254
	c3.331-0.964,5.557,1.226,6.211,4.315"/>
<path fill="#6F4B2D" d="M114.604,159.551c-2.955,0.851-4.299,3.402-3.594,6.814c0.42,2.038,1.183,2.417,2.574,3.108l0.471,0.235
	c0.239,0.121,0.533,0.028,0.65-0.211c0.118-0.239,0.028-0.529-0.211-0.647l-0.482-0.239c-1.329-0.661-1.732-0.861-2.058-2.441
	c-0.286-1.376-0.568-4.686,2.916-5.694c1.257-0.36,2.374-0.258,3.319,0.311c1.117,0.67,1.932,1.962,2.289,3.639
	c0.055,0.263,0.31,0.428,0.572,0.373c0.259-0.055,0.428-0.31,0.373-0.573c-0.411-1.94-1.383-3.455-2.735-4.267
	C117.52,159.259,116.105,159.117,114.604,159.551z"/>
<path fill="#848086" d="M119.768,168.42c4.456-5.16-5.145-9.052-7.038-3.159C111.367,169.522,117.242,171.355,119.768,168.42z"/>
<path fill="#6F4B2D" d="M116.297,161.836c-1.939,0.154-3.405,1.348-4.024,3.275c-0.607,1.893,0.058,3.653,1.74,4.593
	c1.728,0.967,4.463,0.959,6.124-0.969c0.983-1.143,1.281-2.167,1.281-2.99c0-0.642-0.18-1.159-0.36-1.516
	C120.274,162.687,118.272,161.68,116.297,161.836 M114.483,168.862c-0.611-0.341-1.96-1.362-1.289-3.455
	c0.674-2.104,2.28-2.535,3.182-2.609c1.599-0.126,3.206,0.661,3.821,1.873c0.525,1.037,0.251,2.224-0.792,3.437l0,0
	C118.127,169.591,115.897,169.657,114.483,168.862 M120.137,168.737L120.137,168.737L120.137,168.737L120.137,168.737z"/>
<path fill="#A5A0AE" d="M117.171,166.641c1.586-0.957-0.69-2.258-1.332-0.989C115.322,166.668,116.5,167.04,117.171,166.641z"/>
<path fill="#6F4B2D" d="M115.407,165.433c-0.286,0.564-0.223,1.12,0.168,1.486c0.454,0.423,1.262,0.481,1.841,0.132l0,0
	c0.843-0.504,0.816-1.116,0.768-1.356c-0.11-0.525-0.631-0.953-1.269-1.038C116.273,164.571,115.693,164.87,115.407,165.433
	 M116.234,166.214c-0.062-0.059-0.055-0.172,0.035-0.341c0.125-0.255,0.353-0.282,0.521-0.26c0.247,0.036,0.427,0.185,0.447,0.278
	c0,0.005,0,0.005,0,0.008c0,0.058-0.078,0.185-0.317,0.324C116.693,166.362,116.36,166.331,116.234,166.214z"/>
<path fill="#6B667B" d="M151.462,168.376c-1.698-0.862-2.379-1.007-2.793-3.009c-0.592-2.88,0.332-5.411,3.256-6.254
	c3.33-0.964,5.556,1.223,6.21,4.315"/>
<path fill="#6F4B2D" d="M151.791,158.647c-2.955,0.853-4.298,3.401-3.593,6.814c0.419,2.038,1.187,2.422,2.578,3.111l0.467,0.236
	c0.239,0.12,0.533,0.026,0.65-0.211c0.121-0.239,0.028-0.529-0.211-0.647l-0.477-0.239c-1.333-0.667-1.736-0.867-2.061-2.443
	c-0.282-1.378-0.568-4.689,2.915-5.694c1.258-0.364,2.37-0.258,3.319,0.31c1.117,0.67,1.931,1.963,2.284,3.64
	c0.058,0.264,0.314,0.428,0.576,0.373c0.259-0.055,0.427-0.308,0.372-0.571c-0.411-1.941-1.383-3.457-2.734-4.267
	C154.706,158.357,153.292,158.213,151.791,158.647z"/>
<path fill="#848086" d="M156.959,167.518c4.451-5.165-5.153-9.052-7.042-3.159C148.554,168.62,154.428,170.453,156.959,167.518z"/>
<path fill="#6F4B2D" d="M153.483,160.936c-1.939,0.152-3.405,1.346-4.024,3.275c-0.607,1.891,0.058,3.651,1.739,4.592
	c1.728,0.969,4.464,0.956,6.125-0.973l0,0c1.755-2.034,1.329-3.695,0.921-4.502C157.46,161.781,155.458,160.775,153.483,160.936
	 M151.669,167.962c-0.611-0.345-1.959-1.364-1.289-3.457c0.674-2.103,2.281-2.538,3.182-2.609c1.599-0.129,3.205,0.657,3.82,1.868
	c0.525,1.04,0.255,2.231-0.791,3.441l0,0C155.313,168.687,153.084,168.753,151.669,167.962z"/>
<path fill="#A5A0AE" d="M154.357,165.735c1.587-0.955-0.689-2.252-1.332-0.983C152.508,165.763,153.687,166.139,154.357,165.735z"/>
<path fill="#6F4B2D" d="M152.594,164.532c-0.286,0.564-0.227,1.118,0.165,1.486c0.454,0.423,1.266,0.481,1.846,0.133l0,0
	c0.842-0.506,0.815-1.118,0.764-1.357c-0.105-0.524-0.627-0.955-1.262-1.037C153.46,163.67,152.88,163.969,152.594,164.532
	 M153.421,165.312c-0.063-0.058-0.051-0.175,0.035-0.341c0.125-0.255,0.352-0.282,0.521-0.258c0.247,0.035,0.427,0.185,0.447,0.277
	c0,0,0.004,0.004,0.004,0.008c0,0.058-0.082,0.18-0.321,0.324C153.879,165.461,153.546,165.43,153.421,165.312z"/>
<path fill="#A5A0AE" d="M99.353,157.796c0.341-2.461,3.632-5.438,4.914-7.718c1.454-2.578,1.881-3.331,5.223-3.563
	c5.105-0.345,10.451-0.564,15.572-0.005c2.817,0.311,5.666,0.232,8.519,0.232c4.64,0,9.134-0.294,13.746,0.005
	c2.472,0.156,4.831,0.226,7.331,0.223c0.925,0,5.572,0.635,6.219-0.048c1.101-1.155-5.599-7.311-6.399-8.753
	c2.962-1.888,4.671,1.348,6.277,3.605c1.521,2.144,2.978,4.056,3.754,6.494c-2.316,1.579-7.657,1.05-10.565,0.904
	c-3.205-0.156-6.528-0.428-9.722-0.349c-1.206,0.032-2.55,0.177-3.824,0.177c-2.673,0-5.364,0.105-7.943-0.008
	c-2.315-0.098-4.416-0.11-6.705,0.008c-3.867,0.2-7.778-0.267-11.618-0.09c-2.319,0.106-4.796-0.534-6.619,1.168
	c-2.049,1.919-4.031,5.199-5.231,7.718"/>
<path fill="#6F4B2D" d="M154.22,137.762c-0.215,0.138-0.286,0.419-0.161,0.642c0.29,0.525,1.172,1.486,2.289,2.705
	c1.422,1.555,4.38,4.787,4.169,5.505c-0.431,0.313-3.428,0.058-4.557-0.036l-1.301-0.09c-2.543,0.005-4.862-0.067-7.3-0.223
	c-3.092-0.2-6.183-0.133-9.173-0.07l-4.604,0.065l-1.426,0.005c-2.32,0.012-4.722,0.023-7.038-0.231
	c-5.235-0.577-10.619-0.338-15.662,0.002c-3.601,0.244-4.146,1.212-5.604,3.798c-0.451,0.798-1.164,1.695-1.92,2.648
	c-1.387,1.744-2.821,3.551-3.056,5.247c-0.035,0.263,0.148,0.506,0.411,0.545c0.267,0.035,0.51-0.149,0.545-0.412
	c0.2-1.438,1.552-3.136,2.856-4.78c0.78-0.98,1.517-1.909,2.002-2.77c1.45-2.571,1.752-3.103,4.832-3.312
	c4.996-0.341,10.329-0.575,15.489-0.012c2.375,0.263,4.801,0.251,7.148,0.244l1.422-0.007l4.624-0.064
	c2.97-0.067,6.042-0.129,9.095,0.064c2.453,0.159,4.796,0.23,7.358,0.226l1.219,0.087c3.119,0.262,4.805,0.294,5.352-0.283
	c0.172-0.18,0.255-0.403,0.255-0.665c0-1.196-1.759-3.222-4.428-6.133c-0.74-0.812-1.454-1.587-1.861-2.104
	c1.826-0.843,3.053,0.623,4.643,2.946l0.525,0.757l0.391,0.548c1.258,1.764,2.429,3.448,3.142,5.424
	c-2.053,1.1-6.113,0.886-8.871,0.725l-3.362-0.189c-2.461-0.141-5-0.285-7.453-0.223l-1.642,0.082l-2.171,0.094l-2.629,0.023
	c-1.756,0.023-3.57,0.046-5.294-0.028c-2.488-0.111-4.573-0.111-6.747,0.004c-1.955,0.102-3.961,0.028-5.901-0.038
	c-1.877-0.072-3.817-0.138-5.713-0.052l-1.661-0.012c-1.838-0.058-3.738-0.118-5.267,1.309c-2.124,1.991-4.149,5.369-5.337,7.865
	c-0.114,0.239-0.012,0.529,0.228,0.642c0.243,0.115,0.529,0.012,0.643-0.228c1.152-2.417,3.099-5.678,5.125-7.574
	c1.238-1.156,2.86-1.106,4.577-1.051l1.735,0.012c1.858-0.085,3.781-0.015,5.638,0.052c1.959,0.069,3.985,0.141,5.98,0.039
	c2.148-0.111,4.2-0.115,6.661-0.008c1.748,0.078,3.578,0.055,5.345,0.032l2.617-0.023l2.234-0.094l1.603-0.083
	c2.414-0.059,4.933,0.085,7.374,0.224l3.362,0.184c3.213,0.189,7.614,0.447,9.812-1.046c0.177-0.12,0.251-0.345,0.188-0.548
	c-0.737-2.296-2.045-4.13-3.432-6.074l-0.392-0.549l-0.513-0.74C159.212,138.674,157.261,135.822,154.22,137.762z"/>
<path fill="#A5A0AE" d="M156.156,135.602c-1.721,2.461-5.752,8.229-4.342,11.329c0.749,1.645,1.788,3.354,2.594,5.082
	c1.293,2.767,1.893,6.955,4.228,9.036c0.925-0.329,1.454-1.21,2.32-1.7c-1.697-4.593-5.561-8.861-6.38-13.825
	c-0.529-3.201,3.398-8.017,4.738-11.05"/>
<path fill="#6F4B2D" d="M158.872,134.279c-0.396,0.897-1.039,1.975-1.716,3.118c-1.466,2.47-3.112,5.231-3.112,7.517
	c0,0.235,0.019,0.465,0.055,0.688c0.501,3.036,2.104,5.808,3.652,8.489c1.003,1.735,1.932,3.389,2.602,5.093
	c-0.258,0.188-0.497,0.388-0.72,0.591c-0.291,0.267-0.576,0.494-0.886,0.667c-1.332-1.344-2.065-3.472-2.759-5.564
	c-0.364-1.1-0.714-2.147-1.143-3.069l-1.289-2.524l-1.301-2.55c-0.172-0.384-0.251-0.819-0.251-1.294
	c0-3.049,3.217-7.66,4.541-9.552c0.058-0.087,0.086-0.181,0.086-0.275c0-0.152-0.07-0.304-0.208-0.396
	c-0.215-0.152-0.517-0.102-0.67,0.118c-1.916,2.743-5.902,8.448-4.377,11.795l1.324,2.61l1.269,2.477
	c0.408,0.873,0.744,1.888,1.101,2.966c0.772,2.328,1.568,4.734,3.245,6.227c0.129,0.118,0.313,0.152,0.482,0.094
	c0.615-0.221,1.058-0.623,1.489-1.016c0.297-0.274,0.58-0.532,0.909-0.717c0.204-0.117,0.298-0.368,0.215-0.593
	c-0.705-1.901-1.783-3.768-2.825-5.575c-1.505-2.602-3.061-5.295-3.535-8.16c-0.337-2.053,1.399-4.976,2.935-7.555
	c0.694-1.167,1.348-2.273,1.767-3.225c0.11-0.242-0.004-0.529-0.246-0.635C159.263,133.925,158.977,134.035,158.872,134.279z"/>
<path fill="#A5A0AE" d="M99.126,158.02c-0.659,3.375,12.186,2.227,14.263,2.48c13.702,1.692,27.708,0.055,41.442,0.678
	c1.383,0.062,7.496,0.101,6.102-2.699c-0.737-1.479-4.358-0.398-5.639-0.322c-2.931,0.172-5.846,0.764-8.805,0.764
	c-3.879,0-7.66-0.224-11.5-0.224c-8.793,0-17.465,0.373-26.207-0.678c-1.999-0.239-4.373,0.644-6.27-0.224"/>
<path fill="#6F4B2D" d="M156.391,157.514l-1.124,0.161l-3.668,0.361c-1.673,0.2-3.405,0.403-5.11,0.403l-11.5-0.226l-5.494,0.035
	c-6.771,0.059-13.77,0.121-20.655-0.706c-0.83-0.097-1.712-0.019-2.563,0.059c-1.297,0.118-2.524,0.231-3.565-0.244
	c-0.243-0.112-0.529-0.002-0.638,0.239c-0.11,0.239-0.005,0.529,0.238,0.639c1.273,0.58,2.688,0.451,4.056,0.324
	c0.835-0.074,1.626-0.148,2.355-0.058c6.952,0.835,13.981,0.771,20.779,0.709l5.486-0.032l11.5,0.225
	c1.764,0,3.519-0.208,5.224-0.408l3.613-0.357l1.226-0.172c1.32-0.224,3.538-0.596,3.95,0.228c0.246,0.499,0.145,0.753,0.051,0.901
	c-0.591,0.905-3.37,1.207-5.701,1.102c-5.564-0.251-11.261-0.133-16.775-0.016c-8.111,0.168-16.497,0.344-24.628-0.658
	c-0.501-0.064-1.473-0.048-2.821-0.032c-3.382,0.046-9.674,0.129-10.881-1.313c-0.141-0.172-0.188-0.343-0.145-0.564
	c0.051-0.262-0.118-0.517-0.381-0.568c-0.262-0.051-0.513,0.121-0.564,0.38c-0.102,0.505,0.02,0.976,0.349,1.369
	c1.383,1.661,6.505,1.732,11.634,1.665c1.21-0.02,2.257-0.032,2.692,0.019c8.198,1.015,16.622,0.84,24.769,0.667
	c5.494-0.115,11.176-0.235,16.708,0.016c1.266,0.058,5.478,0.113,6.552-1.541c0.239-0.368,0.434-0.987,0.004-1.852
	C160.635,156.8,158.181,157.212,156.391,157.514z"/>
<path fill="#A5A0AE" d="M115.333,135.148c-2.006,2.547-4.456,6.555-3.206,9.647c1.14,2.818,2.535,5.518,3.871,8.245
	c1.262,2.579,0.991,5.252,4.17,4.875c0.709-0.085-1.482-4.518-1.615-4.729c-1.246-1.947-1.661-4.146-2.48-6.308
	c-0.682-1.803-1.626-3.522-1.023-5.466c0.674-2.148,2.88-3.814,3.891-5.808"/>
<path fill="#6F4B2D" d="M114.953,134.849c-2.221,2.822-4.592,6.866-3.272,10.126c0.92,2.28,2.026,4.51,3.092,6.669l0.791,1.606
	c0.313,0.639,0.524,1.286,0.736,1.911c0.607,1.831,1.18,3.555,3.922,3.23c0.22-0.028,0.396-0.157,0.49-0.357
	c0.454-0.96-1.728-5.07-1.752-5.109c-0.823-1.286-1.269-2.684-1.739-4.166l-0.698-2.057l-0.329-0.826
	c-0.587-1.463-1.144-2.841-0.682-4.323c0.353-1.133,1.176-2.128,2.041-3.179c0.667-0.81,1.356-1.649,1.818-2.558
	c0.121-0.235,0.024-0.529-0.211-0.647c-0.239-0.122-0.529-0.028-0.65,0.211c-0.411,0.814-1.039,1.576-1.701,2.379
	c-0.889,1.076-1.811,2.194-2.217,3.503c-0.153,0.491-0.215,0.964-0.215,1.429c0,1.246,0.466,2.41,0.925,3.542l0.321,0.812
	l0.677,2.006c0.471,1.472,0.956,3.002,1.846,4.392c0.29,0.491,1.508,3.128,1.653,4.005c-1.606,0.094-1.975-0.76-2.586-2.593
	c-0.208-0.624-0.443-1.333-0.784-2.031l-0.791-1.61c-1.058-2.144-2.155-4.357-3.061-6.602c-1.211-2.982,1.446-7.021,3.135-9.169
	c0.165-0.208,0.13-0.509-0.082-0.677C115.423,134.603,115.122,134.638,114.953,134.849z"/>
<path fill="#A5A0AE" d="M156.638,100.998c-0.721,1.211-0.557,3.013-0.784,4.397c-0.364,2.218-0.842,4.428-1.148,6.65
	c-0.435,3.177-0.873,6.308-1.512,9.458c-0.999,4.894-1.582,10.588-3.287,15.161c0.733-0.087,1.575,0.145,2.163,0.506
	c1.093-2.335,1.363-5.615,2.096-8.186c0.863-3.039,1.129-6.14,1.802-9.177c0.607-2.723,1.199-5.514,1.865-8.189
	c0.427-1.739,1.015-5.936,2.182-6.998"/>
<path fill="#6F4B2D" d="M156.223,100.752c-0.553,0.932-0.635,2.096-0.714,3.221l-0.133,1.348l-0.462,2.602l-0.685,4.056
	c-0.478,3.495-0.893,6.406-1.509,9.432l-0.814,4.498c-0.62,3.641-1.262,7.403-2.454,10.588c-0.058,0.157-0.031,0.334,0.075,0.465
	c0.102,0.133,0.271,0.2,0.434,0.181c0.58-0.072,1.309,0.106,1.858,0.442c0.118,0.072,0.258,0.087,0.391,0.051
	c0.13-0.042,0.239-0.136,0.298-0.258c0.71-1.521,1.081-3.402,1.438-5.215l0.682-3.046c0.517-1.822,0.827-3.678,1.125-5.478
	l0.686-3.727l0.415-1.869l1.446-6.313l0.318-1.462c0.368-1.822,0.929-4.573,1.724-5.294c0.196-0.18,0.211-0.486,0.032-0.682
	c-0.18-0.2-0.486-0.211-0.681-0.031c-0.949,0.862-1.478,3.142-2.022,5.811l-0.306,1.426l-1.454,6.336l-0.412,1.868l-0.697,3.778
	c-0.294,1.772-0.6,3.601-1.101,5.368l-0.701,3.123c-0.314,1.592-0.647,3.218-1.196,4.562c-0.404-0.172-0.819-0.287-1.246-0.326
	c1.081-3.126,1.708-6.68,2.3-10.141l0.807-4.466c0.619-3.053,1.039-5.98,1.521-9.49l0.677-4.013l0.467-2.622l0.145-1.438
	c0.07-1.016,0.145-2.061,0.58-2.794c0.042-0.078,0.067-0.165,0.067-0.247c0-0.165-0.083-0.325-0.235-0.415
	C156.653,100.446,156.36,100.524,156.223,100.752 M149.906,136.182c-0.019,0-0.039,0-0.058,0
	C149.867,136.182,149.886,136.182,149.906,136.182z"/>
<path fill="#A5A0AE" d="M123.334,101.24c0,5.96,1.916,12.07,1.603,17.967c-0.294,5.462,0.443,10.991,0.121,16.497
	c0.839,0.348,1.811,0.29,2.579,0.492c0.477-6.379,0.043-12.664,0.043-19.032c0-3.076-0.028-6.109-0.243-9.162
	c-0.129-1.818-1.054-5.305-0.239-6.763"/>
<path fill="#6F4B2D" d="M126.774,101.002c-0.29,0.521-0.391,1.218-0.391,1.998c0,1.027,0.176,2.191,0.341,3.276l0.231,1.76
	c0.223,3.134,0.243,6.23,0.243,9.13l0.091,6.172c0.043,2.006,0.09,4.047,0.09,6.1c0,2.061-0.055,4.134-0.196,6.2
	c-0.251-0.044-0.51-0.083-0.51-0.083c-0.381-0.048-0.76-0.106-1.121-0.211c0.044-0.897,0.075-1.799,0.075-2.703
	c0-1.796-0.071-3.586-0.141-5.341c-0.067-1.737-0.138-3.515-0.138-5.282c0-0.933,0.02-1.865,0.071-2.786
	c0.023-0.451,0.035-0.905,0.035-1.356c0-2.786-0.419-5.619-0.823-8.373c-0.4-2.723-0.815-5.541-0.815-8.261
	c0-0.266-0.215-0.485-0.482-0.485c-0.266,0-0.482,0.219-0.482,0.485c0,2.79,0.42,5.644,0.823,8.402
	c0.466,3.155,0.944,6.419,0.78,9.538c-0.145,2.715-0.039,5.482,0.066,8.154c0.106,2.743,0.216,5.571,0.055,8.343
	c-0.008,0.203,0.11,0.396,0.298,0.474c0.561,0.23,1.16,0.301,1.688,0.361l0.949,0.151c0.133,0.023,0.294-0.007,0.399-0.09
	c0.106-0.087,0.196-0.205,0.208-0.338c0.325-4.341,0.227-8.702,0.133-12.923l-0.091-6.148c0-2.919-0.02-6.03-0.243-9.196
	l-0.239-1.841c-0.255-1.665-0.572-3.738-0.062-4.651c0.129-0.236,0.048-0.529-0.188-0.659
	C127.198,100.689,126.904,100.77,126.774,101.002 M125.545,135.705c0,0,0,0.018-0.005,0.028
	C125.545,135.723,125.54,135.716,125.545,135.705z"/>
<path fill="#A5A0AE" d="M142.159,101.48c-0.028,7.872-0.255,15.76-0.243,23.647c0.008,3.881-0.69,7.657-0.447,11.548
	c0.687,0.062,1.419,0.062,2.101,0c1.462-6.09,1.737-12.947,1.724-19.263c-0.004-3.002,0.584-5.78,0.725-8.679
	c0.129-2.598,0.004-5.172,0.964-7.493"/>
<path fill="#6F4B2D" d="M146.54,101.053c-0.819,1.971-0.886,4.126-0.949,6.21l-0.055,1.442l-0.341,3.644
	c-0.188,1.623-0.384,3.295-0.384,5.035c0,0.008,0,0.231,0,0.332c0,5.416-0.215,12.312-1.645,18.496
	c-0.408,0.023-0.819,0.023-1.227,0c-0.019-0.419-0.039-0.842-0.039-1.266c0-1.631,0.125-3.26,0.247-4.842
	c0.125-1.608,0.251-3.269,0.251-4.929c0-0.016,0.121-12.932,0.121-12.932s0.121-10.764,0.121-10.768
	c0-0.263-0.211-0.474-0.478-0.478c-0.266-0.004-0.485,0.216-0.485,0.482l-0.122,10.752l-0.121,12.895
	c0.004,1.642-0.125,3.296-0.247,4.902c-0.168,2.171-0.341,4.417-0.2,6.678c0.016,0.239,0.2,0.426,0.439,0.451
	c0.717,0.067,1.473,0.067,2.191,0c0.205-0.021,0.376-0.17,0.424-0.37c1.556-6.485,1.744-13.761,1.735-19.376
	c0-1.693,0.192-3.351,0.381-4.953l0.345-3.707l0.055-1.457c0.063-2.089,0.125-4.064,0.874-5.871c0.102-0.247-0.016-0.529-0.258-0.63
	C146.924,100.692,146.641,100.806,146.54,101.053z"/>
<path fill="#A5A0AE" d="M108.855,101.24c0.357,1.874,0.624,3.696,1.149,5.557c0.995,3.538,1.951,6.865,2.727,10.419
	c0.505,2.317,0.956,4.64,1.493,6.948c0.862,3.683,2.868,8.55,2.558,12.268c-0.847,0.055-1.732,0.055-2.582,0.004
	c-0.22-3.498-2.026-7.194-2.884-10.598c-0.803-3.186-1.379-6.383-2.159-9.578c-0.777-3.186-1.493-6.328-2.284-9.463
	c-0.408-1.615-1.141-3.201-1.395-4.835"/>
<path fill="#6F4B2D" d="M108.77,100.763c-0.235,0.043-0.397,0.251-0.397,0.477c0,0.028,0.005,0.059,0.008,0.087l0.247,1.352
	c0.251,1.387,0.505,2.816,0.909,4.247l0.211,0.745c0.921,3.268,1.791,6.36,2.512,9.647l0.557,2.645l0.937,4.31l0.952,3.437
	c0.767,2.598,1.625,5.51,1.625,7.935c0,0.11-0.007,0.216-0.012,0.321c-0.564,0.023-1.129,0.023-1.692,0
	c-0.211-2.171-0.949-4.389-1.685-6.536c-0.439-1.29-0.854-2.512-1.16-3.711l-1.14-5.043l-1.015-4.53l-0.925-3.859l-1.364-5.612
	l-0.607-1.979c-0.313-0.921-0.63-1.877-0.776-2.81c-0.044-0.262-0.291-0.443-0.553-0.403c-0.262,0.043-0.443,0.29-0.404,0.552
	c0.157,1.015,0.494,2.006,0.816,2.97l0.587,1.908l1.359,5.595l0.925,3.864l1.011,4.502l1.152,5.079
	c0.31,1.242,0.753,2.535,1.18,3.789c0.764,2.229,1.552,4.541,1.688,6.719c0.016,0.244,0.208,0.439,0.451,0.455
	c0.87,0.055,1.783,0.055,2.646-0.005c0.238-0.016,0.431-0.205,0.45-0.442c0.228-2.74-0.76-6.082-1.633-9.033l-0.937-3.385
	l-0.929-4.291l-0.564-2.649c-0.725-3.319-1.599-6.423-2.524-9.706l-0.211-0.745c-0.388-1.382-0.631-2.727-0.886-4.154l-0.251-1.363
	C109.283,100.885,109.032,100.716,108.77,100.763z"/>
<path fill="#A5A0AE" d="M167.41,112.088c-0.215,0.533-3.484,7.754-3.574,7.716c-0.604-0.274-0.956-0.357-1.61-0.502
	c0.259-4.613,2.66-9.322,4.388-13.512c1.568-3.784,4.314-6.085,8.072-7.605c1.32-0.537,4.432-1.344,2.884,1.183
	c-0.846,1.376-3.382,1.822-4.631,2.763c-1.439,1.078-2.641,2.307-3.445,3.997C168.578,108.051,168.193,110.124,167.41,112.088z"/>
<path fill="#6F4B2D" d="M174.506,97.738c-4.165,1.685-6.814,4.184-8.335,7.868l-0.952,2.234c-1.529,3.535-3.256,7.543-3.476,11.434
	c-0.012,0.239,0.145,0.451,0.376,0.501c0.647,0.141,0.956,0.211,1.516,0.466c0.122,0.055,0.259,0.055,0.381,0.008
	c0.537-0.215,3.808-7.908,3.84-7.982l0.877-2.61c0.337-1.11,0.686-2.257,1.195-3.323c0.69-1.446,1.705-2.621,3.299-3.821
	c0.434-0.329,1.078-0.604,1.755-0.893c1.179-0.506,2.397-1.026,2.997-2.003c0.145-0.235,0.494-0.807,0.494-1.364
	c0-0.238-0.062-0.477-0.238-0.685C177.449,96.64,175.18,97.463,174.506,97.738 M166.104,108.224l0.957-2.249
	c1.419-3.428,3.898-5.76,7.805-7.344c1.344-0.544,2.473-0.623,2.633-0.434c0,0,0.008,0.019,0.008,0.067
	c0,0.106-0.047,0.357-0.348,0.851c-0.439,0.713-1.517,1.175-2.555,1.622c-0.733,0.313-1.426,0.611-1.955,1.006
	c-1.701,1.278-2.841,2.606-3.59,4.177c-0.541,1.132-0.901,2.312-1.25,3.456l-0.847,2.53c0-0.004,0-0.004,0-0.004
	s0,0.004-0.004,0.004c-0.223,0.561-2.692,5.984-3.346,7.297c-0.274-0.106-0.568-0.196-0.85-0.267
	C163.056,115.344,164.592,111.727,166.104,108.224 M166.963,111.907L166.963,111.907L166.963,111.907L166.963,111.907
	 M167.856,112.263c0,0.005,0,0.005,0,0.005S167.861,112.26,167.856,112.263z"/>
<path fill="#A5A0AE" d="M112.884,114.148c-0.271,4.409,1.402,9.659,2.021,14.075c0.447,3.182,1.454,6.352,2.088,9.416
	c0.749,0.149,1.865,0.149,2.613,0c-0.928-4.166-1.43-8.367-2.001-12.692c-0.534-4.028-2.046-7.559-1.677-11.752"/>
<path fill="#6F4B2D" d="M115.447,113.153c-0.04,0.454-0.055,0.905-0.055,1.348c0,2.28,0.477,4.4,0.948,6.457
	c0.298,1.313,0.604,2.664,0.788,4.051l0.185,1.408c0.486,3.718,0.964,7.241,1.724,10.791c-0.544,0.055-1.129,0.055-1.649-0.016
	c-0.137-0.573-0.76-3.209-0.76-3.209c-0.474-1.909-0.967-3.883-1.242-5.827c-0.208-1.482-0.525-3.018-0.862-4.643
	c-0.584-2.826-1.183-5.734-1.183-8.37c0-0.325,0.008-0.65,0.028-0.964c0-0.012,0-0.023,0-0.032c0-0.254-0.196-0.466-0.451-0.481
	c-0.267-0.016-0.494,0.188-0.513,0.454c-0.185,3.009,0.505,6.352,1.176,9.589c0.333,1.61,0.647,3.131,0.85,4.58
	c0.282,1.999,0.78,3.994,1.266,5.929l0.827,3.519c0.047,0.185,0.196,0.341,0.38,0.376c0.816,0.161,1.995,0.161,2.802,0
	c0.13-0.028,0.239-0.102,0.31-0.211c0.071-0.108,0.094-0.242,0.067-0.368c-0.823-3.691-1.301-7.359-1.811-11.242l-0.184-1.406
	c-0.188-1.435-0.501-2.81-0.803-4.138c-0.568-2.5-1.101-4.859-0.87-7.512c0.023-0.262-0.172-0.497-0.439-0.521
	C115.705,112.691,115.474,112.886,115.447,113.153z"/>
<path fill="#A5A0AE" d="M127.097,113.529c0.047,3.73,0.058,9.67,0.318,14.185c0.157,2.683-0.082,6.982,1.093,9.377
	c0.411,0.046,1.512-0.126,1.92-0.326c0.282-4.2,0.052-8.519,0.052-12.738c0-3.598-0.8-7.756-0.337-11.153"/>
<path fill="#6F4B2D" d="M129.659,112.808c-0.106,0.784-0.145,1.606-0.145,2.449c0,1.462,0.121,2.983,0.243,4.471
	c0.118,1.438,0.235,2.931,0.235,4.299l0.047,3.953c0.019,1.306,0.044,2.633,0.044,3.961c0,1.502-0.039,3.002-0.129,4.479
	c-0.325,0.092-0.776,0.165-1.105,0.185c-0.757-1.774-0.835-4.572-0.886-6.865l-0.067-2.057c-0.208-3.641-0.255-8.17-0.294-11.81
	l-0.023-2.347c-0.005-0.266-0.223-0.477-0.49-0.477c-0.267,0.004-0.478,0.223-0.478,0.49l0.028,2.344
	c0.039,3.652,0.086,8.193,0.294,11.86l0.067,2.022c0.055,2.622,0.118,5.597,1.073,7.54c0.075,0.148,0.215,0.251,0.38,0.265
	c0.482,0.059,1.673-0.12,2.187-0.371c0.153-0.075,0.259-0.228,0.271-0.4c0.196-2.919,0.145-5.925,0.094-8.832l-0.042-3.938
	c0-1.408-0.122-2.916-0.244-4.377c-0.185-2.301-0.376-4.675-0.098-6.709c0.035-0.267-0.148-0.509-0.415-0.545
	C129.941,112.362,129.698,112.546,129.659,112.808z"/>
<path fill="#A5A0AE" d="M139.949,112.875c-0.435,7.829-1.497,16.207-0.964,24.126c0.681,0.138,1.34,0.005,1.92-0.321
	c1.324-3.594,0.717-8.249,1.403-12.034c0.775-4.291,1.363-8.213,1.363-12.724"/>
<path fill="#6F4B2D" d="M143.189,111.922c0,4.279-0.521,8.01-1.356,12.637c-0.282,1.556-0.348,3.269-0.415,4.929
	c-0.098,2.351-0.208,4.773-0.905,6.811c-0.345,0.168-0.697,0.277-1.058,0.265c-0.086-1.383-0.132-2.774-0.132-4.185
	c0-4.302,0.332-8.695,0.658-12.977l0.451-6.5c0-0.012,0.004-0.025,0.004-0.036c0-0.251-0.195-0.454-0.451-0.474
	c-0.266-0.019-0.497,0.188-0.517,0.454l-0.447,6.486c-0.447,5.85-0.905,11.9-0.517,17.704c0.015,0.215,0.172,0.396,0.388,0.439
	c0.768,0.152,1.548,0.023,2.254-0.377c0.098-0.059,0.176-0.145,0.215-0.255c0.816-2.217,0.921-4.811,1.023-7.32
	c0.067-1.7,0.13-3.302,0.4-4.792c0.847-4.682,1.371-8.456,1.371-12.81c0-0.267-0.215-0.485-0.482-0.485
	C143.405,111.437,143.189,111.655,143.189,111.922z"/>
<path fill="#A5A0AE" d="M154.157,111.602c-1.469,5.388-2.75,10.838-4.04,16.242c-0.791,3.322-1.09,6.661-1.998,9.789
	c0.709,0.267,1.634,0.531,2.335,0.571c0.835-4.537,2.081-9.054,3.288-13.573c0.557-2.069,1.133-4.232,1.693-6.349
	c0.494-1.853,1.619-4.161,1.767-6.042"/>
<path fill="#6F4B2D" d="M153.691,111.476c-1.356,4.965-2.563,10.046-3.735,14.96l-0.31,1.298c-0.348,1.454-0.6,2.926-0.847,4.345
	c-0.329,1.888-0.638,3.676-1.143,5.415c-0.071,0.243,0.055,0.501,0.294,0.588c0.338,0.129,1.509,0.548,2.477,0.604
	c0.243,0.016,0.458-0.154,0.501-0.391c0.772-4.187,1.913-8.438,3.013-12.545l0.267-0.996l1.696-6.347l0.697-2.128
	c0.482-1.348,0.98-2.743,1.082-4.004c0.019-0.263-0.176-0.497-0.443-0.517c-0.266-0.02-0.497,0.176-0.521,0.442
	c-0.09,1.132-0.564,2.465-1.026,3.755l-0.725,2.206l-1.693,6.343l-0.267,0.996c-1.065,3.973-2.154,8.08-2.927,12.151
	c-0.466-0.069-0.94-0.191-1.391-0.341c0.451-1.661,0.768-3.385,1.062-5.065c0.243-1.408,0.494-2.861,0.835-4.287l0.31-1.297
	c1.168-4.906,2.375-9.979,3.727-14.93c0.012-0.042,0.015-0.086,0.015-0.129c0-0.211-0.141-0.404-0.352-0.462
	C154.028,111.068,153.762,111.218,153.691,111.476z"/>
<path fill="#A5A0AE" d="M152.81,101.147c1.034-3.484,1.085-7.351,2.433-10.718c0.525-1.32,1.231-2.715,2.579-3.444
	c0.925-0.501,3.428-1.328,3.844,0.176c0.301,1.093-1.83,1.582-2.602,2.36c-1.026,1.03-1.392,2.234-1.744,3.545
	c-0.721,2.68-1.141,5.624-1.802,8.299"/>
<path fill="#6F4B2D" d="M157.59,86.563c-1.489,0.807-2.25,2.315-2.798,3.688c-0.784,1.962-1.14,4.098-1.486,6.167
	c-0.258,1.532-0.521,3.119-0.96,4.593c-0.075,0.255,0.07,0.525,0.324,0.6c0.255,0.078,0.526-0.072,0.601-0.326
	c0.454-1.532,0.724-3.147,0.987-4.706c0.337-2.018,0.682-4.103,1.43-5.967c0.482-1.211,1.141-2.54,2.359-3.197
	c0.749-0.408,2.132-0.816,2.798-0.533c0.188,0.078,0.298,0.208,0.352,0.411c0.091,0.318-0.477,0.654-1.23,1.066
	c-0.459,0.247-0.929,0.505-1.246,0.823c-1.085,1.093-1.489,2.351-1.869,3.761c-0.396,1.473-0.702,3.033-1.003,4.546l-0.803,3.761
	c-0.055,0.263,0.106,0.533,0.368,0.592c0.258,0.055,0.513-0.098,0.568-0.357l0.815-3.809c0.294-1.496,0.603-3.04,0.987-4.483
	c0.357-1.32,0.702-2.406,1.619-3.33c0.219-0.219,0.63-0.444,1.026-0.658c0.89-0.482,1.998-1.09,1.7-2.171
	c-0.137-0.486-0.451-0.847-0.909-1.043C160.031,85.485,158.198,86.233,157.59,86.563z"/>
<path fill="#A5A0AE" d="M96.308,99.089c-0.285,8.794,3.941,17.9,5.674,26.395c0.815,3.986,0.886,13.519,5.744,14.624
	c3.699,0.84,1.105-2.14-0.16-3.899c-1.728-2.402-1.877-4.905-2.445-7.707c-1.043-5.165-2.328-10.662-3.382-15.898
	c-0.318-1.572-1.153-3.056-1.446-4.648c-0.301-1.625-0.321-3.553-0.94-5.149"/>
<path fill="#6F4B2D" d="M95.826,99.074c-0.192,5.851,1.591,11.834,3.312,17.618c0.917,3.08,1.783,5.991,2.374,8.891l0.434,2.908
	c0.615,4.693,1.454,11.132,5.674,12.089c0.792,0.18,1.901,0.341,2.34-0.338c0.564-0.866-0.466-2.25-1.56-3.711l-0.443-0.603
	c-1.344-1.865-1.685-3.775-2.076-5.98l-0.286-1.539l-1.665-7.822l-1.716-8.08c-0.161-0.799-0.451-1.575-0.733-2.328
	c-0.294-0.787-0.572-1.532-0.713-2.308l-0.231-1.657c-0.148-1.207-0.298-2.457-0.733-3.577c-0.098-0.251-0.376-0.373-0.624-0.274
	c-0.192,0.07-0.31,0.254-0.31,0.446c0,0.058,0.012,0.118,0.031,0.176c0.392,1.007,0.537,2.194,0.674,3.342l0.244,1.721
	c0.157,0.858,0.462,1.677,0.76,2.472c0.278,0.745,0.541,1.454,0.686,2.179l1.72,8.092l1.662,7.809l0.282,1.518
	c0.399,2.229,0.772,4.33,2.245,6.375l0.451,0.614c0.474,0.627,1.535,2.058,1.535,2.537c0,0.031-0.004,0.054-0.012,0.078
	c-0.004-0.005-0.231,0.164-1.316-0.083c-3.562-0.807-4.349-6.858-4.926-11.274l-0.451-2.977c-0.6-2.939-1.512-6.004-2.394-8.969
	c-1.701-5.71-3.456-11.615-3.272-17.312c0.008-0.267-0.199-0.491-0.466-0.502C96.058,98.597,95.834,98.807,95.826,99.074z"/>
<path fill="#A5A0AE" d="M109.846,131.304c-0.529-4.138-0.913-8.296-1.505-12.422c-0.204-1.422-0.129-4.49-1.026-5.634
	c-0.451-0.572-3.523-1.034-3.495-0.873c0.937,5.925,2.543,11.744,3.315,17.762c0.392,3.076,0.098,6.627,1.062,9.499
	c12.724,0.255,25.811,0.388,38.864,0.388c2.817,0,5.634-0.005,8.449,0c4.134,0.007,4.063-1.281,5-5.075
	c1.368-5.537,2.95-11.047,4.666-16.485c0.368-1.164,2.527-4.746,1.959-5.933c-1.104-2.307-3.522-0.031-4.102,1.223
	c-1.188,2.574-1.536,5.588-2.088,8.342c-1.011,5.024-2.95,10.242-4.13,15.172c-2.763,0.749-5.814,0.388-8.746,0.388
	c-2.868,0-5.681,0.007-8.456-0.341c-5.744-0.717-11.763,0.031-17.594-0.412c-2.876-0.221-5.228-0.65-8.12-0.6
	c-1.12,0.016-2.857,0.671-3.652-0.069C109.643,135.668,109.969,132.224,109.846,131.304z"/>
<path fill="#6F4B2D" d="M165.807,111.056c-1.329,0.008-2.743,1.482-3.213,2.496c-0.956,2.069-1.376,4.389-1.783,6.635l-0.341,1.81
	c-0.564,2.817-1.439,5.737-2.284,8.566c-0.62,2.077-1.255,4.217-1.759,6.285c-1.948,0.474-4.087,0.431-6.167,0.368l-2.191-0.043
	h-0.165c-2.848,0-5.541,0-8.233-0.337c-3.201-0.4-6.529-0.349-9.746-0.298c-2.597,0.038-5.278,0.082-7.868-0.118l-2.735-0.262
	c-1.787-0.191-3.476-0.373-5.431-0.341l-1.207,0.141c-0.811,0.133-1.724,0.278-2.108-0.078c-0.192-0.239-0.228-1.39-0.228-2.327
	c0-0.298,0.005-0.573,0.008-0.793l-0.028-1.519l-0.603-5.107l-0.905-7.324l-0.121-1.356c-0.114-1.579-0.251-3.546-1.006-4.506
	c-0.56-0.717-3.598-1.235-4.052-1.039c-0.2,0.09-0.333,0.321-0.298,0.536c0.415,2.623,0.969,5.263,1.505,7.818
	c0.678,3.236,1.38,6.582,1.811,9.933c0.138,1.07,0.188,2.188,0.244,3.362c0.098,2.119,0.196,4.31,0.842,6.227
	c0.063,0.195,0.243,0.324,0.447,0.329c12.81,0.258,25.889,0.391,38.871,0.391h8.449c4.169,0.004,4.51-1.426,5.255-4.557l0.215-0.886
	c1.297-5.259,2.821-10.639,4.66-16.458l0.627-1.426c1.027-2.159,1.772-3.883,1.305-4.863
	C167.068,111.269,166.335,111.053,165.807,111.056 M156.94,137.734c0.172-0.046,0.301-0.185,0.345-0.352
	c0.51-2.137,1.179-4.377,1.825-6.545c0.851-2.846,1.732-5.791,2.304-8.648l0.344-1.83c0.395-2.187,0.807-4.444,1.712-6.403
	c0.357-0.775,1.501-1.931,2.343-1.935c0.133,0,0.541-0.004,0.886,0.717c0.306,0.639-0.74,2.845-1.305,4.028l-0.678,1.552
	c-1.845,5.838-3.374,11.238-4.674,16.517l-0.215,0.893c-0.737,3.083-0.909,3.817-4.314,3.812h-8.452
	c-12.857,0-25.799-0.129-38.488-0.384c-0.513-1.719-0.623-3.707-0.709-5.638c-0.055-1.144-0.11-2.331-0.251-3.44
	c-0.436-3.39-1.141-6.756-1.822-10.013c-0.494-2.359-0.995-4.792-1.395-7.21c0.811,0.106,2.296,0.434,2.543,0.694
	c0.568,0.725,0.7,2.602,0.795,3.973l0.13,1.426l0.901,7.297l0.604,5.117c0-0.015,0,0.016,0,0l0.02,1.387
	c-0.024,1.995,0,3.342,0.529,3.837c0.728,0.678,1.892,0.494,2.919,0.324l1.07-0.125c1.897-0.032,3.558,0.145,5.313,0.334
	l2.763,0.265c2.633,0.2,5.341,0.158,7.955,0.118c3.186-0.051,6.481-0.098,9.612,0.291c2.755,0.343,5.474,0.343,8.354,0.343h0.165
	l2.163,0.044C152.472,138.247,154.788,138.318,156.94,137.734 M110.328,131.238c0,0.005,0,0.005,0,0.005
	C110.328,131.256,110.328,131.228,110.328,131.238z"/>
<path fill="#A5A0AE" d="M165.051,108.608c-1.144-1.555-2.551-2.908-3.655-4.49c-3.041-4.366-3.703-5.761-9.217-5.761
	c-10.309,0-20.619,0.254-30.925,0.451c-5.118,0.098-10.344-0.161-15.442,0.211c-1.724,0.129-3.476-0.368-5.185-0.177
	c-1.591,0.18-4.703,0.416-5.285,2.171c-0.529,1.572,0.748,3.503,1.767,4.933c0.223,0.318,0.435,0.607,0.615,0.867
	c1.535,2.257,2.892,6.042,5.439,7.382c1.881,0.992,5.071,0.745,7.115,0.737c3.499-0.007,6.972,0.561,10.455,0.678
	c5.043,0.176,10.172-0.025,15.208-0.337c4.713-0.294,9.58-0.133,14.267-0.663c4.319-0.486,8.461-0.067,12.791-0.353
	c1.626-0.11,4.808-0.29,4.69-2.304C167.669,111.594,165.36,109.027,165.051,108.608 M162.583,110.915
	c-0.995,1.227-4.537,0.537-5.929,0.663c-4.42,0.408-8.844,0.434-13.275,0.434c-7.983,0-15.968,0.157-23.946,0.412
	c-3.315,0.105-6.176-0.125-9.377-0.494c-2.716-0.314-5.232,0.348-7.12-2.049c-1.144-1.454-3.37-4.275-3.789-6.09
	c-0.557-2.418,3.502-1.7,4.89-1.728c4.859-0.105,9.707-0.165,14.577-0.105c3.275,0.038,6.556,0.058,9.832-0.098
	c3.84-0.185,7.723-0.274,11.579-0.491c2.767-0.153,5.564,0.185,8.331,0.004c1.893-0.117,3.691-0.16,5.682-0.012
	c2.187,0.172,2.836,1.196,4.181,2.911C159.248,105.587,163.82,109.383,162.583,110.915z"/>
<path fill="#6F4B2D" d="M126.861,98.212l-5.619,0.109l-5.549,0.015c-3.264-0.019-6.638-0.038-9.917,0.204
	c-0.78,0.055-1.563-0.019-2.39-0.101c-0.917-0.091-1.865-0.181-2.81-0.075l-0.274,0.028c-1.783,0.195-4.766,0.517-5.42,2.468
	c-0.587,1.747,0.638,3.687,1.83,5.365l0.195,0.274l0.416,0.588l1.293,2.194c1.116,2.026,2.382,4.323,4.321,5.341
	c1.705,0.897,4.275,0.85,6.34,0.807l1.004-0.012c1.948-0.008,3.934,0.172,5.854,0.345l4.581,0.329
	c4.377,0.153,9.079,0.048,15.254-0.337l5.674-0.208c2.841-0.067,5.78-0.137,8.617-0.454c2.398-0.271,4.8-0.259,7.12-0.248
	c1.834,0.012,3.731,0.02,5.647-0.105c1.76-0.118,5.286-0.348,5.142-2.814c-0.019-0.318-0.306-0.748-2.078-2.825
	c0,0-0.65-0.78-0.654-0.78l-1.732-2.111c-0.659-0.76-1.341-1.544-1.916-2.367l-0.459-0.662c-2.677-3.86-3.675-5.306-9.154-5.306
	C143.735,97.875,135.157,98.048,126.861,98.212 M121.261,99.289l5.619-0.114c8.292-0.165,16.866-0.337,25.298-0.337
	c4.972,0,5.69,1.039,8.362,4.89l0.459,0.666c0.607,0.867,1.305,1.669,1.975,2.445l1.689,2.054l0,0l0.694,0.834
	c0.561,0.654,1.7,1.994,1.853,2.32c0,0.004,0,0.004,0,0.008c0,1.266-2.006,1.572-4.181,1.716c-1.944,0.129-3.824,0.117-5.642,0.109
	c-2.347-0.012-4.781-0.027-7.234,0.251c-2.794,0.314-5.71,0.384-8.531,0.451l-5.713,0.208c-6.14,0.384-10.814,0.486-15.16,0.337
	l-4.526-0.325c-1.944-0.177-3.95-0.357-5.944-0.353l-1.019,0.016c-1.955,0.038-4.388,0.085-5.874-0.697
	c-1.682-0.886-2.872-3.045-3.922-4.949l-1.344-2.281l-0.427-0.603l-0.192-0.267c-0.76-1.074-2.183-3.072-1.705-4.503
	c0.459-1.364,3.159-1.653,4.608-1.815l0.278-0.027c0.847-0.094,1.705-0.012,2.61,0.075c0.835,0.082,1.693,0.165,2.555,0.102
	c3.241-0.235,6.595-0.216,9.84-0.2L121.261,99.289 M165.438,108.321L165.438,108.321L165.438,108.321z"/>
<path fill="#6F4B2D" d="M148.323,100.896c-1.395,0.09-2.833,0.043-4.22,0c-1.344-0.04-2.735-0.086-4.107-0.008l-6.509,0.281
	l-5.067,0.208c-3.275,0.157-6.505,0.137-9.803,0.098c-4.236-0.052-8.872-0.02-14.589,0.105l-0.881-0.032
	c-1.419-0.078-3.362-0.185-4.173,0.784c-0.345,0.408-0.443,0.933-0.298,1.567c0.443,1.913,2.669,4.743,3.868,6.262
	c1.591,2.018,3.621,2.077,5.588,2.136l1.869,0.109c3.261,0.377,6.117,0.604,9.448,0.498c8.692-0.278,16.52-0.412,23.93-0.412
	c4.53,0,8.954-0.035,13.319-0.435l1.524,0.028c1.724,0.09,3.868,0.204,4.738-0.866c0-0.004,0-0.004,0-0.004
	c1.218-1.505-1.231-3.997-3.198-6l-1.159-1.238l-0.259-0.334c-1.215-1.56-2.014-2.59-4.267-2.766
	C152.3,100.747,150.583,100.752,148.323,100.896 M148.385,101.856c2.211-0.141,3.891-0.145,5.615-0.012
	c1.826,0.141,2.414,0.894,3.578,2.394l0.259,0.334l1.234,1.324c1.097,1.117,3.249,3.303,3.249,4.37c0,0.133-0.035,0.251-0.114,0.349
	c-0.557,0.685-2.59,0.579-3.934,0.509l-1.661-0.023c-4.326,0.396-8.727,0.427-13.233,0.427c-7.422,0-15.259,0.137-23.962,0.415
	c-3.272,0.102-6.086-0.121-9.307-0.494l-1.947-0.114c-1.905-0.055-3.551-0.106-4.848-1.755c-1.081-1.372-3.307-4.193-3.698-5.897
	c-0.11-0.482,0.043-0.666,0.094-0.729c0.501-0.596,2.308-0.497,3.386-0.439l0.952,0.032c5.71-0.121,10.333-0.157,14.561-0.106
	c3.311,0.039,6.559,0.062,9.859-0.098l5.055-0.208l6.528-0.282c1.329-0.075,2.696-0.031,4.021,0.008
	C145.485,101.907,146.944,101.95,148.385,101.856z"/>
<path fill="#A5A0AE" d="M173.617,91.867c-0.361-0.368-0.749-0.705-1.132-1.042c-1.431,0.866-2.551,2.23-3.382,3.93
	c1.748,1.446,6.347,5.4,8.126,4.22C180.45,96.84,175.047,93.333,173.617,91.867z"/>
<path fill="#6F4B2D" d="M172.234,90.41c-1.454,0.882-2.653,2.273-3.566,4.131c-0.098,0.204-0.043,0.443,0.125,0.588l0.267,0.215
	c3.346,2.783,6.686,5.196,8.437,4.037c0.764-0.51,1.176-1.136,1.218-1.873c0.004-0.039,0.004-0.082,0.004-0.125
	c0-1.755-2.119-3.562-3.679-4.89c0,0-1.078-0.956-1.078-0.96l-1.015-0.94l-0.141-0.125C172.649,90.324,172.417,90.3,172.234,90.41
	 M172.449,91.445c0.208,0.192,0.819,0.76,0.819,0.76c0.004,0.005,0,0,0.004,0l1.141,1.023c1.363,1.156,3.421,2.907,3.342,4.224
	c-0.028,0.42-0.286,0.788-0.792,1.126c-1.382,0.917-5.748-2.693-7.241-3.938C170.458,93.247,171.371,92.178,172.449,91.445z"/>
<path fill="#B16720" d="M172.484,90.825c-1.795-1.591-3.801-2.892-5.882-4.056c-1.516,0.416-2.723,1.45-3.292,3.229
	c0.764,0.477,1.54,0.937,2.136,1.481c1.144,1.042,2.241,2.12,3.432,3.088c0.067,0.054,0.145,0.121,0.224,0.188
	C169.933,93.055,171.053,91.691,172.484,90.825z"/>
<path fill="#6F4B2D" d="M166.477,86.303c-1.787,0.491-3.041,1.716-3.625,3.547c-0.067,0.211,0.015,0.439,0.204,0.557l0.31,0.192
	c0.654,0.408,1.269,0.795,1.755,1.238l0.941,0.87l2.512,2.237c0.055,0.043,0.223,0.185,0.223,0.185
	c0.114,0.094,0.262,0.129,0.408,0.098c0.145-0.031,0.267-0.125,0.334-0.258c0.827-1.692,1.904-2.946,3.198-3.731
	c0.132-0.078,0.215-0.215,0.231-0.372c0.012-0.148-0.048-0.302-0.161-0.403c-1.622-1.435-3.519-2.74-5.967-4.115
	C166.728,86.287,166.599,86.273,166.477,86.303 M166.56,87.303c2.068,1.171,3.718,2.296,5.141,3.495
	c-1.07,0.78-1.983,1.854-2.727,3.209c-0.587-0.522-2.253-2.007-2.253-2.007l-0.948-0.877c-0.537-0.491-1.203-0.909-1.85-1.313
	C164.42,88.561,165.317,87.699,166.56,87.303z"/>
<path fill="#A5A0AE" d="M166.602,86.769c-0.893-0.497-1.791-0.976-2.692-1.449c-1.482-0.772-2.919-0.392-3.342,0.587
	c-0.242,0.561-0.153,1.32,0.451,2.171c0.561,0.784,1.419,1.368,2.291,1.921C163.879,88.22,165.086,87.185,166.602,86.769z"/>
<path fill="#6F4B2D" d="M161.383,84.583c-0.588,0.211-1.034,0.612-1.257,1.136c-0.337,0.772-0.157,1.712,0.501,2.637
	c0.615,0.866,1.535,1.485,2.429,2.049c0.125,0.078,0.282,0.094,0.424,0.043c0.137-0.051,0.247-0.165,0.294-0.305
	c0.478-1.505,1.501-2.512,2.959-2.908c0.188-0.051,0.332-0.216,0.352-0.412c0.024-0.195-0.07-0.384-0.247-0.478l-2.7-1.453
	C163.201,84.407,162.198,84.293,161.383,84.583 M161.415,87.797c-0.325-0.451-0.49-0.886-0.49-1.262
	c0-0.157,0.028-0.302,0.086-0.435c0.118-0.278,0.361-0.486,0.694-0.604c0.568-0.204,1.289-0.109,1.982,0.255
	c0,0,1.007,0.541,1.787,0.959c-1.07,0.534-1.861,1.407-2.363,2.563C162.46,88.842,161.825,88.38,161.415,87.797z"/>
<path fill="#6F4B2D" d="M108.451,34.621c-7.494,3.693-24.984,13.779-25.576,27.561C82.426,72.47,88.66,81.321,98.381,84.209
	c5.307,1.579,10.263,0.716,15.057-0.114c3.342-0.577,6.798-1.179,10.312-0.923c0.336,0.025,0.627-0.227,0.647-0.562
	c0.025-0.336-0.227-0.627-0.558-0.652c-3.662-0.267-7.197,0.346-10.608,0.939c-4.873,0.843-9.47,1.643-14.504,0.148
	c-9.178-2.725-15.057-11.088-14.637-20.807c0.568-13.137,17.604-22.926,24.9-26.525c10.441-5.149,25.888-9.936,37.943-7.938
	c8.253,1.372,18.423,6.636,19.904,16.948c0.943,6.58-0.365,15.431-5.421,20.368c-4.886,4.778-11.536,7.479-17.964,10.09
	c-2.38,0.968-4.843,1.97-7.118,3.041c-0.306,0.148-0.434,0.508-0.291,0.815c0.144,0.301,0.508,0.429,0.81,0.286
	c2.246-1.061,4.585-2.008,7.058-3.016c6.536-2.656,13.294-5.401,18.354-10.348c5.731-5.593,6.695-15.027,5.777-21.41
	c-1.575-10.964-12.248-16.533-20.912-17.969C131.603,24.003,113.6,32.083,108.451,34.621z"/>
<path fill="#6F4B2D" d="M135.113,78.947c-1.066,1.861-1.426,3.964-1.772,6.003c-0.296,1.713-0.622,3.465-1.352,5.045
	c-1.643-1.2-3.106-2.953-4.517-4.68c-1.042-1.283-2.123-2.611-3.268-3.668c-0.242-0.232-0.627-0.217-0.859,0.029
	c-0.228,0.248-0.213,0.632,0.035,0.864c1.081,0.998,2.083,2.231,3.149,3.54c1.635,2.005,3.322,4.082,5.376,5.361
	c0.143,0.088,0.316,0.118,0.474,0.074c0.164-0.039,0.301-0.143,0.38-0.291c1.066-1.911,1.427-4.024,1.778-6.067
	c0.345-2.024,0.677-3.934,1.634-5.608c0.168-0.291,0.065-0.662-0.227-0.829C135.652,78.552,135.281,78.655,135.113,78.947z"/>
<g>
	<path fill="#6D4A2B" d="M93.295,74.269l-1.686-0.006l0.002-8.061l-2.996-0.369l0.195-1.693l3.748,0.441l0.766,0.852L93.295,74.269z
		 M91.868,62.42l-4.126-0.257l0.11-1.721l4.115,0.279L91.868,62.42z M101.468,68.126l4.053,0.664l-0.293,1.688l-5.166-0.844
		l-3.317,3.511l-1.249-1.149l2.533-2.711l-1.561-0.259l0.281-1.665l2.675,0.439l2.59-2.768l-0.199-1.273l-7.232,2.686l-0.579-1.605
		l8.201-3.05l1.149,0.685l0.416,2.713l-0.215,0.723L101.468,68.126z M101.177,61.638l-1.315-0.495l-0.807-2.964l-4.225,1.385
		l0.575,3.75l-1.709,0.27l-0.663-4.468l0.582-0.942l5.766-1.923l1.098,0.587l0.738,2.7l0.996-0.68l0.963,1.437L101.177,61.638z"/>
	<path fill="#6D4A2B" d="M105.446,56.409l3.501-1.371l0.91-2.47l1.598,0.591l-0.393,1.052l7.306-2.864l0.636,1.605l-8.733,3.402
		l-1.786,4.871l-1.603-0.608l1.274-3.436l-2.103,0.805L105.446,56.409z M118.513,64.45l1.769-1.228l-2.309-6l-6.428,2.741
		l0.221,0.882l5.885-2.193l0.585,1.622l-6.04,2.245l0.255,0.929l5.433-1.716l0.533,1.639l-5.542,1.733l0.639,2.408l-1.674,0.43
		l-0.61-2.322l-1.301,0.399l-0.493-1.634l1.369-0.423l-1.098-4.282l0.501-1.012l7.901-3.37l1.155,0.472l2.847,7.484l-0.313,1.005
		l-2.347,1.557L118.513,64.45z"/>
	<path fill="#6D4A2B" d="M130.701,61.416l-3.677,0.11l-0.892-0.771l-0.472-7.48l-2.489,0.456l-0.304-1.697l3.435-0.603l1.012,0.789
		l0.49,7.589l2.839-0.095L130.701,61.416z M125.677,51.334l-2.902-1.511l0.776-1.505l2.919,1.505L125.677,51.334z M134.264,47.273
		l3.922,9.821l-0.347,1.017l-3.951,2.48l-0.922-1.431l3.367-2.111l-3.65-9.07l-4.755,2.081l-0.694-1.547l8.491-3.723l0.676,1.553
		L134.264,47.273z"/>
	<path fill="#6D4A2B" d="M149.88,50.436l0.43,1.788l6.154-2.533l0.653,1.599l-6.395,2.613l0.291,1.204l-1.657,0.424l-0.233-0.975
		l-5.501,2.255l-0.665-1.576l5.753-2.36l-0.407-1.72l-3.54,1.652l-1.131-0.347l-1.235-2.245l-0.871,0.37l-0.687-1.587l0.721-0.301
		l-1.084-1.97l0.478-1.252l2.779-1.013l-1.735-0.718l0.655-1.579l2.355,0.968l-0.41,0.999l2.917-1.059l1.142-3.544l1.637,0.54
		l-0.739,2.24l2.573-0.943l1.149,0.627l1.086,5.608l-0.468,0.942L149.88,50.436z M143.153,48.031l3.988-1.688l-0.291-1.205
		l-4.396,1.615L143.153,48.031z M144.747,50.94l3.139-1.479l-0.332-1.439l-3.581,1.532L144.747,50.94z M149.141,47.334l0.332,1.382
		l3.094-1.444l-0.793-3.945l-3.301,1.227l0.256,1.101l2.011-0.85l0.676,1.552L149.141,47.334z"/>
	<path fill="#6D4A2B" d="M160.348,51.331l-1.144-2.659l1.77-0.769l1.15,2.676L160.348,51.331z M160.721,46.074l-1.898,0.391
		l-1.843-9.22l1.932-0.345L160.721,46.074z"/>
</g>
</svg>
