<?xml version="1.0" encoding="utf-8"?>
<!-- Generator: Adobe Illustrator 16.0.0, SVG Export Plug-In . SVG Version: 6.00 Build 0)  -->
<!DOCTYPE svg PUBLIC "-//W3C//DTD SVG 1.1//EN" "http://www.w3.org/Graphics/SVG/1.1/DTD/svg11.dtd">
<svg version="1.1" id="图层_1" xmlns="http://www.w3.org/2000/svg" xmlns:xlink="http://www.w3.org/1999/xlink" x="0px" y="0px"
	 width="250px" height="250px" viewBox="0 0 250 250" enable-background="new 0 0 250 250" xml:space="preserve">
<circle opacity="0.5" fill="#F6F5F5" enable-background="new    " cx="125.737" cy="125.522" r="122.732"/>
<path opacity="0.1" fill="#FF326F" d="M70.15,159.277c-3.172,3.272-5.04,13.558-3.23,17.758c0.11,0.265,0.395,0.412,0.678,0.348
	c0.285-0.061,0.48-0.313,0.478-0.596c-0.12-7.002,1.652-12.334,5.417-16.297c0.155-0.16,0.205-0.405,0.13-0.623
	c-0.08-0.213-0.27-0.365-0.49-0.393c-0.737-0.092-1.405,0.048-2.01,0.381c0.015-0.053,0.065-0.096,0.065-0.158
	c0-0.16-0.063-0.314-0.19-0.438C70.765,159.025,70.382,159.035,70.15,159.277z M71.18,161.365c-0.468,0.619-0.89,1.265-1.278,1.939
	C70.268,162.408,70.703,161.805,71.18,161.365z M68.44,165.513c0.04,0.022,0.07,0.065,0.115,0.077
	c0.08,0.025,0.15,0.008,0.222-0.002c-0.375,0.89-0.697,1.822-0.965,2.795C67.98,167.41,68.18,166.442,68.44,165.513z M66.873,176.79
	L66.873,176.79c0,0,0,0.005,0,0.01C66.873,176.795,66.873,176.79,66.873,176.79z"/>
<path opacity="0.1" fill="#FF326F" d="M160.665,157.612c-0.188,0.104-0.295,0.308-0.295,0.518c0,0.098,0.022,0.208,0.083,0.306
	c0.082,0.119,0.159,0.289,0.239,0.422c-0.308-0.303-0.583-0.643-0.952-0.915c-0.188-0.147-0.43-0.175-0.643-0.067
	c-0.381,0.189-0.457,0.465-0.457,0.635c0,0.016,0.01,0.035,0.01,0.053c0.035,0.445,0.452,0.57,0.584,0.609
	c0,0,0.056,0.018,0.083,0.025c2.278,1.936,3.348,4.365,3.573,8.283l0.156,1.768c0.111,1.057,0.25,2.242,0.25,3.322
	c0,0.949-0.104,1.807-0.399,2.404c-0.045,0.083-0.063,0.17-0.063,0.271c0,0.173,0.075,0.351,0.229,0.47
	c0.221,0.17,0.533,0.17,0.758-0.005c5.508-4.535-2.018-17.337-2.338-17.882C161.317,157.533,160.947,157.445,160.665,157.612z
	 M159.098,158.832c0-0.127,0.077-0.26,0.192-0.412c0.107-0.135,0.29-0.15,0.487-0.135c0.025,0.063,0.063,0.1,0.075,0.168
	c0,0.021,0,0.042,0,0.063c0,0.227-0.14,0.387-0.232,0.438c-0.155,0.097-0.32,0.064-0.476-0.011
	C159.141,158.908,159.098,158.877,159.098,158.832z M164.245,169.123l-0.157-1.711c-0.018-0.217-0.059-0.375-0.08-0.592
	c0.359,1.348,0.604,2.675,0.604,3.89c0,0.505-0.052,0.976-0.146,1.435C164.445,171.127,164.353,170.067,164.245,169.123z"/>
<path opacity="0.1" fill="#6A0000" d="M68.063,159.112c-3.183,6.46-3.61,11.681-3.272,18.518c0.015,0.278,0.21,0.503,0.475,0.563
	c1.327,0.29,2.853,0.29,4.17,0c0.292-0.065,0.49-0.327,0.473-0.625c-0.18-3.194-0.248-13.864,6.445-16.805
	c0.297-0.13,0.435-0.487,0.308-0.79c-0.13-0.305-0.49-0.445-0.795-0.305c-6.21,2.732-7.213,10.899-7.213,15.885
	c0,0.567,0.02,1.047,0.042,1.515c-0.885,0.136-1.827,0.136-2.712,0c-0.045-1.01-0.087-2.005-0.087-2.952
	c0-5.048,0.732-9.365,3.245-14.463c0.045-0.092,0.065-0.178,0.065-0.27c0-0.215-0.123-0.436-0.335-0.537
	C68.57,158.703,68.208,158.82,68.063,159.112z M68.71,177.6L68.71,177.6c0,0.016,0,0.03,0,0.043
	C68.71,177.63,68.71,177.615,68.71,177.6z"/>
<path opacity="0.1" fill="#6A0000" d="M161.59,156.46c-0.117,0.112-0.178,0.263-0.178,0.415c0,0.158,0.061,0.311,0.178,0.43
	c3.513,3.49,4.295,7.273,4.295,11.453c0,1.627-0.115,3.305-0.242,5.053c0,0-0.105,1.785-0.155,2.447
	c-1.065,0.22-2.507,0.223-3.579,0.018c-0.003-0.732-0.025-3.471-0.025-3.471c0.02-0.715,0.025-1.455,0.025-2.197
	c0-5.418-0.528-11.35-5.493-13.447c-0.315-0.127-0.66,0.005-0.785,0.317c-0.122,0.306,0.008,0.66,0.32,0.785
	c4.905,2.067,4.813,8.688,4.737,14.524l0.027,4.006c0,0.27,0.183,0.482,0.438,0.557c1.4,0.391,3.68,0.383,5.078-0.01
	c0.247-0.072,0.417-0.295,0.439-0.553l0.178-2.904c0.445-6.28,0.855-12.213-4.4-17.436C162.2,156.223,161.825,156.223,161.59,156.46
	z"/>
<path opacity="0.1" fill="#FF326F" d="M142.51,75.522c0,0-6.258,0.065-6.26,0.065c-6.987,0-14.04,0.763-20.868,1.5
	c-4.772,0.52-9.71,1.055-14.55,1.32c0,0-5.442,0.365-8.792,0.585c-0.07,0-0.558,0-0.558,0c-8.295-0.038-16.862-0.078-25.288,0.265
	c-2.915,0.123-5.882,0.388-8.752,0.645c-3.405,0.305-6.922,0.62-10.34,0.683c-0.328,0.013-0.6,0.285-0.585,0.615
	c0.005,0.332,0.277,0.592,0.607,0.59c0.35-0.005,0.697-0.042,1.045-0.055c-0.692,0.208-1.353,0.44-1.922,0.715
	c-0.212,0.1-0.348,0.313-0.348,0.545c0,0.03,0,0.063,0.013,0.095c0.038,0.26,0.248,0.473,0.512,0.505
	c2.042,0.26,4.173-0.097,6.24-0.438l2.322-0.357c4.258-0.512,8.355-0.685,12.695-0.87l2.98-0.13c0,0,1.005-0.057,1.91-0.105
	c-7.902,0.603-15.667,1.698-23.715,2.88l-0.51,0.07c-0.272,0.042-0.482,0.268-0.515,0.542c0,0.018,0,0.038,0,0.05
	c0,0.26,0.167,0.49,0.408,0.57c3.01,1.022,6.67,0.547,9.897,0.132l2.872-0.33l4.943-0.24c2.045-0.065,4.165-0.133,6.252-0.37
	c3.123-0.362,6.417-0.62,9.607-0.877c4.563-0.357,9.208-0.757,13.743-1.442c3.765,0.147,7.517,0.325,11.208,0.51
	c8,0.382,16.272,0.788,24.42,0.785c5.96-0.005,12.032-0.403,17.905-0.785c5.848-0.382,11.893-0.775,17.848-0.777
	c2.494,0,4.979,0.402,7.399,0.792c2.681,0.427,5.444,0.88,8.235,0.772c0.334-0.008,0.595-0.292,0.577-0.625
	c-0.005-0.333-0.29-0.59-0.618-0.58c-2.406,0.095-4.754-0.25-7.201-0.635c2.677,0.137,5.385,0.275,8.064,0.275l0,0l0,0
	c0,0,0,0,0.008,0c0.33,0,0.6-0.265,0.6-0.598c0-0.33-0.266-0.603-0.6-0.605c-2.74-0.013-5.393-0.583-7.961-1.127
	c-2.117-0.45-4.297-0.913-6.557-1.087c-4.846-0.37-9.846-0.053-14.67,0.255c-2.91,0.185-5.928,0.377-8.843,0.405l-7.438,0.135
	c-3.702,0.078-7.473,0.157-11.228,0.157c6.525-0.155,12.553-0.37,18.35-0.652c3.313-0.167,6.888-0.635,10.668-1.123
	c2.112-0.275,4.3-0.557,6.498-0.79c0.609,0.083,1.212,0.138,1.809,0.23l3.886,0.84c5.612,1.31,13.282,3.112,16.772,0.717
	c0.183-0.12,0.287-0.335,0.266-0.545c-0.023-0.215-0.158-0.405-0.355-0.495c-6.51-2.98-14.561-2.78-22.367-1.955
	C155.745,75.357,149.029,75.43,142.51,75.522z M115.515,78.283c6.79-0.73,13.813-1.498,20.735-1.498
	c0.002,0,6.285-0.063,6.285-0.063c4.625-0.06,9.345-0.127,14.002,0.13c-0.327,0.042-0.662,0.085-0.982,0.127
	c-3.752,0.487-7.297,0.95-10.563,1.112c-10.723,0.538-22.209,0.825-36.32,0.9C110.973,78.772,113.263,78.527,115.515,78.283z
	 M92.083,80.197c1.035,0,7.69,0.03,7.69,0.03c0.768,0,1.482-0.005,2.232-0.005c-0.66,0.17-1.35,0.295-2.022,0.44
	c-0.353-0.02-0.708-0.04-1.063-0.06c-2.322-0.152-4.735-0.255-7.117-0.385C91.89,80.212,91.985,80.2,92.083,80.197z M87.067,81.172
	c1.145,0.038,2.27,0.125,3.42,0.178c-1.85-0.05-3.695-0.127-5.53-0.143c-2.473-0.022-4.897,0.087-7.323,0.192
	C80.81,81.21,83.895,81.058,87.067,81.172z M114.335,80.732l0.658,0.047c3.092,0.225,6.26,0.3,9.44,0.333
	c-0.843,0.025-1.678,0.04-2.513,0.075c-5.8,0.272-11.58,0.053-17.275-0.265C107.888,80.335,110.81,80.48,114.335,80.732z
	 M145.377,80.853c2.953-0.033,5.985-0.225,8.908-0.408c4.787-0.307,9.74-0.623,14.505-0.252c1.402,0.103,2.777,0.345,4.149,0.618
	c-4.467-0.255-9.06-0.49-13.489-0.205c-6.692,0.428-13.53,0.4-20.14,0.373c-0.139,0-0.283,0-0.416,0
	C140.314,80.947,145.377,80.853,145.377,80.853z M84.953,82.413c0.75,0.007,1.512,0.042,2.27,0.06
	c-1.843,0.167-3.685,0.313-5.505,0.458c-3.197,0.252-6.505,0.507-9.647,0.88c-2.042,0.235-4.127,0.295-6.145,0.357l-5.015,0.248
	l-2.92,0.337c-1.61,0.21-3.323,0.41-4.993,0.45C63.7,83.647,74.018,82.308,84.953,82.413z M121.975,82.397
	c5.765-0.265,11.645-0.243,17.328-0.217c2.215,0.007,4.455,0,6.705,0c-4.912,0.313-9.908,0.592-14.825,0.592
	c-4.386,0-8.798-0.115-13.203-0.288C119.313,82.473,120.643,82.46,121.975,82.397z M182.766,78.737
	c-3.561,1.12-10.083-0.4-14.578-1.455c0,0-0.76-0.167-1.383-0.295C172.455,76.63,178.002,76.92,182.766,78.737z"/>
<path opacity="0.1" fill="#FF326F" d="M178.123,85.708c-2.781,2.063-4.293,8.825-5.396,13.84c-0.365,1.045-0.732,2.098-1.095,3.178
	l-1.928,5.472c-2.973,7.69-4.877,13.598-6.17,19.141l-0.551,2.232c-1.057,4.393-2.542,10.484-2.542,15.407
	c0,1.558,0.149,3.007,0.5,4.235c0.075,0.27,0.33,0.452,0.603,0.43c0.28-0.016,0.52-0.213,0.572-0.49
	c0.19-1.032,0.398-2.088,0.596-3.127c-0.021,0.307-0.061,0.619-0.061,0.928c0,1.406,0.16,2.814,0.563,4.217
	c0.08,0.255,0.293,0.422,0.551,0.439c0.26,0.016,0.492-0.143,0.587-0.387c1.31-3.377,1.88-7.707,2.44-11.9
	c0.364-2.727,0.732-5.543,1.305-8.027c1.6-7.002,3.545-14.02,5.428-20.805l0.447-1.63c0.527-1.902,1.3-3.935,2.098-6.085
	c1.768-4.7,3.598-9.565,3.33-14.05c-0.016-0.252-0.181-0.47-0.426-0.54c-0.244-0.07-0.497,0.01-0.652,0.205
	c-1.015,1.33-1.838,2.708-2.592,4.115c0.822-2.617,1.832-4.902,3.094-5.833c0.158-0.117,0.246-0.305,0.246-0.49
	c0-0.12-0.038-0.25-0.115-0.353C178.772,85.567,178.391,85.513,178.123,85.708z M161.633,144.973c0-4.756,1.475-10.783,2.532-15.113
	l0.535-2.239c1.034-4.39,2.465-9.06,4.505-14.633c-0.873,3.24-2.178,8.103-2.178,8.103c-2.135,8.537-3.893,16.46-5.373,24.131
	C161.652,145.141,161.633,145.053,161.633,144.973z M178.123,90.915c-0.301,3.665-1.719,7.598-3.158,11.445
	c-0.82,2.175-1.588,4.228-2.135,6.188l-0.445,1.625c-1.609,5.77-3.213,11.72-4.66,17.68c-0.098-0.185-0.237-0.325-0.449-0.348
	c-0.336-0.027-0.617,0.218-0.658,0.556c-0.217,2.682-1.029,5.417-1.88,8.297c-0.06,0.205-0.114,0.402-0.175,0.603
	c1.078-5.007,2.272-10.165,3.625-15.58l3-11.16l1.918-6.983c0,0,0.782-3.335,0.782-3.372C175.008,96.72,176.3,93.725,178.123,90.915
	z M163.859,146.965c0-3.402,1.033-6.877,2.033-10.26c0.05-0.143,0.08-0.293,0.13-0.436c-0.14,0.971-0.277,1.931-0.41,2.891
	c-0.427,3.22-0.87,6.51-1.647,9.348C163.918,147.992,163.859,147.482,163.859,146.965z"/>
<path opacity="0.1" fill="#FF326F" d="M50.337,87.822c-0.152,0.068-0.248,0.2-0.308,0.34c-0.145-0.035-0.305-0.022-0.438,0.05
	c-1.515,0.83-0.427,5.04,2.588,14.155l1.162,3.672l3.095,13.498l1.592,7.132c0.635,2.766,1.573,5.442,2.485,8.022
	c0.692,1.978,1.415,4.011,1.98,6.063l0.788,3.07c0.767,3.122,1.565,6.347,2.947,8.933c0.123,0.232,0.39,0.359,0.655,0.305
	c0.265-0.058,0.46-0.287,0.475-0.558c0.022-0.417,0.038-0.837,0.038-1.272c0-1.064-0.075-2.18-0.19-3.324
	c0.417,1.357,0.855,2.704,1.255,4.055c0.09,0.285,0.373,0.459,0.67,0.412c0.295-0.045,0.508-0.295,0.508-0.588
	c0-0.002,0-0.004,0-0.004c-0.15-8.758-3.223-17.73-6.198-26.408c-1.552-4.53-3.01-8.808-4.085-13.035
	c-1.167-4.587-2.745-8.56-4.55-12.902l-1.248-2.93c-0.538-1.248-1.085-2.51-1.587-3.755c-0.008-0.072-0.02-0.147-0.028-0.222
	c-0.228-1.765-0.445-3.428-0.815-4.375C50.998,87.853,50.652,87.695,50.337,87.822z M50.348,91.83c0.157,0.42,0.28,0.815,0.45,1.24
	c0.063,0.47,0.125,0.933,0.195,1.4C50.728,93.513,50.513,92.62,50.348,91.83z M64.45,143.535l-0.792-3.1
	c-0.58-2.078-1.303-4.146-2.008-6.143c-0.897-2.548-1.83-5.186-2.442-7.883l-1.592-7.118c0,0-0.648-2.83-1.248-5.45
	c0.44,1.408,4.272,13.576,4.272,13.576l1.192,3.66c0.958,2.914,1.92,5.885,2.875,8.852c0.6,3.107,1.2,6.4,1.395,9.423
	C65.453,147.513,64.938,145.505,64.45,143.535z M62.97,130.7l-1.195-3.66l-4.51-14.337l-1.19-3.848l-2.368-8.217
	c0,0-0.28-1.018-0.563-2.02c0.272,0.625,0.547,1.27,0.547,1.27c1.78,4.307,3.345,8.23,4.493,12.747
	c1.078,4.27,2.555,8.573,4.115,13.125c2.31,6.74,4.658,13.68,5.643,20.482c-0.685-2.217-1.37-4.422-2.08-6.625
	c-0.047-0.237-0.097-0.487-0.135-0.72l-0.813-4.33c-0.058-0.325-0.375-0.555-0.703-0.489c-0.05,0.012-0.08,0.052-0.117,0.076
	C63.717,133.008,63.345,131.832,62.97,130.7z"/>
<path opacity="0.1" fill="#FF326F" d="M155.672,150.385l-4.489,0.328l-6.24,0.31c-0.447,0.021-0.923,0.04-1.375,0.069
	c-2.132-0.127-4.194-0.225-6.083-0.142c-3.324,0.13-6.656,0.367-9.959,0.614c-2.085-0.018-7.643-0.066-7.643-0.066
	c-5.91-0.076-12.017-0.152-18.017,0.082c-3.3,0.115-6.668,0.115-9.93,0.115c-3.635,0.012-7.388,0.015-11.07,0.18
	c-1.32,0.061-2.913,0.346-4.595,0.645c-3.105,0.565-6.618,1.195-8.585,0.354c-0.308-0.121-0.66,0.024-0.788,0.322
	c-0.032,0.08-0.047,0.157-0.047,0.237c0,0.239,0.135,0.46,0.367,0.555c0.128,0.053,0.29,0.073,0.433,0.115
	c-0.052,0.093-0.103,0.167-0.103,0.272c0,0.018,0,0.02,0,0.025c0.01,0.295,0.238,0.539,0.533,0.582
	c7.328,0.867,15.112,0.287,22.65-0.262c1.085-0.083,2.188-0.148,3.29-0.221c0.02,0,0.933,0.058,1.268,0.072
	c-3.675,0.232-7.33,0.535-10.935,0.846c-6.05,0.52-12.308,1.053-18.393,1.174c-0.322,0-0.587,0.271-0.587,0.596
	c0,0.002,0,0.002,0,0.013c0,0.329,0.27,0.595,0.598,0.593c9.505-0.027,19.13-0.168,28.435-0.315
	c10.103-0.157,20.548-0.313,30.848-0.313h1.752c7.615,0.018,15.493,0.021,23.093-1.011c2.015-0.271,4.147-0.406,6.215-0.521
	c2.96-0.193,6.018-0.373,8.853-0.975c0.274-0.068,0.47-0.311,0.47-0.594c0-0.042,0-0.084-0.005-0.127
	c-0.06-0.263-0.292-0.442-0.555-0.465c0.845-0.303,1.649-0.662,2.353-1.082c0.185-0.11,0.293-0.309,0.293-0.511
	c0-0.018,0-0.034,0-0.055c-0.023-0.226-0.171-0.415-0.379-0.5c-0.701-0.29-1.524-0.431-2.387-0.513
	c0.005-0.037,0.032-0.075,0.032-0.112c0-0.038,0-0.07-0.005-0.098c-0.053-0.277-0.282-0.478-0.561-0.497
	C161.495,149.873,158.537,150.141,155.672,150.385z M155.777,151.588c0.138-0.021,0.272-0.025,0.412-0.041
	c-0.06,0.016-0.299,0.045-0.518,0.083c-0.305,0.013-0.609,0.035-0.924,0.035C155.338,151.612,155.777,151.588,155.777,151.588z
	 M91.945,152.904c3.27,0,6.655,0,9.978-0.127c2.995-0.107,6.025-0.143,9.053-0.143c-2.078,0.086-4.153,0.197-6.225,0.197
	c-3.522,0-7.143,0.215-10.737,0.468c-2.21-0.128-4.443-0.263-6.688-0.364C88.873,152.915,90.42,152.904,91.945,152.904z
	 M143.567,152.29c0.913,0.06,1.833,0.122,2.788,0.185c0.657,0.045,1.33,0.088,1.997,0.131c-4.183,0.482-8.375,0.857-12.7,0.857
	l-12.845,0.209c-4.265,0.096-8.623,0.198-12.98,0.198c4.83-0.165,9.645-0.473,14.34-0.841c1.118-0.094,2.27-0.172,3.405-0.26
	c0.388,0.003,1.447,0.016,1.447,0.016C133.955,152.785,138.813,152.545,143.567,152.29z M82.942,154.018
	c-2.762,0.145-5.52,0.217-8.237,0.16C77.422,153.987,80.185,153.967,82.942,154.018z M165.42,152.05
	c-4.082,1.79-10.082,2.056-14.605,2.247l-1.754,0.078c-6.646,0.34-13.605,0.46-20.783,0.404c3.598-0.052,7.373-0.117,7.373-0.117
	c6.354,0,12.395-0.75,18.542-1.577c0,0,0.905-0.147,1.595-0.255c2.388-0.063,4.684-0.293,6.756-0.875
	C163.555,151.9,164.547,151.915,165.42,152.05z M110.973,155.529c5.315,0.261,10.5,0.375,15.607,0.438c-0.48,0-1.33,0-1.33,0
	c-10.31,0-20.763,0.158-30.862,0.309c-2.308,0.035-4.675,0.07-7.015,0.104C95.155,155.728,103.125,155.16,110.973,155.529z"/>
<path opacity="0.1" fill="#6A0000" d="M148.085,76.527l-8.28,0.11l-18.142,0.092c-9.458,0.007-19.235,0.02-28.85,0.308L78.385,77.26
	c-10.67,0.093-21.688,0.188-32.377,1.45c-0.33,0.038-0.567,0.337-0.52,0.67c0.038,0.333,0.338,0.565,0.667,0.525
	c10.62-1.25,21.615-1.345,32.24-1.435l14.462-0.225c9.6-0.288,19.363-0.303,28.81-0.308l18.165-0.098l8.275-0.107
	c11.926-0.157,24.26-0.322,36.433-0.322c0.333,0,0.595-0.268,0.595-0.603c0-0.33-0.262-0.598-0.595-0.598
	C172.35,76.21,160.016,76.37,148.085,76.527z"/>
<path opacity="0.1" fill="#6A0000" d="M184.365,76.232c-0.263,0.083-0.428,0.315-0.428,0.575c0,0.06,0.002,0.112,0.025,0.177
	c0.285,0.955,0.33,2.167,0.369,3.34c0.038,0.885,0.096,1.77,0.235,2.592c-5.897,2.175-14.595,1.595-22.305,1.053
	c-3.118-0.22-6.075-0.42-8.593-0.42c-11.662,0-22.672,0.053-32.72,0.167c-6.215,0.07-12.377,0.455-18.34,0.83
	c-6.515,0.408-13.255,0.833-20.017,0.833c-3.408,0-6.908-0.117-10.61-0.25c-8.895-0.315-18.067-0.623-26.063,0.865
	c-0.038-0.47-0.077-0.975-0.077-0.975c-0.103-1.092-0.2-2.268-0.2-3.377c0-0.785,0.052-1.538,0.192-2.208
	c0.01-0.042,0.018-0.083,0.018-0.13c0-0.27-0.192-0.525-0.475-0.585c-0.325-0.07-0.645,0.137-0.715,0.462
	c-0.382,1.785-0.19,3.998-0.018,5.938l0.125,1.6c0.015,0.172,0.105,0.33,0.24,0.438c0.13,0.102,0.315,0.147,0.48,0.112
	c8.007-1.598,17.387-1.265,26.45-0.945c3.712,0.13,7.223,0.257,10.647,0.25c6.8,0,13.563-0.42,20.095-0.833
	c5.953-0.37,12.095-0.758,18.29-0.833c10.029-0.115,21.037-0.17,32.699-0.163c2.483,0,5.406,0.203,8.508,0.417
	c8.033,0.563,17.125,1.197,23.291-1.277c0.274-0.108,0.435-0.408,0.361-0.7c-0.209-0.825-0.247-1.837-0.295-2.908
	c-0.042-1.252-0.092-2.545-0.422-3.65C185.01,76.32,184.683,76.14,184.365,76.232z"/>
<path opacity="0.1" fill="#6A0000" d="M46.82,86.228c-0.327,0.052-0.547,0.368-0.495,0.692c1.952,11.623,5.712,22.363,9.347,32.755
	c3.533,10.098,7.185,20.538,9,31.47c0.058,0.318,0.365,0.545,0.69,0.485c0.333-0.05,0.545-0.364,0.493-0.692
	c-1.835-11.027-5.505-21.516-9.05-31.663c-3.615-10.345-7.36-21.04-9.298-32.557C47.458,86.388,47.143,86.167,46.82,86.228z"/>
<path opacity="0.1" fill="#6A0000" d="M181.465,84.105c-7.217,19.172-13.449,45.087-15.88,66.028
	c-0.038,0.332,0.194,0.63,0.527,0.672c0.327,0.037,0.63-0.199,0.673-0.527c2.42-20.857,8.63-46.662,15.811-65.75
	c0.121-0.307-0.046-0.655-0.354-0.777C181.938,83.638,181.585,83.79,181.465,84.105z"/>
<path opacity="0.1" fill="#6A0000" d="M64.405,151.457c-0.327,0.01-0.59,0.295-0.577,0.621c0.018,0.326,0.295,0.592,0.625,0.572
	c41.208-1.553,74.778-2.311,102.629-2.311c0.325,0,0.601-0.262,0.601-0.603c0-0.327-0.275-0.597-0.601-0.597
	C139.21,149.141,105.63,149.9,64.405,151.457z"/>
<path opacity="0.1" fill="#FF326F" d="M188.482,56.362c-5.862,3.64-9.189,12.233-11.197,18.375c-0.096,0.32,0.064,0.663,0.387,0.763
	c0.32,0.103,0.66-0.07,0.764-0.382c0.167-0.51,0.34-0.973,0.502-1.458c-0.04,0.313-0.082,0.62-0.082,0.915
	c0,0.225,0.007,0.435,0.045,0.65c0.029,0.265,0.237,0.465,0.5,0.505c0.26,0.047,0.521-0.1,0.64-0.342l1.385-2.9
	c0.726-1.45,1.468-2.947,2.083-4.652l0.372-1.03c0.03-0.11,0.07-0.218,0.115-0.33c0.013-0.022,0.875-1.25,0.875-1.25
	c1.86-2.705,3.75-4.553,5.782-5.65c3.785-2.053,9.638-2.888,13.328-1.905c0.322,0.085,0.652-0.103,0.736-0.425
	c0.008-0.05,0.008-0.1,0.008-0.153c0-0.267-0.164-0.512-0.447-0.583c-0.832-0.222-1.811-0.33-2.813-0.387
	c0.783,0,1.543,0.005,2.301,0.02h0.254c0.285,0.002,0.53-0.195,0.58-0.475c0.068-0.277-0.077-0.56-0.327-0.677
	C199.513,52.9,193.178,53.445,188.482,56.362z M198.633,55.002c-2.461,0.113-4.971,0.425-7.256,1.243
	C193.67,55.29,196.189,54.893,198.633,55.002z M191.234,56.292c-0.063,0.027-0.1,0.053-0.156,0.073
	C191.135,56.342,191.18,56.32,191.234,56.292z M184.768,61.595c-0.766,1.36-1.346,2.88-1.853,4.335
	c-0.827,1.157-1.757,2.487-2.524,3.87C181.755,66.462,183.21,63.715,184.768,61.595z M187.053,60.395
	c2.678-2.902,6.647-3.848,10.647-4.138c-2.713,0.328-5.49,1.113-7.622,2.275c-1.455,0.782-2.82,1.94-4.15,3.44
	C186.27,61.395,186.633,60.853,187.053,60.395z"/>
<path opacity="0.1" fill="#6A0000" d="M167.277,149.558l-0.402,1.22c-0.535,1.641-1.07,3.33-1.234,5.235
	c-11.25,0.958-93.778,2.923-99.061,2.357c-0.152-0.604-0.675-2.712-0.675-2.712c-0.33-1.181-0.665-2.406-0.882-3.698
	c-0.055-0.33-0.37-0.55-0.692-0.497c-0.325,0.057-0.553,0.367-0.495,0.695c0.232,1.352,0.58,2.611,0.91,3.819l0.755,3.027
	c0.138,0.667,0.16,0.78,15.145,0.593c8.27-0.1,19.802-0.325,32.453-0.641c23.135-0.555,48.82-1.354,53.15-1.797
	c0.305-0.025,0.527-0.268,0.549-0.572c0.073-1.968,0.633-3.65,1.221-5.436l0.407-1.244c0.104-0.309-0.067-0.65-0.385-0.743
	C167.725,149.064,167.377,149.248,167.277,149.558z"/>
<path opacity="0.1" fill="#6A0000" d="M52.71,84.547c-0.33,0.015-0.572,0.308-0.558,0.643c0.653,9.688,4.14,20.373,7.205,29.805
	l1.99,6.197c1.177,3.763,2.472,7.333,3.722,10.788c2.593,7.137,5.035,13.879,6.27,21.652c0.05,0.324,0.365,0.553,0.683,0.497
	c0.325-0.055,0.555-0.364,0.5-0.69c-1.252-7.875-3.715-14.672-6.325-21.872c-1.25-3.44-2.532-7.002-3.705-10.732l-1.995-6.22
	c-3.047-9.358-6.507-19.968-7.147-29.508C53.328,84.78,53.042,84.525,52.71,84.547z"/>
<path opacity="0.1" fill="#6A0000" d="M175.625,84.12c-6.471,18.853-14.103,43.298-15.885,65.2c-0.025,0.33,0.225,0.625,0.557,0.657
	c0.328,0.021,0.621-0.228,0.653-0.56c1.765-21.766,9.375-46.118,15.81-64.903c0.113-0.315-0.057-0.663-0.369-0.768
	C176.07,83.638,175.732,83.81,175.625,84.12z"/>
<path opacity="0.1" fill="#6A0000" d="M207.592,52.953c-1.93,0.425-4.797,0.393-7.829,0.36c-5.362-0.065-10.907-0.132-13.771,2.095
	c-3.189,2.487-5.845,8.86-8.189,14.487c-1.065,2.545-2.055,4.958-2.973,6.627c-0.155,0.295-0.053,0.66,0.245,0.82
	c0.298,0.158,0.659,0.053,0.815-0.242c0.938-1.73,1.949-4.167,3.031-6.74c2.293-5.492,4.873-11.715,7.818-14.005
	c2.525-1.965,8.095-1.9,13.01-1.845c2.838,0.033,5.478,0.033,7.487-0.305c0.112,0.55,0.183,1.175,0.183,1.825
	c0,0.645-0.067,1.26-0.172,1.798c-1.875,0.387-4.266,0.48-6.809,0.567c-4.52,0.143-9.199,0.295-11.922,2.252
	c-2.53,1.813-4.298,7.112-5.715,11.375l-1.328,3.725c-0.024,0.07-0.037,0.143-0.037,0.212c0,0.257,0.147,0.498,0.377,0.585
	c0.318,0.105,0.66-0.025,0.773-0.335l1.35-3.808c1.285-3.885,3.053-9.2,5.275-10.782c2.428-1.738,6.914-1.888,11.252-2.028
	c2.77-0.09,5.385-0.172,7.426-0.67c0.222-0.055,0.389-0.215,0.447-0.422c0.399-1.465,0.377-3.718-0.053-5.127
	C208.2,53.058,207.891,52.882,207.592,52.953z"/>
<path opacity="0.1" fill="#999999" d="M65.43,173.57c-0.853,0.33-1.563,0.914-2.163,1.664c-0.522,0-1.035,0.15-1.49,0.476
	c-2.717,1.862-3.042,8.603-3.055,8.893c-0.015,0.245-0.02,0.495-0.02,0.735c0,4.465,1.887,7.414,5.762,9.01
	c3.133,1.297,8.203,0.832,10.84-0.99c2.32-1.609,2.96-4.314,2.96-6.797c0-2.178-0.488-4.176-0.76-5.136
	c-1.272-4.423-5.022-7.808-8.915-8.042c-0.05-0.013-0.107-0.013-0.157-0.013C67.46,173.143,66.455,173.168,65.43,173.57z
	 M68.225,174.59c0.925,0.245,1.703,0.813,2.333,1.54c-0.38-0.08-0.758-0.157-1.155-0.157c-0.085,0-0.152,0.035-0.232,0.035
	c-0.502-0.218-1.025-0.393-1.56-0.471c-1.047-0.135-2.06,0.051-3.002,0.455c0-0.002,0.002-0.018,0.002-0.029
	c0,0-0.002-0.018-0.002-0.023C65.658,175.047,66.873,174.561,68.225,174.59z M62.03,177.125c-0.297,0.49-0.59,1.027-0.852,1.65
	c-0.33,0.779-0.64,1.752-0.878,2.805C60.638,179.828,61.205,178.061,62.03,177.125z M62.935,178.82
	c0.97-1.295,2.23-2.003,3.592-2.098c-2.297,1.232-3.78,3.775-4.262,6.189c-0.123,0.615-0.173,1.208-0.183,1.795
	c-0.02-0.313-0.045-0.627-0.045-0.965c0-1.537,0.24-3.277,0.728-4.838C62.817,178.87,62.893,178.875,62.935,178.82z M64.917,193.232
	c-2.995-1.234-4.598-3.332-4.938-6.512c0.165,1.354,0.585,2.627,1.35,3.656c0.938,1.266,2.328,2.266,3.835,2.934
	C65.09,193.275,64.995,193.27,64.917,193.232z M62.292,189.654c-0.603-0.813-0.93-1.816-1.1-2.877
	c0.705,2.53,3.125,4.768,5.885,5.905C65.23,192.263,63.413,191.152,62.292,189.654z M66.445,190.195
	c-2.353-1.021-3.16-3.283-3.16-5.396c0-0.572,0.063-1.138,0.162-1.662c0.543-2.713,2.51-5.61,5.548-5.903
	c1.353,0.678,2.5,1.948,3.147,3.601c0.288,0.726,0.435,1.66,0.435,2.66c0,2.212-0.708,4.739-2.127,6.12
	C69.35,190.678,68.007,190.873,66.445,190.195z M71.538,177.737c0.052,0.028,0.12,0.05,0.175,0.085
	c0.047,0.086,0.087,0.17,0.125,0.26C71.748,177.96,71.64,177.848,71.538,177.737z M71.288,190.482
	c1.34-1.295,2.107-3.338,2.373-5.373c0.015,0.261,0.052,0.528,0.052,0.773c0,2.49-0.592,4.732-1.942,5.89
	c-0.217,0.175-0.44,0.323-0.658,0.452c-0.95,0.075-1.97-0.092-2.972-0.432C69.542,191.8,70.585,191.143,71.288,190.482z
	 M74.888,185.817c0-1.878-0.338-3.845-0.908-5.665c0.915,1.463,1.51,3.285,1.667,5.107c0.022,0.293,0.033,0.598,0.033,0.895
	c0,1.969-0.568,3.941-2.005,5.104C74.498,189.811,74.888,187.883,74.888,185.817z M72.57,176.832
	c-0.28-0.465-0.583-0.842-0.885-1.215c2.112,1.24,3.89,3.463,4.663,6.146c0.43,1.489,0.708,3.146,0.708,4.715
	c0,2.423-0.653,4.66-2.433,5.89c-0.968,0.673-2.365,1.117-3.837,1.338c0.19-0.067,0.333-0.21,0.512-0.287
	c0.13-0.023,0.275-0.023,0.408-0.043c3.212-0.492,5.175-3.279,5.175-7.188c0-0.335-0.007-0.683-0.04-1.027
	c-0.268-3.235-1.815-6.51-4.172-8.123C72.632,176.971,72.607,176.893,72.57,176.832z"/>
<path opacity="0.1" fill="#999999" d="M163.172,172.596c-0.02,0-0.034,0-0.039,0c-0.146,0.027-0.277,0.084-0.416,0.111
	c-0.052,0.014-0.109,0.025-0.156,0.048c-0.607,0.149-1.176,0.368-1.708,0.675c-0.077,0.041-0.163,0.07-0.243,0.105l-0.717,0.307
	c-0.215,0.098-0.346,0.303-0.359,0.531c-0.496,0.012-1.07,0.177-1.656,0.725c-1.944,1.807-2.832,6.654-2.832,9.237
	c0,0.452,0.03,0.848,0.08,1.125c0.5,2.59,2.23,4.202,4.141,5.229c1.209,1.61,2.787,2.795,4.754,2.998
	c1.5,0.154,2.878-0.255,4.08-1.045c0.735,0.074,1.471,0.074,2.15-0.178c1.564-0.557,2.728-1.98,3.57-4.332
	c0.359-1.051,0.532-2.26,0.532-3.543c0-3.473-1.271-7.383-3.335-9.407c-0.857-0.843-1.808-1.348-2.795-1.655
	c-0.535-0.297-1.096-0.515-1.66-0.683C165.295,172.373,164.205,172.348,163.172,172.596z M156.311,185.24
	c-0.053-0.26-0.078-0.6-0.078-0.992c0-1.048,0.183-2.451,0.495-3.838c-0.04,0.27-0.095,0.527-0.118,0.813
	c-0.034,0.34-0.052,0.705-0.052,1.072c0,1.828,0.413,3.897,1.205,5.758C157.075,187.3,156.522,186.391,156.311,185.24z
	 M161.313,174.822c-0.967,0.652-1.732,1.586-2.232,2.777c-0.415,0.99-0.617,2.088-0.617,3.178c0,2.072,0.717,4.152,2.055,5.603
	c2.27,2.45,5.38,3.303,8.098,2.228c0.598-0.237,1.133-0.58,1.622-0.973c-0.367,1.215-0.954,2.275-1.7,3.105
	c-0.047,0.018-0.104,0.039-0.146,0.05c-0.063-0.183-0.188-0.348-0.386-0.396c-1.692-0.438-3.295-1.063-4.851-1.66l-3.154-1.17
	c-0.29-0.102-0.588,0.043-0.73,0.318c-0.035,0.08-0.055,0.157-0.055,0.242c0,0.221,0.125,0.433,0.322,0.537l2.155,1.25
	c0.563,0.34,1.14,0.678,1.726,1.01c-1.006-0.215-2.201-0.572-3.351-1.156c-1.492-2.101-2.31-5.051-2.31-7.476
	c0-0.325,0.008-0.657,0.045-0.952c0.24-2.44,1.037-4.396,2.265-5.726c0.253-0.021,0.478-0.18,0.545-0.44
	c0.011-0.034,0.011-0.072,0.018-0.1c0.073-0.063,0.147-0.115,0.22-0.164C161.08,174.855,161.15,174.853,161.313,174.822z
	 M172.828,182.355c0.102,0.602,0.212,1.215,0.212,1.785c0,1.719-0.487,3.287-1.458,4.521c-0.197,0.266-0.449,0.465-0.678,0.684
	c0.488-1.08,0.796-2.285,0.918-3.528C172.408,184.822,172.725,183.633,172.828,182.355z M164.15,192.502
	c-0.633-0.069-1.208-0.299-1.75-0.58c0.432,0.105,0.832,0.195,1.197,0.266c0.697,0.127,1.365,0.18,2.027,0.195
	C165.145,192.465,164.67,192.555,164.15,192.502z M161.402,185.564c-1.732-1.882-2.248-5.035-1.207-7.5
	c0.47-1.1,1.667-2.989,4.457-3.066c1.232-0.041,2.335,0.43,3.266,1.379c1.872,1.92,2.782,5.49,2.782,8.264
	c0,0.217,0,0.422-0.005,0.622c0,0.048-0.018,0.079-0.025,0.117c-0.605,0.945-1.453,1.69-2.502,2.112
	C165.92,188.385,163.33,187.638,161.402,185.564z M168.8,175.57c1.792,1.574,2.893,3.765,2.91,6.027c0,0.027,0,0.053,0,0.082
	c0,0.125-0.04,0.235-0.04,0.354C171.258,179.617,170.314,177.13,168.8,175.57z"/>
<path opacity="0.1" fill="#6A0000" d="M58.62,178.987c-2.482,5.681-1.775,10.925,1.95,14.41c3.683,3.428,9.45,4.327,13.713,2.101
	l0,0c3.327-1.732,5.212-5.101,5.32-9.476c0.163-7.228-4.9-12.673-9.897-13.79C65.07,171.203,60.925,173.732,58.62,178.987z
	 M61.393,192.513c-1.955-1.833-4.775-5.952-1.67-13.038c2.085-4.76,5.632-6.975,9.73-6.072c4.518,1,9.105,5.982,8.95,12.575
	c-0.095,3.93-1.75,6.927-4.672,8.447l0,0C69.962,196.395,64.663,195.57,61.393,192.513z"/>
<path opacity="0.1" fill="#6A0000" d="M155.373,177.322c-2.485,5.676-1.773,10.923,1.944,14.408
	c3.688,3.439,9.448,4.314,13.716,2.098c3.322-1.726,5.217-5.101,5.319-9.473c0.16-7.226-4.902-12.688-9.897-13.788
	C161.813,169.537,157.668,172.063,155.373,177.322z M158.145,190.838c-1.959-1.82-4.774-5.938-1.664-13.038
	c2.08-4.753,5.622-6.97,9.723-6.06c4.518,1,9.109,5.977,8.947,12.572c-0.088,3.922-1.75,6.928-4.666,8.445
	C166.71,194.723,161.408,193.9,158.145,190.838z"/>
<path opacity="0.1" fill="#999999" d="M164.893,175.01c-1.888,0.025-3.832,0.985-5.395,2.578c-0.011,0.012-0.035,0.012-0.068,0.035
	c-0.072,0.031-0.063,0.127-0.109,0.191c-0.365,0.393-0.732,0.791-1.043,1.256c-0.061,0.102-0.1,0.215-0.1,0.334
	c0,0.191,0.1,0.373,0.268,0.49c0.27,0.19,0.657,0.11,0.845-0.157c0.274-0.433,0.61-0.795,0.938-1.152
	c2.515-1.226,6.723-1.232,8.84,0.024c0.25,0.148,0.553,0.104,0.75-0.102c0.192-0.211,0.218-0.527,0.053-0.748
	C168.623,175.967,166.867,174.992,164.893,175.01z M164.912,176.205c0.638-0.002,1.24,0.157,1.798,0.397
	c-1.107-0.17-2.292-0.205-3.465-0.083C163.795,176.335,164.355,176.217,164.912,176.205z"/>
<path opacity="0.1" fill="#CCCCCC" d="M65.79,180.893c-0.395,0.54-0.647,1.032-0.8,1.49c-0.925,0.535-1.473,1.395-1.563,2.463
	c-0.003,0.097-0.005,0.191-0.005,0.292c0,1.84,1.313,3.819,3.107,4.61c1.683,0.742,3.47,0.297,4.895-1.23
	c1.355-1.45,1.72-3.57,0.988-5.68c-0.66-1.902-2.038-3.273-3.502-3.49C67.757,179.18,66.65,179.725,65.79,180.893z M67.013,188.662
	c-1.338-0.59-2.393-2.17-2.393-3.521c0-0.073,0-0.136,0.005-0.198c0.022-0.29,0.11-0.53,0.23-0.755
	c0.155,0.658,0.513,1.125,0.765,1.377c0.225,0.23,0.495,0.434,0.782,0.605c0.502,0.678,1.615,1.33,4.243,1.018
	c0.127-0.016,0.228-0.082,0.313-0.162c-0.135,0.234-0.235,0.479-0.415,0.682C69.167,189.175,67.865,189.029,67.013,188.662z
	 M66.757,181.609c0.603-0.81,1.263-1.174,1.973-1.063c0.605,0.088,1.215,0.556,1.723,1.219c-0.558-0.278-1.198-0.311-1.88-0.076
	c-1.063,0.378-2.065,1.431-2.402,2.559c-0.115-0.238-0.19-0.471-0.19-0.719c0-0.1,0.053-0.194,0.073-0.297
	c0.1-0.043,0.185-0.095,0.305-0.12c0.27-0.067,0.445-0.315,0.445-0.577c0-0.055-0.003-0.098-0.018-0.152
	c-0.04-0.162-0.147-0.268-0.272-0.35C66.592,181.885,66.665,181.737,66.757,181.609z M67.215,184.987
	c0-0.777,0.838-1.84,1.758-2.167c0.748-0.263,1.32,0.02,1.712,0.824c0.567,1.155,0.027,1.535-0.15,1.668
	c-0.725,0.505-2.198,0.439-3.3-0.133C67.223,185.117,67.215,185.053,67.215,184.987z M71.228,186.295
	c0.038-0.035,0.092-0.08,0.138-0.12c-0.065,0.218-0.158,0.417-0.26,0.62c0.027-0.067,0.075-0.12,0.075-0.203
	c0-0.024,0-0.049,0-0.066c-0.005-0.078-0.063-0.113-0.09-0.166C71.132,186.317,71.19,186.313,71.228,186.295z"/>
<path opacity="0.1" fill="#CCCCCC" d="M162.859,179.367c-0.882-0.015-1.531,0.23-1.932,0.725c-0.5,0.648-0.516,1.596-0.053,2.746
	c0.779,1.896,2.822,4.098,4.635,4.332c2.721,0.346,4.338-1.547,4.745-3.592c0.442-2.264-0.503-4.928-3.173-5.646
	C165.135,177.425,163.638,178.252,162.859,179.367z M166.77,179.103c1.961,0.524,2.643,2.53,2.298,4.253
	c-0.268,1.375-1.319,2.885-3.396,2.622c-1.201-0.157-2.982-1.902-3.685-3.598c-0.159-0.405-0.247-0.771-0.247-1.048
	c0-0.212,0.047-0.372,0.125-0.49c0.1-0.111,0.279-0.18,0.502-0.222c-0.045,0.21-0.146,0.438-0.146,0.647
	c0,1.162,0.652,2.27,1.847,3.032c1.438,0.923,2.899,0.87,3.899-0.128c0.855-0.852,1.113-2.143,0.611-2.959
	c-0.193-0.315-0.815-0.996-2.176-0.508c-0.32,0.109-0.49,0.457-0.375,0.775c0.107,0.31,0.457,0.473,0.768,0.367
	c0.189-0.07,0.635-0.195,0.763,0.005c0.165,0.263,0.063,0.968-0.433,1.465c-0.59,0.593-1.445,0.583-2.41-0.032
	c-0.947-0.603-1.279-1.348-1.279-2.033c0-0.242,0.064-0.465,0.14-0.677c0.247-0.048,0.452-0.218,0.487-0.47
	c0-0.043,0.008-0.068,0.008-0.104c0-0.066-0.045-0.114-0.07-0.185C164.567,179.188,165.543,178.775,166.77,179.103z"/>
<path opacity="0.1" fill="#6A0000" d="M66.885,178.76c-2.197,0.378-3.737,1.881-4.242,4.131c-0.71,3.172,1.458,5.725,3.762,6.764
	c2.693,1.208,5.463,0.568,7.058-1.639l0,0c1.518-2.123,1.71-4.318,0.538-6.201C72.63,179.617,69.572,178.305,66.885,178.76z
	 M66.9,188.564c-1.882-0.854-3.647-2.902-3.083-5.404c0.393-1.78,1.56-2.92,3.275-3.215c2.19-0.367,4.778,0.732,5.893,2.518
	c0.39,0.619,0.575,1.268,0.575,1.957c0,0.922-0.36,1.897-1.065,2.888C70.975,189.397,68.605,189.325,66.9,188.564z"/>
<path opacity="0.1" fill="#6A0000" d="M163.635,177.096c-2.195,0.371-3.74,1.877-4.244,4.132c-0.708,3.167,1.457,5.726,3.768,6.765
	c2.682,1.208,5.459,0.561,7.052-1.652l0,0c1.521-2.112,1.708-4.311,0.535-6.188C169.373,177.947,166.317,176.641,163.635,177.096z
	 M163.647,186.893c-1.88-0.85-3.647-2.9-3.087-5.408c0.396-1.771,1.563-2.914,3.277-3.205c2.197-0.369,4.782,0.729,5.902,2.511
	c0.385,0.612,0.574,1.271,0.574,1.955c0,0.923-0.364,1.905-1.074,2.896C167.725,187.734,165.359,187.665,163.647,186.893z"/>
<g opacity="0.1">
	<path fill="#6A0000" d="M78.005,85.925c-0.865,9.048,0.76,18.735,2.33,28.11c0.74,4.425,1.438,8.607,1.893,12.717
		c0.268,2.431,0.435,4.979,0.595,7.443c0.398,6.064,0.808,12.332,2.72,17.877c0.11,0.32,0.453,0.488,0.77,0.375
		c0.313-0.105,0.48-0.455,0.373-0.765c-1.865-5.396-2.272-11.583-2.663-17.573c-0.16-2.472-0.33-5.039-0.603-7.486
		c-0.455-4.143-1.157-8.338-1.9-12.783c-1.553-9.292-3.167-18.905-2.313-27.792c0.035-0.333-0.212-0.625-0.542-0.657
		C78.333,85.353,78.042,85.595,78.005,85.925z"/>
	<path fill="#6A0000" d="M104.697,84.315c0,6.788-0.21,13.675-0.42,20.337c-0.202,6.675-0.415,13.56-0.415,20.363
		c0,3.48-0.28,7.115-0.545,10.645c-0.413,5.428-0.847,11.043-0.288,16.279c0.04,0.326,0.333,0.565,0.663,0.523
		c0.333-0.033,0.57-0.325,0.538-0.655c-0.55-5.133-0.123-10.683,0.288-16.063c0.27-3.545,0.552-7.21,0.552-10.738
		c0-6.777,0.208-13.667,0.415-20.32c0.205-6.678,0.415-13.57,0.415-20.377c0-0.333-0.272-0.598-0.603-0.598
		C104.967,83.717,104.697,83.985,104.697,84.315z"/>
	<path fill="#6A0000" d="M128.888,84.29c-0.375,8.435-1.963,16.995-3.5,25.26c-0.84,4.568-1.718,9.29-2.378,13.897
		c-0.615,4.395-1.065,8.995-1.487,13.428l-0.157,1.596c-1.123,11.59-1.095,11.597-0.365,11.704c0.26,0.042,0.607-0.045,0.74-0.677
		c0.007-0.051,0.01-0.086,0.01-0.115c0-0.086-0.047-0.146-0.07-0.213c0.042-1.4,0.572-7.37,0.885-10.574l0.152-1.605
		c0.423-4.423,0.868-9.006,1.48-13.368c0.655-4.583,1.523-9.295,2.37-13.853c1.542-8.308,3.14-16.91,3.518-25.425
		c0-0.005,0-0.018,0-0.028c0-0.315-0.247-0.58-0.572-0.595C129.186,83.695,128.9,83.958,128.888,84.29z"/>
	<path fill="#6A0000" d="M151.41,84.217c-1.412,8.485-4.207,18.13-6.915,27.455c-4.085,14.107-8.325,28.693-8.104,40.212
		c0.007,0.33,0.287,0.59,0.609,0.588c0.332,0,0.59-0.28,0.588-0.615c-0.211-11.338,3.987-25.83,8.057-39.853
		c2.715-9.365,5.523-19.04,6.94-27.595c0.063-0.33-0.16-0.635-0.497-0.688C151.772,83.665,151.473,83.89,151.41,84.217z"/>
	<path fill="#6A0000" d="M127.322,134.221c-5.105,0.454-10.322,0.652-15.385,0.842c-4.84,0.186-9.833,0.365-14.74,0.783l-5.885,0.59
		c-9.042,0.962-19.295,2.045-27.105-0.561c-0.32-0.107-0.66,0.067-0.763,0.375c-0.105,0.317,0.065,0.665,0.377,0.76
		c8.065,2.695,18.453,1.588,27.618,0.615l5.86-0.58c4.878-0.412,9.86-0.592,14.685-0.782c5.065-0.181,10.308-0.386,15.443-0.841
		c12.887-1.149,25.154-1.709,37.505-1.709c0.335,0,0.604-0.271,0.604-0.605c0-0.328-0.27-0.598-0.604-0.598
		C152.547,132.51,140.242,133.064,127.322,134.221z"/>
</g>
<path opacity="0.1" fill="#6A0000" d="M137.545,99.567c-3.848,0.36-7.484,0.705-10.605,0.828
	c-11.955,0.465-23.459,0.68-35.182,0.658c-5.007-0.013-10.26-0.413-15.345-0.798c-6.808-0.518-13.853-1.055-20.565-0.692
	c-0.333,0.022-0.588,0.305-0.568,0.635c0.015,0.338,0.298,0.588,0.628,0.575c6.642-0.365,13.645,0.165,20.415,0.678
	c5.103,0.387,10.375,0.792,15.433,0.8c11.74,0.033,23.263-0.185,35.232-0.655c3.147-0.118,6.798-0.468,10.673-0.83
	c10.92-1.03,23.317-2.195,31.438,0.79c0.314,0.117,0.678-0.042,0.782-0.353c0.115-0.31-0.052-0.658-0.364-0.775
	C161.127,97.345,148.6,98.525,137.545,99.567z"/>
<path opacity="0.1" fill="#6A0000" d="M138.178,117.71c-3.86,0.36-7.495,0.705-10.617,0.825c-11.923,0.472-23.433,0.68-35.17,0.66
	c-5.008-0.02-10.265-0.417-15.345-0.8c-6.805-0.518-13.85-1.053-20.57-0.683c-0.328,0.02-0.583,0.297-0.567,0.63
	c0.017,0.328,0.302,0.588,0.63,0.563c6.635-0.352,13.64,0.17,20.41,0.693c5.103,0.385,10.383,0.782,15.44,0.795
	c11.747,0.032,23.272-0.188,35.218-0.655c3.157-0.12,6.813-0.465,10.68-0.83c10.925-1.03,23.305-2.19,31.439,0.792
	c0.315,0.115,0.66-0.048,0.777-0.355c0.118-0.308-0.049-0.655-0.361-0.773C161.758,115.495,149.217,116.667,138.178,117.71z"/>
</svg>
