<?xml version="1.0" encoding="utf-8"?>
<!-- Generator: Adobe Illustrator 16.0.0, SVG Export Plug-In . SVG Version: 6.00 Build 0)  -->
<!DOCTYPE svg PUBLIC "-//W3C//DTD SVG 1.1//EN" "http://www.w3.org/Graphics/SVG/1.1/DTD/svg11.dtd">
<svg version="1.1" id="图层_1" xmlns="http://www.w3.org/2000/svg" xmlns:xlink="http://www.w3.org/1999/xlink" x="0px" y="0px"
	 width="250px" height="250px" viewBox="0 0 250 250" enable-background="new 0 0 250 250" xml:space="preserve">
<g>
	<g transform="scale(0.1953125, 0.1953125)">
		<path fill="#E5E5E5" d="M1059.597,708.478v79c28.6-60.2,44.8-127.4,44.8-198.399c0-255.199-206.999-462.199-462.199-462.199
			S180,333.879,180,589.079c0,3.2,0.2,6.4,0.2,9.6l166-206h96.4l-142.8,215.8h46.4v-54.8l99.2-154.6v209.399v100v82.4h-99.2v-82.4
			H195.6c43,161,170.599,287.399,332.399,328.599c-10.4,26.2-40.6,89.4-90.8,100.6c-62.2,14,168.8,3.4,333.599-104.6
			c126.6-36.6,230.799-125.8,287.399-242.199h-97.6v-82.4h-166.2v-87.2v-12.8v-9.6l166.2-206.199h94l-140.4,215.8h46.4v-59l99.2-154
			v213.199v99.8H1059.597z M494.199,730.878c-4.8-11.2-7.2-23.2-7.2-36v-214.4c0-12.8,2.4-24.8,7.2-36c4.8-11.2,11.4-21,19.6-29.2
			c8.2-8.2,18-14.8,29.2-19.6s23.2-7.2,36-7.2h81.6c12.8,0,24.8,2.4,36,7.2c11,4.8,20.6,11.2,28.8,19.2l-88.6,129.4v-23
			c0-4.8-1.6-8.8-4.8-12c-3.2-3.2-7.2-4.8-12-4.8c-4.8,0-8.8,1.6-12,4.8c-3.2,3.2-4.8,7.2-4.8,12v72l-102.6,149.6
			C498.199,739.078,495.999,735.078,494.199,730.878z M752.398,694.878c0,12.8-2.4,24.8-7.2,36c-4.8,11.2-11.4,21-19.6,29.2
			c-8.2,8.2-18,14.8-29.2,19.6c-11.2,4.8-23.2,7.2-36,7.2h-81.6c-12.8,0-24.8-2.4-36-7.2c-11.2-4.8-21-11.4-29.2-19.6
			c-3.6-3.6-7-7.8-10-12l99.2-144.6v50.6c0,4.8,1.6,8.8,4.8,12c3.2,3.2,7.2,4.8,12,4.8c4.8,0,8.8-1.6,12-4.8c3.2-3.2,4.8-7.2,4.8-12
			v-99.6l92.6-135.199c6.6,7.4,12,15.8,16,25.2c4.8,11.2,7.2,23.2,7.2,36v214.4H752.398z"/>
	</g>
</g>
</svg>
