<?xml version="1.0" encoding="utf-8"?>
<!-- Generator: Adobe Illustrator 16.0.0, SVG Export Plug-In . SVG Version: 6.00 Build 0)  -->
<!DOCTYPE svg PUBLIC "-//W3C//DTD SVG 1.1//EN" "http://www.w3.org/Graphics/SVG/1.1/DTD/svg11.dtd">
<svg version="1.1" id="图层_1" xmlns="http://www.w3.org/2000/svg" xmlns:xlink="http://www.w3.org/1999/xlink" x="0px" y="0px"
	 width="250px" height="250px" viewBox="0 0 250 250" enable-background="new 0 0 250 250" xml:space="preserve">
<circle opacity="0.5" fill="#F6F5F5" enable-background="new    " cx="125.737" cy="125.522" r="122.732"/>
<path opacity="0.3" fill="#BCBCBC" d="M138.605,180.662c-12.479-2.666-31.126-1.556-40.39-0.665
	c-5.566,0.665-11.942,2.446-14.18,5.561c-1.334,2.003,2.977,3.782,7.53,4.673c-0.015,0.223,9.682,1.558,13.369,1.558
	c4.937,0.223,10.075,0.223,15.068,0.223c13.916-0.223,25.367-2.002,26.563-5.562C147.567,183.555,141.528,181.33,138.605,180.662z
	 M133.936,181.775c0.017,0,0.025,0,0.036-0.222c0.385,0.222,0.755,0.222,1.119,0.445c-0.188,0-0.369,0-0.547,0
	c-0.119,0-0.237,0.224-0.352,0.224c-0.07,0-0.142,0-0.208,0c-0.35,0-0.695,0-1.031,0
	C133.35,181.999,133.711,181.775,133.936,181.775z M133.999,184.224c-0.023,0-0.042,0-0.071,0c-0.134,0-0.273,0-0.411,0
	C133.677,184.224,133.837,184.224,133.999,184.224z M130.524,181.106c0.465,0,0.942,0,1.425,0.224c-0.231,0-0.459,0-0.692,0
	c-0.159,0-0.333,0.224-0.506,0.224c0.186-0.224,0.021-0.447-0.302-0.447C130.482,181.106,130.509,181.106,130.524,181.106z
	 M130.113,184.002c0.747-0.224,1.526-0.224,2.303-0.447c0.256,0,0.575,0,0.888,0c-0.291,0-0.572,0-0.856,0.224
	c-1.231,0.224-2.428,0.445-3.594,0.669c-0.098,0-0.121,0-0.018-0.224h0.009c0.231,0,0.465,0,0.696,0
	c0.028-0.222,0.058-0.222,0.087-0.222C129.785,184.002,129.953,184.002,130.113,184.002z M129.503,183.11c0.022,0,0.046,0,0.061,0
	c-0.657,0.224-1.311,0.224-1.953,0.444C128.234,183.334,128.871,183.334,129.503,183.11z M124.377,180.218c0.267,0,0.534,0,0.813,0
	c0.096,0.223,0.189,0.223,0.281,0.223c-0.294,0-0.607,0-0.933,0c-0.068,0-0.142,0-0.219-0.223
	C124.339,180.218,124.357,180.218,124.377,180.218z M122.04,182.443c0.97-0.221,1.958-0.444,2.869-0.668c0.149,0,0.301,0,0.448,0
	c-1.268,0.224-2.495,0.447-3.705,0.891c-0.083,0-0.157,0-0.229,0C121.629,182.443,121.831,182.443,122.04,182.443z M124.257,183.334
	c-0.206,0.221-0.414,0.221-0.62,0.221c0.113,0,0.231,0,0.34-0.221C124.07,183.334,124.17,183.334,124.257,183.334z M118.947,180.218
	c0.248,0,0.502,0,0.759,0c-0.264,0-0.524,0-0.781,0.223C118.939,180.218,118.947,180.218,118.947,180.218z M114.719,181.106
	c0.014,0,0.027,0,0.042,0c0.379-0.221,0.511-0.221,0.455-0.444c0.127,0,0.255,0,0.369,0c2.736-0.444-0.091,0-1.008,0.444
	c-0.034,0-0.062,0-0.095,0C114.565,181.106,114.646,181.106,114.719,181.106z M111.735,179.773c0.322,0,0.645,0,0.966,0
	c0.007,0,0.009,0,0.014,0c-0.083,0.224-0.075,0.224,0.05,0.444c0.014,0,0.022,0,0.036,0c-0.046,0-0.093,0-0.138,0
	c-0.278,0-0.661-0.221-1.073-0.221C111.679,179.997,111.727,179.997,111.735,179.773z M111.552,181.775c0.118,0,0.24,0,0.37,0
	c0.747-0.222,1.546-0.222,2.177-0.445c0.056,0,0.118,0,0.17,0c-0.023,0-0.052,0-0.08,0c-0.327,0.224-0.648,0.224-0.971,0.224
	c-0.748,0.222-1.488,0.445-2.225,0.669C111.198,181.999,111.387,181.999,111.552,181.775z M99.796,182.888c0.748,0,1.879,0,3.155,0
	c-0.164,0-0.325,0-0.491,0c-0.198,0.223-0.392,0.223-0.586,0.223c-0.295,0.224-0.593,0.224-0.88,0.224c-0.048,0-0.082,0-0.114,0
	c-0.613,0-1.09,0-1.113-0.224C99.76,182.888,99.767,182.888,99.796,182.888z M98.778,185.113c0.179,0,0.35,0,0.535,0
	c0.004,0,0.009,0,0.014,0c0.03,0,0.061,0,0.1,0c-0.208,0-0.412,0.223-0.602,0.223c-0.294,0.222-0.34,0.222-0.239,0.444
	c-0.234,0-0.471,0-0.702,0.224c-0.106-0.224-0.237-0.224-0.387-0.224c-0.105,0-0.215,0-0.328,0
	C97.737,185.558,98.306,185.336,98.778,185.113z M87.625,186.449c0.145,0,0.303,0,0.448,0c0.498-0.224,0.977-0.224,1.458-0.445
	c0.028,0,0.062,0,0.095,0c-0.55,0.445-1.157,0.667-1.713,0.891C87.798,186.671,87.708,186.671,87.625,186.449z M89.861,188.228
	c-0.374-0.222-0.724-0.443-1.031-0.667c0.606,0,1.198-0.222,1.799-0.445c0.151,0,0.296,0.224,0.462,0.224c0.025,0,0.053,0,0.082,0
	c-0.54,0.445-0.96,0.667-1.211,0.889C89.916,188.228,89.881,188.228,89.861,188.228z M91.291,188.896c-0.032,0-0.061,0-0.088,0
	c-0.142,0-0.285-0.221-0.414-0.221c0.265,0,0.555,0,0.806,0c0.111,0,0.234,0,0.373,0C91.736,188.675,91.51,188.675,91.291,188.896z
	 M94.542,186.004h-0.273c-0.147,0-0.326-0.224-0.587-0.224c-0.162,0-0.318,0-0.482,0c0.072,0,0.141-0.223,0.213-0.223
	c0.446,0,0.851-0.222,1.206-0.444c0.494-0.225,0.994-0.225,1.505-0.446c-0.278,0.222-0.54,0.222-0.784,0.446
	c-0.364,0.223-0.279,0.444,0.037,0.444c-0.128,0.223-0.253,0.223-0.366,0.446C94.855,186.004,94.699,186.004,94.542,186.004z
	 M95.754,189.784c-0.086,0-0.146,0-0.193,0c-0.171,0-0.331,0-0.501,0c0.425,0,0.836-0.222,1.248-0.222
	C96.114,189.563,95.925,189.784,95.754,189.784z M97.018,187.339c0.044,0,0.086,0,0.129,0c0.572-0.224,1.105-0.444,1.646-0.668
	c0.444,0,0.887-0.222,1.321-0.222c0.127,0,0.261-0.224,0.382-0.224c-0.335,0.224-0.622,0.445-0.789,0.445
	c-0.781,0.224-1.565,0.444-2.4,0.668C97.222,187.339,97.122,187.339,97.018,187.339z M103.086,190.453
	c-1.122,0.222-3.097,0-4.299-0.223c0.033,0,0.072,0,0.105,0c0.708-0.222,1.424-0.222,2.114-0.446c0.186,0,0.375-0.222,0.572-0.222
	c0.475,0,0.92,0,1.286-0.223c0.058,0,0.114,0,0.178,0c-0.508,0.223-0.989,0.444-1.42,0.669c-0.616,0.222,0.628,0.666,1.447,0.444
	c0.104,0,0.204,0,0.313-0.223C103.285,190.453,103.195,190.453,103.086,190.453z M103.714,181.554
	c0.554-0.224,1.085-0.447,1.583-0.447c0.869-0.444,1.79-0.221,2.753,0.224c-0.109,0-0.233,0-0.347,0
	c-0.274-0.224-0.828-0.224-1.416,0c-0.738,0-1.53,0.224-2.303,0.224C103.89,181.554,103.8,181.554,103.714,181.554z
	 M104.718,188.228c0.553-0.222,1.298-0.443,2.111-0.889c-0.021,0-0.043,0-0.063,0c0.07,0,0.148,0,0.22,0
	c-0.021,0-0.035,0.222-0.035,0.222c0,0.224-0.023,0.445-0.043,0.445c-0.847,0.222-1.627,0.222-2.386,0.445
	C104.591,188.451,104.652,188.228,104.718,188.228z M108.84,190.675c-0.118,0-0.141,0.224-0.1,0.224c-0.989,0-1.992,0-3.01,0
	c-0.592,0-0.853-0.224-0.855-0.445c0.038,0,0.079,0,0.117,0c0.028,0.222,0.692,0.445,1.269,0.222
	c0.256,0.224,0.621,0.224,0.985,0.224c0.68-0.224,1.23-0.224,1.744-0.224C108.945,190.675,108.888,190.675,108.84,190.675z
	 M108.812,182.443c-0.039,0-0.066,0-0.101,0c0.049,0.223,0.062,0.223,0.088,0.223c-0.551,0.222-1.1,0.222-1.649,0.444
	c-0.139-0.223-0.274-0.223-0.405-0.223c0.143,0,0.292,0,0.43-0.222c0.317,0,0.431-0.223,0.427-0.223c0.112,0,0.227,0,0.34-0.221
	c0.393,0,0.771,0,1.128,0C109.102,182.223,109.028,182.443,108.812,182.443z M113.076,186.449c-0.029,0-0.162,0-0.426,0.222
	c-0.891,0.224-1.816,0.444-2.717,0.668c0.279-0.444,0.62-0.89,1.05-1.335c0.228,0,0.455,0,0.683-0.224
	c0.15,0.224,0.455,0.224,0.908,0.224h0.694c0.021,0,0.028,0,0.049,0c-0.044,0-0.023,0.222,0.09,0.222
	C113.297,186.226,113.189,186.226,113.076,186.449z M115.366,184.002c0.102,0,0.194,0,0.288,0c-0.68,0-1.356,0.222-2.039,0.445
	C114.196,184.224,114.782,184.002,115.366,184.002z M113.63,185.336c0.207-0.223,0.425-0.223,0.63-0.223
	c0.431-0.225,0.865-0.225,1.305-0.225c-0.451,0-1.009,0.225-1.466,0.447C113.997,185.336,113.837,185.336,113.63,185.336z
	 M117.447,188.675c-0.443,0-0.898,0.221-1.352,0.221c-0.066,0-0.139,0-0.21,0c-0.184,0-0.373,0-0.556,0.223
	c0.018-0.223,0.537-0.443,0.985-0.667c0.433,0,0.844,0.224,1.241,0.224C117.523,188.675,117.487,188.675,117.447,188.675z
	 M119.171,187.339c-0.113,0-0.227,0-0.337,0c0.183,0,0.375-0.224,0.569-0.224C119.324,187.115,119.243,187.115,119.171,187.339z
	 M120.369,182.888c-1.004,0.223-2.011,0.446-3.023,0.667h-0.086c-0.072,0-0.143,0-0.218,0c-0.014,0-0.033,0-0.049,0
	c0.214,0,0.427-0.221,0.646-0.221c0.973-0.224,1.939-0.446,2.896-0.668C120.483,182.888,120.425,182.888,120.369,182.888z
	 M121.127,186.671c0.052,0,0.111,0,0.165,0c0.046,0,0.098,0,0.146,0C121.338,186.671,121.231,186.671,121.127,186.671z
	 M122.911,186.004c0.762-0.224,1.51-0.446,2.21-0.668c0.706-0.223,1.418-0.447,2.138-0.669c0.059,0.222,0.045,0.222-0.057,0.222
	c-0.649,0.225-1.317,0.447-1.96,0.669c-0.26,0-0.566,0.223-0.896,0.223c-0.99,0.224-1.966,0.445-2.841,0.891
	C121.939,186.449,122.405,186.226,122.911,186.004z M126.044,186.449c0.113,0,0.204,0,0.283,0c-0.175,0-0.351,0.222-0.523,0.222
	c0.059,0.224-0.009,0.224-0.249,0.444c-0.021,0-0.04,0-0.066,0c-0.528,0-1.063,0.224-1.594,0.445
	c0.01-0.222,0.019-0.222,0.032-0.222c-0.372,0-0.737,0-1.116,0C123.892,187.115,125.024,186.671,126.044,186.449z M126.178,190.009
	c-0.049,0-0.097,0-0.148,0c-0.138,0-0.287,0.222-0.457,0.222c-0.31,0.223-0.938,0.223-1.327,0c-0.215,0-0.483,0-0.757,0
	c0.961-0.222,1.918-0.446,2.876-0.668c0.188,0,0.36,0,0.53,0c0.21,0,0.45,0,0.701,0c1.874-0.223,3.455-0.667,4.974-1.111
	c0.516,0,1.009-0.224,1.481-0.224c0.117,0,0.209-0.222,0.283-0.222C133.367,189.118,128.618,190.009,126.178,190.009z
	 M135.31,186.226c-0.2,0.224-0.393,0.224-0.588,0.224c-0.129,0-0.319,0-0.545,0c0,0,0.01,0,0.01-0.224c0.373,0,0.756,0,1.126-0.222
	C135.31,186.226,135.305,186.226,135.31,186.226z M137.543,187.339c-0.01,0-0.01-0.224-0.01-0.224
	c0.621-0.221,1.273-0.221,1.967-0.444C138.928,186.895,138.269,187.115,137.543,187.339z M139.206,183.334
	c0.164,0,0.24-0.224,0.246-0.224c0.747,0,1.124,0.224,1.03,0.444l0,0h-0.009c-0.143,0-0.317,0-0.536,0
	C139.688,183.334,139.44,183.334,139.206,183.334z M140.491,186.449c-0.009-0.224-0.018-0.224-0.033-0.224
	c0.133,0,0.211-0.222,0.251-0.445c0.303-0.223,0.597-0.444,0.854-0.667C141.518,185.558,141.125,186.004,140.491,186.449z"/>
<path opacity="0.1" fill="#FFFFFF" d="M193.969,144.865l-0.021-0.282c0-0.02,0-0.039,0-0.053l0.016-0.063
	c0.023-0.121,0.051-0.211,0.094-0.28c6.896-12.446,11.264-23.343,10.182-36.089c-2.453-28.551-25.107-51.931-56.367-58.176
	c-7.039-1.407-14.166-2.121-21.178-2.121c-14.122,0-27.655,2.96-39.138,8.557c-18.383,8.956-31.307,23.31-35.461,39.38
	c-4.658,18.027-1.246,36.824,9.126,50.28c9.38,12.163,24.58,20.993,42.795,24.861c6.98,1.485,14.255,2.234,21.623,2.234
	c11.111,0,22.572-1.691,34.061-5.03c2.67-0.775,4.904-1.473,7.129-2.343c0.748-0.289,1.471-0.653,2.166-1.007
	c0.895-0.448,1.744-0.876,2.52-1.092c0.551-0.158,1.713,0.686,2.529,1.273c0.322,0.232,0.631,0.452,0.918,0.641
	c0,0,14.148,9.999,20.646,13.389c2.688,1.403,4.494-0.302,3.893-3.608C197.002,161.593,195.389,154.58,193.969,144.865z"/>
<path opacity="0.1" fill="#FFFAF4" d="M193.963,144.467c0.023-0.121,0.051-0.211,0.094-0.28
	c6.896-12.446,11.264-23.343,10.182-36.089c-2.307-26.845-22.477-49.116-50.861-56.874c-12.816,6.857-25.565,13.871-37.702,21.868
	c-3.659,2.411-7.292,4.865-10.847,7.426c-1.935,1.394-3.861,2.797-5.76,4.24c-0.335,0.254-0.583,0.444-0.77,0.584
	c-0.479,0.376-0.958,0.75-1.434,1.128c-6.595,5.26-13.003,10.751-19.213,16.463c-8.73,8.031-17.137,16.392-25.433,24.864
	c1.853,6.661,4.875,12.862,9.002,18.22c9.38,12.163,24.58,20.993,42.795,24.861c6.98,1.485,14.255,2.234,21.623,2.234
	c11.111,0,22.572-1.691,34.061-5.03c2.67-0.775,4.904-1.473,7.129-2.343c0.748-0.289,1.471-0.653,2.166-1.007
	c0.895-0.448,1.744-0.876,2.52-1.092c0.551-0.158,1.713,0.686,2.529,1.273c0.322,0.232,0.631,0.452,0.918,0.641
	c0,0,14.148,9.999,20.646,13.389c2.688,1.403,4.494-0.302,3.893-3.608c-2.498-13.742-4.111-20.755-5.531-30.47l-0.021-0.282
	c0-0.02,0-0.039,0-0.053L193.963,144.467z"/>
<path opacity="0.1" fill="#B43252" stroke="#F6F5F5" stroke-width="3" stroke-miterlimit="10" d="M199.098,101.436
	c0.584,5.357,0.57,10.907-0.523,16.209c-1.607,7.875-5.541,15.525-9.422,22.568c3.088,12.639,5.744,25.65,6.512,38.634
	c0.121,2.092-2.492,3.553-4.225,2.432c-9.496-6.163-18.992-12.321-28.48-18.48c-7.338,3.449-15.445,5.413-23.377,6.856
	c-8.385,1.526-16.963,2.68-25.506,2.318c-31.424-1.314-66.921-16.448-74.468-50.157c-3.681-16.459-1.435-34.793,8.276-48.853
	c10.074-14.572,25.609-24.71,42.524-29.626c31.833-9.257,73.033-3.088,94.525,24.268C192.629,77.398,197.734,89.003,199.098,101.436
	z M183.748,138.4c6.111-11.029,11.025-22.137,9.936-34.944c-2.539-29.579-26.666-50.769-54.76-56.381
	c-19.594-3.915-40.912-2.566-59.045,6.272C64.158,61.005,49.986,73.99,45.479,91.425c-4.243,16.426-1.716,34.945,8.773,48.553
	c10.075,13.066,25.754,20.757,41.625,24.126c18.19,3.866,36.901,2.414,54.708-2.758c2.34-0.684,4.684-1.396,6.961-2.287
	c1.602-0.624,3.232-1.709,4.883-2.165c1.82-0.497,3.684,1.268,5.07,2.165c7.369,4.779,14.74,9.562,22.109,14.341
	c-1.107-11.061-3.496-22.087-6.141-32.833c-0.035-0.139-0.041-0.261-0.059-0.379c-0.008-0.048-0.016-0.096-0.023-0.138
	c-0.008-0.095-0.008-0.191,0-0.28c0-0.12,0.008-0.231,0.023-0.36c0.01-0.046,0.018-0.104,0.035-0.162
	C183.498,138.978,183.588,138.687,183.748,138.4z"/>
<g opacity="0.1">
	<path fill="#B43252" stroke="#F6F5F5" stroke-miterlimit="10" d="M64.96,146.661c0.099-0.761-0.713-1.403-1.404-1.403
		c-0.838,0-1.307,0.645-1.404,1.403c-0.271,2.109-0.501,4.122,0.392,6.123c0.739,1.648,3.157,0.22,2.424-1.417
		C64.336,149.955,64.772,148.128,64.96,146.661z"/>
	<path fill="#B43252" stroke="#F6F5F5" stroke-miterlimit="10" d="M70.275,149.438c0.646-1.694-2.069-2.419-2.708-0.746
		c-0.842,2.206-0.745,5.679,0.543,7.698c0.968,1.523,3.399,0.117,2.422-1.417C69.615,153.536,69.681,150.995,70.275,149.438z"/>
	<path fill="#B43252" stroke="#F6F5F5" stroke-miterlimit="10" d="M75.887,151.072c0.071-1.811-2.737-1.805-2.806,0
		c-0.129,3.38,0.706,6.609,1.754,9.797c0.563,1.713,3.274,0.977,2.708-0.746C76.569,157.166,75.768,154.213,75.887,151.072z"/>
	<path fill="#B43252" stroke="#F6F5F5" stroke-miterlimit="10" d="M81.602,152.876c-0.121-1.797-2.929-1.809-2.807,0
		c0.238,3.549,0.641,7.033,1.854,10.396c0.609,1.692,3.323,0.964,2.707-0.744C82.225,159.39,81.825,156.188,81.602,152.876z"/>
	<path fill="#B43252" stroke="#F6F5F5" stroke-miterlimit="10" d="M84.677,154.883c0.198,2.86,0.671,5.692,0.87,8.555
		c0.125,1.793,2.931,1.806,2.807,0c-0.199-2.862-0.671-5.694-0.869-8.555C87.36,153.086,84.551,153.073,84.677,154.883z"/>
	<path fill="#B43252" stroke="#F6F5F5" stroke-miterlimit="10" d="M94.034,156.755c0.052-1.813-2.755-1.807-2.807,0
		c-0.101,3.484,1.161,6.721,1.653,10.127c0.259,1.788,2.963,1.027,2.707-0.744C95.131,162.983,93.941,159.98,94.034,156.755z"/>
	<path fill="#B43252" stroke="#F6F5F5" stroke-miterlimit="10" d="M100.3,158.118c-0.262-1.785-2.968-1.026-2.707,0.745
		c0.413,2.814,0.686,5.646,1.18,8.448c0.314,1.779,3.021,1.021,2.707-0.748C100.986,163.765,100.712,160.929,100.3,158.118z"/>
	<path fill="#B43252" stroke="#F6F5F5" stroke-miterlimit="10" d="M171.285,144.134c-1.107-1.433-3.078,0.57-1.986,1.981
		c7.201,9.293,13.793,19.103,20.635,28.657c1.045,1.458,3.479,0.059,2.424-1.417C185.375,163.604,178.633,153.612,171.285,144.134z"
		/>
	<path fill="#B43252" stroke="#F6F5F5" stroke-miterlimit="10" d="M166.225,148.56c-1.09-1.414-3.527-0.017-2.426,1.415
		c6.178,8.018,11.949,16.285,18.469,24.047c1.166,1.387,3.139-0.61,1.984-1.986C177.889,164.458,172.254,156.385,166.225,148.56z"/>
	<path fill="#B43252" stroke="#F6F5F5" stroke-miterlimit="10" d="M189.566,163.711c1.025,1.473,3.463,0.073,2.422-1.417
		c-5.305-7.605-10.338-15.414-16.428-22.438c-1.186-1.372-3.162,0.621-1.98,1.984C179.514,148.688,184.398,156.299,189.566,163.711z
		"/>
	<path fill="#B43252" stroke="#F6F5F5" stroke-miterlimit="10" d="M160.383,152.272c-0.957-1.534-3.385-0.126-2.428,1.416
		c1.48,2.369,2.957,4.816,4.641,7.047c1.078,1.426,3.518,0.03,2.426-1.417C163.334,157.088,161.857,154.641,160.383,152.272z"/>
	<path fill="#B43252" stroke="#F6F5F5" stroke-miterlimit="10" d="M187.814,150.627c1.127,1.413,3.1-0.584,1.984-1.985
		c-3.588-4.486-6.717-9.34-10.426-13.733c-1.172-1.385-3.145,0.611-1.986,1.985C181.094,141.285,184.229,146.14,187.814,150.627z"/>
	<path fill="#B43252" stroke="#F6F5F5" stroke-miterlimit="10" d="M185.51,137.626c1.309,1.245,3.297-0.735,1.98-1.985
		c-1.928-1.833-3.623-3.825-5.313-5.875c-1.152-1.398-3.125,0.6-1.982,1.981C181.883,133.801,183.58,135.793,185.51,137.626z"/>
	<path fill="#B43252" stroke="#F6F5F5" stroke-miterlimit="10" d="M188.783,132.517c1.242,1.318,3.225-0.673,1.982-1.986
		c-1.938-2.056-3.818-4.179-5.846-6.147c-1.299-1.262-3.283,0.721-1.984,1.983C184.963,128.336,186.844,130.46,188.783,132.517z"/>
	<path fill="#B43252" stroke="#F6F5F5" stroke-miterlimit="10" d="M147.998,155.786c-0.742-1.648-3.158-0.223-2.426,1.417
		c1.086,2.425,2.193,4.796,3.566,7.076c0.932,1.55,3.361,0.137,2.426-1.417C150.189,160.585,149.08,158.212,147.998,155.786z"/>
	<path fill="#B43252" stroke="#F6F5F5" stroke-miterlimit="10" d="M154.205,154.666c-0.918-1.562-3.342-0.148-2.426,1.416
		c1.43,2.437,2.688,4.98,4.01,7.482c0.852,1.598,3.273,0.178,2.424-1.42C156.891,159.646,155.635,157.102,154.205,154.666z"/>
	<path fill="#B43252" stroke="#F6F5F5" stroke-miterlimit="10" d="M141.436,157.625c-0.66-1.661-3.375-0.939-2.709,0.745
		c1.08,2.711,2.148,5.492,3.461,8.097c0.814,1.618,3.236,0.196,2.426-1.417C143.406,162.659,142.424,160.111,141.436,157.625z"/>
	<path fill="#B43252" stroke="#F6F5F5" stroke-miterlimit="10" d="M128.537,159.118c-0.439-1.755-3.147-1.007-2.707,0.747
		c0.634,2.523,1.324,5.025,1.906,7.558c0.4,1.766,3.108,1.018,2.705-0.745C129.862,164.143,129.172,161.639,128.537,159.118z"/>
	<path fill="#B43252" stroke="#F6F5F5" stroke-miterlimit="10" d="M134.932,158.486c-0.617-1.683-3.332-0.958-2.707,0.746
		c0.976,2.653,1.759,5.377,2.617,8.071c0.553,1.717,3.262,0.981,2.711-0.747C136.691,163.862,135.906,161.141,134.932,158.486z"/>
	<path fill="#B43252" stroke="#F6F5F5" stroke-miterlimit="10" d="M121.93,160.193c-0.293-1.784-2.999-1.025-2.707,0.744
		c0.455,2.761,0.889,5.582,1.581,8.298c0.446,1.754,3.153,1.01,2.705-0.744C122.816,165.774,122.384,162.953,121.93,160.193z"/>
	<path fill="#B43252" stroke="#F6F5F5" stroke-miterlimit="10" d="M106.967,159.744c-0.067-1.805-2.874-1.809-2.807,0
		c0.106,2.865,0.683,5.677,1.124,8.5c0.28,1.785,2.984,1.026,2.708-0.743C107.588,164.92,107.063,162.359,106.967,159.744z"/>
	<path fill="#B43252" stroke="#F6F5F5" stroke-miterlimit="10" d="M111.797,160.787c0.365,2.679,0.528,5.392,0.78,8.08
		c0.168,1.785,2.978,1.805,2.808,0c-0.276-2.941-0.482-5.894-0.881-8.825C114.26,158.254,111.555,159.017,111.797,160.787z"/>
	<path fill="#B43252" stroke="#F6F5F5" stroke-miterlimit="10" d="M191,97.016c-1.154-1.399-3.127,0.598-1.984,1.985
		c1.688,2.05,3.385,4.042,5.314,5.876c1.311,1.248,3.301-0.734,1.984-1.984C194.385,101.06,192.691,99.067,191,97.016z"/>
	<path fill="#B43252" stroke="#F6F5F5" stroke-miterlimit="10" d="M188.584,90.61c2.029,1.97,3.908,4.093,5.848,6.148
		c1.242,1.32,3.225-0.668,1.982-1.983c-1.938-2.057-3.82-4.18-5.846-6.148C189.27,87.365,187.283,89.348,188.584,90.61z"/>
	<path fill="#B43252" stroke="#F6F5F5" stroke-miterlimit="10" d="M191.826,88.738c1.242,1.32,3.223-0.669,1.98-1.984
		c-1.938-2.057-3.818-4.179-5.846-6.149c-1.299-1.261-3.287,0.722-1.986,1.984C188.004,84.559,189.885,86.683,191.826,88.738z"/>
	<path fill="#B43252" stroke="#F6F5F5" stroke-miterlimit="10" d="M190.533,104.466c-1.299-1.261-3.283,0.721-1.982,1.983
		c2.027,1.97,3.908,4.094,5.848,6.148c1.242,1.32,3.225-0.668,1.98-1.983C194.443,108.558,192.559,106.435,190.533,104.466z"/>
	<path fill="#B43252" stroke="#F6F5F5" stroke-miterlimit="10" d="M189.73,111.95c-1.297-1.261-3.283,0.722-1.982,1.984
		c2.025,1.97,3.908,4.094,5.846,6.149c1.244,1.32,3.227-0.667,1.984-1.985C193.641,116.043,191.76,113.92,189.73,111.95z"/>
	<path fill="#B43252" stroke="#F6F5F5" stroke-miterlimit="10" d="M187.26,118.099c-1.289-1.273-3.275,0.71-1.988,1.985
		c2.09,2.065,4.359,3.946,6.619,5.814c1.385,1.145,3.381-0.831,1.984-1.985C191.611,122.044,189.346,120.164,187.26,118.099z"/>
</g>
<g opacity="0.1">
	<path fill="#E5B7C3" stroke="#B43252" stroke-width="0.5" stroke-miterlimit="10" d="M83.467,116.244l3.521,0.228l0.542-8.411
		l-2.25-0.145l-1.189-1.349l1.795-27.984c0-0.005-0.004-0.01-0.007-0.015c-1.168-1.056-3.146-2.534-5.942-4.439
		c-4.347-2.959-6.99-4.468-7.925-4.529c-0.647-0.04-2.199,2.099-4.654,6.417c-2.458,4.32-5.146,9.729-8.066,16.227
		c-2.837,6.307-5.027,11.971-6.587,17l8.327,5.562l11.173,0.718l1.188,1.349L72.673,128.1l9.996,0.643L83.467,116.244z
		 M74.015,107.192l-8.711-0.559l-1.189-1.351c3.709-10.069,7.149-18.212,10.317-24.43l1.187,1.348L74.015,107.192z"/>
	<path fill="#E5B7C3" stroke="#B43252" stroke-width="0.5" stroke-miterlimit="10" d="M109.789,131.54
		c1.996,0.131,5.065-1.381,9.215-4.53c4.148-3.152,6.677-5.611,7.588-7.378c0.908-1.768,1.562-5.732,1.956-11.892l0.688-10.735
		c0.408-6.335,0.332-10.196-0.227-11.589c-0.572-1.354-1.672-2.989-3.295-4.911c-0.716-0.787-1.509-1.614-2.379-2.484
		c-3.654-3.65-6.478-5.542-8.471-5.671c-1.996-0.128-5.066,1.384-9.214,4.533c-4.15,3.152-6.679,5.611-7.586,7.378
		c-0.909,1.769-1.562,5.733-1.958,11.891l-0.688,10.736c-0.416,6.454-0.338,10.314,0.228,11.591
		c0.494,1.343,1.551,2.969,3.161,4.882c0.724,0.793,1.531,1.63,2.427,2.509C104.939,129.521,107.795,131.415,109.789,131.54z
		 M106.709,95.559c0.346-5.397,0.724-8.539,1.134-9.426c0.41-0.886,1.186-1.736,2.328-2.544c1.142-0.809,2.078-1.193,2.813-1.145
		c0.732,0.047,1.614,0.546,2.644,1.494c0,0,0.947,0.792,1.345,1.328c0.905,1.216,1.508,2.042,1.758,3.238
		c0.246,1.195,0.213,4.226-0.1,9.095l-0.69,10.735c-0.37,5.75-0.782,8.98-1.238,9.683c-0.461,0.709-1.23,1.469-2.313,2.283
		c-1.083,0.814-1.977,1.198-2.68,1.153c-0.703-0.046-1.484-0.606-2.51-1.489c-0.722-0.618-2.511-2.838-2.511-2.838
		c-0.287-0.387-0.511-0.759-0.674-1.113c-0.362-0.789-0.359-4.029,0.007-9.719L106.709,95.559z"/>
	<path fill="#E5B7C3" stroke="#B43252" stroke-width="0.5" stroke-miterlimit="10" d="M166.801,121.597l3.518,0.226l0.543-8.412
		l-2.254-0.143l-1.186-1.35l1.795-27.984c-0.002-0.005-0.004-0.01-0.008-0.016c-1.168-1.055-3.146-2.533-5.941-4.438
		c-4.346-2.96-6.988-4.47-7.926-4.53c-0.648-0.041-2.199,2.099-4.652,6.415c-2.461,4.321-5.15,9.73-8.068,16.228
		c-2.836,6.308-5.027,11.972-6.586,17.001l8.324,5.561l11.178,0.719l1.186,1.349l-0.721,11.228l9.996,0.641L166.801,121.597z
		 M157.342,112.542l-8.709-0.559l-1.186-1.35c3.707-10.069,7.145-18.212,10.314-24.431l1.188,1.349L157.342,112.542z"/>
</g>
</svg>
