<?xml version="1.0" encoding="utf-8"?>
<!-- Generator: Adobe Illustrator 16.0.0, SVG Export Plug-In . SVG Version: 6.00 Build 0)  -->
<!DOCTYPE svg PUBLIC "-//W3C//DTD SVG 1.1//EN" "http://www.w3.org/Graphics/SVG/1.1/DTD/svg11.dtd">
<svg version="1.1" id="图层_1" xmlns="http://www.w3.org/2000/svg" xmlns:xlink="http://www.w3.org/1999/xlink" x="0px" y="0px"
	 width="100px" height="100px" viewBox="0 0 100 100" enable-background="new 0 0 100 100" xml:space="preserve">
<circle opacity="0.5" fill="#F6F5F5" enable-background="new    " cx="50.295" cy="50.209" r="49.093"/>
<path opacity="0.3" fill="#DBD4C2" d="M61.262,71.209c-5.32-2.115-13.267-1.234-17.216-0.527c-2.372,0.527-5.09,1.939-6.044,4.409
	c-0.569,1.589,1.269,3,3.21,3.706c-0.007,0.178,4.127,1.235,5.698,1.235c2.104,0.177,4.294,0.177,6.423,0.177
	c5.931-0.177,10.813-1.588,11.319-4.411C65.081,73.502,62.507,71.738,61.262,71.209z M59.271,72.092c0.006,0,0.011,0,0.015-0.176
	c0.164,0.176,0.323,0.176,0.479,0.354c-0.082,0-0.158,0-0.234,0c-0.051,0-0.102,0.176-0.149,0.176c-0.03,0-0.062,0-0.089,0
	c-0.148,0-0.296,0-0.439,0C59.021,72.27,59.175,72.092,59.271,72.092z M59.298,74.033c-0.011,0-0.019,0-0.03,0
	c-0.057,0-0.117,0-0.176,0C59.16,74.033,59.229,74.033,59.298,74.033z M57.816,71.563c0.197,0,0.401,0,0.606,0.177
	c-0.099,0-0.194,0-0.294,0c-0.068,0-0.145,0.178-0.217,0.178c0.079-0.178,0.009-0.354-0.129-0.354
	C57.799,71.563,57.811,71.563,57.816,71.563z M57.643,73.857c0.317-0.178,0.649-0.178,0.979-0.355c0.108,0,0.246,0,0.379,0
	c-0.125,0-0.244,0-0.364,0.178c-0.525,0.178-1.035,0.354-1.531,0.53c-0.043,0-0.053,0-0.008-0.177h0.004c0.099,0,0.196,0,0.297,0
	c0.012-0.176,0.023-0.176,0.035-0.176C57.502,73.857,57.573,73.857,57.643,73.857z M57.381,73.15c0.01,0,0.021,0,0.026,0
	c-0.281,0.177-0.558,0.177-0.833,0.352C56.84,73.327,57.111,73.327,57.381,73.15z M55.195,70.855c0.113,0,0.229,0,0.348,0
	c0.041,0.177,0.081,0.177,0.119,0.177c-0.124,0-0.258,0-0.396,0c-0.027,0-0.061,0-0.094-0.177
	C55.182,70.855,55.188,70.855,55.195,70.855z M54.2,72.621c0.413-0.176,0.835-0.354,1.223-0.529c0.063,0,0.129,0,0.19,0
	c-0.539,0.178-1.063,0.354-1.578,0.706c-0.035,0-0.066,0-0.098,0C54.025,72.621,54.111,72.621,54.2,72.621z M55.146,73.327
	c-0.088,0.175-0.178,0.175-0.267,0.175c0.05,0,0.101,0,0.146-0.175C55.064,73.327,55.107,73.327,55.146,73.327z M52.883,70.855
	c0.105,0,0.215,0,0.322,0c-0.112,0-0.225,0-0.332,0.177C52.879,70.855,52.883,70.855,52.883,70.855z M51.08,71.563
	c0.005,0,0.012,0,0.018,0c0.162-0.177,0.219-0.177,0.194-0.354c0.054,0,0.108,0,0.157,0c1.166-0.354-0.039,0-0.43,0.354
	c-0.016,0-0.026,0-0.041,0C51.016,71.563,51.049,71.563,51.08,71.563z M49.808,70.504c0.139,0,0.274,0,0.413,0
	c0.002,0,0.003,0,0.006,0c-0.036,0.178-0.033,0.178,0.021,0.354c0.005,0,0.01,0,0.016,0c-0.021,0-0.04,0-0.059,0
	c-0.119,0-0.282-0.176-0.458-0.176C49.784,70.682,49.804,70.682,49.808,70.504z M49.73,72.092c0.05,0,0.103,0,0.157,0
	c0.319-0.176,0.659-0.176,0.927-0.354c0.023,0,0.052,0,0.074,0c-0.012,0-0.022,0-0.035,0c-0.141,0.178-0.276,0.178-0.414,0.178
	c-0.318,0.176-0.635,0.354-0.948,0.529C49.58,72.27,49.659,72.27,49.73,72.092z M44.72,72.975c0.318,0,0.801,0,1.345,0
	c-0.07,0-0.139,0-0.209,0c-0.085,0.176-0.167,0.176-0.25,0.176c-0.126,0.178-0.253,0.178-0.376,0.178c-0.021,0-0.034,0-0.048,0
	c-0.262,0-0.464,0-0.475-0.178C44.703,72.975,44.707,72.975,44.72,72.975z M44.286,74.738c0.076,0,0.149,0,0.228,0
	c0.002,0,0.004,0,0.007,0c0.012,0,0.025,0,0.042,0c-0.09,0-0.175,0.177-0.257,0.177c-0.125,0.176-0.146,0.176-0.103,0.353
	c-0.1,0-0.2,0-0.299,0.178c-0.046-0.178-0.102-0.178-0.164-0.178c-0.046,0-0.092,0-0.141,0
	C43.842,75.091,44.084,74.915,44.286,74.738z M39.531,75.798c0.063,0,0.13,0,0.191,0c0.212-0.177,0.416-0.177,0.622-0.354
	c0.011,0,0.025,0,0.04,0c-0.234,0.354-0.493,0.529-0.73,0.707C39.605,75.975,39.567,75.975,39.531,75.798z M40.484,77.209
	c-0.158-0.177-0.308-0.354-0.438-0.529c0.259,0,0.511-0.176,0.767-0.354c0.064,0,0.127,0.178,0.196,0.178c0.011,0,0.023,0,0.035,0
	c-0.229,0.354-0.409,0.528-0.516,0.705C40.508,77.209,40.493,77.209,40.484,77.209z M41.095,77.738c-0.014,0-0.026,0-0.038,0
	c-0.061,0-0.121-0.176-0.176-0.176c0.113,0,0.236,0,0.344,0c0.047,0,0.1,0,0.159,0C41.284,77.563,41.188,77.563,41.095,77.738z
	 M42.48,75.443h-0.117c-0.063,0-0.139-0.176-0.25-0.176c-0.068,0-0.136,0-0.206,0c0.031,0,0.061-0.178,0.091-0.178
	c0.19,0,0.363-0.176,0.515-0.354c0.211-0.176,0.423-0.176,0.642-0.354c-0.119,0.178-0.23,0.178-0.335,0.354
	c-0.155,0.178-0.119,0.354,0.016,0.354c-0.054,0.178-0.106,0.178-0.155,0.354C42.614,75.443,42.548,75.443,42.48,75.443z
	 M42.996,78.443c-0.035,0-0.063,0-0.082,0c-0.072,0-0.141,0-0.214,0c0.182,0,0.357-0.176,0.533-0.176
	C43.15,78.268,43.069,78.443,42.996,78.443z M43.536,76.504c0.018,0,0.036,0,0.054,0c0.244-0.178,0.472-0.354,0.701-0.529
	c0.19,0,0.379-0.177,0.563-0.177c0.054,0,0.111-0.177,0.163-0.177c-0.143,0.177-0.266,0.354-0.337,0.354
	c-0.332,0.178-0.666,0.353-1.023,0.529C43.622,76.504,43.58,76.504,43.536,76.504z M46.122,78.975c-0.478,0.176-1.319,0-1.832-0.178
	c0.014,0,0.03,0,0.044,0c0.303-0.176,0.607-0.176,0.901-0.354c0.079,0,0.16-0.176,0.244-0.176c0.202,0,0.392,0,0.547-0.178
	c0.025,0,0.051,0,0.077,0c-0.216,0.178-0.422,0.354-0.605,0.53c-0.263,0.176,0.269,0.528,0.617,0.353c0.045,0,0.087,0,0.133-0.177
	C46.206,78.975,46.169,78.975,46.122,78.975z M46.39,71.916c0.236-0.178,0.462-0.354,0.675-0.354
	c0.37-0.354,0.763-0.177,1.173,0.177c-0.047,0-0.1,0-0.147,0c-0.116-0.177-0.353-0.177-0.603,0c-0.316,0-0.654,0.178-0.982,0.178
	C46.464,71.916,46.426,71.916,46.39,71.916z M46.817,77.209c0.236-0.177,0.553-0.354,0.899-0.705c-0.009,0-0.019,0-0.026,0
	c0.03,0,0.063,0,0.094,0c-0.009,0-0.016,0.176-0.016,0.176c0,0.178-0.01,0.354-0.017,0.354c-0.361,0.177-0.695,0.177-1.018,0.354
	C46.764,77.386,46.79,77.209,46.817,77.209z M48.574,79.15c-0.05,0-0.061,0.177-0.043,0.177c-0.422,0-0.849,0-1.283,0
	c-0.251,0-0.362-0.177-0.364-0.354c0.017,0,0.034,0,0.05,0c0.013,0.178,0.296,0.354,0.541,0.178c0.109,0.177,0.265,0.177,0.42,0.177
	c0.29-0.177,0.525-0.177,0.744-0.177C48.619,79.15,48.595,79.15,48.574,79.15z M48.563,72.621c-0.017,0-0.028,0-0.044,0
	c0.021,0.177,0.027,0.177,0.038,0.177c-0.234,0.177-0.469,0.177-0.703,0.353c-0.059-0.176-0.116-0.176-0.173-0.176
	c0.061,0,0.125,0,0.184-0.177c0.135,0,0.184-0.177,0.181-0.177c0.05,0,0.098,0,0.146-0.176c0.168,0,0.328,0,0.481,0
	C48.686,72.445,48.654,72.621,48.563,72.621z M50.38,75.798c-0.013,0-0.068,0-0.182,0.177c-0.38,0.178-0.774,0.353-1.158,0.529
	c0.119-0.354,0.265-0.706,0.448-1.061c0.096,0,0.193,0,0.29-0.176c0.064,0.176,0.194,0.176,0.388,0.176h0.296
	c0.009,0,0.012,0,0.021,0c-0.019,0-0.01,0.178,0.039,0.178C50.474,75.621,50.428,75.621,50.38,75.798z M51.355,73.857
	c0.043,0,0.082,0,0.123,0c-0.291,0-0.578,0.176-0.869,0.353C50.855,74.033,51.107,73.857,51.355,73.857z M50.615,74.915
	c0.089-0.177,0.182-0.177,0.27-0.177c0.184-0.178,0.368-0.178,0.557-0.178c-0.191,0-0.43,0.178-0.625,0.354
	C50.771,74.915,50.704,74.915,50.615,74.915z M52.243,77.563c-0.188,0-0.384,0.176-0.577,0.176c-0.027,0-0.059,0-0.089,0
	c-0.078,0-0.159,0-0.236,0.177c0.007-0.177,0.229-0.353,0.421-0.528c0.184,0,0.358,0.178,0.528,0.178
	C52.275,77.563,52.26,77.563,52.243,77.563z M52.979,76.504c-0.049,0-0.097,0-0.145,0c0.077,0,0.16-0.178,0.242-0.178
	C53.043,76.326,53.008,76.326,52.979,76.504z M53.488,72.975c-0.428,0.176-0.857,0.354-1.289,0.527h-0.036c-0.031,0-0.062,0-0.093,0
	c-0.006,0-0.014,0-0.021,0c0.092,0,0.182-0.175,0.274-0.175c0.415-0.177,0.827-0.354,1.233-0.529
	C53.537,72.975,53.512,72.975,53.488,72.975z M53.813,75.975c0.021,0,0.047,0,0.068,0s0.043,0,0.063,0
	C53.9,75.975,53.855,75.975,53.813,75.975z M54.57,75.443c0.326-0.176,0.645-0.354,0.943-0.528c0.301-0.177,0.604-0.354,0.91-0.53
	c0.024,0.178,0.02,0.178-0.023,0.178c-0.277,0.177-0.562,0.354-0.836,0.528c-0.109,0-0.241,0.177-0.383,0.177
	c-0.422,0.178-0.836,0.354-1.211,0.707C54.157,75.798,54.355,75.621,54.57,75.443z M55.906,75.798c0.049,0,0.087,0,0.121,0
	c-0.074,0-0.149,0.177-0.225,0.177c0.025,0.178-0.004,0.178-0.104,0.353c-0.011,0-0.019,0-0.028,0c-0.227,0-0.453,0.178-0.679,0.354
	c0.004-0.177,0.008-0.177,0.013-0.177c-0.158,0-0.314,0-0.475,0C54.988,76.326,55.473,75.975,55.906,75.798z M55.964,78.621
	c-0.021,0-0.041,0-0.063,0c-0.059,0-0.121,0.176-0.194,0.176c-0.131,0.178-0.399,0.178-0.563,0c-0.094,0-0.207,0-0.324,0
	c0.41-0.176,0.818-0.354,1.228-0.529c0.079,0,0.153,0,0.226,0c0.09,0,0.191,0,0.299,0c0.8-0.177,1.474-0.528,2.121-0.882
	c0.221,0,0.43-0.177,0.629-0.177c0.053,0,0.092-0.177,0.123-0.177C59.029,77.915,57.004,78.621,55.964,78.621z M59.855,75.621
	c-0.084,0.177-0.168,0.177-0.25,0.177c-0.056,0-0.137,0-0.231,0c0,0,0.004,0,0.004-0.177c0.16,0,0.321,0,0.479-0.178
	C59.855,75.621,59.854,75.621,59.855,75.621z M60.809,76.504c-0.004,0-0.004-0.178-0.004-0.178c0.266-0.176,0.543-0.176,0.838-0.354
	C61.396,76.15,61.117,76.326,60.809,76.504z M61.518,73.327c0.069,0,0.103-0.177,0.104-0.177c0.318,0,0.48,0.177,0.439,0.352l0,0
	h-0.004c-0.062,0-0.135,0-0.229,0C61.723,73.327,61.617,73.327,61.518,73.327z M62.064,75.798c-0.004-0.177-0.008-0.177-0.015-0.177
	c0.058,0,0.091-0.178,0.107-0.354c0.128-0.178,0.253-0.354,0.362-0.529C62.503,75.091,62.335,75.443,62.064,75.798z"/>
<g opacity="0.3">
	<path fill="#E5B7C3" d="M52.993,57.854c-1.757,0-3.512,0.568-5.078,1.646c-0.01,0.007-0.019,0.013-0.027,0.021
		c-1.821,1.383-3.007,3.461-3.253,5.701c-0.238,2.174,0.408,4.289,1.821,5.959c1.598,1.887,3.727,2.926,5.993,2.926
		c1.393,0,2.746-0.389,4.021-1.154c2.231-1.335,3.863-3.508,4.366-5.813c0.431-1.975,0.041-3.92-1.128-5.623
		C58.109,59.188,55.662,57.854,52.993,57.854z"/>
	<path fill="#E5B7C3" d="M52.945,45.527c-6.269,0-12.279,2.644-16.083,7.069c-0.233,0.271-0.227,0.676,0.015,0.939
		c1.184,1.294,2.43,2.541,3.602,3.695c0.132,0.131,0.311,0.203,0.496,0.203c0.011,0,0.021,0,0.031,0
		c0.197-0.011,0.381-0.101,0.509-0.25c2.896-3.412,7.248-5.451,11.641-5.451c3.548,0,6.83,1.358,9.24,3.826
		c0.262,0.268,0.685,0.284,0.967,0.043c0.6-0.514,1.193-1.031,1.787-1.55c0.662-0.577,1.324-1.155,1.992-1.725
		c0.147-0.127,0.237-0.31,0.246-0.504c0.01-0.194-0.062-0.386-0.195-0.525C63.622,47.577,58.563,45.527,52.945,45.527z"/>
	<path fill="#E5B7C3" d="M84.893,35.148c-7.944-7.966-19.067-12.353-31.318-12.353c-12.771,0-25.008,4.823-33.573,13.234
		c-0.258,0.253-0.283,0.659-0.06,0.942c0.822,1.044,1.833,1.936,2.811,2.797c0.161,0.142,0.322,0.283,0.482,0.426
		c0.134,0.119,0.303,0.179,0.471,0.179c0.18,0,0.36-0.069,0.498-0.205c7.297-7.229,17.955-11.377,29.24-11.377
		c10.855,0,20.541,3.806,27.271,10.714c0.258,0.264,0.674,0.287,0.958,0.052c0.779-0.644,1.444-1.411,2.088-2.152
		c0.368-0.425,0.749-0.864,1.138-1.261C85.169,35.866,85.167,35.423,84.893,35.148z"/>
	<path fill="#E5B7C3" d="M53.311,34.062c-9.771,0-19.296,3.768-25.479,10.076c-0.271,0.278-0.27,0.723,0.006,0.997
		c0.677,0.675,1.35,1.38,2,2.062c0.61,0.64,1.24,1.301,1.877,1.939c0.133,0.134,0.313,0.209,0.501,0.209
		c0.009,0,0.017-0.001,0.025-0.001c0.197-0.007,0.382-0.096,0.511-0.245c4.737-5.492,12.325-8.771,20.297-8.771
		c7.418,0,14.21,2.85,18.637,7.817c0.131,0.147,0.316,0.232,0.515,0.237c0.19,0.012,0.386-0.074,0.522-0.215
		c0.264-0.272,0.573-0.533,0.848-0.764c0.18-0.15,0.337-0.283,0.453-0.393l0.203-0.195c0.481-0.463,0.965-0.926,1.438-1.395
		c0.204-0.201,0.408-0.406,0.611-0.622c0.024-0.026,0.084-0.097,0.146-0.171c0.001-0.002,0.002-0.003,0.003-0.004
		c0.052-0.04,0.099-0.088,0.138-0.143c0.045-0.061,0.08-0.089,0.104-0.103c0.184-0.112,0.305-0.302,0.331-0.516
		c0.026-0.213-0.045-0.427-0.194-0.581C71.021,37.337,62.68,34.062,53.311,34.062z"/>
</g>
<g opacity="0.1">
	<path fill="#B43252" stroke="#F6F5F5" stroke-width="1.5" stroke-miterlimit="10" d="M83.814,33.657
		c0.221,0.231,0.297,0.492,0.276,0.738c0.015,0.24-0.075,0.49-0.321,0.702c-1.713,1.485-2.953,3.493-4.854,4.765
		c-0.294,0.197-0.583,0.203-0.823,0.102c-0.022-0.009-0.046-0.02-0.067-0.028c-0.016-0.009-0.028-0.017-0.043-0.025
		c-0.09-0.048-0.182-0.11-0.267-0.201c-14.22-15.374-41.812-14.093-55.964,0.71c-0.3,0.313-0.656,0.354-0.965,0.244
		c-0.15-0.039-0.298-0.113-0.437-0.244c-1.613-1.525-3.459-2.94-4.696-4.813c-0.249-0.376-0.195-0.741,0.009-1.013
		c0.006-0.012,0.017-0.022,0.022-0.037c0.009-0.009,0.015-0.015,0.02-0.022c0.034-0.045,0.063-0.088,0.105-0.127
		c0.26-0.27,0.521-0.535,0.79-0.796C34.473,16.297,66.331,15.179,83.814,33.657z M78.532,37.69c1.175-0.971,2.098-2.265,3.171-3.363
		c-16.957-16.999-47.061-15.646-63.896,0.887c0.915,1.16,2.098,2.143,3.208,3.131C35.871,23.624,63.662,22.426,78.532,37.69z"/>
	<path fill="#B43252" stroke="#F6F5F5" stroke-width="1.5" stroke-miterlimit="10" d="M69.994,48.589
		c-0.352,0.304-0.857,0.371-1.237-0.096c-9.528-11.691-29.498-10.539-38.57,1.121c-0.529,0.68-1.331,0.254-1.563-0.396
		c-1.688-1.647-3.241-3.432-4.94-5.07c-0.076-0.073-0.13-0.149-0.179-0.229c-0.263-0.357-0.325-0.863,0.055-1.283
		c12.622-13.83,38.042-15.289,51.346-1.689c0.258,0.264,0.658,0.729,0.908,1.004c0.58,0.643-2.371,3.48-3.185,4.258
		C72.157,46.665,70.391,48.581,69.994,48.589z M73.064,42.999c0.065-0.071,0.42-0.516,0.235-0.256
		c0.091-0.124,0.192-0.221,0.304-0.288c-12.34-12.696-35.783-11.567-47.956,0.858c1.316,1.313,2.567,2.686,3.878,4.002
		c9.795-11.354,29.873-12.328,39.998-0.963c0.461-0.475,1.037-0.905,1.319-1.174c0.546-0.524,1.097-1.048,1.634-1.583
		C72.675,43.4,72.873,43.202,73.064,42.999z"/>
	<path fill="#B43252" stroke="#F6F5F5" stroke-width="1.5" stroke-miterlimit="10" d="M66.003,49.733
		c0.289,0.334,0.306,0.722,0.173,1.044c0.018,0.24-0.076,0.49-0.326,0.701c-1.588,1.34-3.127,2.738-4.716,4.076
		c-0.071,0.062-0.142,0.104-0.216,0.144c-0.318,0.479-0.984,0.706-1.463,0.146c-5.571-6.521-15.225-4.886-20.179,1.461
		c-0.289,0.375-0.662,0.414-0.977,0.271c-0.292,0.075-0.617,0.017-0.897-0.259c-1.616-1.588-3.241-3.188-4.742-4.89
		c-0.452-0.515-0.254-1.159,0.159-1.493c0.017-0.022,0.025-0.047,0.042-0.065C40.7,40.979,57.641,40.026,66.003,49.733z
		 M60.213,53.745c1.266-1.085,2.512-2.194,3.78-3.275c-7.737-8.066-22.099-7.095-29.283,1.268c1.152,1.26,2.361,2.471,3.575,3.669
		C43.797,48.912,54.055,47.442,60.213,53.745z"/>
	<path fill="#B43252" stroke="#F6F5F5" stroke-width="1.5" stroke-miterlimit="10" d="M58.146,59.596
		c2.924,4.663,0.994,10.525-3.729,13.139c-4.164,2.305-9.087,1.498-11.927-2.465c-3.14-4.387-2.123-9.984,2.132-13.219
		C49.074,53.993,55.184,54.868,58.146,59.596z M53.419,71.021c3.599-2.154,5.608-6.653,3.019-10.428
		c-2.576-3.748-7.147-4.351-10.812-1.834c-3.354,2.549-4.091,7.366-1.319,10.639C46.651,72.168,50.243,72.927,53.419,71.021z"/>
</g>
<g opacity="0.3">
	<path fill="#E5B7C3" d="M38.761,53.523c-0.191-0.19-0.511-0.19-0.701,0c-0.19,0.191-0.19,0.511,0,0.701
		c0.26,0.26,0.52,0.519,0.778,0.777c0.191,0.191,0.51,0.191,0.701,0c0.19-0.189,0.19-0.51,0-0.7
		C39.279,54.044,39.02,53.784,38.761,53.523z"/>
	<path fill="#E5B7C3" d="M40.034,52.18c-0.19-0.189-0.51-0.189-0.7,0c-0.191,0.19-0.191,0.51,0,0.7
		c0.26,0.261,0.519,0.521,0.778,0.779c0.19,0.19,0.51,0.19,0.7,0c0.191-0.191,0.191-0.511,0-0.701
		C40.553,52.698,40.294,52.439,40.034,52.18z"/>
	<path fill="#E5B7C3" d="M41.591,50.835c-0.451-0.452-1.152,0.248-0.7,0.701c0.256,0.256,0.51,0.51,0.701,0.819
		c0.334,0.541,1.191,0.045,0.855-0.5C42.212,51.475,41.906,51.15,41.591,50.835z"/>
	<path fill="#E5B7C3" d="M43.432,50.198c-0.189-0.193-0.511-0.189-0.701,0c-0.191,0.191-0.188,0.508,0,0.7
		c0.044,0.043,0.085,0.088,0.125,0.135c0.013,0.015,0.025,0.029,0.038,0.046c-0.024-0.029,0.041,0.057,0.047,0.063
		c0.079,0.115,0.146,0.238,0.208,0.362c0.122,0.241,0.456,0.308,0.678,0.179c0.243-0.143,0.3-0.438,0.178-0.678
		C43.854,50.71,43.665,50.437,43.432,50.198z"/>
	<path fill="#E5B7C3" d="M45.773,50.298c-0.132-0.264-0.263-0.53-0.425-0.777c-0.147-0.227-0.436-0.32-0.678-0.178
		c-0.224,0.131-0.325,0.451-0.178,0.678c0.162,0.248,0.292,0.514,0.425,0.777c0.121,0.242,0.457,0.308,0.678,0.179
		C45.84,50.833,45.895,50.54,45.773,50.298z"/>
	<path fill="#E5B7C3" d="M47.111,48.995c-0.211-0.168-0.493-0.207-0.7,0c-0.175,0.174-0.212,0.532,0,0.7
		c0.13,0.104,0.15,0.132,0.219,0.267c0.037,0.072,0.059,0.242,0.061,0.374c0.011,0.639,1.002,0.641,0.991,0
		C47.673,49.837,47.516,49.316,47.111,48.995z"/>
	<path fill="#E5B7C3" d="M49.787,49.851c-0.067-0.331-0.146-0.66-0.213-0.99c-0.054-0.266-0.362-0.414-0.609-0.347
		c-0.273,0.075-0.399,0.345-0.346,0.609c0.067,0.331,0.145,0.659,0.212,0.991c0.054,0.264,0.363,0.413,0.609,0.346
		C49.714,50.385,49.84,50.114,49.787,49.851z"/>
	<path fill="#E5B7C3" d="M50.688,48.563c-0.225,0.132-0.326,0.451-0.179,0.678c0.142,0.215,0.21,0.363,0.216,0.6
		c0.006,0.27,0.221,0.495,0.496,0.495c0.266,0,0.502-0.226,0.494-0.495c-0.009-0.397-0.134-0.768-0.352-1.1
		C51.217,48.516,50.93,48.422,50.688,48.563z"/>
	<path fill="#E5B7C3" d="M52.775,49.133c0.008,0.436,0.095,0.848,0.281,1.241c0.115,0.244,0.459,0.306,0.678,0.178
		c0.248-0.145,0.293-0.434,0.178-0.678c-0.109-0.229-0.143-0.488-0.145-0.741C53.759,48.495,52.77,48.493,52.775,49.133z"/>
	<path fill="#E5B7C3" d="M55.738,51.238c0.281-0.077,0.392-0.344,0.348-0.609c-0.074-0.452-0.139-0.902-0.334-1.321
		c-0.113-0.244-0.461-0.305-0.678-0.178c-0.249,0.146-0.291,0.434-0.178,0.678c0.135,0.289,0.176,0.738,0.232,1.084
		C55.174,51.159,55.5,51.305,55.738,51.238z"/>
	<path fill="#E5B7C3" d="M57.509,52.018c0.28-0.076,0.392-0.344,0.347-0.609c-0.063-0.379-0.138-0.756-0.213-1.132
		c-0.053-0.265-0.363-0.414-0.608-0.347c-0.274,0.076-0.399,0.346-0.347,0.609c0.074,0.377,0.148,0.754,0.213,1.133
		C56.943,51.938,57.27,52.083,57.509,52.018z"/>
	<path fill="#E5B7C3" d="M58.943,51.484c-0.269,0.074-0.407,0.349-0.346,0.611c0.055,0.235,0.053,0.504,0.053,0.787
		c0,0.639,0.99,0.639,0.99,0c0-0.354-0.008-0.705-0.089-1.052C59.492,51.568,59.195,51.417,58.943,51.484z"/>
	<path fill="#E5B7C3" d="M30.268,45.032c-0.449-0.455-1.15,0.246-0.7,0.7c0.337,0.341,0.645,0.705,0.913,1.103
		c0.15,0.224,0.434,0.321,0.678,0.178c0.222-0.129,0.329-0.453,0.178-0.678C31.021,45.868,30.663,45.432,30.268,45.032z"/>
	<path fill="#E5B7C3" d="M31.4,43.616c-0.211-0.168-0.494-0.207-0.701,0c-0.175,0.175-0.212,0.532,0,0.701
		c0.354,0.281,0.769,0.555,0.984,0.961c0.3,0.564,1.154,0.064,0.855-0.5C32.278,44.288,31.825,43.954,31.4,43.616z"/>
	<path fill="#E5B7C3" d="M32.645,42.265c-0.224-0.152-0.548-0.043-0.678,0.178c-0.144,0.246-0.045,0.526,0.178,0.678
		c0.396,0.27,0.725,0.619,1.032,0.984c0.174,0.207,0.522,0.179,0.7,0c0.203-0.203,0.174-0.494,0-0.701
		C33.513,42.971,33.113,42.584,32.645,42.265z"/>
	<path fill="#E5B7C3" d="M34.868,40.997c-0.442-0.462-1.143,0.24-0.701,0.701c0.374,0.392,0.577,0.911,0.991,1.273
		c0.479,0.42,1.182-0.278,0.7-0.7C35.449,41.913,35.242,41.39,34.868,40.997z"/>
	<path fill="#E5B7C3" d="M36.85,39.937c-0.206-0.175-0.498-0.203-0.7,0c-0.18,0.179-0.207,0.525,0,0.7
		c0.339,0.288,0.507,0.714,0.7,1.103c0.284,0.572,1.139,0.07,0.855-0.5C37.475,40.774,37.254,40.279,36.85,39.937z"/>
	<path fill="#E5B7C3" d="M38.06,39.788c0.183,0.189,0.333,0.443,0.438,0.701c0.104,0.249,0.325,0.424,0.609,0.346
		c0.237-0.064,0.449-0.359,0.347-0.609c-0.172-0.416-0.379-0.812-0.693-1.139C38.316,38.626,37.616,39.327,38.06,39.788z"/>
	<path fill="#E5B7C3" d="M40,39.228c0.106,0.068,0.155,0.132,0.224,0.263c0.047,0.088,0.089,0.284,0.115,0.433
		c0.047,0.266,0.367,0.412,0.609,0.346c0.278-0.076,0.393-0.344,0.346-0.609c-0.094-0.529-0.331-0.992-0.794-1.287
		c-0.228-0.145-0.545-0.048-0.678,0.178C39.683,38.79,39.772,39.083,40,39.228z"/>
	<path fill="#E5B7C3" d="M43.142,39.702c0.239-0.064,0.447-0.357,0.347-0.609c-0.149-0.373-0.297-0.748-0.476-1.109
		c-0.118-0.241-0.457-0.307-0.677-0.178c-0.246,0.145-0.297,0.436-0.178,0.678c0.14,0.285,0.257,0.579,0.374,0.873
		C42.633,39.606,42.859,39.78,43.142,39.702z"/>
	<path fill="#E5B7C3" d="M45.417,38.942c-0.006-0.48-0.096-0.977-0.429-1.342c-0.432-0.473-1.131,0.23-0.7,0.701
		c-0.055-0.06,0.042,0.066,0.044,0.069c-0.009-0.034-0.003-0.021,0.016,0.038c0.013,0.039,0.024,0.077,0.034,0.115
		c0.039,0.148,0.042,0.26,0.044,0.418C44.433,39.58,45.424,39.581,45.417,38.942z"/>
	<path fill="#E5B7C3" d="M46.213,37.87c0.077,0.289,0.206,0.561,0.283,0.85c0.164,0.617,1.12,0.355,0.955-0.264
		c-0.077-0.289-0.206-0.561-0.283-0.85C47.003,36.99,46.048,37.252,46.213,37.87z"/>
	<path fill="#E5B7C3" d="M48.244,37.347c-0.136,0.232-0.054,0.473,0.128,0.635c0.003,0.005,0.005,0.01,0.01,0.018
		c0.004,0.006,0.005,0.01,0.008,0.014c0.006,0.02,0.011,0.04,0.016,0.061c-0.008-0.025,0.01,0.09,0.01,0.098
		c0.001,0.036-0.001,0.072-0.003,0.109c0.009-0.04,0.007-0.028-0.006,0.035c-0.047,0.265,0.068,0.532,0.347,0.608
		c0.241,0.067,0.562-0.079,0.609-0.346c0.096-0.536,0.02-1.067-0.44-1.409C48.705,37.008,48.369,37.134,48.244,37.347z"/>
	<path fill="#E5B7C3" d="M50.671,37.94c0.029,0.089,0.06,0.177,0.084,0.266c0.013,0.047,0.022,0.093,0.032,0.139
		c-0.008-0.024,0.008,0.102,0.008,0.102c0.008,0.27,0.221,0.496,0.496,0.496c0.264,0,0.502-0.227,0.495-0.496
		c-0.009-0.267-0.076-0.518-0.159-0.769c-0.085-0.256-0.339-0.421-0.609-0.347C50.768,37.4,50.586,37.685,50.671,37.94z"/>
	<path fill="#E5B7C3" d="M52.512,38.083c0.051,0.167,0.053,0.285,0.053,0.505c0,0.271,0.227,0.495,0.496,0.495
		c0.271,0,0.496-0.225,0.494-0.495c0-0.259-0.012-0.52-0.088-0.769c-0.078-0.258-0.344-0.419-0.609-0.346
		C52.604,37.543,52.434,37.824,52.512,38.083z"/>
	<path fill="#E5B7C3" d="M54.705,38.366c0.052,0.167,0.054,0.285,0.054,0.505c0,0.271,0.226,0.495,0.495,0.495
		s0.496-0.225,0.495-0.495c0-0.259-0.013-0.521-0.088-0.769c-0.079-0.258-0.345-0.419-0.609-0.346
		C54.797,37.826,54.626,38.107,54.705,38.366z"/>
	<path fill="#E5B7C3" d="M56.475,39.306c-0.061,0.263,0.078,0.535,0.346,0.609c0.253,0.069,0.55-0.083,0.609-0.346
		c0.075-0.323,0.09-0.651,0.09-0.981c0-0.271-0.227-0.495-0.496-0.495c-0.271,0-0.496,0.225-0.496,0.495
		C56.527,38.831,56.527,39.071,56.475,39.306z"/>
	<path fill="#E5B7C3" d="M59.146,38.8c-0.271,0-0.496,0.226-0.496,0.496c0,0.26,0,0.519,0,0.778c0,0.271,0.226,0.495,0.496,0.495
		c0.27,0,0.494-0.225,0.494-0.495c0-0.26,0-0.519,0-0.778C59.643,39.025,59.416,38.8,59.146,38.8z"/>
	<path fill="#E5B7C3" d="M60.986,39.508c-0.271,0-0.495,0.226-0.495,0.495c0,0.068-0.001,0.137-0.005,0.204
		c-0.002,0.005-0.002,0.007-0.002,0.012c-0.01,0.036-0.039,0.124,0.004,0.03c-0.109,0.246-0.075,0.529,0.178,0.678
		c0.213,0.125,0.568,0.069,0.678-0.178c0.106-0.242,0.139-0.482,0.139-0.746C61.482,39.733,61.256,39.508,60.986,39.508z"/>
	<path fill="#E5B7C3" d="M62.686,40.146c-0.271,0-0.496,0.225-0.496,0.494c0,0.088,0,0.174-0.004,0.262
		c-0.002,0.012-0.002,0.021-0.004,0.029c-0.011,0.039-0.035,0.116,0.006,0.025c-0.109,0.248-0.074,0.53,0.178,0.678
		c0.213,0.125,0.568,0.07,0.678-0.178c0.117-0.265,0.139-0.529,0.139-0.816C63.182,40.37,62.955,40.146,62.686,40.146z"/>
	<path fill="#E5B7C3" d="M64.09,41.153c-0.268-0.073-0.527,0.089-0.607,0.346c-0.06,0.187-0.084,0.381-0.143,0.566
		c-0.081,0.258,0.094,0.54,0.346,0.609c0.269,0.074,0.528-0.088,0.609-0.346c0.059-0.186,0.083-0.38,0.143-0.566
		C64.518,41.505,64.344,41.224,64.09,41.153z"/>
	<path fill="#E5B7C3" d="M65.799,42.126c-0.275,0-0.488,0.227-0.494,0.496c0,0.012-0.003,0.023-0.003,0.035
		c-0.001-0.009-0.004,0.008-0.009,0.027c-0.004,0.007-0.008,0.018-0.014,0.027c-0.014,0.017-0.034,0.047-0.043,0.055
		c-0.188,0.195-0.193,0.508,0,0.701c0.188,0.188,0.514,0.194,0.699,0c0.229-0.238,0.351-0.515,0.357-0.846
		C66.301,42.353,66.063,42.126,65.799,42.126z"/>
	<path fill="#E5B7C3" d="M67.275,43.136c-0.272-0.076-0.522,0.09-0.609,0.346c-0.012,0.029-0.021,0.059-0.032,0.088
		c-0.001,0.001-0.028,0.066-0.032,0.076c-0.049,0.1-0.107,0.191-0.168,0.283c-0.148,0.227-0.047,0.547,0.178,0.678
		c0.242,0.143,0.529,0.048,0.678-0.178c0.143-0.215,0.25-0.44,0.333-0.685C67.708,43.489,67.523,43.203,67.275,43.136z"/>
	<path fill="#E5B7C3" d="M68.667,44.577c-0.218-0.129-0.562-0.066-0.679,0.178c-0.049,0.105-0.094,0.213-0.137,0.322
		c-0.02,0.043-0.037,0.088-0.055,0.131c0.039-0.094-0.015,0.031-0.021,0.042c-0.116,0.243-0.068,0.533,0.179,0.678
		c0.219,0.128,0.562,0.065,0.678-0.178c0.052-0.104,0.095-0.214,0.14-0.321c0.018-0.045,0.035-0.088,0.053-0.133
		c-0.038,0.096,0.016-0.03,0.021-0.041C68.963,45.011,68.914,44.722,68.667,44.577z"/>
	<path fill="#E5B7C3" d="M22.152,36.81c-0.038-0.045-0.075-0.088-0.112-0.133c0.004,0.004-0.047-0.062-0.063-0.081
		c-0.023-0.032-0.045-0.065-0.066-0.1c-0.018-0.201-0.142-0.38-0.354-0.438c-0.248-0.068-0.555,0.082-0.609,0.346
		c-0.075,0.358,0.115,0.62,0.322,0.888c0.174,0.224,0.387,0.438,0.506,0.627c0.339,0.54,1.196,0.043,0.855-0.5
		C22.494,37.2,22.319,37.005,22.152,36.81z"/>
	<path fill="#E5B7C3" d="M23.261,34.911c-0.443-0.461-1.144,0.24-0.7,0.701c0.326,0.338,0.56,0.762,0.85,1.132
		c0.167,0.213,0.526,0.174,0.7,0c0.208-0.208,0.167-0.488,0-0.7C23.819,35.672,23.591,35.253,23.261,34.911z"/>
	<path fill="#E5B7C3" d="M24.93,33.513c-0.245-0.111-0.53-0.073-0.677,0.178c-0.126,0.215-0.068,0.566,0.178,0.678
		c0.432,0.195,0.694,0.527,0.884,0.955c0.108,0.246,0.465,0.303,0.678,0.178c0.252-0.148,0.287-0.432,0.178-0.678
		C25.922,34.263,25.495,33.768,24.93,33.513z"/>
	<path fill="#E5B7C3" d="M27.201,32.316c-0.452-0.452-1.153,0.248-0.701,0.7c0.319,0.319,0.636,0.641,0.921,0.991
		c0.17,0.21,0.524,0.176,0.7,0c0.206-0.206,0.17-0.491,0-0.7C27.837,32.956,27.52,32.636,27.201,32.316z"/>
	<path fill="#E5B7C3" d="M30.015,32.374c0.141-0.239,0.051-0.533-0.178-0.678c-0.02-0.014-0.03-0.021-0.036-0.025
		c-0.018-0.014-0.034-0.031-0.05-0.047c-0.012-0.016-0.035-0.044-0.041-0.054c-0.021-0.033-0.041-0.067-0.061-0.102
		c-0.099-0.171-0.212-0.331-0.349-0.474c-0.188-0.194-0.513-0.188-0.7,0c-0.194,0.193-0.188,0.506,0,0.701
		c-0.002-0.002,0.064,0.074,0.071,0.078c0.021,0.029,0.04,0.059,0.059,0.088c0.043,0.068,0.081,0.139,0.123,0.209
		c0.124,0.199,0.286,0.355,0.484,0.48C29.565,32.696,29.883,32.601,30.015,32.374z"/>
	<path fill="#E5B7C3" d="M31.33,31.902c0.109,0.247,0.464,0.303,0.678,0.178c0.252-0.147,0.287-0.431,0.178-0.678
		c-0.235-0.527-0.569-0.995-0.927-1.444c-0.169-0.213-0.526-0.176-0.701,0c-0.207,0.207-0.167,0.488,0,0.699
		C30.862,31.041,31.131,31.455,31.33,31.902z"/>
	<path fill="#E5B7C3" d="M32.815,31.265c0.286,0.572,1.141,0.07,0.855-0.499c-0.269-0.538-0.538-1.076-0.778-1.628
		c-0.107-0.248-0.466-0.302-0.678-0.178c-0.253,0.148-0.285,0.43-0.178,0.678C32.277,30.189,32.547,30.728,32.815,31.265z"/>
	<path fill="#E5B7C3" d="M34.727,30.699c0.262,0.582,1.114,0.077,0.855-0.5c-0.298-0.665-0.622-1.317-0.92-1.981
		c-0.261-0.582-1.114-0.078-0.855,0.5C34.104,29.382,34.429,30.034,34.727,30.699z"/>
	<path fill="#E5B7C3" d="M36.429,29.528c0.021,0.639,1.013,0.64,0.99,0c-0.023-0.693-0.337-1.268-0.583-1.9
		c-0.229-0.588-1.188-0.332-0.956,0.264C36.087,28.423,36.408,28.947,36.429,29.528z"/>
	<path fill="#E5B7C3" d="M38.197,29.104c0.032,0.268,0.202,0.496,0.496,0.496c0.246,0,0.527-0.228,0.495-0.496
		c-0.084-0.712-0.226-1.416-0.634-2.02c-0.355-0.526-1.215-0.031-0.855,0.5C38.007,28.04,38.134,28.564,38.197,29.104z"/>
	<path fill="#E5B7C3" d="M40.409,28.458c0.16,0.617,1.116,0.355,0.956-0.264c-0.156-0.601-0.375-1.176-0.617-1.746
		c-0.104-0.248-0.467-0.301-0.677-0.178c-0.255,0.149-0.284,0.43-0.178,0.678C40.101,27.438,40.276,27.942,40.409,28.458z"/>
	<path fill="#E5B7C3" d="M42.231,28.185c0.02,0.637,1.011,0.639,0.991,0c-0.022-0.74-0.346-1.358-0.584-2.043
		c-0.209-0.6-1.166-0.342-0.955,0.264C41.888,26.99,42.213,27.553,42.231,28.185z"/>
	<path fill="#E5B7C3" d="M44.285,27.866c0.102,0.25,0.326,0.424,0.609,0.346c0.237-0.064,0.447-0.358,0.346-0.609
		c-0.216-0.533-0.371-1.08-0.462-1.648c-0.042-0.267-0.371-0.411-0.609-0.346c-0.281,0.077-0.388,0.343-0.346,0.609
		C43.913,26.786,44.068,27.333,44.285,27.866z"/>
	<path fill="#E5B7C3" d="M46.054,27.548c0.009,0.638,1,0.639,0.99,0c-0.009-0.651-0.123-1.299-0.371-1.901
		c-0.103-0.249-0.325-0.425-0.609-0.347c-0.236,0.066-0.449,0.359-0.347,0.609C45.934,26.436,46.045,26.979,46.054,27.548z"/>
	<path fill="#E5B7C3" d="M48.907,27.474c-0.047-0.611-0.094-1.223-0.141-1.834c-0.048-0.633-1.039-0.638-0.99,0
		c0.046,0.611,0.094,1.223,0.141,1.834C47.965,28.106,48.956,28.111,48.907,27.474z"/>
	<path fill="#E5B7C3" d="M51.008,27.265c-0.006-0.567-0.064-1.132-0.07-1.699c-0.006-0.639-0.997-0.639-0.991,0
		c0.005,0.567,0.065,1.132,0.07,1.699C50.022,27.903,51.014,27.903,51.008,27.265z"/>
	<path fill="#E5B7C3" d="M51.855,27.335c0.002,0.639,0.992,0.639,0.992,0c0-0.568-0.013-1.137-0.16-1.688
		c-0.164-0.616-1.119-0.354-0.955,0.263C51.857,26.378,51.855,26.854,51.855,27.335z"/>
	<path fill="#E5B7C3" d="M54.9,27.335c0-0.495,0-0.99,0-1.486c0-0.639-0.991-0.639-0.991,0c0,0.496,0,0.991,0,1.486
		C53.909,27.974,54.9,27.974,54.9,27.335z"/>
	<path fill="#E5B7C3" d="M56.439,27.75c0.158-0.499,0.225-1.024,0.229-1.548c0.007-0.639-0.984-0.639-0.99,0
		c-0.005,0.441-0.062,0.863-0.195,1.285C55.29,28.097,56.246,28.356,56.439,27.75z"/>
	<path fill="#E5B7C3" d="M58.229,28.081c0.254-0.447,0.346-0.943,0.352-1.453c0.007-0.64-0.982-0.639-0.99,0
		c-0.004,0.335-0.049,0.656-0.216,0.953C57.059,28.138,57.914,28.636,58.229,28.081z"/>
	<path fill="#E5B7C3" d="M60.633,26.769c0-0.639-0.99-0.639-0.99,0c0,0.48,0,0.959-0.125,1.426
		c-0.162,0.618,0.793,0.881,0.957,0.264C60.619,27.906,60.632,27.337,60.633,26.769z"/>
	<path fill="#E5B7C3" d="M62.331,27.052c-0.056-0.631-1.047-0.637-0.991,0c0.045,0.507-0.191,0.952-0.336,1.426
		c-0.186,0.613,0.771,0.873,0.955,0.264C62.129,28.179,62.384,27.655,62.331,27.052z"/>
	<path fill="#E5B7C3" d="M63.871,29.559c0.117-0.616,0.143-1.253,0.352-1.848c0.213-0.604-0.744-0.862-0.955-0.264
		c-0.209,0.595-0.232,1.232-0.352,1.847C62.796,29.919,63.751,30.186,63.871,29.559z"/>
	<path fill="#E5B7C3" d="M65.307,30.274c0.313-0.559,0.555-1.154,0.492-1.807c-0.025-0.27-0.206-0.496-0.494-0.496
		c-0.252,0-0.521,0.227-0.496,0.496c0.047,0.487-0.121,0.889-0.356,1.307C64.139,30.332,64.994,30.831,65.307,30.274z"/>
	<path fill="#E5B7C3" d="M66.793,30.699c0.284-0.443,0.455-0.946,0.545-1.463c0.047-0.267-0.066-0.533-0.346-0.609
		c-0.241-0.066-0.563,0.079-0.609,0.347c-0.076,0.438-0.203,0.848-0.445,1.226C65.592,30.739,66.45,31.235,66.793,30.699z"/>
	<path fill="#E5B7C3" d="M68.343,31.437c0.374-0.398,0.517-0.925,0.851-1.345c0.168-0.212,0.207-0.493,0-0.7
		c-0.176-0.176-0.532-0.213-0.7,0c-0.173,0.217-0.313,0.439-0.443,0.686c-0.12,0.228-0.229,0.469-0.405,0.658
		C67.205,31.2,67.904,31.903,68.343,31.437z"/>
	<path fill="#E5B7C3" d="M69.992,30.388c-0.227,0.754-0.725,1.384-1.082,2.076c-0.293,0.566,0.563,1.068,0.855,0.5
		c0.397-0.773,0.928-1.47,1.182-2.313C71.132,30.038,70.176,29.778,69.992,30.388z"/>
	<path fill="#E5B7C3" d="M72.447,30.948c-0.178-0.178-0.527-0.209-0.7,0c-0.401,0.487-0.771,1.001-1.14,1.516
		c-0.156,0.221-0.039,0.551,0.179,0.678c0.249,0.146,0.521,0.041,0.678-0.178c0.318-0.445,0.636-0.893,0.983-1.315
		C72.619,31.44,72.652,31.152,72.447,30.948z"/>
	<path fill="#E5B7C3" d="M73.221,31.953c-0.275-0.075-0.521,0.092-0.609,0.347c-0.154,0.438-0.41,0.833-0.566,1.273
		c-0.09,0.254,0.102,0.541,0.348,0.609c0.273,0.075,0.52-0.092,0.608-0.347c0.153-0.438,0.41-0.833,0.565-1.273
		C73.656,32.308,73.467,32.021,73.221,31.953z"/>
	<path fill="#E5B7C3" d="M74.577,34.804c0.213-0.356,0.391-0.725,0.546-1.109c0.102-0.25-0.107-0.544-0.346-0.609
		c-0.283-0.078-0.51,0.096-0.609,0.347c-0.123,0.304-0.277,0.591-0.445,0.872C73.395,34.854,74.252,35.353,74.577,34.804z"/>
	<path fill="#E5B7C3" d="M76.24,34.126c-0.215-0.125-0.566-0.068-0.678,0.178c-0.23,0.51-0.596,0.922-0.984,1.315
		c-0.45,0.454,0.251,1.155,0.699,0.7c0.443-0.447,0.879-0.938,1.141-1.516C76.529,34.558,76.491,34.272,76.24,34.126z"/>
	<path fill="#E5B7C3" d="M77.797,35.471c-0.21-0.123-0.572-0.071-0.678,0.178c-0.148,0.352-0.393,0.569-0.701,0.819
		c-0.21,0.171-0.176,0.525,0,0.701c0.206,0.206,0.491,0.17,0.701,0c0.346-0.279,0.68-0.604,0.855-1.021
		C78.08,35.899,78.052,35.62,77.797,35.471z"/>
	<path fill="#E5B7C3" d="M46.387,70.422c-0.354-0.527-1.212-0.033-0.855,0.5c0.317,0.475,0.648,0.941,1.021,1.374
		c0.418,0.483,1.115-0.22,0.7-0.7C46.935,71.227,46.657,70.826,46.387,70.422z"/>
	<path fill="#E5B7C3" d="M48.796,70.917c-0.19-0.606-1.147-0.349-0.955,0.265c0.181,0.575,0.479,1.129,0.929,1.539
		c0.471,0.43,1.174-0.27,0.701-0.701C49.144,71.723,48.928,71.337,48.796,70.917z"/>
	<path fill="#E5B7C3" d="M50.557,70.698c-0.175-0.207-0.522-0.179-0.701,0c-0.204,0.204-0.174,0.493,0,0.7
		c0.318,0.381,0.419,0.922,0.63,1.362c0.276,0.576,1.131,0.073,0.855-0.5C51.082,71.721,50.949,71.169,50.557,70.698z"/>
	<path fill="#E5B7C3" d="M51.475,70.284c0.191,0.583,0.573,1.128,0.596,1.756c0.021,0.637,1.013,0.64,0.99,0
		c-0.025-0.745-0.403-1.332-0.631-2.021C52.229,69.417,51.271,69.676,51.475,70.284z"/>
	<path fill="#E5B7C3" d="M53.842,68.816c-0.357-0.523-1.217-0.028-0.855,0.5c0.431,0.632,0.603,1.381,0.896,2.076
		c0.248,0.588,1.102,0.082,0.855-0.5C54.441,70.191,54.275,69.455,53.842,68.816z"/>
	<path fill="#E5B7C3" d="M55.227,67.302c-0.488-0.403-1.192,0.294-0.699,0.7c0.609,0.504,0.904,1.303,1.099,2.047
		c0.162,0.617,1.117,0.354,0.956-0.265C56.348,68.891,55.958,67.907,55.227,67.302z"/>
	<path fill="#E5B7C3" d="M56.123,65.131c-0.477-0.422-1.18,0.276-0.7,0.701c0.72,0.639,1.292,1.395,1.716,2.259
		c0.28,0.574,1.135,0.071,0.854-0.5C57.538,66.658,56.898,65.818,56.123,65.131z"/>
	<path fill="#E5B7C3" d="M56.141,63.068c-0.604-0.209-0.863,0.748-0.264,0.955c1.027,0.356,1.721,1.242,2.061,2.25
		c0.203,0.603,1.16,0.344,0.955-0.264C58.436,64.657,57.514,63.544,56.141,63.068z"/>
	<path fill="#E5B7C3" d="M55.68,61.872c0.704-0.048,1.853,0.614,2.021,1.335c0.146,0.622,1.104,0.357,0.955-0.264
		c-0.268-1.131-1.85-2.139-2.979-2.063C55.045,60.925,55.04,61.915,55.68,61.872z"/>
	<path fill="#E5B7C3" d="M54.771,59.968c0.361-0.103,0.799-0.179,1.129,0.043c0.531,0.359,1.025-0.5,0.5-0.854
		c-0.547-0.368-1.285-0.314-1.893-0.145C53.895,59.186,54.156,60.143,54.771,59.968z"/>
	<path fill="#E5B7C3" d="M53.941,58.458c0.267,0.049,0.533-0.069,0.609-0.347c0.067-0.243-0.08-0.561-0.346-0.609
		c-0.294-0.054-0.588-0.064-0.887-0.064c-0.271,0-0.495,0.227-0.495,0.496c0,0.269,0.226,0.494,0.495,0.494
		c0.117,0,0.233,0.002,0.352,0.006c0.053,0.002,0.104,0.006,0.155,0.01c0.022,0,0.046,0.004,0.069,0.006
		C53.896,58.449,53.911,58.452,53.941,58.458z"/>
</g>
</svg>
