<?xml version="1.0" encoding="utf-8"?>
<!-- Generator: Adobe Illustrator 16.0.0, SVG Export Plug-In . SVG Version: 6.00 Build 0)  -->
<!DOCTYPE svg PUBLIC "-//W3C//DTD SVG 1.1//EN" "http://www.w3.org/Graphics/SVG/1.1/DTD/svg11.dtd">
<svg version="1.1" id="图层_1" xmlns="http://www.w3.org/2000/svg" xmlns:xlink="http://www.w3.org/1999/xlink" x="0px" y="0px"
	 width="250px" height="250px" viewBox="0 0 250 250" enable-background="new 0 0 250 250" xml:space="preserve">
<path fill="#E5E5E5" d="M215.703,115.055c0-49.844-40.43-90.273-90.273-90.273c-0.09,0-0.179,0.003-0.269,0.003
	c-0.077,0-0.154-0.003-0.231-0.003c-49.876,0-90.309,40.432-90.309,90.308c0,42.332,29.129,77.855,68.435,87.637
	c-2.091,5.213-7.965,17.313-17.666,19.478c-12.148,2.733,32.969,0.664,65.156-20.431c24.728-7.147,45.078-24.569,56.134-47.305
	h-0.459c0.25-0.515,0.491-1.033,0.731-1.555v0.891C212.539,142.047,215.703,128.922,215.703,115.055z M75.165,105.932
	c-2.717-1.559-4.104-4.499-3.218-7.538c0.377-1.292,1.187-2.624,2.171-3.551c3.991-3.768,8.235-7.046,12.734-9.826l9.955,9.955
	c-4.752,2.593-9.192,5.833-13.33,9.706C81.048,106.952,77.753,107.416,75.165,105.932z M91.604,123.647
	c-5.198-1.665-6.592-7.646-2.604-11.487c4.453-4.288,9.326-7.765,14.645-10.35l10.413,10.412c-2.648,0.931-5.217,2.151-7.66,3.665
	c-2.825,1.752-5.356,3.986-7.944,6.093C96.404,123.648,94.168,124.469,91.604,123.647z M127.316,158.8
	c-4.527,0.016-8.157-3.551-8.201-8.055c-0.042-4.496,3.689-8.219,8.204-8.182c4.511,0.038,8.144,3.662,8.144,8.127
	C135.463,155.176,131.84,158.783,127.316,158.8z M137.375,135.628c-7.359-4.79-16.922-3.791-23.156,2.368
	c-1.717,1.695-3.598,2.86-6.125,2.653c-2.553-0.209-4.439-1.438-5.567-3.705c-1.171-2.351-1.097-4.741,0.517-6.824
	c2.979-3.851,6.957-6.463,11.387-8.409c2.2-0.966,4.468-1.656,7.014-2.101l16.192,16.192
	C137.551,135.743,137.465,135.685,137.375,135.628z M152.371,139.307c-1.992,1.991-5.215,1.998-7.213,0L85.286,79.436
	c-1.992-1.993-1.988-5.226,0-7.214c1.993-1.992,5.215-1.999,7.213,0l59.872,59.871C154.363,134.085,154.359,137.318,152.371,139.307
	z M165.09,122.664c-2.139,1.565-5.451,1.802-7.508,0.305c-2.139-1.559-4.074-3.392-6.191-4.985
	c-4.924-3.703-10.547-6.137-16.385-7.272l-13.904-13.904c2.043-0.222,3.983-0.32,5.159-0.422
	c15.058,0.172,27.21,4.952,37.606,14.194c1.643,1.46,3.291,2.868,3.82,5.169C168.248,118.192,167.227,121.098,165.09,122.664z
	 M182.506,102.21c-0.922,2.683-2.934,4.18-5.723,4.518c-2.336,0.282-4.266-0.702-5.941-2.275
	c-6.271-5.887-13.439-10.362-21.563-13.287c-9.865-3.552-20.018-4.591-30.414-3.259c-1.932,0.248-3.825,0.577-5.683,0.981
	l-11.031-11.032c3.835-1.279,7.82-2.26,11.957-2.929c4.329-0.7,8.729-0.958,11.025-1.2c22.634,0.252,40.472,7.159,55.44,21.17
	C182.719,96.904,183.479,99.385,182.506,102.21z M206.992,77.242v0.107c-0.01-0.021-0.02-0.042-0.029-0.063L206.992,77.242z"/>
</svg>
