<?xml version="1.0" encoding="utf-8"?>
<!-- Generator: Adobe Illustrator 17.0.0, SVG Export Plug-In . SVG Version: 6.00 Build 0)  -->
<!DOCTYPE svg PUBLIC "-//W3C//DTD SVG 1.1//EN" "http://www.w3.org/Graphics/SVG/1.1/DTD/svg11.dtd">
<svg version="1.1" id="图层_1" xmlns="http://www.w3.org/2000/svg" xmlns:xlink="http://www.w3.org/1999/xlink" x="0px" y="0px"
	 width="250px" height="94px" viewBox="0 73.5 250 94" enable-background="new 0 73.5 250 94" xml:space="preserve">
<path fill="#D3D3D3" d="M143.517,123.478c-5.616,19.58-20.398,24.308-20.398,24.308c16.182-1.556,22.697-19.411,23.909-21.928
	C148.396,123.011,144.303,121.371,143.517,123.478z"/>
<path fill="#D3D3D3" d="M160.459,126.426c-2.391-4.852-2.233-3.14-2.233-3.14c4.69,17.275,16.741,24.035,17.507,24.298
	c0.771,0.264,1.193,0.343,2.535-0.239c1.348-0.585,4.056-1.035,4.056-1.035C174.471,142.214,166.853,137.623,160.459,126.426z"/>
<path fill="#D3D3D3" d="M171.087,96.955c-3.021,9.737-10.575,12.733-10.575,12.733c7.5-0.92,13.264-8.543,14.21-10.153
	C176.918,95.773,172.595,92.105,171.087,96.955z"/>
<path fill="#D3D3D3" d="M128.878,96.78c4.805,2.208,8.507,7.033,10.637,11.233c1.786,3.52,5.284,1.635,3.451-1.908
	C138.135,96.755,128.878,96.78,128.878,96.78z"/>
<path fill="#D3D3D3" d="M181.225,116.923c0.765,0,0.436-2.181-1.693-2.675c-2.126-0.495-3.216,1.418-3.216,1.418h-22.247v-22.35
	c0-0.883-0.532-1.359-1.516-1.64c-0.96-0.275-2.068,0.02-2.068,0.523v23.465h-24.55c-0.141,0.076-0.216,0.417-0.129,0.718
	c0.099,0.346,0.27,0.538,0.583,0.538h24.097v36.467c0,0,0,0.714,0,1.448c0,0.507,1.108,0.797,2.068,0.523
	c0.982-0.279,1.516-0.759,1.516-1.638v-36.797H181.225z"/>
<g>
	<path fill="#D3D3D3" d="M114.867,140.523c-2.065-0.476-3.125,1.379-3.125,1.379h-11.165c-0.138,0.071-0.208,0.403-0.123,0.694
		c0.095,0.337,0.259,0.521,0.563,0.521h15.486C117.247,143.116,116.927,140.999,114.867,140.523z"/>
	<path fill="#D3D3D3" d="M104.546,153.635c7.267,0,13.307,0.135,15.757-3.558c0.33-0.481,0.596-1.041,0.745-1.686
		c-0.712-2.383-1.953-5.28-1.77-7.992c-0.164,1.918-1.871,5.958-2.549,7.081c-1.292,2.171-2.301,4.203-11.186,4.203
		c-7.596,0-7.596-5.395-7.596-5.395v-29.691h15.967c0,0.262,0,0.599,0,0.942c0,0.498,1.097,0.79,2.042,0.518
		c0.971-0.278,1.499-0.746,1.499-1.62V105.28c0-0.873-0.526-1.345-1.499-1.62c-0.946-0.27-2.042,0.02-2.042,0.517v1.061H97.946
		V91.326c0-0.874-0.528-1.344-1.499-1.618c-0.946-0.273-2.043,0.017-2.043,0.517v16.704c0,0,0,0.704,0,1.432
		c0,0.498,1.1,0.79,2.043,0.518c0.971-0.278,1.499-0.746,1.499-1.62v-0.801h15.967v8.92c-1.913,0-2.853,0-2.853,0H97.944v-0.237
		c0-0.878-0.529-1.341-1.491-1.62c-0.96-0.265-2.05,0.016-2.05,0.512v32.65c0,0,0,0.366,0,0.844c0,0.248,0.017,0.496,0.048,0.746
		C94.95,152.197,99.5,153.635,104.546,153.635z"/>
	<path fill="#D3D3D3" d="M64.303,99.67h28.011c0.743,0,0.425-2.119-1.638-2.593c-2.065-0.476-3.125,1.376-3.125,1.376H63.859
		c-0.135,0.071-0.206,0.405-0.121,0.695C63.834,99.485,63.999,99.67,64.303,99.67z"/>
	<path fill="#D3D3D3" d="M114.867,123.3c-2.065-0.476-3.125,1.376-3.125,1.376h-11.165c-0.138,0.073-0.208,0.405-0.123,0.697
		c0.095,0.337,0.259,0.518,0.563,0.518h15.486C117.247,125.892,116.927,123.776,114.867,123.3z"/>
	<path fill="#D3D3D3" d="M114.867,131.912c-2.065-0.476-3.125,1.376-3.125,1.376h-11.165c-0.138,0.071-0.208,0.405-0.123,0.694
		c0.095,0.337,0.259,0.521,0.563,0.521h15.486C117.247,134.505,116.927,132.388,114.867,131.912z"/>
	<path fill="#D3D3D3" d="M63.924,112.901h28.379c0.765,0,0.439-2.183-1.691-2.675c-2.127-0.492-3.218,1.418-3.218,1.418H63.47
		c-0.141,0.076-0.211,0.417-0.124,0.718C63.44,112.711,63.611,112.901,63.924,112.901z"/>
	<path fill="#D3D3D3" d="M83.976,102.165c-0.807,5.514-5.243,8.159-5.243,8.159c4.364-0.998,7.697-5.719,8.155-6.717
		C87.952,101.281,84.41,99.22,83.976,102.165z"/>
	<path fill="#D3D3D3" d="M116.081,96.103c2.881-1.956,0.72-6.437-1.862-3.311c-4.835,5.849-12.375,5.374-12.375,5.374
		C107.63,100.086,114.846,96.941,116.081,96.103z"/>
	<path fill="#D3D3D3" d="M77.304,95.931c0.988,2.245,4.028,1.628,3.212-0.712c-1.783-5.095-7.592-5.615-7.592-5.615
		C75.731,91.914,75.99,92.949,77.304,95.931z"/>
	<path fill="#D3D3D3" d="M67.209,101.783c2.608,1.565,4.422,4.56,5.374,7.092c0.801,2.126,3.832,1.48,3.008-0.658
		C73.416,102.567,67.209,101.783,67.209,101.783z"/>
	<path fill="#D3D3D3" d="M69.843,145.994c0.047-0.102,0.064-0.169,0.064-0.169c0.166-0.579,0.348-1.173,0.529-1.786
		c0.445-1.41,0.749-3.213,0.962-5.087h13.081v12.667c0,0,0,0.704,0,1.432c0,0.498,1.097,0.787,2.043,0.517
		c0.971-0.278,1.499-0.746,1.499-1.62v-34.051c0-0.874-0.528-1.345-1.499-1.62c-0.946-0.273-2.043,0.017-2.043,0.517v1.773H71.927
		c-0.022-0.811,0.031-1.23-0.715-1.79c-1.164-0.87-2.838-0.811-2.911-0.149c0,0,0,0.937,0,0.953
		c0.118,3.955,0.182,8.889,0.182,14.761c0,2.763-0.115,5.229-0.348,7.432c-0.164,1.426-0.379,2.83-0.694,4.188
		c-0.033,0.248-0.098,0.481-0.149,0.714c-0.279,1.406-0.63,2.631-1.04,3.707c-0.382,0.894-0.847,1.77-1.407,2.664
		c-0.563,0.894-1.226,1.755-1.97,2.597c-0.017,0.033-0.048,0.048-0.067,0.084C67.198,152.429,69.448,147.033,69.843,145.994z
		 M71.524,137.736c0.309-3.396,0.337-6.779,0.332-8.302h12.628v8.302H71.524z M84.482,128.215H71.854
		c0.016-0.886,0.029-1.773,0.057-2.644c0.017-0.811,0.033-1.589,0.033-2.333c0.022-0.926,0.022-2.306,0.005-3.455h12.53v8.434h0.003
		V128.215z"/>
</g>
</svg>
