<?xml version="1.0" encoding="utf-8"?>
<!-- Generator: Adobe Illustrator 16.0.0, SVG Export Plug-In . SVG Version: 6.00 Build 0)  -->
<!DOCTYPE svg PUBLIC "-//W3C//DTD SVG 1.1//EN" "http://www.w3.org/Graphics/SVG/1.1/DTD/svg11.dtd">
<svg version="1.1" id="图层_1" xmlns="http://www.w3.org/2000/svg" xmlns:xlink="http://www.w3.org/1999/xlink" x="0px" y="0px"
	 width="250px" height="250px" viewBox="0 0 250 250" enable-background="new 0 0 250 250" xml:space="preserve">
<g>
	<path fill="#E5E5E5" d="M81.779,148.332c0,2.085,1.697,3.776,3.779,3.776h75.561c2.08,0,3.778-1.691,3.778-3.776V91.661H81.779
		V148.332z M93.208,106.897h60.51c2.089,0,3.779,1.688,3.779,3.777c0,2.09-1.69,3.779-3.779,3.779h-60.51
		c-2.085,0-3.778-1.689-3.778-3.779C89.43,108.586,91.119,106.897,93.208,106.897z M93.208,129.564h60.51
		c2.089,0,3.779,1.689,3.779,3.778c0,2.09-1.69,3.779-3.779,3.779h-60.51c-2.085,0-3.778-1.689-3.778-3.779
		C89.43,131.254,91.119,129.564,93.208,129.564z"/>
	<path fill="#E5E5E5" d="M215.703,115.055c0-49.844-40.43-90.273-90.273-90.273c-0.09,0-0.179,0.003-0.269,0.003
		c-0.077,0-0.154-0.003-0.231-0.003c-49.876,0-90.309,40.432-90.309,90.308c0,42.332,29.129,77.855,68.435,87.637
		c-2.091,5.213-7.965,17.313-17.666,19.478c-12.148,2.733,32.969,0.664,65.156-20.431c24.728-7.147,45.078-24.569,56.134-47.305
		h-0.459c0.25-0.515,0.491-1.033,0.731-1.555v0.891C212.539,142.047,215.703,128.922,215.703,115.055z M142.229,57.658
		c0-2.09,1.688-3.778,3.778-3.778s3.777,1.688,3.777,3.778v11.333c0,2.09-1.688,3.779-3.777,3.779s-3.778-1.688-3.778-3.779V57.658z
		 M115.783,61.436h18.889c2.09,0,3.777,1.689,3.777,3.779c0,2.089-1.688,3.777-3.777,3.777h-18.889c-2.09,0-3.779-1.688-3.779-3.777
		C112.004,63.125,113.692,61.436,115.783,61.436z M100.669,57.658c0-2.09,1.689-3.778,3.778-3.778c2.088,0,3.778,1.688,3.778,3.778
		v11.333c0,2.09-1.689,3.779-3.778,3.779c-2.089,0-3.778-1.688-3.778-3.779V57.658z M172.452,148.332
		c0,6.248-5.086,11.333-11.333,11.333H85.558c-6.249,0-11.335-5.085-11.335-11.333V72.77c0-6.25,5.048-11.334,11.255-11.334h7.636
		c2.089,0,3.778,1.689,3.778,3.779c0,2.089-1.689,3.777-3.778,3.777h-7.636c-2.04,0-3.699,1.693-3.699,3.779v11.334h83.118V72.77
		c0-2.342-1.3-3.779-2.008-3.779h-5.55c-2.09,0-3.778-1.688-3.778-3.777c0-2.089,1.688-3.779,3.778-3.779h5.55
		c5.271,0,9.563,5.085,9.563,11.334V148.332z M206.992,77.242v0.107c-0.01-0.021-0.02-0.042-0.029-0.063L206.992,77.242z"/>
</g>
</svg>
