<?xml version="1.0" encoding="utf-8"?>
<!-- Generator: Adobe Illustrator 16.0.0, SVG Export Plug-In . SVG Version: 6.00 Build 0)  -->
<!DOCTYPE svg PUBLIC "-//W3C//DTD SVG 1.1//EN" "http://www.w3.org/Graphics/SVG/1.1/DTD/svg11.dtd">
<svg version="1.1" id="图层_1" xmlns="http://www.w3.org/2000/svg" xmlns:xlink="http://www.w3.org/1999/xlink" x="0px" y="0px"
	 width="100px" height="100px" viewBox="0 0 100 100" enable-background="new 0 0 100 100" xml:space="preserve">
<circle opacity="0.5" fill="#F6F5F5" cx="50.295" cy="50.209" r="49.093"/>
<path opacity="0.1" fill="#DBD4C2" d="M72.518,70.408c-10.89-1.969-27.157-1.148-35.241-0.492
	c-4.856,0.492-10.42,1.807-12.374,4.107c-1.164,1.48,2.598,2.795,6.569,3.451c-0.013,0.166,8.45,1.15,11.667,1.15
	c4.308,0.164,8.79,0.164,13.148,0.164c12.141-0.164,22.136-1.477,23.176-4.105C80.34,72.545,75.07,70.9,72.518,70.408z
	 M68.445,71.23c0.013,0,0.021,0,0.03-0.164c0.336,0.164,0.659,0.164,0.979,0.33c-0.166,0-0.323,0-0.479,0
	c-0.104,0-0.208,0.164-0.307,0.164c-0.062,0-0.126,0-0.183,0c-0.304,0-0.605,0-0.898,0C67.934,71.396,68.249,71.23,68.445,71.23z
	 M68.5,73.039c-0.022,0-0.037,0-0.063,0c-0.116,0-0.239,0-0.358,0C68.219,73.039,68.359,73.039,68.5,73.039z M65.47,70.738
	c0.404,0,0.821,0,1.24,0.162c-0.201,0-0.4,0-0.602,0c-0.142,0-0.292,0.166-0.442,0.166c0.163-0.166,0.018-0.328-0.264-0.328
	C65.432,70.738,65.454,70.738,65.47,70.738z M65.109,72.875c0.652-0.166,1.332-0.166,2.008-0.33c0.224,0,0.503,0,0.775,0
	c-0.256,0-0.499,0-0.746,0.164c-1.075,0.166-2.119,0.33-3.136,0.494c-0.087,0-0.106,0-0.017-0.164h0.009c0.201,0,0.403,0,0.607,0
	c0.024-0.164,0.05-0.164,0.074-0.164C64.825,72.875,64.969,72.875,65.109,72.875z M64.577,72.217c0.02,0,0.041,0,0.053,0
	c-0.574,0.164-1.143,0.164-1.705,0.328C63.47,72.381,64.023,72.381,64.577,72.217z M60.104,70.082c0.232,0,0.466,0,0.711,0
	c0.082,0.164,0.165,0.164,0.244,0.164c-0.257,0-0.53,0-0.813,0c-0.061,0-0.125,0-0.191-0.164
	C60.071,70.082,60.088,70.082,60.104,70.082z M58.064,71.723c0.847-0.162,1.709-0.326,2.502-0.492c0.132,0,0.265,0,0.394,0
	c-1.107,0.166-2.178,0.33-3.234,0.658c-0.069,0-0.137,0-0.2,0C57.705,71.723,57.883,71.723,58.064,71.723z M60,72.381
	c-0.181,0.164-0.363,0.164-0.544,0.164c0.099,0,0.203,0,0.299-0.164C59.836,72.381,59.923,72.381,60,72.381z M55.365,70.082
	c0.217,0,0.439,0,0.663,0c-0.229,0-0.459,0-0.681,0.164C55.359,70.082,55.365,70.082,55.365,70.082z M51.676,70.738
	c0.012,0,0.025,0,0.036,0c0.332-0.164,0.447-0.164,0.397-0.33c0.111,0,0.223,0,0.322,0c2.387-0.326-0.08,0-0.878,0.33
	c-0.029,0-0.055,0-0.084,0C51.543,70.738,51.613,70.738,51.676,70.738z M49.074,69.754c0.28,0,0.561,0,0.842,0
	c0.005,0,0.008,0,0.013,0c-0.074,0.162-0.066,0.162,0.041,0.328c0.014,0,0.022,0,0.034,0c-0.041,0-0.083,0-0.121,0
	c-0.242,0-0.577-0.166-0.936-0.166C49.024,69.916,49.064,69.916,49.074,69.754z M48.914,71.23c0.103,0,0.209,0,0.322,0
	c0.653-0.164,1.351-0.164,1.899-0.33c0.05,0,0.104,0,0.148,0c-0.02,0-0.045,0-0.07,0c-0.285,0.166-0.566,0.166-0.847,0.166
	c-0.651,0.164-1.297,0.33-1.94,0.494C48.604,71.396,48.769,71.396,48.914,71.23z M38.655,72.053c0.653,0,1.64,0,2.754,0
	c-0.145,0-0.284,0-0.429,0c-0.173,0.164-0.343,0.164-0.513,0.164c-0.256,0.164-0.517,0.164-0.768,0.164c-0.042,0-0.071,0-0.099,0
	c-0.536,0-0.949,0-0.972-0.164C38.624,72.053,38.629,72.053,38.655,72.053z M37.768,73.697c0.156,0,0.305,0,0.468,0
	c0.001,0,0.006,0,0.01,0c0.027,0,0.055,0,0.087,0c-0.181,0-0.358,0.164-0.524,0.164c-0.257,0.162-0.297,0.162-0.209,0.326
	c-0.205,0-0.411,0-0.612,0.166c-0.095-0.166-0.209-0.166-0.336-0.166c-0.093,0-0.189,0-0.288,0
	C36.86,74.023,37.354,73.861,37.768,73.697z M28.034,74.684c0.127,0,0.265,0,0.391,0c0.434-0.166,0.852-0.166,1.273-0.33
	c0.025,0,0.054,0,0.083,0c-0.479,0.33-1.009,0.492-1.495,0.658C28.186,74.846,28.109,74.846,28.034,74.684z M29.985,75.998
	c-0.325-0.166-0.63-0.33-0.898-0.494c0.529,0,1.046-0.164,1.57-0.328c0.132,0,0.259,0.164,0.402,0.164c0.024,0,0.047,0,0.072,0
	c-0.47,0.328-0.838,0.492-1.057,0.658C30.033,75.998,30.003,75.998,29.985,75.998z M31.233,76.49c-0.028,0-0.053,0-0.076,0
	c-0.124,0-0.249-0.166-0.361-0.166c0.232,0,0.484,0,0.704,0c0.097,0,0.204,0,0.325,0C31.622,76.324,31.425,76.324,31.233,76.49z
	 M34.071,74.354h-0.238c-0.129,0-0.285-0.166-0.514-0.166c-0.14,0-0.277,0-0.421,0c0.063,0,0.125-0.164,0.186-0.164
	c0.39,0,0.742-0.162,1.054-0.326c0.43-0.166,0.866-0.166,1.313-0.33c-0.244,0.164-0.472,0.164-0.687,0.33
	c-0.317,0.164-0.243,0.326,0.032,0.326c-0.11,0.164-0.218,0.164-0.317,0.33C34.344,74.354,34.208,74.354,34.071,74.354z
	 M35.127,77.145c-0.073,0-0.126,0-0.168,0c-0.148,0-0.289,0-0.438,0c0.37,0,0.729-0.16,1.089-0.16
	C35.443,76.984,35.276,77.145,35.127,77.145z M36.231,75.34c0.038,0,0.075,0,0.114,0c0.498-0.164,0.964-0.328,1.435-0.494
	c0.387,0,0.773-0.162,1.152-0.162c0.11,0,0.228-0.166,0.334-0.166c-0.292,0.166-0.544,0.328-0.688,0.328
	c-0.683,0.166-1.366,0.33-2.095,0.494C36.409,75.34,36.323,75.34,36.231,75.34z M41.524,77.641c-0.978,0.164-2.7,0-3.749-0.166
	c0.028,0,0.062,0,0.091,0c0.619-0.162,1.242-0.162,1.846-0.33c0.159,0,0.326-0.16,0.499-0.16c0.415,0,0.803,0,1.12-0.166
	c0.053,0,0.103,0,0.156,0c-0.442,0.166-0.861,0.326-1.237,0.494c-0.538,0.162,0.547,0.492,1.262,0.328c0.091,0,0.178,0,0.273-0.166
	C41.699,77.641,41.62,77.641,41.524,77.641z M42.074,71.066c0.484-0.166,0.944-0.328,1.381-0.328
	c0.757-0.33,1.562-0.164,2.403,0.162c-0.096,0-0.204,0-0.302,0c-0.24-0.162-0.723-0.162-1.236,0c-0.646,0-1.336,0.166-2.011,0.166
	C42.228,71.066,42.149,71.066,42.074,71.066z M42.951,75.998c0.483-0.166,1.131-0.33,1.84-0.658c-0.017,0-0.037,0-0.054,0
	c0.061,0,0.128,0,0.191,0c-0.017,0-0.031,0.164-0.031,0.164c0,0.164-0.019,0.328-0.036,0.328c-0.739,0.166-1.42,0.166-2.082,0.328
	C42.839,76.16,42.893,75.998,42.951,75.998z M46.547,77.805c-0.104,0-0.125,0.164-0.088,0.164c-0.863,0-1.737,0-2.625,0
	c-0.516,0-0.744-0.164-0.746-0.328c0.031,0,0.067,0,0.101,0c0.024,0.164,0.604,0.328,1.106,0.164
	c0.224,0.164,0.541,0.164,0.859,0.164c0.594-0.164,1.075-0.164,1.523-0.164C46.638,77.805,46.588,77.805,46.547,77.805z
	 M46.522,71.723c-0.034,0-0.059,0-0.087,0c0.042,0.166,0.054,0.166,0.075,0.166c-0.479,0.164-0.959,0.164-1.439,0.328
	c-0.118-0.164-0.237-0.164-0.352-0.164c0.123,0,0.256,0,0.374-0.164c0.278,0,0.377-0.166,0.372-0.166c0.099,0,0.198,0,0.297-0.162
	c0.344,0,0.673,0,0.985,0C46.775,71.561,46.711,71.723,46.522,71.723z M50.241,74.684c-0.025,0-0.139,0-0.369,0.162
	c-0.778,0.166-1.585,0.33-2.372,0.494c0.245-0.328,0.541-0.656,0.917-0.986c0.199,0,0.397,0,0.597-0.166
	c0.13,0.166,0.396,0.166,0.792,0.166h0.605c0.018,0,0.024,0,0.043,0c-0.039,0-0.022,0.164,0.078,0.164
	C50.435,74.518,50.341,74.518,50.241,74.684z M52.242,72.875c0.087,0,0.168,0,0.251,0c-0.594,0-1.183,0.164-1.779,0.328
	C51.221,73.039,51.732,72.875,52.242,72.875z M50.727,73.861c0.18-0.164,0.371-0.164,0.549-0.164
	c0.374-0.166,0.755-0.166,1.138-0.166c-0.393,0-0.881,0.166-1.279,0.33C51.048,73.861,50.907,73.861,50.727,73.861z M54.059,76.324
	c-0.39,0-0.785,0.166-1.182,0.166c-0.058,0-0.121,0-0.182,0c-0.16,0-0.326,0-0.486,0.164c0.017-0.164,0.47-0.33,0.861-0.494
	c0.377,0,0.736,0.164,1.084,0.164C54.123,76.324,54.092,76.324,54.059,76.324z M55.563,75.34c-0.099,0-0.198,0-0.295,0
	c0.158,0,0.325-0.164,0.497-0.164C55.694,75.176,55.624,75.176,55.563,75.34z M56.607,72.053c-0.876,0.164-1.756,0.328-2.639,0.492
	h-0.076c-0.063,0-0.123,0-0.189,0c-0.011,0-0.029,0-0.041,0c0.188,0,0.371-0.164,0.562-0.164c0.852-0.164,1.692-0.328,2.528-0.492
	C56.707,72.053,56.656,72.053,56.607,72.053z M57.268,74.846c0.045,0,0.099,0,0.145,0c0.042,0,0.085,0,0.127,0
	C57.454,74.846,57.358,74.846,57.268,74.846z M58.824,74.354c0.665-0.166,1.318-0.33,1.928-0.492c0.62-0.164,1.238-0.33,1.866-0.494
	c0.051,0.164,0.039,0.164-0.049,0.164c-0.568,0.166-1.15,0.33-1.711,0.492c-0.226,0-0.494,0.164-0.783,0.164
	c-0.863,0.166-1.714,0.33-2.478,0.658C57.976,74.684,58.382,74.518,58.824,74.354z M61.558,74.684c0.099,0,0.179,0,0.249,0
	c-0.154,0-0.307,0.162-0.46,0.162c0.054,0.166-0.007,0.166-0.214,0.33c-0.021,0-0.037,0-0.061,0c-0.46,0-0.926,0.164-1.39,0.328
	c0.009-0.164,0.017-0.164,0.028-0.164c-0.325,0-0.643,0-0.972,0C59.68,75.176,60.67,74.846,61.558,74.684z M61.674,77.313
	c-0.042,0-0.083,0-0.129,0c-0.119,0-0.251,0.162-0.399,0.162c-0.269,0.166-0.818,0.166-1.157,0c-0.189,0-0.422,0-0.66,0
	c0.838-0.162,1.674-0.33,2.51-0.49c0.163,0,0.314,0,0.462,0c0.183,0,0.395,0,0.612,0c1.636-0.166,3.016-0.494,4.34-0.824
	c0.451,0,0.88-0.162,1.291-0.162c0.104,0,0.185-0.166,0.249-0.166C67.952,76.654,63.805,77.313,61.674,77.313z M69.643,74.518
	c-0.174,0.166-0.342,0.166-0.512,0.166c-0.113,0-0.28,0-0.475,0c0,0,0.006,0,0.006-0.166c0.328,0,0.66,0,0.985-0.164
	C69.643,74.518,69.64,74.518,69.643,74.518z M71.592,75.34c-0.008,0-0.008-0.164-0.008-0.164c0.542-0.164,1.112-0.164,1.718-0.33
	C72.798,75.012,72.225,75.176,71.592,75.34z M73.042,72.381c0.145,0,0.209-0.164,0.215-0.164c0.654,0,0.983,0.164,0.9,0.328l0,0
	h-0.008c-0.124,0-0.276,0-0.468,0C73.463,72.381,73.249,72.381,73.042,72.381z M74.166,74.684c-0.009-0.166-0.017-0.166-0.029-0.166
	c0.116,0,0.184-0.164,0.217-0.33c0.266-0.164,0.521-0.326,0.746-0.49C75.063,74.023,74.719,74.354,74.166,74.684z"/>
<path opacity="0.1" fill="#E5B7C3" d="M77.916,57.357l-0.042-0.828c-0.131-2.576-0.279-7.286-0.443-14.001
	c-0.004-0.2-0.097-0.388-0.256-0.52c-0.158-0.132-0.368-0.196-0.578-0.174c-1.155,0.118-2.319,0.281-3.446,0.438
	c-2.14,0.299-4.353,0.608-6.51,0.608c-1.308,0-2.492-0.111-3.622-0.338c-1.813-0.363-4.193-1.259-5.249-3.465
	c-1.035-2.166-1.093-4.584-1.062-7.292c0.005-0.427,0.01-0.854,0.017-1.28c0.038-2.806,0.077-5.707-0.206-8.576
	c-0.037-0.366-0.36-0.646-0.748-0.647c-4.458-0.019-11.929-0.21-15.52-0.303c-1.317-0.034-1.907-0.048-2.055-0.048
	c-0.001,0-0.001,0-0.002,0c-2.406,0.025-4.021,1.199-4.318,3.137c-0.028,0.176-0.01,0.515,0.107,2.017
	c0.035,0.452,0.067,0.867,0.078,1.079c0.614,11.995,0.17,32.074,0.002,39.635c-0.056,2.52-0.056,2.615-0.043,2.717
	c0.119,0.939,0.517,1.689,1.18,2.227c0.738,0.604,1.729,0.91,2.942,0.91c0.075,0,0.15-0.002,0.223-0.004
	c0.024-0.002,0.08-0.002,0.167-0.002c0.389,0,1.324,0.006,2.594,0.012c2.737,0.014,6.875,0.033,10.559,0.033
	c2.264,0,4.051-0.008,5.311-0.021c1.222-0.018,2.531-0.023,4.247-0.023c0.701,0,1.402,0,2.103,0.002
	c0.702,0,1.404,0.002,2.106,0.002c2.014,0,4.392-0.006,6.76-0.068l0.088,0.01c0.091,0.006,0.184,0,0.271-0.023
	c0.023-0.004,0.047-0.012,0.079-0.014c2.191-0.178,4.895-1.469,5.321-6.607C78.21,63.088,78.061,60.174,77.916,57.357z"/>
<path opacity="0.1" fill="#E5B7C3" d="M54.309,28.037l-0.018,1.334c-0.037,2.177-0.078,4.644,0.75,6.808
	c0.851,2.216,2.826,3.563,5.87,4.002c0.897,0.129,1.814,0.192,2.806,0.192c2.244,0,4.478-0.333,6.638-0.654
	c0.774-0.116,1.576-0.235,2.362-0.335c0.288-0.038,0.53-0.237,0.62-0.514c0.09-0.277,0.014-0.58-0.197-0.781
	c-3.544-3.367-7.146-6.937-11.013-10.914c-0.628-0.646-1.292-1.305-1.934-1.943c-1.58-1.567-3.213-3.189-4.613-4.909
	c-0.207-0.254-0.553-0.346-0.857-0.229c-0.305,0.118-0.499,0.419-0.48,0.745C54.373,23.229,54.341,25.674,54.309,28.037z"/>
<g opacity="0.1">
	<path fill="#B43252" stroke="#F6F5F5" stroke-width="0.5" stroke-miterlimit="10" d="M44.763,72.035
		c-0.274-0.213-0.125-0.053-0.362-0.303c-0.386-0.414-0.844-0.914-1.068-1.441c-0.294-0.695-1.441-0.391-1.144,0.316
		c0.345,0.818,0.557,1.115,1.169,1.75c0.52,0.535,1.033,0.746,1.841,0.598C45.899,72.828,44.845,72.098,44.763,72.035z"/>
	<path fill="#B43252" stroke="#F6F5F5" stroke-width="0.5" stroke-miterlimit="10" d="M41.447,71.852
		c-0.387-0.414-0.844-0.914-1.068-1.441c-0.294-0.695-1.442-0.389-1.145,0.316c0.345,0.818,0.761,2.135,2.37,2.135
		C42.316,72.861,41.685,72.102,41.447,71.852z"/>
	<path fill="#B43252" stroke="#F6F5F5" stroke-width="0.5" stroke-miterlimit="10" d="M39.132,72.537
		c-0.274-0.213-0.124-0.053-0.361-0.303c-0.387-0.414-0.845-0.914-1.07-1.439c-0.293-0.695-1.441-0.393-1.144,0.314
		c0.345,0.818,0.557,1.115,1.169,1.75c0.521,0.535,1.033,0.748,1.842,0.598C40.269,73.33,39.215,72.602,39.132,72.537z"/>
	<path fill="#B43252" stroke="#F6F5F5" stroke-width="0.5" stroke-miterlimit="10" d="M35.777,72.381
		c-0.354-0.352-0.773-0.777-0.979-1.225c-0.269-0.592-1.32-0.332-1.047,0.268c0.315,0.695,0.973,1.701,2.446,1.701
		C36.849,73.125,35.994,72.594,35.777,72.381z"/>
	<path fill="#B43252" stroke="#F6F5F5" stroke-width="0.5" stroke-miterlimit="10" d="M48.292,71.969
		c-0.479-0.389-0.957-1.1-1.718-2.131c-0.448-0.609-1.479-0.018-1.023,0.6c0.949,1.287,1.107,1.318,1.824,2.033
		C47.914,73.014,48.884,72.453,48.292,71.969z"/>
	<path fill="#B43252" stroke="#F6F5F5" stroke-width="0.5" stroke-miterlimit="10" d="M49.965,69.68
		c-0.301-0.703-1.323-0.1-1.026,0.596c0.602,1.4,1.103,1.693,2.319,2.529c0.635,0.434,1.455-0.299,0.828-0.73
		C51.023,71.348,50.488,70.898,49.965,69.68z"/>
	<path fill="#B43252" stroke="#F6F5F5" stroke-width="0.5" stroke-miterlimit="10" d="M55.5,72.051
		c-1.125-0.355-1.645-1.361-2-2.496c-0.23-0.727-1.467-0.379-1.146,0.316c0.656,1.428,1.336,2.029,2.241,2.857
		C55.161,73.25,56.226,72.279,55.5,72.051z"/>
	<path fill="#B43252" stroke="#F6F5F5" stroke-width="0.5" stroke-miterlimit="10" d="M56.882,69.322
		c-0.482-0.594-1.315,0.25-0.839,0.84c1.06,1.311,1.074,1.551,2.396,2.576c0.595,0.463,1.443-0.373,0.838-0.838
		C57.957,70.875,57.941,70.633,56.882,69.322z"/>
	<path fill="#B43252" stroke="#F6F5F5" stroke-width="0.5" stroke-miterlimit="10" d="M60.032,69.182
		c-0.549-0.533-1.39,0.307-0.837,0.84c1.094,1.059,1.587,1.969,2.833,2.869c0.625,0.451,1.603-0.25,0.987-0.693
		C61.862,71.363,61.049,70.162,60.032,69.182z"/>
	<path fill="#B43252" stroke="#F6F5F5" stroke-width="0.5" stroke-miterlimit="10" d="M65.899,71.762
		c-1.153-0.486-2.043-1.658-2.749-2.648c-0.44-0.619-1.469-0.027-1.023,0.598c0.91,1.281,1.976,2.57,3.457,3.193
		C66.288,73.203,66.593,72.055,65.899,71.762z"/>
	<path fill="#B43252" stroke="#F6F5F5" stroke-width="0.5" stroke-miterlimit="10" d="M68.892,71.668
		c-0.038-0.014-0.02-0.01-0.129-0.078c-0.098-0.061-0.187-0.133-0.275-0.203c-0.267-0.217-0.521-0.449-0.771-0.688
		c-0.443-0.422-0.918-0.873-1.242-1.398c-0.401-0.648-1.429-0.053-1.023,0.598c0.401,0.654,0.976,1.213,1.527,1.736
		c0.444,0.424,0.988,0.998,1.598,1.174C69.312,73.027,69.624,71.881,68.892,71.668z"/>
	<path fill="#B43252" stroke="#F6F5F5" stroke-width="0.5" stroke-miterlimit="10" d="M69.262,68.805
		c-0.574-0.498-1.417,0.336-0.839,0.84c0.929,0.807,1.688,1.785,2.66,2.543c0.597,0.465,1.443-0.367,0.839-0.838
		C70.951,70.59,70.191,69.611,69.262,68.805z"/>
	<path fill="#B43252" stroke="#F6F5F5" stroke-width="0.5" stroke-miterlimit="10" d="M71.594,67.525
		c-0.624-0.445-1.217,0.584-0.601,1.023c0.929,0.662,1.414,1.354,2.139,2.225c0.49,0.588,1.326-0.256,0.84-0.84
		C73.174,68.977,72.614,68.254,71.594,67.525z"/>
	<path fill="#B43252" stroke="#F6F5F5" stroke-width="0.5" stroke-miterlimit="10" d="M72.356,64.473
		c-0.57-0.506-1.412,0.33-0.84,0.84c1.071,0.949,1.708,1.43,2.319,2.73c0.325,0.693,1.349,0.088,1.026-0.6
		C74.214,66.064,73.49,65.479,72.356,64.473z"/>
	<path fill="#B43252" stroke="#F6F5F5" stroke-width="0.5" stroke-miterlimit="10" d="M72.356,60.85
		c-0.573-0.502-1.416,0.334-0.84,0.84c1.163,1.018,1.562,1.654,2.645,2.754c0.537,0.547,1.377-0.293,0.839-0.84
		C73.918,62.506,73.52,61.869,72.356,60.85z"/>
	<path fill="#B43252" stroke="#F6F5F5" stroke-width="0.5" stroke-miterlimit="10" d="M72.201,57.674
		c-0.624-0.447-1.215,0.582-0.601,1.025c1.069,0.766,1.677,1.305,2.393,2.135c0.497,0.576,1.54-0.029,1.025-0.598
		C74.082,59.199,73.443,58.566,72.201,57.674z"/>
	<path fill="#B43252" stroke="#F6F5F5" stroke-width="0.5" stroke-miterlimit="10" d="M74.975,56.32
		c-1.025-1.031-1.445-1.211-2.748-1.855c-0.686-0.342-1.286,0.684-0.602,1.023c1.22,0.605,1.55,0.705,2.511,1.672
		C74.676,57.703,75.513,56.863,74.975,56.32z"/>
	<path fill="#B43252" stroke="#F6F5F5" stroke-width="0.5" stroke-miterlimit="10" d="M74.573,53.102
		c-1.283-0.855-1.286-1.02-2.603-1.818c-0.654-0.4-1.251,0.626-0.598,1.024c1.313,0.802,1.428,0.997,2.603,1.819
		C74.6,54.564,75.271,53.568,74.573,53.102z"/>
	<path fill="#B43252" stroke="#F6F5F5" stroke-width="0.5" stroke-miterlimit="10" d="M72.473,48.268
		c-0.68-0.35-1.28,0.675-0.6,1.024c1.186,0.609,1.447,0.932,2.45,1.796c0.577,0.497,1.422-0.339,0.84-0.839
		C74.086,49.322,73.745,48.922,72.473,48.268z"/>
	<path fill="#B43252" stroke="#F6F5F5" stroke-width="0.5" stroke-miterlimit="10" d="M72.423,45.342
		c-0.747-0.104-1.07,1.04-0.315,1.143c1.08,0.148,1.442,0.438,2.232,1.176c0.561,0.522,1.4-0.316,0.84-0.84
		C74.253,45.954,73.694,45.515,72.423,45.342z"/>
	<path fill="#B43252" stroke="#F6F5F5" stroke-width="0.5" stroke-miterlimit="10" d="M74.673,43.262
		c-0.761-0.593-1.167-1.032-2.17-1.085c-0.767-0.039-0.761,1.149,0,1.189c0.573,0.028,0.668,0.221,1.114,0.537
		c0.257,0.179,1.07,1.041,1.395,0.566C75.461,43.814,75.078,43.577,74.673,43.262z"/>
</g>
<path opacity="0.1" fill="#B43252" stroke="#F6F5F5" stroke-miterlimit="10" d="M65.647,61.135
	c-4.222,0.025-8.313,0.023-12.595,0.074c-4.561,0.053-9.41,0.197-13.932,0.332c-1.132,0.035-1.144,2.176,0,2.146
	c4.566-0.113,9.37-0.26,13.932-0.332c4.279-0.068,8.239-0.125,12.595-0.074C66.792,63.293,66.778,61.127,65.647,61.135z"/>
<path opacity="0.1" fill="#B43252" stroke="#F6F5F5" stroke-miterlimit="10" d="M65.858,54.492c-8.843,0-17.682,0.447-26.525,0.205
	c-1.145-0.033-1.143,2.113,0,2.145c8.844,0.244,17.683-0.203,26.525-0.203C67.003,56.639,67.003,54.492,65.858,54.492z"/>
<path opacity="0.1" fill="#B43252" stroke="#F6F5F5" stroke-miterlimit="10" d="M65.689,48.464
	c-4.353,0.406-8.766,0.317-13.131,0.475c-4.581,0.166-9.592-0.004-13.284-0.103c-1.143-0.031-1.085,2.17,0.046,2.218
	c4.637,0.197,8.338,0.188,12.763,0.048c4.521-0.145,9.1-0.071,13.606-0.492C66.822,50.504,66.831,48.357,65.689,48.464z"/>
<path opacity="0.1" fill="#B43252" stroke="#F6F5F5" stroke-width="1.5" stroke-miterlimit="10" d="M76.204,59.051
	c0.018,5.313,0.947,14.135-6.788,14.799c-0.096,0.01-0.181,0.004-0.266-0.01c-0.075,0.02-0.156,0.029-0.243,0.029
	c-5.261,0.143-10.537,0.037-15.804,0.102c-5.2,0.061-17.553-0.027-18.22-0.037c-1.363-0.023-2.697-0.363-3.747-1.266
	c-1.551-1.334-1.864-3.348-1.581-5.227c0.002-0.025,0.015-0.047,0.018-0.074c-0.419-13.678,0.591-27.363,0.048-41.037
	c-0.043-1.092-0.281-5.209-0.157-5.728c0.269-1.131,0.887-2.16,1.96-2.838c0.827-0.525,1.735-0.788,2.676-0.881
	c0.573-0.056,12.569,0.296,18.611,0.317c0.254,0,0.495,0,0.724,0c0.007,0.005,0.987-0.082,1.904,0.917
	c0.929,1.008,1.798,2.109,2.711,3.104c1.69,1.841,3.418,3.644,5.162,5.43c3.886,3.979,7.827,7.909,11.873,11.709
	c0.256,0.241,0.35,0.519,0.334,0.785c0.109,0.162,0.179,0.365,0.179,0.615v5.21c0,0.166-0.033,0.31-0.085,0.438
	C75.817,49.953,76.187,54.508,76.204,59.051z M74.05,65.566c0.26-3.264,0.058-6.596-0.097-9.855
	C73.761,51.693,73.577,43.79,73.51,40.9c-4.603,0.499-9.174,1.723-13.815,0.736c-2.365-0.5-4.706-1.716-5.78-4.087
	c-1.127-2.495-1.157-5.321-1.127-8.024c0.036-3.454,0.135-6.892-0.188-10.334c-5.945-0.027-17.239-0.377-17.564-0.371
	c-1.862,0.021-3.319,0.866-3.582,2.673c-0.033,0.22,0.163,2.495,0.194,3.122c0.75,15.517-0.091,44.321-0.045,44.692
	c0.084,0.705,0.341,1.373,0.923,1.869c0.729,0.631,1.692,0.807,2.651,0.777c0.426-0.014,13.24,0.09,18.643,0.02
	c5.068-0.066,10.142,0.045,15.203-0.092c0.066,0,0.124,0.008,0.184,0.014c0.066-0.018,0.137-0.033,0.211-0.039
	C72.867,71.561,73.83,68.369,74.05,65.566z M60.868,39.637c3.918,0.564,7.74-0.302,11.602-0.8
	c-3.75-3.562-7.424-7.222-11.034-10.935c-2.148-2.211-4.583-4.435-6.592-6.902c0.145,2.637,0.094,5.273,0.061,7.918
	c-0.03,2.356-0.166,4.957,0.69,7.192C56.473,38.399,58.65,39.317,60.868,39.637z"/>
</svg>
