<?xml version="1.0" encoding="utf-8"?>
<!-- Generator: Adobe Illustrator 17.0.0, SVG Export Plug-In . SVG Version: 6.00 Build 0)  -->
<!DOCTYPE svg PUBLIC "-//W3C//DTD SVG 1.1//EN" "http://www.w3.org/Graphics/SVG/1.1/DTD/svg11.dtd">
<svg version="1.1" id="图层_1" xmlns="http://www.w3.org/2000/svg" xmlns:xlink="http://www.w3.org/1999/xlink" x="0px" y="0px"
	 width="250px" height="213px" viewBox="0 0 250 213" enable-background="new 0 0 250 213" xml:space="preserve">
<path fill="#A5A0AE" d="M116.08,144.829c2.527,0.159,2.878,8.778,5.101,9.813c2.381,1.116,1.282-2.168,0.873-3.203
	c-1.007-2.544-1.521-5.289-2.607-7.813"/>
<path fill="#6F4B2D" d="M119.242,143.155c-0.259,0.112-0.38,0.417-0.267,0.677c0.568,1.32,0.986,2.74,1.396,4.118
	c0.354,1.216,0.727,2.474,1.203,3.676c0.593,1.496,0.672,2.558,0.502,2.72c-0.017,0.017-0.205,0.054-0.677-0.166
	c-0.831-0.388-1.466-2.556-2.026-4.471c-0.803-2.718-1.554-5.283-3.259-5.393c-0.284-0.016-0.53,0.196-0.547,0.48
	c-0.016,0.284,0.196,0.532,0.48,0.547c0.986,0.063,1.734,2.608,2.335,4.659c0.685,2.326,1.329,4.523,2.577,5.109
	c0.803,0.371,1.412,0.367,1.821-0.017c0.769-0.723,0.289-2.49-0.25-3.843c-0.46-1.162-0.823-2.399-1.174-3.593
	c-0.413-1.403-0.843-2.858-1.437-4.231C119.806,143.162,119.506,143.042,119.242,143.155z"/>
<path fill="#A5A0AE" d="M150.227,145.31c0.497,2.143,1.424,4.461,2.21,6.504c1.082,2.823,1.741,1.175,3.826,2.131
	c0.012-2.521-2.757-5.569-2.916-8.392"/>
<path fill="#6F4B2D" d="M150.11,144.812c-0.28,0.063-0.452,0.339-0.384,0.618c0.463,1.989,1.29,4.135,2.022,6.033l0.208,0.539
	c0.757,1.971,1.446,2.109,2.494,2.105c0.455,0,0.931,0,1.595,0.304c0.159,0.071,0.347,0.059,0.493-0.032
	c0.146-0.096,0.238-0.26,0.238-0.434c0.008-1.388-0.702-2.816-1.453-4.333c-0.681-1.37-1.387-2.791-1.458-4.089
	c-0.017-0.284-0.259-0.503-0.543-0.485c-0.276,0.017-0.489,0.243-0.489,0.515c0,0.007,0,0.016,0,0.028
	c0.089,1.512,0.84,3.026,1.567,4.492c0.556,1.119,1.069,2.184,1.257,3.149c-0.476-0.108-0.893-0.142-1.212-0.142
	c-0.71,0.005-0.973,0.005-1.529-1.449l-0.209-0.539c-0.719-1.864-1.533-3.973-1.98-5.899
	C150.661,144.917,150.386,144.746,150.11,144.812z"/>
<path fill="#A5A0AE" d="M118.824,164.067c-1.809-0.924-2.536-1.074-2.979-3.213c-0.63-3.07,0.356-5.768,3.472-6.668
	c3.551-1.028,5.924,1.304,6.622,4.6"/>
<path fill="#6F4B2D" d="M119.176,153.69c-3.15,0.91-4.583,3.626-3.831,7.269c0.447,2.171,1.266,2.576,2.749,3.316l0.498,0.246
	c0.254,0.13,0.564,0.03,0.693-0.225c0.125-0.253,0.03-0.562-0.225-0.689l-0.509-0.253c-1.421-0.707-1.851-0.92-2.197-2.603
	c-0.302-1.47-0.606-4.996,3.108-6.07c1.342-0.388,2.532-0.275,3.539,0.331c1.194,0.714,2.059,2.092,2.435,3.885
	c0.062,0.275,0.334,0.456,0.614,0.393c0.275-0.054,0.455-0.329,0.397-0.611c-0.439-2.068-1.475-3.684-2.916-4.553
	C122.283,153.382,120.775,153.229,119.176,153.69z"/>
<path fill="#848086" d="M124.685,163.148c4.745-5.506-5.489-9.651-7.507-3.367C115.725,164.322,121.987,166.277,124.685,163.148z"/>
<path fill="#6F4B2D" d="M120.98,156.129c-2.067,0.164-3.63,1.437-4.29,3.492c-0.648,2.018,0.066,3.895,1.854,4.897
	c1.842,1.03,4.758,1.022,6.53-1.033c1.048-1.219,1.366-2.31,1.366-3.188c0-0.684-0.193-1.241-0.385-1.617
	C125.22,157.035,123.085,155.959,120.98,156.129 M119.046,163.62c-0.652-0.365-2.089-1.454-1.375-3.685
	c0.719-2.244,2.435-2.708,3.392-2.781c1.704-0.134,3.422,0.702,4.073,1.992c0.559,1.108,0.271,2.376-0.843,3.668l0,0
	C122.931,164.393,120.554,164.464,119.046,163.62 M125.074,163.486L125.074,163.486L125.074,163.486L125.074,163.486z"/>
<path fill="#A5A0AE" d="M121.912,161.251c1.692-1.02-0.735-2.406-1.42-1.053C119.94,161.276,121.197,161.676,121.912,161.251z"/>
<path fill="#6F4B2D" d="M120.031,159.964c-0.305,0.602-0.238,1.192,0.18,1.584c0.485,0.451,1.345,0.513,1.964,0.145
	c0-0.003,0-0.003,0-0.003c0.898-0.539,0.868-1.192,0.814-1.446c-0.112-0.565-0.668-1.016-1.349-1.107
	C120.955,159.044,120.337,159.363,120.031,159.964 M120.913,160.795c-0.067-0.062-0.055-0.184,0.037-0.363
	c0.134-0.272,0.376-0.301,0.556-0.277c0.263,0.039,0.456,0.198,0.477,0.297c0.004,0.005,0.004,0.005,0.004,0.009
	c0,0.062-0.087,0.197-0.339,0.346C121.402,160.954,121.047,160.921,120.913,160.795z"/>
<path fill="#6B667B" d="M153.21,164.067c-1.813-0.924-2.54-1.074-2.979-3.213c-0.635-3.07,0.356-5.768,3.472-6.668
	c3.551-1.028,5.919,1.304,6.617,4.6"/>
<path fill="#6F4B2D" d="M153.557,153.69c-3.146,0.91-4.579,3.626-3.827,7.269c0.443,2.171,1.262,2.576,2.744,3.316l0.502,0.246
	c0.255,0.13,0.564,0.03,0.693-0.225c0.125-0.253,0.025-0.559-0.23-0.689l-0.505-0.253c-1.425-0.707-1.85-0.92-2.198-2.603
	c-0.304-1.47-0.606-4.996,3.108-6.07c1.337-0.388,2.527-0.275,3.534,0.331c1.194,0.714,2.059,2.092,2.44,3.885
	c0.059,0.275,0.33,0.456,0.611,0.393c0.28-0.054,0.455-0.329,0.396-0.611c-0.438-2.068-1.474-3.684-2.915-4.553
	C156.664,153.382,155.161,153.229,153.557,153.69z"/>
<path fill="#848086" d="M159.067,163.148c4.75-5.506-5.489-9.651-7.503-3.367C150.11,164.322,156.367,166.277,159.067,163.148z"/>
<path fill="#6F4B2D" d="M155.366,156.129c-2.068,0.164-3.631,1.437-4.29,3.492c-0.648,2.018,0.062,3.895,1.855,4.897
	c1.842,1.03,4.754,1.022,6.525-1.033c1.053-1.219,1.37-2.31,1.37-3.188c0-0.684-0.196-1.241-0.388-1.617
	C159.601,157.035,157.471,155.959,155.366,156.129 M153.431,163.62c-0.652-0.365-2.093-1.454-1.38-3.685
	c0.719-2.244,2.435-2.708,3.397-2.781c1.704-0.134,3.417,0.702,4.072,1.992c0.56,1.108,0.267,2.376-0.844,3.668l0,0
	C157.312,164.393,154.939,164.464,153.431,163.62 M159.455,163.486L159.455,163.486L159.455,163.486L159.455,163.486z"/>
<path fill="#A5A0AE" d="M156.293,161.251c1.696-1.02-0.731-2.406-1.421-1.053C154.326,161.276,155.582,161.676,156.293,161.251z"/>
<path fill="#6F4B2D" d="M154.412,159.964c-0.305,0.602-0.238,1.194,0.18,1.584c0.484,0.451,1.349,0.513,1.967,0.145
	c0-0.003,0-0.003,0-0.003c0.894-0.539,0.869-1.192,0.814-1.446c-0.116-0.565-0.668-1.016-1.349-1.107
	C155.34,159.044,154.721,159.363,154.412,159.964 M155.294,160.795c-0.067-0.062-0.054-0.184,0.038-0.363
	c0.138-0.272,0.38-0.301,0.556-0.277c0.267,0.039,0.459,0.198,0.48,0.297c0,0.005,0,0.005,0,0.009c0,0.062-0.088,0.197-0.339,0.346
	C155.787,160.954,155.428,160.921,155.294,160.795z"/>
<path fill="#6B667B" d="M113.715,178.475c-1.809-0.924-2.536-1.074-2.979-3.213c-0.63-3.07,0.356-5.77,3.472-6.668
	c3.551-1.028,5.924,1.307,6.622,4.6"/>
<path fill="#6F4B2D" d="M114.066,168.101c-3.15,0.907-4.583,3.626-3.831,7.264c0.448,2.172,1.262,2.577,2.744,3.313l0.502,0.25
	c0.255,0.13,0.568,0.03,0.693-0.225c0.125-0.255,0.03-0.564-0.225-0.689l-0.514-0.255c-1.416-0.705-1.847-0.918-2.194-2.603
	c-0.305-1.466-0.606-4.996,3.108-6.07c1.34-0.384,2.531-0.275,3.538,0.331c1.191,0.714,2.06,2.092,2.44,3.88
	c0.058,0.28,0.33,0.456,0.61,0.398c0.276-0.059,0.456-0.33,0.398-0.611c-0.439-2.068-1.475-3.684-2.916-4.549
	C117.175,167.79,115.666,167.638,114.066,168.101z"/>
<path fill="#848086" d="M119.572,177.556c4.75-5.501-5.485-9.651-7.503-3.367C110.615,178.731,116.878,180.685,119.572,177.556z"/>
<path fill="#6F4B2D" d="M115.871,170.537c-2.067,0.164-3.631,1.437-4.29,3.492c-0.648,2.018,0.062,3.895,1.855,4.897
	c1.842,1.03,4.759,1.022,6.529-1.033c1.048-1.219,1.366-2.31,1.366-3.188c0-0.684-0.192-1.236-0.384-1.617
	C120.111,171.444,117.976,170.37,115.871,170.537 M113.937,178.028c-0.652-0.363-2.089-1.453-1.375-3.684
	c0.719-2.244,2.43-2.703,3.392-2.781c1.704-0.134,3.417,0.705,4.073,1.997c0.56,1.106,0.267,2.371-0.844,3.664l0,0
	C117.822,178.805,115.444,178.875,113.937,178.028 M119.964,177.894L119.964,177.894L119.964,177.894L119.964,177.894z"/>
<path fill="#A5A0AE" d="M116.803,175.66c1.691-1.02-0.735-2.408-1.421-1.054C114.831,175.689,116.088,176.085,116.803,175.66z"/>
<path fill="#6F4B2D" d="M114.922,174.372c-0.305,0.602-0.238,1.194,0.18,1.584c0.484,0.451,1.345,0.513,1.963,0.141l0,0
	c0.898-0.538,0.87-1.19,0.819-1.445c-0.117-0.56-0.673-1.016-1.353-1.107C115.845,173.453,115.227,173.771,114.922,174.372
	 M115.803,175.204c-0.066-0.063-0.058-0.184,0.038-0.363c0.134-0.272,0.376-0.301,0.556-0.277c0.263,0.039,0.455,0.197,0.476,0.297
	c0,0.005,0,0.005,0,0.009c0,0.062-0.084,0.197-0.338,0.346C116.293,175.363,115.938,175.329,115.803,175.204z"/>
<path fill="#6B667B" d="M153.361,177.509c-1.81-0.919-2.536-1.074-2.978-3.208c-0.631-3.071,0.354-5.768,3.472-6.668
	c3.55-1.028,5.923,1.304,6.621,4.6"/>
<path fill="#6F4B2D" d="M153.712,167.137c-3.15,0.91-4.582,3.626-3.831,7.264c0.447,2.173,1.266,2.582,2.749,3.317l0.498,0.252
	c0.255,0.128,0.568,0.028,0.693-0.225c0.13-0.255,0.03-0.564-0.225-0.689l-0.509-0.255c-1.421-0.711-1.851-0.924-2.198-2.604
	c-0.301-1.469-0.606-5,3.108-6.07c1.341-0.388,2.527-0.275,3.539,0.33c1.191,0.714,2.059,2.093,2.435,3.881
	c0.062,0.281,0.334,0.456,0.614,0.398c0.276-0.059,0.455-0.329,0.397-0.609c-0.438-2.069-1.475-3.685-2.915-4.549
	C156.819,166.828,155.312,166.674,153.712,167.137z"/>
<path fill="#848086" d="M159.221,176.595c4.745-5.506-5.494-9.651-7.507-3.367C150.261,177.769,156.522,179.724,159.221,176.595z"/>
<path fill="#6F4B2D" d="M155.515,169.578c-2.067,0.162-3.63,1.435-4.29,3.492c-0.648,2.017,0.062,3.893,1.854,4.895
	c1.843,1.033,4.759,1.019,6.53-1.037l0,0c1.871-2.168,1.416-3.939,0.982-4.799C159.755,170.479,157.621,169.406,155.515,169.578
	 M153.581,177.068c-0.652-0.368-2.089-1.454-1.375-3.685c0.719-2.242,2.431-2.706,3.393-2.781c1.704-0.138,3.417,0.701,4.072,1.992
	c0.56,1.108,0.272,2.378-0.844,3.668l0,0C157.467,177.841,155.09,177.912,153.581,177.068z"/>
<path fill="#A5A0AE" d="M156.447,174.694c1.692-1.018-0.734-2.401-1.42-1.048C154.476,174.724,155.733,175.125,156.447,174.694z"/>
<path fill="#6F4B2D" d="M154.567,173.412c-0.305,0.602-0.242,1.192,0.175,1.584c0.484,0.451,1.35,0.513,1.968,0.142l0,0
	c0.898-0.539,0.869-1.192,0.814-1.447c-0.112-0.559-0.668-1.018-1.345-1.106C155.49,172.492,154.872,172.811,154.567,173.412
	 M155.449,174.243c-0.067-0.062-0.054-0.187,0.038-0.363c0.134-0.272,0.375-0.301,0.556-0.275c0.263,0.037,0.455,0.197,0.476,0.295
	c0,0,0.004,0.004,0.004,0.009c0,0.062-0.087,0.192-0.342,0.346C155.938,174.402,155.582,174.368,155.449,174.243z"/>
<path fill="#A5A0AE" d="M97.807,166.23c0.364-2.624,3.872-5.798,5.239-8.228c1.55-2.749,2.005-3.551,5.568-3.799
	c5.443-0.368,11.142-0.601,16.602-0.005c3.003,0.331,6.041,0.248,9.082,0.248c4.946,0,9.738-0.314,14.655,0.005
	c2.635,0.166,5.15,0.241,7.815,0.238c0.986,0,5.941,0.677,6.63-0.051c1.174-1.231-5.969-7.795-6.822-9.332
	c3.158-2.013,4.98,1.437,6.692,3.843c1.621,2.286,3.175,4.324,4.002,6.923c-2.469,1.683-8.163,1.119-11.263,0.964
	c-3.417-0.166-6.959-0.456-10.365-0.372c-1.286,0.034-2.719,0.189-4.077,0.189c-2.849,0-5.718,0.112-8.468-0.008
	c-2.468-0.105-4.708-0.117-7.148,0.008c-4.122,0.213-8.292-0.284-12.386-0.096c-2.472,0.113-5.113-0.569-7.056,1.245
	c-2.185,2.046-4.298,5.543-5.577,8.228"/>
<path fill="#6F4B2D" d="M156.301,144.871c-0.23,0.147-0.305,0.447-0.171,0.684c0.309,0.56,1.249,1.584,2.44,2.884
	c1.517,1.658,4.67,5.104,4.445,5.869c-0.459,0.334-3.654,0.062-4.859-0.039l-1.387-0.096c-2.712,0.005-5.184-0.071-7.783-0.238
	c-3.296-0.213-6.592-0.142-9.779-0.075l-4.909,0.07l-1.521,0.005c-2.473,0.012-5.034,0.025-7.503-0.246
	c-5.581-0.615-11.321-0.36-16.697,0.002c-3.84,0.26-4.42,1.292-5.974,4.049c-0.48,0.851-1.241,1.807-2.047,2.823
	c-1.479,1.859-3.008,3.785-3.258,5.594c-0.038,0.28,0.158,0.539,0.438,0.581c0.284,0.037,0.543-0.159,0.581-0.439
	c0.213-1.533,1.654-3.343,3.045-5.096c0.831-1.044,1.617-2.035,2.135-2.953c1.546-2.741,1.867-3.308,5.151-3.531
	c5.326-0.363,11.012-0.613,16.513-0.012c2.532,0.28,5.118,0.267,7.62,0.26l1.517-0.007l4.93-0.068
	c3.167-0.071,6.441-0.138,9.697,0.068c2.615,0.17,5.113,0.245,7.845,0.241l1.299,0.093c3.326,0.28,5.122,0.314,5.706-0.302
	c0.184-0.192,0.272-0.43,0.272-0.709c0-1.275-1.876-3.435-4.721-6.538c-0.789-0.866-1.55-1.692-1.985-2.244
	c1.947-0.898,3.254,0.664,4.95,3.141l0.56,0.807l0.417,0.584c1.341,1.88,2.59,3.676,3.35,5.782
	c-2.189,1.173-6.517,0.944-9.457,0.773l-3.585-0.202c-2.624-0.15-5.331-0.304-7.946-0.238l-1.75,0.088l-2.315,0.1l-2.803,0.025
	c-1.872,0.025-3.806,0.049-5.644-0.03c-2.653-0.118-4.876-0.118-7.193,0.004c-2.085,0.108-4.223,0.029-6.291-0.041
	c-2.001-0.076-4.069-0.147-6.091-0.056l-1.771-0.012c-1.959-0.062-3.986-0.125-5.615,1.395c-2.264,2.123-4.423,5.724-5.69,8.385
	c-0.121,0.255-0.012,0.564,0.243,0.684c0.259,0.122,0.564,0.012,0.685-0.243c1.228-2.577,3.303-6.053,5.464-8.074
	c1.32-1.233,3.049-1.18,4.88-1.121l1.85,0.012c1.98-0.091,4.031-0.016,6.011,0.056c2.089,0.074,4.249,0.15,6.375,0.042
	c2.289-0.118,4.478-0.122,7.101-0.009c1.863,0.083,3.814,0.059,5.699,0.034l2.79-0.025l2.381-0.1l1.709-0.089
	c2.573-0.063,5.259,0.091,7.862,0.239l3.585,0.196c3.426,0.202,8.117,0.476,10.461-1.116c0.189-0.128,0.267-0.368,0.201-0.584
	c-0.786-2.448-2.18-4.403-3.659-6.475l-0.418-0.585l-0.547-0.789C161.624,145.844,159.543,142.803,156.301,144.871z"/>
<path fill="#A5A0AE" d="M158.365,142.569c-1.835,2.624-6.132,8.773-4.629,12.078c0.798,1.754,1.906,3.576,2.766,5.418
	c1.379,2.95,2.018,7.414,4.508,9.633c0.986-0.351,1.55-1.29,2.473-1.812c-1.809-4.897-5.928-9.447-6.801-14.739
	c-0.564-3.413,3.622-8.547,5.051-11.78"/>
<path fill="#6F4B2D" d="M161.26,141.158c-0.422,0.957-1.107,2.105-1.83,3.324c-1.563,2.633-3.317,5.577-3.317,8.014
	c0,0.25,0.02,0.496,0.058,0.734c0.534,3.237,2.244,6.192,3.894,9.05c1.069,1.849,2.06,3.613,2.774,5.43
	c-0.275,0.201-0.53,0.414-0.768,0.63c-0.31,0.284-0.614,0.527-0.944,0.711c-1.421-1.433-2.202-3.701-2.941-5.932
	c-0.388-1.173-0.761-2.289-1.219-3.272l-1.375-2.69l-1.387-2.718c-0.184-0.409-0.267-0.873-0.267-1.38
	c0-3.25,3.43-8.167,4.841-10.183c0.062-0.093,0.092-0.193,0.092-0.293c0-0.162-0.075-0.325-0.222-0.422
	c-0.23-0.162-0.551-0.108-0.714,0.126c-2.043,2.924-6.292,9.006-4.666,12.575l1.412,2.782l1.353,2.641
	c0.434,0.93,0.794,2.013,1.174,3.162c0.823,2.482,1.671,5.047,3.459,6.638c0.138,0.125,0.334,0.162,0.514,0.1
	c0.656-0.235,1.128-0.664,1.588-1.083c0.316-0.292,0.618-0.567,0.969-0.764c0.217-0.125,0.318-0.393,0.23-0.632
	c-0.752-2.026-1.901-4.017-3.012-5.944c-1.604-2.774-3.263-5.645-3.768-8.699c-0.359-2.189,1.491-5.305,3.129-8.055
	c0.739-1.244,1.437-2.423,1.884-3.438c0.117-0.258-0.004-0.564-0.262-0.677C161.678,140.781,161.373,140.898,161.26,141.158z"/>
<path fill="#A5A0AE" d="M97.565,166.469c-0.703,3.598,12.992,2.374,15.206,2.644c14.608,1.804,29.54,0.059,44.182,0.723
	c1.475,0.066,7.992,0.108,6.505-2.877c-0.786-1.576-4.646-0.424-6.012-0.343c-3.125,0.184-6.232,0.815-9.387,0.815
	c-4.136,0-8.167-0.239-12.261-0.239c-9.374,0-18.619,0.398-27.94-0.723c-2.131-0.255-4.663,0.686-6.684-0.239"/>
<path fill="#6F4B2D" d="M158.615,165.929l-1.198,0.171l-3.911,0.384c-1.784,0.213-3.631,0.43-5.448,0.43l-12.261-0.241l-5.857,0.037
	c-7.219,0.063-14.68,0.13-22.02-0.753c-0.885-0.103-1.826-0.02-2.732,0.063c-1.383,0.125-2.69,0.246-3.801-0.26
	c-0.259-0.12-0.564-0.002-0.68,0.255c-0.117,0.255-0.005,0.564,0.254,0.681c1.357,0.618,2.866,0.481,4.324,0.346
	c0.89-0.079,1.734-0.157,2.511-0.062c7.411,0.89,14.905,0.822,22.153,0.756l5.849-0.034l12.261,0.239
	c1.88,0,3.752-0.222,5.569-0.435l3.852-0.38l1.307-0.184c1.407-0.239,3.772-0.635,4.211,0.243c0.262,0.532,0.154,0.803,0.054,0.961
	c-0.63,0.965-3.593,1.287-6.078,1.175c-5.932-0.267-12.006-0.142-17.884-0.017c-8.647,0.18-17.587,0.367-26.256-0.702
	c-0.534-0.068-1.571-0.051-3.008-0.034c-3.605,0.049-10.314,0.138-11.601-1.4c-0.151-0.184-0.201-0.366-0.155-0.601
	c0.054-0.28-0.125-0.552-0.406-0.606c-0.28-0.054-0.547,0.13-0.601,0.405c-0.109,0.539,0.021,1.04,0.372,1.459
	c1.475,1.771,6.935,1.846,12.403,1.776c1.29-0.021,2.406-0.034,2.87,0.02c8.74,1.082,17.721,0.895,26.407,0.711
	c5.857-0.122,11.915-0.25,17.813,0.017c1.349,0.061,5.841,0.121,6.985-1.643c0.255-0.393,0.463-1.053,0.004-1.975
	C163.14,165.168,160.524,165.608,158.615,165.929z"/>
<path fill="#A5A0AE" d="M114.843,142.085c-2.139,2.715-4.75,6.988-3.417,10.284c1.216,3.004,2.703,5.883,4.127,8.79
	c1.345,2.749,1.057,5.599,4.445,5.197c0.756-0.091-1.58-4.817-1.721-5.042c-1.328-2.076-1.771-4.42-2.644-6.725
	c-0.727-1.922-1.734-3.755-1.091-5.827c0.719-2.29,3.071-4.066,4.149-6.192"/>
<path fill="#6F4B2D" d="M114.438,141.766c-2.368,3.008-4.895,7.32-3.488,10.796c0.981,2.43,2.16,4.808,3.296,7.11l0.843,1.712
	c0.334,0.681,0.559,1.371,0.784,2.038c0.648,1.952,1.258,3.79,4.181,3.444c0.234-0.03,0.422-0.167,0.522-0.38
	c0.484-1.023-1.842-5.405-1.867-5.447c-0.877-1.371-1.353-2.862-1.854-4.441l-0.744-2.193l-0.351-0.88
	c-0.626-1.56-1.22-3.029-0.727-4.608c0.376-1.208,1.253-2.268,2.176-3.389c0.711-0.864,1.446-1.758,1.939-2.727
	c0.13-0.251,0.025-0.564-0.225-0.689c-0.255-0.13-0.564-0.03-0.693,0.225c-0.439,0.868-1.107,1.68-1.813,2.536
	c-0.948,1.148-1.93,2.34-2.364,3.735c-0.163,0.523-0.23,1.028-0.23,1.524c0,1.329,0.497,2.57,0.986,3.776l0.342,0.866l0.722,2.139
	c0.502,1.57,1.019,3.2,1.968,4.682c0.309,0.523,1.607,3.335,1.762,4.27c-1.712,0.1-2.106-0.81-2.757-2.765
	c-0.221-0.665-0.472-1.421-0.835-2.165l-0.843-1.716c-1.128-2.285-2.298-4.645-3.263-7.039c-1.291-3.179,1.542-7.485,3.342-9.775
	c0.175-0.221,0.139-0.543-0.087-0.722C114.939,141.504,114.618,141.541,114.438,141.766z"/>
<path fill="#A5A0AE" d="M158.879,105.677c-0.769,1.291-0.593,3.213-0.836,4.687c-0.388,2.365-0.898,4.721-1.224,7.09
	c-0.464,3.387-0.931,6.725-1.612,10.083c-1.065,5.218-1.687,11.288-3.504,16.163c0.781-0.093,1.68,0.155,2.306,0.539
	c1.165-2.49,1.453-5.986,2.235-8.728c0.92-3.24,1.203-6.546,1.921-9.783c0.648-2.903,1.279-5.878,1.989-8.731
	c0.455-1.854,1.082-6.328,2.326-7.461"/>
<path fill="#6F4B2D" d="M158.436,105.414c-0.589,0.994-0.677,2.235-0.761,3.434l-0.142,1.437l-0.493,2.774l-0.73,4.324
	c-0.51,3.726-0.953,6.83-1.609,10.056l-0.868,4.795c-0.661,3.882-1.345,7.892-2.616,11.288c-0.062,0.167-0.033,0.356,0.08,0.496
	c0.108,0.142,0.289,0.213,0.463,0.193c0.618-0.076,1.395,0.113,1.98,0.471c0.125,0.076,0.275,0.093,0.417,0.054
	c0.139-0.044,0.255-0.145,0.318-0.275c0.757-1.621,1.153-3.626,1.533-5.559l0.727-3.247c0.552-1.943,0.882-3.922,1.199-5.84
	l0.731-3.973l0.443-1.993l1.541-6.73l0.339-1.558c0.393-1.943,0.99-4.875,1.838-5.644c0.209-0.192,0.225-0.518,0.034-0.727
	c-0.192-0.213-0.518-0.225-0.726-0.033c-1.012,0.919-1.576,3.35-2.156,6.195l-0.326,1.521l-1.55,6.755l-0.439,1.992l-0.743,4.027
	c-0.313,1.889-0.639,3.839-1.174,5.723l-0.748,3.33c-0.334,1.697-0.689,3.431-1.275,4.863c-0.43-0.184-0.873-0.306-1.328-0.348
	c1.153-3.333,1.821-7.122,2.452-10.811l0.861-4.762c0.66-3.254,1.107-6.375,1.621-10.118l0.722-4.278l0.498-2.795l0.155-1.533
	c0.075-1.083,0.154-2.198,0.618-2.979c0.045-0.084,0.071-0.175,0.071-0.263c0-0.175-0.089-0.347-0.251-0.443
	C158.895,105.088,158.582,105.172,158.436,105.414 M151.702,143.187c-0.02,0-0.042,0-0.062,0
	C151.66,143.187,151.68,143.187,151.702,143.187z"/>
<path fill="#A5A0AE" d="M123.373,105.935c0,6.355,2.043,12.868,1.709,19.155c-0.314,5.823,0.472,11.717,0.129,17.588
	c0.894,0.371,1.93,0.309,2.749,0.525c0.509-6.8,0.046-13.501,0.046-20.29c0-3.28-0.03-6.513-0.259-9.768
	c-0.138-1.938-1.124-5.655-0.255-7.21"/>
<path fill="#6F4B2D" d="M127.041,105.682c-0.309,0.555-0.417,1.298-0.417,2.13c0,1.095,0.188,2.335,0.363,3.493l0.247,1.876
	c0.238,3.341,0.259,6.641,0.259,9.733l0.097,6.58c0.046,2.139,0.096,4.314,0.096,6.504c0,2.198-0.059,4.408-0.209,6.609
	c-0.267-0.047-0.543-0.089-0.543-0.089c-0.406-0.051-0.811-0.113-1.195-0.225c0.047-0.957,0.08-1.918,0.08-2.882
	c0-1.915-0.075-3.823-0.15-5.694c-0.071-1.852-0.147-3.748-0.147-5.632c0-0.994,0.021-1.989,0.075-2.971
	c0.025-0.48,0.037-0.965,0.037-1.446c0-2.97-0.447-5.991-0.877-8.927c-0.426-2.903-0.869-5.907-0.869-8.807
	c0-0.284-0.23-0.517-0.514-0.517c-0.284,0-0.514,0.234-0.514,0.517c0,2.975,0.448,6.017,0.878,8.957
	c0.497,3.363,1.007,6.844,0.831,10.169c-0.154,2.894-0.042,5.845,0.07,8.693c0.113,2.925,0.23,5.94,0.059,8.895
	c-0.009,0.216,0.117,0.422,0.317,0.506c0.598,0.245,1.237,0.321,1.8,0.384l1.012,0.161c0.142,0.025,0.313-0.007,0.425-0.096
	c0.113-0.093,0.209-0.218,0.222-0.36c0.347-4.628,0.242-9.278,0.142-13.777l-0.097-6.555c0-3.113-0.021-6.429-0.259-9.804
	l-0.255-1.963c-0.271-1.776-0.61-3.986-0.066-4.959c0.138-0.252,0.051-0.564-0.201-0.703
	C127.493,105.347,127.179,105.434,127.041,105.682 M125.73,142.678c0,0,0,0.02-0.005,0.03
	C125.73,142.698,125.725,142.69,125.73,142.678z"/>
<path fill="#A5A0AE" d="M143.443,106.191c-0.03,8.392-0.271,16.802-0.259,25.211c0.008,4.137-0.735,8.164-0.477,12.311
	c0.732,0.066,1.513,0.066,2.239,0c1.558-6.492,1.852-13.803,1.838-20.537c-0.004-3.2,0.623-6.162,0.773-9.253
	c0.138-2.77,0.004-5.514,1.028-7.988"/>
<path fill="#6F4B2D" d="M148.114,105.736c-0.873,2.101-0.944,4.399-1.012,6.621l-0.058,1.538l-0.364,3.885
	c-0.2,1.73-0.41,3.513-0.41,5.368c0,0.008,0,0.247,0,0.354c0,5.774-0.23,13.126-1.754,19.719c-0.435,0.025-0.873,0.025-1.308,0
	c-0.02-0.447-0.042-0.898-0.042-1.349c0-1.739,0.134-3.476,0.263-5.163c0.134-1.714,0.267-3.485,0.267-5.255
	c0-0.017,0.13-13.787,0.13-13.787s0.13-11.475,0.13-11.479c0-0.28-0.225-0.505-0.51-0.51c-0.284-0.004-0.517,0.23-0.517,0.514
	l-0.13,11.463l-0.129,13.748c0.004,1.751-0.134,3.514-0.263,5.227c-0.18,2.315-0.363,4.709-0.213,7.119
	c0.017,0.255,0.213,0.454,0.468,0.481c0.764,0.071,1.571,0.071,2.335,0c0.218-0.022,0.401-0.181,0.452-0.394
	c1.659-6.914,1.859-14.671,1.85-20.657c0-1.805,0.205-3.572,0.406-5.281l0.368-3.952l0.058-1.553
	c0.067-2.227,0.134-4.332,0.932-6.259c0.109-0.263-0.017-0.564-0.275-0.672C148.523,105.351,148.221,105.473,148.114,105.736z"/>
<path fill="#A5A0AE" d="M107.937,105.935c0.38,1.998,0.665,3.94,1.225,5.924c1.061,3.772,2.08,7.319,2.908,11.108
	c0.539,2.47,1.019,4.947,1.592,7.407c0.919,3.926,3.058,9.115,2.727,13.08c-0.903,0.058-1.847,0.058-2.753,0.004
	c-0.234-3.73-2.16-7.669-3.075-11.299c-0.856-3.397-1.471-6.805-2.302-10.211c-0.828-3.396-1.592-6.746-2.435-10.088
	c-0.435-1.721-1.216-3.413-1.487-5.154"/>
<path fill="#6F4B2D" d="M107.846,105.426c-0.251,0.046-0.423,0.267-0.423,0.509c0,0.03,0.005,0.063,0.008,0.093l0.263,1.442
	c0.267,1.479,0.539,3.003,0.969,4.527l0.225,0.794c0.982,3.484,1.909,6.78,2.678,10.285l0.593,2.82l0.998,4.595l1.015,3.664
	c0.818,2.77,1.733,5.874,1.733,8.46c0,0.117-0.007,0.23-0.012,0.343c-0.601,0.025-1.203,0.025-1.804,0
	c-0.225-2.315-1.012-4.679-1.796-6.968c-0.468-1.376-0.911-2.678-1.237-3.956l-1.216-5.377l-1.082-4.83l-0.986-4.114l-1.454-5.983
	l-0.648-2.11c-0.334-0.982-0.672-2.001-0.827-2.995c-0.047-0.28-0.31-0.472-0.589-0.43c-0.28,0.046-0.472,0.309-0.43,0.589
	c0.167,1.082,0.527,2.139,0.87,3.167l0.626,2.035l1.449,5.965l0.986,4.119l1.078,4.799l1.228,5.414
	c0.33,1.324,0.803,2.703,1.258,4.04c0.814,2.376,1.654,4.841,1.8,7.164c0.017,0.26,0.222,0.468,0.48,0.485
	c0.927,0.059,1.901,0.059,2.821-0.005c0.254-0.017,0.459-0.218,0.48-0.471c0.243-2.921-0.811-6.484-1.741-9.63l-0.999-3.608
	l-0.99-4.575l-0.601-2.824c-0.773-3.539-1.704-6.847-2.69-10.347l-0.225-0.794c-0.414-1.474-0.673-2.908-0.944-4.428l-0.267-1.453
	C108.393,105.556,108.126,105.376,107.846,105.426z"/>
<path fill="#A5A0AE" d="M170.363,117.5c-0.23,0.568-3.714,8.267-3.81,8.226c-0.643-0.293-1.019-0.38-1.717-0.535
	c0.276-4.918,2.836-9.938,4.678-14.405c1.671-4.035,4.599-6.487,8.605-8.108c1.407-0.572,4.725-1.433,3.075,1.262
	c-0.902,1.466-3.605,1.943-4.937,2.945c-1.534,1.149-2.816,2.46-3.672,4.262C171.608,113.196,171.198,115.406,170.363,117.5z"/>
<path fill="#6F4B2D" d="M177.928,102.201c-4.44,1.796-7.264,4.461-8.886,8.388l-1.015,2.381c-1.63,3.768-3.472,8.042-3.706,12.19
	c-0.012,0.255,0.154,0.481,0.401,0.534c0.689,0.151,1.019,0.225,1.617,0.497c0.13,0.059,0.276,0.059,0.406,0.008
	c0.572-0.23,4.06-8.431,4.094-8.51l0.935-2.782c0.359-1.183,0.731-2.407,1.274-3.543c0.735-1.542,1.817-2.794,3.517-4.073
	c0.463-0.351,1.149-0.643,1.871-0.952c1.257-0.539,2.556-1.094,3.195-2.135c0.155-0.25,0.526-0.861,0.526-1.454
	c0-0.254-0.066-0.509-0.254-0.73C181.066,101.031,178.647,101.909,177.928,102.201 M168.971,113.381l1.02-2.398
	c1.512-3.655,4.156-6.141,8.321-7.829c1.433-0.58,2.636-0.664,2.808-0.463c0,0,0.008,0.021,0.008,0.071
	c0,0.113-0.05,0.38-0.371,0.907c-0.468,0.76-1.617,1.253-2.724,1.729c-0.781,0.334-1.521,0.652-2.085,1.073
	c-1.813,1.362-3.029,2.778-3.827,4.454c-0.576,1.207-0.961,2.465-1.333,3.685l-0.903,2.698c0-0.004,0-0.004,0-0.004
	s0,0.004-0.004,0.004c-0.238,0.598-2.87,6.379-3.567,7.779c-0.293-0.113-0.606-0.209-0.907-0.284
	C165.721,120.971,167.358,117.115,168.971,113.381 M169.886,117.307L169.886,117.307L169.886,117.307L169.886,117.307
	 M170.839,117.687c0,0.005,0,0.005,0,0.005S170.844,117.683,170.839,117.687z"/>
<path fill="#A5A0AE" d="M112.233,119.697c-0.289,4.7,1.495,10.297,2.155,15.006c0.477,3.392,1.55,6.772,2.226,10.038
	c0.798,0.159,1.989,0.159,2.786,0c-0.989-4.441-1.525-8.92-2.134-13.531c-0.569-4.295-2.181-8.059-1.788-12.529"/>
<path fill="#6F4B2D" d="M114.965,118.636c-0.043,0.484-0.058,0.965-0.058,1.437c0,2.43,0.509,4.69,1.011,6.884
	c0.318,1.399,0.643,2.84,0.84,4.319l0.197,1.501c0.518,3.964,1.028,7.719,1.838,11.505c-0.58,0.058-1.203,0.058-1.758-0.017
	c-0.146-0.611-0.811-3.422-0.811-3.422c-0.505-2.035-1.031-4.14-1.324-6.213c-0.221-1.58-0.56-3.217-0.919-4.95
	c-0.623-3.012-1.262-6.113-1.262-8.924c0-0.347,0.009-0.693,0.03-1.028c0-0.012,0-0.025,0-0.034c0-0.271-0.209-0.497-0.48-0.513
	c-0.284-0.017-0.526,0.201-0.547,0.484c-0.198,3.208,0.539,6.772,1.253,10.223c0.355,1.717,0.689,3.338,0.907,4.883
	c0.301,2.131,0.831,4.258,1.349,6.321l0.882,3.752c0.05,0.197,0.209,0.364,0.405,0.401c0.87,0.171,2.126,0.171,2.987,0
	c0.139-0.03,0.255-0.108,0.33-0.225c0.075-0.116,0.1-0.258,0.071-0.393c-0.877-3.935-1.387-7.846-1.93-11.985l-0.196-1.499
	c-0.2-1.53-0.534-2.996-0.857-4.412c-0.606-2.666-1.174-5.18-0.927-8.009c0.025-0.28-0.184-0.53-0.468-0.556
	C115.239,118.143,114.993,118.351,114.965,118.636z"/>
<path fill="#A5A0AE" d="M127.384,119.037c0.05,3.977,0.062,10.31,0.339,15.123c0.167,2.86-0.088,7.444,1.165,9.997
	c0.439,0.049,1.612-0.134,2.047-0.348c0.301-4.478,0.055-9.082,0.055-13.58c0-3.836-0.853-8.269-0.359-11.89"/>
<path fill="#6F4B2D" d="M130.117,118.268c-0.113,0.835-0.155,1.712-0.155,2.611c0,1.558,0.129,3.18,0.259,4.767
	c0.125,1.533,0.25,3.125,0.25,4.583l0.05,4.214c0.02,1.392,0.047,2.808,0.047,4.223c0,1.601-0.042,3.2-0.138,4.775
	c-0.347,0.098-0.827,0.176-1.178,0.197c-0.807-1.891-0.89-4.874-0.944-7.319l-0.071-2.193c-0.221-3.882-0.272-8.71-0.314-12.591
	l-0.025-2.503c-0.005-0.284-0.238-0.509-0.522-0.509c-0.284,0.004-0.51,0.238-0.51,0.522l0.03,2.499
	c0.042,3.894,0.092,8.734,0.314,12.644l0.071,2.156c0.058,2.795,0.125,5.967,1.144,8.038c0.08,0.157,0.23,0.267,0.405,0.283
	c0.514,0.063,1.784-0.128,2.331-0.396c0.163-0.08,0.276-0.243,0.289-0.426c0.209-3.112,0.155-6.317,0.1-9.415l-0.045-4.199
	c0-1.501-0.13-3.108-0.26-4.667c-0.197-2.453-0.401-4.984-0.104-7.152c0.038-0.284-0.158-0.543-0.443-0.581
	C130.417,117.792,130.158,117.988,130.117,118.268z"/>
<path fill="#A5A0AE" d="M141.087,118.339c-0.464,8.346-1.596,17.278-1.028,25.721c0.726,0.147,1.429,0.005,2.047-0.342
	c1.412-3.831,0.764-8.795,1.496-12.83c0.826-4.575,1.453-8.756,1.453-13.565"/>
<path fill="#6F4B2D" d="M144.541,117.323c0,4.562-0.556,8.539-1.445,13.472c-0.301,1.659-0.371,3.485-0.443,5.255
	c-0.104,2.506-0.221,5.089-0.965,7.261c-0.368,0.18-0.743,0.295-1.128,0.283c-0.092-1.475-0.141-2.958-0.141-4.462
	c0-4.586,0.354-9.27,0.702-13.835l0.48-6.93c0-0.013,0.004-0.026,0.004-0.039c0-0.267-0.208-0.484-0.48-0.505
	c-0.284-0.02-0.53,0.2-0.551,0.484l-0.477,6.914c-0.476,6.236-0.965,12.687-0.551,18.874c0.016,0.229,0.184,0.422,0.413,0.468
	c0.819,0.162,1.65,0.025,2.403-0.402c0.104-0.063,0.188-0.155,0.23-0.272c0.87-2.364,0.982-5.129,1.09-7.804
	c0.071-1.812,0.139-3.52,0.426-5.109c0.903-4.991,1.462-9.015,1.462-13.657c0-0.284-0.23-0.517-0.514-0.517
	C144.771,116.806,144.541,117.039,144.541,117.323z"/>
<path fill="#A5A0AE" d="M156.234,116.982c-1.566,5.744-2.932,11.555-4.307,17.316c-0.844,3.542-1.162,7.101-2.13,10.436
	c0.756,0.284,1.742,0.566,2.49,0.608c0.89-4.837,2.218-9.653,3.505-14.47c0.593-2.206,1.207-4.512,1.805-6.768
	c0.526-1.976,1.726-4.436,1.884-6.441"/>
<path fill="#6F4B2D" d="M155.737,116.848c-1.446,5.293-2.732,10.711-3.981,15.949l-0.33,1.384c-0.371,1.55-0.639,3.12-0.903,4.632
	c-0.351,2.013-0.68,3.919-1.219,5.773c-0.075,0.259,0.058,0.534,0.313,0.627c0.36,0.138,1.609,0.584,2.64,0.643
	c0.259,0.017,0.489-0.164,0.534-0.417c0.823-4.463,2.039-8.996,3.213-13.374l0.284-1.062l1.808-6.767l0.743-2.268
	c0.514-1.437,1.044-2.924,1.153-4.269c0.02-0.28-0.188-0.53-0.472-0.552c-0.284-0.021-0.53,0.188-0.556,0.471
	c-0.096,1.207-0.601,2.628-1.094,4.003l-0.773,2.352l-1.805,6.763l-0.284,1.062c-1.135,4.236-2.297,8.614-3.121,12.954
	c-0.497-0.074-1.003-0.203-1.483-0.363c0.48-1.771,0.819-3.609,1.132-5.4c0.259-1.501,0.527-3.05,0.89-4.571l0.33-1.383
	c1.245-5.23,2.532-10.639,3.973-15.917c0.012-0.045,0.016-0.092,0.016-0.138c0-0.225-0.15-0.43-0.375-0.493
	C156.096,116.413,155.813,116.573,155.737,116.848z"/>
<path fill="#A5A0AE" d="M154.798,105.836c1.103-3.714,1.157-7.837,2.594-11.426c0.56-1.407,1.312-2.894,2.749-3.672
	c0.986-0.534,3.655-1.416,4.098,0.188c0.321,1.166-1.951,1.687-2.774,2.516c-1.094,1.098-1.484,2.381-1.859,3.78
	c-0.769,2.858-1.216,5.995-1.921,8.848"/>
<path fill="#6F4B2D" d="M159.894,90.287c-1.588,0.861-2.399,2.468-2.983,3.931c-0.835,2.092-1.216,4.369-1.584,6.575
	c-0.275,1.634-0.556,3.325-1.023,4.896c-0.08,0.272,0.075,0.56,0.346,0.639c0.272,0.083,0.561-0.076,0.64-0.348
	c0.484-1.634,0.772-3.355,1.053-5.018c0.359-2.151,0.727-4.374,1.525-6.362c0.514-1.291,1.216-2.708,2.515-3.408
	c0.798-0.434,2.273-0.87,2.983-0.568c0.2,0.083,0.317,0.221,0.375,0.438c0.097,0.339-0.509,0.698-1.312,1.136
	c-0.489,0.263-0.99,0.539-1.329,0.878c-1.157,1.165-1.587,2.506-1.993,4.009c-0.422,1.571-0.748,3.234-1.07,4.846l-0.856,4.01
	c-0.059,0.28,0.113,0.568,0.393,0.631c0.275,0.058,0.547-0.105,0.606-0.38l0.869-4.061c0.313-1.595,0.643-3.241,1.053-4.779
	c0.38-1.407,0.748-2.565,1.726-3.55c0.234-0.234,0.672-0.473,1.094-0.702c0.948-0.514,2.13-1.162,1.812-2.314
	c-0.146-0.518-0.48-0.903-0.969-1.112C162.497,89.138,160.542,89.936,159.894,90.287z"/>
<path fill="#A5A0AE" d="M94.561,103.642c-0.304,9.375,4.202,19.083,6.049,28.14c0.869,4.249,0.944,14.413,6.124,15.59
	c3.944,0.895,1.178-2.281-0.171-4.157c-1.843-2.561-2.001-5.229-2.607-8.216c-1.112-5.506-2.482-11.367-3.605-16.949
	c-0.339-1.676-1.229-3.258-1.542-4.955c-0.321-1.733-0.342-3.788-1.003-5.489"/>
<path fill="#6F4B2D" d="M94.047,103.626c-0.205,6.238,1.696,12.616,3.531,18.783c0.977,3.284,1.901,6.387,2.531,9.479l0.463,3.1
	c0.656,5.004,1.55,11.868,6.049,12.888c0.844,0.192,2.026,0.363,2.494-0.36c0.602-0.923-0.497-2.399-1.663-3.956l-0.472-0.643
	c-1.433-1.989-1.796-4.024-2.213-6.376l-0.305-1.641l-1.776-8.339l-1.83-8.614c-0.171-0.852-0.48-1.68-0.781-2.482
	c-0.313-0.839-0.61-1.633-0.76-2.461l-0.247-1.767c-0.158-1.287-0.317-2.62-0.781-3.813c-0.104-0.267-0.401-0.398-0.665-0.292
	c-0.205,0.075-0.33,0.271-0.33,0.475c0,0.062,0.012,0.125,0.033,0.188c0.418,1.074,0.572,2.34,0.719,3.563l0.26,1.835
	c0.167,0.915,0.493,1.788,0.811,2.635c0.296,0.794,0.576,1.55,0.731,2.323l1.834,8.627l1.772,8.325l0.301,1.618
	c0.425,2.376,0.823,4.616,2.394,6.796l0.481,0.655c0.505,0.669,1.637,2.194,1.637,2.704c0,0.033-0.004,0.057-0.012,0.084
	c-0.004-0.005-0.247,0.175-1.403-0.089c-3.797-0.861-4.636-7.311-5.251-12.02l-0.48-3.174c-0.639-3.134-1.612-6.4-2.552-9.562
	c-1.813-6.087-3.685-12.383-3.489-18.457c0.008-0.284-0.212-0.523-0.497-0.535C94.294,103.117,94.055,103.341,94.047,103.626z"/>
<path fill="#A5A0AE" d="M108.994,137.986c-0.564-4.412-0.973-8.844-1.604-13.244c-0.217-1.516-0.138-4.787-1.094-6.007
	c-0.48-0.61-3.756-1.103-3.726-0.931c0.998,6.317,2.711,12.521,3.534,18.937c0.418,3.279,0.104,7.065,1.132,10.127
	c13.565,0.272,27.517,0.414,41.433,0.414c3.003,0,6.007-0.005,9.007,0c4.407,0.007,4.331-1.366,5.331-5.41
	c1.458-5.903,3.145-11.777,4.975-17.575c0.393-1.241,2.694-5.059,2.089-6.325c-1.177-2.46-3.755-0.033-4.373,1.303
	c-1.266,2.744-1.638,5.958-2.226,8.894c-1.078,5.356-3.145,10.92-4.404,16.175c-2.945,0.798-6.199,0.414-9.324,0.414
	c-3.058,0-6.057,0.007-9.015-0.363c-6.124-0.765-12.541,0.033-18.757-0.439c-3.067-0.235-5.573-0.693-8.656-0.639
	c-1.194,0.017-3.046,0.716-3.894-0.074C108.777,142.639,109.124,138.968,108.994,137.986z"/>
<path fill="#6F4B2D" d="M168.654,116.4c-1.416,0.009-2.925,1.58-3.426,2.661c-1.019,2.206-1.466,4.679-1.901,7.073l-0.363,1.93
	c-0.602,3.003-1.534,6.116-2.435,9.133c-0.661,2.214-1.338,4.495-1.876,6.7c-2.076,0.505-4.357,0.459-6.575,0.393l-2.335-0.046
	h-0.175c-3.036,0-5.907,0-8.777-0.359c-3.413-0.426-6.96-0.372-10.39-0.318c-2.769,0.041-5.627,0.088-8.388-0.125l-2.916-0.28
	c-1.905-0.204-3.706-0.398-5.791-0.363l-1.287,0.15c-0.865,0.142-1.838,0.297-2.248-0.084c-0.205-0.255-0.243-1.482-0.243-2.48
	c0-0.318,0.005-0.611,0.008-0.845l-0.03-1.619l-0.643-5.445l-0.965-7.808l-0.13-1.445c-0.121-1.684-0.267-3.781-1.073-4.804
	c-0.597-0.765-3.836-1.316-4.32-1.107c-0.213,0.096-0.355,0.343-0.318,0.571c0.443,2.796,1.033,5.611,1.604,8.335
	c0.723,3.449,1.471,7.018,1.93,10.589c0.147,1.14,0.201,2.332,0.26,3.585c0.104,2.259,0.209,4.595,0.898,6.639
	c0.067,0.208,0.259,0.346,0.476,0.351c13.657,0.275,27.601,0.417,41.441,0.417h9.007c4.445,0.004,4.809-1.521,5.602-4.859
	l0.23-0.944c1.383-5.607,3.008-11.343,4.968-17.546l0.668-1.521c1.095-2.302,1.889-4.14,1.391-5.185
	C169.999,116.627,169.218,116.396,168.654,116.4 M159.2,144.842c0.184-0.049,0.321-0.197,0.368-0.375
	c0.543-2.278,1.257-4.667,1.946-6.978c0.907-3.034,1.847-6.173,2.457-9.219l0.367-1.951c0.421-2.331,0.861-4.738,1.826-6.827
	c0.38-0.826,1.6-2.058,2.498-2.063c0.142,0,0.576-0.004,0.944,0.765c0.326,0.681-0.789,3.033-1.391,4.295l-0.723,1.654
	c-1.967,6.224-3.597,11.981-4.983,17.609l-0.23,0.952c-0.786,3.287-0.969,4.069-4.6,4.064h-9.01c-13.707,0-27.505-0.138-41.032-0.41
	c-0.547-1.833-0.664-3.952-0.756-6.011c-0.059-1.22-0.117-2.485-0.267-3.667c-0.465-3.614-1.216-7.203-1.943-10.674
	c-0.526-2.515-1.061-5.109-1.487-7.687c0.865,0.113,2.448,0.463,2.712,0.739c0.606,0.773,0.747,2.774,0.848,4.236l0.139,1.521
	l0.961,7.779l0.643,5.455c0-0.016,0,0.017,0,0l0.021,1.479c-0.025,2.126,0,3.563,0.564,4.09c0.776,0.723,2.017,0.527,3.113,0.346
	l1.14-0.133c2.022-0.034,3.793,0.154,5.664,0.356l2.945,0.283c2.807,0.213,5.694,0.169,8.481,0.125
	c3.396-0.054,6.909-0.104,10.247,0.311c2.937,0.366,5.836,0.366,8.906,0.366h0.175l2.306,0.047
	C154.438,145.388,156.907,145.464,159.2,144.842 M109.508,137.916c0,0.005,0,0.005,0,0.005
	C109.508,137.936,109.508,137.906,109.508,137.916z"/>
<path fill="#A5A0AE" d="M167.848,113.79c-1.22-1.658-2.72-3.1-3.897-4.787c-3.242-4.654-3.948-6.141-9.826-6.141
	c-10.991,0-21.983,0.271-32.969,0.48c-5.456,0.105-11.028-0.171-16.463,0.225c-1.838,0.138-3.706-0.393-5.527-0.189
	c-1.696,0.192-5.013,0.443-5.635,2.315c-0.564,1.676,0.798,3.735,1.884,5.259c0.238,0.339,0.464,0.648,0.656,0.924
	c1.637,2.406,3.083,6.441,5.799,7.87c2.005,1.057,5.406,0.794,7.586,0.785c3.731-0.007,7.432,0.598,11.146,0.723
	c5.377,0.188,10.845-0.026,16.213-0.359c5.025-0.314,10.214-0.142,15.21-0.707c4.604-0.518,9.02-0.071,13.636-0.376
	c1.734-0.117,5.126-0.309,5-2.457C170.639,116.973,168.177,114.236,167.848,113.79 M165.216,116.25
	c-1.061,1.308-4.837,0.572-6.321,0.707c-4.712,0.434-9.428,0.463-14.153,0.463c-8.51,0-17.024,0.167-25.53,0.439
	c-3.534,0.112-6.584-0.134-9.997-0.526c-2.895-0.334-5.577,0.371-7.591-2.185c-1.22-1.55-3.593-4.558-4.04-6.492
	c-0.593-2.578,3.734-1.812,5.213-1.842c5.181-0.112,10.348-0.175,15.54-0.112c3.492,0.041,6.989,0.062,10.482-0.105
	c4.094-0.197,8.233-0.293,12.344-0.523c2.95-0.163,5.932,0.197,8.882,0.004c2.018-0.125,3.935-0.171,6.058-0.012
	c2.331,0.184,3.024,1.275,4.458,3.103C161.661,110.569,166.535,114.617,165.216,116.25z"/>
<path fill="#6F4B2D" d="M127.134,102.707l-5.991,0.116l-5.916,0.016c-3.48-0.02-7.077-0.041-10.573,0.217
	c-0.831,0.059-1.667-0.02-2.549-0.107c-0.977-0.097-1.989-0.193-2.995-0.08l-0.292,0.03c-1.901,0.208-5.081,0.551-5.778,2.631
	c-0.626,1.862,0.68,3.931,1.951,5.719l0.208,0.292l0.443,0.627l1.379,2.339c1.19,2.16,2.54,4.609,4.607,5.694
	c1.817,0.957,4.558,0.907,6.759,0.861l1.071-0.012c2.076-0.008,4.194,0.184,6.241,0.368l4.884,0.351
	c4.666,0.163,9.679,0.051,16.263-0.359l6.049-0.221c3.029-0.071,6.162-0.146,9.187-0.484c2.557-0.289,5.118-0.276,7.591-0.264
	c1.955,0.013,3.977,0.021,6.02-0.112c1.876-0.125,5.636-0.371,5.482-3c-0.02-0.339-0.326-0.798-2.215-3.012
	c0,0-0.693-0.831-0.698-0.831l-1.846-2.251c-0.702-0.811-1.43-1.646-2.043-2.524l-0.489-0.706c-2.853-4.115-3.918-5.657-9.759-5.657
	C145.122,102.347,135.978,102.532,127.134,102.707 M121.163,103.855l5.991-0.121c8.84-0.175,17.981-0.359,26.971-0.359
	c5.301,0,6.066,1.107,8.915,5.213l0.489,0.71c0.648,0.924,1.391,1.78,2.105,2.607l1.801,2.189l0,0l0.739,0.889
	c0.598,0.698,1.812,2.126,1.976,2.473c0,0.004,0,0.004,0,0.008c0,1.349-2.139,1.676-4.458,1.83
	c-2.072,0.138-4.077,0.125-6.015,0.116c-2.503-0.012-5.097-0.029-7.712,0.268c-2.979,0.334-6.087,0.409-9.095,0.48l-6.091,0.222
	c-6.546,0.409-11.529,0.518-16.163,0.359l-4.825-0.347c-2.072-0.189-4.211-0.38-6.337-0.376l-1.086,0.017
	c-2.085,0.041-4.678,0.091-6.262-0.743c-1.793-0.944-3.062-3.246-4.181-5.277l-1.433-2.431l-0.455-0.643l-0.205-0.284
	c-0.811-1.145-2.327-3.276-1.817-4.8c0.489-1.454,3.367-1.762,4.913-1.935l0.297-0.029c0.903-0.1,1.817-0.012,2.782,0.08
	c0.89,0.088,1.805,0.175,2.724,0.109c3.455-0.251,7.031-0.23,10.49-0.213L121.163,103.855 M168.261,113.485L168.261,113.485
	L168.261,113.485z"/>
<path fill="#6F4B2D" d="M150.014,105.569c-1.487,0.096-3.02,0.046-4.499,0c-1.433-0.043-2.916-0.092-4.378-0.008l-6.94,0.3
	l-5.402,0.222c-3.492,0.167-6.935,0.146-10.452,0.105c-4.516-0.055-9.458-0.021-15.553,0.112l-0.939-0.034
	c-1.512-0.084-3.585-0.197-4.449,0.836c-0.368,0.434-0.472,0.994-0.318,1.671c0.472,2.039,2.845,5.056,4.123,6.676
	c1.696,2.152,3.86,2.214,5.957,2.277l1.993,0.116c3.476,0.402,6.521,0.643,10.073,0.531c9.266-0.297,17.612-0.439,25.512-0.439
	c4.829,0,9.546-0.038,14.199-0.464l1.625,0.03c1.838,0.096,4.123,0.217,5.051-0.923c0-0.004,0-0.004,0-0.004
	c1.298-1.604-1.312-4.262-3.409-6.396l-1.236-1.32l-0.276-0.356c-1.295-1.663-2.147-2.762-4.549-2.949
	C154.254,105.41,152.424,105.414,150.014,105.569 M150.08,106.592c2.357-0.15,4.149-0.155,5.986-0.012
	c1.947,0.151,2.574,0.953,3.814,2.553l0.276,0.356l1.316,1.412c1.17,1.191,3.464,3.522,3.464,4.659c0,0.142-0.038,0.267-0.121,0.372
	c-0.593,0.73-2.762,0.617-4.195,0.543l-1.771-0.025c-4.612,0.422-9.304,0.455-14.107,0.455c-7.913,0-16.267,0.146-25.546,0.443
	c-3.489,0.109-6.488-0.13-9.922-0.526l-2.076-0.121c-2.03-0.059-3.785-0.113-5.168-1.871c-1.153-1.463-3.526-4.47-3.943-6.287
	c-0.117-0.514,0.046-0.71,0.1-0.777c0.534-0.635,2.461-0.53,3.61-0.468l1.015,0.034c6.087-0.13,11.016-0.167,15.524-0.113
	c3.53,0.042,6.993,0.066,10.511-0.104l5.39-0.222l6.959-0.301c1.416-0.08,2.874-0.033,4.287,0.009
	C146.989,106.646,148.544,106.692,150.08,106.592z"/>
<path fill="#A5A0AE" d="M176.98,95.943c-0.384-0.393-0.798-0.752-1.207-1.111c-1.526,0.923-2.72,2.377-3.605,4.19
	c1.863,1.542,6.767,5.757,8.664,4.499C184.265,101.245,178.505,97.506,176.98,95.943z"/>
<path fill="#6F4B2D" d="M175.506,94.389c-1.55,0.94-2.829,2.423-3.802,4.404c-0.104,0.217-0.046,0.472,0.134,0.627l0.284,0.229
	c3.567,2.967,7.128,5.54,8.995,4.304c0.814-0.543,1.253-1.212,1.298-1.997c0.004-0.042,0.004-0.088,0.004-0.134
	c0-1.871-2.259-3.798-3.922-5.213c0,0-1.149-1.019-1.149-1.023l-1.082-1.003l-0.151-0.134
	C175.948,94.297,175.702,94.272,175.506,94.389 M175.735,95.493c0.221,0.205,0.873,0.81,0.873,0.81c0.004,0.005,0,0,0.004,0
	l1.216,1.091c1.453,1.233,3.647,3.099,3.563,4.503c-0.03,0.448-0.305,0.84-0.844,1.2c-1.474,0.977-6.128-2.871-7.719-4.199
	C173.613,97.414,174.586,96.274,175.735,95.493z"/>
<path fill="#B16720" d="M175.773,94.832c-1.914-1.696-4.053-3.083-6.271-4.324c-1.617,0.443-2.903,1.546-3.509,3.443
	c0.815,0.509,1.642,0.998,2.277,1.579c1.22,1.111,2.389,2.26,3.659,3.292c0.071,0.057,0.155,0.129,0.239,0.2
	C173.053,97.209,174.247,95.755,175.773,94.832z"/>
<path fill="#6F4B2D" d="M169.368,90.011c-1.905,0.523-3.242,1.83-3.864,3.781c-0.071,0.225,0.016,0.468,0.217,0.593l0.33,0.205
	c0.698,0.434,1.353,0.848,1.871,1.32l1.003,0.928l2.678,2.385c0.058,0.046,0.238,0.197,0.238,0.197
	c0.121,0.1,0.28,0.138,0.434,0.104c0.154-0.033,0.284-0.134,0.356-0.275c0.882-1.804,2.03-3.141,3.409-3.977
	c0.141-0.083,0.23-0.229,0.247-0.397c0.012-0.158-0.051-0.322-0.171-0.43c-1.73-1.53-3.752-2.922-6.362-4.387
	C169.636,89.994,169.499,89.978,169.368,90.011 M169.457,91.077c2.205,1.248,3.964,2.448,5.481,3.726
	c-1.14,0.831-2.114,1.976-2.908,3.422c-0.626-0.557-2.402-2.139-2.402-2.139l-1.011-0.935c-0.572-0.523-1.283-0.969-1.972-1.399
	C167.176,92.418,168.132,91.499,169.457,91.077z"/>
<path fill="#A5A0AE" d="M169.502,90.508c-0.953-0.53-1.909-1.04-2.87-1.545c-1.58-0.823-3.113-0.418-3.563,0.626
	c-0.258,0.598-0.163,1.407,0.481,2.314c0.598,0.836,1.512,1.458,2.443,2.048C166.598,92.055,167.885,90.951,169.502,90.508z"/>
<path fill="#6F4B2D" d="M163.938,88.177c-0.627,0.225-1.103,0.653-1.34,1.212c-0.359,0.823-0.167,1.826,0.534,2.812
	c0.656,0.923,1.637,1.583,2.59,2.185c0.134,0.084,0.301,0.1,0.452,0.046c0.146-0.054,0.263-0.175,0.313-0.325
	c0.51-1.605,1.6-2.678,3.155-3.1c0.2-0.054,0.354-0.23,0.375-0.439c0.025-0.208-0.075-0.41-0.263-0.51l-2.879-1.549
	C165.876,87.99,164.807,87.867,163.938,88.177 M163.971,91.603c-0.347-0.48-0.522-0.944-0.522-1.345c0-0.167,0.03-0.322,0.092-0.464
	c0.125-0.297,0.384-0.518,0.739-0.643c0.606-0.217,1.375-0.116,2.113,0.272c0,0,1.074,0.576,1.905,1.022
	c-1.14,0.569-1.985,1.5-2.519,2.732C165.086,92.718,164.409,92.225,163.971,91.603z"/>
<path fill="#6F4B2D" d="M107.506,34.911c-7.99,3.937-26.636,14.69-27.267,29.383c-0.479,10.968,6.168,20.405,16.531,23.484
	c5.658,1.684,10.942,0.763,16.053-0.121c3.563-0.615,7.247-1.257,10.993-0.984c0.358,0.026,0.669-0.242,0.689-0.599
	c0.026-0.358-0.242-0.669-0.595-0.695c-3.904-0.284-7.673,0.369-11.309,1.001c-5.195,0.899-10.096,1.752-15.463,0.157
	c-9.784-2.905-16.053-11.821-15.605-22.183c0.606-14.005,18.768-24.442,26.546-28.279c11.131-5.489,27.599-10.593,40.451-8.463
	c8.799,1.463,19.641,7.074,21.22,18.068c1.005,7.015-0.389,16.451-5.779,21.715c-5.209,5.094-12.299,7.973-19.151,10.757
	c-2.537,1.032-5.163,2.1-7.589,3.242c-0.326,0.158-0.463,0.542-0.311,0.869c0.153,0.321,0.542,0.457,0.863,0.305
	c2.394-1.131,4.888-2.141,7.525-3.215c6.969-2.831,14.173-5.758,19.567-11.032c6.11-5.963,7.137-16.021,6.159-22.825
	c-1.679-11.689-13.057-17.626-22.294-19.157C132.189,23.592,112.996,32.206,107.506,34.911z"/>
<path fill="#6F4B2D" d="M135.931,82.168c-1.136,1.985-1.521,4.227-1.889,6.4c-0.316,1.826-0.663,3.695-1.442,5.379
	c-1.752-1.28-3.311-3.148-4.816-4.99c-1.111-1.368-2.263-2.784-3.484-3.91c-0.258-0.248-0.669-0.231-0.916,0.031
	c-0.243,0.264-0.227,0.674,0.037,0.921c1.153,1.064,2.221,2.379,3.357,3.774c1.743,2.137,3.542,4.352,5.732,5.716
	c0.152,0.094,0.337,0.125,0.505,0.079c0.175-0.042,0.321-0.152,0.405-0.311c1.137-2.037,1.521-4.29,1.895-6.468
	c0.368-2.158,0.721-4.195,1.742-5.979c0.179-0.311,0.069-0.706-0.242-0.884C136.506,81.747,136.11,81.857,135.931,82.168z"/>
<path fill="#6D4A2B" d="M101.914,56.154l-1.876,0.552l-2.292-7.362l-3.665,1.805l2.7,6.387l-1.803,0.748l-3.034-7.215l0.475-1.267
	l5.513-2.725l1.357,0.597L101.914,56.154z M98.964,58.62l4.837,1.3l-0.511,1.879l-4.093-1.094l0.352,3.282l-1.955,0.228
	l-1.142-10.657l1.955-0.228L98.964,58.62z M107.867,57.121l-0.702-0.977l-3.294,1.554l-1.412-0.863l0.072-5.86l1.977,0.009
	l-0.049,4.276l1.54-0.737l-1.147-1.629l1.602-1.16l3.003,4.255L107.867,57.121z M111.991,59.29l-5.742,1.591l-0.534-1.884l4.76-1.31
	l-3.481-10.395l-5.067,3.2l-1.522-0.8l-0.097-4.132l1.955-0.051l0.05,2.421l4.689-2.969l1.438,0.521l4.21,12.558L111.991,59.29z"/>
<path fill="#6D4A2B" d="M113.273,49.647l-0.748-7.146l1.942-0.202l0.3,2.792l1.306-0.36l-1.379-4.18l1.872-0.618l1.39,4.265
	l1.22-0.35l0.552,1.876l-1.163,0.328l0.842,2.521l0.992-0.662l1.094,1.605l-1.463,0.997l1.422,4.297l-1.835,0.602l-1.252-3.786
	l-2.533,1.688l-1.094-1.605l2.995-1.996l-1.049-3.129l-1.727,0.474l0.258,2.386L113.273,49.647z M122.881,53.071l-0.983-9.297
	l1.935-0.22l0.989,9.317L122.881,53.071z M119.466,43.495l0.08-5.307l1.945,0.041l-0.014,1.314l5.681-1.457l1.182,0.663
	l3.314,10.834l-0.188,0.912l-1.799,2.166l-1.525-1.22l1.499-1.785l-2.899-9.439l-5.317,1.365l-0.022,1.937L119.466,43.495z
	 M125.612,50.377l-0.841-7.865l1.942-0.202l0.84,7.865L125.612,50.377z"/>
<path fill="#6D4A2B" d="M147.345,38.69l-4.698,1.42l0.802,2.713l6.59-3.043l0.817,1.754l-6.855,3.165l0.77,2.569l-1.876,0.552
	l-0.687-2.29l-6.346,2.929l-0.805-1.782l6.598-3.023l-0.878-2.972l-5.698,1.707l-1.25-1.08l0.588-4.081l-1.874,0.796l-0.759-1.777
	l2.965-1.252l0.44-3.005l1.948,0.285l-0.27,1.809l7.425-3.181l0.774,1.815l-8.524,3.617l-0.535,3.751l4.218-1.281l-0.749-2.512
	l1.876-0.552l0.749,2.512l4.67-1.431L147.345,38.69z"/>
<path fill="#6D4A2B" d="M124.308,62.135l-0.561-2.249L111.7,65.099l0.781,1.367l-1.702,0.953l-1.311-2.298l0.478-1.377l5.721-2.471
	l-0.886-0.819l1.335-1.457l1.533,1.417l6.385-2.766l1.332,0.651l0.84,3.342L124.308,62.135z M114.619,71.536l11.162-6.144
	l0.954,1.702l-5.052,2.773l1.281,3.042l6.027-2.186l0.662,1.811l-14.111,5.151l-0.669-1.833l6.241-2.267l-1.172-2.751l-4.409,2.419
	L114.619,71.536z M113.256,68.634l1.341-3.788l1.864,0.649l-1.334,3.808L113.256,68.634z M119.03,64.836l-0.011-1.969l5.529,0.019
	l-0.007,1.977L119.03,64.836z"/>
<path fill="#6D4A2B" d="M143.716,54.806l-0.561-2.249l-12.047,5.213l0.781,1.367l-1.702,0.953l-1.311-2.298l0.478-1.377l5.721-2.471
	l-0.886-0.819l1.335-1.457l1.533,1.417l6.385-2.766l1.332,0.651l0.84,3.342L143.716,54.806z M134.027,64.208l11.162-6.144
	l0.954,1.702l-5.052,2.773l1.281,3.042l6.027-2.186l0.662,1.811l-14.11,5.151l-0.669-1.833l6.241-2.267l-1.172-2.751l-4.409,2.419
	L134.027,64.208z M132.666,61.307l1.341-3.788l1.864,0.649l-1.334,3.808L132.666,61.307z M138.439,57.508l-0.011-1.969l5.529,0.019
	l-0.007,1.977L138.439,57.508z"/>
<path fill="#6D4A2B" d="M152.843,63.18l-1.417-2.991l1.992-0.952l1.425,3.01L152.843,63.18z M153.054,57.157l-2.152,0.525
	l-2.486-10.459l2.193-0.474L153.054,57.157z"/>
</svg>
