<?xml version="1.0" encoding="utf-8"?>
<!-- Generator: Adobe Illustrator 17.0.0, SVG Export Plug-In . SVG Version: 6.00 Build 0)  -->
<!DOCTYPE svg PUBLIC "-//W3C//DTD SVG 1.1//EN" "http://www.w3.org/Graphics/SVG/1.1/DTD/svg11.dtd">
<svg version="1.1" id="图层_1" xmlns="http://www.w3.org/2000/svg" xmlns:xlink="http://www.w3.org/1999/xlink" x="0px" y="0px"
	 width="200px" height="200px" viewBox="0 0 200 200" enable-background="new 0 0 200 200" xml:space="preserve">
<circle fill="#C6C6C6" cx="101.41" cy="99.285" r="98.25"/>
<g>
	<path fill="#FFFFFF" d="M40.787,143.699c32.008-3.078,44.888-38.39,47.286-43.37c2.707-5.627-5.386-8.874-6.946-4.703
		C70.018,134.352,40.787,143.699,40.787,143.699"/>
	<path fill="#FFFFFF" d="M157.89,140.78c-15.539-8.105-30.61-17.18-43.254-39.323c-4.727-9.601-4.412-6.215-4.412-6.215
		c9.276,34.167,33.108,47.538,34.631,48.057c1.522,0.521,2.356,0.683,5.015-0.474"/>
	<path fill="#FFFFFF" d="M135.66,43.164c-5.98,19.257-20.917,25.183-20.917,25.183c14.832-1.817,26.234-16.895,28.096-20.082
		C147.194,40.828,138.642,33.574,135.66,43.164z"/>
	<path fill="#FFFFFF" d="M52.178,42.817c9.504,4.364,16.824,13.908,21.036,22.215c3.536,6.963,10.451,3.237,6.83-3.773
		C70.486,42.767,52.178,42.817,52.178,42.817z"/>
	<path fill="#FFFFFF" d="M158.689,80.947c-4.205-0.973-6.367,2.807-6.367,2.807h-43.996V39.549c0-1.745-1.052-2.688-2.998-3.242
		c-1.895-0.543-4.09,0.038-4.09,1.033v46.414H52.68c-0.28,0.149-0.422,0.826-0.25,1.419c0.194,0.687,0.529,1.064,1.15,1.064h47.656
		v72.128c0,0,0,1.412,0,2.862c0,0.996,2.195,1.577,4.09,1.038c1.946-0.558,2.998-1.496,2.998-3.242V86.236h53.708"/>
</g>
</svg>
