<?xml version="1.0" encoding="utf-8"?>
<!-- Generator: Adobe Illustrator 16.0.0, SVG Export Plug-In . SVG Version: 6.00 Build 0)  -->
<!DOCTYPE svg PUBLIC "-//W3C//DTD SVG 1.1//EN" "http://www.w3.org/Graphics/SVG/1.1/DTD/svg11.dtd">
<svg version="1.1" id="图层_1" xmlns="http://www.w3.org/2000/svg" xmlns:xlink="http://www.w3.org/1999/xlink" x="0px" y="0px"
	 width="200px" height="200px" viewBox="0 0 200 200" enable-background="new 0 0 200 200" xml:space="preserve">
<path fill="#B2B2B2" d="M102.358,14.708c-47.882,0-86.702,38.82-86.702,86.705c0,47.879,38.82,86.693,86.702,86.693
	c47.885,0,86.705-38.814,86.705-86.693C189.063,53.528,150.243,14.708,102.358,14.708z"/>
<g>
	<path fill="#FFFFFF" d="M37.375,149.016c34.311-3.299,48.118-41.152,50.688-46.49c2.902-6.032-5.773-9.513-7.446-5.041
		C68.709,138.996,37.375,149.016,37.375,149.016"/>
	<path fill="#FFFFFF" d="M162.903,145.887c-16.657-8.688-32.812-18.416-46.366-42.152c-5.067-10.292-4.729-6.662-4.729-6.662
		c9.943,36.625,35.49,50.958,37.123,51.515c1.631,0.559,2.525,0.732,5.376-0.508"/>
	<path fill="#FFFFFF" d="M139.074,41.247c-6.41,20.642-22.422,26.995-22.422,26.995c15.899-1.948,28.121-18.111,30.117-21.527
		C151.438,38.743,142.27,30.967,139.074,41.247z"/>
	<path fill="#FFFFFF" d="M49.585,40.875c10.188,4.678,18.034,14.909,22.549,23.813c3.79,7.464,11.203,3.47,7.321-4.045
		C69.211,40.822,49.585,40.875,49.585,40.875z"/>
	<path fill="#FFFFFF" d="M163.76,81.749c-4.508-1.043-6.825,3.009-6.825,3.009h-47.162V37.372c0-1.871-1.128-2.881-3.214-3.475
		c-2.031-0.582-4.384,0.041-4.384,1.107v49.753H50.124c-0.3,0.16-0.452,0.885-0.268,1.521c0.208,0.736,0.567,1.141,1.233,1.141
		h51.085v77.318c0,0,0,1.514,0,3.068c0,1.068,2.353,1.691,4.384,1.113c2.086-0.598,3.214-1.604,3.214-3.475V87.418h57.572"/>
</g>
</svg>
