<?xml version="1.0" encoding="utf-8"?>
<!-- Generator: Adobe Illustrator 16.0.0, SVG Export Plug-In . SVG Version: 6.00 Build 0)  -->
<!DOCTYPE svg PUBLIC "-//W3C//DTD SVG 1.1//EN" "http://www.w3.org/Graphics/SVG/1.1/DTD/svg11.dtd">
<svg version="1.1" id="图层_1" xmlns="http://www.w3.org/2000/svg" xmlns:xlink="http://www.w3.org/1999/xlink" x="0px" y="0px"
	 width="200px" height="200px" viewBox="0 0 200 200" enable-background="new 0 0 200 200" xml:space="preserve">
<g>
	<g transform="scale(0.1953125, 0.1953125)">
		<path fill="#B2B2B2" d="M979.837,404.544L574.269,84c-34.91-27.647-89.695-27.617-124.575,0L44.16,404.544
			c-13.855,10.975-16.225,31.102-5.28,44.96c10.945,13.855,30.625,16.222,44.48,5.28L96,444.414v387.584
			c0,54.945,57.887,96,108.8,96h639.999c50.305,0,83.2-38.59,83.2-96V445.919l11.68,8.865c5.89,4.64,13.12,6.88,20.065,6.88
			c9.44,0,18.91-4.16,25.215-12.16C995.933,435.647,993.728,415.519,979.837,404.544z M479.999,863.998v-177.41
			c0-8.83,16-13.245,32-13.245c16,0,32,4.415,32,13.245v177.41H479.999z M863.998,831.998c0,21.215-5.855,32-19.2,32H608.638
			c0-0.48-0.64-0.865-0.64-1.345V686.588c0-37.215-30.015-77.28-96-77.28s-96,40.065-96,77.28v176.065
			c0,0.48,0.865,0.865,0.865,1.345H204.799c-20.065,0-44.8-17.345-44.8-32V393.824l328.927-259.617
			c11.807-9.345,33.122-9.345,44.962,0l330.109,261.119V831.998z"/>
	</g>
</g>
</svg>
