<?xml version="1.0" encoding="utf-8"?>
<!-- Generator: Adobe Illustrator 17.0.0, SVG Export Plug-In . SVG Version: 6.00 Build 0)  -->
<!DOCTYPE svg PUBLIC "-//W3C//DTD SVG 1.1//EN" "http://www.w3.org/Graphics/SVG/1.1/DTD/svg11.dtd">
<svg version="1.1" id="图层_1" xmlns="http://www.w3.org/2000/svg" xmlns:xlink="http://www.w3.org/1999/xlink" x="0px" y="0px"
	 width="200px" height="200px" viewBox="0 0 200 200" enable-background="new 0 0 200 200" xml:space="preserve">
<g>
	<path fill="#A72E48" d="M100.075,9.151c50.315,0,91.25,40.935,91.25,91.25s-40.935,91.25-91.25,91.25s-91.25-40.935-91.25-91.25
		S49.76,9.151,100.075,9.151 M100.075,2.151c-54.262,0-98.25,43.988-98.25,98.25s43.988,98.25,98.25,98.25s98.25-43.988,98.25-98.25
		S154.337,2.151,100.075,2.151L100.075,2.151z"/>
</g>
<g>
	<path fill="#A72E48" d="M36.284,147.137c33.681-3.239,47.234-40.397,49.758-45.637c2.849-5.921-5.668-9.338-7.309-4.949
		C67.043,137.302,36.284,147.137,36.284,147.137"/>
	<path fill="#A72E48" d="M159.508,144.066c-16.351-8.529-32.21-18.078-45.515-41.378c-4.974-10.103-4.643-6.54-4.643-6.54
		c9.761,35.953,34.839,50.023,36.441,50.569c1.602,0.548,2.479,0.719,5.277-0.499"/>
	<path fill="#A72E48" d="M136.116,41.347c-6.293,20.264-22.01,26.499-22.01,26.499c15.607-1.912,27.605-17.778,29.565-21.132
		C148.253,38.889,139.254,31.256,136.116,41.347z"/>
	<path fill="#A72E48" d="M48.27,40.982c10.001,4.592,17.703,14.635,22.136,23.376c3.721,7.327,10.997,3.406,7.187-3.97
		C67.535,40.929,48.27,40.982,48.27,40.982z"/>
	<path fill="#A72E48" d="M160.349,81.105c-4.425-1.024-6.7,2.954-6.7,2.954h-46.296V37.543c0-1.836-1.107-2.829-3.155-3.411
		c-1.994-0.571-4.304,0.04-4.304,1.087v48.84H48.799c-0.295,0.157-0.444,0.869-0.263,1.493c0.204,0.723,0.557,1.12,1.21,1.12h50.147
		v75.898c0,0,0,1.486,0,3.012c0,1.048,2.31,1.659,4.304,1.092c2.048-0.587,3.155-1.574,3.155-3.411V86.67h56.515"/>
</g>
</svg>
