<?xml version="1.0" encoding="utf-8"?>
<!-- Generator: Adobe Illustrator 17.0.0, SVG Export Plug-In . SVG Version: 6.00 Build 0)  -->
<!DOCTYPE svg PUBLIC "-//W3C//DTD SVG 1.1//EN" "http://www.w3.org/Graphics/SVG/1.1/DTD/svg11.dtd">
<svg version="1.1" id="图层_1" xmlns="http://www.w3.org/2000/svg" xmlns:xlink="http://www.w3.org/1999/xlink" x="0px" y="0px"
	 width="48px" height="48px" viewBox="0 0 204.297 200" enable-background="new 0 0 204.297 200" xml:space="preserve">
<g>
	<g transform="scale(0.1953125, 0.1953125)">
		<path fill="#A5A5A5" d="M840.33,516.432L522.247,219.024L204.164,515.558c-6.223,5.801-6.57,15.557-0.754,21.773
			c5.81,6.212,15.577,6.563,21.795,0.748l297.019-276.883l297.032,277.727c2.98,2.784,6.763,4.161,10.539,4.161
			c4.11,0,8.223-1.633,11.256-4.881C846.872,531.991,846.551,522.243,840.33,516.432L840.33,516.432z M743.266,522.541
			c-8.514,0-15.42,6.902-15.42,15.405v236.218H604.479V609.839H439.992v164.325H316.63V537.946c0-8.503-6.899-15.405-15.42-15.405
			c-8.525,0-15.423,6.902-15.423,15.405v267.027h185.049V640.649h102.804v164.324h185.044l0-267.027
			C758.684,529.443,751.776,522.541,743.266,522.541L743.266,522.541z M635.323,301.731h92.523v82.16
			c0,8.516,6.907,15.409,15.42,15.409c8.511,0,15.418-6.893,15.418-15.409v-112.97H635.323c-8.516,0-15.423,6.889-15.423,15.405
			C619.899,294.839,626.807,301.731,635.323,301.731L635.323,301.731z"/>
	</g>
</g>
</svg>
