<?xml version="1.0" encoding="utf-8"?>
<!-- Generator: Adobe Illustrator 16.0.0, SVG Export Plug-In . SVG Version: 6.00 Build 0)  -->
<!DOCTYPE svg PUBLIC "-//W3C//DTD SVG 1.1//EN" "http://www.w3.org/Graphics/SVG/1.1/DTD/svg11.dtd">
<svg version="1.1" id="图层_1" xmlns="http://www.w3.org/2000/svg" xmlns:xlink="http://www.w3.org/1999/xlink" x="0px" y="0px"
	 width="200px" height="200px" viewBox="0 0 200 200" enable-background="new 0 0 200 200" xml:space="preserve">
<g>
	<g transform="scale(0.1953125, 0.1953125)">
		<path fill="#CECECE" d="M852.738,471.163c-23.19,0-41.98,18.798-41.98,41.985v287.129c0,40.505-33.7,73.46-75.11,73.46H224.11
			c-41.415,0-75.11-32.955-75.11-73.46V287.034c0-40.505,33.695-73.46,75.11-73.46h289.327c23.188,0,41.982-18.795,41.982-41.982
			s-18.795-41.982-41.982-41.982H224.11c-87.715,0-159.077,70.62-159.077,157.425v513.243c0,86.805,71.362,157.43,159.077,157.43
			h511.539c87.709,0,159.069-70.625,159.069-157.43V513.148C894.718,489.961,875.928,471.163,852.738,471.163z M381.432,598.258
			c0,0-8.68-8.364-16.478-6.37c-6.782,1.296-12.188,22.11-12.188,22.11l-40.345,146.064c0.377,6.385,5.893,11.245,12.32,10.87
			l128.995-51.725c0,0,30.255-10.17,30.865-22.205c0.9-8.5-20.303-26.295-20.303-26.295L381.432,598.258z M428.914,556.198
			l83.637,74.505c10.558,9.41,26.768,8.505,36.208-2.021l250.649-279.481c9.44-10.522,8.53-26.678-2.03-36.082l-83.635-74.51
			c-10.555-9.402-26.765-8.5-36.205,2.024L426.887,520.118C417.449,530.639,418.359,546.793,428.914,556.198z M757.448,189.879
			l83.635,74.51c10.56,9.405,26.765,8.5,36.205-2.022l14.05-15.667c9.44-10.521,8.53-26.675-2.03-36.083l-83.635-74.51
			c-10.555-9.402-26.765-8.5-36.205,2.022l-14.05,15.67C745.979,164.321,746.888,180.477,757.448,189.879z"/>
	</g>
</g>
</svg>
