<?xml version="1.0" encoding="utf-8"?>
<!-- Generator: Adobe Illustrator 16.0.0, SVG Export Plug-In . SVG Version: 6.00 Build 0)  -->
<!DOCTYPE svg PUBLIC "-//W3C//DTD SVG 1.1//EN" "http://www.w3.org/Graphics/SVG/1.1/DTD/svg11.dtd">
<svg version="1.1" id="图层_1" xmlns="http://www.w3.org/2000/svg" xmlns:xlink="http://www.w3.org/1999/xlink" x="0px" y="0px"
	 width="200px" height="200px" viewBox="0 0 200 200" enable-background="new 0 0 200 200" xml:space="preserve">
<g>
	<g transform="scale(0.1953125, 0.1953125)">
		<path fill="#B2B2B2" d="M224.397,386.484c0,85.177,85.69,220.794,85.69,220.794l201.547,314.719l190.085-314.719
			c0,0,97.155-134.872,97.155-220.794c0-159.352-128.62-288.737-287.24-288.737C353.017,97.748,224.397,227.132,224.397,386.484z
			 M374.261,384.987c0-75.935,61.44-137.375,137.372-137.375c75.935,0,137.375,61.439,137.375,137.375
			c0,75.93-61.44,137.372-137.375,137.372C435.701,522.359,374.261,460.917,374.261,384.987z"/>
	</g>
</g>
</svg>
