<?xml version="1.0" encoding="utf-8"?>
<!-- Generator: Adobe Illustrator 17.0.0, SVG Export Plug-In . SVG Version: 6.00 Build 0)  -->
<!DOCTYPE svg PUBLIC "-//W3C//DTD SVG 1.1//EN" "http://www.w3.org/Graphics/SVG/1.1/DTD/svg11.dtd">
<svg version="1.1" id="图层_1" xmlns="http://www.w3.org/2000/svg" xmlns:xlink="http://www.w3.org/1999/xlink" x="0px" y="0px"
	 width="200px" height="200px" viewBox="0 0 200 200" enable-background="new 0 0 200 200" xml:space="preserve">
<path fill="#C6C6C6" stroke="#C6C6C6" stroke-width="0.25" stroke-miterlimit="10" d="M184.525,167.523
	c-2.668-4.608-6.539-8.587-11.506-11.826c-6.01-3.921-13.65-6.766-22.72-8.446c-0.056-0.009-0.121-0.015-0.175-0.027
	c-0.07-0.012-6.928-0.944-13.945-2.794c-12.234-3.212-13.303-6.059-13.309-6.089c-0.07-0.279-0.177-0.552-0.312-0.803
	c-0.099-0.53-0.346-2.531,0.129-7.887c1.198-13.594,8.285-21.633,13.975-28.087c1.792-2.04,3.49-3.962,4.801-5.849
	c5.628-8.14,6.155-17.39,6.168-17.78c0.008-0.063,0.008-0.122,0.008-0.183c0-1.163-0.132-2.118-0.411-2.999
	c-0.553-1.778-1.588-2.877-2.348-3.689c-0.199-0.203-0.374-0.395-0.526-0.576c-0.054-0.066-0.21-0.245-0.067-1.161
	c0.497-3.373,0.801-6.196,0.94-8.888c0.255-4.789,0.454-11.958-0.744-18.933c-0.148-1.19-0.403-2.448-0.801-3.951
	c-1.265-4.803-3.304-8.909-6.055-12.202c-0.027-0.036-0.054-0.063-0.081-0.098c-0.486-0.541-12.323-13.381-46.694-16.017
	c-4.75-0.364-9.448-0.169-13.849,0.06L76.779,9.31c-1.115,0.055-2.643,0.135-4.07,0.52c-3.546,0.943-4.494,3.263-4.747,4.557
	c-0.406,2.147,0.317,3.817,0.801,4.922c0.062,0.161,0.15,0.359,0.209,0.513c-0.043,0.09-0.113,0.207-0.204,0.359
	c-0.806,1.275-2.06,2.423-3.293,3.466c-0.016,0.02-0.027,0.029-0.043,0.042c-0.371,0.325-8.989,7.975-9.464,17.97
	c-1.271,7.6-1.177,19.443,0.239,27.111c0.027,0.173,0.056,0.347,0.091,0.52c0.091,0.45,0.218,1.116,0.199,1.381
	c-0.021,0.027-0.054,0.061-0.102,0.112l-0.086,0.077c-1.625,1.504-3.465,3.201-3.465,6.895c0,0.061,0,0.12,0.002,0.183
	c0.019,0.391,0.543,9.64,6.174,17.78c1.306,1.886,3.001,3.808,4.801,5.849c5.69,6.454,12.777,14.494,13.972,28.087
	c0.473,5.357,0.228,7.357,0.126,7.887c-0.134,0.251-0.239,0.524-0.309,0.803c-0.011,0.03-1.077,2.866-13.247,6.074
	c-7.017,1.854-13.932,2.797-14.002,2.809c-0.048,0.006-0.094,0.012-0.14,0.023c-8.983,1.558-16.586,4.331-22.582,8.233
	c-4.949,3.217-8.825,7.201-11.52,11.841c-4.315,7.417-4.196,14.171-4.137,15.407v4.417c0,2.032,1.644,3.675,3.68,3.675h79.49v-7.349
	H19.337v-0.85c0-0.111,0-0.177-0.011-0.285c-0.008-0.291-0.239-5.715,3.358-11.667c2.149-3.569,5.255-6.658,9.225-9.194
	c5.104-3.255,11.67-5.603,19.504-6.97c0.825-0.113,7.638-1.085,14.786-2.968c13.919-3.663,17.306-7.742,18.333-10.695
	c0.787-1.531,1.23-4.564,0.586-11.831c-1.413-16.007-9.717-25.43-15.783-32.313c-1.722-1.95-3.208-3.635-4.272-5.166
	c-4.145-5.999-4.803-13.035-4.865-13.881c0.003-0.227,0.029-0.311,0.029-0.311c0.097-0.179,0.656-0.692,1.067-1.073l0.086-0.078
	c3.181-2.938,2.531-6.294,2.141-8.3c-0.027-0.151-0.059-0.302-0.086-0.451c-1.276-6.904-1.351-18.015-0.177-24.761
	c0.027-0.169,0.043-0.342,0.051-0.508c0.22-6.766,6.641-12.652,6.953-12.93c1.601-1.366,3.407-3.037,4.731-5.147
	c0.535-0.852,0.897-1.607,1.131-2.383c0.615-2.067,0.024-3.799-0.457-4.945c0.553-0.055,1.142-0.087,1.489-0.105l0.234-0.012
	c4.161-0.218,8.589-0.409,12.901-0.073c8.978,0.688,21.94,2.588,32.732,7.737c6.001,2.865,8.696,5.495,9.027,5.835
	c2.023,2.454,3.549,5.573,4.527,9.288c0.32,1.206,0.513,2.174,0.62,3.045c0.008,0.069,0.013,0.13,0.027,0.196
	c0.841,4.836,1.045,10.192,0.666,17.377c-0.134,2.45-0.416,5.053-0.876,8.2c-0.422,2.807,0.137,5.087,1.698,6.958
	c0.293,0.339,0.575,0.637,0.817,0.899c0.314,0.337,0.639,0.676,0.685,0.833c0.021,0.066,0.062,0.257,0.073,0.696
	c-0.064,0.853-0.717,7.889-4.873,13.893c-1.061,1.531-2.547,3.216-4.266,5.166c-6.066,6.883-14.373,16.305-15.786,32.313
	c-0.645,7.267-0.204,10.3,0.586,11.831c0.416,1.194,1.26,2.572,2.977,4.026c7.552-0.322,15.243,2.288,20.334,7.862
	c5.023,1.093,9.096,1.678,9.79,1.776c7.92,1.472,14.547,3.886,19.678,7.17c3.989,2.552,7.087,5.635,9.215,9.165
	c3.535,5.859,3.245,11.134,3.221,11.435c-0.019,0.129-0.019,0.212-0.019,0.346v0.85h-15.198c0-0.012,0-0.027,0.003-0.042
	c-0.223-0.009-0.395-0.015-0.44-0.015h-4.527l-6.937,0.056h-8.868v7.349h8.911l6.778-0.048v0.048h23.952
	c2.034,0,3.683-1.643,3.683-3.675v-4.39C188.58,181.431,188.754,174.824,184.525,167.523z"/>
<path fill="#C6C6C6" stroke="#C6C6C6" stroke-width="0.25" stroke-miterlimit="10" d="M121.622,136.395
	c0.091,0.071,0.175,0.152,0.255,0.227C121.796,136.547,121.716,136.473,121.622,136.395z"/>
<path fill="#C6C6C6" stroke="#C6C6C6" stroke-width="0.25" stroke-miterlimit="10" d="M78.858,136.395
	c-0.097,0.071-0.18,0.152-0.255,0.222C78.684,136.539,78.77,136.466,78.858,136.395z"/>
</svg>
