<?xml version="1.0" encoding="utf-8"?>
<!-- Generator: Adobe Illustrator 16.0.0, SVG Export Plug-In . SVG Version: 6.00 Build 0)  -->
<!DOCTYPE svg PUBLIC "-//W3C//DTD SVG 1.1//EN" "http://www.w3.org/Graphics/SVG/1.1/DTD/svg11.dtd">
<svg version="1.1" id="图层_1" xmlns="http://www.w3.org/2000/svg" xmlns:xlink="http://www.w3.org/1999/xlink" x="0px" y="0px"
	 width="200px" height="200px" viewBox="0 0 200 200" enable-background="new 0 0 200 200" xml:space="preserve">
<g>
	<g transform="scale(0.1953125, 0.1953125)">
		<path fill="#B02F4B" d="M160.032,927.998c-10.625,0-21.025-5.28-27.105-14.945c-9.44-14.945-4.927-34.685,9.985-44.125
			c5.535-3.49,136.607-85.475,240.607-90.66h0.48v-18.015c-120.352-49.92-199.647-175.615-199.647-320.447
			C184.352,250.207,330.271,96,509.664,96c179.39,0,325.374,154.207,325.374,343.807c0,144.702-75.81,267.137-195.039,318.462
			v20.355c104.799,9.405,234.879,86.625,240.449,89.95c15.165,9.09,20.095,28.705,11.04,43.875
			c-9.09,15.2-28.77,20.095-43.875,11.07c-1.28-0.735-126.24-74.88-214.239-81.31l-25.375,0.03c-17.695,0-32-14.305-32-32v-73.92
			c0-13.665,8.67-25.825,21.6-30.24c105.375-36.255,173.44-140.735,173.44-266.304c0-154.27-117.25-279.774-261.375-279.774
			c-144.097,0-261.312,125.504-261.312,279.807c0,125.697,71.327,233.312,177.534,267.742c13.185,4.26,22.113,16.545,22.113,30.435
			v72.285c0,17.7-14.335,32-32,32h-30.88c-85.825,4.32-206.847,80.07-208.032,80.8C171.774,926.398,165.854,927.998,160.032,927.998
			z"/>
	</g>
</g>
</svg>
