<?xml version="1.0" encoding="utf-8"?>
<!-- Generator: Adobe Illustrator 16.0.0, SVG Export Plug-In . SVG Version: 6.00 Build 0)  -->
<!DOCTYPE svg PUBLIC "-//W3C//DTD SVG 1.1//EN" "http://www.w3.org/Graphics/SVG/1.1/DTD/svg11.dtd">
<svg version="1.1" id="图层_1" xmlns="http://www.w3.org/2000/svg" xmlns:xlink="http://www.w3.org/1999/xlink" x="0px" y="0px"
	 width="28px" height="28px" viewBox="0 0 28 28" enable-background="new 0 0 28 28" xml:space="preserve">
<g>
	<g transform="scale(0.1953125, 0.1953125)">
		<path fill="#515151" d="M26.88,103.04c-2.688,0-4.48-1.79-4.48-4.48V62.72c0-21.505,13.44-40.319,34.047-46.592
			c2.688-0.897,5.377,0,6.272,2.688c0.895,2.689-0.895,4.479-3.585,5.375C43.007,29.567,31.36,44.8,31.36,62.72v35.84
			C31.36,101.25,29.567,103.04,26.88,103.04z M125.439,120.96H17.92c-2.688,0-4.48-1.79-4.48-4.48c0-2.689,1.792-4.479,4.48-4.479
			h107.52c2.69,0,4.48,1.79,4.48,4.479C129.919,119.17,127.229,120.96,125.439,120.96z M116.479,120.96c-2.69,0-4.48-1.79-4.48-4.48
			V62.72c0-18.814-13.44-34.944-31.36-39.425c-8.065-1.79-13.44-8.96-13.44-17.022c0-2.688,1.792-4.479,4.48-4.479
			c2.69,0,4.48,1.792,4.48,4.479c0,4.48,2.69,8.063,6.27,8.96c22.4,5.375,38.53,25.088,38.53,48.383v53.76
			C120.959,119.17,119.169,120.96,116.479,120.96z M62.72,125.439h17.92H62.72z M71.68,138.88c-9.855,0-17.92-8.065-17.92-17.92
			c0-2.69,1.792-4.48,4.48-4.48s4.48,1.79,4.48,4.48c0,5.375,3.585,8.96,8.96,8.96s8.96-3.585,8.96-8.96c0-2.69,1.79-4.48,4.48-4.48
			s4.48,1.79,4.48,4.48C89.6,130.814,81.535,138.88,71.68,138.88z"/>
	</g>
</g>
</svg>
