<?xml version="1.0" encoding="utf-8"?>
<!-- Generator: Adobe Illustrator 16.0.0, SVG Export Plug-In . SVG Version: 6.00 Build 0)  -->
<!DOCTYPE svg PUBLIC "-//W3C//DTD SVG 1.1//EN" "http://www.w3.org/Graphics/SVG/1.1/DTD/svg11.dtd">
<svg version="1.1" xmlns="http://www.w3.org/2000/svg" xmlns:xlink="http://www.w3.org/1999/xlink" x="0px" y="0px"
	 width="32px" height="32px" viewBox="0 0 200 200" enable-background="new 0 0 200 200" xml:space="preserve">
<g>
	<g transform="scale(0.1953125, 0.1953125)">
		<path fill="#B2B2B2" d="M192,735.998c-19.2,0-32-12.8-32-32v-256c0-153.6,96-287.999,243.199-332.799c19.2-6.4,38.4,0,44.8,19.2
			c6.4,19.2-6.4,32-25.6,38.4c-115.2,38.4-198.4,147.2-198.4,275.199v256C223.999,723.198,211.199,735.998,192,735.998z
			 M895.998,863.998H128c-19.2,0-32-12.8-32-32s12.8-32,32-32h767.998c19.2,0,32,12.8,32,32S908.798,863.998,895.998,863.998z
			 M831.998,863.998c-19.2,0-32-12.8-32-32V447.999c0-134.399-96-249.599-224-281.599c-57.6-12.8-96-64-96-121.6
			c0-19.2,12.8-32,32-32s32,12.8,32,32c0,32,19.2,57.6,44.8,64c160,38.4,275.199,179.2,275.199,345.599v383.999
			C863.998,851.198,851.198,863.998,831.998,863.998z M447.999,895.998h128H447.999z M511.999,991.998c-70.4,0-128-57.6-128-128
			c0-19.2,12.8-32,32-32s32,12.8,32,32c0,38.4,25.6,64,64,64s64-25.6,64-64c0-19.2,12.8-32,32-32s32,12.8,32,32
			C639.999,934.398,582.398,991.998,511.999,991.998z"/>
	</g>
</g>
</svg>
