<?xml version="1.0" encoding="utf-8"?>
<!-- Generator: Adobe Illustrator 17.0.0, SVG Export Plug-In . SVG Version: 6.00 Build 0)  -->
<!DOCTYPE svg PUBLIC "-//W3C//DTD SVG 1.1//EN" "http://www.w3.org/Graphics/SVG/1.1/DTD/svg11.dtd">
<svg version="1.1" id="图层_1" xmlns="http://www.w3.org/2000/svg" xmlns:xlink="http://www.w3.org/1999/xlink" x="0px" y="0px"
	 width="33.708px" height="34.003px" viewBox="0 0 33.708 34.003" enable-background="new 0 0 33.708 34.003" xml:space="preserve">
<g>
	<g transform="scale(0.1953125, 0.1953125)">
		<path fill="#5E5E5E" d="M143.408,90.221c1.7,0,3.079-1.383,3.079-3.083V47.192c0-2.469-0.772-4.754-2.075-6.642
			c-0.054-0.086-0.066-0.184-0.127-0.267c-0.102-0.133-0.242-0.206-0.359-0.321c-2.145-2.71-5.425-4.48-9.149-4.48H37.807
			c-6.47,0-11.71,5.24-11.71,11.71v70.941c0,6.47,5.24,11.706,11.71,11.706h96.971c6.47,0,11.71-5.236,11.71-11.706v-9.757
			c-0.01-1.694-1.382-3.066-3.079-3.066c-1.697,0-3.076,1.373-3.083,3.066v9.141c0,3.406-2.764,6.165-6.165,6.165H38.423
			c-3.401,0-6.165-2.759-6.165-6.165V47.808c0-0.337,0.048-0.658,0.099-0.983L86.232,90.77c0.003,0,0.009,0.003,0.012,0.007
			c0.481,0.358,1.026,0.511,1.579,0.571c0.159,0.029,0.315,0.019,0.477,0.023c0.159-0.003,0.315,0.006,0.473-0.023
			c0.556-0.06,1.102-0.213,1.579-0.571c0.003-0.004,0.01-0.007,0.013-0.007l49.915-43.41c0.01,0.15,0.045,0.295,0.045,0.448v39.33
			C140.326,88.838,141.705,90.221,143.408,90.221L143.408,90.221L143.408,90.221z M38.423,41.643h95.738
			c0.811,0,1.583,0.166,2.295,0.452L88.3,84.177L36.669,41.929C37.228,41.761,37.809,41.643,38.423,41.643L38.423,41.643
			L38.423,41.643z"/>
	</g>
</g>
</svg>
