<?xml version="1.0" encoding="utf-8"?>
<!-- Generator: Adobe Illustrator 16.0.0, SVG Export Plug-In . SVG Version: 6.00 Build 0)  -->
<!DOCTYPE svg PUBLIC "-//W3C//DTD SVG 1.1//EN" "http://www.w3.org/Graphics/SVG/1.1/DTD/svg11.dtd">
<svg version="1.1" id="图层_1" xmlns="http://www.w3.org/2000/svg" xmlns:xlink="http://www.w3.org/1999/xlink" x="0px" y="0px"
	 width="33.708px" height="34.003px" viewBox="0 0 33.708 34.003" enable-background="new 0 0 33.708 34.003" xml:space="preserve">
<g>
	<g transform="scale(0.1953125, 0.1953125)">
		<path fill="#AFAFAF" d="M116.677,72.92c-1.795-4.04-4.25-7.542-7.315-10.522c-3.07-2.985-6.655-5.34-10.75-7.062
			c-4.07-1.73-8.44-2.563-13.095-2.515c-4.672,0.04-9.02,0.962-13.085,2.738c-4.06,1.772-7.602,4.172-10.627,7.252
			c-3.035,3.07-5.407,6.637-7.137,10.72c-1.728,4.08-2.555,8.432-2.51,13.075c0.09,4.362,0.962,8.452,2.58,12.247
			c1.635,3.79,3.722,7.09,6.282,9.94c0.853,0.945,1.345,1.935,1.497,2.96c0.16,1.005-0.267,1.8-1.275,2.355
			c-1.792,1.06-4.127,1.8-6.977,2.25c-0.445,0.085,0.61,0.56,3.165,1.39c2.555,0.825,6.482,1.5,11.795,2.07
			c2.402,0.19,4.56,0.305,6.465,0.375c1.905,0.045,3.632,0.045,5.225,0c1.575-0.045,3.01-0.14,4.29-0.22
			c1.282-0.085,2.487-0.235,3.632-0.395c4.305-0.445,8.345-1.63,12.085-3.545c3.755-1.9,7.005-4.37,9.77-7.345
			c2.75-2.99,4.905-6.43,6.505-10.28c1.57-3.855,2.33-8.015,2.29-12.435C119.417,81.287,118.462,76.96,116.677,72.92z
			 M67.315,91.917c-2.997,0-5.422-2.417-5.422-5.42c0-3.01,2.425-5.432,5.422-5.432c3.015,0,5.435,2.422,5.435,5.432
			C72.77,89.475,70.33,91.917,67.315,91.917z M85.807,91.917c-3.012,0-5.427-2.417-5.427-5.42c0-3.01,2.415-5.432,5.427-5.432
			c3.005,0,5.43,2.422,5.43,5.432C91.237,89.475,88.812,91.917,85.807,91.917z M104.292,91.917c-3,0-5.43-2.417-5.43-5.42
			c0-3.01,2.43-5.432,5.43-5.432c3.005,0,5.42,2.422,5.42,5.432C109.712,89.475,107.297,91.917,104.292,91.917z"/>
	</g>
</g>
<g>
	<path fill="#AFAFAF" d="M16.761,31.347c-7.967,0-14.448-6.48-14.448-14.448c0-7.967,6.48-14.448,14.448-14.448
		s14.448,6.48,14.448,14.448C31.209,24.867,24.729,31.347,16.761,31.347z M16.761,3.384c-7.453,0-13.516,6.063-13.516,13.516
		s6.063,13.516,13.516,13.516c7.453,0,13.517-6.063,13.517-13.516C30.278,9.446,24.214,3.384,16.761,3.384z"/>
</g>
</svg>
