<?xml version="1.0" encoding="utf-8"?>
<!-- Generator: Adobe Illustrator 17.0.0, SVG Export Plug-In . SVG Version: 6.00 Build 0)  -->
<!DOCTYPE svg PUBLIC "-//W3C//DTD SVG 1.1//EN" "http://www.w3.org/Graphics/SVG/1.1/DTD/svg11.dtd">
<svg version="1.1" id="图层_1" xmlns="http://www.w3.org/2000/svg" xmlns:xlink="http://www.w3.org/1999/xlink" x="0px" y="0px"
	 width="60px" height="60px" viewBox="0 0 60 60" enable-background="new 0 0 60 60" xml:space="preserve">
<g>
	<path fill-rule="evenodd" clip-rule="evenodd" fill="#599d8b" d="M37.583,19.017c-0.128-0.043-0.261-0.049-0.362-0.049
		c-1.245,0-2.547,2.223-3.402,4.379c3.199-0.212,4.66-1.849,4.791-2.941C38.711,19.554,38.091,19.188,37.583,19.017L37.583,19.017z"
		/>
	<path fill-rule="evenodd" clip-rule="evenodd" fill="#599d8b" d="M29.983,2.066C13.977,2.066,1,15.043,1,31.049
		s12.977,28.983,28.983,28.983s28.983-12.977,28.983-28.983S45.989,2.066,29.983,2.066L29.983,2.066z M28.458,46.304H20.83
		c-1.686,0-3.051-1.365-3.051-3.051v-7.627c0-1.684,1.365-3.051,3.051-3.051h7.627V46.304L28.458,46.304z M42.186,43.253
		c0,1.686-1.365,3.051-3.051,3.051h-7.627V32.575h7.627c1.686,0,3.051,1.367,3.051,3.051V43.253L42.186,43.253z M43.712,28.761
		c0,0.421-0.342,0.763-0.763,0.763H17.017c-0.421,0-0.763-0.342-0.763-0.763V25.71c0-0.421,0.342-0.763,0.763-0.763h4.611
		c-1.536-1.106-2.439-2.553-2.618-4.035c-0.268-2.224,0.94-4.125,3.025-4.822c0.36-0.12,0.752-0.195,1.144-0.195
		c3.618,0,5.646,5.311,6.471,7.633h1.085c0.754-2.288,2.866-7.699,6.485-7.699c0.39,0,0.769,0.056,1.144,0.18
		c2.087,0.693,3.301,2.598,3.025,4.822c-0.186,1.498-1.081,3.008-2.715,4.116h0.153l4.123,0c0.421,0,0.763,0.342,0.763,0.763V28.761
		L43.712,28.761z"/>
	<path fill-rule="evenodd" clip-rule="evenodd" fill="#599d8b" d="M23.18,19.034c-0.13,0-0.246,0.017-0.362,0.066
		c-0.535,0.131-1.107,0.557-1.028,1.373c0.108,1.097,1.593,2.746,4.805,2.959C25.698,21.288,24.411,19.034,23.18,19.034
		L23.18,19.034z"/>
	<path fill-rule="evenodd" clip-rule="evenodd" fill="#272536" d="M21.689,25L21.689,25z"/>
</g>
</svg>
