<?xml version="1.0" encoding="utf-8"?>
<!-- Generator: Adobe Illustrator 16.0.0, SVG Export Plug-In . SVG Version: 6.00 Build 0)  -->
<!DOCTYPE svg PUBLIC "-//W3C//DTD SVG 1.1//EN" "http://www.w3.org/Graphics/SVG/1.1/DTD/svg11.dtd">
<svg version="1.1" id="图层_1" xmlns="http://www.w3.org/2000/svg" xmlns:xlink="http://www.w3.org/1999/xlink" x="0px" y="0px"
	 width="200px" height="200px" viewBox="0 0 200 200" enable-background="new 0 0 200 200" xml:space="preserve">
<g>
	<g transform="scale(0.1953125, 0.1953125)">
		<path fill="#B02F4B" d="M352.511,831.998c-35.36,0-64,28.64-64,64c0,35.36,28.64,64,64,64s64-28.64,64-64
			C416.511,860.638,387.871,831.998,352.511,831.998L352.511,831.998z M800.508,831.998c-35.36,0-64,28.64-64,64
			c0,35.36,28.64,64,64,64s64-28.64,64-64C864.508,860.638,835.868,831.998,800.508,831.998L800.508,831.998z M863.998,799.998
			H344.224c-46.113,0-86.657-36.48-92.29-83.04l-54.27-382.079l-30.88-178.56c-1.92-15.583-16.13-28.32-30.017-28.32H96
			c-17.665,0-32-14.337-32-32s14.335-32,32-32h40.767c46.687,0,87.68,36.48,93.345,83.04l30.815,177.887l54.497,383.712
			c1.79,14.85,15.23,27.36,28.8,27.36h519.773c17.695,0,32,14.305,32,32S881.693,799.998,863.998,799.998z M384.224,671.999
			c-16.61,0-30.657-12.8-31.872-29.665c-1.313-17.63,11.935-32.96,29.535-34.24l434.112-32
			c15.935-0.095,29.375-12.605,31.135-26.845l50.4-288.386c1.28-10.75-1.695-22.525-8.125-29.823c-4.13-4.672-9.315-7.04-15.36-7.04
			H319.999c-17.665,0-32-14.337-32-32c0-17.662,14.335-32,32-32h554.049c24.445,0,46.91,10.142,63.26,28.607
			c18.69,21.09,27.265,50.815,23.52,81.632l-50.43,288.414c-5.44,44.865-45.95,81.345-92.064,81.345l-431.741,31.905
			C385.792,671.969,384.991,671.999,384.224,671.999z"/>
	</g>
</g>
</svg>
