<?xml version="1.0" encoding="utf-8"?>
<!-- Generator: Adobe Illustrator 16.0.0, SVG Export Plug-In . SVG Version: 6.00 Build 0)  -->
<!DOCTYPE svg PUBLIC "-//W3C//DTD SVG 1.1//EN" "http://www.w3.org/Graphics/SVG/1.1/DTD/svg11.dtd">
<svg version="1.1" id="图层_1" xmlns="http://www.w3.org/2000/svg" xmlns:xlink="http://www.w3.org/1999/xlink" x="0px" y="0px"
	 width="126px" height="30.333px" viewBox="0 0 126 30.333" enable-background="new 0 0 126 30.333" xml:space="preserve">
<g>
	<path fill="#A3A3A3" d="M8.3,19.348h3.349v8.407H8.3V19.348L8.3,19.348L8.3,19.348z M13.323,14.388h3.349v13.451h-3.349V14.388
		L13.323,14.388L13.323,14.388z M18.346,19.348h3.349v8.407h-3.349V19.348L18.346,19.348L18.346,19.348z"/>
</g>
<g>
	<path fill="#A3A3A3" d="M32.774,15.736c-0.494,0.886-0.869,1.432-1.584,2.231c-0.222-0.356-0.392-0.578-0.698-0.868
		c0.886-0.938,1.431-1.773,1.943-3.034c0.205-0.477,0.307-0.817,0.409-1.279l1.159,0.307c-0.136,0.256-0.205,0.426-0.562,1.278
		c-0.051,0.119-0.103,0.222-0.188,0.393h1.79c0.818,0,1.295-0.017,1.637-0.085v1.144c-0.443-0.069-0.921-0.085-1.637-0.085
		L32.774,15.736L32.774,15.736z M32.484,22.112c-0.647,0-1.176,0.032-1.602,0.085v-1.11c0.426,0.053,0.92,0.086,1.619,0.086h0.887
		v-2.487h-0.614c-0.324,0-0.8,0.033-1.125,0.068v-1.074c0.375,0.052,0.665,0.068,1.16,0.068h2.54c0.477,0,0.818-0.017,1.143-0.068
		v1.057c-0.375-0.034-0.75-0.051-1.143-0.051h-0.92v2.487h0.733c0.647,0,1.074-0.018,1.551-0.086v1.11
		c-0.545-0.069-1.022-0.085-1.567-0.085H34.43v4.021c1.057-0.546,1.398-0.75,2.318-1.347l0.052,1.176
		c-0.512,0.306-0.563,0.341-2.046,1.124c-0.341,0.187-0.341,0.187-1.16,0.579c-0.188,0.103-0.188,0.103-0.307,0.171l-0.426-1.073
		c0.34-0.138,0.494-0.325,0.528-0.699V22.11h-0.905V22.112z M38.519,17.048c-0.563-1.449-0.938-2.182-1.688-3.29l0.938-0.46
		c0.835,1.347,1.158,1.978,1.738,3.29L38.519,17.048z M40.888,14.525c0-0.682-0.033-1.262-0.101-1.738h1.295
		c-0.068,0.478-0.103,1.022-0.103,1.755v3.033h1.875c0.666,0,1.194-0.033,1.619-0.085c-0.051,0.41-0.067,0.92-0.067,1.653v7.619
		c0,1.058-0.358,1.33-1.791,1.33c-0.545,0-1.056-0.034-1.738-0.103c-0.035-0.408-0.052-0.563-0.206-1.091
		c0.887,0.137,1.5,0.206,2.045,0.206c0.512,0,0.649-0.086,0.649-0.41v-2.25H38.57v1.84c0,0.613,0.034,1.261,0.103,1.893h-1.227
		c0.069-0.596,0.103-1.279,0.103-1.893V19.11c0-0.632-0.017-1.193-0.068-1.619c0.409,0.052,0.938,0.085,1.551,0.085h1.857V14.525z
		 M44.365,18.531h-5.796v1.977h5.796V18.531z M38.569,23.491h5.796v-2.028h-5.796V23.491z M46.019,13.724
		c-0.715,1.449-1.261,2.388-1.978,3.393l-0.886-0.495c0.8-1.073,1.261-1.909,1.857-3.392L46.019,13.724z"/>
	<path fill="#A3A3A3" d="M59.616,18.905c0.699,0,1.022-0.016,1.551-0.085v1.022c-0.459-0.067-0.768-0.085-1.551-0.085h-3.272v1.397
		h3.937c0.769,0,1.314-0.032,1.756-0.085v1.058c-0.512-0.068-0.972-0.102-1.756-0.102h-8.607c-0.512,0-0.972,0.018-1.585,0.033
		c0.033-0.374,0.052-0.817,0.052-1.481v-2.506c0-0.699,0.034-1.363,0.068-1.738c-0.529,0.732-0.989,1.21-1.755,1.825
		c-0.137-0.308-0.409-0.633-0.664-0.853c1.175-0.818,2.096-1.79,2.932-3.103c0.409-0.631,0.682-1.159,0.784-1.551l1.075,0.392
		c-0.068,0.068-0.086,0.102-0.153,0.221c-0.256,0.393-0.666,1.024-0.87,1.313h4.398c-0.426-0.63-0.749-1.04-1.125-1.415l0.836-0.546
		c0.459,0.495,1.005,1.209,1.518,1.96h3.101c0.716,0,1.16-0.034,1.688-0.102v1.091c-0.495-0.068-0.818-0.086-1.603-0.086h-4.023
		v1.279h3.307c0.683,0,1.006-0.017,1.534-0.102v1.056c-0.477-0.068-0.784-0.085-1.534-0.085h-3.307v1.279h3.271V18.905z
		 M59.872,23.185c0.63,0,1.057-0.018,1.466-0.069c-0.068,0.443-0.085,0.835-0.085,1.467v2.062c0,0.631,0.033,1.075,0.102,1.554
		h-1.193V27.36h-9.358v0.818h-1.176c0.068-0.426,0.101-0.954,0.101-1.552v-2.063c0-0.528-0.033-0.988-0.085-1.448
		c0.41,0.052,0.818,0.068,1.448,0.068L59.872,23.185L59.872,23.185z M60.162,26.407v-2.269h-9.358v2.269H60.162z M51.18,15.479
		v1.279h4.175v-1.279H51.18z M55.355,17.627H51.18v1.279h4.175V17.627z M51.18,19.758v1.398h4.175v-1.398H51.18z"/>
	<path fill="#A3A3A3" d="M72.172,25.231c0.41-0.087,0.598-0.121,1.21-0.273v0.887c-0.357,0.067-0.749,0.152-1.21,0.256v0.597
		c0,0.768,0.019,1.159,0.103,1.586H71.1c0.067-0.41,0.101-0.837,0.101-1.586v-0.411c-0.887,0.172-2.112,0.376-3.373,0.546
		c-1.757,0.24-2.012,0.274-2.678,0.426l-0.271-1.124c0.118,0,0.221,0,0.271,0c0.324,0,0.784-0.034,1.603-0.102v-5.796h-0.341
		c-0.647,0-1.007,0.018-1.533,0.103v-1.107c0.408,0.085,0.8,0.102,1.552,0.102h12.237c0.768,0,1.142-0.017,1.585-0.102v1.107
		c-0.528-0.085-0.902-0.103-1.567-0.103h-6.513V25.231z M78.242,17.031c0,0.613,0.017,0.92,0.067,1.347
		c-0.545-0.052-1.09-0.068-1.755-0.068h-7.807c-0.751,0-1.228,0.017-1.841,0.068c0.051-0.392,0.068-0.802,0.068-1.347v-2.318
		c0-0.562-0.018-0.971-0.068-1.363c0.58,0.051,1.075,0.068,1.858,0.068h7.703c0.786,0,1.263-0.017,1.842-0.068
		c-0.052,0.409-0.068,0.75-0.068,1.363V17.031L78.242,17.031z M67.759,20.236v1.209h3.442v-1.209H67.759z M67.759,22.247v1.261
		h3.442v-1.261H67.759z M67.759,24.309v1.62c1.294-0.172,2.505-0.342,3.442-0.512v-1.108H67.759z M67.98,15.479h9.255v-1.192H67.98
		V15.479z M67.98,17.491h9.255v-1.192H67.98V17.491z M79.265,21.991c-0.12,0.17-0.171,0.256-0.307,0.494
		c-0.818,1.433-1.382,2.231-2.098,2.933c0.904,0.732,1.91,1.261,3.291,1.737c-0.291,0.342-0.41,0.495-0.647,0.938
		c-1.45-0.613-2.489-1.229-3.358-2.013c-1.041,0.871-1.604,1.229-2.949,1.875c-0.221-0.409-0.34-0.562-0.665-0.869
		c1.363-0.562,2.029-0.937,2.934-1.671c-0.818-0.852-1.314-1.687-1.876-3.119c-0.324,0.018-0.478,0.034-0.835,0.068v-1.007
		c0.392,0.053,0.768,0.069,1.449,0.069h3.17c0.631,0,1.041-0.018,1.296-0.069L79.265,21.991z M74.542,22.298
		c0.478,1.123,0.887,1.737,1.602,2.488c0.751-0.769,1.124-1.296,1.79-2.488H74.542z"/>
	<path fill="#A3A3A3" d="M95.298,14.167c0.717,0,1.159-0.034,1.688-0.103v1.125c-0.545-0.068-1.006-0.085-1.688-0.085H83.827
		c-0.664,0-1.16,0.017-1.688,0.085v-1.125c0.494,0.068,0.989,0.103,1.721,0.103h5.113c-0.221-0.307-0.356-0.478-0.784-0.989
		l0.955-0.545c0.393,0.494,0.409,0.494,1.091,1.535L95.298,14.167L95.298,14.167z M82.701,22.229c0-0.597-0.017-1.021-0.066-1.533
		c0.494,0.052,0.972,0.067,1.688,0.067h10.568c0.834,0,1.209-0.016,1.652-0.067c-0.052,0.528-0.068,0.903-0.068,1.501v4.517
		c0,0.579-0.102,0.869-0.392,1.074c-0.272,0.187-0.546,0.222-1.466,0.222c-0.41,0-0.631,0-1.585-0.053
		c-0.036-0.459-0.086-0.664-0.223-1.057c0.683,0.102,1.313,0.153,1.943,0.153c0.614,0,0.683-0.033,0.683-0.392v-4.994H83.759v4.91
		c0,0.749,0.017,1.16,0.102,1.738h-1.262c0.068-0.46,0.103-1.058,0.103-1.721V22.229L82.701,22.229z M84.969,17.44
		c0-0.544-0.017-0.937-0.052-1.296c0.443,0.051,0.888,0.068,1.619,0.068h6.325c0.664,0,0.972-0.018,1.448-0.068
		c-0.034,0.494-0.051,0.732-0.051,1.313v0.92c0,0.749,0,0.954,0.051,1.328c-0.493-0.05-0.835-0.067-1.567-0.067h-6.291
		c-0.647,0-0.989,0.018-1.534,0.067c0.035-0.356,0.052-0.664,0.052-1.328V17.44z M86.01,18.769h7.209v-1.67H86.01V18.769z
		 M92.962,24.99c0,0.614,0.019,0.871,0.053,1.211c-0.444-0.035-0.972-0.051-1.569-0.051h-4.022c-0.357,0-1.192,0.033-1.38,0.068
		c0.034-0.495,0.052-0.785,0.052-1.381v-0.87c0-0.579-0.018-0.887-0.052-1.244c0.392,0.034,0.75,0.052,1.38,0.052h4.091
		c0.649,0,1.057-0.018,1.501-0.052c-0.034,0.341-0.053,0.597-0.053,1.16V24.99z M87.1,25.296h4.875v-1.67H87.1V25.296z"/>
</g>
<text transform="matrix(1 0 0 1 39.3335 -42.3335)" font-family="'HiraginoSansGB-W3-GBpc-EUC-H'" font-size="18">销售最高</text>
</svg>
