<?xml version="1.0" encoding="utf-8"?>
<!-- Generator: Adobe Illustrator 16.0.0, SVG Export Plug-In . SVG Version: 6.00 Build 0)  -->
<!DOCTYPE svg PUBLIC "-//W3C//DTD SVG 1.1//EN" "http://www.w3.org/Graphics/SVG/1.1/DTD/svg11.dtd">
<svg version="1.1" id="图层_1" xmlns="http://www.w3.org/2000/svg" xmlns:xlink="http://www.w3.org/1999/xlink" x="0px" y="0px"
	 width="93px" height="25px" viewBox="0 0 93 25" enable-background="new 0 0 93 25" xml:space="preserve">
<g>
	<g>
		<path fill="#B02F4B" d="M19.516,59.274l0.649-0.84H9.88H9.383l0.086-0.49l0.046-0.261l0.061-0.345h0.351h11.136h0.215l0.091-0.118
			l-0.021,0.118h0.212l-0.086,0.489l-0.046,0.262l-0.209,1.185h3.307l0.846-4.798H6.796L5.95,59.274H19.516z M9.811,56.009
			l0.057-0.326l0.061-0.345h0.35h11.137h0.498l-0.086,0.49l-0.058,0.326l-0.061,0.345h-0.35H10.222H9.724L9.811,56.009z"/>
		<path fill="#B02F4B" d="M15.979,63.581h5.505h0.668l-0.293,0.601c-0.346,0.709-0.863,1.321-1.626,1.928l-0.295,0.234l-0.263-0.271
			c-0.404-0.415-0.693-0.869-0.851-1.331h-2.49c0.185,0.806,0.584,1.574,1.17,2.243l0.396,0.452l-0.562,0.213
			c-0.604,0.23-1.204,0.424-1.788,0.579l-0.264,1.497c1.459-0.221,2.81-0.587,4.021-1.09l0.179-0.074l0.172,0.088
			c1.244,0.639,2.662,1.027,4.124,1.131l0.274-1.557c-0.654-0.139-1.301-0.336-1.892-0.578l-0.63-0.258l0.516-0.444
			c1.331-1.148,2.273-2.626,2.806-4.399h-8.695L15.979,63.581z"/>
		<path fill="#B02F4B" d="M4.643,61.384h0.438h0.498l-0.086,0.49l-1.063,6.024l-0.061,0.346H4.018h-0.52l-0.183,1.035h6.637h0.498
			l-0.086,0.49l-0.013,0.075h2.85l0.039-0.221l0.061-0.345h0.351h0.302l0.183-1.035H13.98h-0.498l0.086-0.49l1.062-6.025
			l0.061-0.345h0.35h10.221l0.163-0.926H4.806L4.643,61.384z M8.211,62.49l0.134-0.762l0.061-0.345h0.351h2.588h0.498l-0.086,0.49
			l-0.134,0.762l-0.061,0.345h-0.35H8.622H8.125L8.211,62.49z M7.747,65.122l0.138-0.783l0.061-0.345h0.35h2.588h0.498l-0.086,0.49
			l-0.138,0.783l-0.061,0.345h-0.351H8.158H7.66L7.747,65.122z M7.283,67.754l0.138-0.783l0.061-0.345h0.351h2.588h0.498
			l-0.086,0.49l-0.138,0.782l-0.061,0.346h-0.351H7.694H7.196L7.283,67.754z"/>
	</g>
	<g>
		<polygon fill="#B02F4B" points="46.243,60.318 46.593,60.318 47.222,60.318 47.432,59.131 42.252,59.131 41.754,59.131 
			41.841,58.641 42.301,56.03 42.362,55.686 42.712,55.686 47.485,55.686 48.021,54.672 39.843,54.672 37.496,67.986 37.435,68.33 
			37.084,68.33 36.847,68.33 36.588,69.801 39.873,69.801 41.484,60.663 41.545,60.318 41.895,60.318 43.026,60.318 43.524,60.318 
			43.438,60.809 41.852,69.801 44.571,69.801 46.182,60.663 		"/>
		<polygon fill="#B02F4B" points="35.113,69.244 35.159,68.785 35.57,64.677 33.645,64.677 33.097,69.801 35.021,69.801 
			35.397,69.244 		"/>
		<path fill="#B02F4B" d="M32.697,63.255h0.35h3.586l0.179-1.014h-3.439h-0.498l0.086-0.49l0.215-1.218l0.061-0.346h0.351h3.695
			l0.175-0.992h-1.33h-0.71l0.346-0.62l1.018-1.827l0.12-0.214h0.245h0.672l0.175-0.992h-3.004h-0.498l0.086-0.49l0.102-0.575h-3.48
			l-0.127,0.721l-0.061,0.345h-0.35h-3.152l-0.175,0.991h0.503h0.337l0.071,0.33l0.396,1.826l0.109,0.506h-0.518h-1.477
			l-0.175,0.992h3.548h0.498l-0.086,0.49l-0.215,1.218l-0.061,0.346h-0.35h-3.587l-0.179,1.014h3.439h0.498L30,63.744l-0.875,4.959
			l-0.061,0.346h-0.351h-0.151l0.194,0.752h2.785l1.094-6.201L32.697,63.255z M31.242,59.195l-0.068-0.334L30.8,57.035l-0.103-0.501
			h0.512h2.588h0.711l-0.346,0.62l-1.018,1.827l-0.119,0.214h-0.246h-1.196H31.242z"/>
		<polygon fill="#B02F4B" points="28.026,66.973 28.044,67.042 28.626,64.677 26.722,64.677 25.648,68.929 25.568,69.244 
			25.243,69.244 25.208,69.244 25.388,69.801 27.364,69.801 27.64,68.623 		"/>
	</g>
	<polygon fill="#B02F4B" points="59.469,58.064 58.972,58.064 59.059,57.575 59.615,54.411 56.505,54.411 54.085,68.139 
		54.023,68.483 53.674,68.483 46.825,68.483 46.634,69.563 67.406,69.563 67.597,68.483 57.633,68.483 57.135,68.483 57.221,67.993 
		58.689,59.663 58.75,59.318 59.102,59.318 68.213,59.318 68.434,58.064 	"/>
	<g>
		<polygon fill="#B02F4B" points="88.566,68.939 88.239,68.939 88.162,68.621 87.747,66.917 84.557,66.917 85.203,69.692 
			88.314,69.692 88.633,68.939 		"/>
		<polygon fill="#B02F4B" points="70.762,66.917 69.7,68.733 69.579,68.939 69.34,68.939 69.07,68.939 69.122,69.692 72.213,69.692 
			73.84,66.917 		"/>
		<polygon fill="#B02F4B" points="81.092,65.582 81.442,65.582 89.771,65.582 89.961,64.503 81.78,64.503 81.282,64.503 
			81.369,64.013 81.501,63.264 78.238,63.264 78.08,64.158 78.02,64.503 77.669,64.503 69.363,64.503 69.173,65.582 77.332,65.582 
			77.829,65.582 77.743,66.071 77.078,69.845 80.341,69.845 81.031,65.927 		"/>
		<polygon fill="#B02F4B" points="85.611,61.841 86.249,60.979 84.707,60.979 84.209,60.979 84.296,60.489 85.021,56.379 
			85.082,56.033 85.432,56.033 87.803,56.033 88.301,56.033 88.214,56.523 87.276,61.841 89.995,61.841 91.205,54.977 
			82.854,54.977 81.643,61.841 		"/>
		<polygon fill="#B02F4B" points="73.146,55.607 72.865,55.607 71.105,55.607 70.919,56.664 72.096,56.664 72.711,56.664 
			72.484,57.236 71.039,60.868 70.934,61.132 70.65,61.132 70.408,61.132 70.434,61.971 72.991,61.971 75.082,56.922 75.188,56.664 
			75.468,56.664 77.055,56.664 77.553,56.664 77.467,57.154 76.842,60.699 76.781,61.045 76.43,61.045 76.059,61.045 76.216,61.928 
			79.365,61.928 80.48,55.607 76.236,55.607 75.604,55.607 75.852,55.026 76.086,54.477 73.606,54.477 73.252,55.348 		"/>
	</g>
</g>
<g>
	<g>
		<polygon fill="#B02F4B" stroke="#FFFFFF" stroke-width="0.25" stroke-miterlimit="10" points="16.182,36.105 13.717,36.105 
			13.573,39.381 16.319,39.381 16.631,38.65 16.479,38.65 16.038,38.65 16.063,38.209 		"/>
		<polygon fill="#B02F4B" stroke="#FFFFFF" stroke-width="0.25" stroke-miterlimit="10" points="8.288,49.83 7.79,49.83 
			7.876,49.34 8.498,45.815 8.559,45.471 8.909,45.471 10.777,45.471 10.968,44.392 9.247,44.392 8.749,44.392 8.835,43.902 
			9.284,41.357 9.345,41.013 9.695,41.013 11.498,41.013 11.685,39.955 4.485,39.955 4.298,41.013 5.933,41.013 6.43,41.013 
			6.344,41.502 5.895,44.047 5.834,44.392 5.484,44.392 3.637,44.392 3.447,45.471 5.146,45.471 5.644,45.471 5.558,45.961 
			4.685,50.908 9.243,50.908 9.813,49.83 		"/>
		<polygon fill="#B02F4B" stroke="#FFFFFF" stroke-width="0.25" stroke-miterlimit="10" points="22.534,38.65 22.222,38.65 
			21.91,38.65 21.964,39.381 24.725,39.381 25.718,36.105 23.287,36.105 22.622,38.352 		"/>
		<polygon fill="#B02F4B" stroke="#FFFFFF" stroke-width="0.25" stroke-miterlimit="10" points="12.08,38.207 12.243,37.279 
			9.152,37.279 8.424,37.279 8.792,36.652 9.391,35.627 6.256,35.627 4.865,38.207 		"/>
		<path fill="#B02F4B" stroke="#FFFFFF" stroke-width="0.25" stroke-miterlimit="10" d="M20.813,40.717h-0.498l0.086-0.49
			l0.83-4.708h-2.806l-0.856,4.853l-0.061,0.345h-0.351h-4.086l-1.793,10.171h2.806l0.388-2.2l0.061-0.345h0.35h5.242h0.498
			l-0.086,0.49l-0.165,0.936l-0.061,0.345h-0.351H19.47l0.083,0.774h3.407l1.793-10.17H20.813z M21.132,45.461l-0.272,1.544
			l-0.061,0.345h-0.35h-5.242h-0.498l0.086-0.489l0.272-1.545l0.061-0.345h0.35h5.242h0.498L21.132,45.461z M21.708,42.198
			l-0.253,1.436l-0.061,0.345h-0.35h-5.242h-0.498l0.086-0.49l0.253-1.435l0.061-0.346h0.35h5.242h0.498L21.708,42.198z"/>
	</g>
	<g>
		<polygon fill="#B02F4B" stroke="#FFFFFF" stroke-width="0.25" stroke-miterlimit="10" points="26.241,46.459 25.475,50.8 
			40.177,50.8 40.848,49.808 29.171,49.808 28.673,49.808 28.76,49.317 28.994,47.991 29.055,47.646 29.405,47.646 41.868,47.646 
			42.366,47.646 42.28,48.136 42.045,49.463 41.81,50.8 44.92,50.8 45.686,46.459 		"/>
		<path fill="#B02F4B" stroke="#FFFFFF" stroke-width="0.25" stroke-miterlimit="10" d="M40.362,36.301h-0.498l0.086-0.49
			l0.047-0.271h-2.936l-0.074,0.416l-0.061,0.345h-0.351h-4.981h-0.762l0.41-0.642l0.131-0.206h-2.734l-1.59,2.381l-0.124,0.186
			h-0.223H26.57l0.02,0.622h0.706h0.498l-0.086,0.49l-1.08,6.122h18.418l0.784-1.188h-6.837h-0.498l0.086-0.49l0.092-0.521
			l0.061-0.345h0.35h7.262l0.21-1.188h-7.116h-0.498l0.086-0.49l0.104-0.588l0.061-0.344h0.351h7.262l0.209-1.188h-7.115h-0.498
			l0.087-0.49l0.104-0.587l0.061-0.345h0.351h7.263l0.209-1.188H40.362z M35.711,43.199l-0.092,0.521l-0.061,0.345h-0.35h-4.938
			h-0.498l0.086-0.49l0.092-0.521l0.061-0.345h0.351H35.3h0.498L35.711,43.199z M36.171,40.589l-0.104,0.587l-0.061,0.346h-0.35
			h-4.938h-0.498l0.086-0.49l0.104-0.588l0.061-0.344h0.35h4.938h0.498L36.171,40.589z M36.632,37.979l-0.104,0.588l-0.061,0.345
			h-0.35H31.18h-0.498l0.086-0.49l0.104-0.587l0.061-0.345h0.351h4.938h0.498L36.632,37.979z"/>
	</g>
	<g>
		<path fill="#B02F4B" stroke="#FFFFFF" stroke-width="0.25" stroke-miterlimit="10" d="M58.819,44.623h5.505h0.669l-0.294,0.601
			c-0.346,0.709-0.863,1.321-1.625,1.928l-0.296,0.234l-0.263-0.271c-0.404-0.415-0.693-0.869-0.852-1.331h-2.49
			c0.186,0.807,0.584,1.574,1.17,2.243l0.396,0.452l-0.562,0.214c-0.604,0.229-1.204,0.423-1.788,0.578l-0.264,1.498
			c1.459-0.222,2.81-0.587,4.021-1.091l0.179-0.074l0.172,0.088c1.244,0.639,2.662,1.027,4.124,1.131l0.274-1.557
			c-0.654-0.139-1.301-0.335-1.892-0.578l-0.63-0.258l0.516-0.444c1.332-1.147,2.273-2.626,2.807-4.399h-8.695L58.819,44.623z"/>
		<path fill="#B02F4B" stroke="#FFFFFF" stroke-width="0.25" stroke-miterlimit="10" d="M62.355,40.316l0.65-0.84H52.721h-0.498
			l0.086-0.49l0.047-0.261l0.061-0.345h0.35h11.137H64.4l-0.087,0.49l-0.255,1.445h3.307l0.846-4.798H49.637l-0.846,4.798H62.355z
			 M52.65,37.051l0.058-0.326l0.062-0.345h0.35h11.137h0.498l-0.087,0.49l-0.058,0.326l-0.061,0.345h-0.352H53.062h-0.498
			L52.65,37.051z"/>
		<path fill="#B02F4B" stroke="#FFFFFF" stroke-width="0.25" stroke-miterlimit="10" d="M47.482,42.426h0.438h0.498l-0.086,0.49
			L47.27,48.94l-0.061,0.346h-0.351h-0.52l-0.182,1.035h6.637h0.497l-0.086,0.49l-0.013,0.075h2.85l0.038-0.221l0.062-0.345h0.35
			h0.303l0.182-1.035H56.82h-0.498l0.087-0.49l1.062-6.025l0.062-0.345h0.351h10.221l0.162-0.926H47.646L47.482,42.426z
			 M51.051,43.532l0.135-0.761l0.061-0.346h0.35h2.589h0.497l-0.086,0.49l-0.134,0.762L54.4,44.022h-0.35h-2.588h-0.498
			L51.051,43.532z M50.587,46.164l0.138-0.783l0.061-0.345h0.352h2.588h0.498l-0.087,0.49l-0.138,0.783l-0.061,0.345h-0.351h-2.589
			H50.5L50.587,46.164z M50.123,48.796l0.138-0.783l0.062-0.345h0.35h2.588h0.498l-0.086,0.49l-0.139,0.782l-0.061,0.346h-0.35
			h-2.589h-0.497L50.123,48.796z"/>
	</g>
	<g>
		<polygon fill="#B02F4B" stroke="#FFFFFF" stroke-width="0.25" stroke-miterlimit="10" points="82.894,36.236 82.396,36.236 
			82.482,35.746 82.533,35.453 79.031,35.453 78.955,35.891 78.894,36.236 78.543,36.236 70.215,36.236 70.037,37.25 90.896,37.25 
			91.074,36.236 		"/>
		<polygon fill="#B02F4B" stroke="#FFFFFF" stroke-width="0.25" stroke-miterlimit="10" points="69.348,43.5 68.068,50.757 
			71.31,50.757 72.364,44.772 72.426,44.427 72.775,44.427 85.5,44.427 85.998,44.427 85.911,44.917 85.025,49.941 84.964,50.286 
			84.613,50.286 84.427,50.286 84.578,50.757 88.101,50.757 89.38,43.5 		"/>
		<polygon fill="#B02F4B" stroke="#FFFFFF" stroke-width="0.25" stroke-miterlimit="10" points="73.986,45.937 73.263,50.038 
			78.732,50.038 79.422,49.112 76.643,49.112 76.145,49.112 76.231,48.622 76.48,47.208 76.541,46.863 76.893,46.863 80.503,46.863 
			81,46.863 80.914,47.353 80.664,48.767 80.44,50.038 83.181,50.038 83.904,45.937 		"/>
		<polygon fill="#B02F4B" stroke="#FFFFFF" stroke-width="0.25" stroke-miterlimit="10" points="70.566,42.144 83.628,42.144 
			84.215,41.217 74.707,41.217 74.209,41.217 74.296,40.727 74.441,39.9 74.502,39.555 74.853,39.555 85.119,39.555 85.617,39.555 
			85.53,40.045 85.16,42.144 88.662,42.144 89.282,38.629 71.186,38.629 		"/>
	</g>
</g>
<g>
	<path fill="#B02F4B" d="M7.104-22.163c0.411,0,0.631,0.199,0.659,0.595c0,0.255-0.106,0.617-0.319,1.084
		c-0.057,0.128-0.106,0.249-0.149,0.362c1.021,0.042,1.921,0.184,2.701,0.425c0.609,0.198,0.921,0.482,0.936,0.85
		c-0.042,0.497-0.276,0.773-0.702,0.83c-0.142,0-0.369-0.05-0.681-0.149c-0.567-0.17-1.411-0.283-2.53-0.34
		c-0.156-0.014-0.284-0.042-0.383-0.085c-0.411,0.964-0.751,1.822-1.021,2.573c0.099-0.014,0.191-0.021,0.276-0.021
		c1.63,0.028,2.998,0.142,4.104,0.34c0.425,0.099,0.652,0.326,0.68,0.68c-0.071,0.482-0.418,0.737-1.042,0.766
		c-0.44-0.015-0.851-0.029-1.233-0.043c-0.015,0.085-0.029,0.178-0.042,0.276c-0.114,0.879-0.213,1.694-0.298,2.445
		c0.411-0.015,0.851-0.035,1.318-0.063c1.049,0,1.595,0.255,1.637,0.766c-0.028,0.467-0.291,0.723-0.787,0.765
		c-0.964,0-1.737,0.015-2.318,0.043c-0.099,1.007-0.149,1.85-0.149,2.53c0,0.524,0.078,0.871,0.234,1.042
		c0.128,0.198,0.305,0.298,0.532,0.298c0.142,0,0.581-0.128,1.318-0.383C9.96-6.606,10.087-6.62,10.229-6.62
		c0.368,0.029,0.574,0.234,0.617,0.617c-0.029,0.34-0.121,0.595-0.276,0.766C9.762-4.87,9.166-4.678,8.784-4.663H8.528
		c-0.68,0-1.226-0.207-1.637-0.617C6.466-5.706,6.253-6.435,6.253-7.47v-0.573c0-0.539,0.028-1.17,0.085-1.893
		c-0.029,0-0.05,0-0.064,0c-0.51,0.099-0.893,0.162-1.148,0.191C4.545-9.774,4.233-10.029,4.19-10.51
		c0.028-0.369,0.255-0.624,0.681-0.766c0.34-0.086,0.872-0.156,1.595-0.213c0.127-1.134,0.262-2.119,0.404-2.956
		c-0.454-0.057-0.865-0.113-1.233-0.17c-0.185-0.042-0.319-0.113-0.404-0.212c-0.284,0.411-0.631,0.631-1.042,0.659
		c-0.369-0.027-0.56-0.255-0.574-0.68c0-0.34,0.113-0.808,0.34-1.403c0.992-2.622,1.758-4.486,2.296-5.592
		C6.494-22.057,6.777-22.163,7.104-22.163z M16.523-22.248c0.468,0.014,0.73,0.298,0.787,0.851
		c-0.014,0.199-0.064,0.744-0.149,1.637c-0.071,0.893-0.106,1.822-0.106,2.786h0.659c1.091,0,1.999,0.191,2.722,0.574
		c0.808,0.425,1.212,1.127,1.212,2.105v0.893c0,1.348-0.376,4.232-1.127,8.654c-0.057,0.553-0.305,0.836-0.744,0.851
		c-0.482-0.015-0.737-0.298-0.766-0.851c0-0.326,0.163-1.523,0.489-3.594c0.411-2.522,0.617-4.33,0.617-5.422
		c0-0.751-0.234-1.233-0.702-1.446c-0.397-0.227-1.049-0.34-1.956-0.34c-0.638,0-1.864,0.354-3.679,1.063
		c-0.199,0.113-0.375,0.184-0.531,0.213c-0.015,0.213-0.029,0.418-0.043,0.616c-0.014,0.341-0.028,0.652-0.042,0.936
		c0.042-0.014,0.085-0.021,0.128-0.021c1.757,0.027,3.232,0.148,4.423,0.361c0.439,0.099,0.666,0.318,0.68,0.658
		c-0.042,0.482-0.376,0.738-1,0.766c-1.744-0.027-3.168-0.127-4.274-0.297v1.147c0,0.411,0.007,0.802,0.021,1.17
		c0.595-0.171,1.807-0.276,3.636-0.319c0.992,0,1.51,0.263,1.552,0.787c-0.028,0.411-0.262,0.638-0.702,0.68
		c-1.8,0-2.92,0.057-3.359,0.171c-0.425,0.071-0.751,0.12-0.978,0.148h-0.064c0.042,0.482,0.099,0.922,0.17,1.318
		c0.113,0.624,0.17,1.12,0.17,1.489c-0.057,0.438-0.284,0.672-0.681,0.701c-0.354-0.015-0.617-0.163-0.787-0.447
		c-0.241-1.488-0.376-3.387-0.404-5.698c0-2.169,0.056-3.954,0.17-5.358c0.198-0.369,0.454-0.56,0.766-0.574
		c0.269,0.014,0.446,0.085,0.531,0.212c0.057-0.014,0.099-0.028,0.128-0.042c0.864-0.396,1.623-0.68,2.275-0.851
		c-0.028-0.099-0.042-0.184-0.042-0.255c0-1.049,0.078-2.523,0.234-4.423C15.843-21.936,16.098-22.22,16.523-22.248z M12.356-20.823
		c0.425,0.028,0.708,0.206,0.85,0.531c0.199,0.624,0.425,1.184,0.681,1.68c0.156,0.227,0.241,0.425,0.255,0.595
		c-0.015,0.482-0.263,0.737-0.745,0.766c-0.34-0.014-0.624-0.177-0.851-0.489c-0.567-1.12-0.85-1.893-0.85-2.318
		C11.71-20.526,11.931-20.781,12.356-20.823z M20.712-21.228c0.468,0,0.715,0.227,0.744,0.681c0,0.085-0.057,0.206-0.17,0.361
		c-0.51,0.836-0.879,1.503-1.105,1.999c-0.241,0.44-0.574,0.667-1,0.681c-0.439-0.014-0.673-0.241-0.702-0.681
		c0-0.127,0.064-0.304,0.191-0.531c0.51-1.021,0.907-1.75,1.191-2.19C20.103-21.121,20.386-21.228,20.712-21.228z"/>
	<path fill="#B02F4B" d="M31.322-21.674c0.539,0.028,0.822,0.255,0.851,0.68c0,0.071-0.014,0.127-0.042,0.17h3.615
		c-0.127-0.156-0.248-0.305-0.361-0.447c-0.085-0.142-0.127-0.305-0.127-0.489c0.028-0.425,0.312-0.645,0.85-0.659
		c0.184,0,0.404,0.113,0.659,0.34c0.184,0.185,0.39,0.475,0.617,0.872c0.099,0.156,0.163,0.291,0.191,0.404
		c1.715,0.014,3.324,0.036,4.827,0.064c0.539,0.212,0.815,0.496,0.83,0.851c-0.042,0.454-0.263,0.709-0.659,0.765
		c-0.51,0-1.304-0.014-2.381-0.042c-0.822-0.014-1.801-0.035-2.935-0.063c0.028,0.354,0.057,0.843,0.085,1.467
		c1.191-0.071,2.502-0.12,3.934-0.148c0.822,0.014,1.255,0.234,1.297,0.659c-0.029,0.468-0.284,0.723-0.766,0.765
		c-1.701,0.042-3.175,0.106-4.423,0.191c0.028,0.667,0.05,1.254,0.064,1.765c2.495,0.042,3.948,0.071,4.359,0.085
		c0.482,0.17,0.737,0.425,0.766,0.766c-0.042,0.439-0.298,0.673-0.766,0.701c-0.751,0-2.183-0.021-4.295-0.064
		c0.014,0.482,0.021,0.837,0.021,1.063c0,0.142-0.014,0.27-0.042,0.383c3.062,0.028,4.841,0.05,5.337,0.063
		c0.539,0.17,0.822,0.454,0.851,0.852c-0.042,0.425-0.326,0.645-0.851,0.658c-1.488,0-5.458-0.027-11.907-0.085
		c-0.553-0.085-0.836-0.312-0.851-0.681c0.014-0.538,0.347-0.821,1-0.85c0.68,0,2.325,0.014,4.933,0.042v-0.042
		c-0.015-0.511-0.021-0.985-0.021-1.426c-1.361-0.027-2.913-0.056-4.657-0.084c-0.482-0.1-0.737-0.334-0.765-0.702
		c0.028-0.481,0.347-0.737,0.957-0.766c0.596,0,2.07,0.021,4.423,0.064c-0.014-0.638-0.028-1.176-0.042-1.616
		c-0.595,0.071-1.12,0.142-1.574,0.213c-1.035,0.17-2.034,0.276-2.998,0.319c-0.553-0.028-0.836-0.283-0.851-0.766
		c0-0.368,0.312-0.595,0.936-0.68c1.091-0.241,2.573-0.432,4.444-0.574c-0.014-0.468-0.029-0.793-0.042-0.978
		c-0.014-0.241-0.029-0.447-0.042-0.617c-1.318-0.014-2.8-0.028-4.444-0.042c-0.326-0.028-0.553-0.113-0.68-0.255
		c-0.794,0.525-1.481,0.971-2.063,1.34c0.014,0.042,0.021,0.078,0.021,0.106c0.198,2.75,0.468,5.018,0.808,6.804
		c0.085,0.411,0.127,0.73,0.127,0.957c-0.028,0.425-0.248,0.652-0.659,0.68c-0.425-0.014-0.709-0.162-0.851-0.446
		c-0.269-1.29-0.496-2.856-0.68-4.699c-0.099-1.091-0.17-1.927-0.213-2.509c-0.581,0.34-0.936,0.51-1.063,0.51
		c-0.496,0-0.751-0.234-0.766-0.702c0.014-0.468,0.234-0.801,0.659-1C28.998-20.575,30.784-21.631,31.322-21.674z M28.112-8.809
		c0.17,0.014,0.312,0.057,0.425,0.127c0.581-0.156,1.354-0.291,2.317-0.404c1.361-0.155,2.927-0.24,4.699-0.255h1.744
		c1.956,0,3.409,0.255,4.359,0.766c0.921,0.524,1.389,1.169,1.403,1.935v0.447c0,0.638-0.361,1.19-1.084,1.658
		c-1.035,0.609-3.168,0.936-6.4,0.979h-2.02c-1.9,0-3.452-0.149-4.657-0.447c-1.503-0.453-2.254-1.212-2.254-2.275v-0.233
		c0-0.538,0.234-1.112,0.702-1.722C27.488-8.59,27.743-8.782,28.112-8.809z M37.212-7.874c-3.303,0-5.762,0.177-7.378,0.531
		c-0.681,0.142-1.148,0.213-1.403,0.213h-0.106c-0.085,0.198-0.127,0.368-0.127,0.51c0,0.639,0.454,1.063,1.361,1.275
		c0.921,0.241,2.821,0.361,5.699,0.361c1.403-0.014,2.636-0.063,3.7-0.148c0.779-0.043,1.403-0.177,1.871-0.404
		c0.482-0.212,0.723-0.488,0.723-0.828c0-0.496-0.255-0.844-0.766-1.043C39.977-7.717,38.786-7.874,37.212-7.874z"/>
	<path fill="#B02F4B" d="M64.068-13.678c0.963,0.07,1.445,0.326,1.445,0.765c-0.014,0.425-0.27,0.659-0.766,0.702
		c-3.332,0-6.201,0.028-8.611,0.084l0.021,0.021c0.127,0.256,0.191,0.532,0.191,0.83c0.07,1.517,0.135,2.934,0.191,4.252
		c0.537,0.029,0.807,0.248,0.807,0.66c-0.014,0.368-0.211,0.595-0.594,0.68c-0.057,0.015-0.107,0.029-0.15,0.043
		c0.016,0.113,0.021,0.22,0.021,0.318c0.029,0.496,0.043,0.894,0.043,1.191c-0.043,0.481-0.262,0.736-0.658,0.766
		c-0.383-0.029-0.639-0.228-0.766-0.596c-0.029-0.185-0.064-0.461-0.107-0.83c-0.014-0.155-0.021-0.305-0.021-0.445
		C54.52-5.11,53.811-4.975,52.99-4.833c-1.391,0.255-2.885,0.397-4.486,0.425c-0.383,0-0.681-0.057-0.894-0.17
		c-0.185-0.113-0.276-0.333-0.276-0.658c0.014-0.369,0.27-0.567,0.766-0.596c0.156-0.014,0.297-0.021,0.426-0.021
		c-0.016-0.028-0.021-0.049-0.021-0.064c-0.156-3.231-0.234-5.166-0.234-5.805v-0.105c-0.283,0.014-0.518,0.021-0.701,0.021
		c-0.469,0-0.724-0.221-0.766-0.66c0.028-0.383,0.284-0.638,0.766-0.766c2.025-0.141,4.408-0.248,7.143-0.318
		C57.604-13.636,60.723-13.678,64.068-13.678z M50.203-21.844c0.285,0,0.477,0.064,0.574,0.191c0.496-0.071,1.143-0.156,1.936-0.255
		c1.305-0.142,2.615-0.227,3.934-0.255h0.787c2.184,0,3.877,0.333,5.082,1c1.389,0.723,2.084,1.687,2.084,2.892v0.617
		c0,0.922-0.609,1.666-1.828,2.233c-1.531,0.694-3.445,1.049-5.742,1.063h-1.17c-2.182,0-3.99-0.319-5.422-0.957
		c-1.176-0.481-1.764-1.261-1.764-2.339v-0.276c0-0.836,0.198-1.935,0.596-3.296C49.48-21.638,49.793-21.844,50.203-21.844z
		 M55.01-6.726c-0.1-1.644-0.199-3.245-0.299-4.806c0.016-0.24,0.051-0.432,0.107-0.574c-0.326,0-0.639,0.008-0.936,0.021
		c-1.771,0.057-3.133,0.106-4.082,0.148c0.041,0.1,0.07,0.199,0.084,0.299c0.014,0.312,0.029,0.595,0.043,0.85h0.043
		c1.572,0.029,2.898,0.121,3.977,0.277c0.383,0.084,0.588,0.275,0.615,0.574c-0.043,0.425-0.326,0.652-0.85,0.68
		c-1.475-0.027-2.715-0.099-3.721-0.213c0.027,0.313,0.049,0.617,0.063,0.914c1.502,0,2.771,0.029,3.807,0.086
		c0.383,0.085,0.588,0.283,0.617,0.596c-0.043,0.41-0.326,0.631-0.852,0.658c-1.402-0.014-2.564-0.035-3.486-0.063
		c0.014,0.298,0.027,0.589,0.043,0.872c0.014,0.184,0.02,0.318,0.02,0.404C51.947-6.187,53.549-6.428,55.01-6.726z M57.285-20.632
		c-1.105,0-2.658,0.142-4.656,0.425c-0.781,0.142-1.434,0.22-1.957,0.234c-0.113,0.397-0.199,0.737-0.256,1.021
		c0.582,0.014,1.617,0.057,3.105,0.127c2.125,0.071,3.352,0.121,3.678,0.149c0.482,0.156,0.738,0.411,0.766,0.766
		c-0.043,0.425-0.297,0.645-0.766,0.659c-0.893,0-3.168-0.078-6.824-0.234c0.211,0.482,0.707,0.836,1.488,1.063
		c0.893,0.369,2.586,0.553,5.082,0.553c2.154-0.014,3.777-0.248,4.869-0.702c0.766-0.34,1.148-0.879,1.148-1.616
		c0-0.836-0.461-1.467-1.383-1.892C60.688-20.448,59.256-20.632,57.285-20.632z M62.451-11.127c0.695,0,1.27,0.213,1.723,0.639
		c0.439,0.425,0.66,0.936,0.66,1.53v0.276c0,0.426-0.17,0.865-0.512,1.318c-0.197,0.241-0.475,0.51-0.828,0.809
		c0.566,0.17,1.162,0.354,1.785,0.553c0.512,0.24,0.766,0.581,0.766,1.02c-0.07,0.397-0.297,0.625-0.68,0.682
		c-0.34-0.015-0.652-0.078-0.936-0.191c-0.965-0.299-1.822-0.574-2.574-0.83c-0.623,0.453-1.354,0.957-2.189,1.51
		c-0.27,0.113-0.467,0.17-0.596,0.17c-0.482-0.014-0.744-0.205-0.787-0.574c0-0.254,0.113-0.481,0.342-0.68
		c0.566-0.369,1.076-0.695,1.531-0.979c-0.908-0.326-1.609-0.596-2.105-0.808c-0.369-0.198-0.574-0.481-0.617-0.851
		c0.043-0.426,0.277-0.659,0.701-0.701c0.326,0,0.688,0.092,1.084,0.275c0.596,0.242,1.469,0.547,2.617,0.914
		c0.51-0.396,0.85-0.701,1.02-0.914c0.313-0.368,0.469-0.701,0.469-0.999c0-0.17-0.064-0.305-0.191-0.403
		c-0.17-0.143-0.369-0.213-0.596-0.213c-0.313,0-0.73,0.035-1.254,0.105c-0.809,0.086-1.779,0.248-2.914,0.489
		c-0.184,0.043-0.318,0.063-0.404,0.063c-0.467,0-0.723-0.191-0.766-0.574c0.014-0.383,0.205-0.666,0.574-0.85
		c0.412-0.142,1.014-0.283,1.809-0.426c1.105-0.227,1.99-0.348,2.656-0.361H62.451z"/>
	<path fill="#B02F4B" d="M77.188-22.695c0.469,0.029,0.779,0.206,0.936,0.532c0.143,0.354,0.326,0.688,0.553,1
		c0.072,0.071,0.113,0.121,0.129,0.149c1.955-0.028,3.805-0.064,5.549-0.106c0.666-0.014,1.254-0.021,1.766-0.021
		c0.566,0.015,0.85,0.241,0.85,0.681c-0.027,0.397-0.254,0.652-0.68,0.766c-1.148,0.057-3.537,0.127-7.166,0.212
		c-2.65,0.071-5.479,0.114-8.484,0.127c-0.426,0-0.744-0.063-0.957-0.191c-0.227-0.127-0.34-0.375-0.34-0.744
		c0.027-0.368,0.283-0.574,0.766-0.617c2.395-0.014,4.664-0.035,6.805-0.063c-0.285-0.454-0.426-0.772-0.426-0.957
		C76.514-22.397,76.748-22.652,77.188-22.695z M70.043-12.211c0.453,0.014,0.738,0.27,0.852,0.766c0,0.07,0.006,0.142,0.021,0.212
		c0.707-0.283,1.602-0.546,2.678-0.786c1.957-0.482,4.02-0.752,6.188-0.809h1c1.971,0,3.564,0.319,4.785,0.957
		c1.203,0.723,1.807,1.623,1.807,2.701v0.615c0,0.682-0.127,1.504-0.383,2.467c-0.256,0.865-0.488,1.488-0.701,1.871
		c-0.256,0.27-0.49,0.404-0.701,0.404c-0.539-0.014-0.822-0.241-0.852-0.68c0.014-0.284,0.086-0.561,0.213-0.83
		c0.596-1.403,0.893-2.509,0.893-3.316c0-1.063-0.375-1.736-1.127-2.021c-1.02-0.411-2.416-0.616-4.189-0.616
		c-2.154,0-4.918,0.418-8.291,1.254C71.652-9.837,71.242-9.745,71-9.745c0.1,1.588,0.227,2.955,0.383,4.104
		c0.07,0.354,0.107,0.631,0.107,0.829c-0.029,0.425-0.256,0.651-0.682,0.681c-0.426-0.015-0.709-0.164-0.85-0.447
		c-0.17-1.105-0.32-2.459-0.447-4.061c-0.113-1.488-0.17-2.424-0.17-2.807C69.369-11.928,69.604-12.183,70.043-12.211z
		 M72.064-18.272c0.268,0.015,0.459,0.092,0.572,0.234c1.688-0.354,3.262-0.56,4.721-0.617l1.361-0.021
		c2.637,0,4.416,0.22,5.338,0.659c0.863,0.454,1.311,1.063,1.34,1.829l0.041,0.404c0,0.865-0.34,1.446-1.02,1.744
		c-0.666,0.27-1.652,0.419-2.957,0.446h-6.188c-1.645,0-2.756-0.17-3.338-0.51c-0.652-0.383-0.979-1-0.979-1.85v-0.276
		c0-0.51,0.113-1.013,0.342-1.51C71.51-18.066,71.766-18.243,72.064-18.272z M79.207-17.251c-2.311,0.042-4.266,0.227-5.867,0.553
		c-0.326,0.085-0.582,0.127-0.766,0.127c-0.043,0.156-0.064,0.305-0.064,0.447c0,0.454,0.078,0.765,0.234,0.936
		c0.141,0.113,0.291,0.17,0.447,0.17h7.889c1.318,0,2.139-0.099,2.465-0.298c0.227-0.113,0.342-0.354,0.342-0.723
		s-0.242-0.659-0.725-0.872C82.609-17.138,81.291-17.251,79.207-17.251z M78.123-10.192c2.184,0,3.58,0.199,4.189,0.596
		c0.666,0.426,1,0.992,1,1.701v0.51c0,0.795-0.27,1.34-0.809,1.638c-0.949,0.624-2.467,0.936-4.551,0.936h-1.189
		c-1.434,0-2.475-0.22-3.127-0.659C73-5.911,72.68-6.548,72.68-7.385V-7.81c0-0.78,0.383-1.375,1.148-1.786
		c0.582-0.34,1.666-0.539,3.254-0.596H78.123z M77.336-6.28c1.588,0,2.885-0.148,3.893-0.446c0.367-0.099,0.553-0.425,0.553-0.978
		c0-0.469-0.205-0.766-0.617-0.894c-0.426-0.085-1.496-0.128-3.211-0.128s-2.793,0.107-3.232,0.319
		c-0.34,0.156-0.51,0.446-0.51,0.872c0,0.566,0.121,0.9,0.361,0.999C74.984-6.364,75.904-6.28,77.336-6.28z"/>
</g>
<g>
	<path fill="#B02F4B" d="M5.484-69.459c0.116,0.058,0.261,0.102,0.436,0.131l0.871,0.784c0.349,0.407,0.581,0.857,0.697,1.35
		l0.043,1.394l3.092,0.043l0.348-0.566h0.305l0.349,0.305l0.13,0.479l-0.174,0.174l-4.137,0.087
		c-0.232,0.697-0.436,1.394-0.609,2.09c-0.232,0.377-0.378,0.755-0.436,1.133h3.919l0.305-0.523
		c0.232-0.058,0.464,0.015,0.697,0.218c0.145,0.232,0.13,0.436-0.044,0.61c-0.871,0.145-1.742,0.188-2.613,0.131l-0.174,0.086
		l1.132,1.045l0.087,1.786h0.653c0.058-0.203,0.159-0.406,0.305-0.61h0.566l0.305,0.306c0.029,0.203,0,0.378-0.087,0.522
		c-0.552,0.232-1.103,0.305-1.655,0.218l-0.174,0.13v4.225l0.087,0.174l0.522-0.521h0.305V-54l-0.827,1.001
		c-0.378,0.35-0.77,0.378-1.176,0.088l-0.218-0.436c-0.146-1.597-0.276-3.208-0.392-4.834l-2.134-0.043l-0.261-0.131l0.087-0.088
		l2.265-0.261v-2.874c-0.552-0.029-1.104-0.072-1.655-0.131l-0.74,0.828c-0.291,0.232-0.581,0.377-0.871,0.436
		c-0.087-0.146-0.145-0.306-0.174-0.48c0.145-0.957,0.334-1.916,0.566-2.874L5.18-68.85l0.305-0.261
		C5.368-69.227,5.368-69.343,5.484-69.459z M5.528-68.022v0.392l0.043-0.349L5.528-68.022z M5.746-68.937L5.659-68.85l0.174,0.261
		h0.261L5.746-68.937z M5.746-62.144v0.131l0.087-0.088L5.746-62.144z M6.921-67.5v0.305l0.043-0.261L6.921-67.5z M7.008-66.977
		c-0.087,0.319-0.073,0.609,0.043,0.871l0.044-0.827L7.008-66.977z M11.058-58.964l-0.13,0.13l0.087,0.087l0.174-0.087
		L11.058-58.964z M11.189-66.019v0.218h0.218l-0.087-0.174L11.189-66.019z M12.365-66.237l1.48,0.871
		c0.349,0.494,0.45,1.06,0.305,1.698c-0.146,0.465-0.378,0.872-0.697,1.219c-0.146,0.087-0.261,0.059-0.349-0.087
		c-0.436-0.987-0.784-2.018-1.045-3.092c0-0.203,0.058-0.406,0.174-0.609H12.365z M12.321-65.714l0.087,0.174h0.174l-0.131-0.174
		H12.321z M14.934-69.938l1.568,0.958c0.522,0.871,0.711,1.873,0.566,3.005c-0.146,1.104-0.348,2.163-0.61,3.18
		c-0.174,0.639-0.174,1.219,0,1.741l2.09-0.087c0.377-0.377,0.842-0.624,1.394-0.74c0.377,1.916,0.494,3.904,0.349,5.966
		c-0.087,1.132-0.305,2.191-0.653,3.179c-0.291,0.116-0.537,0.072-0.74-0.131c-0.232-0.29-0.465-0.566-0.697-0.827v-0.261
		c0.232,0.058,0.45,0.014,0.653-0.131v-2.09c-1.394,0.203-2.773,0.261-4.137,0.174c-0.145,0.986-0.218,1.974-0.218,2.961
		l-0.13,0.305H14.15c-0.436-0.436-0.697-0.973-0.784-1.611c-0.291-1.828-0.552-3.672-0.784-5.53
		c-0.058-0.667-0.015-1.321,0.131-1.96c0.551,0.117,1.088,0.363,1.611,0.74c0.494,0.117,0.987,0.102,1.481-0.043l-0.349-0.305
		c-0.406-2.032-0.653-4.108-0.74-6.228c-0.058-0.552-0.029-1.074,0.087-1.568l0.087,0.522h0.087l0.043-0.435l0.174-0.131
		l-0.479-0.479l0.131-0.174H14.934z M12.757-65.366l0.13,0.13h0.174l-0.174-0.13H12.757z M12.844-61.577l-0.087,0.087l0.174,0.349
		l0.218-0.088l0.131,0.131l0.174,0.088v-0.131l-0.566-0.393L12.844-61.577z M12.975-60.75c-0.117,0.087-0.117,0.175,0,0.261
		l0.043-0.217L12.975-60.75z M13.062-60.358l-0.087,0.131l0.305,1.829h0.087c0-0.639-0.087-1.276-0.261-1.916L13.062-60.358z
		 M13.671-64.887v0.13l0.043-0.087L13.671-64.887z M13.671-64.19v0.13l0.043-0.087L13.671-64.19z M18.854-60.706
		c-1.452,0.116-2.889,0.145-4.312,0.087l-0.13,0.087l0.13,1.916h3.702c-0.146-0.058-0.204-0.174-0.174-0.348
		c0.232-0.029,0.479-0.015,0.74,0.043l0.087-1.742L18.854-60.706z M15.021-58.181c-0.174-0.029-0.319-0.014-0.436,0.043l0.087,1.481
		l0.087,0.174l1.829,0.044c0.551,0.029,1.089-0.044,1.611-0.218c-0.029-0.175,0.029-0.319,0.174-0.436l0.479-0.044v-1.002
		L15.021-58.181z M15.282-69.242l-0.043,0.087l0.174,0.522l0.305-0.349l-0.392-0.218L15.282-69.242z M16.197-68.632
		c-0.029,0.755,0.073,1.495,0.305,2.221h0.087l0.043-1.829l-0.348-0.348L16.197-68.632z M19.419-66.934l1.307,1.263l0.043,0.697
		l-0.349,0.61c-0.436,0.465-0.915,0.827-1.437,1.088c-0.319,0.059-0.595,0.029-0.827-0.087l-0.044-0.261
		c0.319-0.987,0.726-1.945,1.22-2.874c-0.174-0.145-0.204-0.305-0.087-0.479L19.419-66.934z M19.463-66.324l-0.305,1.263
		l0.087,0.087c0.174-0.348,0.319-0.74,0.436-1.176l-0.13-0.13L19.463-66.324z M19.376-53.564l-0.218,0.13v0.175l0.218,0.087
		l0.043-0.348L19.376-53.564z M19.463-58.398l-0.043,1.96h0.087v-1.916L19.463-58.398z M19.419-54.479v0.349h0.087v-0.349H19.419z
		 M19.594-61.359c-0.058,0.203-0.015,0.319,0.13,0.349v-0.349H19.594z M20.16-65.627v0.784c0.174-0.232,0.203-0.479,0.087-0.74
		L20.16-65.627z"/>
	<path fill="#B02F4B" d="M30.306-71.201l0.261,0.261l0.436,0.305c0.174,0.668,0.333,1.321,0.479,1.96
		c0,0.813-0.189,1.553-0.566,2.221c0.406,0,0.813-0.058,1.22-0.174l2.221-0.13l0.043-0.131c-0.406-0.929-0.683-1.916-0.827-2.961
		c0.348-0.029,0.711,0,1.088,0.087l0.784,0.392c0.319,0.319,0.595,0.682,0.827,1.088c0.029,0.494,0.014,0.958-0.043,1.394
		c1.422,0.116,2.845-0.014,4.268-0.392l0.218-0.653l0.348-0.261c0.291-0.058,0.566-0.015,0.828,0.13
		c0.145,0.232,0.174,0.465,0.087,0.697c-0.581,0.407-1.205,0.668-1.873,0.784c-1.597,0.204-3.179,0.32-4.747,0.349l0.566,0.479
		l0.392,0.61c-0.058,0.406,0.015,0.755,0.218,1.045l3.048-0.218l0.174-0.087c0.029-0.174,0.102-0.349,0.218-0.523
		c0.377-0.174,0.769-0.13,1.176,0.131c0.261,0.291,0.29,0.581,0.087,0.871c-1.539,0.261-3.078,0.406-4.616,0.436l-0.174,0.087v1.306
		h2.7l0.523-0.695l0.348-0.218l0.305,0.13c0.261,0.262,0.406,0.552,0.436,0.871l-0.218,0.305l-4.05,0.174
		c-0.058,0.727-0.102,1.438-0.131,2.135c1.597,0.029,3.208-0.072,4.834-0.305c0-0.232,0.116-0.422,0.348-0.566l0.392-0.088
		L42.5-60.14c0.174,0.348,0.145,0.652-0.087,0.914l-5.095,0.392c-2.178,0.146-4.341,0.103-6.489-0.13v-0.175l0.61-0.13l3.701-0.088
		l-0.305-0.697l-0.174-1.437c-1.045,0-2.061-0.072-3.048-0.218l-0.261-0.131l0.087-0.174h3.004l0.174-0.088
		c0.029-0.405,0-0.827-0.087-1.262c-1.394,0.087-2.758,0.073-4.094-0.043c-0.145-0.058-0.16-0.16-0.043-0.305l0.566-0.087
		l3.483-0.218c-0.058-0.697-0.087-1.408-0.087-2.134l-0.174-0.13c-1.162,0.145-2.323,0.188-3.484,0.13
		c-0.581,0.697-1.19,1.35-1.829,1.96c0.145,0.232,0.275,0.464,0.392,0.697c0.058,1.597,0,3.164-0.174,4.703l-0.262,0.174
		l-0.087,0.305h-0.305c-0.319-0.899-0.479-1.857-0.479-2.874l-0.131-2.177c-0.697,0.261-1.379,0.581-2.046,0.958h-0.305
		c0.9-1.509,1.858-3.077,2.874-4.703c0.667-1.335,1.307-2.7,1.917-4.093H30.306z M28.564-57.44l1.132,0.566
		c1.364,0.145,2.758,0.262,4.181,0.348h5.966c0.349-0.348,0.784-0.639,1.307-0.871c0.261-0.028,0.537,0,0.827,0.088
		c0.232,0.406,0.363,0.842,0.392,1.307l-0.131,1.176c-0.406,1.103-0.682,2.206-0.827,3.309c-0.146,0.117-0.305,0.175-0.479,0.175
		c-0.349-0.058-0.595-0.232-0.74-0.522l-0.131-0.349c-1.074,0.203-2.148,0.306-3.222,0.306c-2.09-0.175-4.181-0.32-6.271-0.436
		c-0.087,0.203-0.189,0.377-0.305,0.521l-0.262,0.044l-0.261-0.305c-0.174,0-0.319-0.073-0.436-0.218
		c-0.464-1.104-0.77-2.265-0.914-3.484l-0.044-0.826C28.434-56.874,28.506-57.149,28.564-57.44z M28.608-64.843
		c-0.117,0.087-0.117,0.174,0,0.261l0.174-0.131L28.695-64.8L28.608-64.843z M28.695-62.927v0.61h0.087v-0.61H28.695z
		 M30.219-56.396l0.261,0.959c-0.058,0.928,0,1.814,0.174,2.656c1.074,0.028,2.163,0.058,3.266,0.086
		c1.249,0.175,2.526,0.248,3.832,0.219c0.784,0.029,1.553-0.044,2.308-0.219l0.043-3.048l-0.087-0.261
		c-3.223,0.29-6.416,0.16-9.581-0.393H30.219z M30.306-70.722v0.305h0.13v-0.305H30.306z M33.92-69.459l0.087,0.261h0.218
		l0.087-0.174l-0.261-0.087H33.92z M34.487-68.675l-0.044,0.174l0.131,0.043v-0.217H34.487z M34.661-66.019
		c-0.087,0.203-0.058,0.377,0.087,0.522c0.087-0.116,0.13-0.261,0.13-0.436l-0.174-0.043L34.661-66.019z M35.009-68.893
		c0.29,0.494,0.493,1.031,0.609,1.611h0.131l0.043-0.697c-0.174-0.348-0.392-0.653-0.653-0.914H35.009z M35.793-59.661
		c-0.116,0.174-0.087,0.291,0.087,0.348l0.174-0.086l-0.174-0.219L35.793-59.661z M39.974-62.491l-0.174,0.305l0.349,0.043
		l0.043-0.174l-0.131-0.131L39.974-62.491z M40.365-64.582l-0.043,0.13h0.305v-0.087L40.365-64.582z M40.801-52.171l-0.174,0.087
		l0.13,0.131h0.174l-0.087-0.175L40.801-52.171z M40.67-56.612v0.13l0.087-0.087L40.67-56.612z M41.28-67.848l-0.218,0.218
		l0.087,0.131l0.392-0.218l-0.087-0.087L41.28-67.848z M41.324-56.918l-0.174,0.131c0.232,0.261,0.406,0.552,0.522,0.871h0.131
		l-0.087-0.696l-0.13-0.262L41.324-56.918z M41.715-59.879l-0.043,0.175h0.522l-0.087-0.175H41.715z"/>
	<path fill="#B02F4B" d="M64.186-63.406l0.74,0.261l0.219,0.305l-0.088,0.261l-0.914,0.523c-2.352,0.029-4.674,0.13-6.969,0.305
		l0.131,0.131l0.609,0.305c0.176,2.206,0.248,4.441,0.219,6.705c-0.059,0.494-0.16,0.959-0.305,1.395l-0.174,0.087l-0.305,0.305
		h-0.436l-0.219-0.305c-0.203-0.843-0.291-1.698-0.262-2.569l-0.086-0.262c-1.539,0.494-3.049,1.002-4.529,1.524
		c-0.727,0.146-1.365,0.015-1.916-0.392c-0.262-0.145-0.363-0.363-0.305-0.653l0.391-0.131l-0.217-0.261l0.174-0.175
		c2.148-0.087,4.283-0.392,6.402-0.915c0.029-0.174,0.014-0.348-0.045-0.521c-1.102,0.232-2.191,0.217-3.266-0.044L52.994-56.7
		l-0.131,0.174c-0.377,0-0.74-0.043-1.088-0.13L51.6-56.787c-0.203-0.667-0.305-1.364-0.305-2.091l-0.479-2.656
		c-1.307,0.029-2.598-0.028-3.875-0.174l-0.131-0.131l0.174-0.174c3.628-0.029,7.271-0.188,10.929-0.479l5.096-0.131l0.393-0.479
		l0.436-0.305H64.186z M62.705-70.243l1.176,0.827c0.203,0.494,0.275,1.002,0.217,1.524c-0.377,1.162-0.826,2.279-1.35,3.353
		c-2.178,0.174-4.34,0.218-6.488,0.131c-1.48,0-2.932-0.044-4.354-0.131c-0.059,0.465-0.262,0.813-0.611,1.045h-0.521
		c-0.262-0.436-0.465-0.915-0.609-1.438c-0.262-1.364-0.494-2.743-0.697-4.137l0.131-0.131c0,0.146,0.057,0.247,0.174,0.305
		c0.115-0.203,0.131-0.421,0.043-0.653l-0.436-0.087v-0.261c0.203-0.029,0.422-0.101,0.654-0.218
		c0.348,0.174,0.711,0.349,1.088,0.523l0.479,0.522c3.166,0.029,6.344-0.145,9.537-0.522c0.494-0.116,0.943-0.334,1.35-0.653H62.705
		z M50.859-64.669v0.348h0.088v-0.348H50.859z M50.947-68.675l0.174,0.522c0.029-0.174,0.014-0.349-0.043-0.522H50.947z
		 M51.295-61.577v0.348h0.088l0.043-0.305L51.295-61.577z M62.008-69.154c-2.264,0.232-4.529,0.421-6.793,0.566
		c-1.189-0.029-2.352,0-3.484,0.087c0.059,0.465,0.117,0.915,0.176,1.35l0.086,0.174c2.67,0.203,5.371,0.218,8.1,0.043
		c0.203-0.174,0.436-0.319,0.697-0.436c0.262,0.116,0.537,0.204,0.828,0.261l0.086,0.261l-0.217,0.261
		c-0.639,0.087-1.264,0.174-1.873,0.262c-2.525,0.087-5.037,0.014-7.533-0.218l-0.174,0.087l-0.045,1.263l0.131,0.174l9.363,0.131
		l0.871-0.087C62.023-66.338,61.949-67.732,62.008-69.154z M52.08-61.577c-0.059,0.232-0.016,0.421,0.131,0.566l0.043-0.523
		L52.08-61.577z M52.297-60.88v0.217l0.043-0.174L52.297-60.88z M56.129-61.751c-1.131,0.086-2.25,0.131-3.354,0.131l-0.174,0.086
		c0.029,0.465,0.088,0.915,0.174,1.351l0.219,0.218c0.957,0.174,1.945,0.217,2.961,0.131l0.262-0.131L56.129-61.751z M52.951-59.487
		c-0.059,0.523-0.029,1.017,0.086,1.48c0.639,0.175,1.307,0.232,2.004,0.175c0.436,0.058,0.871-0.015,1.307-0.218l-0.088-1.264
		c-1.074,0.117-2.119,0.073-3.135-0.13L52.951-59.487z M56.521-61.665c-0.059,0.204-0.029,0.379,0.086,0.523l0.176-0.262
		l-0.131-0.262H56.521z M64.186-60.358c0.203,0.059,0.422,0.088,0.652,0.088c0.232,0.668,0.189,1.336-0.129,2.003
		c-0.523,0.987-1.119,1.901-1.787,2.743l0.654,0.436c0.725,0.377,1.494,0.653,2.309,0.828c0.174,0.145,0.246,0.318,0.217,0.521
		l-0.652,0.697c-0.494,0.087-0.959,0.029-1.395-0.174c-0.813-0.32-1.523-0.784-2.133-1.395c-0.697,0.553-1.453,0.943-2.266,1.176
		c-0.203-0.115-0.232-0.275-0.086-0.479c0.551-0.494,1.045-1.059,1.48-1.698c-0.871-1.19-1.568-2.482-2.092-3.876l-0.174-0.131
		v-0.305h4.268C63.344-60.184,63.721-60.329,64.186-60.358z M59.613-59.443l-0.088,0.087c0.582,1.016,1.307,1.931,2.178,2.744
		l0.609-0.828c0.35-0.639,0.654-1.291,0.916-1.959h-3.354L59.613-59.443z M63.881-59.53v0.087l0.131-0.087H63.881z"/>
	<path fill="#B02F4B" d="M83.174-68.153c0.492,0.058,0.943,0.218,1.35,0.479c0.174,0.232,0.203,0.479,0.086,0.74
		c-2.119,0.581-4.311,0.842-6.574,0.784c-2.236,0.087-4.443,0.073-6.619-0.043c-0.465,0-0.887-0.102-1.264-0.305v-0.131
		c3.947,0.087,7.896-0.058,11.846-0.436c0.057-0.377,0.246-0.697,0.564-0.958L83.174-68.153z M72.33-60.358l0.521,0.609
		c0.465,0.204,0.959,0.306,1.48,0.306c2.99,0.087,5.996,0.058,9.016-0.087c0.029-0.174,0.102-0.334,0.217-0.479
		c0.35-0.261,0.77-0.377,1.264-0.349c0.289,0.088,0.551,0.219,0.783,0.393c0.465,1.016,0.609,2.076,0.436,3.179
		c-0.318,1.48-0.799,2.889-1.438,4.224c-0.348,0-0.682-0.058-1-0.174c-0.465-0.145-0.844-0.392-1.133-0.74l0.174-0.087l0.828,0.261
		c0.086-1.799,0.115-3.614,0.086-5.443l-0.131-0.174l-5.051,0.131l-2.787-0.088c-0.871-0.028-1.684-0.115-2.439-0.261
		c0.203,1.452,0.248,2.889,0.131,4.312l-0.174,1.567c-0.174,0.231-0.334,0.45-0.479,0.653l-0.305-0.131
		c-0.668-1.857-1.133-3.773-1.395-5.748c-0.115-0.522-0.072-1.045,0.131-1.568l0.088,0.088c0,0.465,0.086,0.9,0.262,1.307
		l0.043-1.09l0.348-0.348l-0.348-0.131l-0.043-0.174l0.26-0.174L72.33-60.358z M72.416-59.399l-0.086,0.131
		c0.057,0.609,0.188,1.204,0.391,1.785c0.088-0.639,0-1.264-0.26-1.873L72.416-59.399z M82.041-65.714
		c0.262,0,0.521,0.058,0.783,0.174c0.291,0.377,0.422,0.798,0.393,1.263c-0.174,1.075-0.553,2.032-1.133,2.874
		c-0.377-0.058-0.711-0.043-1.002,0.044l-0.305-0.175c-1.074,0.232-2.148,0.305-3.223,0.219c-0.725-0.059-1.436-0.117-2.133-0.175
		l-0.131,0.436c-0.174,0.146-0.348,0.159-0.523,0.044l-0.174,0.217c-0.203,0.117-0.363,0.073-0.479-0.131
		c-0.553-0.695-0.885-1.509-1.002-2.438c-0.262-0.639-0.275-1.277-0.043-1.916c0.58,0.029,1.117,0.247,1.611,0.653l2.613,0.043
		l3.047-0.174C80.807-65.221,81.373-65.54,82.041-65.714z M73.287-64.974l-0.086,0.087l0.131,0.13l0.086-0.087L73.287-64.974z
		 M73.418-64.452l-0.086,0.087l0.783,2.395h0.131c-0.146-0.842-0.406-1.654-0.783-2.438L73.418-64.452z M74.289-61.795l-0.086,0.087
		l0.129,0.088v-0.131L74.289-61.795z M74.332-64.06c0,0.291,0.117,0.537,0.35,0.74l0.043-0.218l-0.262-0.522H74.332z M74.682-63.232
		l0.086,0.218l0.045-0.218H74.682z M75.117-70.461c0.754,0.145,1.48,0.421,2.178,0.827c0.348,0.32,0.623,0.683,0.826,1.089
		c0.059,0.494-0.014,0.929-0.217,1.307l-0.35,0.13c-0.436-0.145-0.842-0.29-1.219-0.436l-0.783-1.176
		c-0.35-0.377-0.508-0.784-0.48-1.219l0.131,0.131l0.131-0.087v-0.13l-0.436-0.218l-0.043-0.087L75.117-70.461z M80.604-64.19
		c-1.771,0.203-3.541,0.232-5.313,0.087l-0.174,0.087l0.217,0.566l0.088,1.437c1.277,0.174,2.584,0.218,3.92,0.131
		c0.463,0,0.928-0.088,1.393-0.262C80.734-62.812,80.691-63.493,80.604-64.19z M75.334-58.138c0.523,0.204,1.045,0.393,1.568,0.566
		h3.484l0.174-0.174l0.521-0.349c0.35-0.087,0.654-0.028,0.916,0.175c0.174,0.696,0.217,1.393,0.129,2.09l-0.479,1.698
		c-0.232,0.146-0.42,0.102-0.566-0.13c-0.986,0.318-1.973,0.436-2.961,0.348l-1.088-0.218l-0.305,0.306l-0.262-0.088l-0.262-0.348
		l-0.262-0.088c-0.406-0.726-0.652-1.51-0.74-2.352C75.117-57.193,75.16-57.673,75.334-58.138z M76.119-69.59
		c0.145,0.261,0.332,0.334,0.564,0.218l-0.391-0.218H76.119z M76.729-57.092l0.174,0.653c-0.059,0.639-0.016,1.234,0.131,1.785
		c1.045,0.29,2.119,0.319,3.223,0.087c0.029-0.784,0.014-1.581-0.045-2.396c-1.102,0.029-2.191-0.014-3.266-0.13H76.729z
		 M77.119-68.937c0.117,0.349,0.262,0.668,0.436,0.958c0.029-0.319-0.072-0.638-0.305-0.958H77.119z M80.822-57.44
		c-0.176,0.146-0.176,0.275,0,0.393l0.129-0.393H80.822z M81.258-64.887c-0.205,0.145-0.219,0.319-0.045,0.522h0.088l0.086-0.479
		L81.258-64.887z M81.475-57.702l-0.088,0.088l0.131,0.043v-0.087L81.475-57.702z M82.258-65.104
		c0.059,0.348,0.131,0.682,0.219,1.001l0.086,0.087c0.088-0.377,0.045-0.74-0.129-1.088H82.258z M83.043-67.587l-0.262,0.131
		c-0.145,0.145-0.16,0.261-0.043,0.348c0.377,0,0.74-0.072,1.088-0.218v-0.13l-0.436-0.087L83.043-67.587z M84.045-59.704
		l-0.262,0.13l0.086,0.175l0.176-0.088l0.043-0.174L84.045-59.704z M84.219-53.478l-0.045,0.218h0.131l0.045-0.218H84.219z
		 M84.785-59.792c0,0.349,0.145,0.625,0.436,0.828c0.027,0.551,0.1,1.074,0.217,1.566c0.059-0.435,0.059-0.898,0-1.393
		c-0.059-0.377-0.232-0.697-0.523-0.959L84.785-59.792z"/>
</g>
<g>
	<path fill="#B02F4B" d="M6.399,7.36C6.544,7.65,6.631,7.941,6.66,8.231c-0.087,0.9-0.116,1.8-0.087,2.7
		c1.655-0.203,3.339-0.275,5.052-0.218c0.232,0.174,0.319,0.392,0.261,0.653l-0.305,0.261c-1.742,0.087-3.455,0.204-5.139,0.349
		c-0.174,1.075-0.363,2.133-0.566,3.178c-0.203,0.871-0.508,1.655-0.914,2.352c-0.204,0.088-0.378,0.059-0.523-0.086
		c-0.029-1.045,0.218-2.119,0.741-3.223c0.319-1.945,0.537-3.905,0.653-5.879C5.803,7.941,5.905,7.607,6.138,7.316L6.399,7.36z
		 M17.024,6.489l0.174,0.261c-0.117,1.916-0.059,3.789,0.174,5.617h1.132c0.784-1.248,1.408-2.583,1.873-4.006L20.639,8.1H20.9
		c0.232,0.232,0.349,0.508,0.349,0.828c-0.436,1.162-0.886,2.279-1.35,3.353l0.74,0.043l0.349,0.218
		c0.29,2.294,0.319,4.587,0.087,6.88c0,1.655-0.319,3.165-0.958,4.529c-0.581,0.088-1.147,0.044-1.698-0.131l-0.522-0.217
		c-0.174-0.203-0.146-0.406,0.087-0.609l0.522-0.175l0.915,0.13c0.29-0.957,0.464-1.973,0.522-3.048
		c-2.148,0.087-4.297,0.16-6.445,0.218l-0.131,3.44l-0.261,0.261h-0.436l-0.261-0.261l-0.087-1.524
		c-0.958,0.755-1.931,1.451-2.918,2.09H8.924L8.707,23.82v-5.008c-0.726,0.059-1.437,0.016-2.134-0.131
		c-0.348-0.203-0.406-0.449-0.174-0.74l0.348-0.174c0.667,0.088,1.321,0.044,1.959-0.131l0.131-2.003L8.75,15.416l-1.307-0.043
		l-0.348-0.219c-0.117-0.203-0.102-0.406,0.043-0.609l0.392-0.174c1.249-0.058,2.511-0.043,3.789,0.043
		c0.319,0.32,0.319,0.625,0,0.915l-1.438,0.044L9.708,15.46l-0.087,1.96l0.131,0.261h1.655l0.348,0.261
		c0.058,0.32-0.029,0.566-0.261,0.74l-1.611,0.044l-0.174,0.087l-0.131,3.702l0.131,0.13l1.873-1.306
		c0.261,0,0.537-0.015,0.827-0.044l0.043-6.793c-0.145-0.727-0.029-1.364,0.349-1.917l1.045-0.087l0.131-0.131
		c-0.494-1.045-0.973-2.104-1.437-3.179c-0.146-0.261-0.087-0.479,0.174-0.653c0.232-0.029,0.45,0.043,0.653,0.218
		c0.464,0.784,0.842,1.611,1.132,2.482l0.74,1.176c0.319,0.116,0.639,0.102,0.958-0.044l0.043-5.356l0.087-0.436l0.305-0.174
		L17.024,6.489z M19.637,13.369l-6.184,0.174v2.222l0.13,0.13l1.045-0.13c1.858,0.058,3.701,0.029,5.53-0.087v-2.265L19.637,13.369z
		 M16.763,16.766c-1.104,0-2.192,0.059-3.266,0.175v2.177c0.929,0.029,1.873,0.016,2.831-0.043c1.248-0.087,2.482-0.188,3.702-0.305
		l0.174-1.829l-0.087-0.175H16.763z"/>
	<path fill="#B02F4B" d="M31.917,7.708c0.116,0.958-0.407,1.858-1.568,2.7c0.319,2.816,0.319,5.574,0,8.273
		c-0.291,0.146-0.522,0.088-0.697-0.174l-0.087-6.88l-0.087-0.174l-1.873,1.742c-0.319,0.146-0.566,0.102-0.74-0.131v-0.435
		l1.698-1.655c0.929-1.132,1.931-2.235,3.005-3.31L31.917,7.708z M38.798,18.943c0.639,0.029,1.233,0.16,1.785,0.393
		c0.203,0.957,0.276,1.959,0.218,3.004c-0.087,0.727-0.305,1.379-0.653,1.96h-8.623l-0.305-0.13
		c-0.291-0.61-0.407-1.278-0.349-2.004c-0.204-1.104-0.145-2.148,0.174-3.135c0.842,0.029,1.698-0.015,2.569-0.131L38.798,18.943z
		 M37.927,19.857c-2.032-0.057-4.036-0.028-6.009,0.088l-0.131,0.131c-0.029,1.132,0.029,2.234,0.174,3.309l7.359,0.044l0.261-0.174
		l0.174-0.479v-2.743l-0.479-0.131L37.927,19.857z M35.053,6.881c0.232-0.029,0.45,0.058,0.653,0.261l1.48,2.221l3.44,0.087
		l0.348,0.261c0.058,0.261-0.015,0.465-0.218,0.61l-3.048,0.043l-0.13,0.174l0.087,1.35l3.179,0.044l0.348,0.218
		c0.087,0.291,0.014,0.508-0.218,0.653l-3.31,0.087c-0.087,0.494-0.073,0.958,0.043,1.394l2.831,0.044l0.349,0.217
		c0.087,0.291,0.014,0.509-0.218,0.654l-2.787,0.043l-0.174,0.087v1.48l3.44,0.044l0.348,0.217c0.058,0.262,0.015,0.465-0.13,0.61
		c-1.423,0.204-2.86,0.247-4.312,0.131c-1.713,0.087-3.368,0-4.964-0.261c-0.116-0.262-0.043-0.48,0.218-0.654l4.181-0.043
		l0.174-0.088l0.043-1.306l-0.087-0.175l-4.181-0.086c-0.349-0.232-0.349-0.509,0-0.828l4.093-0.043l0.174-0.175l-0.087-1.263
		l-4.094-0.087l-0.261-0.218c-0.116-0.232-0.029-0.435,0.261-0.609l3.919-0.043l0.174-0.087l0.043-1.219l-0.087-0.261h-4.311
		l-0.348-0.218l-0.044-0.305c0.291-0.261,0.667-0.392,1.132-0.392c1.016,0.087,2.018,0.043,3.005-0.13l-1.089-1.742
		C34.806,7.316,34.849,7.084,35.053,6.881z"/>
	<path fill="#B02F4B" d="M59.221,13.282c1.424,0,2.859,0.029,4.313,0.087l0.348,0.219c0.088,0.29,0.029,0.508-0.174,0.652
		c-2.498,0-4.965,0.029-7.404,0.088c-0.086,0.521-0.014,1.016,0.219,1.48c-0.117,0.377-0.16,0.754-0.131,1.132
		c0.029,0.929,0.029,1.844,0,2.743l0.652,0.044l0.262,0.218c0.059,0.203,0.016,0.377-0.131,0.522
		c-0.348,0.058-0.639,0.159-0.871,0.305l-0.043,3.005l-0.262,0.305h-0.391l-0.35-0.436c0-0.871,0.029-1.785,0.088-2.743
		c-1.598,0.174-3.15,0.465-4.66,0.87c-0.465,0.146-0.855,0.103-1.176-0.13c-0.086-0.175-0.043-0.334,0.131-0.479l1.654-0.436
		l0.262-0.174c-0.059-2.003-0.086-4.035-0.086-6.097h-2.744l-0.305-0.218c-0.087-0.232-0.015-0.436,0.218-0.609L59.221,13.282z
		 M52.689,14.371l-0.262,0.087c-0.088,0.378-0.043,0.683,0.131,0.915l2.568,0.043l0.262-0.087v-0.784l-0.086-0.174H52.689z
		 M52.471,16.2l-0.086,1.48l0.131,0.175c0.898-0.175,1.814-0.305,2.742-0.393l0.174-0.087l0.045-0.915l-0.131-0.174l-2.264-0.043
		L52.471,16.2z M55.563,6.315c1.887,0.029,3.775,0.087,5.662,0.174c0.289,0.406,0.393,0.9,0.305,1.48
		c-0.088,1.335-0.275,2.599-0.566,3.789l-0.521,0.218c-2.584,0.029-5.154,0.058-7.709,0.087l-0.262-0.174
		c-0.145-0.203-0.102-0.392,0.131-0.566V7.012c0.232-0.203,0.508-0.377,0.828-0.522L55.563,6.315z M55.432,18.377
		c-1.016,0.088-2.018,0.204-3.004,0.349c-0.059,0.581-0.029,1.132,0.088,1.655c0.898-0.116,1.799-0.262,2.699-0.436l0.217-0.218
		V18.377z M57.262,7.142c-1.307,0-2.6,0.043-3.875,0.131c-0.029,0.522,0.014,1.016,0.129,1.48l0.828-0.13
		c2.061,0,4.123-0.029,6.184-0.087l0.131-1.045L60.57,7.316L57.262,7.142z M58.959,9.407c-1.828-0.029-3.643,0.058-5.443,0.261v1.35
		l0.088,0.174c1.801-0.029,3.615-0.087,5.443-0.174c0.377,0.087,0.783,0.116,1.219,0.087l0.131-1.437l-0.086-0.174L58.959,9.407z
		 M63.098,15.721c0.23,0.174,0.318,0.393,0.26,0.654c-0.609,0.986-1.176,1.9-1.697,2.742l2.133,1.264l0.436,0.436
		c0.059,0.29-0.014,0.508-0.217,0.652c-1.045-0.436-2.076-0.986-3.092-1.654c-0.727,1.307-1.555,1.829-2.482,1.568V20.99
		l1.611-1.698l-1.133-0.958l-1.045-1.219c-0.088-0.175-0.043-0.35,0.131-0.523c-0.145-0.115-0.189-0.29-0.131-0.522l0.393-0.218
		l3.744-0.174L63.098,15.721z M62.096,16.549l-3.266,0.087l-0.176,0.087l0.871,0.958l1.045,0.784l0.219,0.043l1.35-1.742v-0.174
		L62.096,16.549z"/>
	<path fill="#B02F4B" d="M84.871,9.189l0.219,0.174c0.086,0.174,0.086,0.348,0,0.522c-3.861,0.204-7.768,0.261-11.715,0.174
		c-0.871,0.116-1.654,0.015-2.352-0.305V9.45l0.348-0.218l13.152-0.087L84.871,9.189z M72.025,15.721l0.262,0.305h12.105
		l0.348,0.088c0.262,0.726,0.35,1.51,0.262,2.352c-0.174,1.887-0.609,3.687-1.307,5.399l-0.393,0.131
		c-0.813,0-1.596-0.058-2.352-0.175c-0.318-0.203-0.361-0.449-0.129-0.74c0.695-0.086,1.422-0.086,2.176,0l0.176-0.086
		c0.348-1.277,0.639-2.6,0.871-3.963c0.086-0.697,0.086-1.395,0-2.091l-11.498-0.044l-0.174,0.088
		c-0.029,2.003,0.145,3.963,0.523,5.879c0.057,0.348-0.016,0.609-0.219,0.783h-0.391c-0.523-1.307-0.756-2.714-0.697-4.225
		c-0.146-1.334-0.072-2.583,0.217-3.744L72.025,15.721z M81.998,11.323l0.26,0.218c-0.057,0.958-0.102,1.917-0.131,2.874
		c-0.086,0.35-0.246,0.64-0.479,0.871l-5.27,0.044c-0.609,0.058-1.176-0.028-1.697-0.261l-0.174-0.262
		c-0.146-1.133-0.117-2.25,0.086-3.353l0.35-0.174L81.998,11.323z M75.422,12.15l-0.131,0.13l0.088,1.959l0.174,0.131l5.574,0.043
		l0.131-0.217v-2.003L75.422,12.15z M81.432,17.855l0.436,0.086c0.26,0.668,0.334,1.38,0.217,2.135
		c-0.059,0.696-0.262,1.292-0.609,1.785l-4.18,0.043c-0.641,0.088-1.191-0.043-1.656-0.392l-0.26-1.96
		c-0.088-0.58,0.014-1.117,0.305-1.611l1.131-0.086H81.432z M76.424,18.726l-0.176,0.087c-0.057,0.639-0.014,1.277,0.131,1.916
		l0.131,0.262l4.182,0.043l0.26-0.086c0.203-0.668,0.277-1.379,0.219-2.135l-4.311-0.043L76.424,18.726z M76.684,5.879
		c0.117,0.029,0.248,0.058,0.393,0.087c0.609,0.668,1.117,1.394,1.523,2.178c0.059,0.261,0.016,0.479-0.129,0.653
		c-0.176,0.087-0.334,0.073-0.48-0.043c-0.492-0.784-0.986-1.568-1.48-2.352C76.395,6.199,76.451,6.024,76.684,5.879z"/>
</g>
</svg>
