<?xml version="1.0" encoding="utf-8"?>
<!-- Generator: Adobe Illustrator 16.0.0, SVG Export Plug-In . SVG Version: 6.00 Build 0)  -->
<!DOCTYPE svg PUBLIC "-//W3C//DTD SVG 1.1//EN" "http://www.w3.org/Graphics/SVG/1.1/DTD/svg11.dtd">
<svg version="1.1" id="图层_1" xmlns="http://www.w3.org/2000/svg" xmlns:xlink="http://www.w3.org/1999/xlink" x="0px" y="0px"
	 width="126px" height="30.333px" viewBox="0 0 126 30.333" enable-background="new 0 0 126 30.333" xml:space="preserve">
<g>
	<path fill="#7C7C7C" d="M34.322,51.958c-0.522,0.938-0.918,1.514-1.674,2.359c-0.234-0.378-0.414-0.611-0.738-0.918
		c0.936-0.99,1.512-1.873,2.053-3.205c0.216-0.504,0.324-0.863,0.432-1.352l1.224,0.324c-0.144,0.271-0.216,0.451-0.594,1.351
		c-0.054,0.126-0.108,0.233-0.198,0.415h1.891c0.864,0,1.368-0.018,1.729-0.09v1.207c-0.468-0.072-0.973-0.09-1.729-0.09h-2.396
		V51.958z M34.016,58.693c-0.684,0-1.242,0.035-1.692,0.091v-1.172c0.45,0.055,0.972,0.09,1.71,0.09h0.937v-2.627h-0.648
		c-0.342,0-0.846,0.035-1.188,0.071v-1.134c0.396,0.054,0.703,0.072,1.225,0.072h2.683c0.504,0,0.864-0.019,1.207-0.072v1.115
		c-0.396-0.035-0.792-0.053-1.207-0.053h-0.972v2.627h0.774c0.684,0,1.134-0.018,1.638-0.09v1.172
		c-0.576-0.072-1.08-0.091-1.656-0.091h-0.756v4.249c1.116-0.577,1.477-0.792,2.449-1.423l0.054,1.242
		c-0.541,0.323-0.594,0.36-2.161,1.188c-0.36,0.197-0.36,0.197-1.225,0.611c-0.198,0.107-0.198,0.107-0.324,0.18l-0.45-1.134
		c0.36-0.146,0.522-0.343,0.558-0.737v-4.178L34.016,58.693L34.016,58.693z M40.39,53.345c-0.594-1.531-0.99-2.306-1.783-3.476
		l0.991-0.486c0.882,1.423,1.224,2.09,1.836,3.476L40.39,53.345z M42.893,50.68c0-0.721-0.035-1.333-0.107-1.836h1.368
		c-0.072,0.504-0.108,1.08-0.108,1.854v3.205h1.98c0.703,0,1.261-0.035,1.711-0.09c-0.054,0.432-0.072,0.973-0.072,1.746v8.049
		c0,1.116-0.378,1.404-1.891,1.404c-0.576,0-1.116-0.036-1.836-0.108c-0.036-0.432-0.055-0.594-0.217-1.151
		c0.937,0.145,1.585,0.217,2.161,0.217c0.54,0,0.685-0.092,0.685-0.434v-2.377h-6.122v1.944c0,0.647,0.036,1.333,0.108,1.999h-1.296
		c0.072-0.63,0.108-1.352,0.108-1.999v-7.58c0-0.667-0.018-1.261-0.072-1.71c0.432,0.055,0.99,0.09,1.638,0.09h1.962V50.68z
		 M46.566,54.913h-6.122V57h6.122V54.913z M40.444,60.151h6.122v-2.145h-6.122V60.151z M48.313,49.834
		c-0.756,1.529-1.332,2.521-2.089,3.582l-0.936-0.521c0.846-1.134,1.332-2.018,1.962-3.583L48.313,49.834z"/>
	<path fill="#7C7C7C" d="M62.676,55.308c0.738,0,1.08-0.019,1.639-0.091v1.08c-0.485-0.071-0.811-0.09-1.639-0.09h-3.457v1.478
		h4.159c0.812,0,1.388-0.036,1.854-0.09v1.116c-0.541-0.071-1.026-0.107-1.854-0.107h-9.093c-0.54,0-1.026,0.02-1.674,0.036
		c0.035-0.396,0.054-0.864,0.054-1.565v-2.647c0-0.738,0.036-1.44,0.072-1.837c-0.559,0.774-1.045,1.279-1.854,1.928
		c-0.145-0.324-0.433-0.667-0.702-0.9c1.242-0.863,2.214-1.891,3.097-3.277c0.432-0.666,0.72-1.225,0.828-1.639l1.135,0.414
		c-0.072,0.072-0.091,0.108-0.162,0.234c-0.271,0.415-0.703,1.081-0.919,1.387h4.646c-0.45-0.666-0.792-1.099-1.188-1.494
		l0.883-0.576c0.485,0.521,1.062,1.277,1.603,2.07h3.276c0.757,0,1.226-0.035,1.783-0.107v1.151c-0.522-0.071-0.864-0.09-1.693-0.09
		h-4.249v1.351h3.493c0.721,0,1.063-0.018,1.62-0.107v1.115c-0.504-0.071-0.828-0.09-1.62-0.09h-3.493v1.352h3.455V55.308z
		 M62.946,59.827c0.666,0,1.117-0.019,1.548-0.072c-0.071,0.469-0.09,0.883-0.09,1.55v2.179c0,0.666,0.035,1.135,0.107,1.639h-1.261
		v-0.883h-9.885v0.864h-1.242c0.072-0.45,0.107-1.008,0.107-1.64v-2.178c0-0.559-0.035-1.045-0.09-1.531
		c0.433,0.055,0.864,0.072,1.53,0.072H62.946z M63.252,63.23v-2.396h-9.885v2.396H63.252z M53.764,51.688v1.352h4.411v-1.352H53.764
		z M58.175,53.958h-4.411v1.351h4.411V53.958z M53.764,56.208v1.478h4.411v-1.478H53.764z"/>
	<path fill="#7C7C7C" d="M75.939,61.988c0.434-0.091,0.631-0.127,1.278-0.288v0.937c-0.378,0.071-0.792,0.161-1.278,0.271v0.631
		c0,0.811,0.02,1.225,0.108,1.674h-1.241c0.07-0.433,0.106-0.883,0.106-1.674v-0.434c-0.937,0.182-2.231,0.396-3.563,0.576
		c-1.855,0.253-2.125,0.289-2.828,0.449l-0.287-1.188c0.125,0,0.233,0,0.287,0c0.342,0,0.828-0.036,1.692-0.107v-6.123h-0.36
		c-0.684,0-1.063,0.019-1.619,0.108v-1.17c0.432,0.09,0.846,0.108,1.639,0.108h12.928c0.811,0,1.206-0.019,1.674-0.108v1.17
		c-0.558-0.09-0.953-0.108-1.656-0.108h-6.879V61.988z M82.352,53.327c0,0.648,0.018,0.973,0.071,1.422
		c-0.575-0.054-1.151-0.071-1.854-0.071h-8.246c-0.793,0-1.297,0.018-1.944,0.071c0.054-0.414,0.072-0.846,0.072-1.422v-2.449
		c0-0.594-0.019-1.025-0.072-1.439c0.612,0.055,1.136,0.072,1.963,0.072h8.138c0.83,0,1.334-0.018,1.945-0.072
		c-0.055,0.432-0.072,0.792-0.072,1.439V53.327L82.352,53.327z M71.277,56.711v1.278h3.637v-1.278H71.277z M71.277,58.836v1.332
		h3.637v-1.332H71.277z M71.277,61.016v1.711c1.367-0.182,2.646-0.361,3.637-0.541v-1.17H71.277z M71.512,51.688h9.776v-1.26h-9.776
		V51.688z M71.512,53.813h9.776v-1.261h-9.776V53.813z M83.432,58.566c-0.127,0.181-0.181,0.271-0.324,0.522
		c-0.864,1.513-1.459,2.357-2.215,3.097c0.955,0.774,2.017,1.333,3.476,1.837c-0.308,0.359-0.433,0.521-0.685,0.99
		c-1.531-0.648-2.629-1.297-3.547-2.125c-1.1,0.919-1.693,1.297-3.115,1.98c-0.233-0.433-0.359-0.595-0.703-0.918
		c1.44-0.595,2.144-0.99,3.099-1.766c-0.864-0.9-1.388-1.782-1.981-3.295c-0.342,0.018-0.504,0.035-0.881,0.072V57.9
		c0.413,0.056,0.811,0.072,1.529,0.072h3.35c0.666,0,1.099-0.019,1.369-0.072L83.432,58.566z M78.443,58.891
		c0.504,1.188,0.937,1.837,1.691,2.629c0.793-0.811,1.188-1.368,1.891-2.629H78.443z"/>
	<path fill="#7C7C7C" d="M100.368,50.302c0.757,0,1.225-0.036,1.782-0.108v1.188c-0.575-0.071-1.063-0.09-1.782-0.09H88.251
		c-0.702,0-1.226,0.019-1.782,0.09v-1.188c0.521,0.072,1.045,0.108,1.818,0.108h5.4c-0.233-0.324-0.377-0.505-0.828-1.044
		l1.009-0.576c0.414,0.521,0.433,0.521,1.151,1.621L100.368,50.302L100.368,50.302z M87.063,58.818c0-0.63-0.018-1.08-0.071-1.62
		c0.522,0.055,1.026,0.072,1.782,0.072h11.164c0.881,0,1.277-0.018,1.746-0.072c-0.055,0.559-0.072,0.954-0.072,1.586v4.771
		c0,0.612-0.107,0.919-0.414,1.135c-0.288,0.198-0.576,0.233-1.549,0.233c-0.433,0-0.666,0-1.674-0.055
		c-0.037-0.484-0.091-0.701-0.234-1.115c0.721,0.107,1.387,0.162,2.053,0.162c0.648,0,0.721-0.037,0.721-0.414v-5.275H88.18v5.186
		c0,0.793,0.018,1.226,0.107,1.838h-1.333c0.071-0.486,0.108-1.117,0.108-1.819V58.818L87.063,58.818z M89.457,53.758
		c0-0.575-0.018-0.989-0.055-1.368c0.469,0.054,0.938,0.071,1.711,0.071h6.681c0.702,0,1.026-0.018,1.53-0.071
		c-0.036,0.522-0.055,0.774-0.055,1.387v0.972c0,0.793,0,1.008,0.055,1.404c-0.521-0.054-0.883-0.072-1.656-0.072h-6.645
		c-0.685,0-1.045,0.019-1.621,0.072c0.037-0.378,0.055-0.701,0.055-1.404V53.758z M90.557,55.165h7.615v-1.766h-7.615V55.165z
		 M97.9,61.735c0,0.648,0.02,0.919,0.056,1.278c-0.47-0.036-1.026-0.054-1.657-0.054H92.05c-0.378,0-1.26,0.035-1.458,0.071
		c0.036-0.522,0.055-0.829,0.055-1.458v-0.919c0-0.612-0.019-0.937-0.055-1.313c0.414,0.035,0.792,0.054,1.458,0.054h4.321
		c0.686,0,1.115-0.019,1.585-0.054C97.92,59.7,97.9,59.97,97.9,60.565V61.735z M91.708,62.06h5.149v-1.765h-5.149V62.06z"/>
</g>
<g>
	<path fill="#A3A3A3" d="M37.513,24.956c0.402-0.085,0.586-0.117,1.19-0.269v0.873c-0.352,0.066-0.737,0.15-1.19,0.251v0.587
		c0,0.754,0.017,1.14,0.101,1.559h-1.156c0.067-0.403,0.101-0.822,0.101-1.559v-0.403c-0.871,0.169-2.077,0.368-3.317,0.536
		c-1.725,0.235-1.977,0.269-2.631,0.419l-0.268-1.105c0.118,0,0.218,0,0.268,0c0.318,0,0.771-0.033,1.575-0.101v-5.696H31.85
		c-0.638,0-0.989,0.017-1.508,0.1v-1.089c0.402,0.083,0.787,0.101,1.524,0.101h12.03c0.755,0,1.124-0.019,1.559-0.101v1.089
		c-0.521-0.085-0.888-0.1-1.541-0.1h-6.401V24.956z M43.478,16.896c0,0.602,0.018,0.905,0.067,1.323
		c-0.536-0.05-1.072-0.065-1.725-0.065h-7.674c-0.737,0-1.206,0.017-1.809,0.065c0.05-0.386,0.067-0.787,0.067-1.323v-2.279
		c0-0.552-0.017-0.955-0.067-1.34c0.569,0.051,1.055,0.067,1.825,0.067h7.574c0.771,0,1.239-0.017,1.809-0.067
		c-0.05,0.403-0.067,0.737-0.067,1.34V16.896z M33.174,20.045v1.189h3.384v-1.189H33.174z M33.174,22.023v1.239h3.384v-1.239H33.174
		z M33.174,24.051v1.59c1.273-0.167,2.462-0.334,3.384-0.501v-1.089H33.174z M33.392,15.372h9.098v-1.173h-9.098V15.372z
		 M33.392,17.348h9.098v-1.172h-9.098V17.348z M44.483,21.772c-0.117,0.167-0.168,0.253-0.301,0.485
		c-0.804,1.407-1.358,2.194-2.061,2.883c0.888,0.72,1.877,1.239,3.233,1.708c-0.285,0.337-0.402,0.486-0.636,0.922
		c-1.424-0.603-2.446-1.207-3.301-1.978c-1.022,0.856-1.576,1.207-2.899,1.843c-0.217-0.401-0.334-0.553-0.653-0.854
		c1.34-0.552,1.994-0.921,2.882-1.643c-0.804-0.837-1.291-1.657-1.843-3.066c-0.318,0.018-0.469,0.035-0.82,0.067v-0.988
		c0.385,0.05,0.753,0.067,1.424,0.067h3.117c0.62,0,1.022-0.019,1.273-0.067L44.483,21.772z M39.841,22.074
		c0.47,1.105,0.872,1.709,1.576,2.446c0.737-0.755,1.105-1.272,1.758-2.446H39.841z"/>
	<path fill="#A3A3A3" d="M49.639,23.012c-0.602,1.575-1.156,2.563-2.028,3.669c-0.15-0.1-0.15-0.1-0.385-0.285
		c-0.083-0.067-0.201-0.151-0.502-0.335c1.005-1.174,1.424-1.911,1.959-3.385L49.639,23.012z M53.492,18.135
		c0.638,0,0.972-0.016,1.357-0.083v1.122c-0.402-0.067-0.737-0.085-1.357-0.085h-4.976c-0.638,0-0.989,0.018-1.39,0.085v-1.122
		c0.385,0.067,0.72,0.083,1.39,0.083h2.999c0.637-1.089,0.889-1.725,1.123-2.748l1.005,0.32c-0.385,1.005-0.771,1.809-1.14,2.428
		H53.492z M48.533,21.873c-0.654,0-0.973,0.017-1.391,0.1v-1.105c0.385,0.084,0.737,0.101,1.408,0.101h2.062v-0.771
		c0-0.219-0.034-0.485-0.067-0.688h1.105c-0.033,0.202-0.067,0.469-0.067,0.688v0.771h1.842c0.587,0,0.906-0.017,1.34-0.101v1.089
		c-0.386-0.066-0.72-0.083-1.34-0.083h-1.842v4.674c0,0.905-0.318,1.14-1.525,1.14c-0.368,0-0.787-0.017-1.055-0.051
		c0-0.065,0-0.1,0-0.15c0-0.234-0.084-0.553-0.218-0.871c0.603,0.116,0.887,0.151,1.272,0.151c0.419,0,0.554-0.086,0.554-0.353
		v-4.54H48.533z M50.645,14.282c-0.252-0.469-0.47-0.787-0.921-1.357l0.988-0.369c0.72,1.073,0.72,1.073,1.072,1.726h1.325
		c0.687,0,0.989-0.017,1.39-0.084v1.124c-0.452-0.067-0.753-0.085-1.407-0.085h-4.171c-0.687,0-1.005,0.018-1.457,0.085v-1.124
		c0.385,0.067,0.737,0.084,1.474,0.084H50.645z M49.388,17.985c-0.286-0.938-0.502-1.458-0.955-2.245l0.888-0.334
		c0.469,0.837,0.671,1.34,0.939,2.262L49.388,17.985z M53.058,22.626c0.82,1.09,1.055,1.458,1.574,2.497l-0.906,0.553
		c-0.435-1.14-0.754-1.725-1.474-2.664L53.058,22.626z M56.608,18.99c-0.017,0.218-0.017,0.218-0.017,0.653
		c-0.017,2.229-0.368,4.49-0.938,6.016c-0.334,0.888-0.686,1.526-1.256,2.296c-0.353-0.336-0.536-0.486-0.939-0.704
		c0.737-0.922,1.223-1.894,1.559-3.184c0.369-1.441,0.536-3.686,0.536-7.54c0-1.088-0.034-1.877-0.084-2.296
		c0.084,0,0.167,0,0.201,0c0.905,0,2.58-0.335,3.972-0.771c0.703-0.234,1.122-0.419,1.541-0.72l0.854,0.939
		c-0.168,0.05-0.168,0.05-0.62,0.234c-1.375,0.57-2.647,0.888-4.809,1.239v2.865h4.256c0.753,0,1.139-0.033,1.524-0.101v1.157
		c-0.401-0.066-0.787-0.085-1.458-0.085h-0.62v7.306c0,0.838,0.018,1.257,0.101,1.676h-1.29c0.066-0.436,0.1-0.854,0.1-1.676V18.99
		H56.608z"/>
	<path fill="#A3A3A3" d="M75.855,18.154c0.72,0,1.257-0.034,1.742-0.101v1.29c-0.52-0.066-1.022-0.101-1.742-0.101h-4.239v6.786
		h5.479c0.787,0,1.307-0.034,1.877-0.1v1.272c-0.638-0.084-1.155-0.117-1.877-0.117H65.936c-0.72,0-1.34,0.033-1.978,0.117v-1.272
		c0.554,0.065,1.141,0.1,1.978,0.1h4.491v-11.31c0-0.638-0.035-1.156-0.118-1.743h1.424c-0.084,0.569-0.117,1.105-0.117,1.743v3.435
		H75.855z"/>
	<path fill="#A3A3A3" d="M82.636,15.622c-0.603,0-1.14,0.034-1.609,0.101v-1.123c0.486,0.067,0.973,0.1,1.659,0.1h1.105
		c0.052-0.385,0.085-1.005,0.085-1.441c0-0.201-0.018-0.319-0.033-0.52l1.121,0.016c-0.05,0.285-0.083,0.537-0.116,0.938
		c-0.051,0.52-0.067,0.687-0.101,1.005h1.893c0.554,0,0.938-0.017,1.341-0.066c-0.034,0.234-0.034,0.234-0.084,1.24
		c-0.101,1.827-0.318,3.116-0.603,3.603c-0.253,0.418-0.638,0.568-1.441,0.568c-0.619,0-0.889-0.016-1.39-0.066
		c-0.035-0.368-0.102-0.637-0.234-1.021c0.484,0.1,1.088,0.167,1.624,0.167c0.535,0,0.652-0.135,0.787-0.854
		c0.135-0.637,0.219-1.541,0.252-2.648h-2.278c-0.15,0.837-0.52,1.793-0.938,2.513c-0.553,0.939-1.273,1.644-2.479,2.431
		c-0.234-0.369-0.384-0.521-0.721-0.772c1.878-1.089,2.781-2.277,3.168-4.171h-1.007V15.622z M89.253,22.694
		c1.76,1.708,3.837,2.814,6.618,3.536c-0.301,0.333-0.502,0.602-0.72,1.021c-1.308-0.419-2.229-0.82-3.301-1.424
		c-1.423-0.821-2.396-1.624-3.352-2.764c0.033,0.67,0.067,1.272,0.067,1.643v1.391c0,0.787,0.017,1.272,0.1,1.759h-1.272
		c0.083-0.52,0.117-0.972,0.117-1.759v-1.375c0-0.419,0.016-0.888,0.051-1.658c-1.425,1.741-3.47,3.082-6.368,4.154
		c-0.217-0.401-0.402-0.636-0.72-0.938c2.78-0.873,4.925-2.095,6.317-3.586h-3.973c-0.871,0-1.39,0.032-1.859,0.1V21.67
		c0.436,0.067,0.922,0.101,1.859,0.101h4.692v-0.502c0-0.536-0.034-0.838-0.085-1.156h1.207c-0.05,0.285-0.066,0.62-0.066,1.14v0.52
		h4.825c0.973,0,1.458-0.033,1.91-0.101v1.123c-0.503-0.066-0.988-0.101-1.91-0.101H89.253L89.253,22.694z M90.593,19.711
		c-0.553,0-0.921,0.018-1.374,0.067c0.051-0.437,0.067-0.704,0.067-1.224v-3.351c0-0.521-0.034-0.922-0.067-1.375
		c0.437,0.05,0.821,0.066,1.392,0.066h2.915c0.586,0,0.955-0.017,1.391-0.066c-0.051,0.419-0.066,0.82-0.066,1.356v3.284
		c0,0.503,0.017,0.905,0.066,1.307c-0.47-0.05-0.837-0.067-1.375-0.067h-2.948V19.711z M90.31,18.806h3.519v-3.971H90.31V18.806z"/>
</g>
<g>
	<path fill="#A3A3A3" d="M20.237,13.86H7.581c-0.874,0-1.575,0.708-1.575,1.582l-0.007,9.492c0,0.874,0.708,1.582,1.582,1.582
		h12.656c0.875,0,1.582-0.708,1.582-1.582v-9.492C21.82,14.568,21.112,13.86,20.237,13.86L20.237,13.86z M11.141,22.561h-0.949
		l-2.017-2.769v2.769H7.186v-4.747h0.988l1.978,2.769v-2.769h0.988L11.141,22.561L11.141,22.561z M15.096,18.808h-1.978v0.886h1.977
		v0.993h-1.977v0.882h1.977v0.992h-3.164v-4.747h3.164L15.096,18.808L15.096,18.808z M20.633,21.771
		c0,0.435-0.356,0.791-0.791,0.791h-3.164c-0.435,0-0.791-0.356-0.791-0.791v-3.956h0.988v3.563h0.89v-2.776h0.988v2.776h0.891
		v-3.563h0.988L20.633,21.771L20.633,21.771z"/>
</g>
</svg>
