<?xml version="1.0" encoding="utf-8"?>
<!-- Generator: Adobe Illustrator 17.0.0, SVG Export Plug-In . SVG Version: 6.00 Build 0)  -->
<!DOCTYPE svg PUBLIC "-//W3C//DTD SVG 1.1//EN" "http://www.w3.org/Graphics/SVG/1.1/DTD/svg11.dtd">
<svg version="1.1" id="图层_1" xmlns="http://www.w3.org/2000/svg" xmlns:xlink="http://www.w3.org/1999/xlink" x="0px" y="0px"
	 width="126px" height="30.333px" viewBox="0 0 126 30.333" enable-background="new 0 0 126 30.333" xml:space="preserve">
<g>
	<path fill="#9E2D46" d="M41.959,54.144c-0.186,0.708-0.394,1.387-0.626,2.037h3.586v0.575h-3.778
		c-0.476,1.242-1.056,2.402-1.741,3.481l-0.487-0.313c1.102-1.706,1.92-3.673,2.454-5.901L41.959,54.144z M40.549,59.698h4.039
		v0.539h-2.037v2.838h2.629v0.574h-2.629v4.91c0.87-0.278,1.764-0.691,2.681-1.236l0.105,0.575c-0.998,0.58-2.153,1.056-3.465,1.427
		l-0.261-0.522c0.232-0.069,0.348-0.175,0.348-0.313v-4.84h-2.629v-0.574h2.629v-2.838h-1.41V59.698z M46.433,54.701
		c0.638,1.021,1.201,2.032,1.689,3.03l-0.487,0.244c-0.534-1.125-1.103-2.13-1.706-3.012L46.433,54.701z M49.758,54.04h0.575v5.048
		h3.377v9.418c0,0.789-0.389,1.183-1.166,1.183h-1.845l-0.174-0.591l1.811,0.035c0.51,0,0.765-0.25,0.765-0.749v-2.663h-6.145v4.056
		h-0.592V59.088h3.394V54.04z M53.1,62.152v-2.49h-6.145v2.49H53.1z M46.955,62.692v2.472H53.1v-2.472H46.955z M54.163,54.823
		c-0.453,1.068-1.039,2.124-1.758,3.168l-0.487-0.261c0.72-1.068,1.294-2.118,1.723-3.151L54.163,54.823z"/>
	<path fill="#9E2D46" d="M58.846,57.644c-0.708,0.882-1.515,1.718-2.42,2.507l-0.192-0.575c1.938-1.706,3.291-3.581,4.056-5.623
		l0.61,0.122c-0.198,0.499-0.482,1.097-0.853,1.793h5.1c-0.29-0.742-0.598-1.352-0.922-1.828l0.592-0.104
		c0.348,0.58,0.656,1.225,0.923,1.932h5.344v0.557h-5.64v1.759h4.874v0.505h-4.874v1.672h4.909v0.539h-4.909v1.828h5.849v0.54
		H58.846V57.644z M69.969,65.129v4.735h-0.575v-1.045h-9.905v1.045h-0.592v-4.735H69.969z M59.715,56.424L59.42,56.86v1.323h5.431
		v-1.759H59.715z M64.851,60.359v-1.672H59.42v1.672H64.851z M64.851,62.727v-1.828H59.42v1.828H64.851z M59.489,68.262h9.905
		v-2.576h-9.905V68.262z"/>
	<path fill="#9E2D46" d="M73.973,60.951h15.215v0.522h-7.99v6.04c0.279-0.046,0.673-0.104,1.183-0.173v0.522l-1.183,0.157v1.793
		h-0.592v-1.723c-1.741,0.197-3.888,0.36-6.441,0.487l-0.087-0.557c0.789-0.023,1.381-0.046,1.776-0.07v-6.476h-1.88V60.951z
		 M76.427,54.788h10.375v4.579H76.427V54.788z M76.427,63.231h4.178v-1.758h-4.178V63.231z M76.427,65.477h4.178v-1.723h-4.178
		V65.477z M76.427,67.914c1.625-0.093,3.018-0.203,4.178-0.331v-1.601h-4.178V67.914z M77.002,56.808h9.209v-1.515h-9.209V56.808z
		 M86.211,58.844v-1.549h-9.209v1.549H86.211z M82.416,63.632v-0.557h5.71v0.523c-0.395,1.474-1.091,2.733-2.089,3.778
		c0.894,0.731,1.932,1.351,3.116,1.862l-0.313,0.487c-1.265-0.603-2.322-1.265-3.169-1.984c-0.847,0.789-1.88,1.457-3.099,2.002
		l-0.331-0.471c1.183-0.511,2.182-1.149,2.994-1.915c-1.126-1.091-1.88-2.332-2.263-3.725H82.416z M87.534,63.632H83.53
		c0.359,1.276,1.05,2.396,2.071,3.36C86.518,66.017,87.162,64.897,87.534,63.632z"/>
	<path fill="#9E2D46" d="M98.779,53.918c0.256,0.534,0.482,1.115,0.679,1.741h7.12v0.592H91.346v-0.592h7.503
		c-0.186-0.545-0.418-1.085-0.697-1.619L98.779,53.918z M102.348,69.76l-0.139-0.574l1.445,0.035c0.847,0,1.271-0.355,1.271-1.062
		v-5.293H93.017v6.929h-0.574v-7.486h13.056v5.972c0,0.986-0.552,1.479-1.654,1.479H102.348z M94.393,57.852h9.174v2.994h-9.174
		V57.852z M102.975,60.324v-1.949h-7.99v1.949H102.975z M95.768,64.433h6.441v3.186h-6.441V64.433z M101.634,67.113v-2.159h-5.309
		v2.159H101.634z"/>
</g>
<g>
	<polygon fill="#9E2D46" points="7.908,10.193 7.908,10.193 7.908,10.193 	"/>
	<path fill="#9E2D46" d="M30.214,11.058c0-1.244-1.019-2.256-2.271-2.256H25.6V6.666c0-0.281-0.229-0.509-0.51-0.509H14.032
		c-0.281,0-0.509,0.228-0.509,0.509s0.228,0.509,0.509,0.509h10.548v9.069c0,3.675-2.989,6.665-6.664,6.665
		c-3.675,0-6.665-2.99-6.665-6.665V6.666c0-0.281-0.229-0.509-0.509-0.509c-0.28,0-0.508,0.228-0.508,0.509v2.136H7.973L7.872,8.427
		l0.004,0.375c-1.256,0-2.268,1.012-2.268,2.256c0,0.6,0.233,1.164,0.656,1.588l3.963,4.239l0.051,0.18
		c0.38,3.56,3.238,6.426,6.795,6.814l0.334,0.037v5.023h-4.438c-0.281,0-0.509,0.229-0.509,0.509c0,0.281,0.229,0.51,0.509,0.51
		h9.895c0.281,0,0.509-0.229,0.509-0.51c0-0.28-0.229-0.509-0.509-0.509h-4.438v-5.023l0.334-0.037
		c3.563-0.392,6.42-3.262,6.795-6.824l0.016-0.146l0.111-0.097l3.867-4.157C29.981,12.222,30.214,11.657,30.214,11.058z
		 M10.234,15.425l-3.226-3.473c-0.251-0.251-0.382-0.563-0.382-0.895c0-0.683,0.555-1.238,1.238-1.238l0.067-0.001l-0.023,0.375
		L7.957,9.82h2.277V15.425z M28.831,11.935L25.6,15.414V9.82h2.363c0.678,0,1.233,0.555,1.233,1.238
		C29.196,11.388,29.066,11.7,28.831,11.935z"/>
</g>
<path fill="#9E2D46" stroke="#FFFFFF" stroke-width="0.25" stroke-miterlimit="10" d="M27.42,65.826
	c0.332,0,0.601-0.275,0.601-0.613v-7.93c0-1.288-1.022-2.334-2.283-2.334h-1.893c-0.95-3.1-3.317-5.29-6.516-5.29
	c-3.199,0-5.566,2.19-6.516,5.29H8.918c-1.261,0-2.283,1.046-2.283,2.334v14.132c0,1.287,1.022,2.333,2.283,2.333h16.819
	c1.261,0,2.283-1.045,2.283-2.333v-0.675c-0.001-0.338-0.27-0.611-0.601-0.611c-0.331,0-0.599,0.273-0.601,0.611v0.001
	c0,0.001,0,0.001,0,0.002c0,0,0,0.001,0,0.001v0.547c0,0.679-0.538,1.228-1.202,1.228H14.849h-0.001h-5.81
	c-0.664,0-1.202-0.549-1.202-1.228V57.405c0-0.679,0.538-1.228,1.202-1.228h1.481c-0.108,0.618-0.17,1.259-0.17,1.921
	c0,0.505,0.038,0.997,0.102,1.478c-0.447,0.235-0.757,0.707-0.757,1.257c0,0.782,0.62,1.417,1.386,1.417
	c0.766,0,1.387-0.635,1.387-1.417c0-0.535-0.294-0.997-0.724-1.238c-0.077-0.483-0.126-0.98-0.126-1.496
	c0-0.667,0.069-1.31,0.195-1.921h11.028c0.126,0.611,0.195,1.254,0.195,1.921c0,0.52-0.05,1.022-0.128,1.51
	c-0.416,0.244-0.7,0.698-0.7,1.225c0,0.782,0.621,1.417,1.386,1.417c0.766,0,1.387-0.635,1.387-1.417
	c0-0.559-0.318-1.036-0.777-1.268c0.063-0.477,0.101-0.965,0.101-1.466c0-0.661-0.062-1.303-0.17-1.921h1.481
	c0.665,0,1.202,0.55,1.202,1.228v7.807C26.819,65.551,27.087,65.826,27.42,65.826z M12.164,54.948
	c0.857-2.301,2.682-3.883,5.163-3.883c2.481,0,4.306,1.582,5.164,3.883H12.164z"/>
<g>
	<path fill="#9E2D46" d="M37.96,16.164h15.215v0.522h-7.99v6.041c0.278-0.046,0.673-0.104,1.184-0.174v0.522l-1.184,0.156v1.793
		h-0.592v-1.723c-1.741,0.198-3.888,0.36-6.441,0.487l-0.087-0.557c0.789-0.023,1.381-0.046,1.775-0.069v-6.476h-1.88V16.164z
		 M40.414,10.002H50.79v4.579H40.414V10.002z M40.414,18.445h4.178v-1.759h-4.178V18.445z M40.414,20.69h4.178v-1.723h-4.178V20.69z
		 M40.414,23.128c1.624-0.093,3.018-0.203,4.178-0.331v-1.602h-4.178V23.128z M40.989,12.021h9.209v-1.514h-9.209V12.021z
		 M50.198,14.057v-1.549h-9.209v1.549H50.198z M46.403,18.845v-0.557h5.71v0.523c-0.395,1.474-1.091,2.733-2.089,3.778
		c0.894,0.731,1.933,1.352,3.116,1.862l-0.313,0.487c-1.265-0.604-2.321-1.265-3.168-1.984c-0.847,0.789-1.88,1.456-3.099,2.002
		l-0.331-0.47c1.184-0.511,2.182-1.149,2.994-1.915c-1.126-1.091-1.88-2.333-2.263-3.725H46.403z M51.521,18.845h-4.004
		c0.36,1.276,1.05,2.396,2.072,3.36C50.505,21.23,51.149,20.11,51.521,18.845z"/>
	<path fill="#9E2D46" d="M57.579,19.925c-0.499,1.752-1.213,3.284-2.141,4.596l-0.505-0.331c0.928-1.265,1.619-2.727,2.072-4.387
		L57.579,19.925z M55.229,14.876h2.245c-0.278-0.835-0.661-1.619-1.149-2.35l0.557-0.192c0.418,0.674,0.806,1.521,1.166,2.542h2.263
		c0.464-0.788,0.876-1.665,1.236-2.628l0.557,0.191c-0.36,0.894-0.772,1.706-1.236,2.437h2.332v0.574h-3.603v2.559h3.29v0.558h-3.29
		v5.222c0,0.87-0.395,1.306-1.184,1.306H57.44l-0.122-0.574c0.417,0.023,0.719,0.035,0.905,0.035c0.522,0,0.783-0.308,0.783-0.923
		v-5.065h-3.534v-0.558h3.534V15.45h-3.778V14.876z M55.385,10.925h3.76c-0.337-0.685-0.72-1.3-1.149-1.845l0.592-0.105
		c0.406,0.534,0.789,1.184,1.149,1.95h3.342v0.591h-7.695V10.925z M61.252,19.663c0.627,1.149,1.12,2.228,1.48,3.238l-0.505,0.191
		c-0.441-1.184-0.94-2.28-1.497-3.29L61.252,19.663z M70.165,10.002c-1.567,0.731-3.342,1.149-5.327,1.254v3.707h6.197v0.575h-2.211
		v9.575H68.25v-9.575h-3.412v2.559c-0.081,2.879-0.725,5.182-1.932,6.911l-0.435-0.453c1.09-1.543,1.683-3.696,1.776-6.459v-7.329
		c2.065-0.058,3.94-0.494,5.622-1.306L70.165,10.002z"/>
	<path fill="#9E2D46" d="M79.234,9.201h0.627v5.64h6.441v0.574h-6.441v8.182h8.181v0.592H72.724v-0.592h6.511V9.201z"/>
	<path fill="#9E2D46" d="M93.37,9.27h0.575v1.514l-0.018,0.261h3.308c-0.012,2.762-0.18,4.428-0.505,4.996
		c-0.325,0.534-0.865,0.801-1.619,0.801c-0.209,0-0.65-0.012-1.323-0.035l-0.157-0.557c0.545,0.035,0.986,0.052,1.323,0.052
		c0.72-0.023,1.172-0.285,1.358-0.783c0.175-0.511,0.279-1.822,0.314-3.934h-2.751c-0.278,2.495-1.398,4.352-3.36,5.57l-0.435-0.383
		c1.891-1.137,2.965-2.866,3.22-5.187h-3.081v-0.54h3.133L93.37,9.27z M90.376,18.776h7.102v-1.637h0.592v1.637h7.12v0.557h-6.336
		c1.219,1.671,3.383,3.157,6.493,4.456l-0.418,0.488c-3.191-1.463-5.397-3.11-6.615-4.944H98.07v5.64h-0.592v-5.64h-0.243
		c-1.312,2.065-3.569,3.743-6.772,5.031l-0.314-0.522c3.064-1.149,5.246-2.651,6.546-4.509h-6.319V18.776z M99.22,10.785h5.118
		v5.432H99.22V10.785z M103.78,15.659v-4.3h-3.986v4.3H103.78z"/>
</g>
</svg>
