<?xml version="1.0" encoding="utf-8"?>
<!-- Generator: Adobe Illustrator 16.0.0, SVG Export Plug-In . SVG Version: 6.00 Build 0)  -->
<!DOCTYPE svg PUBLIC "-//W3C//DTD SVG 1.1//EN" "http://www.w3.org/Graphics/SVG/1.1/DTD/svg11.dtd">
<svg version="1.1" id="图层_1" xmlns="http://www.w3.org/2000/svg" xmlns:xlink="http://www.w3.org/1999/xlink" x="0px" y="0px"
	 width="30px" height="15px" viewBox="0 0 30 15" enable-background="new 0 0 30 15" xml:space="preserve">
<g>
	<path fill="#FFFFFF" d="M1.456,2.356c0.917,0.65,1.686,1.28,2.304,1.888c0.853-0.768,1.53-1.643,2.032-2.624h-4.24V0.804h5.216
		V1.46c-0.491,1.141-1.184,2.16-2.08,3.056h5.456C8.938,3.343,8.016,2.068,7.376,0.692l0.72-0.416C8.405,0.959,8.8,1.636,9.28,2.308
		c0.778-0.544,1.44-1.173,1.984-1.888l0.624,0.56c-0.544,0.693-1.253,1.344-2.128,1.952c0.426,0.512,0.885,0.981,1.376,1.408
		c0.832-0.608,1.536-1.296,2.112-2.064l0.624,0.56c-0.608,0.768-1.312,1.44-2.112,2.016c0.811,0.662,1.754,1.259,2.832,1.792
		l-0.576,0.64c-1.472-0.778-2.731-1.669-3.776-2.672v0.72H4.448V4.756C3.338,5.78,2,6.623,0.432,7.284l-0.528-0.688
		c1.28-0.544,2.362-1.157,3.248-1.84c-0.587-0.555-1.35-1.168-2.288-1.84L1.456,2.356z M4.032,11.108
		c0.554,0.629,1.056,1.387,1.504,2.271h3.28c0.534-0.746,0.992-1.541,1.376-2.384l0.816,0.304c-0.416,0.832-0.843,1.525-1.28,2.08
		h4.192v0.832H0.288V13.38h4.368c-0.384-0.703-0.864-1.359-1.44-1.968L4.032,11.108z M2.784,6.884h8.736v3.728H2.784V6.884z
		 M10.64,9.828V7.652H3.664v2.176H10.64z"/>
	<path fill="#FFFFFF" d="M17.904,0.788h9.088v5.216h2.943V6.82h-6.48v1.936c0.375,0.459,0.832,0.935,1.377,1.425
		c1.195-0.65,2.225-1.59,3.088-2.816l0.672,0.56c-0.906,1.195-1.969,2.112-3.184,2.752c1.322,1.077,2.854,1.994,4.592,2.752
		l-0.447,0.752c-2.561-1.185-4.594-2.656-6.098-4.416v3.68c0,0.854-0.379,1.279-1.135,1.279h-1.824l-0.191-0.815
		c0.811,0.042,1.381,0.063,1.711,0.063c0.385,0,0.576-0.245,0.576-0.735V9.845c-1.686,1.589-3.713,3.008-6.08,4.256L16.16,13.3
		c2.496-1.205,4.641-2.666,6.432-4.384V6.82H16.32V6.004h9.791V4.212h-7.664V3.444h7.664V1.588h-8.207V0.788z M17.904,7.62
		c0.992,0.704,1.824,1.393,2.496,2.064l-0.576,0.576c-0.619-0.65-1.457-1.345-2.512-2.081L17.904,7.62z"/>
</g>
</svg>
