<?xml version="1.0" encoding="utf-8"?>
<!-- Generator: Adobe Illustrator 17.0.0, SVG Export Plug-In . SVG Version: 6.00 Build 0)  -->
<!DOCTYPE svg PUBLIC "-//W3C//DTD SVG 1.1//EN" "http://www.w3.org/Graphics/SVG/1.1/DTD/svg11.dtd">
<svg version="1.1" id="" xmlns="http://www.w3.org/2000/svg" xmlns:xlink="http://www.w3.org/1999/xlink" x="0px" y="0px"
	 width="110px" height="60px" viewBox="0 0 110 60" enable-background="new 0 0 110 60" xml:space="preserve">
<g>
	<path fill="#CF000E" d="M106.047,31.316c0,4.077-0.019,7.851-0.954,10.77c-1.206,3.761-3.573,6.12-5.619,6.12
		c-2.02,0-3.827-1.474-5.033-5.161c-0.96-2.936-1.537-7.593-1.537-11.729c0-5.83,1.27-10.9,2.896-14.006
		c2.721-5.187,2.351,0.276,4.594,1.364c1.82,0.88,2.827-1.089,3.851,1.157C105.161,21.831,106.047,24.713,106.047,31.316z"/>
	<g>
		<path fill="#FFFFFF" d="M98.577,20.927c-0.249,0.051-0.484,0.097-0.707,0.139v1.356h0.38l0.327-0.389l0.48,0.443
			c0.02,0.016,0.03,0.036,0.03,0.061c0,0.061-0.03,0.09-0.09,0.09H97.87v0.617c0.36,0.18,0.609,0.329,0.744,0.45
			c0.151,0.143,0.227,0.271,0.227,0.387c0,0.087-0.03,0.169-0.09,0.244c-0.064,0.077-0.124,0.114-0.174,0.114
			c-0.036,0-0.074-0.046-0.113-0.137c-0.139-0.334-0.336-0.62-0.594-0.854V27c0,0.087-0.037,0.149-0.116,0.183
			c-0.094,0.056-0.207,0.083-0.336,0.083v-3.763c-0.13,0.36-0.254,0.651-0.373,0.867c-0.284,0.54-0.607,1.01-0.967,1.409
			l-0.061-0.06c0.356-0.564,0.61-1.047,0.763-1.454c0.137-0.317,0.299-0.863,0.487-1.639h-0.533c-0.101,0-0.27,0.021-0.504,0.061
			l-0.123-0.267h1.31v-1.273c-0.436,0.08-0.843,0.149-1.217,0.199L96.139,21.2c1.044-0.213,1.82-0.483,2.324-0.807l0.44,0.51
			c0,0.036-0.009,0.053-0.03,0.053C98.741,20.939,98.643,20.927,98.577,20.927z M99.026,21.437c0.574,0.417,0.861,0.736,0.861,0.953
			c0,0.067-0.033,0.141-0.099,0.22c-0.081,0.09-0.157,0.137-0.229,0.137c-0.054,0-0.083-0.039-0.083-0.121
			c-0.057-0.421-0.236-0.797-0.541-1.127L99.026,21.437z M102.18,20.814c-1.174,0.127-2.216,0.226-3.124,0.297l-0.06-0.153
			c1.39-0.189,2.421-0.424,3.093-0.709l0.447,0.533c0,0.041-0.01,0.061-0.03,0.061C102.36,20.824,102.251,20.814,102.18,20.814z
			 M100.43,23.22c-0.346,0.117-0.656,0.21-0.931,0.281v1.12h0.42l0.327-0.389l0.487,0.474c0.011,0.019,0.016,0.039,0.016,0.059
			c0,0.041-0.017,0.061-0.053,0.061h-1.197v1.433h2.416v-1.461h-0.511c-0.12,0-0.249,0.01-0.38,0.03l-0.153-0.236h1.044v-1.157
			h-0.45c-0.137,0-0.273,0.006-0.41,0.021l-0.184-0.236h1.014l0.236-0.297l0.419,0.374c0.061,0.034,0.093,0.07,0.093,0.106
			c0,0.016-0.093,0.084-0.276,0.207v3.359c0,0.087-0.033,0.149-0.106,0.184c-0.096,0.06-0.209,0.091-0.334,0.091v-0.777H99.5v0.501
			c0,0.073-0.026,0.12-0.076,0.146c-0.116,0.066-0.239,0.099-0.366,0.099v-4.136l0.449,0.26c0.367-0.164,0.643-0.349,0.83-0.557
			l0.359,0.41c0,0.04-0.011,0.061-0.03,0.061C100.559,23.23,100.48,23.22,100.43,23.22z M100.397,21.201
			c0.471,0.436,0.707,0.773,0.707,1.004c0,0.073-0.03,0.149-0.099,0.23c-0.076,0.087-0.15,0.129-0.227,0.129
			c-0.05,0-0.079-0.037-0.084-0.114c-0.04-0.447-0.17-0.844-0.387-1.196L100.397,21.201z M102.211,21.201l0.503,0.349
			c0.06,0.043,0.091,0.073,0.091,0.093c0,0.036-0.031,0.059-0.091,0.067c-0.07,0.017-0.151,0.066-0.243,0.146
			c-0.396,0.391-0.771,0.709-1.12,0.953l-0.061-0.09C101.753,22.169,102.057,21.666,102.211,21.201z"/>
		<path fill="#FFFFFF" d="M98.106,31.243l0.539,0.306c0.036,0.02,0.056,0.039,0.056,0.053c0,0.021-0.041,0.041-0.123,0.069
			c-0.126,0.041-0.224,0.12-0.297,0.237c-0.133,0.193-0.26,0.373-0.381,0.54l0.211,0.116c0.073,0.03,0.107,0.057,0.107,0.083
			c0,0.021-0.077,0.08-0.236,0.174v2.804c0,0.083-0.043,0.144-0.13,0.184c-0.087,0.034-0.19,0.051-0.313,0.051v-2.947
			c-0.511,0.644-1,1.141-1.461,1.493l-0.091-0.061C96.749,33.69,97.454,32.654,98.106,31.243z M96.107,30.146h2.141v-1.157
			l0.61,0.25c0.03,0.011,0.044,0.026,0.044,0.046c0,0.016-0.067,0.074-0.204,0.176v0.684h1.31v-1.157l0.61,0.25
			c0.03,0.011,0.046,0.026,0.046,0.046c0,0.016-0.073,0.074-0.214,0.176v0.684h1.196l0.383-0.503l0.617,0.54
			c0.026,0.021,0.039,0.049,0.039,0.084c0,0.057-0.039,0.086-0.114,0.086h-2.119v0.654c-0.009,0.073-0.06,0.127-0.151,0.167
			c-0.097,0.03-0.191,0.046-0.289,0.046V30.35H98.7v0.594c-0.016,0.076-0.069,0.133-0.154,0.167c-0.1,0.03-0.2,0.044-0.296,0.044
			V30.35h-1.516c-0.101,0-0.27,0.021-0.504,0.06L96.107,30.146z M101.76,31.63l0.45,0.466c0.04,0.05,0.061,0.086,0.061,0.099
			c0,0.04-0.084,0.084-0.253,0.129c-0.243,0.061-0.487,0.177-0.731,0.343c-0.36,0.25-0.74,0.491-1.136,0.726v1.486
			c0,0.211,0.054,0.331,0.16,0.357c0.171,0.04,0.399,0.061,0.679,0.061c0.396,0,0.689-0.033,0.876-0.099
			c0.151-0.05,0.239-0.141,0.26-0.269l0.26-1.211l0.09,0.031l0.06,0.934c0,0.19,0.081,0.351,0.236,0.49
			c-0.154,0.283-0.331,0.447-0.524,0.486c-0.167,0.051-0.587,0.077-1.257,0.077c-0.499,0-0.846-0.029-1.043-0.083
			c-0.157-0.046-0.236-0.177-0.236-0.39V33.65c-0.431,0.241-0.889,0.484-1.371,0.723l-0.061-0.123
			c0.529-0.303,1.006-0.604,1.433-0.897v-2.081l0.586,0.237c0.046,0.02,0.07,0.04,0.07,0.06c0,0.017-0.073,0.086-0.214,0.214v1.256
			C100.819,32.559,101.356,32.089,101.76,31.63z"/>
		<path fill="#FFFFFF" d="M101.289,38.29c-0.549,0.076-1.074,0.144-1.577,0.206v1.013h2.019l0.359-0.48l0.563,0.526
			c0.021,0.021,0.031,0.046,0.031,0.077c0,0.056-0.039,0.084-0.114,0.084H100c0.497,0.493,0.9,0.813,1.203,0.961
			c0.413,0.237,1.006,0.434,1.776,0.586v0.09c-0.299,0.027-0.534,0.136-0.707,0.329c-0.673-0.284-1.181-0.583-1.531-0.9
			c-0.306-0.269-0.607-0.624-0.906-1.066h-0.123v1.523c0,0.083-0.036,0.14-0.107,0.174c-0.096,0.061-0.21,0.093-0.343,0.093v-1.791
			h-0.053c-0.381,0.533-0.809,0.97-1.287,1.31c-0.497,0.376-1.123,0.704-1.876,0.983l-0.06-0.121
			c1.22-0.614,2.109-1.339,2.666-2.171h-1.767c-0.1,0-0.27,0.021-0.509,0.061l-0.114-0.269h3.001v-0.959
			c-0.94,0.111-1.813,0.203-2.621,0.273l-0.053-0.146c2.074-0.253,3.609-0.57,4.611-0.953l0.447,0.533
			c0,0.043-0.01,0.061-0.03,0.061C101.47,38.301,101.36,38.29,101.289,38.29z M97.776,41.261l0.42,0.244h2.376l0.329-0.329
			l0.463,0.381c0.026,0.027,0.037,0.047,0.037,0.061c0,0.036-0.079,0.116-0.236,0.244v2.581c0,0.057-0.014,0.106-0.044,0.147
			c-0.034,0.046-0.167,0.08-0.394,0.099v-0.51h-2.509v0.297c0,0.066-0.026,0.114-0.076,0.146c-0.119,0.066-0.24,0.099-0.367,0.099
			v-3.461H97.776z M98.219,42.724h2.509V41.71h-2.509V42.724z M98.219,43.973h2.509v-1.041h-2.509V43.973z"/>
	</g>
</g>
<path fill="#FFFFFF" d="M60.669,24.364c-3.62,12.62-13.147,15.667-13.147,15.667c10.43-1.003,14.629-12.511,15.41-14.133
	C63.814,24.063,61.176,23.006,60.669,24.364z"/>
<path fill="#FFFFFF" d="M71.589,26.264c-1.541-3.127-1.439-2.024-1.439-2.024c3.023,11.134,10.79,15.491,11.284,15.661
	c0.497,0.17,0.769,0.221,1.634-0.154c0.869-0.377,2.614-0.667,2.614-0.667C80.62,36.44,75.71,33.481,71.589,26.264z"/>
<path fill="#FFFFFF" d="M78.439,7.269c-1.947,6.276-6.816,8.207-6.816,8.207c4.834-0.593,8.549-5.506,9.159-6.544
	C82.197,6.507,79.411,4.143,78.439,7.269z"/>
<path fill="#FFFFFF" d="M51.234,7.156c3.097,1.423,5.483,4.533,6.856,7.24c1.151,2.269,3.406,1.054,2.224-1.23
	C57.2,7.14,51.234,7.156,51.234,7.156z"/>
<path fill="#FFFFFF" d="M84.973,20.139c0.493,0,0.281-1.406-1.091-1.724c-1.37-0.319-2.073,0.914-2.073,0.914H67.47V4.924
	c0-0.569-0.343-0.876-0.977-1.057C65.874,3.69,65.16,3.88,65.16,4.204v15.124H49.337c-0.091,0.049-0.139,0.269-0.083,0.463
	c0.064,0.223,0.174,0.347,0.376,0.347h15.531v23.504c0,0,0,0.46,0,0.933c0,0.327,0.714,0.514,1.333,0.337
	c0.633-0.18,0.977-0.489,0.977-1.056V20.139H84.973z"/>
<g>
	<path fill="#FFFFFF" d="M42.203,35.35c-1.331-0.307-2.014,0.889-2.014,0.889h-7.196c-0.089,0.046-0.134,0.26-0.079,0.447
		c0.061,0.217,0.167,0.336,0.363,0.336h9.981C43.737,37.021,43.531,35.657,42.203,35.35z"/>
	<path fill="#FFFFFF" d="M35.551,43.801c4.684,0,8.577,0.087,10.156-2.293c0.213-0.31,0.384-0.671,0.48-1.087
		c-0.459-1.536-1.259-3.403-1.141-5.151c-0.106,1.236-1.206,3.84-1.643,4.564c-0.833,1.399-1.483,2.709-7.21,2.709
		c-4.896,0-4.896-3.477-4.896-3.477V19.929h10.291c0,0.169,0,0.386,0,0.607c0,0.321,0.707,0.509,1.316,0.334
		c0.626-0.179,0.966-0.481,0.966-1.044v-7.191c0-0.563-0.339-0.867-0.966-1.044c-0.61-0.174-1.316,0.013-1.316,0.333v0.684H31.297
		V3.641c0-0.563-0.34-0.866-0.966-1.043c-0.61-0.176-1.317,0.011-1.317,0.333v10.766c0,0,0,0.454,0,0.923
		c0,0.321,0.709,0.509,1.317,0.334c0.626-0.179,0.966-0.481,0.966-1.044v-0.516h10.291v5.749c-1.233,0-1.839,0-1.839,0h-8.453V18.99
		c0-0.566-0.341-0.864-0.961-1.044c-0.619-0.171-1.321,0.01-1.321,0.33V39.32c0,0,0,0.236,0,0.544c0,0.16,0.011,0.32,0.031,0.481
		C29.366,42.874,32.299,43.801,35.551,43.801z"/>
	<path fill="#FFFFFF" d="M9.613,9.019h18.054c0.479,0,0.274-1.366-1.056-1.671c-1.331-0.307-2.014,0.887-2.014,0.887H9.327
		C9.24,8.281,9.194,8.496,9.249,8.683C9.311,8.9,9.417,9.019,9.613,9.019z"/>
	<path fill="#FFFFFF" d="M42.203,24.249c-1.331-0.307-2.014,0.887-2.014,0.887h-7.196c-0.089,0.047-0.134,0.261-0.079,0.449
		c0.061,0.217,0.167,0.334,0.363,0.334h9.981C43.737,25.92,43.531,24.556,42.203,24.249z"/>
	<path fill="#FFFFFF" d="M42.203,29.8c-1.331-0.307-2.014,0.887-2.014,0.887h-7.196c-0.089,0.046-0.134,0.261-0.079,0.447
		c0.061,0.217,0.167,0.336,0.363,0.336h9.981C43.737,31.471,43.531,30.107,42.203,29.8z"/>
	<path fill="#FFFFFF" d="M9.369,17.547H27.66c0.493,0,0.283-1.407-1.09-1.724c-1.371-0.317-2.074,0.914-2.074,0.914H9.076
		c-0.091,0.049-0.136,0.269-0.08,0.463C9.057,17.424,9.167,17.547,9.369,17.547z"/>
	<path fill="#FFFFFF" d="M22.293,10.627c-0.52,3.554-3.379,5.259-3.379,5.259c2.813-0.643,4.961-3.686,5.256-4.329
		C24.856,10.057,22.573,8.729,22.293,10.627z"/>
	<path fill="#FFFFFF" d="M42.986,6.72c1.857-1.261,0.464-4.149-1.2-2.134C38.67,8.356,33.81,8.05,33.81,8.05
		C37.539,9.287,42.19,7.26,42.986,6.72z"/>
	<path fill="#FFFFFF" d="M17.993,6.609c0.637,1.447,2.596,1.049,2.07-0.459c-1.149-3.284-4.893-3.619-4.893-3.619
		C16.979,4.02,17.146,4.687,17.993,6.609z"/>
	<path fill="#FFFFFF" d="M11.486,10.381c1.681,1.009,2.85,2.939,3.464,4.571c0.516,1.37,2.47,0.954,1.939-0.424
		C15.487,10.886,11.486,10.381,11.486,10.381z"/>
	<path fill="#FFFFFF" d="M13.184,38.876c0.03-0.066,0.041-0.109,0.041-0.109c0.107-0.373,0.224-0.756,0.341-1.151
		c0.287-0.909,0.483-2.071,0.62-3.279h8.431v8.164c0,0,0,0.454,0,0.923c0,0.321,0.707,0.507,1.317,0.333
		c0.626-0.179,0.966-0.481,0.966-1.044V20.766c0-0.563-0.34-0.867-0.966-1.044c-0.61-0.176-1.317,0.011-1.317,0.333v1.143h-8.09
		c-0.014-0.523,0.02-0.793-0.461-1.154c-0.75-0.561-1.829-0.523-1.876-0.096c0,0,0,0.604,0,0.614
		c0.076,2.549,0.117,5.729,0.117,9.514c0,1.781-0.074,3.37-0.224,4.79c-0.106,0.919-0.244,1.824-0.447,2.699
		c-0.021,0.16-0.063,0.31-0.096,0.46c-0.18,0.906-0.406,1.696-0.67,2.389c-0.246,0.576-0.546,1.141-0.907,1.717
		c-0.363,0.576-0.79,1.131-1.27,1.674c-0.011,0.021-0.031,0.031-0.043,0.054C11.479,43.024,12.929,39.546,13.184,38.876z
		 M14.267,33.554c0.199-2.189,0.217-4.369,0.214-5.351h8.139v5.351H14.267z M22.619,27.417H14.48
		c0.01-0.571,0.019-1.143,0.037-1.704c0.011-0.523,0.021-1.024,0.021-1.504c0.014-0.597,0.014-1.486,0.003-2.227h8.076v5.436H22.619
		z"/>
</g>
</svg>
