<?xml version="1.0" encoding="utf-8"?>
<!-- Generator: Adobe Illustrator 17.0.0, SVG Export Plug-In . SVG Version: 6.00 Build 0)  -->
<!DOCTYPE svg PUBLIC "-//W3C//DTD SVG 1.1//EN" "http://www.w3.org/Graphics/SVG/1.1/DTD/svg11.dtd">
<svg version="1.1" id="图层_1" xmlns="http://www.w3.org/2000/svg" xmlns:xlink="http://www.w3.org/1999/xlink" x="0px" y="0px"
	 width="200px" height="200px" viewBox="0 0 200 200" enable-background="new 0 0 200 200" xml:space="preserve">
<g>
	<g transform="scale(0.1953125, 0.1953125)">
		<path fill="#F39826" d="M290.542,481.159h434.109v48.905H290.542V481.159L290.542,481.159z M290.542,697.838h265.583v48.898
			H290.542L290.542,697.838L290.542,697.838z M820.198,1012.354H194.244c-12.996,0-25.612-2.555-37.505-7.582
			c-11.473-4.85-21.771-11.796-30.61-20.635c-8.838-8.84-15.784-19.138-20.635-30.61c-5.035-11.894-7.582-24.516-7.582-37.505
			V264.483c0-12.996,2.548-25.612,7.582-37.505c4.85-11.473,11.796-21.771,20.635-30.61c8.84-8.839,19.138-15.785,30.61-20.641
			c11.894-5.027,24.51-7.576,37.505-7.576h94.836v48.222h-94.836c-26.53,0-48.114,21.581-48.114,48.112v651.537
			c0,26.53,21.582,48.114,48.114,48.114h625.954c26.531,0,48.118-21.582,48.118-48.114v-651.54
			c0-26.531-21.588-48.112-48.118-48.112h-94.544v-48.222h94.544c12.996,0,25.612,2.55,37.504,7.576
			c11.474,4.857,21.778,11.803,30.618,20.641c8.84,8.84,15.781,19.138,20.635,30.61c5.028,11.894,7.577,24.51,7.577,37.505v651.537
			c0,12.991-2.549,25.612-7.577,37.505c-4.855,11.473-11.795,21.771-20.635,30.61c-8.838,8.838-19.143,15.784-30.618,20.635
			C845.811,1009.8,833.194,1012.354,820.198,1012.354L820.198,1012.354z M748.006,312.67H266.435V156.146
			c0-33.205,27.016-60.223,60.223-60.223h62.18c22.237-44.272,67.846-72.978,118.382-72.978c50.54,0,96.15,28.705,118.381,72.978
			h62.183c33.21,0,60.223,27.019,60.223,60.223L748.006,312.67L748.006,312.67z M314.656,264.447h385.135V156.147
			c0-6.617-5.385-12.002-12.008-12.002H592.47l-5.607-16.244c-11.71-33.936-43.715-56.734-79.642-56.734
			s-67.933,22.801-79.642,56.734l-5.609,16.244h-95.312c-6.617,0-12.002,5.384-12.002,12.002V264.447L314.656,264.447z"/>
	</g>
</g>
</svg>
