<?xml version="1.0" encoding="utf-8"?>
<!-- Generator: Adobe Illustrator 17.0.0, SVG Export Plug-In . SVG Version: 6.00 Build 0)  -->
<!DOCTYPE svg PUBLIC "-//W3C//DTD SVG 1.1//EN" "http://www.w3.org/Graphics/SVG/1.1/DTD/svg11.dtd">
<svg version="1.1" id="图层_1" xmlns="http://www.w3.org/2000/svg" xmlns:xlink="http://www.w3.org/1999/xlink" x="0px" y="0px"
	 width="200px" height="200px" viewBox="0 0 200 200" enable-background="new 0 0 200 200" xml:space="preserve">
<g>
	<g transform="scale(0.1953125, 0.1953125)">
		<path fill="#F39826" d="M980.32,501.592c-11.464,0-20.777,9.289-20.777,20.678c0,60.774-11.957,119.671-35.575,175.084
			c-22.778,53.536-55.414,101.612-96.967,142.943c-41.455,41.208-89.852,73.621-143.832,96.374
			C627.385,960.116,568.143,972,507.023,972c-61.095,0-120.338-11.858-176.146-35.329c-53.98-22.729-102.353-55.142-143.832-96.374
			c-41.579-41.332-74.189-89.383-96.991-142.943c-23.618-55.462-35.575-114.36-35.575-175.084
			c0-60.676,11.957-119.548,35.575-174.986c22.753-53.487,55.388-101.586,96.991-142.992c41.603-41.306,90-73.719,143.858-96.35
			c55.759-23.42,115.027-35.329,176.122-35.329c89.654,0,176.394,26.089,250.756,75.35l10.475,6.917l-12.427,2.1l-99.289,16.626
			c-11.29,1.903-18.949,12.6-17.046,23.841c1.705,9.981,10.352,17.219,20.53,17.219c1.136,0,2.298-0.098,3.459-0.296l159.545-26.681
			c5.509-0.964,10.302-3.928,13.489-8.425c3.237-4.497,4.497-9.956,3.558-15.416L815.316,17.769
			C813.611,7.714,805.063,0.45,795.032,0.426c-1.186,0-2.422,0.124-3.656,0.346c-11.34,1.903-18.998,12.6-17.071,23.841
			l14.254,83.972l1.903,11.315l-9.611-6.374c-81.255-53.832-175.974-82.268-273.83-82.268c-66.728,0-131.431,12.97-192.329,38.614
			c-58.946,24.779-111.766,60.182-157.025,105.244C112.334,220.08,76.71,272.578,51.758,331.129
			c-25.742,60.576-38.812,124.884-38.812,191.118c0,66.283,13.069,130.566,38.812,191.167
			c24.927,58.501,60.528,110.999,105.885,156.037c45.309,45.012,98.177,80.464,157.05,105.268
			c61.095,25.594,125.798,38.59,192.329,38.59s131.258-12.97,192.353-38.59c58.872-24.804,111.716-60.231,157.025-105.268
			c45.358-45.038,80.982-97.536,105.911-156.037c25.742-60.552,38.812-124.859,38.812-191.167
			C1001.097,510.882,991.784,501.592,980.32,501.592z M385.177,294.169c-4.299-5.04-10.574-7.955-17.219-7.955
			c-5.286,0-10.4,1.829-14.428,5.212c-9.487,7.906-10.722,22.037-2.767,31.449l64.184,75.968c2.47,2.891,5.905,5.04,10.5,6.498
			l7.56,2.396l6.621-2.347c2.965-1.062,5.164-2.248,6.967-3.756c9.487-7.906,10.747-22.037,2.767-31.475L385.177,294.169z
			 M660.465,291.402c-4.052-3.385-9.166-5.212-14.428-5.212c-6.67,0-12.92,2.915-17.219,7.955l-64.134,75.968
			c-3.854,4.595-5.707,10.376-5.164,16.305c0.519,5.954,3.335,11.34,7.93,15.169c1.803,1.532,4.026,2.692,6.967,3.756l6.621,2.347
			l7.56-2.396c4.62-1.458,8.029-3.607,10.524-6.498l64.159-75.968C671.187,313.439,669.951,299.333,660.465,291.402z
			 M529.455,457.296v-2.47h2.496h199.641c12.377,0,22.457-10.03,22.457-22.333c0-12.303-10.08-22.309-22.457-22.309H589.314h-1.408
			h-14.354H440.418h-14.354h-1.408H282.38c-12.377,0-22.457,10.006-22.457,22.309c0,12.303,10.08,22.333,22.457,22.333h199.641
			h2.496v2.47v124.019v2.47h-2.496H307.331c-12.377,0-22.457,10.03-22.457,22.333c0,12.303,10.08,22.309,22.457,22.309h174.69h2.496
			v2.496v198.381c0,12.303,10.08,22.309,22.457,22.309c12.377,0,22.457-10.006,22.457-22.309V630.923v-2.496h2.496h174.69
			c12.377,0,22.457-10.006,22.457-22.309c0-12.303-10.08-22.333-22.457-22.333H531.925h-2.496v-2.47V457.296
			C529.429,457.296,529.455,457.296,529.455,457.296z M424.68,407.689c-1.112-0.371-2.149-0.939-3.211-1.408
			c0.569,0.469,1.112,0.889,1.705,1.408H424.68z M589.314,407.689h69.52l-66.926-1.136
			C591.043,406.922,590.229,407.417,589.314,407.689z M440.442,407.689h64.332l-62.281-1.112
			C441.776,406.898,441.134,407.441,440.442,407.689z M573.553,407.689c-0.865-0.321-1.606-0.939-2.47-1.334
			c0.445,0.395,0.865,0.84,1.284,1.334H573.553z"/>
	</g>
</g>
</svg>
