<?xml version="1.0" encoding="utf-8"?>
<!-- Generator: Adobe Illustrator 17.0.0, SVG Export Plug-In . SVG Version: 6.00 Build 0)  -->
<!DOCTYPE svg PUBLIC "-//W3C//DTD SVG 1.1//EN" "http://www.w3.org/Graphics/SVG/1.1/DTD/svg11.dtd">
<svg version="1.1" id="图层_1" xmlns="http://www.w3.org/2000/svg" xmlns:xlink="http://www.w3.org/1999/xlink" x="0px" y="0px"
	 width="200px" height="200px" viewBox="0 0 200 200" enable-background="new 0 0 200 200" xml:space="preserve">
<g>
	<g transform="scale(0.1953125, 0.1953125)">
		<path fill="#F39826" d="M876.147,127.775H645.261l0,0H380.169l0,0H149.283c-58.79,0-106.891,48.101-106.891,106.891v555.837
			c0,58.791,48.102,106.891,106.891,106.891h726.864c58.791,0,106.891-48.102,106.891-106.891V234.666
			C983.039,175.875,934.938,127.775,876.147,127.775z M422.926,170.531h179.578v386.307l-67.769-36.13
			c-6.841-3.634-14.324-5.558-22.02-5.558s-15.392,1.924-22.02,5.558l-67.769,36.13V170.531z M85.148,234.666
			c0-35.274,28.861-64.135,64.135-64.135h230.886V344.55H85.148V234.666z M940.282,790.503c0,35.274-28.861,64.135-64.135,64.135
			H149.283c-35.274,0-64.135-28.861-64.135-64.135V387.307h295.021v205.019c0,12.399,10.262,21.379,21.379,21.379
			c3.421,0,6.841-0.855,10.048-2.566l99.195-52.805c0.641-0.427,1.282-0.427,1.924-0.427c0.641,0,1.282,0.214,1.924,0.427
			l99.195,52.805c3.207,1.71,6.628,2.566,10.048,2.566c11.117,0,21.379-8.979,21.379-21.379V170.53h230.886
			c35.274,0,64.135,28.861,64.135,64.135L940.282,790.503L940.282,790.503z M275.415,490.565h-85.514
			c-11.758,0-21.379,9.621-21.379,21.379l0,0c0,11.758,9.621,21.379,21.379,21.379h85.514c11.758,0,21.379-9.621,21.379-21.379l0,0
			C296.794,500.186,287.174,490.565,275.415,490.565z"/>
	</g>
</g>
</svg>
