<?xml version="1.0" encoding="utf-8"?>
<!-- Generator: Adobe Illustrator 17.0.0, SVG Export Plug-In . SVG Version: 6.00 Build 0)  -->
<!DOCTYPE svg PUBLIC "-//W3C//DTD SVG 1.1//EN" "http://www.w3.org/Graphics/SVG/1.1/DTD/svg11.dtd">
<svg version="1.1" id="图层_1" xmlns="http://www.w3.org/2000/svg" xmlns:xlink="http://www.w3.org/1999/xlink" x="0px" y="0px"
	 width="200px" height="200px" viewBox="0 0 200 200" enable-background="new 0 0 200 200" xml:space="preserve">
<g>
	<g transform="scale(0.1953125, 0.1953125)">
		<path fill="#F39826" d="M564.708,983.201H188.606c-48.529,0-84.926-36.397-84.926-84.926V140.006
			c0-48.529,36.397-84.926,84.926-84.926h636.946c48.529,0,84.926,36.397,84.926,84.926v503.491
			c0,12.132-12.132,24.265-24.265,24.265s-24.265-12.132-24.265-24.265V140.006c0-18.198-18.198-36.397-36.397-36.397H188.606
			c-18.199,0-36.397,18.199-36.397,36.397v764.335c0,18.198,18.199,36.397,36.397,36.397h370.035
			c12.132,0,24.265,12.132,24.265,24.265C582.905,977.135,576.84,983.201,564.708,983.201z M582.905,740.556H279.598
			c-12.132,0-24.265-12.132-24.265-24.265l0,0c0-12.132,12.132-24.265,24.265-24.265h303.307c12.132,0,24.265,12.132,24.265,24.265
			l0,0C601.104,728.423,595.037,740.556,582.905,740.556z M734.559,522.175H273.531c-12.132,0-24.265-12.132-24.265-24.265l0,0
			c0-12.132,12.132-24.265,24.265-24.265h461.028c12.132,0,24.265,12.132,24.265,24.265l0,0
			C758.824,510.042,746.692,522.175,734.559,522.175z M740.625,315.925H279.598c-12.132,0-24.265-12.132-24.265-24.265l0,0
			c0-12.132,12.132-24.265,24.265-24.265h461.028c12.132,0,24.265,12.132,24.265,24.265l0,0
			C764.89,303.793,752.758,315.925,740.625,315.925z M904.412,758.754c-12.132-12.132-30.331-12.132-36.397,0L716.361,922.541
			l-60.662-60.662c-12.132-12.132-30.331-12.132-36.397,0c-6.066,12.132-12.132,30.331,0,36.397l84.926,78.86
			c12.132,12.132,30.331,12.132,36.397,0l169.853-188.05C910.478,783.019,910.478,764.82,904.412,758.754z"/>
	</g>
</g>
</svg>
