<?xml version="1.0" encoding="utf-8"?>
<!-- Generator: Adobe Illustrator 17.0.0, SVG Export Plug-In . SVG Version: 6.00 Build 0)  -->
<!DOCTYPE svg PUBLIC "-//W3C//DTD SVG 1.1//EN" "http://www.w3.org/Graphics/SVG/1.1/DTD/svg11.dtd">
<svg version="1.1" id="图层_1" xmlns="http://www.w3.org/2000/svg" xmlns:xlink="http://www.w3.org/1999/xlink" x="0px" y="0px"
	 width="200px" height="200px" viewBox="0 0 200 200" enable-background="new 0 0 200 200" xml:space="preserve">
<g>
	<g transform="scale(0.1953125, 0.1953125)">
		<path fill="#F39826" d="M510.83,61.949c-227.356,0-411.646,88.203-411.646,197.027v537.289
			c0,108.789,184.29,197.01,411.646,197.01c227.32,0,411.646-88.221,411.646-197.01V258.976
			C922.476,150.153,738.151,61.949,510.83,61.949z M510.83,97.769c221.483,0,375.851,84.949,375.851,161.207
			c0,76.222-154.367,161.181-375.851,161.181c-221.519,0-375.85-84.958-375.85-161.181C134.98,182.718,289.313,97.769,510.83,97.769
			z M886.681,760.445v35.82c0,76.222-154.368,161.189-375.851,161.189c-221.519,0-375.85-84.966-375.85-161.189v-35.82v-62.965
			c64.25,68.737,208.305,116.696,375.85,116.696c167.51,0,311.6-47.959,375.851-116.696V760.445z M886.681,617.165
			c0,76.222-154.368,161.189-375.851,161.189c-221.519,0-375.85-84.967-375.85-161.189v-60.096V518.38
			c64.25,68.736,208.305,116.694,375.851,116.694c167.51,0,311.6-47.958,375.851-116.694L886.681,617.165L886.681,617.165z
			 M886.681,438.067c0,76.222-154.368,161.189-375.851,161.189c-221.519,0-375.85-84.967-375.85-161.189V339.29
			c64.25,68.727,208.305,116.686,375.85,116.686c167.51,0,311.6-47.959,375.851-116.686V438.067z"/>
	</g>
</g>
</svg>
