<?xml version="1.0" encoding="utf-8"?>
<!-- Generator: Adobe Illustrator 17.0.0, SVG Export Plug-In . SVG Version: 6.00 Build 0)  -->
<!DOCTYPE svg PUBLIC "-//W3C//DTD SVG 1.1//EN" "http://www.w3.org/Graphics/SVG/1.1/DTD/svg11.dtd">
<svg version="1.1" id="图层_1" xmlns="http://www.w3.org/2000/svg" xmlns:xlink="http://www.w3.org/1999/xlink" x="0px" y="0px"
	 width="200px" height="200px" viewBox="0 0 200 200" enable-background="new 0 0 200 200" xml:space="preserve">
<g>
	<g transform="scale(0.1953125, 0.1953125)">
		<path fill="#F39826" d="M715.019,343.686c-12.561-7.244-25.846-13.275-38.808-19.881c2.557-2.884,4.779-4.908,6.972-6.965
			c22.504-21.18,42.703-45.677,53.261-74.582c5.12-14.01,6.386-20.11,9.935-33.116c6.614-41.074-0.988-66.051-25.77-86.805
			c-33.493-28.055-71.493-31.377-111.636-14.906c-2.784,1.141-4.633,1.972-7.408-0.614c-51.67-48.128-134.616-48.579-186.637-1.057
			c-2.43,2.222-4.183,2.783-7.339,1.353c-21.111-9.569-43.173-11.618-65.825-7.007c-42.919,8.739-78.425,44.709-72.124,93.831
			c5.468,42.617,22.235,79.497,51.144,111.29c5.934,6.524,12.242,12.721,18.626,19.325c-1.59,0.761-3.164,1.552-4.771,2.278
			C186.969,393.351,87.217,537.884,75.538,702.286c-3.232,45.46-4.683,86.232,11.059,135.056
			c22.245,69,80.957,122.829,156.246,122.659c177.42-0.402,354.846,0.043,532.266-0.229c56.993-0.084,100.875-25.286,132.707-71.174
			c16.182-23.326,22.041-50.159,28.158-77.561c2.492-11.171,5.396,10.676,5.396-36.681c0-47.36-0.989-105.508-14.426-154.917
			C894.285,499.388,824.352,406.713,715.019,343.686L715.019,343.686L715.019,343.686L715.019,343.686z M895.913,778.126
			c-3.889,25.349-8.097,51.938-22.388,73.244c-28.115,41.926-81.975,64.948-132.309,65.029
			c-156.677,0.246-313.364-0.162-470.042,0.208c-66.487,0.157-129.198-36.84-145.313-100.991
			c-10.236-40.73-9.129-91.682-6.278-133.214c10.317-150.2,146.213-291.838,276.62-352.61c1.418-0.662-37.586-34.855-42.825-40.814
			c-25.533-29.045-41.474-52.566-46.299-91.502c-5.926-47.802,29.82-61.905,51.454-66.465c20.005-4.212,62.461,17.121,64.612,15.093
			c45.939-43.415,119.191-43.003,164.817,0.967c2.452,2.363,4.085,1.605,6.544,0.56c35.45-15.047,65.426-24.323,95.005,1.306
			c21.888,18.967,22.396,33.057,17.03,62.835c-3.261,12.356-23.504,45.401-31.233,55.64c-28.565,37.833-56.518,61.98-58.444,63.866
			c-0.208,0.203,61.045,28.96,71.289,36.76c94.56,72.04,158.309,127.761,187.146,237.436
			C890.455,663.086,904.966,719.165,895.913,778.126L895.913,778.126L895.913,778.126L895.913,778.126L895.913,778.126z
			 M450.779,469.758c-7.283-7.685-29.404-30.435-29.404-30.435h-43.395c0,0,0.144,14.833,0.144,19.248
			c0,4.421,108.181,110.939,108.181,110.939H377.981v43.335h108.326v43.652H378.125v43.076h108.342v86.849h43.393l-0.39-86.849
			h108.876v-43.335H529.861l-0.39-43.393h108.728v-43.335H529.471l108.728-110.939v-19.248h-43.247c0,0-37.68,36.445-45.925,45.52
			c-3.438,2.9-28.481,29.653-40.867,41.96L450.779,469.758L450.779,469.758L450.779,469.758L450.779,469.758z"/>
	</g>
</g>
</svg>
