<?xml version="1.0" encoding="utf-8"?>
<!-- Generator: Adobe Illustrator 17.0.0, SVG Export Plug-In . SVG Version: 6.00 Build 0)  -->
<!DOCTYPE svg PUBLIC "-//W3C//DTD SVG 1.1//EN" "http://www.w3.org/Graphics/SVG/1.1/DTD/svg11.dtd">
<svg version="1.1" id="图层_1" xmlns="http://www.w3.org/2000/svg" xmlns:xlink="http://www.w3.org/1999/xlink" x="0px" y="0px"
	 width="36px" height="36px" viewBox="0 0 200 200" enable-background="new 0 0 200 200" xml:space="preserve">
<circle fill="#4EC7EE" cx="101.45" cy="100.531" r="97.25"/>
<g>
	<path fill="#FFFFFF" stroke="#FFFFFF" stroke-width="2" stroke-miterlimit="10" d="M94.511,99.346
		c-0.098-0.104-0.095-0.269,0.006-0.369c0.101-0.1,0.263-0.097,0.361,0.006l1.41,1.491c0.011,0.011,0.015,0.025,0.024,0.038
		c0.01,0.015,0.022,0.028,0.028,0.045c0.013,0.032,0.019,0.065,0.019,0.099s-0.007,0.067-0.019,0.099
		c-0.007,0.018-0.019,0.032-0.03,0.047c-0.008,0.012-0.012,0.025-0.022,0.036l-1.409,1.491c-0.098,0.103-0.259,0.106-0.361,0.006
		c-0.101-0.1-0.104-0.265-0.006-0.369l0.992-1.049h-3.359c-0.141,0-0.255-0.117-0.255-0.261c0-0.144,0.114-0.261,0.255-0.261h3.359
		L94.511,99.346z"/>
	<path fill="#FFFFFF" stroke="#FFFFFF" stroke-width="2" stroke-miterlimit="10" d="M170.219,120.545
		c0.123,0.308,0.19,0.633,0.19,0.962c0,0.327-0.067,0.652-0.19,0.96c-0.069,0.172-0.188,0.309-0.291,0.46
		c-0.077,0.114-0.121,0.242-0.218,0.345l-13.733,14.527c-0.954,1.007-2.527,1.036-3.513,0.062c-0.988-0.975-1.013-2.582-0.061-3.59
		l9.666-10.225H129.34c-1.371,0-2.485-1.137-2.485-2.539c0-1.402,1.113-2.539,2.485-2.539h32.729l-9.666-10.223
		c-0.954-1.009-0.928-2.617,0.061-3.59c0.986-0.975,2.56-0.946,3.513,0.062l13.735,14.526c0.103,0.109,0.151,0.245,0.231,0.366
		C170.039,120.253,170.153,120.382,170.219,120.545z"/>
	<path fill="#FFFFFF" stroke="#FFFFFF" stroke-width="2" stroke-miterlimit="10" d="M116.875,97.519
		c1.503,0,2.722,1.248,2.722,2.787c0,1.54-1.219,2.784-2.722,2.784h-17.24v6.4h17.24c1.503,0,2.722,1.247,2.722,2.784
		c0,1.541-1.219,2.785-2.722,2.785l-17.24,0v11.871c0,1.541-1.219,2.785-2.722,2.785c-1.503,0-2.722-1.244-2.722-2.785v-11.871
		l-17.24,0c-1.503,0-2.722-1.244-2.722-2.785c0-1.538,1.219-2.784,2.722-2.784h17.24v-6.4h-17.24c-1.503,0-2.722-1.244-2.722-2.784
		c0-1.539,1.219-2.787,2.722-2.787h17.24v-3.358c-0.133-0.233-0.228-0.471-0.288-0.727L77.915,76.375
		c-1.063-1.088-1.063-2.85,0-3.939c1.063-1.088,2.788-1.088,3.849,0l15.15,16.317l15.147-16.317c1.063-1.088,2.787-1.088,3.851,0
		c1.061,1.088,1.061,2.85,0,3.939L99.923,93.433c-0.061,0.257-0.155,0.493-0.288,0.729v3.357H116.875z"/>
	<path fill="#FFFFFF" stroke="#FFFFFF" stroke-width="2" stroke-miterlimit="10" d="M96.184,42.237
		c-32.066,0-58.159,26.152-58.159,58.295c0,32.142,26.09,58.291,58.159,58.291c13.663,0,26.231-4.758,36.168-12.693h8.394
		c-5.742,5.64-12.384,10.09-19.767,13.217c-7.855,3.331-16.196,5.022-24.794,5.022c-8.599,0-16.939-1.692-24.791-5.022
		c-7.59-3.213-14.398-7.813-20.251-13.676c-5.846-5.862-10.435-12.689-13.644-20.294c-3.319-7.869-5.007-16.229-5.007-24.847
		c0-8.618,1.688-16.978,5.007-24.851c3.209-7.604,7.799-14.428,13.644-20.294c5.85-5.858,12.661-10.462,20.251-13.675
		c7.852-3.33,16.193-5.019,24.791-5.019c8.598,0,16.939,1.689,24.794,5.019c7.586,3.213,14.395,7.817,20.247,13.675
		c5.846,5.863,10.439,12.69,13.645,20.294c2.849,6.757,4.487,13.874,4.896,21.203h-5.549
		C152.332,66.435,127.031,42.237,96.184,42.237z"/>
</g>
</svg>
