<?xml version="1.0" encoding="utf-8"?>
<!-- Generator: Adobe Illustrator 17.0.0, SVG Export Plug-In . SVG Version: 6.00 Build 0)  -->
<!DOCTYPE svg PUBLIC "-//W3C//DTD SVG 1.1//EN" "http://www.w3.org/Graphics/SVG/1.1/DTD/svg11.dtd">
<svg version="1.1" id="图层_1" xmlns="http://www.w3.org/2000/svg" xmlns:xlink="http://www.w3.org/1999/xlink" x="0px" y="0px"
	 width="36px" height="36px" viewBox="0 0 200 200" enable-background="new 0 0 200 200" xml:space="preserve">
<circle fill="#F39826" cx="100" cy="98.25" r="97.25"/>
<g>
	<g transform="scale(0.1953125, 0.1953125)">
		<path fill="#F9F9F9" d="M511.999,194.143L257.541,274.98l1.29,314.745l0.284,3.407c0.461,2.07,10.257,52.078,59.211,100.25
			c37.644,37.124,129.966,85.627,169.361,106.331c6.189,3.265,10.813,5.666,13.451,7.146l9.357,5.075l11.489-5.833
			c23.022-11.298,140.141-69.798,183.654-112.659c49.013-48.209,58.807-98.204,59.223-100.286l1.596-318.152L511.999,194.143
			L511.999,194.143L511.999,194.143z M726.043,587.56c-1.844,7.346-12.386,43.571-48.089,78.729
			c-36.284,35.776-137.906,87.758-166.782,102.168c-1.527-0.782-3.184-1.622-4.923-2.557
			c-34.638-18.194-126.596-66.497-160.158-99.611c-35.799-35.206-46.268-71.383-48.114-78.729l-1.17-284.673l215.192-68.379
			l215.193,68.379L726.043,587.56L726.043,587.56L726.043,587.56z M623.085,478.165H542.13l19.651-156.349L402.38,526.267h80.955
			l-19.65,156.337L623.085,478.165L623.085,478.165z"/>
	</g>
</g>
</svg>
