<?xml version="1.0" encoding="utf-8"?>
<!-- Generator: Adobe Illustrator 17.0.0, SVG Export Plug-In . SVG Version: 6.00 Build 0)  -->
<!DOCTYPE svg PUBLIC "-//W3C//DTD SVG 1.1//EN" "http://www.w3.org/Graphics/SVG/1.1/DTD/svg11.dtd">
<svg version="1.1" id="图层_1" xmlns="http://www.w3.org/2000/svg" xmlns:xlink="http://www.w3.org/1999/xlink" x="0px" y="0px"
	 width="36px" height="36px" viewBox="0 0 36 36" enable-background="new 0 0 36 36" xml:space="preserve">
<circle fill="#FECF2F" cx="18.135" cy="18.067" r="17.505"/>
<g>
	<g transform="scale(0.1953125, 0.1953125)">
		<g>
			<path fill="#FFFFFF" d="M63.843,63.14c-3.229,3.298-3.229,8.649,0,11.946c3.228,3.3,8.463,3.3,11.693,0
				c3.229-3.298,3.229-8.648,0-11.947C72.306,59.842,67.071,59.842,63.843,63.14z M72.174,71.7c-0.666,0.68-1.548,1.055-2.487,1.055
				c-0.938,0-1.82-0.374-2.487-1.055c-1.395-1.428-1.395-3.746,0-5.171c0.665-0.68,1.549-1.057,2.487-1.057
				c0.939,0,1.823,0.377,2.488,1.057C73.572,67.954,73.572,70.273,72.174,71.7z M150.671,95.726l-0.082-0.086l-48.065-44.428
				c-1.503-1.527-3.573-3.221-25.835-3.221c-11.129,0-22.32,0.437-22.432,0.439L49.9,48.603l-0.191,4.42
				c-0.004,0.122-0.52,12.166-0.708,24.104c-0.111,7.062-0.088,12.722,0.071,16.825c0.198,5.22,0.377,9.839,3.281,11.599
				l47.543,45.372c2.391,2.445,5.574,3.79,8.959,3.79c3.387,0,6.57-1.345,8.961-3.79l0.086-0.089l30.066-34.131
				C152.584,111.886,155.995,101.163,150.671,95.726z M144.511,113.415l-30.054,34.12c-3.094,3.16-8.108,3.16-11.2,0L54.99,101.467
				c-2.611-0.393-0.55-48.234-0.55-48.234s41.777-1.644,44.812,1.454l48.059,44.424
				C150.405,102.273,147.606,110.255,144.511,113.415z"/>
			<path fill="#FFFFFF" d="M108.855,157.27c-4.08,0-7.91-1.62-10.785-4.56l-47.302-45.135c-3.837-2.55-4.04-7.885-4.252-13.527
				c-0.16-4.175-0.185-9.882-0.072-16.962c0.185-11.682,0.68-23.465,0.707-24.14l0.292-6.807l6.712-0.265
				c2.92-0.108,12.76-0.443,22.535-0.443c22.08,0,25.285,1.577,27.66,3.985l47.98,44.345c6.69,6.835,3.005,18.955-2.51,24.715
				l-29.995,34.05C116.77,155.65,112.935,157.27,108.855,157.27z M56.882,99.735l48.142,45.95c2.145,2.175,5.575,2.12,7.6,0.06
				l29.965-34.02c2.825-2.89,4.475-9.205,2.89-10.825L97.51,56.567c-0.255-0.11-3.217-1.21-20.835-1.21
				c-7.947,0-15.932,0.225-19.775,0.35C56.115,75.162,55.91,95.97,56.882,99.735z M69.687,80.122c-2.902,0-5.627-1.152-7.675-3.245
				c-4.192-4.28-4.192-11.247,0-15.53c4.095-4.18,11.252-4.18,15.352,0c4.192,4.28,4.192,11.247,0,15.53
				C75.317,78.97,72.59,80.122,69.687,80.122z M69.687,68.032c-0.245,0-0.473,0.1-0.658,0.287c-0.423,0.43-0.42,1.16,0,1.59
				c0.37,0.375,0.942,0.378,1.317-0.003c0.42-0.43,0.42-1.155,0-1.585C70.16,68.132,69.932,68.032,69.687,68.032z"/>
		</g>
	</g>
</g>
</svg>
