<?xml version="1.0" encoding="utf-8"?>
<!-- Generator: Adobe Illustrator 17.0.0, SVG Export Plug-In . SVG Version: 6.00 Build 0)  -->
<!DOCTYPE svg PUBLIC "-//W3C//DTD SVG 1.1//EN" "http://www.w3.org/Graphics/SVG/1.1/DTD/svg11.dtd">
<svg version="1.1" id="图层_1" xmlns="http://www.w3.org/2000/svg" xmlns:xlink="http://www.w3.org/1999/xlink" x="0px" y="0px"
	 width="36px" height="36px" viewBox="0 0 32 32" enable-background="new 0 0 32 32" xml:space="preserve">
<circle fill="#FF6867" cx="16" cy="16" r="15.977"/>
<g>
	<g transform="scale(0.1953125, 0.1953125)">
		<path fill="#FFFFFF" d="M80.757,98.137c-0.645,0-1.292-0.229-1.807-0.696c-1.107-0.999-1.194-2.706-0.195-3.812l32.475-35.97
			c0.996-1.107,2.705-1.197,3.812-0.195c1.107,0.999,1.194,2.706,0.195,3.812l-32.475,35.97
			C82.229,97.836,81.495,98.137,80.757,98.137z M122.516,43.628l-2.473,72.512l-28.597-13.476c-1.443-0.68-3.048-1.04-4.64-1.04
			c-1.91,0-3.797,0.507-5.455,1.467l-12.695,7.344l0.287-11.088c0.117-4.528-2.443-8.644-6.522-10.487l-19.02-8.59L122.516,43.628
			 M127.987,32.45c-0.387,0-0.784,0.083-1.173,0.263L30.06,77.525c-2.328,1.078-2.312,4.56,0.024,5.615l29.004,13.1
			c1.095,0.495,1.793,1.643,1.76,2.897l-0.524,20.214c-0.047,1.818,1.362,3.149,2.91,3.149c0.465,0,0.943-0.12,1.398-0.383
			L85.406,110.1c0.435-0.252,0.917-0.379,1.401-0.379c0.404,0,0.809,0.089,1.188,0.267l35.782,16.862
			c0.392,0.185,0.795,0.27,1.189,0.27c1.495,0,2.847-1.236,2.906-2.955l3.019-88.542C130.953,33.815,129.555,32.45,127.987,32.45
			L127.987,32.45z"/>
	</g>
</g>
</svg>
