<?xml version="1.0" encoding="utf-8"?>
<!-- Generator: Adobe Illustrator 17.0.0, SVG Export Plug-In . SVG Version: 6.00 Build 0)  -->
<!DOCTYPE svg PUBLIC "-//W3C//DTD SVG 1.1//EN" "http://www.w3.org/Graphics/SVG/1.1/DTD/svg11.dtd">
<svg version="1.1" id="图层_1" xmlns="http://www.w3.org/2000/svg" xmlns:xlink="http://www.w3.org/1999/xlink" x="0px" y="0px"
	 width="36px" height="36px" viewBox="0 0 200 200" enable-background="new 0 0 200 200" xml:space="preserve">
<circle fill="#8B8FF5" cx="100.75" cy="100.75" r="97.25"/>
<g>
	<g transform="scale(0.1953125, 0.1953125)">
		<path fill="#FFFFFF" d="M786.769,719.038h-67.733l0-372.53c0-18.704-15.165-33.87-33.87-33.87
			c-18.704,0-33.866,15.165-33.866,33.87v372.53h-67.733V414.241c0-18.704-15.159-33.866-33.863-33.866
			c-18.704,0-33.866,15.162-33.866,33.866v304.797h-67.736V481.974c0-18.704-15.162-33.866-33.866-33.866
			c-18.704,0-33.866,15.162-33.866,33.866v237.064H278.774V278.776c0-18.704-15.162-33.87-33.866-33.87s-33.866,15.165-33.866,33.87
			v474.125c0,18.708,15.162,33.87,33.866,33.87h541.861c18.704,0,33.866-15.162,33.866-33.87
			C820.636,734.2,805.474,719.038,786.769,719.038z"/>
	</g>
</g>
</svg>
