<?xml version="1.0" encoding="utf-8"?>
<!-- Generator: Adobe Illustrator 17.0.0, SVG Export Plug-In . SVG Version: 6.00 Build 0)  -->
<!DOCTYPE svg PUBLIC "-//W3C//DTD SVG 1.1//EN" "http://www.w3.org/Graphics/SVG/1.1/DTD/svg11.dtd">
<svg version="1.1" id="图层_1" xmlns="http://www.w3.org/2000/svg" xmlns:xlink="http://www.w3.org/1999/xlink" x="0px" y="0px"
	 width="36px" height="36px" viewBox="0 0 200 200" enable-background="new 0 0 200 200" xml:space="preserve">
<circle fill="#8BDA44" cx="100.75" cy="100.374" r="97.25"/>
<g>
	<g>
		<g transform="scale(0.1953125, 0.1953125)">
			<path fill="#FFFFFF" d="M850.393,470.167c0-160.593-149.785-290.778-334.555-290.778c-184.768,0-334.553,130.186-334.553,290.778
				s149.785,290.778,334.553,290.778v87.49c0,0,162.823-94.573,253.484-188.36C820.039,609.178,850.393,542.961,850.393,470.167z
				 M515.838,714.593c-155.315,0-281.223-109.434-281.223-244.427c0-134.992,125.907-244.425,281.223-244.425
				s281.225,109.433,281.225,244.425C797.063,605.16,671.153,714.593,515.838,714.593z"/>
		</g>
	</g>
	<circle fill="#FFFFFF" cx="80.496" cy="91.226" r="6.207"/>
	<circle fill="#FFFFFF" cx="100.423" cy="91.226" r="6.207"/>
	<circle fill="#FFFFFF" cx="121.767" cy="91.226" r="6.207"/>
</g>
</svg>
