<?xml version="1.0" encoding="utf-8"?>
<!-- Generator: Adobe Illustrator 17.0.0, SVG Export Plug-In . SVG Version: 6.00 Build 0)  -->
<!DOCTYPE svg PUBLIC "-//W3C//DTD SVG 1.1//EN" "http://www.w3.org/Graphics/SVG/1.1/DTD/svg11.dtd">
<svg version="1.1" id="图层_1" xmlns="http://www.w3.org/2000/svg" xmlns:xlink="http://www.w3.org/1999/xlink" x="0px" y="0px"
	 width="100px" height="41px" viewBox="0 0 149.156 61.497" enable-background="new 0 0 149.156 61.497"
	 xml:space="preserve">
<path fill="#2C2D2D" d="M67.189,30.638c-3.916,13.648-14.218,16.943-14.218,16.943c11.281-1.084,15.821-13.53,16.666-15.286
	C70.591,30.313,67.738,29.167,67.189,30.638z"/>
<path fill="#2C2D2D" d="M79,32.693c-1.666-3.384-1.556-2.19-1.556-2.19c3.269,12.042,11.67,16.755,12.206,16.939
	c0.536,0.184,0.83,0.241,1.768-0.167s2.826-0.721,2.826-0.721C88.767,43.696,83.456,40.498,79,32.693z"/>
<path fill="#2C2D2D" d="M86.41,12.147c-2.108,6.787-7.373,8.876-7.373,8.876c5.227-0.641,9.246-5.955,9.903-7.077
	C90.475,11.325,87.46,8.768,86.41,12.147z"/>
<path fill="#2C2D2D" d="M56.985,12.025c3.35,1.539,5.93,4.903,7.415,7.83c1.245,2.455,3.683,1.141,2.407-1.329
	C63.438,12.007,56.985,12.025,56.985,12.025z"/>
<path fill="#2C2D2D" d="M93.476,26.066c0.533,0,0.305-1.522-1.178-1.864c-1.483-0.342-2.244,0.989-2.244,0.989H74.546V9.611
	c0-0.615-0.371-0.948-1.056-1.142c-0.668-0.191-1.441,0.013-1.441,0.364v16.358H54.934c-0.098,0.052-0.148,0.291-0.088,0.5
	c0.068,0.243,0.187,0.375,0.405,0.375h16.798v25.422c0,0,0,0.498,0,1.009c0,0.352,0.773,0.557,1.441,0.366
	c0.684-0.196,1.056-0.527,1.056-1.142V26.066H93.476z"/>
<path fill="#2C2D2D" d="M43.254,43.842c-1.439-0.332-2.177,0.96-2.177,0.96h-7.782c-0.095,0.051-0.144,0.282-0.085,0.485
	c0.066,0.236,0.181,0.364,0.393,0.364h10.794C44.914,45.651,44.693,44.174,43.254,43.842z"/>
<path fill="#2C2D2D" d="M36.063,52.983c5.065,0,9.275,0.092,10.983-2.48c0.231-0.335,0.415-0.727,0.519-1.177
	c-0.496-1.661-1.361-3.68-1.234-5.572c-0.115,1.338-1.304,4.153-1.777,4.938c-0.9,1.511-1.604,2.93-7.799,2.93
	c-5.295,0-5.295-3.761-5.295-3.761V27.163H42.59c0,0.183,0,0.417,0,0.657c0,0.348,0.765,0.55,1.425,0.361
	c0.676-0.193,1.044-0.521,1.044-1.129v-7.778c0-0.608-0.367-0.937-1.044-1.129c-0.66-0.189-1.425,0.013-1.425,0.36v0.74H31.46V9.549
	c0-0.608-0.367-0.937-1.044-1.129c-0.66-0.189-1.425,0.013-1.425,0.36v11.643c0,0,0,0.492,0,0.997c0,0.348,0.765,0.55,1.425,0.361
	c0.676-0.193,1.044-0.521,1.044-1.129v-0.559h11.13v6.22c-1.334,0-1.988,0-1.988,0H31.46v-0.165c0-0.611-0.369-0.934-1.038-1.131
	c-0.669-0.185-1.431,0.012-1.431,0.358v22.762c0,0,0,0.254,0,0.588c0,0.173,0.012,0.346,0.035,0.519
	C29.371,51.98,32.544,52.983,36.063,52.983z"/>
<path fill="#2C2D2D" d="M8.007,15.364h19.528c0.517,0,0.295-1.476-1.143-1.808c-1.439-0.332-2.177,0.96-2.177,0.96H7.699
	C7.604,14.566,7.555,14.797,7.614,15C7.68,15.235,7.795,15.364,8.007,15.364z"/>
<path fill="#2C2D2D" d="M43.254,31.836c-1.439-0.332-2.177,0.96-2.177,0.96h-7.782c-0.095,0.051-0.144,0.282-0.085,0.485
	c0.066,0.236,0.181,0.364,0.393,0.364h10.794C44.914,33.645,44.693,32.168,43.254,31.836z"/>
<path fill="#2C2D2D" d="M43.254,37.839c-1.439-0.332-2.177,0.96-2.177,0.96h-7.782c-0.095,0.051-0.144,0.282-0.085,0.485
	c0.066,0.236,0.181,0.364,0.393,0.364h10.794C44.914,39.648,44.693,38.171,43.254,37.839z"/>
<path fill="#2C2D2D" d="M7.743,24.587h19.784c0.533,0,0.305-1.522-1.178-1.864s-2.244,0.989-2.244,0.989H7.426
	c-0.098,0.052-0.148,0.291-0.088,0.5C7.407,24.455,7.525,24.587,7.743,24.587z"/>
<path fill="#2C2D2D" d="M21.723,17.103c-0.563,3.843-3.655,5.687-3.655,5.687c3.042-0.695,5.365-3.987,5.683-4.681
	C24.493,16.487,22.024,15.05,21.723,17.103z"/>
<path fill="#2C2D2D" d="M44.102,12.877c2.01-1.365,0.503-4.486-1.298-2.308c-3.37,4.078-8.626,3.746-8.626,3.746
	C38.211,15.654,43.241,13.462,44.102,12.877z"/>
<path fill="#2C2D2D" d="M17.071,12.756c0.69,1.565,2.808,1.134,2.238-0.496c-1.241-3.552-5.291-3.912-5.291-3.912
	C15.974,9.958,16.155,10.679,17.071,12.756z"/>
<path fill="#2C2D2D" d="M10.033,16.837c1.818,1.091,3.082,3.178,3.746,4.945c0.557,1.482,2.671,1.033,2.097-0.46
	C14.361,17.383,10.033,16.837,10.033,16.837z"/>
<path fill="#2C2D2D" d="M11.871,47.655c0.035-0.069,0.046-0.115,0.046-0.115c0.115-0.404,0.242-0.819,0.369-1.246
	c0.311-0.983,0.522-2.24,0.669-3.545h9.119v8.83c0,0,0,0.492,0,0.997c0,0.347,0.765,0.55,1.425,0.361
	c0.677-0.193,1.044-0.521,1.044-1.129v-23.74c0-0.608-0.367-0.937-1.044-1.129c-0.66-0.189-1.425,0.013-1.425,0.36v1.236h-8.75
	c-0.016-0.566,0.022-0.858-0.5-1.249c-0.81-0.607-1.975-0.564-2.026-0.105c0,0,0,0.654,0,0.666
	c0.081,2.757,0.127,6.195,0.127,10.291c0,1.927-0.081,3.646-0.242,5.18c-0.115,0.992-0.265,1.973-0.484,2.919
	c-0.023,0.173-0.069,0.335-0.104,0.496c-0.196,0.981-0.438,1.834-0.727,2.584c-0.265,0.623-0.588,1.234-0.981,1.857
	c-0.392,0.623-0.854,1.223-1.373,1.811c-0.012,0.023-0.035,0.035-0.046,0.058C10.025,52.143,11.594,48.382,11.871,47.655z
	 M13.042,41.899c0.215-2.367,0.235-4.724,0.231-5.788h8.802v5.788H13.042z M22.075,35.263h-8.802c0.01-0.618,0.02-1.236,0.041-1.844
	c0.012-0.565,0.023-1.107,0.023-1.627c0.017-0.646,0.015-1.608,0.005-2.408h8.734V35.263z"/>
<path fill="#2C2D2D" d="M135.71,21.743l0.089,0.059c1.664-1.146,3.771-3.2,5.048-4.701l0.104-0.124l0.162-0.008
	c0.614-0.03,0.983-0.081,1.239-0.187l-3.344-3.225l-2.077,2.12h-14.063v-5.562l0.32-0.048c1.073-0.16,1.486-0.355,1.65-0.554
	l-5.068-0.471v6.634h-13.476l-0.02-0.354c-0.041-0.717-0.161-1.432-0.365-2.177l-0.102,0.006c-0.163,2.807-2.247,5.105-4.212,5.882
	c-0.783,0.411-1.292,1.099-1.292,1.781c0,0.822,0.605,1.293,1.662,1.293c2.163,0,4.353-1.987,4.353-5.786v0.625h31.22l-0.12-0.531
	C136.97,18.162,136.245,20.414,135.71,21.743z"/>
<path fill="#2C2D2D" d="M134.998,22.622l-3.713-2.636l-2.207,2.784h-21.982l0.072,0.269h11.598l-0.801,0.664
	c-4.063,3.369-10.057,6.587-16.099,8.653l0.052,0.125c5.335-1.184,10.334-2.924,14.477-5.042l0.261-0.133l0.192,0.221
	c0.649,0.745,1.229,1.417,1.737,2.105l0.205,0.277l-0.26,0.227c-4.063,3.565-11.05,7.413-17.486,9.643l0.021,0.064
	c6.286-1.392,13.662-4.168,18.891-7.116l0.368-0.207l0.162,0.39c0.39,0.933,0.757,1.812,0.986,2.642l0.058,0.208l-0.151,0.154
	c-4.563,4.648-12.787,9.154-21.014,11.524v0.132c7.618-1.371,15.771-4.426,21.377-8.021l0.517-0.331l0.059,0.61
	c0.052,0.532,0.052,1.058,0.052,1.521c0,2.864-0.648,5.113-1.825,6.333c-0.446,0.446-1.136,0.483-1.748,0.483
	c-1.062,0-3.434,0-5.254-0.036c2.887,0.417,4.458,0.864,4.678,3.456c2.225-0.049,3.766-0.57,4.704-1.588
	c1.507-1.471,2.398-4.196,2.398-7.305c0-5.901-3.006-11.538-8.042-15.08l-0.495-0.348l0.532-0.289
	c2.221-1.205,4.115-2.498,5.633-3.844l0.106-0.094h10.288C134.302,23.039,134.732,22.899,134.998,22.622z"/>
<path fill="#CF000E" d="M141.091,39.621c0,3.778-0.018,7.279-0.884,9.983c-1.117,3.486-3.313,5.673-5.208,5.673
	c-1.873,0-3.549-1.367-4.666-4.784c-0.89-2.722-1.426-7.039-1.426-10.873c0-5.404,1.177-10.105,2.686-12.983
	c2.522-4.81,2.179,0.256,4.258,1.262c1.688,0.817,2.62-1.006,3.57,1.073C140.268,30.83,141.091,33.502,141.091,39.621z"/>
<g>
	<path fill="#FFFFFF" d="M132.859,32.075c0.352-0.07,0.598-0.141,0.738-0.211c0.047-0.023,0.082-0.035,0.105-0.035
		c0.258,0.164,0.375,0.27,0.352,0.316c-0.047,0-0.141,0.012-0.281,0.035c-0.492,0.047-0.797,0.094-0.914,0.141l-0.035,0.668
		c0.539,0.188,0.832,0.328,0.879,0.422c0.07,0.258,0.07,0.469,0,0.633c-0.023,0-0.094-0.059-0.211-0.176
		c-0.258-0.305-0.48-0.527-0.668-0.668c0.023,1.617,0.023,2.766,0,3.445c0,0.633-0.023,0.938-0.07,0.914
		c-0.141-0.141-0.258-0.34-0.352-0.598c0-0.023,0.012-0.047,0.035-0.07c0.07-0.141,0.105-0.434,0.105-0.879V33.2
		c-0.516,1.008-1.148,1.875-1.898,2.602l-0.105-0.105c0.914-1.125,1.57-2.215,1.969-3.27c-0.563,0.094-0.996,0.199-1.301,0.316
		h-0.07c-0.023-0.023-0.082-0.059-0.176-0.105c-0.164-0.117-0.223-0.176-0.176-0.176c0.164,0.023,0.762-0.082,1.793-0.316
		c0-0.234,0-0.48,0-0.738c0.023-0.258,0.012-0.457-0.035-0.598c-0.398,0.211-0.844,0.41-1.336,0.598l-0.07-0.141
		c0.961-0.492,1.652-0.891,2.074-1.195c0.117-0.141,0.176-0.246,0.176-0.316l0.07-0.035c0.047,0.047,0.129,0.118,0.246,0.211
		c0.164,0.164,0.234,0.246,0.211,0.246c0,0.023-0.059,0.047-0.176,0.07c-0.281,0.118-0.574,0.258-0.879,0.422V32.075z
		 M134.37,35.204c0.445-0.047,0.738-0.105,0.879-0.176l0.035-0.035c0.234,0.164,0.328,0.258,0.281,0.281
		c-0.422,0.047-0.809,0.105-1.16,0.176l0.07,1.336c1.195-0.047,1.91-0.117,2.145-0.211c0.023,0,0.047,0,0.07,0
		c0.047,0.047,0.094,0.082,0.141,0.105c0.117-0.047,0.211-0.551,0.281-1.512c-0.375,0.047-0.68,0.094-0.914,0.141h-0.035
		c0-0.023-0.035-0.059-0.105-0.105c-0.141-0.094-0.188-0.152-0.141-0.176h0.035c0.164,0.023,0.551-0.012,1.16-0.105
		c0.047-0.656,0.07-1.066,0.07-1.23l-1.02,0.176c-0.234-0.141-0.328-0.223-0.281-0.246c0.117,0,0.539-0.047,1.266-0.141
		c0.141-0.234,0.223-0.352,0.246-0.352c0.281,0.211,0.422,0.328,0.422,0.352l-0.105,0.105c-0.094,0.094-0.152,0.164-0.176,0.211
		c-0.234,2.273-0.398,3.48-0.492,3.621c-0.047,0-0.141-0.176-0.281-0.527c0.023,0.047,0.012,0.023-0.035-0.07l-2.25,0.176
		c0,0.469-0.047,0.691-0.141,0.668c-0.07-0.094-0.176-0.305-0.316-0.633v-0.035c0.094-0.141,0.129-0.516,0.105-1.125
		c0-0.047-0.012-0.586-0.035-1.617c0-0.094-0.035-0.328-0.105-0.703l0.105-0.035l0.176,0.352c0.422-0.258,0.691-0.469,0.809-0.633
		c0.047-0.047,0.105-0.152,0.176-0.316h0.035c0.234,0.328,0.34,0.504,0.316,0.527l-0.105,0.035
		c-0.094,0.023-0.176,0.059-0.246,0.105c-0.211,0.117-0.445,0.234-0.703,0.352c-0.094,0.047-0.164,0.082-0.211,0.105L134.37,35.204z
		 M134.054,30.95c1.172-0.375,2.016-0.703,2.531-0.984c0.234-0.164,0.352-0.281,0.352-0.352l0.07-0.035
		c0.07,0.07,0.164,0.153,0.281,0.246c0.188,0.164,0.246,0.246,0.176,0.246c-0.07,0.023-0.094,0.035-0.07,0.035
		c-1.641,0.54-2.742,0.867-3.305,0.984L134.054,30.95z M134.23,31.442c0.352,0.398,0.551,0.668,0.598,0.809
		c-0.07,0.305-0.176,0.504-0.316,0.598c-0.023,0-0.035-0.059-0.035-0.176c-0.07-0.445-0.188-0.844-0.352-1.195L134.23,31.442z
		 M135.425,31.161c0.281,0.328,0.504,0.609,0.668,0.844c0,0.211-0.094,0.434-0.281,0.668c-0.023,0-0.059-0.105-0.105-0.316
		c-0.117-0.422-0.234-0.797-0.352-1.125L135.425,31.161z M136.339,32.954c0.281-0.469,0.48-0.914,0.598-1.336
		c0.141-0.445,0.176-0.773,0.105-0.984h0.105c0.305,0.352,0.445,0.551,0.422,0.598c0,0.023-0.023,0.047-0.07,0.07
		c-0.07,0.07-0.152,0.211-0.246,0.422c-0.023,0.047-0.094,0.152-0.211,0.316c-0.258,0.492-0.457,0.82-0.598,0.984L136.339,32.954z"
		/>
	<path fill="#FFFFFF" d="M136.48,41.178c0.211,0.352,0.316,0.574,0.316,0.668c0,0.023-0.023,0.035-0.07,0.035
		c-0.07,0.047-0.176,0.141-0.316,0.281c-0.047,0.047-0.152,0.141-0.316,0.281c-0.539,0.469-0.902,0.785-1.09,0.949
		c0,0.234,0,0.551,0,0.949c0,0.469,0.082,0.75,0.246,0.844c0.141,0.117,0.504,0.176,1.09,0.176c0.047,0,0.117,0,0.211,0
		c0.563-0.023,0.879-0.082,0.949-0.176c0.047-0.023,0.094-0.551,0.141-1.582h0.176c0.07,0.867,0.164,1.488,0.281,1.863v0.07
		c-0.258,0.094-0.891,0.152-1.898,0.176c-0.609,0-1.02-0.094-1.23-0.281c-0.211-0.188-0.305-0.516-0.281-0.984
		c0-0.188,0-0.469,0-0.844c-0.398,0.305-0.879,0.574-1.441,0.809l-0.035-0.105c0.516-0.281,1.02-0.621,1.512-1.02
		c0-0.492,0-0.996,0-1.512c0-0.375-0.047-0.691-0.141-0.949l0.07-0.07l0.105,0.07c0.164-0.516,0.27-0.855,0.316-1.02l-1.688,0.105
		l-0.035,1.055c0.07,0.117,0.129,0.234,0.176,0.352l-0.035,0.035c-0.164,0.094-0.375,0.34-0.633,0.738
		c-0.023,2.086-0.035,3.223-0.035,3.41c-0.023,0.445-0.047,0.645-0.07,0.598c-0.164-0.188-0.293-0.434-0.387-0.738
		c0-0.023,0.012-0.059,0.035-0.105c0.07-0.117,0.117-0.246,0.141-0.387c0.023-0.539,0.035-1.336,0.035-2.391
		c-0.703,0.75-1.359,1.348-1.969,1.793l-0.105-0.141c0.984-0.773,1.734-1.605,2.25-2.496c0.023-0.047,0.059-0.105,0.105-0.176
		c0.141-0.234,0.211-0.422,0.211-0.563c-0.047-0.141-0.07-0.234-0.07-0.281c0-0.023,0.012-0.035,0.035-0.035
		c0.047-0.117,0.07-0.316,0.07-0.598c-0.773,0.047-1.406,0.129-1.898,0.246h-0.035c-0.375-0.188-0.539-0.305-0.492-0.352
		c0.047,0,0.117,0,0.211,0c0.516-0.023,1.254-0.082,2.215-0.176c-0.023-0.164-0.035-0.387-0.035-0.668
		c-0.023-0.398-0.094-0.727-0.211-0.984l0.07-0.035c0.398,0.352,0.598,0.539,0.598,0.563s-0.012,0.059-0.035,0.105
		c-0.07,0.117-0.105,0.246-0.105,0.387c0,0.188,0,0.387,0,0.598l1.758-0.141c0.07-0.328,0.129-0.633,0.176-0.914
		c0.023-0.234,0.012-0.504-0.035-0.809l0.07-0.035c0.375,0.398,0.563,0.609,0.563,0.633s-0.023,0.059-0.07,0.105
		c-0.07,0.117-0.129,0.234-0.176,0.352c0,0.023-0.012,0.059-0.035,0.105c-0.047,0.141-0.105,0.316-0.176,0.527
		c1.102-0.117,1.723-0.223,1.863-0.316c0.023-0.023,0.047-0.035,0.07-0.035c0.422,0.258,0.598,0.387,0.527,0.387
		c-1.313,0.117-2.156,0.199-2.531,0.246c-0.023,0.023-0.047,0.082-0.07,0.176c-0.211,0.422-0.352,0.75-0.422,0.984
		c0.047,0.047,0.105,0.117,0.176,0.211l0.141,0.176l-0.035,0.035c-0.07,0.164-0.117,0.328-0.141,0.492
		c0,0.328-0.012,0.727-0.035,1.195c0.422-0.352,0.82-0.773,1.195-1.266c0.094-0.141,0.164-0.352,0.211-0.633L136.48,41.178z"/>
	<path fill="#FFFFFF" d="M134.581,48.1c1.383-0.094,2.227-0.223,2.531-0.387c0.023-0.023,0.047-0.035,0.07-0.035
		c0.375,0.234,0.539,0.375,0.492,0.422l-2.918,0.246c0.797,0.844,1.547,1.512,2.25,2.004c0.328,0.141,0.773,0.234,1.336,0.281v0.141
		c-0.211,0.023-0.27,0.035-0.176,0.035c-0.82,0.07-1.266,0.105-1.336,0.105l-0.563-0.598c-0.773-0.844-1.336-1.441-1.688-1.793
		l-0.035,2.25l1.23-0.105c0.141-0.234,0.211-0.34,0.211-0.316c0.047,0.023,0.105,0.07,0.176,0.141
		c0.141,0.094,0.211,0.152,0.211,0.176s-0.023,0.07-0.07,0.141c-0.094,0.117-0.141,0.199-0.141,0.246
		c-0.211,2.18-0.363,3.211-0.457,3.094c-0.023,0-0.094-0.129-0.211-0.387c-0.07-0.141-0.117-0.246-0.141-0.316
		c-1.195,0.117-1.969,0.188-2.32,0.211c0,0.07,0,0.164,0,0.281c0.023,0.328,0,0.469-0.07,0.422
		c-0.164-0.234-0.281-0.445-0.352-0.633l0.035-0.035c0.07-0.094,0.105-0.281,0.105-0.563c-0.023-1.102-0.035-1.676-0.035-1.723
		c0-0.234-0.023-0.551-0.07-0.949h0.141l0.176,0.492l1.441-0.141c-0.188-0.328-0.281-0.504-0.281-0.527s0.012-0.047,0.035-0.07
		c0.047-0.188,0.082-0.422,0.105-0.703c0-0.094,0-0.387,0-0.879c-1.078,1.148-2.344,2.051-3.797,2.707l-0.07-0.105
		c1.453-0.75,2.648-1.688,3.586-2.813c-0.938,0.07-1.84,0.176-2.707,0.316c-0.023-0.023-0.082-0.07-0.176-0.141
		c-0.188-0.094-0.27-0.152-0.246-0.176c0.023,0,0.164-0.012,0.422-0.035c0.469-0.023,1.465-0.105,2.988-0.246v-0.984
		c-0.234,0.07-0.961,0.199-2.18,0.387c0.07,0,0.023,0.012-0.141,0.035v-0.141c1.945-0.422,3.082-0.762,3.41-1.02
		c0.141-0.094,0.234-0.176,0.281-0.246l0.035-0.035c0.352,0.281,0.527,0.457,0.527,0.527c-0.023,0-0.141,0.023-0.352,0.07
		c-0.07,0.023-0.129,0.047-0.176,0.07c-0.188,0.047-0.469,0.117-0.844,0.211c-0.117,0.023-0.199,0.047-0.246,0.07V48.1z
		 M132.999,51.194l0.035,0.949c0.961-0.07,1.57-0.164,1.828-0.281c0.07-0.023,0.117-0.035,0.141-0.035l0.387,0.316l-2.355,0.246
		l0.035,1.02c0.164,0,0.305-0.012,0.422-0.035c0.609,0,1.078-0.035,1.406-0.105c0.094-0.023,0.199-0.047,0.316-0.07
		c0.141,0.117,0.246,0.176,0.316,0.176c0.141-0.141,0.234-0.961,0.281-2.461L132.999,51.194z"/>
</g>
</svg>
