<?xml version="1.0" encoding="utf-8"?>
<!-- Generator: Adobe Illustrator 17.0.0, SVG Export Plug-In . SVG Version: 6.00 Build 0)  -->
<!DOCTYPE svg PUBLIC "-//W3C//DTD SVG 1.1//EN" "http://www.w3.org/Graphics/SVG/1.1/DTD/svg11.dtd">
<svg version="1.1" id="图层_1" xmlns="http://www.w3.org/2000/svg" xmlns:xlink="http://www.w3.org/1999/xlink" x="0px" y="0px"
	 width="165.5px" height="108px" viewBox="0 0 165.5 108" enable-background="new 0 0 165.5 108" xml:space="preserve">
<g>
	<path fill="#040000" d="M76.591,39.23c-3.916,13.648-14.218,16.943-14.218,16.943c11.281-1.084,15.821-13.53,16.666-15.286
		C79.993,38.905,77.14,37.759,76.591,39.23z"/>
	<path fill="#040000" d="M88.402,41.285c-1.666-3.384-1.556-2.19-1.556-2.19c3.269,12.042,11.67,16.755,12.206,16.939
		c0.536,0.184,0.83,0.241,1.768-0.167s2.826-0.721,2.826-0.721C98.169,52.288,92.858,49.09,88.402,41.285z"/>
	<path fill="#040000" d="M95.812,20.739c-2.108,6.787-7.373,8.876-7.373,8.876c5.227-0.641,9.246-5.955,9.903-7.077
		C99.876,19.917,96.861,17.359,95.812,20.739z"/>
	<path fill="#040000" d="M66.387,20.617c3.35,1.539,5.93,4.903,7.415,7.83c1.245,2.455,3.683,1.141,2.407-1.329
		C72.84,20.599,66.387,20.617,66.387,20.617z"/>
	<path fill="#040000" d="M102.877,34.658c0.533,0,0.305-1.522-1.178-1.864c-1.483-0.342-2.244,0.989-2.244,0.989H83.947v-15.58
		c0-0.615-0.371-0.948-1.056-1.142c-0.668-0.191-1.441,0.013-1.441,0.364v16.358H64.335c-0.098,0.052-0.148,0.291-0.088,0.5
		c0.068,0.243,0.187,0.375,0.405,0.375H81.45V60.08c0,0,0,0.498,0,1.009c0,0.352,0.773,0.557,1.441,0.366
		c0.684-0.196,1.056-0.527,1.056-1.142V34.658H102.877z"/>
	<path fill="#040000" d="M52.656,52.434c-1.439-0.332-2.177,0.96-2.177,0.96h-7.782c-0.095,0.051-0.144,0.282-0.085,0.485
		c0.066,0.236,0.181,0.364,0.393,0.364h10.794C54.316,54.243,54.095,52.766,52.656,52.434z"/>
	<path fill="#040000" d="M45.464,61.575c5.065,0,9.275,0.092,10.983-2.48c0.231-0.335,0.415-0.727,0.519-1.177
		c-0.496-1.661-1.361-3.68-1.234-5.572c-0.115,1.338-1.304,4.153-1.777,4.938c-0.9,1.511-1.604,2.93-7.799,2.93
		c-5.295,0-5.295-3.761-5.295-3.761V35.755h11.131c0,0.183,0,0.417,0,0.657c0,0.348,0.765,0.55,1.425,0.361
		c0.676-0.193,1.044-0.521,1.044-1.129v-7.778c0-0.608-0.367-0.937-1.044-1.129c-0.66-0.189-1.425,0.013-1.425,0.36v0.74h-11.13
		v-9.696c0-0.608-0.367-0.937-1.044-1.129c-0.66-0.189-1.425,0.013-1.425,0.36v11.643c0,0,0,0.492,0,0.997
		c0,0.348,0.765,0.55,1.425,0.361c0.676-0.193,1.044-0.521,1.044-1.129v-0.559h11.13v6.22c-1.334,0-1.988,0-1.988,0h-9.143v-0.165
		c0-0.611-0.369-0.934-1.038-1.131c-0.669-0.185-1.431,0.012-1.431,0.358V56.73c0,0,0,0.254,0,0.588
		c0,0.173,0.012,0.346,0.035,0.519C38.773,60.572,41.946,61.575,45.464,61.575z"/>
	<path fill="#040000" d="M17.408,23.956h19.528c0.517,0,0.295-1.476-1.143-1.808c-1.439-0.332-2.177,0.96-2.177,0.96H17.101
		c-0.095,0.051-0.144,0.282-0.085,0.485C17.082,23.827,17.197,23.956,17.408,23.956z"/>
	<path fill="#040000" d="M52.656,40.428c-1.439-0.332-2.177,0.96-2.177,0.96h-7.782c-0.095,0.051-0.144,0.282-0.085,0.485
		c0.066,0.236,0.181,0.364,0.393,0.364h10.794C54.316,42.236,54.095,40.76,52.656,40.428z"/>
	<path fill="#040000" d="M52.656,46.431c-1.439-0.332-2.177,0.96-2.177,0.96h-7.782c-0.095,0.051-0.144,0.282-0.085,0.485
		c0.066,0.236,0.181,0.364,0.393,0.364h10.794C54.316,48.24,54.095,46.763,52.656,46.431z"/>
	<path fill="#040000" d="M17.145,33.179h19.784c0.533,0,0.305-1.522-1.178-1.864s-2.244,0.989-2.244,0.989H16.828
		c-0.098,0.052-0.148,0.291-0.088,0.5C16.808,33.047,16.927,33.179,17.145,33.179z"/>
	<path fill="#040000" d="M31.125,25.695c-0.563,3.843-3.655,5.687-3.655,5.687c3.042-0.695,5.365-3.987,5.683-4.681
		C33.895,25.079,31.426,23.642,31.125,25.695z"/>
	<path fill="#040000" d="M53.504,21.469c2.01-1.365,0.503-4.486-1.298-2.308c-3.37,4.078-8.626,3.746-8.626,3.746
		C47.612,24.246,52.643,22.054,53.504,21.469z"/>
	<path fill="#040000" d="M26.472,21.348c0.69,1.565,2.808,1.134,2.238-0.496c-1.241-3.552-5.291-3.912-5.291-3.912
		C25.376,18.549,25.557,19.271,26.472,21.348z"/>
	<path fill="#040000" d="M19.435,25.429c1.818,1.091,3.082,3.178,3.746,4.945c0.557,1.482,2.671,1.033,2.097-0.46
		C23.763,25.975,19.435,25.429,19.435,25.429z"/>
	<path fill="#040000" d="M21.273,56.247c0.035-0.069,0.046-0.115,0.046-0.115c0.115-0.404,0.242-0.819,0.369-1.246
		c0.311-0.983,0.522-2.24,0.669-3.545h9.119v8.83c0,0,0,0.492,0,0.997c0,0.347,0.765,0.55,1.425,0.361
		c0.677-0.193,1.044-0.521,1.044-1.129V36.66c0-0.608-0.367-0.937-1.044-1.129c-0.66-0.189-1.425,0.013-1.425,0.36v1.236h-8.75
		c-0.016-0.566,0.022-0.858-0.5-1.249c-0.81-0.607-1.975-0.564-2.026-0.105c0,0,0,0.654,0,0.666
		c0.081,2.757,0.127,6.195,0.127,10.291c0,1.927-0.081,3.646-0.242,5.18c-0.115,0.992-0.265,1.973-0.484,2.919
		c-0.023,0.173-0.069,0.335-0.104,0.496c-0.196,0.981-0.438,1.834-0.727,2.584c-0.265,0.623-0.588,1.234-0.981,1.857
		c-0.392,0.623-0.854,1.223-1.373,1.811c-0.012,0.023-0.035,0.035-0.046,0.058C19.427,60.735,20.996,56.974,21.273,56.247z
		 M22.444,50.491c0.215-2.367,0.235-4.724,0.231-5.788h8.802v5.788H22.444z M31.476,43.855h-8.802
		c0.01-0.618,0.02-1.236,0.041-1.844c0.012-0.565,0.023-1.107,0.023-1.627c0.017-0.646,0.015-1.608,0.005-2.408h8.734V43.855z"/>
	<path fill="#040000" d="M145.112,30.334l0.089,0.059c1.664-1.146,3.771-3.2,5.048-4.701l0.104-0.124l0.162-0.008
		c0.614-0.03,0.983-0.081,1.239-0.187l-3.344-3.225l-2.077,2.12H132.27v-5.562l0.32-0.048c1.073-0.16,1.486-0.355,1.65-0.554
		l-5.068-0.471v6.634h-13.476l-0.02-0.354c-0.041-0.717-0.161-1.432-0.365-2.177l-0.102,0.006c-0.163,2.807-2.247,5.105-4.212,5.882
		c-0.783,0.411-1.292,1.099-1.292,1.781c0,0.822,0.605,1.293,1.662,1.293c2.163,0,4.353-1.987,4.353-5.786v0.625h31.22l-0.12-0.531
		C146.372,26.754,145.647,29.006,145.112,30.334z"/>
	<path fill="#040000" d="M144.4,31.214l-3.713-2.636l-2.207,2.784h-21.982l0.072,0.269h11.598l-0.801,0.664
		c-4.063,3.369-10.057,6.587-16.099,8.653l0.052,0.125c5.335-1.184,10.334-2.924,14.477-5.042l0.261-0.133l0.192,0.221
		c0.649,0.745,1.229,1.417,1.737,2.105l0.205,0.277l-0.26,0.227c-4.063,3.565-11.05,7.413-17.486,9.643l0.021,0.064
		c6.286-1.392,13.662-4.168,18.891-7.116l0.368-0.207l0.162,0.39c0.39,0.933,0.757,1.812,0.986,2.642l0.058,0.208l-0.151,0.154
		c-4.563,4.648-12.787,9.154-21.014,11.524v0.132c7.618-1.371,15.771-4.426,21.377-8.021l0.517-0.331l0.059,0.61
		c0.052,0.532,0.052,1.058,0.052,1.521c0,2.864-0.648,5.113-1.825,6.333c-0.446,0.446-1.136,0.483-1.748,0.483
		c-1.062,0-3.434,0-5.254-0.036c2.887,0.417,4.458,0.864,4.678,3.456c2.225-0.049,3.766-0.57,4.704-1.588
		c1.507-1.471,2.398-4.196,2.398-7.305c0-5.901-3.006-11.538-8.042-15.08l-0.495-0.348l0.532-0.289
		c2.221-1.205,4.115-2.498,5.633-3.844l0.106-0.094h10.288C143.704,31.631,144.133,31.491,144.4,31.214z"/>
	<path fill="#CF000E" d="M150.493,48.213c0,3.778-0.018,7.279-0.884,9.983c-1.117,3.486-3.313,5.673-5.208,5.673
		c-1.873,0-3.549-1.367-4.666-4.784c-0.89-2.722-1.426-7.039-1.426-10.873c0-5.404,1.177-10.105,2.686-12.983
		c2.522-4.81,2.179,0.256,4.258,1.262c1.688,0.817,2.62-1.006,3.57,1.073C149.67,39.422,150.493,42.094,150.493,48.213z"/>
	<g>
		<path fill="#FFFFFF" d="M142.26,40.667c0.352-0.07,0.598-0.141,0.738-0.211c0.047-0.023,0.082-0.035,0.105-0.035
			c0.258,0.164,0.375,0.27,0.352,0.316c-0.047,0-0.141,0.012-0.281,0.035c-0.492,0.047-0.797,0.094-0.914,0.141l-0.035,0.668
			c0.539,0.188,0.832,0.328,0.879,0.422c0.07,0.258,0.07,0.469,0,0.633c-0.023,0-0.094-0.059-0.211-0.176
			c-0.258-0.305-0.48-0.527-0.668-0.668c0.023,1.617,0.023,2.766,0,3.445c0,0.633-0.023,0.938-0.07,0.914
			c-0.141-0.141-0.258-0.34-0.352-0.598c0-0.023,0.012-0.047,0.035-0.07c0.07-0.141,0.105-0.434,0.105-0.879v-2.813
			c-0.516,1.008-1.148,1.875-1.898,2.602l-0.105-0.105c0.914-1.125,1.57-2.215,1.969-3.27c-0.563,0.094-0.996,0.199-1.301,0.316
			h-0.07c-0.023-0.023-0.082-0.059-0.176-0.105c-0.164-0.117-0.223-0.176-0.176-0.176c0.164,0.023,0.762-0.082,1.793-0.316
			c0-0.234,0-0.48,0-0.738c0.023-0.258,0.012-0.457-0.035-0.598c-0.398,0.211-0.844,0.41-1.336,0.598l-0.07-0.141
			c0.961-0.492,1.652-0.891,2.074-1.195c0.117-0.141,0.176-0.246,0.176-0.316l0.07-0.035c0.047,0.047,0.129,0.118,0.246,0.211
			c0.164,0.164,0.234,0.246,0.211,0.246c0,0.023-0.059,0.047-0.176,0.07c-0.281,0.118-0.574,0.258-0.879,0.422V40.667z
			 M143.772,43.796c0.445-0.047,0.738-0.105,0.879-0.176l0.035-0.035c0.234,0.164,0.328,0.258,0.281,0.281
			c-0.422,0.047-0.809,0.105-1.16,0.176l0.07,1.336c1.195-0.047,1.91-0.117,2.145-0.211c0.023,0,0.047,0,0.07,0
			c0.047,0.047,0.094,0.082,0.141,0.105c0.117-0.047,0.211-0.551,0.281-1.512c-0.375,0.047-0.68,0.094-0.914,0.141h-0.035
			c0-0.023-0.035-0.059-0.105-0.105c-0.141-0.094-0.188-0.152-0.141-0.176h0.035c0.164,0.023,0.551-0.012,1.16-0.105
			c0.047-0.656,0.07-1.066,0.07-1.23l-1.02,0.176c-0.234-0.141-0.328-0.223-0.281-0.246c0.117,0,0.539-0.047,1.266-0.141
			c0.141-0.234,0.223-0.352,0.246-0.352c0.281,0.211,0.422,0.328,0.422,0.352l-0.105,0.105c-0.094,0.094-0.152,0.164-0.176,0.211
			c-0.234,2.273-0.398,3.48-0.492,3.621c-0.047,0-0.141-0.176-0.281-0.527c0.023,0.047,0.012,0.023-0.035-0.07l-2.25,0.176
			c0,0.469-0.047,0.691-0.141,0.668c-0.07-0.094-0.176-0.305-0.316-0.633v-0.035c0.094-0.141,0.129-0.516,0.105-1.125
			c0-0.047-0.012-0.586-0.035-1.617c0-0.094-0.035-0.328-0.105-0.703l0.105-0.035l0.176,0.352c0.422-0.258,0.691-0.469,0.809-0.633
			c0.047-0.047,0.105-0.152,0.176-0.316h0.035c0.234,0.328,0.34,0.504,0.316,0.527l-0.105,0.035
			c-0.094,0.023-0.176,0.059-0.246,0.105c-0.211,0.117-0.445,0.234-0.703,0.352c-0.094,0.047-0.164,0.082-0.211,0.105
			L143.772,43.796z M143.456,39.542c1.172-0.375,2.016-0.703,2.531-0.984c0.234-0.164,0.352-0.281,0.352-0.352l0.07-0.035
			c0.07,0.07,0.164,0.153,0.281,0.246c0.188,0.164,0.246,0.246,0.176,0.246c-0.07,0.023-0.094,0.035-0.07,0.035
			c-1.641,0.54-2.742,0.867-3.305,0.984L143.456,39.542z M143.631,40.034c0.352,0.398,0.551,0.668,0.598,0.809
			c-0.07,0.305-0.176,0.504-0.316,0.598c-0.023,0-0.035-0.059-0.035-0.176c-0.07-0.445-0.188-0.844-0.352-1.195L143.631,40.034z
			 M144.827,39.753c0.281,0.328,0.504,0.609,0.668,0.844c0,0.211-0.094,0.434-0.281,0.668c-0.023,0-0.059-0.105-0.105-0.316
			c-0.117-0.422-0.234-0.797-0.352-1.125L144.827,39.753z M145.741,41.546c0.281-0.469,0.48-0.914,0.598-1.336
			c0.141-0.445,0.176-0.773,0.105-0.984h0.105c0.305,0.352,0.445,0.551,0.422,0.598c0,0.023-0.023,0.047-0.07,0.07
			c-0.07,0.07-0.152,0.211-0.246,0.422c-0.023,0.047-0.094,0.152-0.211,0.316c-0.258,0.492-0.457,0.82-0.598,0.984L145.741,41.546z"
			/>
		<path fill="#FFFFFF" d="M145.881,49.77c0.211,0.352,0.316,0.574,0.316,0.668c0,0.023-0.023,0.035-0.07,0.035
			c-0.07,0.047-0.176,0.141-0.316,0.281c-0.047,0.047-0.152,0.141-0.316,0.281c-0.539,0.469-0.902,0.785-1.09,0.949
			c0,0.234,0,0.551,0,0.949c0,0.469,0.082,0.75,0.246,0.844c0.141,0.117,0.504,0.176,1.09,0.176c0.047,0,0.117,0,0.211,0
			c0.563-0.023,0.879-0.082,0.949-0.176c0.047-0.023,0.094-0.551,0.141-1.582h0.176c0.07,0.867,0.164,1.488,0.281,1.863v0.07
			c-0.258,0.094-0.891,0.152-1.898,0.176c-0.609,0-1.02-0.094-1.23-0.281c-0.211-0.188-0.305-0.516-0.281-0.984
			c0-0.188,0-0.469,0-0.844c-0.398,0.305-0.879,0.574-1.441,0.809l-0.035-0.105c0.516-0.281,1.02-0.621,1.512-1.02
			c0-0.492,0-0.996,0-1.512c0-0.375-0.047-0.691-0.141-0.949l0.07-0.07l0.105,0.07c0.164-0.516,0.27-0.855,0.316-1.02l-1.688,0.105
			l-0.035,1.055c0.07,0.117,0.129,0.234,0.176,0.352l-0.035,0.035c-0.164,0.094-0.375,0.34-0.633,0.738
			c-0.023,2.086-0.035,3.223-0.035,3.41c-0.023,0.445-0.047,0.645-0.07,0.598c-0.164-0.188-0.293-0.434-0.387-0.738
			c0-0.023,0.012-0.059,0.035-0.105c0.07-0.117,0.117-0.246,0.141-0.387c0.023-0.539,0.035-1.336,0.035-2.391
			c-0.703,0.75-1.359,1.348-1.969,1.793l-0.105-0.141c0.984-0.773,1.734-1.605,2.25-2.496c0.023-0.047,0.059-0.105,0.105-0.176
			c0.141-0.234,0.211-0.422,0.211-0.563c-0.047-0.141-0.07-0.234-0.07-0.281c0-0.023,0.012-0.035,0.035-0.035
			c0.047-0.117,0.07-0.316,0.07-0.598c-0.773,0.047-1.406,0.129-1.898,0.246h-0.035c-0.375-0.188-0.539-0.305-0.492-0.352
			c0.047,0,0.117,0,0.211,0c0.516-0.023,1.254-0.082,2.215-0.176c-0.023-0.164-0.035-0.387-0.035-0.668
			c-0.023-0.398-0.094-0.727-0.211-0.984l0.07-0.035c0.398,0.352,0.598,0.539,0.598,0.563s-0.012,0.059-0.035,0.105
			c-0.07,0.117-0.105,0.246-0.105,0.387c0,0.188,0,0.387,0,0.598l1.758-0.141c0.07-0.328,0.129-0.633,0.176-0.914
			c0.023-0.234,0.012-0.504-0.035-0.809l0.07-0.035c0.375,0.398,0.563,0.609,0.563,0.633s-0.023,0.059-0.07,0.105
			c-0.07,0.117-0.129,0.234-0.176,0.352c0,0.023-0.012,0.059-0.035,0.105c-0.047,0.141-0.105,0.316-0.176,0.527
			c1.102-0.117,1.723-0.223,1.863-0.316c0.023-0.023,0.047-0.035,0.07-0.035c0.422,0.258,0.598,0.387,0.527,0.387
			c-1.313,0.117-2.156,0.199-2.531,0.246c-0.023,0.023-0.047,0.082-0.07,0.176c-0.211,0.422-0.352,0.75-0.422,0.984
			c0.047,0.047,0.105,0.117,0.176,0.211l0.141,0.176l-0.035,0.035c-0.07,0.164-0.117,0.328-0.141,0.492
			c0,0.328-0.012,0.727-0.035,1.195c0.422-0.352,0.82-0.773,1.195-1.266c0.094-0.141,0.164-0.352,0.211-0.633L145.881,49.77z"/>
		<path fill="#FFFFFF" d="M143.983,56.692c1.383-0.094,2.227-0.223,2.531-0.387c0.023-0.023,0.047-0.035,0.07-0.035
			c0.375,0.234,0.539,0.375,0.492,0.422l-2.918,0.246c0.797,0.844,1.547,1.512,2.25,2.004c0.328,0.141,0.773,0.234,1.336,0.281
			v0.141c-0.211,0.023-0.27,0.035-0.176,0.035c-0.82,0.07-1.266,0.105-1.336,0.105l-0.563-0.598
			c-0.773-0.844-1.336-1.441-1.688-1.793l-0.035,2.25l1.23-0.105c0.141-0.234,0.211-0.34,0.211-0.316
			c0.047,0.023,0.105,0.07,0.176,0.141c0.141,0.094,0.211,0.152,0.211,0.176s-0.023,0.07-0.07,0.141
			c-0.094,0.117-0.141,0.199-0.141,0.246c-0.211,2.18-0.363,3.211-0.457,3.094c-0.023,0-0.094-0.129-0.211-0.387
			c-0.07-0.141-0.117-0.246-0.141-0.316c-1.195,0.117-1.969,0.188-2.32,0.211c0,0.07,0,0.164,0,0.281
			c0.023,0.328,0,0.469-0.07,0.422c-0.164-0.234-0.281-0.445-0.352-0.633l0.035-0.035c0.07-0.094,0.105-0.281,0.105-0.563
			c-0.023-1.102-0.035-1.676-0.035-1.723c0-0.234-0.023-0.551-0.07-0.949h0.141l0.176,0.492l1.441-0.141
			c-0.188-0.328-0.281-0.504-0.281-0.527s0.012-0.047,0.035-0.07c0.047-0.188,0.082-0.422,0.105-0.703c0-0.094,0-0.387,0-0.879
			c-1.078,1.148-2.344,2.051-3.797,2.707l-0.07-0.105c1.453-0.75,2.648-1.688,3.586-2.813c-0.938,0.07-1.84,0.176-2.707,0.316
			c-0.023-0.023-0.082-0.07-0.176-0.141c-0.188-0.094-0.27-0.152-0.246-0.176c0.023,0,0.164-0.012,0.422-0.035
			c0.469-0.023,1.465-0.105,2.988-0.246v-0.984c-0.234,0.07-0.961,0.199-2.18,0.387c0.07,0,0.023,0.012-0.141,0.035v-0.141
			c1.945-0.422,3.082-0.762,3.41-1.02c0.141-0.094,0.234-0.176,0.281-0.246l0.035-0.035c0.352,0.281,0.527,0.457,0.527,0.527
			c-0.023,0-0.141,0.023-0.352,0.07c-0.07,0.023-0.129,0.047-0.176,0.07c-0.188,0.047-0.469,0.117-0.844,0.211
			c-0.117,0.023-0.199,0.047-0.246,0.07V56.692z M142.401,59.786l0.035,0.949c0.961-0.07,1.57-0.164,1.828-0.281
			c0.07-0.023,0.117-0.035,0.141-0.035l0.387,0.316l-2.355,0.246l0.035,1.02c0.164,0,0.305-0.012,0.422-0.035
			c0.609,0,1.078-0.035,1.406-0.105c0.094-0.023,0.199-0.047,0.316-0.07c0.141,0.117,0.246,0.176,0.316,0.176
			c0.141-0.141,0.234-0.961,0.281-2.461L142.401,59.786z"/>
	</g>
</g>
<g>
	<path fill="#080304" d="M13.849,92.492c-0.055,1.422-0.164,2.104-0.328,2.051c-0.492-0.656-0.82-1.259-0.984-1.805l0.082-0.082
		c0.328-0.492,0.492-1.094,0.492-1.805c0-0.164,0.027-3.499,0.082-10.008c-1.203,1.367-2.516,2.653-3.938,3.855l-0.246-0.328
		c3.499-3.335,5.496-6.234,5.988-8.695c0.054-0.273,0.082-0.492,0.082-0.656l0.164-0.082c0.546,0.711,0.902,1.341,1.066,1.887
		l-0.164,0.082c-0.328,0.164-0.547,0.356-0.656,0.574c-0.219,0.328-0.492,0.738-0.82,1.23c-0.328,0.438-0.603,0.82-0.82,1.148
		V92.492z M19.181,87.98c0.71,0.875,1.012,1.341,0.902,1.395l-0.082,0.082c-0.164,0.055-0.328,0.192-0.492,0.41
		c-2.133,2.406-3.773,3.965-4.922,4.676l-0.164-0.246c2.187-1.859,3.691-3.719,4.512-5.578c0-0.054,0.054-0.3,0.164-0.738H19.181z
		 M22.872,86.258c1.641-0.109,2.761-0.328,3.363-0.656L26.4,85.52c0.602,0.328,0.984,0.656,1.148,0.984
		c0,0.055-0.274,0.082-0.82,0.082c-1.587,0.11-3.418,0.274-5.496,0.492c-2.735,0.274-4.566,0.521-5.496,0.738
		c-0.055,0-0.11,0-0.164,0c-0.492-0.273-0.767-0.492-0.82-0.656c0-0.054,0.3-0.109,0.902-0.164c0.984-0.054,1.914-0.136,2.789-0.246
		l-0.082-4.43c-0.328,0.055-0.656,0.11-0.984,0.164c-0.328,0.055-0.521,0.11-0.574,0.164c-0.383-0.054-0.767-0.273-1.148-0.656
		c0.656,0,1.53-0.082,2.625-0.246c0-0.71,0-1.23,0-1.559s-0.028-0.628-0.082-0.902c-0.055-1.148-0.192-2.104-0.41-2.871
		c-0.055-0.218-0.082-0.355-0.082-0.41h0.164c0.054,0.055,0.191,0.164,0.41,0.328c0.71,0.547,1.066,0.849,1.066,0.902
		c0,0.055-0.028,0.11-0.082,0.164c-0.164,0.219-0.246,0.574-0.246,1.066c0.054,1.367,0.082,2.434,0.082,3.199
		c0.602-0.054,1.694-0.218,3.281-0.492c0-0.874,0.027-1.559,0.082-2.051c0.109-2.133-0.028-3.473-0.41-4.02V75.02l0.164-0.164
		c1.038,0.656,1.559,1.039,1.559,1.148c0,0.055-0.028,0.164-0.082,0.328c-0.219,0.931-0.41,2.516-0.574,4.758
		c0.984-0.164,1.723-0.328,2.215-0.492c0.054-0.054,0.109-0.082,0.164-0.082c0.273,0.11,0.602,0.356,0.984,0.738
		c0,0.055-0.246,0.11-0.738,0.164c-0.875,0.11-1.751,0.219-2.625,0.328L22.872,86.258z M19.099,82.238l0.082,4.348
		c0.874-0.109,1.832-0.191,2.871-0.246l0.246-4.512L19.099,82.238z M25.169,93.395l-0.328-0.492
		c-1.039-1.586-2.079-2.98-3.117-4.184c-0.055-0.054-0.055-0.136,0-0.246c1.805,1.313,3.117,2.434,3.938,3.363
		c-0.11,0.71-0.246,1.23-0.41,1.559H25.169z"/>
	<path fill="#080304" d="M35.013,79.695c5.742-0.546,9.188-1.038,10.336-1.477h0.082c0.71,0.383,1.066,0.685,1.066,0.902
		c-3.5,0.328-7.329,0.738-11.484,1.23c-0.164,4.102-0.574,6.973-1.23,8.613c-0.711,2.352-1.669,4.102-2.871,5.25l-0.246-0.246
		c1.313-1.477,2.269-3.609,2.871-6.398c0.328-1.969,0.52-4.129,0.574-6.48c0-1.422-0.082-2.597-0.246-3.527l0.246-0.082
		L35.013,79.695z M44.036,81.664c1.038,0.984,1.53,1.531,1.477,1.641l-0.164,0.164c-0.383,0.438-0.629,0.82-0.738,1.148
		c-0.492,2.079-1.395,4.376-2.707,6.891c1.914-0.218,3.335-0.464,4.266-0.738c0.109-0.054,0.191-0.082,0.246-0.082
		c0.82,0.492,1.202,0.793,1.148,0.902c-6.891,0.492-11.185,0.874-12.879,1.148h-0.164c-0.438-0.164-0.767-0.41-0.984-0.738
		c2.297-0.055,4.894-0.218,7.793-0.492c0.93-1.694,1.694-3.773,2.297-6.234c0.218-1.038,0.328-1.723,0.328-2.051
		c0.054-0.273,0.027-0.738-0.082-1.395L44.036,81.664z M36.244,83.551c1.148,2.079,1.887,3.474,2.215,4.184
		c0,0.547-0.274,1.148-0.82,1.805c-0.055,0-0.11-0.218-0.164-0.656c-0.328-2.022-0.82-3.745-1.477-5.168L36.244,83.551z
		 M40.099,78.465c-0.274-0.93-0.793-2.078-1.559-3.445l0.164-0.164c1.258,1.203,1.996,1.941,2.215,2.215
		c0.109,0.164-0.11,0.629-0.656,1.395H40.099z M39.197,81.992c0.602,1.148,1.313,2.598,2.133,4.348c0,0.547-0.301,1.177-0.902,1.887
		c-0.055,0-0.11-0.273-0.164-0.82c-0.328-2.022-0.767-3.801-1.313-5.332L39.197,81.992z"/>
	<path fill="#080304" d="M66.431,91.836c-0.055,1.258-0.219,2.078-0.492,2.461c-0.055,0.054-0.356-0.219-0.902-0.82
		c-0.767-0.82-1.477-1.505-2.133-2.051l0.246-0.164c1.038,0.603,1.668,0.956,1.887,1.066c0.273,0.164,0.41,0.218,0.41,0.164
		c0.382-0.492,0.438-4.102,0.164-10.828c-0.438,0.055-1.013,0.137-1.723,0.246c-4.648,0.492-7.465,0.849-8.449,1.066
		c0.054,7.329,0.082,11.074,0.082,11.238c-0.055,0-0.11,0-0.164,0c-0.547-0.875-0.82-1.395-0.82-1.559v-0.164
		c0.164-0.438,0.246-1.012,0.246-1.723c0-0.93-0.028-2.022-0.082-3.281c0-1.148,0-2.133,0-2.953c0-1.313-0.137-2.57-0.41-3.773
		l0.246-0.082c0.164,0.328,0.464,0.875,0.902,1.641c0.109,0,0.328-0.027,0.656-0.082c1.477-0.109,2.379-0.218,2.707-0.328
		c-0.219-1.038-0.685-2.051-1.395-3.035c-0.219,0.055-0.685,0.11-1.395,0.164c-1.915,0.274-2.899,0.41-2.953,0.41l-0.164-0.164
		c-0.547-0.382-0.793-0.602-0.738-0.656h0.492c2.133-0.109,4.785-0.355,7.957-0.738c-0.219-1.094-0.685-2.133-1.395-3.117
		l0.082-0.246c1.094,0.767,1.805,1.367,2.133,1.805c-0.055,0.274-0.192,0.767-0.41,1.477c3.445-0.328,5.77-0.684,6.973-1.066
		c0.602,0.438,0.93,0.738,0.984,0.902l-1.805,0.164c-1.915,0.164-3.363,0.301-4.348,0.41c0.546,0.711,0.792,1.039,0.738,0.984
		c0,0.055-0.028,0.11-0.082,0.164c-0.219,0.11-0.41,0.274-0.574,0.492c-0.328,0.438-0.603,0.984-0.82,1.641
		c0.218-0.054,0.792-0.164,1.723-0.328c0.93-0.109,1.504-0.191,1.723-0.246c0.164-0.164,0.3-0.328,0.41-0.492
		c0.054-0.109,0.109-0.164,0.164-0.164c0.382,0.219,0.684,0.465,0.902,0.738c0,0.055-0.082,0.164-0.246,0.328
		c-0.219,0.274-0.328,0.465-0.328,0.574V91.836z M58.474,86.832c0.492-0.109,1.284-0.273,2.379-0.492
		c0.438-0.054,0.738-0.109,0.902-0.164c0.164-0.054,0.328-0.218,0.492-0.492c0.054-0.164,0.109-0.246,0.164-0.246
		c0.492,0.274,0.848,0.521,1.066,0.738c0,0.055-0.082,0.137-0.246,0.246c-0.219,0.219-0.356,0.41-0.41,0.574
		c-0.055,0.219-0.11,0.629-0.164,1.23c-0.11,0.492-0.164,0.767-0.164,0.82c0,0.055,0.164,0.192,0.492,0.41
		c0.328,0.164,0.464,0.274,0.41,0.328l-1.066,0.164c-1.587,0.164-2.789,0.328-3.609,0.492c0.054,0.875,0,1.259-0.164,1.148
		c-0.164-0.054-0.465-0.438-0.902-1.148l0.082-0.082c0.218-0.328,0.3-1.038,0.246-2.133c0-0.164-0.028-0.438-0.082-0.82
		c-0.055-0.71-0.11-1.12-0.164-1.23c-0.055,0.055-0.192,0.164-0.41,0.328c-0.547,0.438-0.931,0.738-1.148,0.902l-0.082-0.164
		c1.094-1.202,1.914-2.269,2.461-3.199c0.218-0.438,0.328-0.792,0.328-1.066c0.054-0.109,0.109-0.109,0.164,0
		c0.438,0.438,0.684,0.767,0.738,0.984c0.054,0.055-0.055,0.137-0.328,0.246c-0.11,0.11-0.192,0.192-0.246,0.246
		c-0.055,0.055-0.274,0.328-0.656,0.82c-0.219,0.328-0.383,0.547-0.492,0.656L58.474,86.832z M61.509,81.582
		c0.492-1.422,0.738-2.515,0.738-3.281c-1.148,0.11-2.598,0.274-4.348,0.492c0.164,0.219,0.438,0.492,0.82,0.82
		c0.438,0.492,0.656,0.767,0.656,0.82c0.054,0.055,0.027,0.383-0.082,0.984c-0.055,0.219-0.082,0.383-0.082,0.492L61.509,81.582z
		 M58.474,87.324l0.164,2.543l3.199-0.492l0.246-2.625L58.474,87.324z M64.38,84.535c0.054,0.055,0.082,0.328,0.082,0.82
		c0.054,0.438,0.054,0.656,0,0.656c0,0.055-0.192-0.082-0.574-0.41c-1.039-0.93-1.997-1.668-2.871-2.215l0.082-0.164
		C62.247,83.605,63.341,84.043,64.38,84.535z"/>
	<path fill="#080304" d="M80.048,86.34c3.117-2.406,5.386-4.922,6.81-7.547c-0.275,0.055-0.656,0.137-1.148,0.246l-1.969,0.328
		c-0.111-0.054-0.22-0.136-0.329-0.246c-0.055,0.11-0.137,0.246-0.246,0.41c-0.164,0.164-0.274,0.301-0.328,0.41
		c0.656,0.492,1.12,0.82,1.396,0.984c-0.055,0.547-0.137,0.957-0.246,1.23h-0.164c-0.439-0.874-0.85-1.477-1.231-1.805
		c-0.984,1.367-1.695,2.27-2.133,2.707l-0.164-0.164c0-0.054,0.054-0.109,0.164-0.164c0.328-0.546,0.546-0.93,0.656-1.148
		c-0.547,0.055-1.559,0.219-3.035,0.492v1.148c1.202,0.438,1.887,0.738,2.051,0.902c0.164,0.219,0.218,0.656,0.164,1.313h-0.082
		c-0.492-0.546-1.203-1.094-2.133-1.641v10.09h-0.164c-0.656-0.931-0.984-1.477-0.984-1.641c0-0.055,0.027-0.137,0.082-0.246
		c0.164-0.273,0.273-0.656,0.328-1.148v-7.219c-1.148,2.079-2.598,3.938-4.348,5.578l-0.164-0.082
		c2.297-2.679,3.773-4.976,4.43-6.891c-0.875,0.11-1.777,0.274-2.707,0.492c-0.274,0.055-0.438,0.082-0.492,0.082
		c-0.383-0.218-0.656-0.41-0.82-0.574c0.054-0.054,0.246-0.082,0.574-0.082c1.094-0.109,2.324-0.328,3.691-0.656l-0.082-3.035
		c-0.219,0.11-1.285,0.521-3.199,1.23l-0.082-0.246c2.078-0.984,3.663-1.832,4.758-2.543c0.273-0.218,0.438-0.464,0.492-0.738h0.246
		c0.054,0.055,0.164,0.164,0.328,0.328c0.492,0.383,0.71,0.603,0.656,0.656c-0.055,0.11-0.274,0.219-0.656,0.328
		c-0.164,0.055-0.274,0.082-0.328,0.082c-0.438,0.219-0.957,0.438-1.559,0.656v3.117c0.602-0.164,1.148-0.3,1.641-0.41
		c0.218-0.109,0.355-0.136,0.41-0.082c0.438,0.11,0.766,0.356,0.984,0.738c1.038-1.422,1.914-3.171,2.626-5.25
		c0.217-0.602,0.273-1.066,0.164-1.395l0.246-0.082c0.109,0.11,0.217,0.246,0.328,0.41c0.545,0.547,0.791,0.849,0.738,0.902
		c-0.111,0.11-0.275,0.301-0.492,0.574c-0.111,0.11-0.193,0.192-0.246,0.246c-0.111,0.164-0.246,0.438-0.41,0.82
		c-0.22,0.438-0.384,0.738-0.493,0.902c0.329,0.055,1.341-0.109,3.036-0.492c0.164-0.054,0.273-0.082,0.328-0.082
		c0.109-0.109,0.217-0.273,0.328-0.492c0.164-0.218,0.273-0.328,0.328-0.328c0.328,0.274,0.656,0.629,0.984,1.066
		c0,0.055-0.137,0.164-0.41,0.328c-0.275,0.219-0.439,0.383-0.492,0.492c-2.023,3.063-4.513,5.496-7.466,7.301L80.048,86.34z
		 M79.228,93.887c4.266-1.969,7.19-4.676,8.778-8.121c-1.148,0.11-2.188,0.301-3.117,0.574c-0.055-0.054-0.219-0.164-0.492-0.328
		c-0.328,0.383-0.604,0.711-0.821,0.984c0.438,0.164,0.956,0.521,1.56,1.066c0,0.11-0.111,0.574-0.328,1.395l-0.164-0.082
		c-0.492-0.93-0.958-1.586-1.396-1.969c-0.656,0.711-1.641,1.559-2.953,2.543l-0.164-0.164c2.022-1.75,3.663-3.745,4.923-5.988
		c0.273-0.546,0.41-0.93,0.41-1.148l0.246-0.164c0.492,0.711,0.738,1.095,0.738,1.148c0,0.055-0.055,0.11-0.164,0.164
		c-0.219,0.164-0.41,0.356-0.574,0.574c-0.164,0.219-0.41,0.521-0.738,0.902c-0.164,0.164-0.275,0.301-0.328,0.41
		c0.602-0.054,1.641-0.218,3.117-0.492c0.164-0.054,0.381-0.218,0.656-0.492c0.164-0.164,0.273-0.246,0.328-0.246
		c0.545,0.438,0.873,0.82,0.984,1.148c0,0.055-0.111,0.137-0.328,0.246c-0.328,0.164-0.547,0.328-0.656,0.492
		c-2.133,3.72-5.279,6.316-9.435,7.793L79.228,93.887z"/>
	<path fill="#080304" d="M104.741,89.621c0.109,0.11,0.273,0.274,0.492,0.492c0.766,0.82,1.23,1.203,1.395,1.148
		c0.874-1.805,1.586-4.894,2.133-9.27c0.109-0.054-0.875,0.082-2.953,0.41c-0.875,5.414-3.336,9.324-7.383,11.73l-0.164-0.246
		c3.883-2.843,6.152-6.616,6.809-11.32c-0.984,0.11-1.669,0.219-2.051,0.328c-0.438-0.438-0.685-0.656-0.738-0.656
		c0.054,0-0.328,0.028-1.148,0.082c-0.82,0.11-1.613,0.219-2.379,0.328c0.054,0.11,0.136,0.274,0.246,0.492
		c0.218,0.328,0.3,0.521,0.246,0.574c-0.11,0.11-0.246,0.274-0.41,0.492c-0.055,0.11-0.11,0.192-0.164,0.246
		c-0.11,0.164-0.41,0.738-0.902,1.723c-0.711,1.259-1.203,2.133-1.477,2.625c0.382-0.109,1.586-0.464,3.609-1.066
		c0.382-0.109,0.684-0.191,0.902-0.246c-0.328-0.82-0.685-1.53-1.066-2.133l0.246-0.164c0.984,0.931,1.668,1.695,2.051,2.297
		c0.054,0.164-0.028,0.629-0.246,1.395c-0.055,0.11-0.082,0.192-0.082,0.246h-0.246c-0.11-0.328-0.274-0.738-0.492-1.23
		c-1.859,0.711-3.445,1.395-4.758,2.051c-0.274,0.11-0.438,0.164-0.492,0.164c-0.547-0.273-0.931-0.52-1.148-0.738
		c0-0.054,0.136-0.136,0.41-0.246c0.218-0.109,0.355-0.191,0.41-0.246c0.766-0.766,1.559-2.242,2.379-4.43
		c0-0.054,0.027-0.136,0.082-0.246c0.218-0.602,0.328-1.066,0.328-1.395c-0.931,0.164-1.833,0.301-2.707,0.41l-0.41,0.082
		c-0.438-0.218-0.738-0.438-0.902-0.656l0.82-0.082c3.335-0.382,5.55-0.82,6.645-1.313c0.109-0.054,0.492,0.246,1.148,0.902
		c0.71-0.054,1.504-0.136,2.379-0.246c0.164-0.93,0.355-2.57,0.574-4.922c0-0.656-0.028-1.12-0.082-1.395
		c0-0.328-0.055-0.602-0.164-0.82l0.164-0.246c0.984,0.984,1.448,1.477,1.395,1.477c0,0.11-0.055,0.246-0.164,0.41
		c-0.164,0.383-0.274,0.767-0.328,1.148c-0.164,1.367-0.383,2.762-0.656,4.184c1.313-0.164,2.16-0.3,2.543-0.41
		c0.109-0.054,0.246-0.218,0.41-0.492c0.164-0.273,0.273-0.41,0.328-0.41c0.492,0.274,0.848,0.629,1.066,1.066
		c0,0.055-0.055,0.11-0.164,0.164c-0.383,0.383-0.603,0.767-0.656,1.148c-0.984,6.234-1.941,9.598-2.871,10.09
		c-0.11,0-0.301-0.274-0.574-0.82c-0.492-0.874-0.984-1.641-1.477-2.297L104.741,89.621z M102.116,78.219
		c-1.695,0.164-3.199,0.41-4.512,0.738c-0.219,0.055-0.356,0.082-0.41,0.082c-0.328-0.109-0.656-0.328-0.984-0.656
		c0-0.054,0.109-0.082,0.328-0.082c1.258-0.054,2.816-0.355,4.676-0.902C101.759,77.727,102.061,78.001,102.116,78.219z"/>
	<path fill="#080304" d="M114.666,93.641c2.789-2.351,4.102-6.645,3.938-12.879c0-1.422-0.082-2.597-0.246-3.527l0.246-0.082
		l0.902,2.051c4.647-1.53,7.219-2.734,7.711-3.609l0.082-0.082c0.109,0.11,0.246,0.219,0.41,0.328
		c0.71,0.547,0.984,0.849,0.82,0.902c0.109,0-0.301,0.137-1.23,0.41c-1.039,0.328-3.664,1.203-7.875,2.625
		c0,0.383-0.028,1.039-0.082,1.969c0,0.547,0,0.875,0,0.984c6.288-0.766,9.926-1.395,10.91-1.887h0.082
		c0.328,0.11,0.738,0.438,1.23,0.984c-5.36,0.547-9.023,1.066-10.992,1.559l-0.328,0.082c-0.383-0.273-0.685-0.438-0.902-0.492
		c-0.11,4.868-1.587,8.504-4.43,10.91L114.666,93.641z M120.983,85.109l0.738,1.395l5.66-0.656c0.054-0.054,0.109-0.136,0.164-0.246
		c0.164-0.328,0.273-0.492,0.328-0.492c0.438,0.164,0.848,0.438,1.23,0.82c0,0.055-0.055,0.137-0.164,0.246
		c-0.219,0.274-0.356,0.521-0.41,0.738c-0.274,1.367-0.465,2.707-0.574,4.02c0.766,0.492,1.066,0.767,0.902,0.82
		c-1.477,0.11-3.5,0.218-6.07,0.328c0.218-0.055-0.028-0.055-0.738,0c0,1.038-0.055,1.53-0.164,1.477
		c-0.274-0.274-0.574-0.767-0.902-1.477c0-0.055,0-0.11,0-0.164c0.164-0.382,0.246-0.956,0.246-1.723
		c0-0.218-0.028-0.546-0.082-0.984c-0.055-2.078-0.192-3.417-0.41-4.02L120.983,85.109z M121.803,87.16l0.164,4.348l5.332-0.41
		l0.246-4.594L121.803,87.16z"/>
	<path fill="#080304" d="M145.674,78.957c2.461,1.477,4.266,2.735,5.414,3.773c0.054,0.164,0.027,0.603-0.082,1.313
		c-0.055,0.547-0.11,0.82-0.164,0.82c-0.055,0-0.164-0.136-0.328-0.41c-0.383-0.656-0.793-1.202-1.23-1.641
		c-4.156,0.547-7.329,1.013-9.516,1.395c-0.328,0.055-0.685,0.137-1.066,0.246c-0.164,0.055-0.274,0.082-0.328,0.082
		c-0.274-0.218-0.547-0.546-0.82-0.984l0.328-0.082c0.438-0.109,0.738-0.218,0.902-0.328c1.422-1.202,2.925-3.309,4.512-6.316
		c0.328-0.82,0.492-1.477,0.492-1.969l0.246-0.082c0.656,1.039,0.984,1.613,0.984,1.723c0,0.055-0.055,0.11-0.164,0.164
		c-0.219,0.11-0.465,0.356-0.738,0.738c-0.711,0.984-1.777,2.407-3.199,4.266c-0.492,0.656-0.875,1.177-1.148,1.559
		c2.953-0.218,5.988-0.52,9.105-0.902c-1.095-1.094-2.215-2.104-3.363-3.035L145.674,78.957z M147.479,86.176
		c0.218,0,0.464-0.273,0.738-0.82c0.492,0.328,0.874,0.656,1.148,0.984c-0.164,0.11-0.192,0.137-0.082,0.082
		c-0.328,0.274-0.521,0.465-0.574,0.574c-0.055,0.164-0.137,0.711-0.246,1.641c-0.164,0.984-0.301,1.859-0.41,2.625
		c0.054,0.055,0.136,0.11,0.246,0.164c0.656,0.328,0.902,0.546,0.738,0.656c-2.516,0.164-5.168,0.328-7.957,0.492
		c0,1.148-0.055,1.723-0.164,1.723c-0.383-0.438-0.685-0.875-0.902-1.313v-0.082c0.164-0.328,0.246-0.875,0.246-1.641
		c0-1.094-0.055-2.104-0.164-3.035c-0.11-1.477-0.219-2.406-0.328-2.789l0.246-0.082c0.328,0.492,0.602,1.039,0.82,1.641
		L147.479,86.176z M140.834,87.734c0.054,1.641,0.136,3.035,0.246,4.184l6.234-0.41c0.164-1.258,0.3-2.789,0.41-4.594
		L140.834,87.734z"/>
</g>
</svg>
