<?xml version="1.0" encoding="utf-8"?>
<!-- Generator: Adobe Illustrator 17.0.0, SVG Export Plug-In . SVG Version: 6.00 Build 0)  -->
<!DOCTYPE svg PUBLIC "-//W3C//DTD SVG 1.1//EN" "http://www.w3.org/Graphics/SVG/1.1/DTD/svg11.dtd">
<svg version="1.1" id="图层_1" xmlns="http://www.w3.org/2000/svg" xmlns:xlink="http://www.w3.org/1999/xlink" x="0px" y="0px"
	 width="200px" height="200px" viewBox="0 0 200 200" enable-background="new 0 0 200 200" xml:space="preserve">
<g>
	<g transform="scale(0.1953125, 0.1953125)">
		<path fill="#999999" d="M842.958,970.237H202.639c-25.446,0-55.68-27.06-55.68-55.68V441.279c0-20.602,27.868-55.68,55.68-55.68
			c13.335,0,55.68,0,55.68,0v-83.52c0-130.012,112.028-221.439,250.559-222.719c136.249,1.281,250.559,90.563,250.559,222.719v55.68
			h-55.68v-55.68c0-108.437-82.156-166.427-194.879-167.04c-115.369,0.668-194.879,60.385-194.879,167.04v83.52h445.439
			c0,0,66.621,0,83.52,0c30.513,0,55.68,24.694,55.68,55.68v473.279C898.638,942.119,868.404,970.237,842.958,970.237z
			 M842.958,441.279H202.639v473.279h640.318V441.279z M536.719,496.959c76.866,0,139.2,62.334,139.2,139.2
			c0,67.345-47.829,123.498-111.36,136.388v86.332c0,15.368-12.472,27.84-27.84,27.84s-27.84-12.472-27.84-27.84v-86.332
			c-63.531-12.89-111.36-69.043-111.36-136.388C397.519,559.292,459.853,496.959,536.719,496.959z M536.719,719.678
			c46.131,0,83.52-37.389,83.52-83.52s-37.389-83.52-83.52-83.52s-83.52,37.389-83.52,83.52S490.588,719.678,536.719,719.678z"/>
	</g>
</g>
</svg>
