<?xml version="1.0" encoding="utf-8"?>
<!-- Generator: Adobe Illustrator 17.0.0, SVG Export Plug-In . SVG Version: 6.00 Build 0)  -->
<!DOCTYPE svg PUBLIC "-//W3C//DTD SVG 1.1//EN" "http://www.w3.org/Graphics/SVG/1.1/DTD/svg11.dtd">
<svg version="1.1" id="图层_1" xmlns="http://www.w3.org/2000/svg" xmlns:xlink="http://www.w3.org/1999/xlink" x="0px" y="0px"
	 width="24px" height="24px" viewBox="0 0 200 200" enable-background="new 0 0 200 200" xml:space="preserve">
<g>
	<g transform="scale(0.1953125, 0.1953125)">
		<path fill="#3491E8" d="M927.998,543.999H96c-17.664,0-32-14.336-32-32c0-17.664,14.336-32,32-32h831.998
			c17.696,0,32,14.336,32,32C959.998,529.663,945.694,543.999,927.998,543.999z M831.998,927.998h-192c-17.696,0-32-14.304-32-32
			c0-17.696,14.304-32,32-32h192c17.664,0,32-14.336,32-32v-160c0-17.696,14.304-32,32-32c17.696,0,32,14.304,32,32v160
			C927.998,884.926,884.926,927.998,831.998,927.998z M351.999,927.998H192c-52.928,0-96-43.072-96-96v-160
			c0-17.696,14.336-32,32-32s32,14.304,32,32v160c0,17.664,14.368,32,32,32h160c17.664,0,32,14.304,32,32
			C383.999,913.694,369.663,927.998,351.999,927.998z M128,383.999c-17.664,0-32-14.336-32-32V192c0-52.928,43.072-96,96-96h160
			c17.664,0,32,14.336,32,32s-14.336,32-32,32H192c-17.632,0-32,14.368-32,32v160C160,369.663,145.664,383.999,128,383.999z
			 M895.998,383.999c-17.696,0-32-14.336-32-32V192c0-17.632-14.336-32-32-32h-192c-17.696,0-32-14.336-32-32s14.304-32,32-32h192
			c52.928,0,96,43.072,96,96v160C927.998,369.663,913.694,383.999,895.998,383.999z"/>
	</g>
</g>
</svg>
