<?xml version="1.0" encoding="utf-8"?>
<!-- Generator: Adobe Illustrator 17.0.0, SVG Export Plug-In . SVG Version: 6.00 Build 0)  -->
<!DOCTYPE svg PUBLIC "-//W3C//DTD SVG 1.1//EN" "http://www.w3.org/Graphics/SVG/1.1/DTD/svg11.dtd">
<svg version="1.1" id="图层_1" xmlns="http://www.w3.org/2000/svg" xmlns:xlink="http://www.w3.org/1999/xlink" x="0px" y="0px"
	 width="200px" height="200px" viewBox="0 0 200 200" enable-background="new 0 0 200 200" xml:space="preserve">
<g>
	<g transform="scale(0.1953125, 0.1953125)">
		<path fill="#999999" d="M880.164,957.418c-12.025,0-21.761-9.76-21.761-21.834c0-93.307-36.21-181.044-101.973-247.032
			c-8.506-8.529-8.506-22.369-0.026-30.899c8.493-8.53,22.271-8.53,30.775,0c73.985,74.246,114.745,172.96,114.745,277.931
			C901.925,947.658,892.188,957.418,880.164,957.418z M510.245,586.58c-1.231,0-2.425-0.174-3.656-0.187
			c-91.629,0.958-177.661,37.042-242.53,102.159c-65.765,65.988-101.973,153.726-101.973,247.032
			c0,12.074-9.736,21.834-21.76,21.834s-21.76-9.76-21.76-21.834c0-104.971,40.735-203.686,114.731-277.907
			c46.069-46.254,101.624-79.53,162.279-98.082c-86.579-42.699-146.45-131.878-146.45-235.044
			c0-144.5,117.13-262.028,261.119-262.028s261.12,117.528,261.12,262.028C771.365,469.038,654.234,586.58,510.245,586.58z
			 M510.245,106.194c-119.979,0-217.599,97.957-217.599,218.359c0,119.157,95.668,216.194,213.955,218.171
			c1.206-0.013,2.388-0.174,3.607-0.174c0.496,0,0.931,0.248,1.429,0.284c119.332-0.757,216.208-98.366,216.208-218.283
			C727.846,204.151,630.223,106.194,510.245,106.194z"/>
	</g>
</g>
</svg>
