<?xml version="1.0" encoding="utf-8"?>
<!-- Generator: Adobe Illustrator 16.0.0, SVG Export Plug-In . SVG Version: 6.00 Build 0)  -->
<!DOCTYPE svg PUBLIC "-//W3C//DTD SVG 1.1//EN" "http://www.w3.org/Graphics/SVG/1.1/DTD/svg11.dtd">
<svg version="1.1" id="图层_1" xmlns="http://www.w3.org/2000/svg" xmlns:xlink="http://www.w3.org/1999/xlink" x="0px" y="0px"
	 width="213.867px" height="200px" viewBox="0 0 213.867 200" enable-background="new 0 0 213.867 200" xml:space="preserve">
<g>
	<g transform="scale(0.1953125, 0.1953125)">
		<path fill="#B7B7B7" d="M105.712,547.179c-15.007,0-29.32-0.75-43.525,0.18c-19.972,1.3-36.662-3-47.785-21.31
			c-11.917-19.625-14.858-40.205-5.145-61.07c4.327-9.285,10.965-18.295,18.615-25.11c89.78-79.958,179.942-159.477,270.012-239.1
			c66.672-58.942,133.355-117.872,200.032-176.81c31.36-27.717,68.192-27.502,99.522,0.223
			c156.52,138.47,313.084,276.887,469.674,415.267c29.34,25.93,32.52,66.825,7.215,94.69c-7.875,8.68-17.38,13.17-29.19,13.075
			c-18.3-0.145-36.6-0.035-55.99-0.035v9.25c0,120.23-0.06,240.459,0.035,360.689c0.035,40.49-16.75,71.48-51.485,92.4
			c-16.955,10.21-35.715,13.58-55.335,13.58c-223.314-0.06-446.639-0.025-669.953-0.1c-7.252-0.005-14.632-0.26-21.735-1.575
			c-51.25-9.44-84.907-50.605-84.945-103.855c-0.08-120.23-0.022-240.459-0.022-360.689
			C105.712,553.889,105.712,550.909,105.712,547.179L105.712,547.179z M87.327,477.677c0.22,0.52,0.435,1.042,0.657,1.56
			c2.245,0,4.485-0.005,6.73,0c15.5,0.037,31.007-0.203,46.497,0.192c14.637,0.375,26.827,9.7,30.792,23.587
			c1.455,5.093,1.797,10.645,1.802,15.983c0.095,132.699,0.065,265.389,0.08,398.084c0,24.515,13.245,37.835,37.887,37.845
			c223.82,0.03,447.639,0.025,671.453-0.035c4.42,0,9.01-0.205,13.235-1.355c15.675-4.25,24.745-17.26,24.745-35
			c0.02-134.104,0-268.209,0.025-402.309c0.005-22.953,13.785-36.805,36.775-36.97c14.8-0.107,29.595-0.005,44.39-0.052
			c1.64-0.005,3.27-0.355,6.26-0.703C854.238,341.972,700.948,206.447,547.509,70.803
			C393.539,206.932,240.432,342.302,87.327,477.677L87.327,477.677z"/>
	</g>
</g>
</svg>
