<?xml version="1.0" encoding="utf-8"?>
<!-- Generator: Adobe Illustrator 17.0.0, SVG Export Plug-In . SVG Version: 6.00 Build 0)  -->
<!DOCTYPE svg PUBLIC "-//W3C//DTD SVG 1.1//EN" "http://www.w3.org/Graphics/SVG/1.1/DTD/svg11.dtd">
<svg version="1.1" id="图层_1" xmlns="http://www.w3.org/2000/svg" xmlns:xlink="http://www.w3.org/1999/xlink" x="0px" y="0px"
	 width="213.867px" height="200px" viewBox="0 0 213.867 200" enable-background="new 0 0 213.867 200" xml:space="preserve">
<g>
	<g transform="scale(0.1953125, 0.1953125)">
		<path fill="#B7B7B7" d="M551.248,33.593c-158.757,0-287.454,128.696-287.454,287.454c0,113.002,65.216,210.757,160.056,257.726
			c-177.663,52.576-306.858,212.217-306.858,401.014c0,10.388-0.533,6.402,0.238,16.6c0,0,3.851,13.288,25.41,14.281
			c21.559,0.994,27.167-13.946,27.167-13.946c-0.874-10.184-0.409-6.534-0.409-16.935c0-203.661,170.96-371.288,381.85-371.288
			c1.886,0,3.766,0.042,5.648,0.07c5.265-0.049,14.022-0.391,25.328-1.735c144.189-15.451,256.479-137.5,256.479-285.787
			C838.703,162.289,710.005,33.593,551.248,33.593z M551.248,560.419c-132.201,0-239.373-107.17-239.373-239.371
			c0-132.204,107.173-239.375,239.373-239.375c132.203,0,239.373,107.172,239.373,239.375
			C790.621,453.249,683.45,560.419,551.248,560.419z M985.508,979.787c0-121.837-53.82-231.518-139.729-308.136
			c-12.449-5.389-35.263-0.028-37.497,22.157c-0.685,5.363,1.307,13.074,3.448,15.023c74.673,67.967,121.37,164.533,121.37,270.956
			c0,10.401,0.249,5.26-0.625,15.443c0,0,2.938,15.438,27.985,15.438c21.693,0,24.768-15.484,24.768-15.484
			C985.7,985.599,985.508,990.175,985.508,979.787z"/>
	</g>
</g>
</svg>
