<?xml version="1.0" encoding="utf-8"?>
<!-- Generator: Adobe Illustrator 16.0.0, SVG Export Plug-In . SVG Version: 6.00 Build 0)  -->
<!DOCTYPE svg PUBLIC "-//W3C//DTD SVG 1.1//EN" "http://www.w3.org/Graphics/SVG/1.1/DTD/svg11.dtd">
<svg version="1.1" id="图层_1" xmlns="http://www.w3.org/2000/svg" xmlns:xlink="http://www.w3.org/1999/xlink" x="0px" y="0px"
	 width="200px" height="200px" viewBox="0 0 200 200" enable-background="new 0 0 200 200" xml:space="preserve">
<g>
	<g transform="scale(0.1953125, 0.1953125)">
		<path fill="#B7B7B7" d="M907.868,805.418c-5.35-1.46-14.9-3.445-24-6.68c-43.51-15.46-89.59,16.94-88.42,62.87
			c0.21,8.21,2.33,16.71,5.205,24.47c12.605,34.03,1.125,66.71-30.605,84.635c-36.76,20.765-75.545,36.725-116.189,48.135
			c-34.51,9.69-66.28-5.58-81.09-38.91c-16.465-37.06-59.017-51.54-93.632-31.74c-13.305,7.61-22.327,18.9-28.445,32.94
			c-11.975,27.455-38.147,43.77-67.075,40.11c-14.03-1.78-27.78-6.69-41.337-11.16c-30.497-10.05-59.652-23.28-87.667-38.99
			c-32.422-18.18-43.917-50.72-30.84-85.59c10.072-26.84,5.495-51.44-14.907-71.62c-20.008-19.79-44.337-24.05-70.603-14.305
			c-35.475,13.165-67.587,1.815-86.052-31.055c-20.457-36.42-36.135-74.81-47.545-114.97c-9.697-34.15,5.415-66.625,38.01-80.92
			c20.758-9.1,34.507-24.21,39.585-46.36c7.292-31.802-8.268-62.135-38.465-75.387c-19.933-8.748-33.56-22.902-39.65-43.978
			c-3.368-11.65-3.295-23.325-0.108-34.997c11.305-41.408,27.532-80.797,48.532-118.22c17.935-31.962,50.8-43.735,85.11-30.58
			c40.505,15.535,82.54-7.815,90.157-50.295c2.17-12.105,0.482-23.955-3.99-35.475c-13.455-34.637-1.657-67.27,30.8-85.53
			c37.005-20.82,76.032-36.775,116.915-48.155c32.812-9.132,65.152,6.417,79.157,38.152c9.925,22.498,26.417,36.823,50.857,40.633
			c31.147,4.852,58.422-10.475,71.167-39.513c9.315-21.228,24.635-35.757,47.505-39.912c10.4-1.89,22.04-1.648,32.24,0.995
			c41.295,10.705,80.41,27.195,117.57,48.203c31.68,17.907,43.44,50.707,30.41,84.572c-16.47,42.813,9.62,86.362,55.25,90.777
			c9.58,0.927,20.14-0.97,29.3-4.232c36.935-13.15,68.42-2.02,87.46,32.162c19.76,35.475,35.1,72.785,46.32,111.815
			c10.5,36.517-3.99,67.975-38.62,83.527c-41.979,18.85-53.814,71.307-23,104.577c6.445,6.96,15.03,12.68,23.685,16.72
			c33.56,15.685,48.285,46.975,38.095,82.765c-11.635,40.835-27.69,79.815-48.885,116.6
			C957.308,793.658,937.663,804.458,907.868,805.418L907.868,805.418z M956.328,388.802c-9.74-35.755-23.82-69.6-41.665-101.94
			c-2.25-4.075-4.74-2.127-7.41-1.167c-24.805,8.935-50.095,10.92-75.814,4.798c-77.46-18.44-120.785-98.475-93.73-173.42
			c1.905-5.287,0.925-7.622-3.95-9.825c-19.655-8.88-38.97-18.55-58.845-26.89c-13.065-5.482-26.875-9.188-40.015-13.57
			c-25.355,52.27-65.16,82.097-122.822,82.115c-57.905,0.02-97.85-29.967-122.752-81.745
			c-36.82,10.097-71.667,24.552-104.712,43.402c18.86,54.277,11.97,103.765-29.095,144.657
			c-40.972,40.795-90.417,47.939-144.452,28.822c-18.855,33.4-33.427,68.185-43.323,104.729
			c51.46,24.848,81.325,64.335,81.675,121.737c0.355,58.282-29.572,98.432-81.702,123.652c10.1,36.81,24.61,71.835,43.45,104.75
			c52.415-18.405,100.48-12.47,140.997,25.51c43.805,41.05,51.82,91.71,32.495,147.965c33.205,18.805,68.095,33.535,104.73,43.28
			c25.25-51.955,65.067-81.675,122.75-81.635c57.967,0.04,97.787,30.185,122.647,81.72c36.81-10.14,71.675-24.55,104.67-43.43
			c-19.05-54.29-11.85-103.53,28.775-144.33c40.87-41.045,90.345-48.02,144.72-29.13c18.89-33.14,33.42-68.11,43.34-104.73
			c-52.4-25.44-82.195-65.72-81.69-123.977C875.088,453.077,904.813,413.699,956.328,388.802L956.328,388.802z M512.076,280.58
			c29.042,0.382,56.962,6.012,83.917,16.542c18.045,7.05,26.58,25.32,20.115,42.655c-6.54,17.552-25.28,25.877-43.72,18.685
			c-87.232-34.01-180.824,10.045-213.494,92.535c-39.29,99.212,25.92,210.182,131.405,223.727
			c93.015,11.945,176.98-54.975,185.679-148.245c2.42-25.995-1.68-51.163-11.03-75.597c-6.79-17.74,0.66-35.667,17.065-42.83
			c17.215-7.522,36.55,0.387,43.835,18.41c14.6,36.135,20.38,73.755,14.72,112.327c-13.85,94.53-65.945,159.64-155.974,190.935
			c-134.605,46.79-279.692-43.165-300.399-184.159c-18.575-126.467,68.692-244.134,194.59-262.149
			C489.794,281.837,500.976,281.495,512.076,280.58L512.076,280.58z"/>
	</g>
</g>
</svg>
