<?xml version="1.0" encoding="utf-8"?>
<!-- Generator: Adobe Illustrator 17.0.0, SVG Export Plug-In . SVG Version: 6.00 Build 0)  -->
<!DOCTYPE svg PUBLIC "-//W3C//DTD SVG 1.1//EN" "http://www.w3.org/Graphics/SVG/1.1/DTD/svg11.dtd">
<svg version="1.1" id="图层_1" xmlns="http://www.w3.org/2000/svg" xmlns:xlink="http://www.w3.org/1999/xlink" x="0px" y="0px"
	 width="200px" height="200px" viewBox="0 0 200 200" enable-background="new 0 0 200 200" xml:space="preserve">
<g>
	<g transform="scale(0.1953125, 0.1953125)">
		<path fill="#B7B7B7" d="M259.711,735.102c46.528,0,84.224-37.76,84.224-84.224c0-16.96-4.992-32.768-13.696-46.016l90.56-150.912
			c2.432,0.256,4.864,0.384,7.36,0.384s4.928-0.128,7.36-0.384l90.56,150.912c-8.576,13.248-13.632,29.056-13.632,46.016
			c0,46.528,37.76,84.224,84.224,84.224c46.592,0,84.224-37.76,84.224-84.224c0-17.6-5.376-33.92-14.656-47.488l149.504-261.631
			c1.856,0.128,3.712,0.192,5.568,0.192c46.528,0,84.224-37.696,84.224-84.224s-37.76-84.224-84.224-84.224
			s-84.224,37.76-84.224,84.224c0,17.6,5.376,33.984,14.656,47.488L602.238,566.847c-1.792-0.128-3.648-0.192-5.568-0.192
			c-2.496,0-4.928,0.128-7.36,0.384l-90.496-151.04c8.64-13.184,13.632-28.992,13.632-45.952c0-46.592-37.76-84.224-84.224-84.224
			s-84.288,37.696-84.288,84.224c0,16.96,5.056,32.768,13.696,45.952l-90.56,150.976c-2.432-0.192-4.928-0.32-7.36-0.32
			c-46.592,0-84.224,37.76-84.224,84.224S213.119,735.102,259.711,735.102L259.711,735.102z M175.232,90.88H96v786.622v45.376
			h49.088h782.91v-79.232H175.232V90.88z"/>
	</g>
</g>
</svg>
