<?xml version="1.0" encoding="utf-8"?>
<!-- Generator: Adobe Illustrator 16.0.0, SVG Export Plug-In . SVG Version: 6.00 Build 0)  -->
<!DOCTYPE svg PUBLIC "-//W3C//DTD SVG 1.1//EN" "http://www.w3.org/Graphics/SVG/1.1/DTD/svg11.dtd">
<svg version="1.1" id="图层_1" xmlns="http://www.w3.org/2000/svg" xmlns:xlink="http://www.w3.org/1999/xlink" x="0px" y="0px"
	 width="200px" height="200px" viewBox="0 0 200 200" enable-background="new 0 0 200 200" xml:space="preserve">
<g>
	<g transform="scale(0.1953125, 0.1953125)">
		<path fill="#B7B7B7" d="M919.797,918.368c0-3.59-1.12-6.87-1.995-10.22c-19.105-145.5-113.675-267.249-243.895-323.204
			c75.54-51.645,125.185-138.535,125.185-237.02c0-158.52-128.464-286.987-287.044-286.987
			c-158.522,0-287.024,128.467-287.024,286.987c0,98.565,49.642,185.375,125.267,237.104
			c-128.105,55.07-221.474,173.939-242.579,316.399c-2.397,5.195-3.915,10.87-3.915,16.94l0.4,3.76
			c0,22.625,18.305,40.93,40.927,40.93c22.583,0,40.93-18.305,40.93-40.93l-0.04-0.48h1
			c19.425-158.68,152.045-282.104,314.764-287.139c3.435,0.08,6.792,0.48,10.27,0.48c3.48,0,6.875-0.4,10.31-0.48
			c162.74,5.04,295.359,128.46,314.784,287.139h1.2v0.48c0,22.625,18.305,40.93,40.925,40.93c22.63,0,40.93-18.305,40.93-40.93
			L919.797,918.368z M512.009,553.049c-113.235,0-205.044-91.772-205.044-204.967c0-113.275,91.81-205.044,205.044-205.044
			c113.215,0,204.985,91.77,204.985,205.044C716.993,461.277,625.218,553.049,512.009,553.049z"/>
	</g>
</g>
</svg>
