<?xml version="1.0" encoding="utf-8"?>
<!-- Generator: Adobe Illustrator 17.0.0, SVG Export Plug-In . SVG Version: 6.00 Build 0)  -->
<!DOCTYPE svg PUBLIC "-//W3C//DTD SVG 1.1//EN" "http://www.w3.org/Graphics/SVG/1.1/DTD/svg11.dtd">
<svg version="1.1" id="图层_1" xmlns="http://www.w3.org/2000/svg" xmlns:xlink="http://www.w3.org/1999/xlink" x="0px" y="0px"
	 width="200px" height="200px" viewBox="0 0 200 200" enable-background="new 0 0 200 200" xml:space="preserve">
<g>
	<g transform="scale(0.1953125, 0.1953125)">
		<path fill="#B7B7B7" d="M511.993,692.217c-101.688,0-184.408-82.862-184.408-184.71c0-101.847,82.72-184.701,184.408-184.701
			S696.41,405.659,696.41,507.507C696.41,609.356,613.681,692.217,511.993,692.217z M511.993,383.702
			c-68.157,0-123.61,55.543-123.61,123.805c0,68.273,55.453,123.816,123.61,123.816c68.166,0,123.62-55.543,123.62-123.816
			C635.613,439.244,580.159,383.702,511.993,383.702z M581.628,120.925v40.661c0,29.855,17.801,56.518,45.331,67.944
			c8.955,3.721,18.402,5.598,28.096,5.598c19.615,0,38.055-7.65,51.915-21.538l26.026-26.061l98.469,98.629l-26.017,26.061
			c-21.075,21.11-27.321,52.57-15.913,80.145c11.399,27.584,38.026,45.402,67.827,45.402h39.339v139.491h-39.339
			c-29.801,0-56.429,17.818-67.827,45.393c-11.408,27.584-5.162,59.044,15.913,80.153l26.017,26.063l-98.469,98.629l-26.026-26.063
			c-13.861-13.887-32.3-21.539-51.915-21.539c-9.694,0-19.141,1.879-28.096,5.6c-27.53,11.416-45.331,38.089-45.331,67.943v39.393
			l-139.259,0v-39.393c0-29.855-17.792-56.527-45.322-67.943c-8.955-3.721-18.412-5.6-28.106-5.6
			c-19.605,0-38.054,7.651-51.914,21.539L291,827.495l-98.469-98.629l26.018-26.063c21.075-21.11,27.32-52.569,15.913-80.144
			c-11.399-27.584-38.027-45.402-67.828-45.402h-39.331l0-139.491h39.331c29.802,0,56.43-17.818,67.828-45.402
			c11.407-27.575,5.162-59.034-15.913-80.145l-26.018-26.061L291,187.529l26.027,26.062c13.861,13.888,32.309,21.538,51.914,21.538
			c9.694,0,19.142-1.878,28.096-5.598c27.54-11.426,45.332-38.089,45.332-67.944v-40.661L581.628,120.925 M581.628,60.031H442.369
			c-33.441,0-60.798,31.205-60.798,64.697v36.858c0,5.125-3.082,9.73-7.797,11.69c-1.559,0.647-3.2,0.958-4.833,0.958
			c-3.283,0-6.51-1.277-8.928-3.702l-26.027-26.061c-11.819-11.846-27.402-17.764-42.988-17.764
			c-15.586,0-31.16,5.918-42.988,17.764L149.533,243.1c-23.637,23.681-23.637,62.445,0,86.118l26.027,26.061
			c3.61,3.619,4.687,9.063,2.735,13.788c-1.952,4.723-6.557,7.806-11.663,7.806h-36.805c-33.431,0-63.324,27.401-63.324,60.895
			v139.491c0,33.493,29.893,60.895,63.324,60.895h36.805c5.106,0,9.712,3.082,11.663,7.806s0.875,10.169-2.735,13.788
			l-26.027,26.063c-23.637,23.681-23.637,62.436,0,86.117l98.478,98.629c11.828,11.836,27.402,17.764,42.988,17.764
			c15.586,0,31.169-5.928,42.988-17.764l26.027-26.062c2.416-2.416,5.645-3.702,8.928-3.702c1.633,0,3.274,0.31,4.833,0.958
			c4.715,1.961,7.797,6.575,7.797,11.69v36.859c0,33.484,27.357,63.429,60.798,63.429h139.259c33.44,0,60.797-29.946,60.797-63.429
			V853.44c0-5.115,3.073-9.73,7.797-11.69c1.559-0.648,3.201-0.958,4.833-0.958c3.283,0,6.51,1.286,8.928,3.702L690,870.556
			c11.828,11.836,27.412,17.764,42.997,17.764c15.576,0,31.17-5.928,42.989-17.764l98.478-98.629
			c23.637-23.682,23.637-62.437,0-86.117l-26.027-26.063c-3.611-3.619-4.687-9.063-2.736-13.788
			c1.951-4.724,6.557-7.806,11.663-7.806h36.806c33.431,0,63.324-27.401,63.324-60.895V437.767
			c0-33.493-29.893-60.895-63.324-60.895h-36.806c-5.107,0-9.712-3.083-11.663-7.806c-1.951-4.724-0.875-10.169,2.736-13.788
			l26.027-26.061c23.637-23.672,23.637-62.437,0-86.118l-98.478-98.629c-11.819-11.846-27.412-17.764-42.989-17.764
			c-15.585,0-31.169,5.918-42.997,17.764l-26.018,26.061c-2.416,2.426-5.645,3.702-8.928,3.702c-1.632,0-3.274-0.31-4.833-0.958
			c-4.724-1.961-7.797-6.566-7.797-11.69v-36.858C642.425,91.234,615.068,60.031,581.628,60.031L581.628,60.031z"/>
	</g>
</g>
</svg>
