<?xml version="1.0" encoding="utf-8"?>
<!-- Generator: Adobe Illustrator 17.0.0, SVG Export Plug-In . SVG Version: 6.00 Build 0)  -->
<!DOCTYPE svg PUBLIC "-//W3C//DTD SVG 1.1//EN" "http://www.w3.org/Graphics/SVG/1.1/DTD/svg11.dtd">
<svg version="1.1" id="图层_1" xmlns="http://www.w3.org/2000/svg" xmlns:xlink="http://www.w3.org/1999/xlink" x="0px" y="0px"
	 width="200px" height="200px" viewBox="0 0 200 200" enable-background="new 0 0 200 200" xml:space="preserve">
<g>
	<g transform="scale(0.1953125, 0.1953125)">
		<path fill="#B7B7B7" d="M903.814,302.671h-266.43V169.217c0-58.533-47.505-106.179-105.899-106.179h-39.003
			c-58.394,0-105.899,47.646-105.899,106.179v133.454H120.154c-31.512,0-57.131,25.703-57.131,57.298v154.105
			c0,31.596,25.619,57.3,57.131,57.3h1.374v194.428c0,80.392-17.958,146.726-18.127,147.343
			c-3.143,11.336-0.814,23.514,6.314,32.914c7.1,9.4,18.183,14.9,29.941,14.9h744.656c11.758,0,22.841-5.5,29.969-14.9
			c7.128-9.4,9.456-21.578,6.314-32.942c-0.168-0.646-18.126-66.391-18.126-147.343V571.346h1.374
			c31.512,0,57.131-25.703,57.131-57.299l0-154.105C960.945,328.374,935.326,302.671,903.814,302.671L903.814,302.671z
			 M138.28,378.124h285.931c20.793,0,37.629-16.892,37.629-37.74l0-171.167c0-17.228,13.469-30.726,30.642-30.726h39.003
			c17.172,0,30.642,13.497,30.642,30.726v171.166c0,20.849,16.836,37.74,37.629,37.74h285.931v117.769H864.81l-705.653,0H138.28
			V378.124L138.28,378.124z M837.79,885.506H725.381V706.174c0-20.849-16.836-37.74-37.629-37.74
			c-20.792,0-37.628,16.892-37.628,37.74v179.332h-100.54l0-179.332c0-20.849-16.836-37.74-37.629-37.74
			c-20.791,0-37.628,16.892-37.628,37.74v179.332h-100.54l0-179.332c0-20.849-16.836-37.74-37.629-37.74
			c-20.791,0-37.628,16.892-37.628,37.74v179.332H186.179c5.275-30.333,10.635-72.647,10.635-119.704V571.374h630.368v194.428
			C827.183,812.831,832.515,855.145,837.79,885.506L837.79,885.506z"/>
	</g>
</g>
</svg>
