<?xml version="1.0" encoding="utf-8"?>
<!-- Generator: Adobe Illustrator 17.0.0, SVG Export Plug-In . SVG Version: 6.00 Build 0)  -->
<!DOCTYPE svg PUBLIC "-//W3C//DTD SVG 1.1//EN" "http://www.w3.org/Graphics/SVG/1.1/DTD/svg11.dtd">
<svg version="1.1" id="图层_1" xmlns="http://www.w3.org/2000/svg" xmlns:xlink="http://www.w3.org/1999/xlink" x="0px" y="0px"
	 width="200px" height="200px" viewBox="0 0 200 200" enable-background="new 0 0 200 200" xml:space="preserve">
<g>
	<g transform="scale(0.1953125, 0.1953125)">
		<path fill="#B7B7B7" d="M978.13,495.269L793.284,310.422c-9.06-9.06-23.752-9.06-32.817,0l-37.364,37.363
			c-9.06,9.06-9.06,23.757,0,32.817l81.538,81.538H432.983c-12.813,0-23.199,10.387-23.199,23.199v52.845
			c0,12.816,10.387,23.204,23.199,23.204h371.479l-81.538,81.538c-9.06,9.06-9.06,23.757,0,32.817l37.368,37.364
			c9.06,9.059,23.755,9.059,32.815,0l147.654-147.654c0-0.005,0.005-0.005,0.005-0.005l37.368-37.368
			C987.19,519.02,987.19,504.329,978.13,495.269L978.13,495.269z M659.682,64.755H159.88c-38.441,0-69.608,31.167-69.608,69.608
			v754.804c0,38.447,31.167,69.608,69.608,69.608h499.802c38.441,0,69.608-31.162,69.608-69.608V791.23
			c0-12.812-10.387-23.204-23.204-23.204h-50.292c-12.813,0-23.205,10.393-23.205,23.204v37.257c0,34.329,0,34.329-34.791,34.329
			l-376.997,0c-34.802,0-34.802,0.006-34.802-34.807V194.712c0-34.901-0.075-34.803,34.802-34.803h376.996
			c34.798,0,34.791,0.286,34.791,34.33v38.353c0,12.816,10.393,23.204,23.205,23.204h50.292c12.818,0,23.204-10.389,23.204-23.204
			l0-98.23C729.29,95.921,698.123,64.755,659.682,64.755L659.682,64.755z"/>
	</g>
</g>
</svg>
