<?xml version="1.0" encoding="utf-8"?>
<!-- Generator: Adobe Illustrator 17.0.0, SVG Export Plug-In . SVG Version: 6.00 Build 0)  -->
<!DOCTYPE svg PUBLIC "-//W3C//DTD SVG 1.1//EN" "http://www.w3.org/Graphics/SVG/1.1/DTD/svg11.dtd">
<svg version="1.1" id="图层_1" xmlns="http://www.w3.org/2000/svg" xmlns:xlink="http://www.w3.org/1999/xlink" x="0px" y="0px"
	 width="200px" height="200px" viewBox="0 0 200 200" enable-background="new 0 0 200 200" xml:space="preserve">
<g>
	<g transform="scale(0.1953125, 0.1953125)">
		<path fill="#B7B7B7" d="M1003.417,347.057C1003.417,345.402,1003.417,345.402,1003.417,347.057c0-3.31-1.65-4.965-1.65-8.275
			L917.383,122.03c-14.895-44.672-56.255-72.803-105.895-72.803H215.829c-49.637,0-89.347,26.475-102.585,69.495L20.587,340.437
			c0,1.655-1.655,3.31-1.655,4.965c-6.618,21.51-9.928,41.365-9.928,62.875c0,76.112,39.71,143.952,105.895,180.352l0,0l0,0l0,0l0,0
			c26.475,14.89,57.912,23.16,94.312,23.16c59.565,0,114.168-26.47,152.225-72.799c38.055,44.675,92.657,71.15,150.57,72.799
			c59.562,0,112.512-26.47,150.567-72.799c38.055,46.33,92.655,72.799,152.224,72.799c36.4,0,67.84-8.27,95.97-23.16
			c64.53-36.4,104.239-104.24,104.239-178.697C1013.347,388.422,1010.037,366.912,1003.417,347.057L1003.417,347.057
			L1003.417,347.057 M876.018,522.443c-16.55,9.925-36.4,13.235-61.22,13.235c-44.68,0-84.39-23.162-107.549-61.22
			c-1.66-3.308-4.965-9.925-9.93-14.89c-6.62-6.62-16.545-14.892-34.745-14.892c-14.895,0-28.125,6.618-34.745,14.892
			c-4.965,4.962-8.275,11.582-9.93,14.89c-23.16,38.057-62.875,61.22-105.892,61.22c-43.02,0-84.385-23.162-107.55-61.22
			c-1.655-3.308-4.965-9.925-8.275-13.235c-16.545-21.513-54.6-19.857-69.493-1.655c-4.965,6.617-8.275,11.582-9.927,16.545
			c-23.165,38.055-62.875,61.22-107.55,61.22c-23.165,0-43.02-4.965-59.565-13.235l0,0l0,0
			c-41.365-23.167-67.837-66.185-67.837-114.17c0-14.893,1.655-28.128,6.618-43.02c0-1.655,0-1.655,1.655-3.308l89.35-216.754
			c1.655-4.963,6.618-23.163,34.745-23.163h595.656c11.585,0,31.435,3.308,38.055,23.163l84.385,215.099
			c0,1.655,0,3.307,1.655,4.962c4.965,13.238,6.62,28.128,6.62,43.02C942.197,456.259,915.727,500.934,876.018,522.443
			L876.018,522.443L876.018,522.443 M902.488,641.578c-19.855,0-36.4,16.54-36.4,36.4v201.859c0,11.58-9.925,21.51-19.855,21.51
			H164.537c-11.582,0-19.855-9.93-19.855-19.855V682.938c0-19.85-16.545-36.4-36.4-36.4l0,0c-19.857,0-36.402,16.55-36.402,36.4
			v198.555c0,52.945,41.365,94.315,92.657,94.315h681.696c51.295,0,92.655-43.02,92.655-94.315V679.628
			C938.888,658.119,922.348,641.578,902.488,641.578L902.488,641.578L902.488,641.578 M794.938,383.456H215.829
			c-19.855,0-36.4-16.545-36.4-36.399c0-19.855,16.545-36.403,36.4-36.403h579.108c19.86,0,36.405,16.547,36.405,36.403
			C831.343,365.257,814.798,383.456,794.938,383.456L794.938,383.456L794.938,383.456 M794.938,383.456"/>
	</g>
</g>
</svg>
