<?xml version="1.0" encoding="utf-8"?>
<!-- Generator: Adobe Illustrator 17.0.0, SVG Export Plug-In . SVG Version: 6.00 Build 0)  -->
<!DOCTYPE svg PUBLIC "-//W3C//DTD SVG 1.1//EN" "http://www.w3.org/Graphics/SVG/1.1/DTD/svg11.dtd">
<svg version="1.1" id="图层_1" xmlns="http://www.w3.org/2000/svg" xmlns:xlink="http://www.w3.org/1999/xlink" x="0px" y="0px"
	 width="213.867px" height="200px" viewBox="0 0 213.867 200" enable-background="new 0 0 213.867 200" xml:space="preserve">
<g>
	<g transform="scale(0.1953125, 0.1953125)">
		<path fill="#B7B7B7" d="M547.839,995.553c-267.049,0-483.554-216.505-483.554-483.554S280.789,28.444,547.839,28.444
			s483.554,216.505,483.554,483.554S814.888,995.553,547.839,995.553z M952.243,664.7H831.634
			C793.51,786.454,707.259,886.372,595.303,941.548C759.483,923.554,895.82,813.966,952.243,664.7z M802.341,524.724
			c0-38.659-5.217-77.14-14.507-114.526l-214.545,0V613.8h219.763C798.956,585.015,802.341,555.29,802.341,524.724z M522.388,664.7
			H321.433c37.234,98.238,109.716,190.317,201.489,239.385L522.388,664.7z M522.388,613.8V410.198H304.916
			c-7.533,33.365-11.58,67.545-11.58,101.801c0,35.096,4.225,69.174,12.114,101.801H522.388z M522.388,359.297V113.143
			C429.062,166.028,356.3,252.585,319.626,359.297H522.388z M772.36,359.297c-37.768-103.481-108.876-193.269-199.072-245.009
			v245.009H772.36z M573.289,664.7v245.875c96.278-52.148,170.796-139.798,206.249-245.875H573.289z M522.388,943.66v-9.391V943.66
			C404.452,893.778,311.686,786.021,268.701,664.7H143.434C202.352,820.634,348.436,933.505,522.388,943.66z M128.164,408.62
			c-8.449,33.772-12.98,67.01-12.98,103.379c0,35.147,4.657,69.097,12.547,101.801h126.411
			c-7.457-32.754-11.707-66.756-11.707-101.801c0-34.383,4.123-68.436,11.3-101.801H140.635
			C136.207,410.198,131.778,410.63,128.164,408.62z M143.434,359.297h123.739C305.145,243.193,396.359,139.433,498.287,81.33
			C340.394,103.879,198.229,214.307,143.434,359.297z M592.682,82.195c106.764,55.176,190.419,157.868,231.877,277.102h127.684
			C895.54,209.243,758.032,99.323,592.682,82.195z M839.6,410.198c8.857,37.361,13.641,75.816,13.641,114.526
			c0,30.515-3.232,60.215-8.78,89.076h123.484c7.915-32.704,12.547-66.654,12.547-101.801s-4.657-69.097-12.547-101.801
			L839.6,410.198z"/>
	</g>
</g>
</svg>
