<?xml version="1.0" encoding="utf-8"?>
<!-- Generator: Adobe Illustrator 17.0.0, SVG Export Plug-In . SVG Version: 6.00 Build 0)  -->
<!DOCTYPE svg PUBLIC "-//W3C//DTD SVG 1.1//EN" "http://www.w3.org/Graphics/SVG/1.1/DTD/svg11.dtd">
<svg version="1.1" id="图层_1" xmlns="http://www.w3.org/2000/svg" xmlns:xlink="http://www.w3.org/1999/xlink" x="0px" y="0px"
	 width="200px" height="200px" viewBox="0 0 200 200" enable-background="new 0 0 200 200" xml:space="preserve">
<g>
	<g transform="scale(0.1953125, 0.1953125)">
		<path fill="#B7B7B7" d="M522.224,683.754c0.102,0.305,0.178,0.584,0.254,0.888l3.757,6.854
			C526.387,691.496,524.508,687.967,522.224,683.754z M514.685,669.488c0.076,0.533,4.214,8.072,7.539,14.265
			c-0.025-0.102-0.051-0.228-0.076-0.33L514.685,669.488z M514.584,34.702c-259.367,0-469.592,210.25-469.592,469.592
			c0,259.367,210.225,469.592,469.592,469.592c259.341,0,469.592-210.225,469.592-469.592
			C984.175,244.952,773.925,34.702,514.584,34.702z M514.584,923.119c-231.293,0-418.825-187.532-418.825-418.825
			S283.291,85.469,514.584,85.469c231.318,0,418.825,187.532,418.825,418.825S745.902,923.119,514.584,923.119z M704.959,364.685
			h-76.15c-14.037,0-25.383,11.346-25.383,25.383s11.346,25.383,25.383,25.383h14.824L526.235,691.496
			c-1.853-1.218-2.919-3.858-3.757-6.854l-147.503-269.19h25.383c14.037,0,25.383-11.346,25.383-25.383
			s-11.346-25.383-25.383-25.383H298.825c-14.037,0-25.383,11.346-25.383,25.383s11.346,25.383,25.383,25.383h13.656l164.027,304.6
			c5.28,14.722,21.55,25.383,38.075,25.383c16.524,0,32.795-10.661,38.075-25.383l140.598-304.6h11.702
			c14.037,0,25.383-11.346,25.383-25.383S718.996,364.685,704.959,364.685z"/>
	</g>
</g>
</svg>
