<?xml version="1.0" encoding="utf-8"?>
<!-- Generator: Adobe Illustrator 16.0.0, SVG Export Plug-In . SVG Version: 6.00 Build 0)  -->
<!DOCTYPE svg PUBLIC "-//W3C//DTD SVG 1.1//EN" "http://www.w3.org/Graphics/SVG/1.1/DTD/svg11.dtd">
<svg version="1.1" id="图层_1" xmlns="http://www.w3.org/2000/svg" xmlns:xlink="http://www.w3.org/1999/xlink" x="0px" y="0px"
	 width="200px" height="200px" viewBox="0 0 200 200" enable-background="new 0 0 200 200" xml:space="preserve">
<g>
	<g transform="scale(0.1953125, 0.1953125)">
		<path fill="#B7B7B7" d="M309.079,275.609c0-22.682,0.028-44.477-0.01-66.267c-0.037-23.44,3.71-46.22,11.292-68.42
			C349.244,56.357,432.926-0.432,522.004,4.173c97.955,5.063,177.005,75.822,192.414,172.669c1.83,11.525,2.01,23.377,2.2,35.092
			c0.34,20.853,0.095,41.712,0.095,63.672h8.735c42.27,0,84.54-0.132,126.81,0.033c49.08,0.192,91.125,33.875,100.189,81.637
			c4.4,23.232,6.12,46.978,9.05,70.492c6.34,50.758,12.67,101.52,19.01,152.28c6.345,50.76,12.7,101.51,19.05,152.27
			c6.385,50.98,12.84,101.96,19.12,152.96c2.41,19.51,6.2,38.96,1.44,58.745c-10.945,45.515-49.895,77.575-96.709,79.235
			c-1.64,0.055-3.285,0.09-4.93,0.09c-270.299,0-540.599,0.045-810.898-0.045c-45.21-0.015-83.037-26.16-98.105-67.02
			c-6.585-17.86-6.895-36.07-4.44-54.795c7.262-55.365,13.96-110.81,20.912-166.21c7.3-58.2,14.675-116.395,21.955-174.6
			c6.81-54.477,13.522-108.97,20.31-163.447c1.655-13.27,2.655-26.675,5.285-39.752c9.657-48.013,50.91-81.625,100.01-81.828
			c42.27-0.172,84.54-0.037,126.81-0.037C302.892,275.609,305.467,275.609,309.079,275.609L309.079,275.609z M512.566,955.273
			c133.852,0,267.697,0.005,401.541-0.02c3.52,0,7.06-0.015,10.55-0.415c18.69-2.18,31.79-18.26,29.605-37.01
			c-3.235-27.73-6.945-55.4-10.42-83.105c-6.325-50.52-12.625-101.045-18.935-151.565c-6.335-50.75-12.66-101.51-19.01-152.26
			c-6.29-50.292-12.855-100.552-18.835-150.877c-3.025-25.46-14.355-36.325-39.815-36.33c-61.05-0.015-122.089-0.047-183.139,0.005
			c-107.07,0.095-214.147,0.315-321.224,0.357c-55.412,0.018-110.827-0.442-166.24-0.112c-7.39,0.042-15.488,2.127-21.975,5.64
			c-11.525,6.242-14.512,17.875-15.992,30.372c-6.507,54.992-13.44,109.925-20.307,164.875
			c-7.735,61.93-15.607,123.84-23.35,185.764c-7.772,62.165-15.415,124.335-23.218,186.495c-1.57,12.52,2.748,22.53,12.113,30.56
			c7.605,6.525,16.775,7.67,26.4,7.67C244.407,955.253,378.484,955.273,512.566,955.273L512.566,955.273z M648.783,275.332
			c0-22.357,0.035-44.14-0.005-65.92c-0.165-79.965-63.16-140.395-143.07-137.277c-61.462,2.4-117.077,49.607-125.645,110.475
			c-4.22,29.978-2.147,60.842-2.88,91.31c-0.01,0.375,0.497,0.76,0.957,1.413H648.783L648.783,275.332z M410.881,479.382
			c0.107,37.787-30.047,68.027-67.822,68.017c-37.432-0.01-67.722-30.07-67.852-67.337c-0.133-37.737,29.845-68.19,67.527-68.585
			C380.066,411.089,410.774,441.682,410.881,479.382L410.881,479.382z M750.738,479.467c0.105,37.362-29.94,67.702-67.285,67.922
			c-37.745,0.23-68.415-29.93-68.555-67.415c-0.14-37.565,30.125-68.19,67.7-68.5C719.908,411.167,750.638,441.832,750.738,479.467
			L750.738,479.467z"/>
	</g>
</g>
</svg>
