<?xml version="1.0" encoding="utf-8"?>
<!-- Generator: Adobe Illustrator 17.0.0, SVG Export Plug-In . SVG Version: 6.00 Build 0)  -->
<!DOCTYPE svg PUBLIC "-//W3C//DTD SVG 1.1//EN" "http://www.w3.org/Graphics/SVG/1.1/DTD/svg11.dtd">
<svg version="1.1" id="图层_1" xmlns="http://www.w3.org/2000/svg" xmlns:xlink="http://www.w3.org/1999/xlink" x="0px" y="0px"
	 width="200px" height="200px" viewBox="0 0 200 200" enable-background="new 0 0 200 200" xml:space="preserve">
<g>
	<g transform="scale(0.1953125, 0.1953125)">
		<path fill="#B7B7B7" d="M749.219,295.061c-24.423,0-44.244,19.82-44.244,44.244c0,14.351,6.823,27.131,17.438,35.2
			C702.484,464.346,622.282,531.66,526.592,531.66s-175.946-67.367-195.821-157.155c10.614-8.069,17.438-20.849,17.438-35.146
			c0-24.423-19.82-44.244-44.244-44.244c-24.423,0-44.298,19.766-44.298,44.244c0,16.084,8.556,30.164,21.391,37.908
			c1.029,0.921,2.274,1.733,3.737,2.437C304.128,495.702,405.179,584.46,526.592,584.46s222.464-88.758,241.797-204.756
			c1.625-0.758,2.924-1.625,3.953-2.599c12.672-7.798,21.174-21.77,21.174-37.745C793.463,314.882,773.642,295.061,749.219,295.061z
			 M856.335,105.468H195.333c-55.345,0-100.401,45.056-100.401,100.401v666.526c0,55.345,45.056,100.401,100.401,100.401h661.003
			c55.345,0,100.401-45.056,100.401-100.401l0-666.526C956.737,150.524,911.681,105.468,856.335,105.468z M895.597,872.396
			c0,21.662-17.6,39.262-39.262,39.262H195.333c-21.662,0-39.262-17.6-39.262-39.262V205.87c0-21.662,17.6-39.262,39.262-39.262
			h661.003c21.662,0,39.262,17.6,39.262,39.262L895.597,872.396z"/>
	</g>
</g>
</svg>
