<?xml version="1.0" encoding="utf-8"?>
<!-- Generator: Adobe Illustrator 16.0.0, SVG Export Plug-In . SVG Version: 6.00 Build 0)  -->
<!DOCTYPE svg PUBLIC "-//W3C//DTD SVG 1.1//EN" "http://www.w3.org/Graphics/SVG/1.1/DTD/svg11.dtd">
<svg version="1.1" id="图层_1" xmlns="http://www.w3.org/2000/svg" xmlns:xlink="http://www.w3.org/1999/xlink" x="0px" y="0px"
	 width="200px" height="200px" viewBox="0 0 200 200" enable-background="new 0 0 200 200" xml:space="preserve">
<g>
	<g transform="scale(0.1953125, 0.1953125)">
		<path fill="#B7B7B7" d="M70.81,547.099c0-123.76-0.018-247.522,0.01-371.281c0.015-53.51,35.022-95.395,87.947-103.035
			c17.487-2.52,35.67-1.82,53.407-0.615c16.853,1.147,29.107,17.56,28.31,34.737c-0.818,17.587-14.595,31.738-31.992,32.328
			c-11.26,0.38-22.542,0.027-33.815,0.115c-21.8,0.17-36.01,14.47-36.015,36.42c-0.022,247.52-0.022,495.042,0,742.561
			c0,22.25,14.302,36.635,36.567,36.64c224.74,0.04,449.484,0.04,674.223,0c22.945,0,36.885-14.285,36.905-37.785
			c0.06-68.105,0.02-136.205,0.02-204.304c0-178.005-0.01-356.014,0.03-534.021c0-9.357-1.135-18.29-7.07-25.948
			c-6.75-8.705-15.72-13.27-26.69-13.482c-11.27-0.22-22.54,0-33.815-0.097c-19.265-0.173-34.365-14.843-34.62-33.52
			c-0.255-18.625,14.705-34.322,33.845-34.098c19.41,0.23,39.325-0.737,58.12,3.153c44.68,9.252,76.41,49.427,78.02,95.012
			c0.09,2.577,0.1,5.165,0.1,7.75c0.01,246.344,0.05,492.691-0.035,739.041c-0.015,44.585-19.925,77.27-60.11,97.03
			c-13.235,6.505-27.535,9.15-42.295,9.15c-226.155,0-452.302,0.04-678.451-0.03c-57.582-0.02-102.535-45.205-102.572-103.015
			C70.75,795.558,70.815,671.323,70.81,547.099L70.81,547.099z M512.694,207.227c-44.15,0-88.3,0.03-132.447-0.007
			c-42.985-0.038-71.455-28.512-71.525-71.502c-0.032-20.667-0.075-41.33,0.008-62c0.17-41.147,29.03-70.095,70.037-70.12
			c89.237-0.055,178.477-0.06,267.712,0.005c40.53,0.033,69.729,29.27,69.82,69.697c0.045,21.838,0.09,43.68-0.02,65.518
			c-0.185,38.105-28.86,67.8-66.915,68.228c-45.555,0.512-91.11,0.122-136.67,0.122
			C512.694,207.187,512.694,207.205,512.694,207.227L512.694,207.227z M648.098,72.033H377.126v66.925h270.972V72.033
			L648.098,72.033z M511.886,615.159c-66.432,0-132.867-0.03-199.3,0.03c-9.685,0.01-18.7-1.76-26.12-8.44
			c-10.613-9.555-14.177-21.515-10.298-35.08c3.895-13.62,13.373-21.69,27.46-24.01c2.532-0.42,5.135-0.58,7.702-0.58
			c134.042-0.03,268.082-0.05,402.122,0c22.865,0.01,38.03,15.42,36.665,36.91c-0.93,14.67-12.49,27.755-27.025,30.25
			c-4.135,0.71-8.405,0.89-12.615,0.89C644.283,615.174,578.083,615.159,511.886,615.159L511.886,615.159z M512.004,784.838
			c-67.607,0-135.215,0.01-202.827-0.015c-14.265-0.005-24.948-6.415-31.048-19.215c-5.952-12.48-4.552-24.75,3.995-35.73
			c6.93-8.91,16.395-12.87,27.667-12.855c31.457,0.055,62.915,0.015,94.372,0.015c103.292,0,206.58-0.02,309.874,0.02
			c21.19,0.01,36.11,14.09,36.17,33.88c0.06,18.67-14.46,33.68-33.265,33.83c-25.584,0.22-51.175,0.065-76.765,0.065
			C597.448,784.838,554.729,784.838,512.004,784.838L512.004,784.838z M444.804,377.312c45.07,0,90.145-0.148,135.215,0.06
			c22.84,0.108,38.45,20.053,33.355,41.94c-3.54,15.205-16.98,25.737-33.555,25.812c-30.045,0.138-60.09,0.048-90.14,0.042
			c-60.097,0-120.195,0.103-180.29-0.06c-24.605-0.068-40.942-23.262-32.623-45.733c5.02-13.563,17.323-22.002,32.818-22.035
			C354.659,377.254,399.734,377.312,444.804,377.312L444.804,377.312z"/>
	</g>
</g>
</svg>
