<?xml version="1.0" encoding="utf-8"?>
<!-- Generator: Adobe Illustrator 17.0.0, SVG Export Plug-In . SVG Version: 6.00 Build 0)  -->
<!DOCTYPE svg PUBLIC "-//W3C//DTD SVG 1.1//EN" "http://www.w3.org/Graphics/SVG/1.1/DTD/svg11.dtd">
<svg version="1.1" id="图层_1" xmlns="http://www.w3.org/2000/svg" xmlns:xlink="http://www.w3.org/1999/xlink" x="0px" y="0px"
	 width="200px" height="200px" viewBox="0 0 200 200" enable-background="new 0 0 200 200" xml:space="preserve">
<g>
	<g transform="scale(0.1953125, 0.1953125)">
		<path fill="#B7B7B7" d="M868.499,233.784H790.05v-86.979c0-44.061-39.659-79.917-88.446-79.917l-489.171,0h-7.28h-49.656
			c-48.679,0-88.446,35.856-88.446,79.917v274.954v288.537c0,44.06,39.659,79.917,88.446,79.917h78.341v-55.579h-78.341
			c-17.82,0-32.814-11.137-32.814-24.338l0-274.955V146.805c0-13.202,15.103-24.339,32.814-24.339h49.656h7.28h489.171
			c17.818,0,32.813,11.138,32.813,24.339v86.979l-355.088,0h-7.28h-49.655c-48.678,0-88.447,35.857-88.447,79.917v274.954v288.536
			c0,44.06,39.66,79.917,88.447,79.917h546.104c48.679,0,88.446-35.857,88.446-79.917l0-274.953V313.701
			C956.944,269.64,917.285,233.784,868.499,233.784z M901.314,588.655v288.536c0,13.202-15.104,24.339-32.815,24.339l-546.105,0
			c-17.82,0-32.814-11.138-32.814-24.339V602.238V313.701c0-13.202,15.104-24.339,32.814-24.339h49.655h7.28h489.17
			c17.82,0,32.815,11.138,32.815,24.339l0,274.954H901.314z M372.918,455.008H706.6c15.322,0,27.818-12.386,27.818-27.815
			c0-15.321-12.387-27.816-27.818-27.816H372.918c-15.321,0-27.816,12.496-27.816,27.816
			C345.102,442.621,357.598,455.008,372.918,455.008z M817.865,566.272H372.918c-15.321,0-27.816,12.496-27.816,27.816
			c0,15.429,12.496,27.816,27.816,27.816h444.947c15.322,0,27.818-12.386,27.818-27.816
			C845.682,578.767,833.294,566.272,817.865,566.272z M817.865,733.167H372.918c-15.321,0-27.816,12.496-27.816,27.816
			c0,15.429,12.496,27.816,27.816,27.816h444.947c15.322,0,27.818-12.386,27.818-27.816
			C845.682,745.663,833.294,733.167,817.865,733.167z"/>
	</g>
</g>
</svg>
