<?xml version="1.0" encoding="utf-8"?>
<!-- Generator: Adobe Illustrator 16.0.0, SVG Export Plug-In . SVG Version: 6.00 Build 0)  -->
<!DOCTYPE svg PUBLIC "-//W3C//DTD SVG 1.1//EN" "http://www.w3.org/Graphics/SVG/1.1/DTD/svg11.dtd">
<svg version="1.1" id="图层_1" xmlns="http://www.w3.org/2000/svg" xmlns:xlink="http://www.w3.org/1999/xlink" x="0px" y="0px"
	 width="200px" height="200px" viewBox="0 0 200 200" enable-background="new 0 0 200 200" xml:space="preserve">
<path fill="#B7B7B7" d="M177.732,161.074h-19.437h-2v-2v-106.9c0-4.256-3.463-7.719-7.72-7.719c-4.256,0-7.718,3.463-7.718,7.719
	v106.9v2h-2h-19.437h-2v-2V71.611c0-4.256-3.462-7.718-7.717-7.718c-4.256,0-7.719,3.462-7.719,7.718v87.463v2h-2H80.549h-2v-2
	V91.047c0-4.256-3.462-7.718-7.718-7.718s-7.718,3.462-7.718,7.718v68.027v2h-2H31.959h-2v-2V32.738
	c0-4.256-3.462-7.719-7.718-7.719s-7.718,3.462-7.718,7.719v136.054c0,4.257,3.462,7.72,7.718,7.72h155.492
	c4.256,0,7.719-3.463,7.719-7.72C185.451,164.536,181.988,161.074,177.732,161.074z"/>
</svg>
