<?xml version="1.0" encoding="utf-8"?>
<!-- Generator: Adobe Illustrator 17.0.0, SVG Export Plug-In . SVG Version: 6.00 Build 0)  -->
<!DOCTYPE svg PUBLIC "-//W3C//DTD SVG 1.1//EN" "http://www.w3.org/Graphics/SVG/1.1/DTD/svg11.dtd">
<svg version="1.1" id="图层_1" xmlns="http://www.w3.org/2000/svg" xmlns:xlink="http://www.w3.org/1999/xlink" x="0px" y="0px"
	 width="200px" height="200px" viewBox="0 0 200 200" enable-background="new 0 0 200 200" xml:space="preserve">
<g>
	<g transform="scale(0.1953125, 0.1953125)">
		<path fill="#B7B7B7" d="M142.868,527.604h526.171v105.922H142.868V527.604L142.868,527.604z M142.868,690.543h420.863v105.922
			H142.868V690.543L142.868,690.543z M945.19,669.776v158.556c0,21.832-17.695,39.608-39.362,39.608l-787.659,0
			c-21.75,0-39.362-17.777-39.362-39.608V669.776l-78.807,0v158.556c0,65.659,52.961,118.866,118.169,118.866h787.659
			c65.208,0,118.169-53.207,118.169-118.866V669.776H945.19L945.19,669.776z M505.773,470.097h-56.607l-40.427-109.24l-165.232,0
			l-38.175,109.24l-56.525,0L299.826,70.82h54.804L505.773,470.097L505.773,470.097z M392.805,315.719L332.922,149.79
			c-1.925-5.366-3.973-14.623-6.103-27.853h-1.311c-1.925,12.042-3.973,21.299-6.39,27.853l-59.433,165.929H392.805L392.805,315.719
			z M563.076,470.097V70.902H676.33c60.088,0,110.1,17.613,149.913,52.797c39.936,35.226,59.801,82.493,59.801,141.844
			c0,61.849-19.866,111.37-59.801,148.725c-39.936,37.274-91.218,55.828-154.05,55.828H563.076L563.076,470.097z M614.316,116.777
			v307.773h57.59c50.34,0,89.62-13.844,117.964-41.533c28.18-27.648,42.353-66.396,42.353-116.244
			c0-49.807-14.5-87.286-43.54-112.394c-29.041-25.027-67.174-37.601-114.483-37.601H614.316L614.316,116.777z"/>
	</g>
</g>
</svg>
