<?xml version="1.0" encoding="utf-8"?>
<!-- Generator: Adobe Illustrator 16.0.0, SVG Export Plug-In . SVG Version: 6.00 Build 0)  -->
<!DOCTYPE svg PUBLIC "-//W3C//DTD SVG 1.1//EN" "http://www.w3.org/Graphics/SVG/1.1/DTD/svg11.dtd">
<svg version="1.1" id="图层_1" xmlns="http://www.w3.org/2000/svg" xmlns:xlink="http://www.w3.org/1999/xlink" x="0px" y="0px"
	 width="200px" height="200px" viewBox="0 0 200 200" enable-background="new 0 0 200 200" xml:space="preserve">
<g>
	<g transform="scale(0.1953125, 0.1953125)">
		<path fill="#B7B7B7" d="M260.614,1.133c49.77,0,99.537,0.172,149.31-0.065c28.018-0.135,51.722,9.42,74.55,25.865
			c21.93,15.8,40.125,35.013,58.925,53.772c148.33,148.022,296.455,296.254,444.619,444.449c34.3,34.31,43.27,85.445,21.66,128.235
			c-5.165,10.23-12.205,20.07-20.29,28.19c-102.12,102.63-204.519,204.989-306.999,307.264
			c-42.315,42.235-112.245,42.515-154.5,0.335C367.644,829.188,207.372,669.219,47.77,508.584
			c-19.44-19.565-36.772-42.05-42.85-70.412c-1.68-7.845-2.635-16.008-2.647-24.03C2.1,311.272,2.077,208.4,2.19,105.53
			C2.257,47.4,46.737,1.958,104.877,1.31c51.905-0.577,103.822-0.125,155.732-0.125C260.614,1.168,260.614,1.148,260.614,1.133
			L260.614,1.133z M260.419,70.16h-21.427c-43.807,0-87.622-0.105-131.429,0.052c-21.8,0.078-36.558,14.265-36.583,35.303
			c-0.105,102.857-0.115,205.714,0.133,308.567c0.015,5.71,1.315,12.262,4.32,16.95c7.135,11.125,14.518,22.495,23.782,31.787
			c158.01,158.479,316.324,316.659,474.574,474.899c18.78,18.78,43.645,18.705,62.52-0.17
			c100.51-100.5,200.74-201.3,301.799-301.254c17.32-17.135,17.32-46.925,0.075-64.045
			C806.373,441.424,675.553,309.6,543.749,178.767c-33.16-32.92-63.212-69.142-101.62-96.77c-10.24-7.37-19.895-11.995-32.43-11.938
			C359.941,70.297,310.182,70.16,260.419,70.16L260.419,70.16z M277.442,414.797c-76.152-0.255-138.07-62.49-137.725-138.437
			c0.338-75.88,62.182-137.297,138.105-137.157c76.705,0.143,137.892,61.965,137.54,138.962
			C415.014,353.437,352.822,415.042,277.442,414.797L277.442,414.797z M277.422,345.654c38.065,0.118,69.137-30.757,69.175-68.732
			c0.038-37.62-30.815-68.675-68.392-68.834c-38.18-0.167-69.162,30.315-69.532,68.415
			C208.299,314.287,239.367,345.534,277.422,345.654L277.422,345.654z"/>
	</g>
</g>
</svg>
