<?xml version="1.0" encoding="utf-8"?>
<!-- Generator: Adobe Illustrator 17.0.0, SVG Export Plug-In . SVG Version: 6.00 Build 0)  -->
<!DOCTYPE svg PUBLIC "-//W3C//DTD SVG 1.1//EN" "http://www.w3.org/Graphics/SVG/1.1/DTD/svg11.dtd">
<svg version="1.1" id="图层_1" xmlns="http://www.w3.org/2000/svg" xmlns:xlink="http://www.w3.org/1999/xlink" x="0px" y="0px"
	 width="200px" height="200px" viewBox="0 0 200 200" enable-background="new 0 0 200 200" xml:space="preserve">
<g>
	<g transform="scale(0.1953125, 0.1953125)">
		<path fill="#B7B7B7" stroke="#B7B7B7" stroke-width="16" stroke-miterlimit="10" d="M512.002,912.956
			c-63.202,0-124.808-11.459-183.33-34.112L102.528,980.628c-3.05,1.404-6.275,2.082-9.549,2.082c-5.323,0-10.61-1.859-14.891-5.41
			c-6.814-5.74-9.83-14.836-7.733-23.434l55.47-226.15C73.546,658.19,46.051,577.465,46.051,493.602
			c0-231.243,209.054-419.354,465.951-419.354c256.912,0,465.945,188.114,465.945,419.354
			C977.948,724.81,768.915,912.956,512.002,912.956L512.002,912.956z M512.002,120.841c-231.24,0-419.354,167.225-419.354,372.761
			c0,77.001,26.54,151.069,76.721,214.322c4.456,5.6,6.1,13.015,4.369,20.019l-46.734,190.613l191.529-86.308
			c5.771-2.602,12.513-2.689,18.374-0.282c55.694,22.799,114.633,34.394,175.096,34.394c231.256,0,419.354-167.212,419.354-372.758
			C931.357,288.069,743.259,120.841,512.002,120.841L512.002,120.841z M348.972,446.971c-12.88,0-23.349-10.47-23.349-23.347
			c0-12.88,10.47-23.246,23.349-23.246c12.793,0,23.244,10.368,23.244,23.246C372.216,436.5,361.766,446.971,348.972,446.971
			L348.972,446.971z M675.137,446.971c-12.88,0-23.352-10.47-23.352-23.347c0-12.88,10.473-23.246,23.352-23.246
			c12.793,0,23.244,10.368,23.244,23.246C698.381,436.5,687.93,446.971,675.137,446.971L675.137,446.971z M348.972,470.217
			c-25.759,0-46.596-20.835-46.596-46.594s20.837-46.596,46.596-46.596c25.672,0,46.594,20.837,46.594,46.596
			C395.566,449.383,374.642,470.217,348.972,470.217L348.972,470.217z M675.137,470.217c-25.759,0-46.595-20.835-46.595-46.594
			s20.837-46.596,46.595-46.596c25.672,0,46.596,20.837,46.596,46.596C721.733,449.383,700.809,470.217,675.137,470.217
			L675.137,470.217z"/>
	</g>
</g>
</svg>
