<?xml version="1.0" encoding="utf-8"?>
<!-- Generator: Adobe Illustrator 17.0.0, SVG Export Plug-In . SVG Version: 6.00 Build 0)  -->
<!DOCTYPE svg PUBLIC "-//W3C//DTD SVG 1.1//EN" "http://www.w3.org/Graphics/SVG/1.1/DTD/svg11.dtd">
<svg version="1.1" id="图层_1" xmlns="http://www.w3.org/2000/svg" xmlns:xlink="http://www.w3.org/1999/xlink" x="0px" y="0px"
	 width="200px" height="200px" viewBox="0 0 200 200" enable-background="new 0 0 200 200" xml:space="preserve">
<g>
	<g transform="scale(0.1953125, 0.1953125)">
		<path fill="#B7B7B7" d="M967.68,883.611H66.599c-31.087,0-56.318-25.23-56.318-56.318V714.658v-28.159v-28.159l0,0
			c0-15.544,12.615-28.159,28.159-28.159l0,0c0-1.323-0.591-2.478-0.76-3.745c48.884-12.277,85.237-56.177,85.237-108.89
			c0-52.713-36.353-96.585-85.237-108.89c0.169-1.267,0.76-2.422,0.76-3.745c-15.544,0-28.159-12.615-28.159-28.159v-28.159v-28.159
			l0-112.635c0-31.115,25.23-56.318,56.318-56.318H967.68c31.087,0,56.318,25.202,56.318,56.318v112.635v28.159v28.159l0,0
			c0,15.544-12.587,28.159-28.159,28.159c0,1.323,0.591,2.478,0.76,3.745c-48.884,12.305-85.237,56.177-85.237,108.89
			c0,52.713,36.353,96.613,85.237,108.89c-0.169,1.267-0.76,2.422-0.76,3.745c15.544,0,28.159,12.615,28.159,28.159l0,0v28.159
			v28.159v112.635C1023.997,858.38,998.767,883.611,967.68,883.611L967.68,883.611z M967.68,676.672
			c-65.582-23.203-112.635-85.603-112.635-159.125s47.053-135.922,112.635-159.125V235.959c0-15.544-12.615-28.159-28.159-28.159
			H94.758c-15.544,0-28.159,12.615-28.159,28.159v122.462c65.582,23.231,112.635,85.603,112.635,159.125
			S132.181,653.469,66.599,676.672l0,0v122.462c0,15.572,12.615,28.159,28.159,28.159h844.763c15.544,0,28.159-12.587,28.159-28.159
			V676.672L967.68,676.672z M643.854,630.182h-98.556v70.397c0,7.772-6.307,14.079-14.079,14.079H503.06
			c-7.772,0-14.079-6.308-14.079-14.079v-70.397h-98.556c-7.772,0-14.079-6.308-14.079-14.079v-28.159
			c0-7.772,6.308-14.079,14.079-14.079l98.556,0v-56.318h-98.556c-7.772,0-14.079-6.308-14.079-14.079v-28.159
			c0-7.772,6.308-14.079,14.079-14.079h77.606l-86.729-94.867c-4.956-5.406-4.956-14.192,0-19.599l17.909-19.598
			c4.956-5.406,12.981-5.406,17.937,0l99.26,108.552L616.821,325.87c4.984-5.463,13.066-5.463,18.078,0l18.078,19.739
			c4.984,5.463,4.984,14.305,0,19.767l-87.63,95.852h78.507c7.772,0,14.079,6.308,14.079,14.079v28.159
			c0,7.772-6.308,14.079-14.079,14.079h-98.556v56.318h98.556c7.772,0,14.079,6.308,14.079,14.079v28.159
			C657.933,623.874,651.626,630.182,643.854,630.182L643.854,630.182z"/>
	</g>
</g>
</svg>
