<?xml version="1.0" encoding="utf-8"?>
<!-- Generator: Adobe Illustrator 16.0.0, SVG Export Plug-In . SVG Version: 6.00 Build 0)  -->
<!DOCTYPE svg PUBLIC "-//W3C//DTD SVG 1.1//EN" "http://www.w3.org/Graphics/SVG/1.1/DTD/svg11.dtd">
<svg version="1.1" id="图层_1" xmlns="http://www.w3.org/2000/svg" xmlns:xlink="http://www.w3.org/1999/xlink" x="0px" y="0px"
	 width="213.867px" height="200px" viewBox="0 0 213.867 200" enable-background="new 0 0 213.867 200" xml:space="preserve">
<g>
	<g transform="scale(0.1953125, 0.1953125)">
		<path fill="#B7B7B7" d="M549.531,3.94c144.037,0,288.067-0.05,432.107,0.03c50.65,0.03,92.445,29.415,106.91,75.782
			c3.31,10.61,5.23,22.12,5.25,33.22c0.305,205.762,0.3,411.526,0.17,617.296c-0.04,59.68-47.33,107.55-107.02,109.01
			c-1.76,0.05-3.51,0.03-5.27,0.03c-288.319,0-576.641,0.02-864.963-0.01c-53.437,0-96.902-33.38-108.875-84.08
			c-2.163-9.165-2.86-18.86-2.865-28.32C4.82,523.409,4.84,319.915,4.865,116.425C4.875,51.215,51.967,4.03,117.425,3.975
			C261.459,3.865,405.494,3.94,549.531,3.94L549.531,3.94z M77.387,584.459h944.115v-8.75c0-152.577,0.005-305.152-0.005-457.734
			c0-26.843-14.505-41.36-41.4-41.36c-287.089-0.01-574.179-0.01-861.268,0c-27.143,0-41.427,14.195-41.433,41.18
			c-0.015,152.832-0.005,305.659-0.005,458.494C77.387,578.969,77.387,581.649,77.387,584.459L77.387,584.459z M77.612,657.979
			c0,26.05-0.593,51.395,0.218,76.7c0.5,15.73,14.185,29.01,29.92,31.24c4.202,0.59,8.5,0.705,12.755,0.705
			c285.832,0.03,571.664,0.03,857.498,0.025c2.51,0,5.025,0.065,7.53-0.08c21.375-1.24,35.75-16.14,35.93-37.65
			c0.19-22.08,0.05-44.17,0.02-66.25c0-1.44-0.26-2.88-0.435-4.685C706.533,657.979,392.471,657.979,77.612,657.979L77.612,657.979z
			 M549.299,1020.668c-118.96,0-237.917,0.02-356.882-0.05c-5.232-0.01-10.652-0.05-15.657-1.35
			c-17.327-4.475-28.662-21.28-26.675-38.655c2.025-17.645,16.345-31.285,34.16-32.465c2.5-0.16,5.02-0.09,7.53-0.09
			c238.419,0,476.844-0.02,715.263,0.1c5.93,0,12.16,0.535,17.73,2.38c16.75,5.575,26.06,22.06,23.37,39.93
			c-2.5,16.57-16.54,29.13-33.67,30.04c-3.51,0.18-7.025,0.15-10.54,0.15C785.713,1020.668,667.508,1020.668,549.299,1020.668
			L549.299,1020.668z"/>
	</g>
</g>
</svg>
