<?xml version="1.0" encoding="utf-8"?>
<!-- Generator: Adobe Illustrator 17.0.0, SVG Export Plug-In . SVG Version: 6.00 Build 0)  -->
<!DOCTYPE svg PUBLIC "-//W3C//DTD SVG 1.1//EN" "http://www.w3.org/Graphics/SVG/1.1/DTD/svg11.dtd">
<svg version="1.1" id="图层_1" xmlns="http://www.w3.org/2000/svg" xmlns:xlink="http://www.w3.org/1999/xlink" x="0px" y="0px"
	 width="213.867px" height="200px" viewBox="0 0 213.867 200" enable-background="new 0 0 213.867 200" xml:space="preserve">
<g>
	<g transform="scale(0.1953125, 0.1953125)">
		<path fill="#B7B7B7" d="M1003.001,301.236c-25.149-52.959-61.079-100.458-106.796-141.179
			c-45.473-40.503-98.367-72.283-157.212-94.452C678.256,42.723,613.778,31.12,547.357,31.12s-130.9,11.603-191.639,34.486
			c-58.845,22.17-111.739,53.948-157.212,94.452c-45.716,40.721-81.648,88.22-106.796,141.179
			C65.546,356.338,52.28,414.895,52.28,475.279c0,102.012,39.054,200.689,110.307,279.572l-40.799,173.674
			c-0.022,0.099-0.047,0.199-0.068,0.3c-3.762,16.816,1.571,34.491,13.922,46.124c8.662,8.16,19.707,12.495,31.065,12.494
			c4.167,0,8.379-0.583,12.527-1.777c1.249-0.358,2.474-0.801,3.663-1.325l178.942-78.582c14.719-6.465,21.413-23.637,14.948-38.355
			c-6.465-14.719-23.636-21.411-38.355-14.948l-154.955,68.049l39.349-167.5c2.267-9.653-0.533-19.794-7.434-26.914
			c-67.641-69.798-104.893-158.871-104.893-250.81c0-212.809,195.974-385.94,436.86-385.94
			c240.884,0,436.859,173.134,436.859,385.94s-195.974,385.94-436.859,385.94c-31.626,0-63.179-3.001-93.78-8.919
			c-15.786-3.051-31.055,7.269-34.106,23.052c-3.053,15.785,7.269,31.055,23.053,34.106c34.236,6.621,69.507,9.978,104.835,9.978
			c66.422,0,130.9-11.603,191.638-34.486c58.845-22.17,111.739-53.948,157.212-94.452c45.716-40.721,81.647-88.22,106.796-141.179
			c26.165-55.102,39.431-113.659,39.431-174.043c-0.002-60.383-13.268-118.94-39.435-174.042V301.236z M355.001,404.243
			c-34.319,0-62.139,27.821-62.139,62.139c0,34.319,27.821,62.139,62.139,62.139s62.139-27.821,62.139-62.139
			C417.141,432.064,389.32,404.243,355.001,404.243z M609.98,466.383c0-34.318-27.821-62.139-62.139-62.139
			c-34.319,0-62.139,27.821-62.139,62.139c0,34.319,27.821,62.139,62.139,62.139C582.16,528.523,609.98,500.702,609.98,466.383z
			 M802.824,466.383c0-34.318-27.821-62.139-62.139-62.139c-34.318,0-62.139,27.821-62.139,62.139
			c0,34.319,27.821,62.139,62.139,62.139C775.003,528.523,802.824,500.702,802.824,466.383z"/>
	</g>
</g>
</svg>
