<?xml version="1.0" encoding="utf-8"?>
<!-- Generator: Adobe Illustrator 16.0.0, SVG Export Plug-In . SVG Version: 6.00 Build 0)  -->
<!DOCTYPE svg PUBLIC "-//W3C//DTD SVG 1.1//EN" "http://www.w3.org/Graphics/SVG/1.1/DTD/svg11.dtd">
<svg version="1.1" id="图层_1" xmlns="http://www.w3.org/2000/svg" xmlns:xlink="http://www.w3.org/1999/xlink" x="0px" y="0px"
	 width="200px" height="200px" viewBox="0 0 200 200" enable-background="new 0 0 200 200" xml:space="preserve">
<g>
	<g transform="scale(0.1953125, 0.1953125)">
		<path fill="#B7B7B7" d="M537.884,2.985c69.79,1.432,150.85,23.617,226.304,66.252c13.035,7.365,19.165,20.052,16.68,33.597
			c-2.555,13.975-12.695,23.917-26.895,26.167c-8.21,1.3-15.575-1.263-22.625-5.26c-41.38-23.475-85.45-39.722-132.055-49.14
			c-198.385-40.085-401.979,62.472-488.411,245.992c-34.98,74.27-48.392,152.375-40.715,233.955
			C88.6,750.438,236.164,911.728,430.069,948.468c235.919,44.7,464.624-104.95,517.234-339.524
			c24.365-108.635,9.16-212.477-43.755-310.587c-5.06-9.375-10.26-18.502-7.805-29.785c2.945-13.51,13.265-23.213,27.075-25.335
			c12.44-1.915,25.15,4.44,32,16.387c18.72,32.685,33.61,67.045,44.61,103.072c86.23,282.412-84.649,578.171-372.339,644.481
			c-271.569,62.59-544.654-106.96-608.763-377.959C-45.825,358.047,118.467,86.79,388.546,17.948
			C430.641,7.213,473.504,2.313,537.884,2.985L537.884,2.985z M481.006,574.959v-63.697h-7.902c-38.89,0-77.785,0.083-116.675-0.035
			c-21.52-0.067-35.685-15.255-33.627-35.665c1.643-16.287,15.355-27.9,33.532-27.965c34.275-0.118,68.555-0.035,102.83-0.04h8.948
			c-2.438-2.635-3.873-4.298-5.423-5.85c-43.025-43.045-86.09-86.06-129.085-129.137c-11.82-11.842-14.065-27.195-6.167-40.217
			c9.823-16.2,31.35-20.34,46.427-8.842c2.43,1.855,4.61,4.067,6.782,6.237c42.427,42.4,84.855,84.807,127.2,127.292
			c1.672,1.678,2.527,4.18,3.765,6.298c0.923-0.272,1.843-0.55,2.765-0.823c1.462-1.933,2.707-4.072,4.402-5.77
			c42.85-42.92,85.79-85.74,128.57-128.72c9.15-9.195,19.75-13.15,32.31-9.962c24,6.09,31.735,35.337,14.17,53.415
			c-12.86,13.235-26.06,26.14-39.11,39.192c-30.14,30.142-60.27,60.297-90.46,90.392c-1.675,1.67-3.865,2.83-5.815,4.228
			c0.375,0.758,0.745,1.512,1.12,2.268h6.735c34.49,0,68.99-0.07,103.49,0.032c17.62,0.052,30.045,9.782,33.47,25.792
			c3.625,16.948-8.13,34.367-25.215,37.167c-3.445,0.563-6.995,0.673-10.495,0.677c-38.015,0.043-76.03,0.03-114.04,0.03h-8.215
			v63.692h8.06c39.77,0.01,79.545-0.095,119.315,0.07c15.16,0.06,27.2,10.27,30.49,25.14c3.12,14.06-3.935,29.05-17.305,34.905
			c-4.855,2.125-10.575,3.165-15.91,3.2c-39.105,0.255-78.215,0.14-117.335,0.14h-7.745v8.455c-0.005,39.55,0.07,79.1-0.055,118.65
			c-0.04,13.645-6.59,23.665-18.98,29.09c-11.847,5.18-23.315,3.4-33.3-4.965c-8.095-6.785-11.272-15.86-11.255-26.325
			c0.075-38.89,0.03-77.78,0.03-116.67v-8.23h-7.192c-39.99-0.005-79.982,0.07-119.972-0.05c-13.715-0.05-25.31-8.46-29.795-20.99
			c-4.412-12.31-0.797-26.22,9.135-34.785c6.453-5.565,14.012-7.705,22.502-7.675c39.11,0.12,78.225,0.05,117.332,0.05
			C475.671,574.959,478.044,574.959,481.006,574.959L481.006,574.959z"/>
	</g>
</g>
</svg>
