<?xml version="1.0" encoding="utf-8"?>
<!-- Generator: Adobe Illustrator 17.0.0, SVG Export Plug-In . SVG Version: 6.00 Build 0)  -->
<!DOCTYPE svg PUBLIC "-//W3C//DTD SVG 1.1//EN" "http://www.w3.org/Graphics/SVG/1.1/DTD/svg11.dtd">
<svg version="1.1" id="图层_1" xmlns="http://www.w3.org/2000/svg" xmlns:xlink="http://www.w3.org/1999/xlink" x="0px" y="0px"
	 width="200px" height="200px" viewBox="0 0 200 200" enable-background="new 0 0 200 200" xml:space="preserve">
<g>
	<g transform="scale(0.1953125, 0.1953125)">
		<path fill="#B7B7B7" d="M843.518,55.04h-60.16c-16.64,0-35.84,10.24-35.84,26.88s19.2,33.28,35.84,33.28h60.16
			c35.84,0,60.16,24.32,60.16,60.16v692.478c0,35.84-24.32,60.16-60.16,60.16l-647.678,0c-35.84,0-75.52-24.32-75.52-60.16V175.36
			c0-35.84,24.32-60.16,60.16-60.16l75.52,0c16.64,0,23.04-16.64,23.04-33.28s-6.4-26.88-23.04-26.88h-75.52
			c-84.48,0-120.32,52.48-120.32,121.6v684.798c0,74.24,44.8,126.72,126.72,126.72h650.238c81.92,0,126.72-43.52,126.72-126.72
			l0-684.798C963.838,107.52,921.598,55.04,843.518,55.04z M255.999,326.399c0,16.64,14.08,30.72,30.72,30.72h451.839
			c16.64,0,30.72-14.08,30.72-30.72c0-16.64-14.08-30.72-30.72-30.72H286.719C270.079,295.679,255.999,309.759,255.999,326.399z
			 M737.278,462.079H286.719c-16.64,0-30.72,14.08-30.72,30.72c0,16.64,14.08,30.72,30.72,30.72h451.839
			c16.64,0,30.72-14.08,30.72-30.72C767.998,474.879,753.918,462.079,737.278,462.079z M737.278,642.558H286.719
			c-16.64,0-30.72,14.08-30.72,30.72s14.08,30.72,30.72,30.72h451.839c16.64,0,30.72-14.08,30.72-30.72
			C767.998,655.358,753.918,642.558,737.278,642.558z M408.319,130.56h209.919c24.32,0,44.8-24.32,44.8-52.48
			s-20.48-52.48-46.08-52.48l-208.639,0c-25.6,0-46.08,24.32-46.08,52.48S382.719,130.56,408.319,130.56z"/>
	</g>
</g>
</svg>
