<?xml version="1.0" encoding="utf-8"?>
<!-- Generator: Adobe Illustrator 16.0.0, SVG Export Plug-In . SVG Version: 6.00 Build 0)  -->
<!DOCTYPE svg PUBLIC "-//W3C//DTD SVG 1.1//EN" "http://www.w3.org/Graphics/SVG/1.1/DTD/svg11.dtd">
<svg version="1.1" id="图层_1" xmlns="http://www.w3.org/2000/svg" xmlns:xlink="http://www.w3.org/1999/xlink" x="0px" y="0px"
	 width="200px" height="200px" viewBox="0 0 200 200" enable-background="new 0 0 200 200" xml:space="preserve">
<g>
	<g transform="scale(0.1953125, 0.1953125)">
		<path fill="#272636" stroke="#272636" stroke-width="4" stroke-miterlimit="10" d="M512.004,866.643
			c-58.297,0-115.122-10.57-169.102-31.465l-208.594,93.885c-2.813,1.295-5.788,1.92-8.808,1.92c-4.91,0-9.787-1.715-13.735-4.99
			c-6.285-5.295-9.067-13.685-7.133-21.615l51.165-208.599c-48.222-64.13-73.583-138.59-73.583-215.945
			c0-213.297,192.83-386.809,429.789-386.809c236.974,0,429.784,173.515,429.784,386.809
			C941.788,693.098,748.978,866.643,512.004,866.643L512.004,866.643z M512.004,136.002c-213.294,0-386.809,154.247-386.809,343.832
			c0,71.025,24.48,139.345,70.767,197.689c4.11,5.165,5.627,12.005,4.03,18.465l-43.107,175.82l176.665-79.61
			c5.323-2.4,11.542-2.48,16.948-0.26c51.372,21.03,105.737,31.725,161.507,31.725c213.309,0,386.809-154.235,386.809-343.829
			C898.813,290.252,725.313,136.002,512.004,136.002L512.004,136.002z M361.626,436.822c-11.88,0-21.537-9.657-21.537-21.535
			c0-11.88,9.657-21.442,21.537-21.442c11.8,0,21.44,9.563,21.44,21.442C383.066,427.164,373.427,436.822,361.626,436.822
			L361.626,436.822z M662.478,436.822c-11.88,0-21.54-9.657-21.54-21.535c0-11.88,9.66-21.442,21.54-21.442
			c11.8,0,21.44,9.563,21.44,21.442C683.918,427.164,674.278,436.822,662.478,436.822L662.478,436.822z M361.626,458.264
			c-23.76,0-42.98-19.218-42.98-42.978c0-23.76,19.22-42.98,42.98-42.98c23.68,0,42.978,19.22,42.978,42.98
			C404.604,439.047,385.304,458.264,361.626,458.264L361.626,458.264z M662.478,458.264c-23.76,0-42.979-19.218-42.979-42.978
			c0-23.76,19.22-42.98,42.979-42.98c23.68,0,42.98,19.22,42.98,42.98C705.458,439.047,686.158,458.264,662.478,458.264
			L662.478,458.264z"/>
	</g>
</g>
</svg>
