<?xml version="1.0" encoding="utf-8"?>
<!-- Generator: Adobe Illustrator 16.0.0, SVG Export Plug-In . SVG Version: 6.00 Build 0)  -->
<!DOCTYPE svg PUBLIC "-//W3C//DTD SVG 1.1//EN" "http://www.w3.org/Graphics/SVG/1.1/DTD/svg11.dtd">
<svg version="1.1" id="图层_1" xmlns="http://www.w3.org/2000/svg" xmlns:xlink="http://www.w3.org/1999/xlink" x="0px" y="0px"
	 width="200px" height="200px" viewBox="0 0 200 200" enable-background="new 0 0 200 200" xml:space="preserve">
<rect x="71.625" y="82.914" fill="#272636" width="56.75" height="13"/>
<path fill="#272636" d="M173.729,130.641c-2.484-4.142-3.727-6.23-4.309-7.36c-1.003,0.212-2.848,0.52-5.064,0.52
	c-5.001,0-13.636-1.668-16.158-12.655h-8.627c-0.769,2.977-4.17,12.868-15.421,12.869c-1.803,0-3.743-0.259-5.778-0.771
	c-2.699,4.498-3.954,6.588-4.557,7.578c1.66,1.393,5.54,5.201,5.934,10.625c0.318,4.392-1.692,8.776-5.98,13.044l4.642,7.632
	c3.356-1.124,16.176-4.15,21.034,11.878h8.826c0.826-2.936,4.43-12.823,15.482-12.823c1.759,0,3.645,0.255,5.613,0.758
	c2.54-4.335,3.718-6.333,4.28-7.271c-1.559-1.557-5.493-6.064-5.589-12.003C167.989,138.416,169.897,134.375,173.729,130.641z
	 M143.669,155.512c-7.136,0-12.94-5.805-12.94-12.94s5.805-12.941,12.94-12.941s12.94,5.806,12.94,12.941
	S150.805,155.512,143.669,155.512z"/>
<path fill="#272636" d="M150,26H50c-6.341,0-11.5,5.159-11.5,11.5v125c0,6.341,5.159,11.5,11.5,11.5h56.5v-12.926H59.951
	c-6.072,0-11.012-4.94-11.012-11.014V49.939c0-6.072,4.94-11.013,11.012-11.013h80.098c6.072,0,11.012,4.94,11.012,11.013v52.186
	H161.5V37.5C161.5,31.159,156.341,26,150,26z"/>
<rect x="71.625" y="107.914" fill="#272636" width="31.594" height="13"/>
<rect x="71.625" y="57.914" fill="#272636" width="56.75" height="13"/>
</svg>
