<?xml version="1.0" encoding="utf-8"?>
<!-- Generator: Adobe Illustrator 16.0.0, SVG Export Plug-In . SVG Version: 6.00 Build 0)  -->
<!DOCTYPE svg PUBLIC "-//W3C//DTD SVG 1.1//EN" "http://www.w3.org/Graphics/SVG/1.1/DTD/svg11.dtd">
<svg version="1.1" id="图层_1" xmlns="http://www.w3.org/2000/svg" xmlns:xlink="http://www.w3.org/1999/xlink" x="0px" y="0px"
	 width="200px" height="200px" viewBox="0 0 200 200" enable-background="new 0 0 200 200" xml:space="preserve">
<g>
	<g transform="scale(0.1953125, 0.1953125)">
		<path fill="#272636" d="M972.797,89.6c-19.2-6.4-51.2,6.4-51.2,6.4L51.2,524.799c0,0-19.2,12.8-19.2,25.6c0,19.2,19.2,32,19.2,32
			l313.599,96l19.2-57.6l-236.8-70.4L870.398,192L447.999,703.999v255.999h64V723.198l313.599,108.8c0,0,19.2,6.4,32,0l0,0
			c12.8-6.4,19.2-25.6,19.2-25.6s121.6-665.598,121.6-671.998C998.397,115.2,991.998,96,972.797,89.6z M819.198,761.598l-262.399-96
			l358.399-435.199L819.198,761.598z"/>
	</g>
</g>
</svg>
