<?xml version="1.0" encoding="utf-8"?>
<!-- Generator: Adobe Illustrator 16.0.0, SVG Export Plug-In . SVG Version: 6.00 Build 0)  -->
<!DOCTYPE svg PUBLIC "-//W3C//DTD SVG 1.1//EN" "http://www.w3.org/Graphics/SVG/1.1/DTD/svg11.dtd">
<svg version="1.1" id="图层_1" xmlns="http://www.w3.org/2000/svg" xmlns:xlink="http://www.w3.org/1999/xlink" x="0px" y="0px"
	 width="200px" height="200px" viewBox="0 0 200 200" enable-background="new 0 0 200 200" xml:space="preserve">
<g>
	<g transform="scale(0.1953125, 0.1953125)">
		<path fill="#272636" d="M934.922,412.484c24.205-16.065,24.875-28.35,24.875-49.755c0-29.042,0-149.262,0-149.262
			c0-41.22-33.41-74.635-74.63-74.635H138.83c-41.218,0-74.635,33.415-74.635,74.635c0,0,0,137.399,0,149.262
			c0,22.295,1.552,37.167,24.88,49.755c33.987,15.828,74.632,47.807,74.632,99.517c0,67.107-42.182,88.937-73.167,99.402
			c-21.808,13.645-26.345,36.125-26.345,49.86c0,11.845,0,149.264,0,149.264c0,41.23,33.415,74.64,74.635,74.64h746.338
			c41.215,0,74.63-33.41,74.63-74.64c0,0,0-99.505,0-149.264c0-27.175-6.24-35.785-24.875-49.755
			c-54.34-28.01-74.635-52.95-74.635-99.512C860.288,465.434,879.298,442.264,934.922,412.484z M910.048,652.129v133.53
			c0,27.475-22.28,49.76-49.76,49.76H163.707c-27.48,0-49.757-22.28-49.757-49.76v-133.53c57.847-20.56,99.515-75.23,99.515-140.127
			c0-64.902-41.667-119.567-99.515-140.127v-133.53c0-27.48,22.277-49.757,49.757-49.757h696.581c27.48,0,49.76,22.275,49.76,49.757
			v133.53c-57.845,20.557-99.515,75.225-99.515,140.127C810.533,576.899,852.203,631.569,910.048,652.129z M648.828,462.241h-93.92
			l101.95-109.537c4.41-4.817,4.41-12.632,0-17.455l-15.96-17.455c-4.405-4.822-11.545-4.822-15.95,0l-113.07,121.475
			l-113.11-121.515c-4.372-4.782-11.465-4.782-15.832,0l-15.833,17.32c-4.373,4.783-4.373,12.535,0,17.315l102.255,109.852h-94.19
			c-6.87,0-12.438,5.573-12.438,12.438v24.883c0,6.872,5.568,12.44,12.438,12.44h111.952v49.757H375.169
			c-6.87,0-12.438,5.57-12.438,12.44v24.88c0,6.86,5.568,12.435,12.438,12.435h111.952v87.075c0,6.865,5.568,12.44,12.438,12.44
			h24.88c6.87,0,12.44-5.575,12.44-12.44v-87.075h111.949c6.87,0,12.44-5.575,12.44-12.435v-24.88c0-6.87-5.57-12.44-12.44-12.44
			H536.879v-49.757h111.949c6.87,0,12.44-5.568,12.44-12.44v-24.883C661.268,467.812,655.698,462.241,648.828,462.241z"/>
	</g>
</g>
</svg>
