<?xml version="1.0" encoding="utf-8"?>
<!-- Generator: Adobe Illustrator 16.0.0, SVG Export Plug-In . SVG Version: 6.00 Build 0)  -->
<!DOCTYPE svg PUBLIC "-//W3C//DTD SVG 1.1//EN" "http://www.w3.org/Graphics/SVG/1.1/DTD/svg11.dtd">
<svg version="1.1" id="图层_1" xmlns="http://www.w3.org/2000/svg" xmlns:xlink="http://www.w3.org/1999/xlink" x="0px" y="0px"
	 width="200px" height="200px" viewBox="0 0 200 200" enable-background="new 0 0 200 200" xml:space="preserve">
<g>
	<g transform="scale(0.1953125, 0.1953125)">
		<path fill="#272636" d="M968.897,351.799l-57.5-52.2c-31-28.1-71.1-43.6-112.899-43.6h-158.5v-80.5c0-62-50.5-112.5-112.5-112.5
			H112.5C50.5,63,0,113.5,0,175.5v720.498h128c0,70.6,57.4,128,128,128s128-57.4,128-128h192h64c0,70.6,57.399,128,128,128
			c70.6,0,128-57.4,128-128h128V476.199C1023.998,428.899,1003.897,383.599,968.897,351.799z M925.897,399.199
			c21.7,19.7,34.1,47.7,34.1,77v99.8h-128V325.5c13.3,4.5,25.7,11.8,36.4,21.5L925.897,399.199z M255.999,959.998
			c-35.3,0-64-28.7-64-64c0-35.3,28.7-64,64-64s64,28.7,64,64C319.999,931.298,291.299,959.998,255.999,959.998z M575.999,831.998
			H366.799c-22.2-38.2-63.5-64-110.8-64s-88.7,25.8-110.8,64H64V175.5c0-26.7,21.8-48.5,48.5-48.5h414.999
			c26.7,0,48.5,21.8,48.5,48.5V256V831.998z M767.998,959.998c-35.3,0-64-28.7-64-64c0-35.3,28.7-64,64-64s64,28.7,64,64
			C831.998,931.298,803.298,959.998,767.998,959.998z M878.798,831.998c-22.2-38.2-63.5-64-110.8-64s-88.7,25.8-110.8,64h-17.2V320
			h128v319.999h192v192H878.798z"/>
	</g>
</g>
</svg>
