<?xml version="1.0" encoding="utf-8"?>
<!-- Generator: Adobe Illustrator 16.0.0, SVG Export Plug-In . SVG Version: 6.00 Build 0)  -->
<!DOCTYPE svg PUBLIC "-//W3C//DTD SVG 1.1//EN" "http://www.w3.org/Graphics/SVG/1.1/DTD/svg11.dtd">
<svg version="1.1" id="图层_1" xmlns="http://www.w3.org/2000/svg" xmlns:xlink="http://www.w3.org/1999/xlink" x="0px" y="0px"
	 width="200px" height="200px" viewBox="0 0 200 200" enable-background="new 0 0 200 200" xml:space="preserve">
<g>
	<g transform="scale(0.1953125, 0.1953125)">
		<path fill="#272636" d="M300.379,714.048c0,32.76-16.4,49.16-49.167,49.16h-167.8c-31.862,0-47.792-16.4-47.792-49.16V274.622
			c0-33.018,15.93-49.527,47.792-49.527h167.8c32.768,0,49.167,16.545,49.167,49.527v125.86h-80.125v-106.28H116.07v399.936h104.185
			v-113.18h80.125V714.048z M688.938,763.208h-77.34V497.729c0-14.015,1.585-33.452,4.8-58.45l-69.43,274.729h-40.93
			l-69.795-274.729c3.18,25.433,4.805,44.94,4.805,58.45v265.479h-77.38V225.057h76.007l84.572,297.452
			c0.9,3.22,1.585,11.345,2.055,24.39c0-5.675,0.685-13.84,2.06-24.39l84.605-297.452h76.01v538.151H688.938z M1011.137,714.048
			c0,32.76-16.29,49.16-48.84,49.16h-161.95c-32.33,0-48.479-16.4-48.479-49.16v-128.28h80.45v109.71h98.37v-105.56l-161.26-152.662
			c-11.67-11.27-17.52-25.577-17.52-42.99l-0.005-119.645c0-33.018,16.15-49.527,48.48-49.527h161.95
			c32.545,0,48.84,16.292,48.84,48.84v120.37h-80.485V292.792h-98.37v97.322l161.26,151.975c11.71,11.02,17.56,25.58,17.56,43.68
			V714.048z"/>
	</g>
</g>
</svg>
