<?xml version="1.0" encoding="utf-8"?>
<!-- Generator: Adobe Illustrator 16.0.0, SVG Export Plug-In . SVG Version: 6.00 Build 0)  -->
<!DOCTYPE svg PUBLIC "-//W3C//DTD SVG 1.1//EN" "http://www.w3.org/Graphics/SVG/1.1/DTD/svg11.dtd">
<svg version="1.1" id="图层_1" xmlns="http://www.w3.org/2000/svg" xmlns:xlink="http://www.w3.org/1999/xlink" x="0px" y="0px"
	 width="200px" height="200px" viewBox="0 0 200 200" enable-background="new 0 0 200 200" xml:space="preserve">
<g>
	<g transform="scale(0.1953125, 0.1953125)">
		<path fill="#272636" d="M511.999,127.167l-62.912,1.6C232.959,144.607,61.887,324.607,61.887,544.799
			c0,230.625,186.657,417.569,417.312,417.569c220.225,0,399.999-171.459,415.934-387.584l1.375-62.785H511.999V127.167z
			 M833.023,575.999c-15.65,192-168.095,324.669-354.112,324.669c-196.447,0-355.744-159.36-355.744-355.804
			c0-186.017,132.832-338.562,324.832-354.242v385.377H833.023z M543.999,65.343v414.656h414.369
			C958.368,256,767.998,65.343,543.999,65.343z M607.998,131.873c32,4.575,49.44,12.19,74.4,22.75
			c42.43,17.92,79.04,43.617,111.775,76.354c32.735,32.735,57.695,68.03,75.65,110.462c10.56,24.96,17.405,42.56,22.015,74.56
			h-283.84V131.873z"/>
	</g>
</g>
</svg>
