<?xml version="1.0" encoding="utf-8"?>
<!-- Generator: Adobe Illustrator 16.0.0, SVG Export Plug-In . SVG Version: 6.00 Build 0)  -->
<!DOCTYPE svg PUBLIC "-//W3C//DTD SVG 1.1//EN" "http://www.w3.org/Graphics/SVG/1.1/DTD/svg11.dtd">
<svg version="1.1" id="图层_1" xmlns="http://www.w3.org/2000/svg" xmlns:xlink="http://www.w3.org/1999/xlink" x="0px" y="0px"
	 width="200px" height="200px" viewBox="0 0 200 200" enable-background="new 0 0 200 200" xml:space="preserve">
<g>
	<g transform="scale(0.1953125, 0.1953125)">
		<path fill="#272636" d="M512.001,76.127L512.001,76.127c246.502,0,446.326,195.147,446.326,435.872
			c0,240.729-199.825,435.869-446.326,435.869c-246.504,0-446.336-195.14-446.336-435.869
			C65.665,271.274,265.497,76.127,512.001,76.127L512.001,76.127z M512.001,132.045c-101.195,0-196.325,39.393-267.879,109.267
			c-71.55,69.877-120.28,171.885-120.28,270.704c0,98.817,48.73,200.832,120.28,270.702c71.555,69.88,166.685,108.36,267.879,108.36
			c101.187,0,205.647-47.59,277.197-117.46c71.555-69.87,110.96-162.78,110.96-261.602c0-98.82-48.73-191.719-120.28-261.599
			C708.328,180.547,613.188,132.045,512.001,132.045L512.001,132.045z M339.519,413.672c1.157-40.892,3.335-71.99,12.06-93.287
			c8.725-21.297,20.837-40.322,40.03-57.082c19.198-16.745,40.57-29.1,64.125-37.063c23.557-7.948,48.417-11.922,74.59-11.922
			c52.92,0,96.055,17.9,131.25,48.28c32.725,28.267,46.325,70.285,46.325,118.7c0,22.725-3.59,43.317-12.6,61.77
			c-9.025,18.465-21.76,41.465-51.125,69.007c-29.375,27.555-48.855,47.15-58.45,58.785c-9.595,11.65-16.875,25.56-21.805,41.75
			c-4.95,16.185-6.55,16.02-6.55,24.53h-76.772c0-10.785,2.617-16.57,7.855-35.61c5.228-19.02,13.083-35.63,23.555-49.835
			c10.472-14.195,29.363-35.07,56.702-62.62c27.33-27.542,44.93-47.562,52.78-60.062c7.855-12.485,11.78-31.098,11.78-55.802
			c0-24.71-9.02-46.567-27.045-65.603c-18.035-19.02-44.205-28.535-78.515-28.535c-77.357,0-116.03,44.87-116.03,134.602h-72.16
			V413.672L339.519,413.672L339.519,413.672z M558.858,801.318h-80.01v-86.9h80.01V801.318L558.858,801.318L558.858,801.318z"/>
	</g>
</g>
</svg>
