<?xml version="1.0" encoding="utf-8"?>
<!-- Generator: Adobe Illustrator 16.0.0, SVG Export Plug-In . SVG Version: 6.00 Build 0)  -->
<!DOCTYPE svg PUBLIC "-//W3C//DTD SVG 1.1//EN" "http://www.w3.org/Graphics/SVG/1.1/DTD/svg11.dtd">
<svg version="1.1" id="图层_1" xmlns="http://www.w3.org/2000/svg" xmlns:xlink="http://www.w3.org/1999/xlink" x="0px" y="0px"
	 width="77px" height="42px" viewBox="0 0 77 42" enable-background="new 0 0 77 42" xml:space="preserve">
<g>
	<path fill="#CF000E" d="M74.233,27.521c0,2.854-0.013,5.496-0.668,7.539c-0.844,2.633-2.501,4.284-3.933,4.284
		c-1.414,0-2.679-1.032-3.523-3.613c-0.672-2.055-1.076-5.315-1.076-8.21c0-4.081,0.889-7.63,2.027-9.804
		c1.905-3.631,1.646,0.193,3.216,0.955c1.274,0.616,1.979-0.762,2.696,0.81C73.613,20.882,74.233,22.899,74.233,27.521z"/>
	<g>
		<path fill="#FFFFFF" d="M69.004,20.249c-0.174,0.036-0.339,0.068-0.495,0.097v0.949h0.266l0.229-0.272l0.336,0.31
			c0.014,0.011,0.021,0.025,0.021,0.043c0,0.043-0.021,0.063-0.063,0.063h-0.789v0.432c0.252,0.126,0.426,0.23,0.521,0.315
			c0.106,0.1,0.159,0.19,0.159,0.271c0,0.061-0.021,0.118-0.063,0.171c-0.045,0.054-0.087,0.08-0.122,0.08
			c-0.025,0-0.052-0.032-0.079-0.096c-0.097-0.234-0.235-0.434-0.416-0.598V24.5c0,0.061-0.026,0.104-0.081,0.128
			c-0.066,0.039-0.145,0.058-0.235,0.058v-2.634c-0.091,0.252-0.178,0.456-0.261,0.607c-0.199,0.378-0.425,0.707-0.677,0.986
			l-0.043-0.042c0.249-0.395,0.427-0.733,0.534-1.018c0.096-0.222,0.209-0.604,0.341-1.147h-0.373c-0.071,0-0.189,0.015-0.353,0.043
			l-0.086-0.187h0.917v-0.891c-0.305,0.056-0.59,0.104-0.852,0.139l-0.043-0.102c0.731-0.149,1.274-0.338,1.627-0.565l0.308,0.357
			c0,0.025-0.006,0.037-0.021,0.037C69.119,20.257,69.05,20.249,69.004,20.249z M69.318,20.606c0.402,0.292,0.603,0.515,0.603,0.667
			c0,0.047-0.023,0.099-0.069,0.154c-0.057,0.063-0.11,0.096-0.16,0.096c-0.038,0-0.058-0.027-0.058-0.085
			c-0.04-0.295-0.165-0.558-0.379-0.789L69.318,20.606z M71.526,20.17c-0.822,0.089-1.551,0.158-2.187,0.208l-0.042-0.107
			c0.973-0.132,1.695-0.297,2.165-0.496l0.313,0.373c0,0.029-0.007,0.043-0.021,0.043C71.652,20.177,71.576,20.17,71.526,20.17z
			 M70.301,21.854c-0.242,0.082-0.459,0.147-0.652,0.197v0.784h0.294l0.229-0.272l0.341,0.332c0.008,0.013,0.011,0.027,0.011,0.041
			c0,0.029-0.012,0.043-0.037,0.043h-0.838v1.003h1.691v-1.023h-0.358c-0.084,0-0.174,0.007-0.266,0.021l-0.107-0.165h0.731v-0.81
			h-0.315c-0.096,0-0.191,0.004-0.287,0.015l-0.129-0.165h0.71l0.165-0.208l0.293,0.262c0.043,0.024,0.065,0.049,0.065,0.074
			c0,0.011-0.065,0.059-0.193,0.145v2.351c0,0.061-0.023,0.104-0.074,0.129c-0.067,0.042-0.146,0.064-0.234,0.064v-0.544h-1.691
			v0.351c0,0.051-0.018,0.084-0.053,0.102c-0.081,0.046-0.167,0.069-0.256,0.069v-2.895l0.314,0.182
			c0.257-0.115,0.45-0.244,0.581-0.39l0.251,0.287c0,0.028-0.008,0.043-0.021,0.043C70.391,21.861,70.336,21.854,70.301,21.854z
			 M70.278,20.441c0.33,0.305,0.495,0.541,0.495,0.703c0,0.051-0.021,0.104-0.069,0.161c-0.053,0.061-0.105,0.09-0.159,0.09
			c-0.035,0-0.055-0.026-0.059-0.08c-0.028-0.313-0.119-0.591-0.271-0.837L70.278,20.441z M71.548,20.441l0.352,0.244
			c0.042,0.03,0.064,0.051,0.064,0.065c0,0.025-0.022,0.041-0.064,0.047c-0.049,0.012-0.106,0.046-0.17,0.102
			c-0.277,0.274-0.54,0.496-0.784,0.667l-0.043-0.063C71.227,21.118,71.44,20.766,71.548,20.441z"/>
		<path fill="#FFFFFF" d="M68.674,27.47l0.377,0.214c0.025,0.014,0.039,0.027,0.039,0.037c0,0.015-0.029,0.029-0.086,0.048
			c-0.088,0.029-0.157,0.084-0.208,0.166c-0.093,0.135-0.182,0.261-0.267,0.378l0.148,0.081c0.051,0.021,0.075,0.04,0.075,0.058
			c0,0.015-0.054,0.056-0.165,0.122v1.963c0,0.058-0.03,0.101-0.091,0.129c-0.061,0.024-0.133,0.036-0.219,0.036v-2.063
			c-0.358,0.451-0.7,0.799-1.023,1.045l-0.064-0.043C67.724,29.183,68.218,28.458,68.674,27.47z M67.275,26.702h1.499v-0.81
			l0.427,0.175c0.021,0.008,0.031,0.018,0.031,0.032c0,0.011-0.047,0.052-0.143,0.123v0.479h0.917v-0.81l0.427,0.175
			c0.021,0.008,0.032,0.018,0.032,0.032c0,0.011-0.051,0.052-0.15,0.123v0.479h0.837l0.268-0.352l0.432,0.378
			c0.018,0.015,0.027,0.034,0.027,0.059c0,0.04-0.027,0.06-0.08,0.06h-1.483v0.458c-0.006,0.051-0.042,0.089-0.106,0.117
			c-0.068,0.021-0.134,0.032-0.202,0.032v-0.607H69.09v0.416c-0.011,0.053-0.048,0.093-0.108,0.117
			c-0.07,0.021-0.14,0.031-0.207,0.031v-0.564h-1.061c-0.071,0-0.189,0.015-0.353,0.042L67.275,26.702z M71.232,27.741l0.315,0.326
			c0.028,0.035,0.043,0.06,0.043,0.069c0,0.028-0.059,0.059-0.177,0.09c-0.17,0.043-0.341,0.124-0.512,0.24
			c-0.252,0.175-0.518,0.344-0.795,0.508v1.04c0,0.148,0.038,0.232,0.112,0.25c0.12,0.028,0.279,0.043,0.475,0.043
			c0.277,0,0.482-0.023,0.613-0.069c0.106-0.035,0.167-0.099,0.182-0.188l0.182-0.848l0.063,0.022l0.042,0.654
			c0,0.133,0.057,0.246,0.165,0.343c-0.108,0.198-0.232,0.313-0.367,0.34c-0.117,0.036-0.411,0.054-0.88,0.054
			c-0.349,0-0.592-0.02-0.73-0.058c-0.11-0.032-0.165-0.124-0.165-0.273v-1.129c-0.302,0.169-0.622,0.339-0.96,0.506l-0.043-0.086
			c0.37-0.212,0.704-0.423,1.003-0.628v-1.457l0.41,0.166c0.032,0.014,0.049,0.028,0.049,0.042c0,0.012-0.051,0.06-0.15,0.15v0.879
			C70.573,28.391,70.949,28.062,71.232,27.741z"/>
		<path fill="#FFFFFF" d="M70.902,32.403c-0.384,0.053-0.752,0.101-1.104,0.144v0.709h1.413l0.251-0.336l0.394,0.368
			c0.015,0.015,0.022,0.032,0.022,0.054c0,0.039-0.027,0.059-0.08,0.059h-1.798c0.348,0.345,0.63,0.569,0.842,0.673
			c0.289,0.166,0.704,0.304,1.243,0.41v0.063c-0.209,0.019-0.374,0.095-0.495,0.23c-0.471-0.199-0.827-0.408-1.072-0.63
			c-0.214-0.188-0.425-0.437-0.634-0.746h-0.086v1.066c0,0.058-0.025,0.098-0.075,0.122c-0.067,0.043-0.147,0.065-0.24,0.065V33.4
			h-0.037c-0.267,0.373-0.566,0.679-0.901,0.917c-0.348,0.263-0.786,0.493-1.313,0.688L67.19,34.92
			c0.854-0.43,1.476-0.937,1.866-1.52h-1.237c-0.07,0-0.189,0.015-0.356,0.043l-0.08-0.188h2.101v-0.671
			c-0.658,0.078-1.269,0.142-1.835,0.191l-0.037-0.102c1.452-0.177,2.526-0.399,3.228-0.667l0.313,0.373
			c0,0.03-0.007,0.043-0.021,0.043C71.029,32.411,70.952,32.403,70.902,32.403z M68.443,34.483l0.294,0.171H70.4l0.23-0.23
			l0.324,0.267c0.018,0.019,0.026,0.033,0.026,0.043c0,0.025-0.055,0.081-0.165,0.171v1.807c0,0.04-0.01,0.074-0.031,0.103
			c-0.024,0.032-0.117,0.056-0.276,0.069v-0.357h-1.756v0.208c0,0.046-0.018,0.08-0.053,0.102c-0.083,0.046-0.168,0.069-0.257,0.069
			V34.483z M68.753,35.507h1.756v-0.71h-1.756V35.507z M68.753,36.381h1.756v-0.729h-1.756V36.381z"/>
	</g>
</g>
<path fill="#FFFFFF" d="M42.468,22.655c-2.534,8.834-9.203,10.967-9.203,10.967c7.301-0.702,10.24-8.758,10.787-9.893
	C44.67,22.444,42.823,21.704,42.468,22.655z"/>
<path fill="#FFFFFF" d="M50.112,23.985c-1.079-2.189-1.007-1.417-1.007-1.417c2.116,7.794,7.553,10.844,7.899,10.963
	c0.348,0.119,0.538,0.155,1.144-0.108c0.608-0.264,1.83-0.467,1.83-0.467C56.434,31.108,52.997,29.037,50.112,23.985z"/>
<path fill="#FFFFFF" d="M54.907,10.688c-1.363,4.393-4.771,5.745-4.771,5.745c3.384-0.415,5.984-3.854,6.411-4.581
	C57.538,10.155,55.588,8.5,54.907,10.688z"/>
<path fill="#FFFFFF" d="M35.864,10.609c2.168,0.996,3.838,3.173,4.799,5.068c0.806,1.588,2.384,0.738,1.557-0.861
	C40.04,10.598,35.864,10.609,35.864,10.609z"/>
<path fill="#FFFFFF" d="M59.481,19.697c0.345,0,0.197-0.984-0.764-1.207c-0.959-0.223-1.451,0.64-1.451,0.64H47.229V9.047
	c0-0.398-0.24-0.613-0.684-0.74c-0.433-0.124-0.933,0.009-0.933,0.236V19.13H34.536c-0.064,0.034-0.097,0.188-0.058,0.324
	c0.045,0.156,0.122,0.243,0.263,0.243h10.872V36.15c0,0,0,0.322,0,0.653c0,0.229,0.5,0.36,0.933,0.236
	c0.443-0.126,0.684-0.342,0.684-0.739V19.697H59.481z"/>
<g>
	<path fill="#FFFFFF" d="M29.542,30.345c-0.932-0.215-1.41,0.622-1.41,0.622h-5.037c-0.062,0.032-0.094,0.182-0.055,0.313
		c0.043,0.152,0.117,0.235,0.254,0.235h6.987C30.616,31.515,30.472,30.56,29.542,30.345z"/>
	<path fill="#FFFFFF" d="M24.886,36.261c3.279,0,6.004,0.061,7.109-1.605c0.149-0.217,0.269-0.47,0.336-0.761
		c-0.321-1.075-0.881-2.382-0.799-3.606c-0.074,0.865-0.844,2.688-1.15,3.195c-0.583,0.979-1.038,1.896-5.047,1.896
		c-3.427,0-3.427-2.434-3.427-2.434V19.55h7.204c0,0.118,0,0.27,0,0.425c0,0.225,0.495,0.356,0.921,0.234
		c0.438-0.125,0.676-0.337,0.676-0.731v-5.034c0-0.394-0.237-0.607-0.676-0.731c-0.427-0.122-0.921,0.009-0.921,0.233v0.479h-7.204
		V8.149c0-0.394-0.238-0.606-0.676-0.73c-0.427-0.123-0.922,0.008-0.922,0.233v7.536c0,0,0,0.318,0,0.646
		c0,0.225,0.496,0.356,0.922,0.234c0.438-0.125,0.676-0.337,0.676-0.731v-0.361h7.204V19c-0.863,0-1.287,0-1.287,0h-5.917v-0.107
		c0-0.396-0.239-0.605-0.673-0.731c-0.433-0.12-0.925,0.007-0.925,0.231v14.731c0,0,0,0.165,0,0.381
		c0,0.112,0.008,0.224,0.022,0.337C20.556,35.612,22.609,36.261,24.886,36.261z"/>
	<path fill="#FFFFFF" d="M6.729,11.913h12.638c0.335,0,0.192-0.956-0.739-1.17c-0.932-0.215-1.41,0.621-1.41,0.621H6.529
		c-0.061,0.033-0.093,0.183-0.055,0.314C6.518,11.83,6.592,11.913,6.729,11.913z"/>
	<path fill="#FFFFFF" d="M29.542,22.574c-0.932-0.215-1.41,0.621-1.41,0.621h-5.037c-0.062,0.033-0.094,0.183-0.055,0.314
		c0.043,0.152,0.117,0.234,0.254,0.234h6.987C30.616,23.744,30.472,22.789,29.542,22.574z"/>
	<path fill="#FFFFFF" d="M29.542,26.46c-0.932-0.215-1.41,0.621-1.41,0.621h-5.037c-0.062,0.032-0.094,0.183-0.055,0.313
		c0.043,0.152,0.117,0.235,0.254,0.235h6.987C30.616,27.63,30.472,26.675,29.542,26.46z"/>
	<path fill="#FFFFFF" d="M6.558,17.883h12.804c0.345,0,0.198-0.985-0.763-1.207c-0.96-0.222-1.452,0.64-1.452,0.64H6.353
		c-0.064,0.034-0.095,0.188-0.056,0.324C6.34,17.797,6.417,17.883,6.558,17.883z"/>
	<path fill="#FFFFFF" d="M15.605,13.039c-0.364,2.488-2.365,3.681-2.365,3.681c1.969-0.45,3.473-2.58,3.679-3.03
		C17.399,12.64,15.801,11.71,15.605,13.039z"/>
	<path fill="#FFFFFF" d="M30.09,10.304c1.3-0.883,0.325-2.904-0.84-1.494c-2.181,2.639-5.583,2.425-5.583,2.425
		C26.277,12.101,29.533,10.682,30.09,10.304z"/>
	<path fill="#FFFFFF" d="M12.595,10.226c0.446,1.013,1.817,0.734,1.449-0.321c-0.804-2.299-3.425-2.533-3.425-2.533
		C11.885,8.414,12.002,8.881,12.595,10.226z"/>
	<path fill="#FFFFFF" d="M8.04,12.867c1.177,0.706,1.995,2.057,2.425,3.2c0.361,0.959,1.729,0.668,1.357-0.297
		C10.841,13.22,8.04,12.867,8.04,12.867z"/>
	<path fill="#FFFFFF" d="M9.229,32.813c0.021-0.046,0.029-0.076,0.029-0.076c0.075-0.261,0.157-0.529,0.239-0.806
		c0.201-0.636,0.338-1.45,0.434-2.295h5.902v5.715c0,0,0,0.318,0,0.646c0,0.225,0.495,0.355,0.922,0.233
		c0.438-0.125,0.676-0.337,0.676-0.731V20.136c0-0.394-0.238-0.607-0.676-0.731c-0.427-0.123-0.922,0.008-0.922,0.233v0.8H10.17
		c-0.01-0.366,0.014-0.555-0.323-0.808c-0.525-0.393-1.28-0.366-1.313-0.067c0,0,0,0.423,0,0.43c0.053,1.784,0.082,4.01,0.082,6.66
		c0,1.247-0.052,2.359-0.157,3.353c-0.074,0.643-0.171,1.277-0.313,1.889c-0.015,0.112-0.044,0.217-0.067,0.322
		c-0.126,0.634-0.284,1.187-0.469,1.672c-0.172,0.403-0.382,0.799-0.635,1.202c-0.254,0.403-0.553,0.792-0.889,1.172
		c-0.008,0.015-0.022,0.022-0.03,0.038C8.035,35.717,9.05,33.282,9.229,32.813z M9.987,29.088c0.139-1.532,0.152-3.058,0.15-3.746
		h5.697v3.746H9.987z M15.833,24.792h-5.697c0.007-0.4,0.013-0.8,0.026-1.193c0.008-0.366,0.015-0.717,0.015-1.053
		c0.01-0.418,0.01-1.04,0.002-1.559h5.653V24.792z"/>
</g>
</svg>
