<?xml version="1.0" encoding="utf-8"?>
<!-- Generator: Adobe Illustrator 16.0.0, SVG Export Plug-In . SVG Version: 6.00 Build 0)  -->
<!DOCTYPE svg PUBLIC "-//W3C//DTD SVG 1.1//EN" "http://www.w3.org/Graphics/SVG/1.1/DTD/svg11.dtd">
<svg version="1.1" id="图层_1" xmlns="http://www.w3.org/2000/svg" xmlns:xlink="http://www.w3.org/1999/xlink" x="0px" y="0px"
	 width="200px" height="200px" viewBox="0 0 200 200" enable-background="new 0 0 200 200" xml:space="preserve">
<g>
	<g transform="scale(0.1953125, 0.1953125)">
		<path fill="#B8B8B8" d="M511.951,250.067c-73.222,0-132.592,59.368-132.592,132.595c0,73.225,59.365,132.592,132.592,132.592
			c73.222,0,132.597-59.367,132.597-132.592C644.548,309.435,585.173,250.067,511.951,250.067L511.951,250.067z M511.869,62.388
			c-248.419,0-449.804,201.387-449.804,449.806c0,248.425,201.385,449.804,449.804,449.804s449.799-201.379,449.799-449.804
			C961.667,263.774,760.288,62.388,511.869,62.388L511.869,62.388z M743.993,780.448c-9.675-1.1-19.985-16.575-19.985-16.575
			c-17.645-112.945-105.745-198.895-212.057-198.895c-106.307,0-194.407,85.95-212.05,198.895c0,0-4.063,15.25-19.992,16.575
			c-37.195,3.11-32.715-16.575-32.715-16.575c3.425-103.685,70.102-191.885,163.952-229.339
			c-49.107-32.682-81.512-88.475-81.512-151.87c0-100.697,81.625-182.324,182.317-182.324c100.692,0,182.317,81.625,182.317,182.324
			c0,63.395-32.4,119.188-81.51,151.87c93.85,37.455,160.53,125.655,163.95,229.339c0,0-2.3,20.04-32.72,16.575l0,0H743.993z"/>
	</g>
</g>
</svg>
