<?xml version="1.0" encoding="utf-8"?>
<!-- Generator: Adobe Illustrator 16.0.0, SVG Export Plug-In . SVG Version: 6.00 Build 0)  -->
<!DOCTYPE svg PUBLIC "-//W3C//DTD SVG 1.1//EN" "http://www.w3.org/Graphics/SVG/1.1/DTD/svg11.dtd">
<svg version="1.1" id="图层_1" xmlns="http://www.w3.org/2000/svg" xmlns:xlink="http://www.w3.org/1999/xlink" x="0px" y="0px"
	 width="210.547px" height="200px" viewBox="0 0 210.547 200" enable-background="new 0 0 210.547 200" xml:space="preserve">
<g>
	<g transform="scale(0.1953125, 0.1953125)">
		<path fill="#D3D3D3" d="M966.818,26.947h-859.19c-44.895,0-81.65,33.845-81.65,79.44v807.88c0,45.54,36.755,82.78,81.65,82.78
			h865.925c44.945,0,78.305-37.24,78.305-82.78v-807.88C1051.917,60.792,1011.762,26.947,966.818,26.947L966.818,26.947z
			 M347.782,156.887c71.087,0,128.755,58.367,128.755,130.317c0,71.895-57.667,130.262-128.755,130.262
			c-71.195,0-128.862-58.367-128.862-130.262C218.919,215.254,276.587,156.887,347.782,156.887L347.782,156.887z M193.049,870.183
			c-9.377,0-18.862-3.235-26.515-9.915c-17.192-14.93-19.187-41.07-4.473-58.425l189.815-243.979
			c13.96-16.6,38.05-19.295,55.35-6.415l111.67,122.56l274.917-337.382c14.015-17.895,86.505-102.077,130.21-6.63
			c0.105-0.107,0.105,108.005,0.215,236.922c0.11,134.63,0.11,303.159,0.11,303.159
			C923.378,870.018,193.427,870.183,193.049,870.183L193.049,870.183z"/>
	</g>
</g>
</svg>
