<?xml version="1.0" encoding="utf-8"?>
<!-- Generator: Adobe Illustrator 16.0.0, SVG Export Plug-In . SVG Version: 6.00 Build 0)  -->
<!DOCTYPE svg PUBLIC "-//W3C//DTD SVG 1.1//EN" "http://www.w3.org/Graphics/SVG/1.1/DTD/svg11.dtd">
<svg version="1.1" id="图层_1" xmlns="http://www.w3.org/2000/svg" xmlns:xlink="http://www.w3.org/1999/xlink" x="0px" y="0px"
	 width="36px" height="36px" viewBox="0 0 36 36" enable-background="new 0 0 36 36" xml:space="preserve">
<g>
	<path fill-rule="evenodd" clip-rule="evenodd" fill="#515151" d="M31.534,27.49L31.534,27.49c0,1.723-1.396,3.118-3.118,3.118l0,0
		H8.461l0,0c-1.723,0-3.118-1.396-3.118-3.118V8.783c0-1.377,1.117-2.495,2.495-2.495l0,0h10.084l2.208-1.098
		c0.32-0.117,0.813-0.158,1.07,0.054L21.8,6.288h4.745c1.378,0,2.495,1.117,2.495,2.495v1.87l0,0c1.378,0,2.494,1.117,2.494,2.495
		V27.49L31.534,27.49z M7.837,7.535L7.837,7.535c-0.688,0-1.247,1.182-1.247,1.871c0,0.688,0.559,1.247,1.247,1.247h0.901H8.115
		h0.118c0.009-0.003,0.013-0.01,0.022-0.012l7.472-3.105H7.837L7.837,7.535z M20.981,7.648l-0.663-1.2l0,0l-2.221,1.087h-0.006
		l-6.884,3.118h11.263L20.981,7.648L20.981,7.648z M27.793,8.783c0-0.689-0.559-1.248-1.248-1.248h-4.292l1.53,3.118h4.01l0,0V8.783
		L27.793,8.783z M29.04,11.901H7.837c0,0,0,0-0.001,0C7.38,11.9,6.958,11.769,6.59,11.555V27.49c0,1.033,0.837,1.871,1.871,1.871
		h19.955c1.033,0,1.871-0.838,1.871-1.871v-4.365h-2.494c-1.378,0-2.494-1.116-2.494-2.494c0-1.377,1.116-2.494,2.494-2.494h2.494
		v-4.989C30.287,12.459,29.729,11.901,29.04,11.901L29.04,11.901z M30.287,21.878v-2.494h-2.494c-0.689,0-1.248,0.558-1.248,1.247
		s0.559,1.247,1.248,1.247H30.287L30.287,21.878L30.287,21.878z M27.793,20.007h1.247v1.248h-1.247V20.007L27.793,20.007z"/>
</g>
</svg>
