<?xml version="1.0" encoding="utf-8"?>
<!-- Generator: Adobe Illustrator 16.0.0, SVG Export Plug-In . SVG Version: 6.00 Build 0)  -->
<!DOCTYPE svg PUBLIC "-//W3C//DTD SVG 1.1//EN" "http://www.w3.org/Graphics/SVG/1.1/DTD/svg11.dtd">
<svg version="1.1" id="图层_1" xmlns="http://www.w3.org/2000/svg" xmlns:xlink="http://www.w3.org/1999/xlink" x="0px" y="0px"
	 width="36px" height="36px" viewBox="0 0 36 36" enable-background="new 0 0 36 36" xml:space="preserve">
<g>
	<g transform="scale(0.1953125, 0.1953125)">
		<path fill="#515151" d="M152.82,40.107h8.46V149.96h-8.46V40.107L152.82,40.107z M131.685,40.107h8.455v76.107h-8.455V40.107z
			 M110.54,40.107h12.685v76.107H110.54V40.107z M93.625,40.107h8.46v76.107h-8.46V40.107z M68.257,40.107H85.17v76.107H68.257
			V40.107z M143.87,130.665c0,2.59-1.015,3.97-2.85,6.11l-7.46,8.655h10.31v4.39h-16.23v-4.39l9.965-11.575
			c0.975-1.175,1.39-1.995,1.39-3.23c0-1.985-1.165-3.33-3.225-3.33c-1.615,0-3.26,0.82-3.26,3.4h-4.87c0-4.86,3.56-7.79,8.13-7.79
			C140.495,122.905,143.87,125.865,143.87,130.665z M123.255,130.555c0,2.89-1.31,4.53-3.075,5.47c1.915,1.005,3.45,2.85,3.45,6.075
			c0,5.32-3.9,7.94-8.47,7.94c-4.35,0-8.435-2.285-8.51-7.865h4.87c0.075,2.395,1.73,3.485,3.64,3.485
			c2.09,0,3.595-1.32,3.595-3.715c0-2.21-1.35-3.67-3.745-3.67h-0.71v-4.235h0.71c2.36,0,3.375-1.46,3.375-3.345
			c0-2.235-1.505-3.4-3.26-3.4c-1.84,0-3.195,1.205-3.31,3.22h-4.87c0.115-4.765,3.68-7.61,8.18-7.61
			C119.845,122.905,123.255,126.05,123.255,130.555z M89.635,149.82l8.66-22.305H91.25v4.2h-4.655v-8.585h16.985v4.385l-8.66,22.305
			H89.635z M75.805,133.815c-0.635,0-1.345,0.07-1.985,0.335l5.55-11.02h-5.322l-5.625,11.545c-1.202,2.435-2.25,4.69-2.25,7.12
			c0,5.295,3.6,8.245,8.327,8.245c4.72,0,8.317-3.065,8.317-8.32C82.817,136.775,79.41,133.815,75.805,133.815z M74.5,145.66
			c-1.99,0-3.45-1.43-3.45-3.9c0-2.475,1.46-3.895,3.45-3.895c2.055,0,3.45,1.53,3.45,3.895C77.95,144.23,76.485,145.66,74.5,145.66
			z M54.217,122.905c-4.345,0-8.135,2.845-8.135,7.95V142.1c0,5.1,3.79,7.94,8.135,7.94c4.352,0,8.102-2.84,8.102-7.94v-11.245
			C62.32,125.75,58.57,122.905,54.217,122.905z M57.445,142.06c0,2.25-1.313,3.6-3.227,3.6c-1.907,0-3.26-1.35-3.26-3.6v-11.135
			c0-2.245,1.353-3.63,3.26-3.63c1.915,0,3.227,1.38,3.227,3.63V142.06z M51.34,40.107h8.462v76.107H51.34V40.107L51.34,40.107z
			 M25.972,40.107h12.685V149.96H25.972V40.107z"/>
	</g>
</g>
</svg>
