<?xml version="1.0" encoding="utf-8"?>
<!-- Generator: Adobe Illustrator 16.0.0, SVG Export Plug-In . SVG Version: 6.00 Build 0)  -->
<!DOCTYPE svg PUBLIC "-//W3C//DTD SVG 1.1//EN" "http://www.w3.org/Graphics/SVG/1.1/DTD/svg11.dtd">
<svg version="1.1" id="图层_1" xmlns="http://www.w3.org/2000/svg" xmlns:xlink="http://www.w3.org/1999/xlink" x="0px" y="0px"
	 width="60px" height="60px" viewBox="0 0 200 200" enable-background="new 0 0 200 200" xml:space="preserve">
<path fill="#d83b3b" d="M101.873,7.502c-52.931,0-95.841,42.91-95.841,95.841c0,52.928,42.91,95.838,95.841,95.838
	c52.93,0,95.838-42.91,95.838-95.838C197.711,50.412,154.803,7.502,101.873,7.502L101.873,7.502z"/>
<path fill="#FFFFFF" d="M166.966,72.081l-73.93,73.925l-0.077-0.086l-0.018,0.018L43.653,96.65c-3.405-3.407-3.405-8.92,0-12.321
	c3.407-3.405,8.923-3.405,12.321,0l37.046,37.049l61.624-61.627c3.405-3.405,8.921-3.405,12.321,0
	C170.361,63.158,170.371,68.673,166.966,72.081L166.966,72.081z"/>
</svg>
