<?xml version="1.0" encoding="utf-8"?>
<!-- Generator: Adobe Illustrator 16.0.0, SVG Export Plug-In . SVG Version: 6.00 Build 0)  -->
<!DOCTYPE svg PUBLIC "-//W3C//DTD SVG 1.1//EN" "http://www.w3.org/Graphics/SVG/1.1/DTD/svg11.dtd">
<svg version="1.1" xmlns="http://www.w3.org/2000/svg" xmlns:xlink="http://www.w3.org/1999/xlink" x="0px" y="0px"
	 width="32px" height="32px" viewBox="0 0 200 200" enable-background="new 0 0 200 200" xml:space="preserve">
<g>
	<g transform="scale(0.1953125, 0.1953125)">
		<path fill="#B2B2B2" d="M953.502,908.253L800.893,744.958c61.854-74.495,95.875-167.359,95.875-265.119
			c0-229.342-186.625-415.967-416.034-415.967c-229.342,0-415.966,186.589-415.966,415.967
			c0,229.374,186.625,415.969,415.999,415.969c60.097-0.035,118.047-12.58,172.222-37.25c16.1-7.33,23.2-26.305,15.875-42.37
			c-7.33-16.125-26.4-23.26-42.37-15.87c-45.855,20.865-94.88,31.455-145.76,31.49c-194.079,0-351.967-157.89-351.967-351.969
			c0-194.047,157.887-351.967,351.967-351.967c194.115,0,352.034,157.887,352.034,351.967c0,91.36-34.85,177.919-98.08,243.744
			c-12.26,12.735-11.84,32.99,0.86,45.245c0.96,0.93,2.21,1.28,3.3,2.08c0.86,1.28,1.31,2.755,2.4,3.905l165.5,177.09
			c6.275,6.75,14.82,10.145,23.36,10.145c7.84,0,15.68-2.85,21.86-8.64C964.862,941.408,965.567,921.148,953.502,908.253z"/>
	</g>
</g>
</svg>
