<?xml version="1.0" encoding="utf-8"?>
<!-- Generator: Adobe Illustrator 17.0.0, SVG Export Plug-In . SVG Version: 6.00 Build 0)  -->
<!DOCTYPE svg PUBLIC "-//W3C//DTD SVG 1.1//EN" "http://www.w3.org/Graphics/SVG/1.1/DTD/svg11.dtd">
<svg version="1.1" id="图层_1" xmlns="http://www.w3.org/2000/svg" xmlns:xlink="http://www.w3.org/1999/xlink" x="0px" y="0px"
	 width="200px" height="200px" viewBox="0 0 200 200" enable-background="new 0 0 200 200" xml:space="preserve">
<g>
	<g>
		<path fill="#A72E48" d="M60.711,150.39c-10.252,0-18.557,8.373-18.557,18.693c0,10.322,8.305,18.695,18.557,18.695
			c10.248,0,18.556-8.373,18.556-18.695C79.267,158.763,70.959,150.39,60.711,150.39z M60.711,178.43
			c-5.123,0-9.278-4.181-9.278-9.347c0-5.165,4.156-9.345,9.278-9.345c5.123,0,9.279,4.181,9.279,9.345
			C69.99,174.249,65.834,178.43,60.711,178.43z"/>
	</g>
	<g>
		<path fill="#A72E48" d="M158.13,150.39c-10.245,0-18.555,8.373-18.555,18.693c0,10.322,8.31,18.695,18.555,18.695
			c10.248,0,18.557-8.373,18.557-18.695C176.687,158.763,168.378,150.39,158.13,150.39z M158.13,178.43
			c-5.122,0-9.278-4.181-9.278-9.347c0-5.165,4.157-9.345,9.278-9.345c5.128,0,9.279,4.181,9.279,9.345
			C167.408,174.249,163.257,178.43,158.13,178.43z"/>
	</g>
	<g>
		<path fill="#A72E48" d="M165.616,120.077l-4.009,13.953H65.369c-3.168,0-6.87-2.667-7.872-5.637L18.714,13.349
			c-0.826-2.444-3.462-3.754-5.885-2.924c-2.426,0.826-3.726,3.487-2.9,5.927L48.71,131.4c2.282,6.77,9.527,11.977,16.659,11.977
			h103.209l0.964-3.375l5.727-19.926H165.616z"/>
	</g>
	<g>
		<path fill="#A72E48" d="M83.905,54.578h97.416c2.02,0,2.807,1.055,2.245,3.03l-5.233,18.215h9.653l4.487-15.616
			c2.286-7.956-2.951-14.981-11.151-14.981H83.905c-2.561,0-4.638,2.094-4.638,4.672C79.267,52.484,81.344,54.578,83.905,54.578z"/>
	</g>
</g>
</svg>
